<?xml version="1.0" encoding="UTF-8" standalone="no"?>
<svg width="154px" height="155px" viewBox="0 0 154 155" version="1.1" xmlns="http://www.w3.org/2000/svg" xmlns:xlink="http://www.w3.org/1999/xlink">
    <!-- Generator: Sketch 45.2 (43514) - http://www.bohemiancoding.com/sketch -->
    <title>clone-icon</title>
    <desc>Created with Sketch.</desc>
    <defs></defs>
    <g id="Icons" stroke="none" stroke-width="1" fill="none" fill-rule="evenodd">
        <g id="Tool-Icons" transform="translate(-1406.000000, -749.000000)" fill="#AFAFAF">
            <g id="clone-icon" transform="translate(1406.000000, 749.000000)">
                <path d="M122.075169,32.1417731 C120.939532,30.995494 119.349099,30.2790696 117.607368,30.2799708 L42.7057314,30.2799708 L42.7057314,12.6892732 L141.374701,12.6892732 L141.374701,112.033459 L123.920467,112.033459 L123.920467,36.6241568 C123.921368,34.8813079 123.214409,33.2853487 122.075169,32.1417731 L122.075169,32.1417731 Z M12.6261995,142.311627 L111.294269,142.311627 L111.294269,42.9674416 L12.6261995,42.9674416 L12.6261995,142.311627 Z M152.154701,1.86270348 C151.019964,0.716424415 149.42773,0 147.6869,0 L36.392632,0 C34.6518016,0 33.0604683,0.715523252 31.9248309,1.86180232 C30.7864917,3.00537789 30.0786321,4.60133718 30.0795327,6.34508717 L30.0795327,30.2799708 L6.3131002,30.2799708 C4.57226981,30.2790696 2.9809365,30.995494 1.84529908,32.1417731 C0.706959915,33.2853487 -0.000899726469,34.8813079 8.58316089e-07,36.6241568 L8.58316089e-07,148.655813 C-0.000899726469,150.399563 0.706959915,151.995522 1.84529908,153.138197 C2.9809365,154.284476 4.57226981,155.0009 6.3131002,154.999999 L117.607368,154.999999 C119.349099,155.0009 120.939532,154.284476 122.075169,153.138197 C123.214409,151.994621 123.921368,150.398662 123.920467,148.655813 L123.920467,124.721831 L147.6869,124.721831 C149.42773,124.722732 151.019964,124.005406 152.154701,122.859127 C153.29304,121.716453 154.0009,120.120494 153.999999,118.377645 L153.999999,6.34508717 C154.0009,4.60133718 153.29304,3.00537789 152.154701,1.86270348 L152.154701,1.86270348 Z" id="Fill-1"></path>
            </g>
        </g>
    </g>
</svg>