<?xml version="1.0" encoding="UTF-8" standalone="no"?>
<svg width="254px" height="56px" viewBox="0 0 254 56" version="1.1" xmlns="http://www.w3.org/2000/svg" xmlns:xlink="http://www.w3.org/1999/xlink">
    <!-- Generator: Sketch 45.2 (43514) - http://www.bohemiancoding.com/sketch -->
    <title>DELETE</title>
    <desc>Created with Sketch.</desc>
    <defs></defs>
    <g id="Tool-Palette" stroke="none" stroke-width="1" fill="none" fill-rule="evenodd">
        <g id="Tool-Palette---Default" transform="translate(-1355.000000, -1544.000000)" fill="#FFFFFF">
            <path d="M1369.74,1544.64 C1384.38,1544.64 1398.3,1549.2 1398.3,1572.08 C1398.3,1594.4 1384.7,1600 1371.1,1600 L1355.26,1600 L1355.26,1544.64 L1369.74,1544.64 Z M1367.02,1553.28 L1367.02,1591.36 L1371.82,1591.36 C1379.9,1591.36 1386.06,1587.6 1386.06,1572.08 C1386.06,1556.24 1379.58,1553.28 1371.58,1553.28 L1367.02,1553.28 Z M1439.02,1553.2 L1440.3,1544.64 L1407.26,1544.64 L1407.26,1600 L1440.46,1600 L1440.46,1591.36 L1419.02,1591.36 L1419.02,1576.08 L1436.46,1576.08 L1436.46,1567.6 L1419.02,1567.6 L1419.02,1553.2 L1439.02,1553.2 Z M1461.26,1590.56 L1461.26,1544.64 L1449.5,1544.64 L1449.5,1600 L1481.9,1600 L1483.18,1590.56 L1461.26,1590.56 Z M1521.98,1553.2 L1523.26,1544.64 L1490.22,1544.64 L1490.22,1600 L1523.42,1600 L1523.42,1591.36 L1501.98,1591.36 L1501.98,1576.08 L1519.42,1576.08 L1519.42,1567.6 L1501.98,1567.6 L1501.98,1553.2 L1521.98,1553.2 Z M1567.9,1553.84 L1569.18,1544.64 L1527.42,1544.64 L1527.42,1553.84 L1542.14,1553.84 L1542.14,1600 L1553.9,1600 L1553.9,1553.84 L1567.9,1553.84 Z M1606.94,1553.2 L1608.22,1544.64 L1575.18,1544.64 L1575.18,1600 L1608.38,1600 L1608.38,1591.36 L1586.94,1591.36 L1586.94,1576.08 L1604.38,1576.08 L1604.38,1567.6 L1586.94,1567.6 L1586.94,1553.2 L1606.94,1553.2 Z" id="DELETE"></path>
        </g>
    </g>
</svg>