<?xml version="1.0" encoding="UTF-8" standalone="no"?>
<svg width="250px" height="59px" viewBox="0 0 250 59" version="1.1" xmlns="http://www.w3.org/2000/svg" xmlns:xlink="http://www.w3.org/1999/xlink">
    <!-- Generator: Sketch 45.2 (43514) - http://www.bohemiancoding.com/sketch -->
    <title>GROUP</title>
    <desc>Created with Sketch.</desc>
    <defs></defs>
    <g id="Tool-Palette" stroke="none" stroke-width="1" fill="none" fill-rule="evenodd">
        <g id="Tool-Palette---Default" transform="translate(-1917.000000, -983.000000)" fill="#FFFFFF">
            <path d="M1942.98,983.36 C1928.82,983.36 1917.14,993.52 1917.14,1012.24 C1917.14,1031.28 1925.7,1041.28 1941.7,1041.28 C1949.14,1041.28 1955.94,1039.12 1961.46,1035.68 L1961.46,1008.4 L1941.06,1008.4 L1942.26,1016.96 L1950.02,1016.96 L1950.02,1030.48 C1947.54,1031.84 1944.74,1032.48 1941.78,1032.48 C1933.62,1032.48 1929.46,1027.12 1929.46,1012.32 C1929.46,997.92 1935.7,992.08 1943.54,992.08 C1948.1,992.08 1951.22,993.52 1954.82,996.48 L1961.14,990 C1956.5,986 1950.9,983.36 1942.98,983.36 Z M1988.98,1018.32 L1982.98,1018.32 L1982.98,1040 L1971.22,1040 L1971.22,984.64 L1988.5,984.64 C2003.3,984.64 2010.82,990 2010.82,1001.2 C2010.82,1008.56 2007.22,1012.96 1999.86,1016.16 L2014.18,1040 L2000.82,1040 L1988.98,1018.32 Z M1982.98,1010 L1989.14,1010 C1995.3,1010 1998.66,1007.44 1998.66,1001.2 C1998.66,995.52 1995.38,993.04 1988.26,993.04 L1982.98,993.04 L1982.98,1010 Z M2041.38,983.36 C2056.58,983.36 2065.94,993.76 2065.94,1012.32 C2065.94,1030.48 2056.58,1041.28 2041.38,1041.28 C2026.18,1041.28 2016.74,1030.8 2016.74,1012.32 C2016.74,994.24 2026.18,983.36 2041.38,983.36 Z M2041.38,992.16 C2033.54,992.16 2029.14,997.84 2029.14,1012.32 C2029.14,1026.8 2033.7,1032.48 2041.38,1032.48 C2049.3,1032.48 2053.54,1026.8 2053.54,1012.32 C2053.54,997.84 2049.3,992.16 2041.38,992.16 Z M2116.18,1021.76 L2116.18,984.64 L2104.42,984.64 L2104.42,1021.2 C2104.42,1028.64 2101.54,1032.32 2095.06,1032.32 C2088.66,1032.32 2085.78,1028.64 2085.78,1021.2 L2085.78,984.64 L2074.02,984.64 L2074.02,1021.76 C2074.02,1033.28 2081.06,1041.28 2095.06,1041.28 C2109.06,1041.28 2116.18,1032.88 2116.18,1021.76 Z M2144.26,984.64 C2158.34,984.64 2166.98,990.4 2166.98,1002.48 C2166.98,1015.28 2157.86,1021.12 2145.22,1021.12 L2138.9,1021.12 L2138.9,1040 L2127.14,1040 L2127.14,984.64 L2144.26,984.64 Z M2144.26,1012.48 C2150.74,1012.48 2154.82,1010 2154.82,1002.48 C2154.82,996 2150.98,993.12 2144.1,993.12 L2138.9,993.12 L2138.9,1012.48 L2144.26,1012.48 Z" id="GROUP"></path>
        </g>
    </g>
</svg>