<?xml version="1.0" encoding="UTF-8" standalone="no"?>
<svg width="297px" height="59px" viewBox="0 0 297 59" version="1.1" xmlns="http://www.w3.org/2000/svg" xmlns:xlink="http://www.w3.org/1999/xlink">
    <!-- Generator: Sketch 45.2 (43514) - http://www.bohemiancoding.com/sketch -->
    <title>PHYSICS</title>
    <desc>Created with Sketch.</desc>
    <defs></defs>
    <g id="Tool-Palette" stroke="none" stroke-width="1" fill="none" fill-rule="evenodd">
        <g id="Tool-Palette---Default" transform="translate(-212.000000, -1543.000000)" fill="#FFFFFF">
            <path d="M229.38,1544.64 C243.46,1544.64 252.1,1550.4 252.1,1562.48 C252.1,1575.28 242.98,1581.12 230.34,1581.12 L224.02,1581.12 L224.02,1600 L212.26,1600 L212.26,1544.64 L229.38,1544.64 Z M229.38,1572.48 C235.86,1572.48 239.94,1570 239.94,1562.48 C239.94,1556 236.1,1553.12 229.22,1553.12 L224.02,1553.12 L224.02,1572.48 L229.38,1572.48 Z M289.94,1575.76 L289.94,1600 L301.7,1600 L301.7,1544.64 L289.94,1544.64 L289.94,1566.48 L271.62,1566.48 L271.62,1544.64 L259.86,1544.64 L259.86,1600 L271.62,1600 L271.62,1575.76 L289.94,1575.76 Z M336.74,1579.12 L336.74,1600 L324.98,1600 L324.98,1579.2 L307.22,1544.64 L320.1,1544.64 L331.14,1569.76 L342.1,1544.64 L354.5,1544.64 L336.74,1579.12 Z M373.7,1543.36 C381.94,1543.36 387.54,1545.84 392.34,1550.32 L386.66,1556.88 C382.82,1553.6 378.98,1552.16 374.5,1552.16 C369.7,1552.16 366.42,1554.24 366.42,1558.16 C366.42,1562 368.5,1563.6 377.54,1566.4 C387.54,1569.6 393.94,1573.76 393.94,1584 C393.94,1594.16 385.94,1601.28 372.5,1601.28 C363.3,1601.28 356.58,1598 352.02,1593.52 L358.18,1586.8 C362.02,1590.32 366.5,1592.4 372.18,1592.4 C377.86,1592.4 381.7,1589.68 381.7,1584.8 C381.7,1580.4 379.54,1578.48 371.14,1575.92 C359.14,1572.16 354.34,1567.36 354.34,1558.96 C354.34,1549.52 362.5,1543.36 373.7,1543.36 Z M413.86,1600 L413.86,1544.64 L402.02,1544.64 L402.02,1600 L413.86,1600 Z M447.22,1543.36 C433.38,1543.36 422.74,1553.6 422.74,1572.24 C422.74,1591.12 432.82,1601.28 447.54,1601.28 C455.22,1601.28 461.06,1597.92 464.58,1594.32 L459.14,1587.36 C455.94,1589.84 452.74,1592 448.1,1592 C440.5,1592 435.14,1586.16 435.14,1572.24 C435.14,1557.84 440.58,1552.24 447.94,1552.24 C451.78,1552.24 454.98,1553.6 458.02,1556.24 L463.94,1549.36 C459.38,1545.52 454.58,1543.36 447.22,1543.36 Z M488.1,1543.36 C476.9,1543.36 468.74,1549.52 468.74,1558.96 C468.74,1567.36 473.54,1572.16 485.54,1575.92 C493.94,1578.48 496.1,1580.4 496.1,1584.8 C496.1,1589.68 492.26,1592.4 486.58,1592.4 C480.9,1592.4 476.42,1590.32 472.58,1586.8 L466.42,1593.52 C470.98,1598 477.7,1601.28 486.9,1601.28 C500.34,1601.28 508.34,1594.16 508.34,1584 C508.34,1573.76 501.94,1569.6 491.94,1566.4 C482.9,1563.6 480.82,1562 480.82,1558.16 C480.82,1554.24 484.1,1552.16 488.9,1552.16 C493.38,1552.16 497.22,1553.6 501.06,1556.88 L506.74,1550.32 C501.94,1545.84 496.34,1543.36 488.1,1543.36 Z" id="PHYSICS"></path>
        </g>
    </g>
</svg>