<?xml version="1.0" encoding="utf-8"?>
<!DOCTYPE svg PUBLIC "-//W3C//DTD SVG 1.1//EN" "http://www.w3.org/Graphics/SVG/1.1/DTD/svg11.dtd">
<svg xmlns="http://www.w3.org/2000/svg" xmlns:xlink="http://www.w3.org/1999/xlink" version="1.1" baseProfile="full" width="192" height="59" viewBox="0 0 192.00 59.00" enable-background="new 0 0 192.00 59.00" xml:space="preserve">
	<g>
		<path fill="#FFFFFF" fill-opacity="1" stroke-width="0.2" stroke-linejoin="round" d="M 19.9033,35.58L 13.9533,35.58L 13.9533,57.3843L 2.28885,57.3843L 2.28885,1.72698L 19.4323,1.72698C 26.7789,1.72698 32.3033,3.10498 36.0055,5.86099C 39.7077,8.61699 41.5589,12.7799 41.5589,18.3498C 41.5589,22.0438 40.687,25.0704 38.9433,27.4297C 37.1996,29.7891 34.4767,31.7703 30.7745,33.3735L 44.8933,57.3843L 31.6422,57.3843L 19.9033,35.58 Z M 13.9533,27.1136L 20.0645,27.1136C 23.18,27.1136 25.531,26.4091 27.1177,25.0002C 28.7044,23.5912 29.4977,21.3702 29.4977,18.3374C 29.4977,15.5112 28.6651,13.4472 26.9999,12.1457C 25.3348,10.8441 22.7296,10.1933 19.1844,10.1933L 13.9533,10.1933L 13.9533,27.1136 Z "/>
		<path fill="#FFFFFF" fill-opacity="1" stroke-width="0.2" stroke-linejoin="round" d="M 82.18,10.1933L 62.3467,10.1933L 62.3467,24.7336L 79.6388,24.7336L 79.6388,33.2L 62.3467,33.2L 62.3467,48.5336L 83.6055,48.5336L 83.6055,57L 50.6822,57L 50.6822,1.72698L 83.4444,1.72698L 82.18,10.1933 Z "/>
		<path fill="#FFFFFF" fill-opacity="1" stroke-width="0.2" stroke-linejoin="round" d="M 107.096,1.72698C 115.657,1.72698 122.516,3.68346 127.673,7.59641C 132.829,11.5094 135.408,18.6845 135.408,29.1218C 135.408,39.3442 132.883,46.5462 127.834,50.7277C 122.785,54.9092 116.318,57 108.434,57L 92.7289,57L 92.7289,1.72698L 107.096,1.72698 Z M 104.393,10.1933L 104.393,48.5336L 109.153,48.5336C 113.649,48.5336 117.126,47.1247 119.584,44.3067C 122.043,41.4887 123.272,36.427 123.272,29.1218C 123.272,24.0725 122.65,20.1513 121.407,17.3581C 120.163,14.5649 118.51,12.6725 116.448,11.6808C 114.386,10.6892 111.876,10.1933 108.918,10.1933L 104.393,10.1933 Z "/>
		<path fill="#FFFFFF" fill-opacity="1" stroke-width="0.2" stroke-linejoin="round" d="M 165.951,0.933643C 170.975,0.933643 175.314,2.06166 178.967,4.31771C 182.619,6.57375 185.423,9.85245 187.377,14.1538C 189.332,18.4552 190.309,23.6552 190.309,29.754C 190.309,35.7535 189.332,40.9185 187.377,45.2487C 185.423,49.579 182.619,52.8846 178.967,55.1654C 175.314,57.4463 170.975,58.5867 165.951,58.5867C 160.927,58.5867 156.578,57.4586 152.904,55.2026C 149.231,52.9466 146.415,49.6555 144.457,45.3293C 142.498,41.0032 141.519,35.8114 141.519,29.754C 141.519,23.8122 142.511,18.6783 144.494,14.3521C 146.477,10.026 149.308,6.70804 152.985,4.39828C 156.662,2.08852 160.984,0.933643 165.951,0.933643 Z M 165.951,9.4C 161.935,9.4 158.908,11.0156 156.871,14.2468C 154.834,17.478 153.816,22.647 153.816,29.754C 153.816,36.8692 154.846,42.0424 156.908,45.2735C 158.97,48.5047 161.984,50.1203 165.951,50.1203C 169.976,50.1203 172.992,48.5171 175,45.3107C 177.008,42.1043 178.012,36.9188 178.012,29.754C 178.012,22.5974 177.008,17.416 175,14.2096C 172.992,11.0032 169.976,9.4 165.951,9.4 Z "/>
	</g>
</svg>
