<?xml version="1.0" encoding="UTF-8" standalone="no"?>
<svg width="737px" height="82px" viewBox="0 0 737 82" version="1.1" xmlns="http://www.w3.org/2000/svg" xmlns:xlink="http://www.w3.org/1999/xlink">
    <!-- Generator: Sketch 45.2 (43514) - http://www.bohemiancoding.com/sketch -->
    <title>STRETCH TOOL</title>
    <desc>Created with Sketch.</desc>
    <defs></defs>
    <g id="Stretch-Tool" stroke="none" stroke-width="1" fill="none" fill-rule="evenodd">
        <g id="Stretch---Default" transform="translate(-832.000000, -200.000000)" fill="#FFFFFF">
            <path d="M862.484,200.704 C846.804,200.704 835.38,209.328 835.38,222.544 C835.38,234.304 842.1,241.024 858.9,246.288 C870.66,249.872 873.684,252.56 873.684,258.72 C873.684,265.552 868.308,269.36 860.356,269.36 C852.404,269.36 846.132,266.448 840.756,261.52 L832.132,270.928 C838.516,277.2 847.924,281.792 860.804,281.792 C879.62,281.792 890.82,271.824 890.82,257.6 C890.82,243.264 881.86,237.44 867.86,232.96 C855.204,229.04 852.292,226.8 852.292,221.424 C852.292,215.936 856.884,213.024 863.604,213.024 C869.876,213.024 875.252,215.04 880.628,219.632 L888.58,210.448 C881.86,204.176 874.02,200.704 862.484,200.704 Z M950.628,215.376 L952.42,202.496 L893.956,202.496 L893.956,215.376 L914.564,215.376 L914.564,280 L931.028,280 L931.028,215.376 L950.628,215.376 Z M985.684,249.648 L977.284,249.648 L977.284,280 L960.82,280 L960.82,202.496 L985.012,202.496 C1005.732,202.496 1016.26,210 1016.26,225.68 C1016.26,235.984 1011.22,242.144 1000.916,246.624 L1020.964,280 L1002.26,280 L985.684,249.648 Z M977.284,238 L985.908,238 C994.532,238 999.236,234.416 999.236,225.68 C999.236,217.728 994.644,214.256 984.676,214.256 L977.284,214.256 L977.284,238 Z M1074.052,214.48 L1075.844,202.496 L1029.588,202.496 L1029.588,280 L1076.068,280 L1076.068,267.904 L1046.052,267.904 L1046.052,246.512 L1070.468,246.512 L1070.468,234.64 L1046.052,234.64 L1046.052,214.48 L1074.052,214.48 Z M1138.34,215.376 L1140.132,202.496 L1081.668,202.496 L1081.668,215.376 L1102.276,215.376 L1102.276,280 L1118.74,280 L1118.74,215.376 L1138.34,215.376 Z M1174.964,200.704 C1155.588,200.704 1140.692,215.04 1140.692,241.136 C1140.692,267.568 1154.804,281.792 1175.412,281.792 C1186.164,281.792 1194.34,277.088 1199.268,272.048 L1191.652,262.304 C1187.172,265.776 1182.692,268.8 1176.196,268.8 C1165.556,268.8 1158.052,260.624 1158.052,241.136 C1158.052,220.976 1165.668,213.136 1175.972,213.136 C1181.348,213.136 1185.828,215.04 1190.084,218.736 L1198.372,209.104 C1191.988,203.728 1185.268,200.704 1174.964,200.704 Z M1250.676,246.064 L1250.676,280 L1267.14,280 L1267.14,202.496 L1250.676,202.496 L1250.676,233.072 L1225.028,233.072 L1225.028,202.496 L1208.564,202.496 L1208.564,280 L1225.028,280 L1225.028,246.064 L1250.676,246.064 Z M1360.436,215.376 L1362.228,202.496 L1303.764,202.496 L1303.764,215.376 L1324.372,215.376 L1324.372,280 L1340.836,280 L1340.836,215.376 L1360.436,215.376 Z M1397.284,200.704 C1418.564,200.704 1431.668,215.264 1431.668,241.248 C1431.668,266.672 1418.564,281.792 1397.284,281.792 C1376.004,281.792 1362.788,267.12 1362.788,241.248 C1362.788,215.936 1376.004,200.704 1397.284,200.704 Z M1397.284,213.024 C1386.308,213.024 1380.148,220.976 1380.148,241.248 C1380.148,261.52 1386.532,269.472 1397.284,269.472 C1408.372,269.472 1414.308,261.52 1414.308,241.248 C1414.308,220.976 1408.372,213.024 1397.284,213.024 Z M1474.676,200.704 C1495.956,200.704 1509.06,215.264 1509.06,241.248 C1509.06,266.672 1495.956,281.792 1474.676,281.792 C1453.396,281.792 1440.18,267.12 1440.18,241.248 C1440.18,215.936 1453.396,200.704 1474.676,200.704 Z M1474.676,213.024 C1463.7,213.024 1457.54,220.976 1457.54,241.248 C1457.54,261.52 1463.924,269.472 1474.676,269.472 C1485.764,269.472 1491.7,261.52 1491.7,241.248 C1491.7,220.976 1485.764,213.024 1474.676,213.024 Z M1537.956,266.784 L1537.956,202.496 L1521.492,202.496 L1521.492,280 L1566.852,280 L1568.644,266.784 L1537.956,266.784 Z" id="STRETCH-TOOL"></path>
        </g>
    </g>
</svg>