<?xml version="1.0" encoding="UTF-8" standalone="no"?>
<svg width="152px" height="48px" viewBox="0 0 152 48" version="1.1" xmlns="http://www.w3.org/2000/svg" xmlns:xlink="http://www.w3.org/1999/xlink">
    <!-- Generator: Sketch 45.2 (43514) - http://www.bohemiancoding.com/sketch -->
    <title>TOOL</title>
    <desc>Created with Sketch.</desc>
    <defs></defs>
    <g id="Tool-Palette" stroke="none" stroke-width="1" fill="none" fill-rule="evenodd">
        <g id="Tool-Palette---Default" transform="translate(-282.000000, -1074.000000)" fill="#AFAFAF">
            <path d="M315.044,1083.072 L316.068,1075.712 L282.66,1075.712 L282.66,1083.072 L294.436,1083.072 L294.436,1120 L303.844,1120 L303.844,1083.072 L315.044,1083.072 Z M336.1,1074.688 C348.26,1074.688 355.748,1083.008 355.748,1097.856 C355.748,1112.384 348.26,1121.024 336.1,1121.024 C323.94,1121.024 316.388,1112.64 316.388,1097.856 C316.388,1083.392 323.94,1074.688 336.1,1074.688 Z M336.1,1081.728 C329.828,1081.728 326.308,1086.272 326.308,1097.856 C326.308,1109.44 329.956,1113.984 336.1,1113.984 C342.436,1113.984 345.828,1109.44 345.828,1097.856 C345.828,1086.272 342.436,1081.728 336.1,1081.728 Z M380.324,1074.688 C392.484,1074.688 399.972,1083.008 399.972,1097.856 C399.972,1112.384 392.484,1121.024 380.324,1121.024 C368.164,1121.024 360.612,1112.64 360.612,1097.856 C360.612,1083.392 368.164,1074.688 380.324,1074.688 Z M380.324,1081.728 C374.052,1081.728 370.532,1086.272 370.532,1097.856 C370.532,1109.44 374.18,1113.984 380.324,1113.984 C386.66,1113.984 390.052,1109.44 390.052,1097.856 C390.052,1086.272 386.66,1081.728 380.324,1081.728 Z M416.484,1112.448 L416.484,1075.712 L407.076,1075.712 L407.076,1120 L432.996,1120 L434.02,1112.448 L416.484,1112.448 Z" id="TOOL"></path>
        </g>
    </g>
</svg>