<?xml version="1.0" encoding="UTF-8" standalone="no"?>
<svg width="327px" height="82px" viewBox="0 0 327 82" version="1.1" xmlns="http://www.w3.org/2000/svg" xmlns:xlink="http://www.w3.org/1999/xlink">
    <!-- Generator: Sketch 45.2 (43514) - http://www.bohemiancoding.com/sketch -->
    <title>TOOLS</title>
    <desc>Created with Sketch.</desc>
    <defs></defs>
    <g id="Tool-Palette" stroke="none" stroke-width="1" fill="none" fill-rule="evenodd">
        <g id="Tool-Palette---Default" transform="translate(-1036.000000, -200.000000)" fill="#FFFFFF">
            <path d="M1092.812,215.376 L1094.604,202.496 L1036.14,202.496 L1036.14,215.376 L1056.748,215.376 L1056.748,280 L1073.212,280 L1073.212,215.376 L1092.812,215.376 Z M1129.66,200.704 C1150.94,200.704 1164.044,215.264 1164.044,241.248 C1164.044,266.672 1150.94,281.792 1129.66,281.792 C1108.38,281.792 1095.164,267.12 1095.164,241.248 C1095.164,215.936 1108.38,200.704 1129.66,200.704 Z M1129.66,213.024 C1118.684,213.024 1112.524,220.976 1112.524,241.248 C1112.524,261.52 1118.908,269.472 1129.66,269.472 C1140.748,269.472 1146.684,261.52 1146.684,241.248 C1146.684,220.976 1140.748,213.024 1129.66,213.024 Z M1207.052,200.704 C1228.332,200.704 1241.436,215.264 1241.436,241.248 C1241.436,266.672 1228.332,281.792 1207.052,281.792 C1185.772,281.792 1172.556,267.12 1172.556,241.248 C1172.556,215.936 1185.772,200.704 1207.052,200.704 Z M1207.052,213.024 C1196.076,213.024 1189.916,220.976 1189.916,241.248 C1189.916,261.52 1196.3,269.472 1207.052,269.472 C1218.14,269.472 1224.076,261.52 1224.076,241.248 C1224.076,220.976 1218.14,213.024 1207.052,213.024 Z M1270.332,266.784 L1270.332,202.496 L1253.868,202.496 L1253.868,280 L1299.228,280 L1301.02,266.784 L1270.332,266.784 Z M1334.508,200.704 C1318.828,200.704 1307.404,209.328 1307.404,222.544 C1307.404,234.304 1314.124,241.024 1330.924,246.288 C1342.684,249.872 1345.708,252.56 1345.708,258.72 C1345.708,265.552 1340.332,269.36 1332.38,269.36 C1324.428,269.36 1318.156,266.448 1312.78,261.52 L1304.156,270.928 C1310.54,277.2 1319.948,281.792 1332.828,281.792 C1351.644,281.792 1362.844,271.824 1362.844,257.6 C1362.844,243.264 1353.884,237.44 1339.884,232.96 C1327.228,229.04 1324.316,226.8 1324.316,221.424 C1324.316,215.936 1328.908,213.024 1335.628,213.024 C1341.9,213.024 1347.276,215.04 1352.652,219.632 L1360.604,210.448 C1353.884,204.176 1346.044,200.704 1334.508,200.704 Z" id="TOOLS"></path>
        </g>
    </g>
</svg>