<?xml version="1.0" encoding="UTF-8"?>
<svg width="24" height="24" fill="none" version="1.1" viewBox="0 0 24 24" xmlns="http://www.w3.org/2000/svg" xmlns:cc="http://creativecommons.org/ns#" xmlns:dc="http://purl.org/dc/elements/1.1/" xmlns:rdf="http://www.w3.org/1999/02/22-rdf-syntax-ns#">
 <metadata>
  <rdf:RDF>
   <cc:Work rdf:about="">
    <dc:format>image/svg+xml</dc:format>
    <dc:type rdf:resource="http://purl.org/dc/dcmitype/StillImage"/>
    <dc:title/>
   </cc:Work>
  </rdf:RDF>
 </metadata>
 <circle cx="11.949" cy="11.964" r="11.39" fill="#7e8c81"/>
 <path d="m23.745 12.04c-0.0052 3.1016-1.2376 6.075-3.4279 8.2709-2.1903 2.196-5.1606 3.4359-8.2621 3.4492-1.5474 0.0197-3.0828-0.2751-4.5129-0.8664s-2.7253-1.4669-3.807-2.5737c-1.1196-1.0656-2.0066-2.3513-2.6055-3.7762-0.59888-1.4249-0.89659-2.9583-0.87448-4.5038 0.020961-3.123 1.2709-6.1122 3.4793-8.3206 2.2084-2.2084 5.1976-3.4584 8.3207-3.4793 1.5455-0.022107 3.0789 0.27564 4.5038 0.87451 1.4249 0.59887 2.7106 1.486 3.7762 2.6055 1.1014 1.0842 1.9714 2.3806 2.5576 3.8106 0.5861 1.43 0.8761 2.9641 0.8524 4.5094zm-1.4099 0c0.0065-2.3801-0.8132-4.6889-2.3191-6.5321s-3.6048-3.1068-5.9385-3.5751-4.7575-0.11223-6.858 1.0074c-2.1004 1.1196-3.7473 2.9334-4.6595 5.1318-0.91222 2.1984-1.0333 4.6453-0.34259 6.9231 0.69073 2.2777 2.1505 4.2453 4.1301 5.5667 1.9796 1.3215 4.3565 1.9151 6.725 1.6795s4.5819-1.2858 6.2624-2.9714c0.9643-0.9386 1.7275-2.0636 2.2433-3.3065 0.5157-1.243 0.7732-2.5779 0.7568-3.9235zm-5.0001 2.54c0.344 0.2396 0.6217 0.5625 0.807 0.9385 0.1854 0.376 0.2725 0.7928 0.253 1.2116v1.33c-0.7887 0.8354-1.7709 1.4639-2.86 1.83-1.2053 0.4836-2.4913 0.7347-3.79 0.7399-2.2438-0.046-4.3872-0.9391-6-2.5v-1.3999c-0.01361-0.4395 0.09632-0.8739 0.31729-1.254 0.22096-0.38 0.5441-0.6905 0.93271-0.8961 0.8787-0.5034 1.8775-0.7591 2.89-0.7399h4.84c0.9392-0.0381 1.8665 0.2208 2.65 0.7399zm-2.81-8.59c-0.2959-0.31606-0.6537-0.56791-1.0511-0.73993-0.3974-0.17203-0.8259-0.26055-1.2589-0.26007-0.4439-0.00473-0.8842 0.08156-1.2935 0.25355s-0.77911 0.42603-1.0865 0.74645c-0.31483 0.29483-0.56596 0.651-0.73794 1.0466-0.17198 0.39556-0.26117 0.82213-0.26206 1.2534-0.00132 0.44161 0.0847 0.87913 0.25309 1.2874 0.16838 0.40825 0.41582 0.77917 0.72808 1.0915 0.31227 0.3122 0.6832 0.5597 1.0915 0.7281 0.4082 0.1684 0.8457 0.2544 1.2873 0.253 0.4334 0.0029 0.8626-0.0845 1.2604-0.2566 0.3977-0.1722 0.7552-0.4254 1.0496-0.7434 0.3214-0.3066 0.5761-0.6762 0.7482-1.0857 0.172-0.40951 0.2578-0.85011 0.2518-1.2942 0.0048-0.42373-0.076-0.84405-0.2376-1.2358-0.1615-0.39177-0.4004-0.74692-0.7024-1.0442z" fill="#fff"/>
</svg>
