<?xml version="1.0" encoding="UTF-8"?>
<!-- Generator: Adobe Illustrator 23.0.2, SVG Export Plug-In . SVG Version: 6.00 Build 0)  -->
<svg id="Art" width="27.2" height="40.433" version="1.1" viewBox="0 0 27.2 40.433" xml:space="preserve" xmlns="http://www.w3.org/2000/svg" xmlns:cc="http://creativecommons.org/ns#" xmlns:dc="http://purl.org/dc/elements/1.1/" xmlns:rdf="http://www.w3.org/1999/02/22-rdf-syntax-ns#"><metadata><rdf:RDF><cc:Work rdf:about=""><dc:format>image/svg+xml</dc:format><dc:type rdf:resource="http://purl.org/dc/dcmitype/StillImage"/><dc:title/></cc:Work></rdf:RDF></metadata>
<style type="text/css">
	.st0{fill:#FFFFFF;}
</style>
<path class="st0" d="m5.2 8.4327c-0.3 0.3-0.7 0.6-1 0.9l1.8 1.9c1.4-1.5 3.3-2.4 5.3-2.4 2.2 0 4.2 0.9 5.5 2.7l1.8-1.8c-3.3-4.2-9.3-4.7-13.4-1.3zm16-1.3 1.9-1.9c-0.3-0.3-0.6-0.7-1-1-6.3-5.9-16.2-5.6-22.1 0.7l1.9 1.8c2.5-2.6 5.9-4.2 9.6-4.2 3.6 0.2 7.2 1.8 9.7 4.6zm5.6 17.2c-0.2-0.4-0.4-0.8-0.7-1.1s-0.7-0.6-1.1-0.8c-0.5-0.1-0.9-0.2-1.4-0.2-0.3 0-0.6 0-0.8 0.1-0.6-0.9-1.7-1.4-2.8-1.4-0.5 0-1 0.1-1.5 0.3-0.7-0.7-1.6-1-2.6-1.1-0.2 0-0.3 0-0.5 0.1v-5c0-0.5-0.1-1-0.3-1.5s-0.5-0.9-0.8-1.3c-0.4-0.4-0.8-0.7-1.3-0.9s-1-0.3-1.5-0.3-1 0.1-1.4 0.3c-0.5 0.2-0.9 0.5-1.3 0.8-0.7 0.7-1.1 1.7-1.1 2.8v10.1c-0.6-0.3-1.3-0.5-2-0.5-1 0-2 0.4-2.8 1.2-0.4 0.4-0.6 0.8-0.8 1.3s-0.3 1-0.3 1.5c0 0.9 0.3 1.7 0.8 2.4l5.8 7.8c0.4 0.5 0.8 0.9 1.4 1.1 0.6 0.3 1.2 0.4 1.8 0.4h11c0.6 0 1.2-0.2 1.8-0.6 0.5-0.4 0.9-0.9 1-1.6l1.4-5.6c0.3-1.1 0.4-2.3 0.4-3.4v-3.3c-0.1-0.7-0.2-1.1-0.4-1.6zm-1.6 4.6c0 1-0.1 2-0.4 3l-1.3 5.6c0 0.1-0.1 0.2-0.1 0.3-0.1 0.1-0.1 0.2-0.2 0.2-0.3 0.1-0.5 0.2-0.7 0.2h-11c-0.3 0-0.6 0-0.8-0.2-0.3-0.1-0.5-0.3-0.7-0.6l-5.9-7.8c-0.2-0.3-0.4-0.7-0.4-1.2 0-0.3 0-0.5 0.1-0.7s0.2-0.4 0.4-0.6 0.4-0.3 0.6-0.4 0.5-0.2 0.7-0.2c0.3 0 0.6 0.1 0.9 0.2s0.5 0.3 0.7 0.6l2.3 3.1v-15.3c0-0.3 0.1-0.5 0.2-0.7 0.2-0.5 0.6-0.8 1.1-1 0.3-0.2 0.5-0.2 0.8-0.2s0.5 0 0.8 0.1c0.2 0.1 0.5 0.2 0.6 0.4 0.4 0.4 0.6 0.9 0.5 1.4v10.4h0.6v-1.5c0-0.5 0.2-1 0.5-1.4 0.2-0.2 0.4-0.3 0.6-0.4s0.5-0.1 0.7-0.1c0.3 0 0.5 0 0.8 0.1 0.2 0.1 0.4 0.2 0.6 0.4 0.4 0.4 0.6 0.9 0.6 1.4v1.3h0.5v-1c0-0.2 0-0.4 0.1-0.6s0.2-0.4 0.4-0.5c0.3-0.3 0.8-0.5 1.2-0.5 0.5 0 0.9 0.2 1.2 0.5 0.2 0.2 0.3 0.3 0.4 0.6 0.1 0.2 0.1 0.4 0.1 0.7v1h0.5c0-0.4 0.2-0.8 0.4-1.1 0.1-0.1 0.3-0.3 0.5-0.3 0.2-0.1 0.4-0.1 0.6-0.1s0.4 0 0.6 0.1 0.3 0.2 0.5 0.4c0.3 0.3 0.4 0.7 0.4 1.1z" fill="#fff"/>
</svg>
