<?xml version="1.0" encoding="UTF-8"?>
<svg width="18.338" height="32" fill="none" version="1.1" viewBox="0 0 18.338 32" xmlns="http://www.w3.org/2000/svg" xmlns:cc="http://creativecommons.org/ns#" xmlns:dc="http://purl.org/dc/elements/1.1/" xmlns:rdf="http://www.w3.org/1999/02/22-rdf-syntax-ns#">
 <metadata>
  <rdf:RDF>
   <cc:Work rdf:about="">
    <dc:format>image/svg+xml</dc:format>
    <dc:type rdf:resource="http://purl.org/dc/dcmitype/StillImage"/>
    <dc:title/>
   </cc:Work>
  </rdf:RDF>
 </metadata>
 <g transform="translate(-7)" clip-path="url(#clip0)">
  <path d="m25.338 4.1345-1.467 1.4671c-1.9339-2.1339-4.668-3.5343-7.8022-3.5343-3.0008 0-5.6682 1.3337-7.602 3.3342l-1.4671-1.4671c2.2673-2.4006 5.5348-3.9344 9.0691-3.9344 3.6677 0 7.0019 1.6004 9.2692 4.1345zm-3.4007 3.4014-1.4671 1.4671c-1.0002-1.3337-2.6007-2.1339-4.4012-2.1339-1.6671 0-3.1342 0.80022-4.2011 1.9339l-1.4671-1.4671c1.4004-1.5338 3.4009-2.534 5.6682-2.534 2.334 0 4.4679 1.067 5.8683 2.7341zm-3.9801 22.621c0 1.0199-0.8268 1.8467-1.8467 1.8467s-1.8466-0.8268-1.8466-1.8467 0.8267-1.8467 1.8466-1.8467 1.8467 0.8268 1.8467 1.8467zm0.4057-19.077h-4.2035l0.8519 14.774h2.4751z" clip-rule="evenodd" fill="#ea4c5f" fill-rule="evenodd"/>
 </g>
 <defs>
  <clipPath id="clip0">
   <rect width="32" height="32" fill="#fff"/>
  </clipPath>
 </defs>
</svg>
