<?xml version="1.0" encoding="utf-8"?>
<!-- Generator: Adobe Illustrator 23.0.3, SVG Export Plug-In . SVG Version: 6.00 Build 0)  -->
<svg version="1.1" id="Layer_1" xmlns="http://www.w3.org/2000/svg" xmlns:xlink="http://www.w3.org/1999/xlink" x="0px" y="0px"
	 viewBox="0 0 98.99 110.81" style="enable-background:new 0 0 98.99 110.81;" xml:space="preserve">
<path d="M69.82,53.14V37.72l27.41-27.41c2.34-2.34,2.34-6.14,0-8.48s-6.14-2.34-8.48,0l-87,87c-2.34,2.34-2.34,6.14,0,8.48
	c1.17,1.17,2.71,1.76,4.24,1.76s3.07-0.59,4.24-1.76L24.3,83.25c5.45,4.75,12.09,7.99,19.38,9.16v6.4H30.4c-3.31,0-6,2.69-6,6
	s2.69,6,6,6h38.46c3.31,0,6-2.69,6-6s-2.69-6-6-6H55.67v-6.38c19.22-3.07,33.99-20.68,33.99-41.88v-5.28c0-3.31-2.69-6-6-6
	s-6,2.69-6,6v5.28c0,0.12,0,0.25,0,0.37C77.5,65.26,68.12,77.24,55.67,80.2v-7.82C63.85,69.8,69.82,62.14,69.82,53.14z M43.67,80.19
	c-4.01-0.95-7.7-2.85-10.87-5.45l5.2-5.2c1.71,1.23,3.62,2.18,5.67,2.83V80.19z M49.67,0L49.67,0C38.59,0,29.52,9.07,29.52,20.15
	v29.31l38.2-38.2C64.42,4.61,57.57,0,49.67,0z M22.26,56.72c-0.38-2-0.58-4.06-0.58-6.18v-5.28c0-3.31-2.69-6-6-6s-6,2.69-6,6v5.28
	c0,5.6,1.04,10.95,2.92,15.85L22.26,56.72z"/>
</svg>
