<?xml version="1.0" encoding="utf-8"?>
<!-- Generator: Adobe Illustrator 23.0.3, SVG Export Plug-In . SVG Version: 6.00 Build 0)  -->
<svg version="1.1" id="Layer_1" xmlns="http://www.w3.org/2000/svg" xmlns:xlink="http://www.w3.org/1999/xlink" x="0px" y="0px"
	 viewBox="0 0 14 22" style="enable-background:new 0 0 14 22;" xml:space="preserve">
<path d="M0.69,3.64c0.32,0.19,0.74,0.08,0.93-0.25C2.34,2.14,3.67,1.37,5.1,1.37s2.77,0.77,3.48,2.02c0.13,0.22,0.35,0.34,0.59,0.34
	c0.12,0,0.23-0.03,0.34-0.09C9.84,3.45,9.95,3.03,9.76,2.7C8.8,1.04,7.02,0,5.11,0s-3.7,1.04-4.66,2.7
	C0.26,3.03,0.37,3.45,0.69,3.64z M12.87,12.23c-0.42,0-0.8,0.23-1,0.61c-0.01,0.01-0.08,0.14-0.23,0.14c-0.19,0-0.24-0.24-0.26-0.29
	c-0.05-0.59-0.54-1.05-1.13-1.05c-0.42,0-0.81,0.24-1.01,0.64c0,0-0.06,0.11-0.22,0.11c-0.2,0-0.24-0.17-0.25-0.27
	c-0.03-0.6-0.53-1.07-1.13-1.07c-0.42,0-0.81,0.24-1.01,0.63c0,0-0.07,0.13-0.22,0.13c-0.14,0-0.25-0.11-0.25-0.25v-5.2
	c0-0.56-0.42-1.04-0.95-1.09c-0.3-0.03-0.59,0.07-0.81,0.27c-0.22,0.2-0.35,0.49-0.35,0.79v8.8c0,0.12-0.06,0.21-0.17,0.26
	c-0.11,0.04-0.22,0.02-0.3-0.06l-1.76-1.77c-0.4-0.4-1.03-0.44-1.44-0.1c-0.23,0.2-0.37,0.47-0.38,0.77
	c-0.01,0.29,0.09,0.58,0.29,0.79l3.1,4.12c0.37,0.6,1.99,2,2.42,2.21C6.62,21.77,7.53,22,8.45,22c1.13,0,2.22-0.34,3.13-0.98
	c1.49-0.92,2.42-2.6,2.42-4.38v-3.27C14.01,12.75,13.5,12.23,12.87,12.23z M5.1,2.34c-1.04,0-2.02,0.56-2.54,1.47
	C2.37,4.14,2.49,4.56,2.81,4.75C3.13,4.93,3.55,4.82,3.74,4.5C4.02,4.01,4.54,3.7,5.1,3.7s1.08,0.3,1.37,0.79
	c0.13,0.22,0.35,0.34,0.59,0.34c0.12,0,0.23-0.03,0.34-0.09c0.32-0.19,0.43-0.61,0.25-0.93C7.12,2.9,6.15,2.34,5.1,2.34z"/>
</svg>
