<?xml version="1.0" encoding="utf-8"?>
<!-- Generator: Adobe Illustrator 23.0.3, SVG Export Plug-In . SVG Version: 6.00 Build 0)  -->
<svg version="1.1" id="Layer_1" xmlns="http://www.w3.org/2000/svg" xmlns:xlink="http://www.w3.org/1999/xlink" x="0px" y="0px"
	 viewBox="0 0 20 22" style="enable-background:new 0 0 20 22;" xml:space="preserve">
<path d="M14.11,10.55V7.49l5.54-5.44c0.47-0.46,0.47-1.22,0-1.68c-0.47-0.46-1.24-0.46-1.71,0L0.35,17.64
	c-0.47,0.46-0.47,1.22,0,1.68c0.24,0.23,0.55,0.35,0.86,0.35s0.62-0.12,0.86-0.35l2.84-2.79c1.1,0.94,2.44,1.59,3.92,1.82v1.27H6.14
	c-0.67,0-1.21,0.53-1.21,1.19c0,0.66,0.54,1.19,1.21,1.19h7.77c0.67,0,1.21-0.53,1.21-1.19c0-0.66-0.54-1.19-1.21-1.19h-2.66v-1.27
	c3.88-0.61,6.87-4.11,6.87-8.31V8.99c0-0.66-0.54-1.19-1.21-1.19c-0.67,0-1.21,0.53-1.21,1.19v1.05c0,0.02,0,0.05,0,0.07
	c-0.03,2.85-1.93,5.23-4.44,5.81v-1.55C12.9,13.86,14.11,12.34,14.11,10.55z M8.82,15.92c-0.81-0.19-1.56-0.57-2.2-1.08l1.05-1.03
	c0.35,0.24,0.73,0.43,1.15,0.56V15.92z M10.04,0L10.04,0C7.8,0,5.97,1.8,5.97,4v5.82l7.72-7.58C13.02,0.92,11.63,0,10.04,0z
	 M4.5,11.26c-0.08-0.4-0.12-0.81-0.12-1.23V8.99c0-0.66-0.54-1.19-1.21-1.19S1.96,8.33,1.96,8.99v1.05c0,1.11,0.21,2.17,0.59,3.15
	L4.5,11.26z"/>
</svg>
