<?xml version="1.0" encoding="utf-8"?>
<!-- Generator: Adobe Illustrator 23.0.3, SVG Export Plug-In . SVG Version: 6.00 Build 0)  -->
<svg version="1.1" id="Layer_1" xmlns="http://www.w3.org/2000/svg" xmlns:xlink="http://www.w3.org/1999/xlink" x="0px" y="0px"
	 viewBox="0 0 16 22" style="enable-background:new 0 0 16 22;" xml:space="preserve">
<path d="M7.95,10.03c-0.38,0-0.73,0.21-0.91,0.56c-0.01,0.02-0.07,0.12-0.2,0.12c-0.13,0-0.23-0.1-0.23-0.23V5.77
	c0-0.51-0.38-0.95-0.87-0.99C5.47,4.75,5.2,4.83,5,5.02C4.8,5.2,4.69,5.46,4.69,5.73v7.99c0,0.01,0,0.02-0.01,0.04l3.64-3.65
	C8.21,10.06,8.08,10.03,7.95,10.03z M1.62,3.3c0.29,0.17,0.67,0.07,0.84-0.22c0.65-1.13,1.87-1.84,3.17-1.84s2.52,0.7,3.17,1.84
	c0.11,0.2,0.32,0.31,0.53,0.31c0.11,0,0.21-0.03,0.31-0.08c0.29-0.17,0.4-0.55,0.23-0.85C9,0.94,7.37,0,5.63,0
	C3.89,0,2.27,0.94,1.39,2.45C1.22,2.75,1.32,3.13,1.62,3.3z M15.69,6.26c-0.41-0.41-1.08-0.41-1.5,0L0.31,20.19
	c-0.41,0.41-0.41,1.09,0,1.5C0.52,21.9,0.79,22,1.06,22s0.54-0.1,0.75-0.31l3.26-3.27c0.49,0.44,1,0.85,1.21,0.95
	c0.73,0.4,1.56,0.61,2.4,0.61c1.03,0,2.02-0.31,2.85-0.89c1.36-0.84,2.2-2.36,2.2-3.97v-2.97c0-0.57-0.46-1.04-1.03-1.04
	c-0.16,0-0.32,0.04-0.46,0.12l3.45-3.47C16.1,7.34,16.1,6.67,15.69,6.26z M11.72,11.74l0.06-0.06
	C11.77,11.7,11.75,11.72,11.72,11.74z M2.79,15.65l1.68-1.68c-0.08,0.01-0.15-0.01-0.21-0.07l-1.6-1.61
	c-0.36-0.36-0.94-0.4-1.31-0.09C1.13,12.38,1,12.63,0.99,12.9c-0.01,0.26,0.08,0.52,0.27,0.71L2.79,15.65z M6.87,4.08
	c0.11,0.2,0.32,0.31,0.53,0.31c0.11,0,0.21-0.03,0.31-0.08c0.29-0.17,0.4-0.55,0.23-0.85C7.47,2.64,6.58,2.12,5.63,2.12
	S3.79,2.64,3.32,3.46c-0.17,0.3-0.07,0.67,0.23,0.85c0.29,0.17,0.67,0.07,0.84-0.23c0.26-0.44,0.73-0.72,1.24-0.72
	S6.62,3.64,6.87,4.08z"/>
</svg>
