<?xml version="1.0" encoding="UTF-8"?>
<svg width="14.666" height="32" fill="none" version="1.1" viewBox="0 0 14.666 32" xmlns="http://www.w3.org/2000/svg" xmlns:cc="http://creativecommons.org/ns#" xmlns:dc="http://purl.org/dc/elements/1.1/" xmlns:rdf="http://www.w3.org/1999/02/22-rdf-syntax-ns#">
 <metadata>
  <rdf:RDF>
   <cc:Work rdf:about="">
    <dc:format>image/svg+xml</dc:format>
    <dc:type rdf:resource="http://purl.org/dc/dcmitype/StillImage"/>
    <dc:title/>
   </cc:Work>
  </rdf:RDF>
 </metadata>
 <path d="m7.1999 4.7259c1.305 0 2.3629-1.0579 2.3629-2.3629 0-1.305-1.0579-2.3629-2.3629-2.3629-1.3051 0-2.363 1.0579-2.363 2.3629 0 1.305 1.0579 2.3629 2.363 2.3629zm2.4668 7.0745v2.9333h-4.9333v-2.9333c0-1.3334 1.1333-2.4 2.4666-2.4 1.4 0 2.4667 1.0666 2.4667 2.4zm-4.9333 8.3328v-2.8666h4.9333v2.8666c0 1.3333-1.1334 2.4-2.4667 2.4s-2.4666-1.0667-2.4666-2.4zm9.9331 0.4668v-3.5333c0-0.6667-0.6-1.1333-1.2-1.1333-0.6667 0-1.1333 0.5333-1.1333 1.1999v3.4667c0 2.4666-2.2667 4.4666-5 4.4666s-4.9999-2-4.9999-4.4666v-3.5333c0-0.6667-0.4667-1.2-1.0667-1.2-0.66661-0.0667-1.2666 0.4-1.2666 1.0666v3.6667c0 3.3999 2.6666 6.1999 6.1333 6.7332v2.2666h-2.8667c-0.6666 0-1.2 0.5334-1.2 1.2 0 0.6667 0.5334 1.2 1.2 1.2h8.1999c0.6667 0 1.2-0.5333 1.2-1.2 0-0.6666-0.5333-1.2-1.2-1.2h-2.9333v-2.2666c3.4666-0.6 6.1333-3.3333 6.1333-6.7332z" clip-rule="evenodd" fill="#00b4ef" fill-opacity=".7" fill-rule="evenodd"/>
</svg>
