<?xml version="1.0" encoding="utf-8"?>
<!-- Generator: Adobe Illustrator 23.0.3, SVG Export Plug-In . SVG Version: 6.00 Build 0)  -->
<svg version="1.1" id="Layer_1" xmlns="http://www.w3.org/2000/svg" xmlns:xlink="http://www.w3.org/1999/xlink" x="0px" y="0px"
	 viewBox="0 0 79.98 110.81" style="enable-background:new 0 0 79.98 110.81;" xml:space="preserve">
<g>
	<g>
		<path d="M39.99,50.72c4.92,0,8.94-4.02,8.94-8.94V8.94c0-4.91-4.02-8.94-8.94-8.94c-4.91,0-8.94,4.02-8.94,8.94v32.84
			C31.05,46.7,35.07,50.72,39.99,50.72z M39.99,73.3c4.94,0,8.94-4,8.94-8.94s-4-8.94-8.94-8.94s-8.94,4-8.94,8.94
			S35.05,73.3,39.99,73.3z M73.98,39.27c-3.31,0-6,2.69-6,6v5.28c0,16.74-12.56,30.36-27.99,30.36S12,67.29,12,50.55v-5.28
			c0-3.31-2.69-6-6-6s-6,2.69-6,6v5.28c0,21.2,14.78,38.81,33.99,41.88v6.38H20.76c-3.31,0-6,2.69-6,6s2.69,6,6,6h38.46
			c3.31,0,6-2.69,6-6s-2.69-6-6-6H45.99v-6.38c19.22-3.08,33.99-20.68,33.99-41.88v-5.28C79.98,41.96,77.3,39.27,73.98,39.27z"/>
	</g>
</g>
</svg>
