<?xml version="1.0" encoding="utf-8"?>
<!-- Generator: Adobe Illustrator 23.0.3, SVG Export Plug-In . SVG Version: 6.00 Build 0)  -->
<svg version="1.1" id="Layer_1" xmlns="http://www.w3.org/2000/svg" xmlns:xlink="http://www.w3.org/1999/xlink" x="0px" y="0px"
	 viewBox="0 0 16 22" style="enable-background:new 0 0 16 22;" xml:space="preserve">
<path d="M14.8,7.8c-0.66,0-1.2,0.53-1.2,1.19v1.05c0,2.88-1.89,5.29-4.4,5.89v-1.55c1.64-0.51,2.83-2.03,2.83-3.82V4
	c0-2.2-1.81-4-4.03-4S3.97,1.8,3.97,4v6.55c0,1.79,1.2,3.31,2.83,3.82v1.55c-2.51-0.59-4.4-3.01-4.4-5.89V8.99
	c0-0.66-0.54-1.19-1.2-1.19S0,8.33,0,8.99v1.05c0,4.21,2.96,7.71,6.8,8.32v1.27H4.15c-0.66,0-1.2,0.53-1.2,1.19S3.48,22,4.15,22
	h7.69c0.66,0,1.2-0.53,1.2-1.19s-0.54-1.19-1.2-1.19H9.2v-1.27c3.84-0.61,6.8-4.11,6.8-8.32V8.99C16,8.33,15.46,7.8,14.8,7.8z"/>
</svg>
