<?xml version="1.0" encoding="utf-8"?>
<!-- Generator: Adobe Illustrator 23.0.6, SVG Export Plug-In . SVG Version: 6.00 Build 0)  -->
<svg version="1.1" id="Layer_1" xmlns="http://www.w3.org/2000/svg" xmlns:xlink="http://www.w3.org/1999/xlink" x="0px" y="0px"
	 viewBox="0 0 3.3 19.6" style="enable-background:new 0 0 3.3 19.6;" xml:space="preserve">
<path d="M1.6,16.3C0.7,16.3,0,17.1,0,18c0,0.9,0.7,1.6,1.6,1.6c0.9,0,1.6-0.7,1.6-1.6C3.3,17.1,2.5,16.3,1.6,16.3z M1.5,14.6
	c0.5,0,0.9-0.1,1.2-0.4c0.3-0.3,0.5-0.8,0.5-1.2V9.8v-5V1.7c0-0.9-0.6-1.6-1.5-1.7C1.3,0,0.9,0.1,0.5,0.4C0.2,0.7,0,1.2,0,1.6v3.1v5
	v3.1C0,13.8,0.6,14.5,1.5,14.6z"/>
</svg>
