<?xml version="1.0" encoding="UTF-8"?>
<svg id="Art" width="27.121" height="40.121" version="1.1" viewBox="0 0 27.121 40.121" xmlns="http://www.w3.org/2000/svg" xmlns:cc="http://creativecommons.org/ns#" xmlns:dc="http://purl.org/dc/elements/1.1/" xmlns:rdf="http://www.w3.org/1999/02/22-rdf-syntax-ns#">
 <metadata>
  <rdf:RDF>
   <cc:Work rdf:about="">
    <dc:format>image/svg+xml</dc:format>
    <dc:type rdf:resource="http://purl.org/dc/dcmitype/StillImage"/>
    <dc:title>mic-ptt-a</dc:title>
   </cc:Work>
  </rdf:RDF>
 </metadata>
 <defs>
  <style>.cls-1{fill-rule:evenodd;}</style>
 </defs>
 <title>mic-ptt-a</title>
 <path class="cls-1" d="m23.1 5.2112-1.85 1.85a13.19 13.19 0 0 0-9.82-4.46 13.35 13.35 0 0 0-9.58 4.2l-1.85-1.84a15.66 15.66 0 0 1 23.1 0.25zm-6.13 6.13 1.85-1.85a9.62 9.62 0 0 0-14.53-0.25l1.84 1.88a7.34 7.34 0 0 1 5.3-2.44 6.85 6.85 0 0 1 5.54 2.66zm-5.39-0.22a3.58 3.58 0 0 1 1.51 0.3 3.68 3.68 0 0 1 1.26 0.88 3.88 3.88 0 0 1 0.84 1.3 3.94 3.94 0 0 1 0.29 1.52v5.07a1.91 1.91 0 0 1 0.48-0.05 3.93 3.93 0 0 1 2.62 1.05 3.38 3.38 0 0 1 1.5-0.32 3.27 3.27 0 0 1 2.77 1.36 2.75 2.75 0 0 1 0.85-0.1 3.35 3.35 0 0 1 1.33 0.25 3.18 3.18 0 0 1 1.12 0.76 3.23 3.23 0 0 1 0.73 1.13 3.32 3.32 0 0 1 0.24 1.32v3.31a12.27 12.27 0 0 1-0.43 3.41l-1.36 5.65a2.67 2.67 0 0 1-1 1.55 2.89 2.89 0 0 1-1.75 0.61h-11a4.47 4.47 0 0 1-1.76-0.43 3.88 3.88 0 0 1-1.36-1.12l-5.78-7.75a3.72 3.72 0 0 1-0.8-2.35 3.64 3.64 0 0 1 0.28-1.5 3.75 3.75 0 0 1 0.84-1.27 3.9 3.9 0 0 1 2.77-1.18 4.5 4.5 0 0 1 2 0.54v-10.06a4.06 4.06 0 0 1 1.13-2.78 3.74 3.74 0 0 1 1.25-0.83 3.85 3.85 0 0 1 1.43-0.27zm0 2a1.89 1.89 0 0 0-0.74 0.12 2 2 0 0 0-1.06 1 1.92 1.92 0 0 0-0.15 0.74v15.35l-2.32-3.06a2 2 0 0 0-0.7-0.59 1.88 1.88 0 0 0-0.9-0.2 1.85 1.85 0 0 0-0.74 0.15 2 2 0 0 0-0.63 0.43 2 2 0 0 0-0.4 0.63 1.9 1.9 0 0 0-0.13 0.74 2 2 0 0 0 0.38 1.17l5.86 7.79a1.79 1.79 0 0 0 0.68 0.57 1.74 1.74 0 0 0 0.85 0.16h11a1.23 1.23 0 0 0 0.59-0.15 0.88 0.88 0 0 0 0.24-0.23 0.71 0.71 0 0 0 0.13-0.31l1.37-5.6a12 12 0 0 0 0.37-3v-3.28a1.7 1.7 0 0 0-0.43-1.07 1.31 1.31 0 0 0-0.47-0.37 1.35 1.35 0 0 0-0.59-0.11 1.46 1.46 0 0 0-0.55 0.11 1.23 1.23 0 0 0-0.46 0.32 1.64 1.64 0 0 0-0.43 1.07h-0.48v-1a1.52 1.52 0 0 0-0.12-0.66 1.61 1.61 0 0 0-0.37-0.56 1.63 1.63 0 0 0-1.22-0.54 2 2 0 0 0-1.23 0.54 1.77 1.77 0 0 0-0.36 0.53 1.57 1.57 0 0 0-0.11 0.64v1h-0.49v-1.33a2.22 2.22 0 0 0-0.58-1.44 1.71 1.71 0 0 0-0.62-0.44 1.88 1.88 0 0 0-0.79-0.12 2 2 0 0 0-0.74 0.13 1.85 1.85 0 0 0-0.63 0.41 2 2 0 0 0-0.53 1.36v1.5h-0.57v-10.4a2 2 0 0 0-0.54-1.44 1.75 1.75 0 0 0-0.63-0.44 1.73 1.73 0 0 0-0.76-0.12z" fill-rule="evenodd"/>
</svg>
