<?xml version="1.0" encoding="utf-8"?>
<!-- Generator: Adobe Illustrator 23.0.3, SVG Export Plug-In . SVG Version: 6.00 Build 0)  -->
<svg version="1.1" id="Layer_1" xmlns="http://www.w3.org/2000/svg" xmlns:xlink="http://www.w3.org/1999/xlink" x="0px" y="0px"
	 viewBox="0 0 72.2 112.75" style="enable-background:new 0 0 72.2 112.75;" xml:space="preserve">
<path d="M3.58,18.63c1.67,0.97,3.81,0.4,4.78-1.27C12.06,10.97,18.94,7,26.32,7c7.38,0,14.26,3.97,17.96,10.36
	c0.65,1.12,1.82,1.75,3.03,1.75c0.6,0,1.2-0.15,1.75-0.47c1.67-0.97,2.24-3.11,1.28-4.78C45.39,5.31,36.19,0,26.33,0
	S7.27,5.31,2.32,13.85C1.34,15.52,1.91,17.66,3.58,18.63z M66.38,62.7c-2.15,0-4.13,1.2-5.16,3.13c-0.04,0.07-0.4,0.7-1.17,0.7
	c-0.96,0-1.26-1.21-1.32-1.49c-0.25-3.02-2.78-5.37-5.81-5.37c-2.18,0-4.17,1.22-5.22,3.27c0,0.01-0.29,0.57-1.11,0.57
	c-1.03,0-1.26-0.87-1.3-1.38c-0.18-3.08-2.74-5.5-5.82-5.5c-2.17,0-4.16,1.21-5.2,3.21c0,0.01-0.34,0.65-1.15,0.65
	c-0.71,0-1.29-0.58-1.29-1.29V32.55c0-2.88-2.16-5.35-4.91-5.61c-1.55-0.15-3.04,0.34-4.19,1.39c-1.13,1.03-1.78,2.5-1.78,4.03v45.1
	c0,0.6-0.33,1.09-0.88,1.32s-1.13,0.11-1.56-0.31L9.43,69.4c-2.04-2.04-5.31-2.26-7.44-0.49c-1.2,1-1.91,2.4-1.98,3.94
	c-0.07,1.49,0.48,2.95,1.51,4.03l16,21.13c1.92,3.08,10.24,10.26,12.47,11.31c4.16,2.25,8.85,3.43,13.58,3.43
	c5.82,0,11.43-1.75,16.15-5.01C67.42,103,72.2,94.4,72.2,85.31V68.54C72.23,65.32,69.61,62.7,66.38,62.7z M26.32,11.99
	c-5.38,0-10.4,2.89-13.1,7.55c-0.97,1.67-0.4,3.81,1.28,4.78c1.67,0.97,3.81,0.4,4.78-1.28c1.45-2.51,4.15-4.06,7.04-4.06
	s5.59,1.56,7.04,4.06c0.65,1.12,1.82,1.75,3.03,1.75c0.6,0,1.2-0.15,1.75-0.47c1.67-0.97,2.24-3.11,1.28-4.78
	C36.72,14.88,31.7,11.99,26.32,11.99z"/>
</svg>
