<?xml version="1.0" encoding="UTF-8"?>
<svg width="18.831" height="31.718" fill="none" version="1.1" viewBox="0 0 18.831 31.718" xmlns="http://www.w3.org/2000/svg" xmlns:cc="http://creativecommons.org/ns#" xmlns:dc="http://purl.org/dc/elements/1.1/" xmlns:rdf="http://www.w3.org/1999/02/22-rdf-syntax-ns#">
 <metadata>
  <rdf:RDF>
   <cc:Work rdf:about="">
    <dc:format>image/svg+xml</dc:format>
    <dc:type rdf:resource="http://purl.org/dc/dcmitype/StillImage"/>
    <dc:title/>
   </cc:Work>
  </rdf:RDF>
 </metadata>
 <path d="m18.644 4.1333-1.4666 1.4666c-1.9333-2.1333-4.6666-3.5333-7.7999-3.5333-3 0-5.6666 1.3333-7.5999 3.3333l-1.4666-1.4666c2.2666-2.4 5.5333-3.9333 9.0666-3.9333 3.6666 0 6.9999 1.6 9.2665 4.1333zm-4.8664 4.8674 1.4667-1.4666c-1.4-1.6666-3.5333-2.7333-5.8666-2.7333-2.2667 0-4.2666 0.99999-5.6666 2.5333l1.4666 1.4666c1.0667-1.1333 2.5333-1.9333 4.2-1.9333 1.7999 0 3.3999 0.79999 4.3999 2.1333zm-1.8974 3.0751v-0.3262c0-1.3051-1.104-2.3492-2.4028-2.3492-1.2988 0-2.4028 1.0441-2.4028 2.3492v4.5025zm-4.3373 9.4371-1.9317 1.6974c0.8846 1.0496 2.3028 1.7208 3.8661 1.7208 2.6626 0 4.8706-1.9576 4.8706-4.3721v-3.3932c0-0.6526 0.4546-1.1746 1.104-1.1746 0.5844 0 1.1689 0.4568 1.1689 1.1093v3.4585c0 3.328-2.5976 6.0687-5.9745 6.5908v2.2186h2.8574c0.6494 0 1.1689 0.5221 1.1689 1.1746 0 0.6526-0.5195 1.1746-1.1689 1.1746h-7.9877c-0.6494 0-1.169-0.522-1.169-1.1746 0-0.6525 0.5196-1.1746 1.169-1.1746h2.7924v-2.2186c-1.7757-0.2348-3.3496-1.1453-4.4314-2.4155l-1.9328 1.6984c-0.45458 0.3915-1.1689 0.3263-1.5586-0.1305l-0.12988-0.1305c-0.38965-0.4568-0.32471-1.1746 0.12988-1.5661l16.495-14.617c0.4546-0.39153 1.1689-0.32627 1.5586 0.13047l0.1299 0.1305c0.3896 0.5221 0.3247 1.1746-0.065 1.6314l-6.6238 5.8206v2.4002c0 1.3051-1.104 2.3492-2.4028 2.3492-0.8086 0-1.5031-0.3671-1.9345-0.938zm-3.9751-5.521c0.5844 0 1.039 0.522 1.039 1.1745v1.3051l-2.2729 2.0229v-3.4585c0.06495-0.5873 0.58447-1.1093 1.2339-1.044z" clip-rule="evenodd" fill="#ea4c5f" fill-rule="evenodd"/>
</svg>
