<?xml version="1.0" encoding="utf-8"?>
<!-- Generator: Adobe Illustrator 23.0.3, SVG Export Plug-In . SVG Version: 6.00 Build 0)  -->
<svg version="1.1" id="Layer_1" xmlns="http://www.w3.org/2000/svg" xmlns:xlink="http://www.w3.org/1999/xlink" x="0px" y="0px"
	 viewBox="0 0 148 148" style="enable-background:new 0 0 148 148;" xml:space="preserve">
<path d="M58.9,35.07L41.16,52.24c-1.03,0.98-2.43,1.53-3.88,1.53H23.63c-3.03,0-5.49,2.33-5.49,5.21v29.58
	c0,2.88,2.46,5.21,5.49,5.21h13.64c1.46,0,2.85,0.55,3.88,1.53l17.74,17.17c3.46,3.28,9.37,0.96,9.37-3.68V38.76
	C68.27,34.11,62.36,31.79,58.9,35.07z M95.54,74c0-7.16-3.85-13.85-10.06-17.44c-1.67-0.97-3.81-0.4-4.78,1.27
	c-0.97,1.67-0.4,3.81,1.27,4.78c4.05,2.35,6.57,6.71,6.57,11.38s-2.52,9.04-6.57,11.38c-1.67,0.97-2.24,3.11-1.28,4.78
	c0.65,1.12,1.82,1.75,3.03,1.75c0.6,0,1.2-0.15,1.75-0.47C91.68,87.85,95.54,81.16,95.54,74z M102.81,27.12
	c-1.67-0.97-3.81-0.4-4.78,1.27c-0.97,1.67-0.4,3.81,1.27,4.78c14.53,8.41,23.55,24.06,23.55,40.82c0,16.77-9.03,32.42-23.56,40.83
	c-1.67,0.97-2.24,3.11-1.28,4.78c0.65,1.12,1.82,1.75,3.03,1.75c0.6,0,1.2-0.15,1.75-0.47c16.69-9.66,27.05-27.63,27.05-46.89
	C129.85,54.74,119.49,36.78,102.81,27.12z M112.7,74c0-13.58-7.31-26.25-19.07-33.06c-1.67-0.97-3.81-0.4-4.78,1.27
	c-0.97,1.67-0.4,3.81,1.27,4.78c9.61,5.57,15.58,15.91,15.58,27c0,11.09-5.97,21.44-15.58,27c-1.67,0.97-2.24,3.11-1.28,4.78
	c0.65,1.12,1.82,1.75,3.03,1.75c0.6,0,1.2-0.15,1.75-0.47C105.39,100.25,112.7,87.58,112.7,74z"/>
</svg>
