<?xml version="1.0" encoding="utf-8"?>
<!-- Generator: Adobe Illustrator 23.0.3, SVG Export Plug-In . SVG Version: 6.00 Build 0)  -->
<svg version="1.1" id="Layer_1" xmlns="http://www.w3.org/2000/svg" xmlns:xlink="http://www.w3.org/1999/xlink" x="0px" y="0px"
	 viewBox="0 0 148 148" style="enable-background:new 0 0 148 148;" xml:space="preserve">
<path d="M23.63,94h4.25l40.39-40.39V38.99c0-4.64-5.91-6.97-9.37-3.68L41.16,52.48C40.13,53.45,38.73,54,37.28,54H23.63
	c-3.03,0-5.49,2.33-5.49,5.21v29.58C18.15,91.66,20.6,94,23.63,94z M114.35,36.09l1.35-1.35c2.34-2.34,2.34-6.14,0-8.48
	c-2.34-2.34-6.14-2.34-8.48,0l-87,87c-2.34,2.34-2.34,6.14,0,8.48c1.17,1.17,2.71,1.76,4.24,1.76c1.54,0,3.07-0.59,4.24-1.76
	l19.45-19.45l10.75,10.4c3.46,3.28,9.37,0.96,9.37-3.68V82.17l16.92-16.92c2.12,2.38,3.35,5.49,3.35,8.75
	c0,4.67-2.52,9.04-6.57,11.38c-1.67,0.97-2.24,3.11-1.28,4.78c0.65,1.12,1.82,1.75,3.03,1.75c0.6,0,1.2-0.15,1.75-0.47
	C91.68,87.85,95.54,81.16,95.54,74c0-5.14-1.99-10.02-5.4-13.7l7.37-7.37c5.25,5.7,8.19,13.13,8.19,21.07
	c0,11.09-5.97,21.44-15.58,27c-1.67,0.97-2.24,3.11-1.28,4.78c0.65,1.12,1.82,1.75,3.03,1.75c0.6,0,1.2-0.15,1.75-0.47
	c11.77-6.81,19.08-19.48,19.08-33.06c0-9.82-3.67-19.01-10.23-26.02l6.94-6.94c8.59,8.78,13.45,20.55,13.45,32.96
	c0,16.77-9.03,32.41-23.56,40.83c-1.67,0.97-2.24,3.11-1.28,4.78c0.65,1.12,1.82,1.75,3.03,1.75c0.6,0,1.2-0.15,1.75-0.47
	c16.69-9.66,27.05-27.63,27.05-46.89C129.85,59.72,124.25,46.18,114.35,36.09z"/>
</svg>
