<?xml version="1.0" encoding="UTF-8"?>
<svg width="18.333" height="32" fill="none" version="1.1" viewBox="0 0 18.333 32" xmlns="http://www.w3.org/2000/svg" xmlns:cc="http://creativecommons.org/ns#" xmlns:dc="http://purl.org/dc/elements/1.1/" xmlns:rdf="http://www.w3.org/1999/02/22-rdf-syntax-ns#">
 <metadata>
  <rdf:RDF>
   <cc:Work rdf:about="">
    <dc:format>image/svg+xml</dc:format>
    <dc:type rdf:resource="http://purl.org/dc/dcmitype/StillImage"/>
    <dc:title/>
   </cc:Work>
  </rdf:RDF>
 </metadata>
 <path d="m16.866 5.5999 1.4667-1.4666c-2.2667-2.5333-5.5999-4.1333-9.2666-4.1333-3.5332 0-6.7999 1.5333-9.0665 3.9333l1.4666 1.4666c1.9334-2 4.6-3.3333 7.5998-3.3333 3.1333 0 5.8666 1.4 7.7999 3.5333zm-3.4 3.3998 1.4667-1.4666c-1.4-1.6666-3.5333-2.7333-5.8666-2.7333-2.2666 0-4.2666 0.99999-5.6666 2.5333l1.4666 1.4666c1.0667-1.1333 2.5333-1.9333 4.2-1.9333 1.8 0 3.3999 0.79999 4.3999 2.1333zm-1.933 2.8006v2.9333h-4.9333v-2.9333c0-1.3334 1.1333-2.4 2.4666-2.4 1.4 0 2.4667 1.0666 2.4667 2.4zm-4.9333 5.4662v2.8666c0 1.3333 1.1333 2.4 2.4666 2.4s2.4667-1.0667 2.4667-2.4v-2.8666zm9.9331-0.1999v3.5333c0 3.3999-2.6667 6.1332-6.1333 6.7332v2.2666h2.9333c0.6667 0 1.2 0.5334 1.2 1.2 0 0.6667-0.5333 1.2-1.2 1.2h-8.1999c-0.6666 0-1.2-0.5333-1.2-1.2 0-0.6666 0.5334-1.2 1.2-1.2h2.8666v-2.2666c-3.4666-0.5333-6.1332-3.3333-6.1332-6.7332v-3.6667c0-0.6666 0.59999-1.1333 1.2666-1.0666 0.6 0 1.0667 0.5333 1.0667 1.2v3.5333c0 2.4666 2.2666 4.4666 4.9999 4.4666s5-2 5-4.4666v-3.4667c0-0.6666 0.4666-1.1999 1.1333-1.1999 0.6 0 1.2 0.4666 1.2 1.1333z" clip-rule="evenodd" fill="#fff" fill-rule="evenodd"/>
</svg>
