<?xml version="1.0" encoding="utf-8"?>
<!-- Generator: Adobe Illustrator 23.0.3, SVG Export Plug-In . SVG Version: 6.00 Build 0)  -->
<svg version="1.1" id="Layer_1" xmlns="http://www.w3.org/2000/svg" xmlns:xlink="http://www.w3.org/1999/xlink" x="0px" y="0px"
	 viewBox="0 0 16 22" style="enable-background:new 0 0 16 22;" xml:space="preserve">
<path d="M14.8,7.8c-0.66,0-1.2,0.53-1.2,1.19v1.05c0,3.32-2.51,6.03-5.6,6.03s-5.6-2.7-5.6-6.03V8.99c0-0.66-0.54-1.19-1.2-1.19
	S0,8.33,0,8.99v1.05c0,4.21,2.96,7.71,6.8,8.31v1.27H4.15c-0.66,0-1.2,0.53-1.2,1.19c0,0.66,0.54,1.19,1.2,1.19h7.69
	c0.66,0,1.2-0.53,1.2-1.19c0-0.66-0.54-1.19-1.2-1.19H9.2v-1.27c3.84-0.61,6.8-4.11,6.8-8.31V8.99C16,8.33,15.46,7.8,14.8,7.8z
	 M8,9.05c0.99,0,1.79-0.79,1.79-1.77S8.99,5.5,8,5.5S6.21,6.3,6.21,7.28S7.01,9.05,8,9.05z M8,3.55c0.99,0,1.79-0.79,1.79-1.77
	S8.99,0,8,0S6.21,0.79,6.21,1.77S7.01,3.55,8,3.55z M8,14.55c0.99,0,1.79-0.79,1.79-1.77S8.99,11,8,11s-1.79,0.79-1.79,1.77
	S7.01,14.55,8,14.55z"/>
</svg>
