<?xml version="1.0" encoding="utf-8"?>
<!-- Generator: Adobe Illustrator 23.0.3, SVG Export Plug-In . SVG Version: 6.00 Build 0)  -->
<svg version="1.1" id="Layer_1" xmlns="http://www.w3.org/2000/svg" xmlns:xlink="http://www.w3.org/1999/xlink" x="0px" y="0px"
	 viewBox="0 0 79.89 110.8" style="enable-background:new 0 0 79.89 110.8;" xml:space="preserve">
<path d="M73.99,39.26c-3.31,0-6,2.69-6,6v5.28c0,14.51-9.43,26.66-21.99,29.65v-7.82c8.18-2.57,14.15-10.24,14.15-19.23V20.15
	C60.15,9.07,51.08,0,40,0S19.85,9.07,19.85,20.15v32.99c0,9,5.98,16.66,14.15,19.23v7.82C21.43,77.2,12,65.05,12,50.54v-5.28
	c0-3.31-2.69-6-6-6s-6,2.69-6,6v5.28c0,21.2,14.78,38.81,33.99,41.88v6.38H20.72c-3.31,0-6,2.69-6,6s2.69,6,6,6h38.46
	c3.31,0,6-2.69,6-6s-2.69-6-6-6H45.99v-6.38c19.22-3.08,33.99-20.68,33.99-41.88v-5.28C79.99,41.95,77.3,39.26,73.99,39.26z"/>
</svg>
