<?xml version="1.0" encoding="UTF-8" standalone="no"?>
<svg width="144px" height="82px" viewBox="0 0 144 82" version="1.1" xmlns="http://www.w3.org/2000/svg" xmlns:xlink="http://www.w3.org/1999/xlink">
    <!-- Generator: Sketch 45.2 (43514) - http://www.bohemiancoding.com/sketch -->
    <title>ICE</title>
    <desc>Created with Sketch.</desc>
    <defs></defs>
    <g id="Physics-Tool" stroke="none" stroke-width="1" fill="none" fill-rule="evenodd">
        <g id="Just-Text" transform="translate(-607.000000, -1060.000000)" fill="#FFFFFF">
            <path d="M623.752,1140 L623.752,1062.496 L607.176,1062.496 L607.176,1140 L623.752,1140 Z M670.456,1060.704 C651.08,1060.704 636.184,1075.04 636.184,1101.136 C636.184,1127.568 650.296,1141.792 670.904,1141.792 C681.656,1141.792 689.832,1137.088 694.76,1132.048 L687.144,1122.304 C682.664,1125.776 678.184,1128.8 671.688,1128.8 C661.048,1128.8 653.544,1120.624 653.544,1101.136 C653.544,1080.976 661.16,1073.136 671.464,1073.136 C676.84,1073.136 681.32,1075.04 685.576,1078.736 L693.864,1069.104 C687.48,1063.728 680.76,1060.704 670.456,1060.704 Z M748.52,1074.48 L750.312,1062.496 L704.056,1062.496 L704.056,1140 L750.536,1140 L750.536,1127.904 L720.52,1127.904 L720.52,1106.512 L744.936,1106.512 L744.936,1094.64 L720.52,1094.64 L720.52,1074.48 L748.52,1074.48 Z" id="ICE"></path>
        </g>
    </g>
</svg>