<?xml version="1.0" encoding="UTF-8" standalone="no"?>
<svg width="400px" height="80px" viewBox="0 0 400 80" version="1.1" xmlns="http://www.w3.org/2000/svg" xmlns:xlink="http://www.w3.org/1999/xlink">
    <!-- Generator: Sketch 45.2 (43514) - http://www.bohemiancoding.com/sketch -->
    <title>RUBBER</title>
    <desc>Created with Sketch.</desc>
    <defs></defs>
    <g id="Physics-Tool" stroke="none" stroke-width="1" fill="none" fill-rule="evenodd">
        <g id="Just-Text" transform="translate(-607.000000, -1342.000000)" fill="#FFFFFF">
            <path d="M632.04,1389.648 L623.64,1389.648 L623.64,1420 L607.176,1420 L607.176,1342.496 L631.368,1342.496 C652.088,1342.496 662.616,1350 662.616,1365.68 C662.616,1375.984 657.576,1382.144 647.272,1386.624 L667.32,1420 L648.616,1420 L632.04,1389.648 Z M623.64,1378 L632.264,1378 C640.888,1378 645.592,1374.416 645.592,1365.68 C645.592,1357.728 641,1354.256 631.032,1354.256 L623.64,1354.256 L623.64,1378 Z M733.848,1394.464 L733.848,1342.496 L717.384,1342.496 L717.384,1393.68 C717.384,1404.096 713.352,1409.248 704.28,1409.248 C695.32,1409.248 691.288,1404.096 691.288,1393.68 L691.288,1342.496 L674.824,1342.496 L674.824,1394.464 C674.824,1410.592 684.68,1421.792 704.28,1421.792 C723.88,1421.792 733.848,1410.032 733.848,1394.464 Z M788.84,1379.008 C797.576,1380.688 806.424,1384.832 806.424,1397.488 C806.424,1414.848 792.424,1420 773.384,1420 L749.192,1420 L749.192,1342.496 L770.36,1342.496 C790.632,1342.496 803.064,1347.984 803.064,1362.32 C803.064,1372.064 796.008,1377.328 788.84,1379.008 Z M765.656,1354.368 L765.656,1373.968 L773.72,1373.968 C781.56,1373.968 786.264,1370.72 786.264,1363.776 C786.264,1356.608 781.448,1354.368 771.928,1354.368 L765.656,1354.368 Z M773.496,1407.792 C782.68,1407.792 789.288,1406 789.288,1396.816 C789.288,1388.192 783.24,1385.168 774.952,1385.168 L765.656,1385.168 L765.656,1407.792 L773.496,1407.792 Z M857.72,1379.008 C866.456,1380.688 875.304,1384.832 875.304,1397.488 C875.304,1414.848 861.304,1420 842.264,1420 L818.072,1420 L818.072,1342.496 L839.24,1342.496 C859.512,1342.496 871.944,1347.984 871.944,1362.32 C871.944,1372.064 864.888,1377.328 857.72,1379.008 Z M834.536,1354.368 L834.536,1373.968 L842.6,1373.968 C850.44,1373.968 855.144,1370.72 855.144,1363.776 C855.144,1356.608 850.328,1354.368 840.808,1354.368 L834.536,1354.368 Z M842.376,1407.792 C851.56,1407.792 858.168,1406 858.168,1396.816 C858.168,1388.192 852.12,1385.168 843.832,1385.168 L834.536,1385.168 L834.536,1407.792 L842.376,1407.792 Z M931.416,1354.48 L933.208,1342.496 L886.952,1342.496 L886.952,1420 L933.432,1420 L933.432,1407.904 L903.416,1407.904 L903.416,1386.512 L927.832,1386.512 L927.832,1374.64 L903.416,1374.64 L903.416,1354.48 L931.416,1354.48 Z M970.952,1389.648 L962.552,1389.648 L962.552,1420 L946.088,1420 L946.088,1342.496 L970.28,1342.496 C991,1342.496 1001.528,1350 1001.528,1365.68 C1001.528,1375.984 996.488,1382.144 986.184,1386.624 L1006.232,1420 L987.528,1420 L970.952,1389.648 Z M962.552,1378 L971.176,1378 C979.8,1378 984.504,1374.416 984.504,1365.68 C984.504,1357.728 979.912,1354.256 969.944,1354.256 L962.552,1354.256 L962.552,1378 Z" id="RUBBER"></path>
        </g>
    </g>
</svg>