<?xml version="1.0" encoding="UTF-8" standalone="no"?>
<svg width="687px" height="80px" viewBox="0 0 687 80" version="1.1" xmlns="http://www.w3.org/2000/svg" xmlns:xlink="http://www.w3.org/1999/xlink">
    <!-- Generator: Sketch 45.2 (43514) - http://www.bohemiancoding.com/sketch -->
    <title>TUMBLEWEED</title>
    <desc>Created with Sketch.</desc>
    <defs></defs>
    <g id="Physics-Tool" stroke="none" stroke-width="1" fill="none" fill-rule="evenodd">
        <g id="Just-Text" transform="translate(-1547.000000, -782.000000)" fill="#FFFFFF">
            <path d="M1603.792,795.376 L1605.584,782.496 L1547.12,782.496 L1547.12,795.376 L1567.728,795.376 L1567.728,860 L1584.192,860 L1584.192,795.376 L1603.792,795.376 Z M1671.888,834.464 L1671.888,782.496 L1655.424,782.496 L1655.424,833.68 C1655.424,844.096 1651.392,849.248 1642.32,849.248 C1633.36,849.248 1629.328,844.096 1629.328,833.68 L1629.328,782.496 L1612.864,782.496 L1612.864,834.464 C1612.864,850.592 1622.72,861.792 1642.32,861.792 C1661.92,861.792 1671.888,850.032 1671.888,834.464 Z M1761.824,860 L1755.888,782.496 L1734.72,782.496 L1722.736,835.92 L1709.968,782.496 L1689.024,782.496 L1682.976,860 L1698.992,860 L1700.672,828.864 C1701.232,818 1701.344,807.696 1700.672,796.832 L1714.672,851.712 L1730.24,851.712 L1743.344,796.944 C1743.008,805.792 1743.344,817.44 1744.016,828.528 L1745.696,860 L1761.824,860 Z M1815.248,819.008 C1823.984,820.688 1832.832,824.832 1832.832,837.488 C1832.832,854.848 1818.832,860 1799.792,860 L1775.6,860 L1775.6,782.496 L1796.768,782.496 C1817.04,782.496 1829.472,787.984 1829.472,802.32 C1829.472,812.064 1822.416,817.328 1815.248,819.008 Z M1792.064,794.368 L1792.064,813.968 L1800.128,813.968 C1807.968,813.968 1812.672,810.72 1812.672,803.776 C1812.672,796.608 1807.856,794.368 1798.336,794.368 L1792.064,794.368 Z M1799.904,847.792 C1809.088,847.792 1815.696,846 1815.696,836.816 C1815.696,828.192 1809.648,825.168 1801.36,825.168 L1792.064,825.168 L1792.064,847.792 L1799.904,847.792 Z M1860.944,846.784 L1860.944,782.496 L1844.48,782.496 L1844.48,860 L1889.84,860 L1891.632,846.784 L1860.944,846.784 Z M1945.952,794.48 L1947.744,782.496 L1901.488,782.496 L1901.488,860 L1947.968,860 L1947.968,847.904 L1917.952,847.904 L1917.952,826.512 L1942.368,826.512 L1942.368,814.64 L1917.952,814.64 L1917.952,794.48 L1945.952,794.48 Z M2031.632,860 L2045.184,782.496 L2029.616,782.496 L2019.648,847.232 L2008.336,782.496 L1990.976,782.496 L1979.216,847.232 L1970.368,782.496 L1953.904,782.496 L1967.344,860 L1988.176,860 L1999.488,799.408 L2010.24,860 L2031.632,860 Z M2099.392,794.48 L2101.184,782.496 L2054.928,782.496 L2054.928,860 L2101.408,860 L2101.408,847.904 L2071.392,847.904 L2071.392,826.512 L2095.808,826.512 L2095.808,814.64 L2071.392,814.64 L2071.392,794.48 L2099.392,794.48 Z M2158.528,794.48 L2160.32,782.496 L2114.064,782.496 L2114.064,860 L2160.544,860 L2160.544,847.904 L2130.528,847.904 L2130.528,826.512 L2154.944,826.512 L2154.944,814.64 L2130.528,814.64 L2130.528,794.48 L2158.528,794.48 Z M2193.472,782.496 C2213.968,782.496 2233.456,788.88 2233.456,820.912 C2233.456,852.16 2214.416,860 2195.376,860 L2173.2,860 L2173.2,782.496 L2193.472,782.496 Z M2189.664,794.592 L2189.664,847.904 L2196.384,847.904 C2207.696,847.904 2216.32,842.64 2216.32,820.912 C2216.32,798.736 2207.248,794.592 2196.048,794.592 L2189.664,794.592 Z" id="TUMBLEWEED"></path>
        </g>
    </g>
</svg>