<?xml version="1.0" encoding="UTF-8" standalone="no"?>
<svg width="316px" height="82px" viewBox="0 0 316 82" version="1.1" xmlns="http://www.w3.org/2000/svg" xmlns:xlink="http://www.w3.org/1999/xlink">
    <!-- Generator: Sketch 45.2 (43514) - http://www.bohemiancoding.com/sketch -->
    <title>WOOD</title>
    <desc>Created with Sketch.</desc>
    <defs></defs>
    <g id="Physics-Tool" stroke="none" stroke-width="1" fill="none" fill-rule="evenodd">
        <g id="Just-Text" transform="translate(-600.000000, -780.000000)" fill="#FFFFFF">
            <path d="M678.184,860 L691.736,782.496 L676.168,782.496 L666.2,847.232 L654.888,782.496 L637.528,782.496 L625.768,847.232 L616.92,782.496 L600.456,782.496 L613.896,860 L634.728,860 L646.04,799.408 L656.792,860 L678.184,860 Z M730.936,780.704 C752.216,780.704 765.32,795.264 765.32,821.248 C765.32,846.672 752.216,861.792 730.936,861.792 C709.656,861.792 696.44,847.12 696.44,821.248 C696.44,795.936 709.656,780.704 730.936,780.704 Z M730.936,793.024 C719.96,793.024 713.8,800.976 713.8,821.248 C713.8,841.52 720.184,849.472 730.936,849.472 C742.024,849.472 747.96,841.52 747.96,821.248 C747.96,800.976 742.024,793.024 730.936,793.024 Z M808.328,780.704 C829.608,780.704 842.712,795.264 842.712,821.248 C842.712,846.672 829.608,861.792 808.328,861.792 C787.048,861.792 773.832,847.12 773.832,821.248 C773.832,795.936 787.048,780.704 808.328,780.704 Z M808.328,793.024 C797.352,793.024 791.192,800.976 791.192,821.248 C791.192,841.52 797.576,849.472 808.328,849.472 C819.416,849.472 825.352,841.52 825.352,821.248 C825.352,800.976 819.416,793.024 808.328,793.024 Z M875.416,782.496 C895.912,782.496 915.4,788.88 915.4,820.912 C915.4,852.16 896.36,860 877.32,860 L855.144,860 L855.144,782.496 L875.416,782.496 Z M871.608,794.592 L871.608,847.904 L878.328,847.904 C889.64,847.904 898.264,842.64 898.264,820.912 C898.264,798.736 889.192,794.592 877.992,794.592 L871.608,794.592 Z" id="WOOD"></path>
        </g>
    </g>
</svg>