<?xml version="1.0" encoding="UTF-8" standalone="no"?>
<svg width="256px" height="82px" viewBox="0 0 256 82" version="1.1" xmlns="http://www.w3.org/2000/svg" xmlns:xlink="http://www.w3.org/1999/xlink">
    <!-- Generator: Sketch 45.2 (43514) - http://www.bohemiancoding.com/sketch -->
    <title>BACK</title>
    <desc>Created with Sketch.</desc>
    <defs></defs>
    <g id="Headers" stroke="none" stroke-width="1" fill="none" fill-rule="evenodd">
        <g id="Header---Voxel-Paint---Hover-State" transform="translate(-1077.000000, -200.000000)" fill="#FFFFFF">
            <path d="M1117.06,239.008 C1125.796,240.688 1134.644,244.832 1134.644,257.488 C1134.644,274.848 1120.644,280 1101.604,280 L1077.412,280 L1077.412,202.496 L1098.58,202.496 C1118.852,202.496 1131.284,207.984 1131.284,222.32 C1131.284,232.064 1124.228,237.328 1117.06,239.008 Z M1093.876,214.368 L1093.876,233.968 L1101.94,233.968 C1109.78,233.968 1114.484,230.72 1114.484,223.776 C1114.484,216.608 1109.668,214.368 1100.148,214.368 L1093.876,214.368 Z M1101.716,267.792 C1110.9,267.792 1117.508,266 1117.508,256.816 C1117.508,248.192 1111.46,245.168 1103.172,245.168 L1093.876,245.168 L1093.876,267.792 L1101.716,267.792 Z M1180.676,262.64 L1156.372,262.64 L1152.004,280 L1134.868,280 L1158.724,202.496 L1178.772,202.496 L1202.516,280 L1185.044,280 L1180.676,262.64 Z M1177.54,250.432 L1168.468,214.704 L1159.508,250.432 L1177.54,250.432 Z M1236.676,200.704 C1246.98,200.704 1253.7,203.728 1260.084,209.104 L1251.796,218.736 C1247.54,215.04 1243.06,213.136 1237.684,213.136 C1227.38,213.136 1219.764,220.976 1219.764,241.136 C1219.764,260.624 1227.268,268.8 1237.908,268.8 C1244.404,268.8 1248.884,265.776 1253.364,262.304 L1260.98,272.048 C1256.052,277.088 1247.876,281.792 1237.124,281.792 C1216.516,281.792 1202.404,267.568 1202.404,241.136 C1202.404,215.04 1217.3,200.704 1236.676,200.704 Z M1286.74,280 L1286.74,202.496 L1270.276,202.496 L1270.276,280 L1286.74,280 Z M1304.884,237.44 L1330.756,202.496 L1313.172,202.496 L1287.412,238.672 L1313.508,280 L1332.772,280 L1304.884,237.44 Z" id="BACK"></path>
        </g>
    </g>
</svg>