<?xml version="1.0" encoding="UTF-8" standalone="no"?>
<svg width="621px" height="82px" viewBox="0 0 621 82" version="1.1" xmlns="http://www.w3.org/2000/svg" xmlns:xlink="http://www.w3.org/1999/xlink">
    <!-- Generator: Sketch 45.2 (43514) - http://www.bohemiancoding.com/sketch -->
    <title>CLONE TOOL</title>
    <desc>Created with Sketch.</desc>
    <defs></defs>
    <g id="Clone-Tool" stroke="none" stroke-width="1" fill="none" fill-rule="evenodd">
        <g id="Clone---Default" transform="translate(-891.000000, -200.000000)" fill="#FFFFFF">
            <path d="M925.932,200.704 C906.556,200.704 891.66,215.04 891.66,241.136 C891.66,267.568 905.772,281.792 926.38,281.792 C937.132,281.792 945.308,277.088 950.236,272.048 L942.62,262.304 C938.14,265.776 933.66,268.8 927.164,268.8 C916.524,268.8 909.02,260.624 909.02,241.136 C909.02,220.976 916.636,213.136 926.94,213.136 C932.316,213.136 936.796,215.04 941.052,218.736 L949.34,209.104 C942.956,203.728 936.236,200.704 925.932,200.704 Z M975.996,266.784 L975.996,202.496 L959.532,202.496 L959.532,280 L1004.892,280 L1006.684,266.784 L975.996,266.784 Z M1045.996,200.704 C1067.276,200.704 1080.38,215.264 1080.38,241.248 C1080.38,266.672 1067.276,281.792 1045.996,281.792 C1024.716,281.792 1011.5,267.12 1011.5,241.248 C1011.5,215.936 1024.716,200.704 1045.996,200.704 Z M1045.996,213.024 C1035.02,213.024 1028.86,220.976 1028.86,241.248 C1028.86,261.52 1035.244,269.472 1045.996,269.472 C1057.084,269.472 1063.02,261.52 1063.02,241.248 C1063.02,220.976 1057.084,213.024 1045.996,213.024 Z M1151.276,280 L1151.276,202.496 L1136.38,202.496 L1136.38,236.544 C1136.38,248.08 1137.836,258.832 1138.62,264.096 L1113.532,202.496 L1092.812,202.496 L1092.812,280 L1107.708,280 L1107.708,249.872 C1107.708,235.536 1106.364,225.456 1105.468,218.512 L1130.108,280 L1151.276,280 Z M1212.092,214.48 L1213.884,202.496 L1167.628,202.496 L1167.628,280 L1214.108,280 L1214.108,267.904 L1184.092,267.904 L1184.092,246.512 L1208.508,246.512 L1208.508,234.64 L1184.092,234.64 L1184.092,214.48 L1212.092,214.48 Z M1303.708,215.376 L1305.5,202.496 L1247.036,202.496 L1247.036,215.376 L1267.644,215.376 L1267.644,280 L1284.108,280 L1284.108,215.376 L1303.708,215.376 Z M1340.556,200.704 C1361.836,200.704 1374.94,215.264 1374.94,241.248 C1374.94,266.672 1361.836,281.792 1340.556,281.792 C1319.276,281.792 1306.06,267.12 1306.06,241.248 C1306.06,215.936 1319.276,200.704 1340.556,200.704 Z M1340.556,213.024 C1329.58,213.024 1323.42,220.976 1323.42,241.248 C1323.42,261.52 1329.804,269.472 1340.556,269.472 C1351.644,269.472 1357.58,261.52 1357.58,241.248 C1357.58,220.976 1351.644,213.024 1340.556,213.024 Z M1417.948,200.704 C1439.228,200.704 1452.332,215.264 1452.332,241.248 C1452.332,266.672 1439.228,281.792 1417.948,281.792 C1396.668,281.792 1383.452,267.12 1383.452,241.248 C1383.452,215.936 1396.668,200.704 1417.948,200.704 Z M1417.948,213.024 C1406.972,213.024 1400.812,220.976 1400.812,241.248 C1400.812,261.52 1407.196,269.472 1417.948,269.472 C1429.036,269.472 1434.972,261.52 1434.972,241.248 C1434.972,220.976 1429.036,213.024 1417.948,213.024 Z M1481.228,266.784 L1481.228,202.496 L1464.764,202.496 L1464.764,280 L1510.124,280 L1511.916,266.784 L1481.228,266.784 Z" id="CLONE-TOOL"></path>
        </g>
    </g>
</svg>