<?xml version="1.0" encoding="UTF-8" standalone="no"?>
<svg width="231px" height="59px" viewBox="0 0 231 59" version="1.1" xmlns="http://www.w3.org/2000/svg" xmlns:xlink="http://www.w3.org/1999/xlink">
    <!-- Generator: Sketch 45.2 (43514) - http://www.bohemiancoding.com/sketch -->
    <title>CLONE</title>
    <desc>Created with Sketch.</desc>
    <defs></defs>
    <g id="Tool-Palette" stroke="none" stroke-width="1" fill="none" fill-rule="evenodd">
        <g id="Tool-Palette---Default" transform="translate(-1365.000000, -983.000000)" fill="#FFFFFF">
            <path d="M1389.74,983.36 C1375.9,983.36 1365.26,993.6 1365.26,1012.24 C1365.26,1031.12 1375.34,1041.28 1390.06,1041.28 C1397.74,1041.28 1403.58,1037.92 1407.1,1034.32 L1401.66,1027.36 C1398.46,1029.84 1395.26,1032 1390.62,1032 C1383.02,1032 1377.66,1026.16 1377.66,1012.24 C1377.66,997.84 1383.1,992.24 1390.46,992.24 C1394.3,992.24 1397.5,993.6 1400.54,996.24 L1406.46,989.36 C1401.9,985.52 1397.1,983.36 1389.74,983.36 Z M1425.5,1030.56 L1425.5,984.64 L1413.74,984.64 L1413.74,1040 L1446.14,1040 L1447.42,1030.56 L1425.5,1030.56 Z M1475.5,983.36 C1490.7,983.36 1500.06,993.76 1500.06,1012.32 C1500.06,1030.48 1490.7,1041.28 1475.5,1041.28 C1460.3,1041.28 1450.86,1030.8 1450.86,1012.32 C1450.86,994.24 1460.3,983.36 1475.5,983.36 Z M1475.5,992.16 C1467.66,992.16 1463.26,997.84 1463.26,1012.32 C1463.26,1026.8 1467.82,1032.48 1475.5,1032.48 C1483.42,1032.48 1487.66,1026.8 1487.66,1012.32 C1487.66,997.84 1483.42,992.16 1475.5,992.16 Z M1550.7,1040 L1550.7,984.64 L1540.06,984.64 L1540.06,1008.96 C1540.06,1017.2 1541.1,1024.88 1541.66,1028.64 L1523.74,984.64 L1508.94,984.64 L1508.94,1040 L1519.58,1040 L1519.58,1018.48 C1519.58,1008.24 1518.62,1001.04 1517.98,996.08 L1535.58,1040 L1550.7,1040 Z M1594.14,993.2 L1595.42,984.64 L1562.38,984.64 L1562.38,1040 L1595.58,1040 L1595.58,1031.36 L1574.14,1031.36 L1574.14,1016.08 L1591.58,1016.08 L1591.58,1007.6 L1574.14,1007.6 L1574.14,993.2 L1594.14,993.2 Z" id="CLONE"></path>
        </g>
    </g>
</svg>