<?xml version="1.0" encoding="UTF-8" standalone="no"?>
<svg width="241px" height="59px" viewBox="0 0 241 59" version="1.1" xmlns="http://www.w3.org/2000/svg" xmlns:xlink="http://www.w3.org/1999/xlink">
    <!-- Generator: Sketch 45.2 (43514) - http://www.bohemiancoding.com/sketch -->
    <title>COLOR</title>
    <desc>Created with Sketch.</desc>
    <defs></defs>
    <g id="Tool-Palette" stroke="none" stroke-width="1" fill="none" fill-rule="evenodd">
        <g id="Tool-Palette---Default" transform="translate(-240.000000, -983.000000)" fill="#FFFFFF">
            <path d="M264.68,983.36 C250.84,983.36 240.2,993.6 240.2,1012.24 C240.2,1031.12 250.28,1041.28 265,1041.28 C272.68,1041.28 278.52,1037.92 282.04,1034.32 L276.6,1027.36 C273.4,1029.84 270.2,1032 265.56,1032 C257.96,1032 252.6,1026.16 252.6,1012.24 C252.6,997.84 258.04,992.24 265.4,992.24 C269.24,992.24 272.44,993.6 275.48,996.24 L281.4,989.36 C276.84,985.52 272.04,983.36 264.68,983.36 Z M308.92,983.36 C324.12,983.36 333.48,993.76 333.48,1012.32 C333.48,1030.48 324.12,1041.28 308.92,1041.28 C293.72,1041.28 284.28,1030.8 284.28,1012.32 C284.28,994.24 293.72,983.36 308.92,983.36 Z M308.92,992.16 C301.08,992.16 296.68,997.84 296.68,1012.32 C296.68,1026.8 301.24,1032.48 308.92,1032.48 C316.84,1032.48 321.08,1026.8 321.08,1012.32 C321.08,997.84 316.84,992.16 308.92,992.16 Z M354.12,1030.56 L354.12,984.64 L342.36,984.64 L342.36,1040 L374.76,1040 L376.04,1030.56 L354.12,1030.56 Z M404.12,983.36 C419.32,983.36 428.68,993.76 428.68,1012.32 C428.68,1030.48 419.32,1041.28 404.12,1041.28 C388.92,1041.28 379.48,1030.8 379.48,1012.32 C379.48,994.24 388.92,983.36 404.12,983.36 Z M404.12,992.16 C396.28,992.16 391.88,997.84 391.88,1012.32 C391.88,1026.8 396.44,1032.48 404.12,1032.48 C412.04,1032.48 416.28,1026.8 416.28,1012.32 C416.28,997.84 412.04,992.16 404.12,992.16 Z M455.32,1018.32 L449.32,1018.32 L449.32,1040 L437.56,1040 L437.56,984.64 L454.84,984.64 C469.64,984.64 477.16,990 477.16,1001.2 C477.16,1008.56 473.56,1012.96 466.2,1016.16 L480.52,1040 L467.16,1040 L455.32,1018.32 Z M449.32,1010 L455.48,1010 C461.64,1010 465,1007.44 465,1001.2 C465,995.52 461.72,993.04 454.6,993.04 L449.32,993.04 L449.32,1010 Z" id="COLOR"></path>
        </g>
    </g>
</svg>