<?xml version="1.0" encoding="UTF-8" standalone="no"?>
<svg width="165px" height="187px" viewBox="0 0 165 187" version="1.1" xmlns="http://www.w3.org/2000/svg" xmlns:xlink="http://www.w3.org/1999/xlink">
    <!-- Generator: Sketch 45.2 (43514) - http://www.bohemiancoding.com/sketch -->
    <title>color-icon</title>
    <desc>Created with Sketch.</desc>
    <defs></defs>
    <g id="Icons" stroke="none" stroke-width="1" fill="none" fill-rule="evenodd">
        <g id="Tool-Icons" transform="translate(-278.000000, -720.000000)" fill="#AFAFAF">
            <g id="color-icon" transform="translate(278.000000, 720.000000)">
                <path d="M80.4482312,88.7139888 C82.1559958,88.9292465 83.7403722,89.8010403 84.8955722,91.0934836 C86.0632897,92.4011743 86.7812662,94.1106795 86.7812662,95.970865 C86.7821603,97.9252258 85.9622544,99.7396691 84.6389604,101.07337 C83.312984,102.406174 81.5104429,103.228638 79.5728901,103.227741 C77.6353373,103.228638 75.8319021,102.405277 74.5068198,101.072473 C73.1826317,99.7396691 72.36362,97.9252258 72.36362,95.970865 L72.36362,95.9358856 L72.3627258,95.9009063 C72.3555729,95.7762361 72.3528906,95.652463 72.3528906,95.5304836 C72.3528906,93.6559475 73.0994787,91.9563084 74.3172669,90.7158857 C75.5368433,89.4790506 77.207055,88.7148857 79.0847019,88.7139888 L80.0610783,88.7139888 L80.4482312,88.7139888 Z M64.5499263,161.539266 C59.8781619,161.53837 55.2215975,159.766081 51.69788,156.221504 L17.9869644,122.303164 C14.463247,118.75769 12.7000471,114.069556 12.6982589,109.366174 C12.7000471,104.662793 14.463247,99.9746588 17.9869644,96.4291846 L65.1606086,48.9657521 L73.8353375,57.6935561 L73.8353375,77.0183188 C69.9343025,78.2004425 66.5196674,80.5512363 64.0232911,83.6688858 C61.30875,87.0565043 59.666256,91.3482053 59.666256,95.970865 C59.6778796,106.80102 68.5555731,115.737803 79.328796,115.75036 C90.1020189,115.737803 98.9806066,106.80102 98.9904419,95.970865 C98.991336,91.5015764 97.5491243,87.4054012 95.1260657,84.1119579 C92.8943481,81.0777208 89.8257366,78.7296178 86.2877132,77.3456899 L86.2877132,70.2233498 L124.580982,108.751793 L77.4019726,156.221504 C73.8773611,159.766081 69.2207966,161.53837 64.5499263,161.539266 L64.5499263,161.539266 Z M141.416322,125.444133 L141.417216,125.444133 C142.627851,126.659442 144.198816,127.303421 145.774251,127.300731 C147.354157,127.303421 148.930486,126.655854 150.142909,125.431576 C151.359803,124.211782 152.002674,122.628741 151.999992,121.040318 C152.002674,119.452793 151.359803,117.869751 150.142909,116.649061 L86.2877132,52.4027005 L86.2877132,6.26041231 C86.2832427,2.8118041 83.4980664,0.00538144324 80.0610783,0 C76.6249844,0.00538144324 73.8398081,2.8118041 73.8353375,6.26041231 L73.8353375,39.8729068 L58.5369855,24.4819791 C57.3254562,23.2577008 55.7482327,22.60834 54.1674328,22.6119276 C52.5866329,22.60834 51.0103036,23.2577008 49.7978802,24.4819791 C48.5809861,25.7017729 47.9381156,27.2857111 47.9407979,28.8723399 C47.9381156,30.4598657 48.5809861,32.0438038 49.7978802,33.2635976 L56.1845621,39.6890408 L9.00018849,87.4045043 L9.00287084,87.4018136 C3.00423591,93.4371022 -0.00178743782,101.34603 7.97370429e-07,109.243298 C-0.00178743782,117.139669 3.00423591,125.049494 9.00287084,131.084782 L42.7137865,165.003122 C48.5961861,170.918225 56.5100209,173.999998 64.4274322,173.999998 C72.3493141,174.002689 80.0262077,170.903875 86.1205133,165.021957 L86.1303485,165.012091 L133.328134,117.526236 L141.416322,125.444133 Z" id="Fill-1"></path>
                <path d="M149.915186,158.13214 C151.755104,160.051782 152.666532,162.486602 152.66743,164.929458 C152.666532,167.369635 151.757798,169.799098 149.923267,171.71874 C147.964819,173.635703 145.500819,174.576774 143.030534,174.57856 C140.553963,174.576774 138.083677,173.632132 136.123433,171.705347 C134.174862,169.773205 133.343351,167.530349 133.331678,164.929458 C133.332576,162.424102 134.384086,160.094639 136.162943,158.115176 L143.030534,151.358036 L149.915186,158.13214 Z M158.606531,180.576771 C162.866449,176.356237 165.000898,170.79374 165,165.24285 C165.000898,159.679461 162.858367,154.102678 158.578695,149.880359 L147.386533,138.830365 L146.43739,139.780364 L147.386533,138.830365 C146.175186,137.630365 144.604656,136.99733 143.030534,137.000008 C141.456411,136.99733 139.885881,137.630365 138.674534,138.830365 L127.481475,149.880359 C123.345475,153.954464 120.995517,159.363389 121.000006,165.24285 C120.995517,171.122312 123.345475,176.530344 127.481475,180.606235 C131.859923,184.93659 137.354535,187.007124 143.030534,186.999982 C148.687676,187.001767 154.402287,184.96784 158.578695,180.606235 C158.581388,180.603556 158.584082,180.599985 158.586776,180.597306 C158.59396,180.590164 158.601144,180.583914 158.608327,180.577664 L158.606531,180.576771 Z" id="Fill-4"></path>
            </g>
        </g>
    </g>
</svg>