<?xml version="1.0" encoding="UTF-8" standalone="no"?>
<svg width="653px" height="82px" viewBox="0 0 653 82" version="1.1" xmlns="http://www.w3.org/2000/svg" xmlns:xlink="http://www.w3.org/1999/xlink">
    <!-- Generator: Sketch 45.2 (43514) - http://www.bohemiancoding.com/sketch -->
    <title>DELETE TOOL</title>
    <desc>Created with Sketch.</desc>
    <defs></defs>
    <g id="Delete-Tool" stroke="none" stroke-width="1" fill="none" fill-rule="evenodd">
        <g id="Delete---Default" transform="translate(-877.000000, -200.000000)" fill="#FFFFFF">
            <path d="M897.932,202.496 C918.428,202.496 937.916,208.88 937.916,240.912 C937.916,272.16 918.876,280 899.836,280 L877.66,280 L877.66,202.496 L897.932,202.496 Z M894.124,214.592 L894.124,267.904 L900.844,267.904 C912.156,267.904 920.78,262.64 920.78,240.912 C920.78,218.736 911.708,214.592 900.508,214.592 L894.124,214.592 Z M994.924,214.48 L996.716,202.496 L950.46,202.496 L950.46,280 L996.94,280 L996.94,267.904 L966.924,267.904 L966.924,246.512 L991.34,246.512 L991.34,234.64 L966.924,234.64 L966.924,214.48 L994.924,214.48 Z M1026.06,266.784 L1026.06,202.496 L1009.596,202.496 L1009.596,280 L1054.956,280 L1056.748,266.784 L1026.06,266.784 Z M1111.068,214.48 L1112.86,202.496 L1066.604,202.496 L1066.604,280 L1113.084,280 L1113.084,267.904 L1083.068,267.904 L1083.068,246.512 L1107.484,246.512 L1107.484,234.64 L1083.068,234.64 L1083.068,214.48 L1111.068,214.48 Z M1175.356,215.376 L1177.148,202.496 L1118.684,202.496 L1118.684,215.376 L1139.292,215.376 L1139.292,280 L1155.756,280 L1155.756,215.376 L1175.356,215.376 Z M1230.012,214.48 L1231.804,202.496 L1185.548,202.496 L1185.548,280 L1232.028,280 L1232.028,267.904 L1202.012,267.904 L1202.012,246.512 L1226.428,246.512 L1226.428,234.64 L1202.012,234.64 L1202.012,214.48 L1230.012,214.48 Z M1321.628,215.376 L1323.42,202.496 L1264.956,202.496 L1264.956,215.376 L1285.564,215.376 L1285.564,280 L1302.028,280 L1302.028,215.376 L1321.628,215.376 Z M1358.476,200.704 C1379.756,200.704 1392.86,215.264 1392.86,241.248 C1392.86,266.672 1379.756,281.792 1358.476,281.792 C1337.196,281.792 1323.98,267.12 1323.98,241.248 C1323.98,215.936 1337.196,200.704 1358.476,200.704 Z M1358.476,213.024 C1347.5,213.024 1341.34,220.976 1341.34,241.248 C1341.34,261.52 1347.724,269.472 1358.476,269.472 C1369.564,269.472 1375.5,261.52 1375.5,241.248 C1375.5,220.976 1369.564,213.024 1358.476,213.024 Z M1435.868,200.704 C1457.148,200.704 1470.252,215.264 1470.252,241.248 C1470.252,266.672 1457.148,281.792 1435.868,281.792 C1414.588,281.792 1401.372,267.12 1401.372,241.248 C1401.372,215.936 1414.588,200.704 1435.868,200.704 Z M1435.868,213.024 C1424.892,213.024 1418.732,220.976 1418.732,241.248 C1418.732,261.52 1425.116,269.472 1435.868,269.472 C1446.956,269.472 1452.892,261.52 1452.892,241.248 C1452.892,220.976 1446.956,213.024 1435.868,213.024 Z M1499.148,266.784 L1499.148,202.496 L1482.684,202.496 L1482.684,280 L1528.044,280 L1529.836,266.784 L1499.148,266.784 Z" id="DELETE-TOOL"></path>
        </g>
    </g>
</svg>