<?xml version="1.0" encoding="UTF-8" standalone="no"?>
<svg width="647px" height="82px" viewBox="0 0 647 82" version="1.1" xmlns="http://www.w3.org/2000/svg" xmlns:xlink="http://www.w3.org/1999/xlink">
    <!-- Generator: Sketch 45.2 (43514) - http://www.bohemiancoding.com/sketch -->
    <title>GROUP TOOL</title>
    <desc>Created with Sketch.</desc>
    <defs></defs>
    <g id="Group-Tool" stroke="none" stroke-width="1" fill="none" fill-rule="evenodd">
        <g id="Group---Default---Locked-Buttons" transform="translate(-878.000000, -200.000000)" fill="#FFFFFF">
            <path d="M915.068,200.704 C895.244,200.704 878.892,214.928 878.892,241.136 C878.892,267.792 890.876,281.792 913.276,281.792 C923.692,281.792 933.212,278.768 940.94,273.952 L940.94,235.76 L912.38,235.76 L914.06,247.744 L924.924,247.744 L924.924,266.672 C921.452,268.576 917.532,269.472 913.388,269.472 C901.964,269.472 896.14,261.968 896.14,241.248 C896.14,221.088 904.876,212.912 915.852,212.912 C922.236,212.912 926.604,214.928 931.644,219.072 L940.492,210 C933.996,204.4 926.156,200.704 915.068,200.704 Z M979.468,249.648 L971.068,249.648 L971.068,280 L954.604,280 L954.604,202.496 L978.796,202.496 C999.516,202.496 1010.044,210 1010.044,225.68 C1010.044,235.984 1005.004,242.144 994.7,246.624 L1014.748,280 L996.044,280 L979.468,249.648 Z M971.068,238 L979.692,238 C988.316,238 993.02,234.416 993.02,225.68 C993.02,217.728 988.428,214.256 978.46,214.256 L971.068,214.256 L971.068,238 Z M1052.828,200.704 C1074.108,200.704 1087.212,215.264 1087.212,241.248 C1087.212,266.672 1074.108,281.792 1052.828,281.792 C1031.548,281.792 1018.332,267.12 1018.332,241.248 C1018.332,215.936 1031.548,200.704 1052.828,200.704 Z M1052.828,213.024 C1041.852,213.024 1035.692,220.976 1035.692,241.248 C1035.692,261.52 1042.076,269.472 1052.828,269.472 C1063.916,269.472 1069.852,261.52 1069.852,241.248 C1069.852,220.976 1063.916,213.024 1052.828,213.024 Z M1157.548,254.464 L1157.548,202.496 L1141.084,202.496 L1141.084,253.68 C1141.084,264.096 1137.052,269.248 1127.98,269.248 C1119.02,269.248 1114.988,264.096 1114.988,253.68 L1114.988,202.496 L1098.524,202.496 L1098.524,254.464 C1098.524,270.592 1108.38,281.792 1127.98,281.792 C1147.58,281.792 1157.548,270.032 1157.548,254.464 Z M1196.86,202.496 C1216.572,202.496 1228.668,210.56 1228.668,227.472 C1228.668,245.392 1215.9,253.568 1198.204,253.568 L1189.356,253.568 L1189.356,280 L1172.892,280 L1172.892,202.496 L1196.86,202.496 Z M1196.86,241.472 C1205.932,241.472 1211.644,238 1211.644,227.472 C1211.644,218.4 1206.268,214.368 1196.636,214.368 L1189.356,214.368 L1189.356,241.472 L1196.86,241.472 Z M1316.476,215.376 L1318.268,202.496 L1259.804,202.496 L1259.804,215.376 L1280.412,215.376 L1280.412,280 L1296.876,280 L1296.876,215.376 L1316.476,215.376 Z M1353.324,200.704 C1374.604,200.704 1387.708,215.264 1387.708,241.248 C1387.708,266.672 1374.604,281.792 1353.324,281.792 C1332.044,281.792 1318.828,267.12 1318.828,241.248 C1318.828,215.936 1332.044,200.704 1353.324,200.704 Z M1353.324,213.024 C1342.348,213.024 1336.188,220.976 1336.188,241.248 C1336.188,261.52 1342.572,269.472 1353.324,269.472 C1364.412,269.472 1370.348,261.52 1370.348,241.248 C1370.348,220.976 1364.412,213.024 1353.324,213.024 Z M1430.716,200.704 C1451.996,200.704 1465.1,215.264 1465.1,241.248 C1465.1,266.672 1451.996,281.792 1430.716,281.792 C1409.436,281.792 1396.22,267.12 1396.22,241.248 C1396.22,215.936 1409.436,200.704 1430.716,200.704 Z M1430.716,213.024 C1419.74,213.024 1413.58,220.976 1413.58,241.248 C1413.58,261.52 1419.964,269.472 1430.716,269.472 C1441.804,269.472 1447.74,261.52 1447.74,241.248 C1447.74,220.976 1441.804,213.024 1430.716,213.024 Z M1493.996,266.784 L1493.996,202.496 L1477.532,202.496 L1477.532,280 L1522.892,280 L1524.684,266.784 L1493.996,266.784 Z" id="GROUP-TOOL"></path>
        </g>
    </g>
</svg>