<?xml version="1.0" encoding="UTF-8" standalone="no"?>
<svg width="712px" height="82px" viewBox="0 0 712 82" version="1.1" xmlns="http://www.w3.org/2000/svg" xmlns:xlink="http://www.w3.org/1999/xlink">
    <!-- Generator: Sketch 45.2 (43514) - http://www.bohemiancoding.com/sketch -->
    <title>PHYSICS TOOL</title>
    <desc>Created with Sketch.</desc>
    <defs></defs>
    <g id="Physics-Tool" stroke="none" stroke-width="1" fill="none" fill-rule="evenodd">
        <g id="Physics---Default" transform="translate(-848.000000, -200.000000)" fill="#FFFFFF">
            <path d="M872.228,202.496 C891.94,202.496 904.036,210.56 904.036,227.472 C904.036,245.392 891.268,253.568 873.572,253.568 L864.724,253.568 L864.724,280 L848.26,280 L848.26,202.496 L872.228,202.496 Z M872.228,241.472 C881.3,241.472 887.012,238 887.012,227.472 C887.012,218.4 881.636,214.368 872.004,214.368 L864.724,214.368 L864.724,241.472 L872.228,241.472 Z M957.012,246.064 L957.012,280 L973.476,280 L973.476,202.496 L957.012,202.496 L957.012,233.072 L931.364,233.072 L931.364,202.496 L914.9,202.496 L914.9,280 L931.364,280 L931.364,246.064 L957.012,246.064 Z M1022.532,250.768 L1022.532,280 L1006.068,280 L1006.068,250.88 L981.204,202.496 L999.236,202.496 L1014.692,237.664 L1030.036,202.496 L1047.396,202.496 L1022.532,250.768 Z M1074.276,200.704 C1085.812,200.704 1093.652,204.176 1100.372,210.448 L1092.42,219.632 C1087.044,215.04 1081.668,213.024 1075.396,213.024 C1068.676,213.024 1064.084,215.936 1064.084,221.424 C1064.084,226.8 1066.996,229.04 1079.652,232.96 C1093.652,237.44 1102.612,243.264 1102.612,257.6 C1102.612,271.824 1091.412,281.792 1072.596,281.792 C1059.716,281.792 1050.308,277.2 1043.924,270.928 L1052.548,261.52 C1057.924,266.448 1064.196,269.36 1072.148,269.36 C1080.1,269.36 1085.476,265.552 1085.476,258.72 C1085.476,252.56 1082.452,249.872 1070.692,246.288 C1053.892,241.024 1047.172,234.304 1047.172,222.544 C1047.172,209.328 1058.596,200.704 1074.276,200.704 Z M1130.5,280 L1130.5,202.496 L1113.924,202.496 L1113.924,280 L1130.5,280 Z M1177.204,200.704 C1157.828,200.704 1142.932,215.04 1142.932,241.136 C1142.932,267.568 1157.044,281.792 1177.652,281.792 C1188.404,281.792 1196.58,277.088 1201.508,272.048 L1193.892,262.304 C1189.412,265.776 1184.932,268.8 1178.436,268.8 C1167.796,268.8 1160.292,260.624 1160.292,241.136 C1160.292,220.976 1167.908,213.136 1178.212,213.136 C1183.588,213.136 1188.068,215.04 1192.324,218.736 L1200.612,209.104 C1194.228,203.728 1187.508,200.704 1177.204,200.704 Z M1234.436,200.704 C1218.756,200.704 1207.332,209.328 1207.332,222.544 C1207.332,234.304 1214.052,241.024 1230.852,246.288 C1242.612,249.872 1245.636,252.56 1245.636,258.72 C1245.636,265.552 1240.26,269.36 1232.308,269.36 C1224.356,269.36 1218.084,266.448 1212.708,261.52 L1204.084,270.928 C1210.468,277.2 1219.876,281.792 1232.756,281.792 C1251.572,281.792 1262.772,271.824 1262.772,257.6 C1262.772,243.264 1253.812,237.44 1239.812,232.96 C1227.156,229.04 1224.244,226.8 1224.244,221.424 C1224.244,215.936 1228.836,213.024 1235.556,213.024 C1241.828,213.024 1247.204,215.04 1252.58,219.632 L1260.532,210.448 C1253.812,204.176 1245.972,200.704 1234.436,200.704 Z M1351.028,215.376 L1352.82,202.496 L1294.356,202.496 L1294.356,215.376 L1314.964,215.376 L1314.964,280 L1331.428,280 L1331.428,215.376 L1351.028,215.376 Z M1387.876,200.704 C1409.156,200.704 1422.26,215.264 1422.26,241.248 C1422.26,266.672 1409.156,281.792 1387.876,281.792 C1366.596,281.792 1353.38,267.12 1353.38,241.248 C1353.38,215.936 1366.596,200.704 1387.876,200.704 Z M1387.876,213.024 C1376.9,213.024 1370.74,220.976 1370.74,241.248 C1370.74,261.52 1377.124,269.472 1387.876,269.472 C1398.964,269.472 1404.9,261.52 1404.9,241.248 C1404.9,220.976 1398.964,213.024 1387.876,213.024 Z M1465.268,200.704 C1486.548,200.704 1499.652,215.264 1499.652,241.248 C1499.652,266.672 1486.548,281.792 1465.268,281.792 C1443.988,281.792 1430.772,267.12 1430.772,241.248 C1430.772,215.936 1443.988,200.704 1465.268,200.704 Z M1465.268,213.024 C1454.292,213.024 1448.132,220.976 1448.132,241.248 C1448.132,261.52 1454.516,269.472 1465.268,269.472 C1476.356,269.472 1482.292,261.52 1482.292,241.248 C1482.292,220.976 1476.356,213.024 1465.268,213.024 Z M1528.548,266.784 L1528.548,202.496 L1512.084,202.496 L1512.084,280 L1557.444,280 L1559.236,266.784 L1528.548,266.784 Z" id="PHYSICS-TOOL"></path>
        </g>
    </g>
</svg>