<?xml version="1.0" encoding="utf-8"?>
<!DOCTYPE svg PUBLIC "-//W3C//DTD SVG 1.1//EN" "http://www.w3.org/Graphics/SVG/1.1/DTD/svg11.dtd">
<svg xmlns="http://www.w3.org/2000/svg" xmlns:xlink="http://www.w3.org/1999/xlink" version="1.1" baseProfile="full" width="180" height="186" viewBox="0 0 180.00 186.00" enable-background="new 0 0 180.00 186.00" xml:space="preserve">
	<g>
		<path fill="#AFAFAF" fill-opacity="1" stroke-width="0.2" stroke-linejoin="round" d="M 37.7352,146.571C 43.834,141.827 44.3355,136.23 39.2396,129.779C 28.7497,117.229 23.9249,102.741 24.7652,86.3146C 25.6054,69.8885 31.9617,55.7393 43.834,43.867C 56.3569,31.3442 71.4277,25.0828 89.0464,25.0828C 106.665,25.0828 121.749,31.3577 134.299,43.9077C 148.177,57.7858 154.954,73.0192 154.629,89.6079C 154.276,104.868 146.998,120.63 132.795,136.894L 132.266,121.159C 132.266,113.678 128.201,109.612 120.069,108.961C 117.033,109.287 114.322,110.642 111.937,113.027C 109.227,115.738 108.034,118.611 108.359,121.647L 108.888,165.843C 108.888,167.198 109.227,168.892 109.904,170.925C 111.937,175.669 115.664,178.04 121.085,178.04L 165.81,178.04C 168.52,178.04 171.061,176.854 173.433,174.483C 175.805,172.111 177.153,169.407 177.479,166.371C 177.479,158.24 173.413,154.174 165.281,154.174L 150.075,154.174C 168.696,133.492 178.17,112.146 178.495,90.1365C 179.525,66.7713 170.716,45.7644 152.067,27.1157C 134.801,9.84937 113.97,1.21619 89.5749,1.21619C 65.1798,1.21619 44.349,9.84935 27.0827,27.1157C 10.8193,43.3791 2.17256,62.6919 1.14254,85.0541C 0.112521,107.416 6.72631,127.407 20.9839,145.026C 22.9897,147.736 25.6935,149.261 29.0953,149.6C 32.4971,149.938 35.377,148.929 37.7352,146.571 Z "/>
	</g>
</svg>
