<?xml version="1.0" encoding="UTF-8" standalone="no"?>
<svg width="167px" height="167px" viewBox="0 0 167 167" version="1.1" xmlns="http://www.w3.org/2000/svg" xmlns:xlink="http://www.w3.org/1999/xlink">
    <!-- Generator: Sketch 45.2 (43514) - http://www.bohemiancoding.com/sketch -->
    <title>stretch-icon</title>
    <desc>Created with Sketch.</desc>
    <defs></defs>
    <g id="Icons" stroke="none" stroke-width="1" fill="none" fill-rule="evenodd">
        <g id="Tool-Icons" transform="translate(-838.000000, -743.000000)" fill-rule="nonzero" fill="#AFAFAF">
            <g id="stretch-icon" transform="translate(838.000000, 743.000000)">
                <path d="M146.5,32 C140.572581,32 136,27.4274194 136,21.5 C136,15.5725806 140.572581,11 146.5,11 C152.427419,11 157,15.5725806 157,21.5 C157,27.4274194 152.427419,32 146.5,32 Z M139,70 L153,70 L153,35 L139,35 L139,70 Z M97,28 L132,28 L132,14 L97,14 L97,28 Z M146.5,94 C140.572581,94 136,89.4274194 136,83.5 C136,77.5725806 140.572581,73 146.5,73 C152.427419,73 157,77.5725806 157,83.5 C157,89.4274194 152.427419,94 146.5,94 Z M146.5,104 C157.98,104 167,94.76 167,83 C167,71.24 157.98,62 146.5,62 C135.02,62 126,71.24 126,83 C126,94.76 135.02,104 146.5,104 Z M83.5,32 C77.5725806,32 73,27.4274194 73,21.5 C73,15.5725806 77.5725806,11 83.5,11 C89.4274194,11 94,15.5725806 94,21.5 C94,27.4274194 89.4274194,32 83.5,32 Z M83,41 C94.76,41 104,31.98 104,20.5 C104,9.02 94.76,0 83,0 C71.24,0 62,9.02 62,20.5 C62,31.98 71.24,41 83,41 Z M139,132 L153,132 L153,97 L139,97 L139,132 Z M35,28 L70,28 L70,14 L35,14 L35,28 Z M83.5,94 C77.5725806,94 73,89.4274194 73,83.5 C73,77.5725806 77.5725806,73 83.5,73 C89.4274194,73 94,77.5725806 94,83.5 C94,89.4274194 89.4274194,94 83.5,94 Z M83,104 C94.76,104 104,94.76 104,83 C104,71.24 94.76,62 83,62 C71.24,62 62,71.24 62,83 C62,94.76 71.24,104 83,104 Z M20.5,32 C14.5725806,32 10,27.4274194 10,21.5 C10,15.5725806 14.5725806,11 20.5,11 C26.4274194,11 31,15.5725806 31,21.5 C31,27.4274194 26.4274194,32 20.5,32 Z M20.5,41 C31.98,41 41,31.98 41,20.5 C41,9.02 31.98,0 20.5,0 C9.02,0 0,9.02 0,20.5 C0,31.98 9.02,41 20.5,41 Z M146.5,167 C157.98,167 167,157.98 167,146.5 C167,135.02 157.98,126 146.5,126 C135.02,126 126,135.02 126,146.5 C126,157.98 135.02,167 146.5,167 Z M97,153 L132,153 L132,139 L97,139 L97,153 Z M14,70 L28,70 L28,35 L14,35 L14,70 Z M83.5,157 C77.5725806,157 73,152.427419 73,146.5 C73,140.572581 77.5725806,136 83.5,136 C89.4274194,136 94,140.572581 94,146.5 C94,152.427419 89.4274194,157 83.5,157 Z M83,167 C94.76,167 104,157.98 104,146.5 C104,135.02 94.76,126 83,126 C71.24,126 62,135.02 62,146.5 C62,157.98 71.24,167 83,167 Z M20.5,94 C14.5725806,94 10,89.4274194 10,83.5 C10,77.5725806 14.5725806,73 20.5,73 C26.4274194,73 31,77.5725806 31,83.5 C31,89.4274194 26.4274194,94 20.5,94 Z M20.5,104 C31.98,104 41,94.76 41,83 C41,71.24 31.98,62 20.5,62 C9.02,62 0,71.24 0,83 C0,94.76 9.02,104 20.5,104 Z M35,153 L70,153 L70,139 L35,139 L35,153 Z M14,132 L28,132 L28,97 L14,97 L14,132 Z M20.5,157 C14.5725806,157 10,152.427419 10,146.5 C10,140.572581 14.5725806,136 20.5,136 C26.4274194,136 31,140.572581 31,146.5 C31,152.427419 26.4274194,157 20.5,157 Z M20.5,167 C31.98,167 41,157.98 41,146.5 C41,135.02 31.98,126 20.5,126 C9.02,126 0,135.02 0,146.5 C0,157.98 9.02,167 20.5,167 Z M146.5,41 C157.98,41 167,31.98 167,20.5 C167,9.02 157.98,0 146.5,0 C135.02,0 126,9.02 126,20.5 C126,31.98 135.02,41 146.5,41 Z"></path>
            </g>
        </g>
    </g>
</svg>