<?xml version="1.0" encoding="UTF-8" standalone="no"?>
<svg width="311px" height="59px" viewBox="0 0 311 59" version="1.1" xmlns="http://www.w3.org/2000/svg" xmlns:xlink="http://www.w3.org/1999/xlink">
    <!-- Generator: Sketch 45.2 (43514) - http://www.bohemiancoding.com/sketch -->
    <title>STRETCH</title>
    <desc>Created with Sketch.</desc>
    <defs></defs>
    <g id="Tool-Palette" stroke="none" stroke-width="1" fill="none" fill-rule="evenodd">
        <g id="Tool-Palette---Default" transform="translate(-762.000000, -983.000000)" fill="#FFFFFF">
            <path d="M783.92,983.36 C772.72,983.36 764.56,989.52 764.56,998.96 C764.56,1007.36 769.36,1012.16 781.36,1015.92 C789.76,1018.48 791.92,1020.4 791.92,1024.8 C791.92,1029.68 788.08,1032.4 782.4,1032.4 C776.72,1032.4 772.24,1030.32 768.4,1026.8 L762.24,1033.52 C766.8,1038 773.52,1041.28 782.72,1041.28 C796.16,1041.28 804.16,1034.16 804.16,1024 C804.16,1013.76 797.76,1009.6 787.76,1006.4 C778.72,1003.6 776.64,1002 776.64,998.16 C776.64,994.24 779.92,992.16 784.72,992.16 C789.2,992.16 793.04,993.6 796.88,996.88 L802.56,990.32 C797.76,985.84 792.16,983.36 783.92,983.36 Z M846.88,993.84 L848.16,984.64 L806.4,984.64 L806.4,993.84 L821.12,993.84 L821.12,1040 L832.88,1040 L832.88,993.84 L846.88,993.84 Z M871.92,1018.32 L865.92,1018.32 L865.92,1040 L854.16,1040 L854.16,984.64 L871.44,984.64 C886.24,984.64 893.76,990 893.76,1001.2 C893.76,1008.56 890.16,1012.96 882.8,1016.16 L897.12,1040 L883.76,1040 L871.92,1018.32 Z M865.92,1010 L872.08,1010 C878.24,1010 881.6,1007.44 881.6,1001.2 C881.6,995.52 878.32,993.04 871.2,993.04 L865.92,993.04 L865.92,1010 Z M935.04,993.2 L936.32,984.64 L903.28,984.64 L903.28,1040 L936.48,1040 L936.48,1031.36 L915.04,1031.36 L915.04,1016.08 L932.48,1016.08 L932.48,1007.6 L915.04,1007.6 L915.04,993.2 L935.04,993.2 Z M980.96,993.84 L982.24,984.64 L940.48,984.64 L940.48,993.84 L955.2,993.84 L955.2,1040 L966.96,1040 L966.96,993.84 L980.96,993.84 Z M1007.12,983.36 C993.28,983.36 982.64,993.6 982.64,1012.24 C982.64,1031.12 992.72,1041.28 1007.44,1041.28 C1015.12,1041.28 1020.96,1037.92 1024.48,1034.32 L1019.04,1027.36 C1015.84,1029.84 1012.64,1032 1008,1032 C1000.4,1032 995.04,1026.16 995.04,1012.24 C995.04,997.84 1000.48,992.24 1007.84,992.24 C1011.68,992.24 1014.88,993.6 1017.92,996.24 L1023.84,989.36 C1019.28,985.52 1014.48,983.36 1007.12,983.36 Z M1061.2,1015.76 L1061.2,1040 L1072.96,1040 L1072.96,984.64 L1061.2,984.64 L1061.2,1006.48 L1042.88,1006.48 L1042.88,984.64 L1031.12,984.64 L1031.12,1040 L1042.88,1040 L1042.88,1015.76 L1061.2,1015.76 Z" id="STRETCH"></path>
        </g>
    </g>
</svg>