<?xml version="1.0" encoding="utf-8"?>
<!DOCTYPE svg PUBLIC "-//W3C//DTD SVG 1.1//EN" "http://www.w3.org/Graphics/SVG/1.1/DTD/svg11.dtd">
<svg xmlns="http://www.w3.org/2000/svg" xmlns:xlink="http://www.w3.org/1999/xlink" version="1.1" baseProfile="full" width="205" height="59" viewBox="0 0 205.00 59.00" enable-background="new 0 0 205.00 59.00" xml:space="preserve">
	<g>
		<path fill="#FFFFFF" fill-opacity="1" stroke-linejoin="round" d="M 43.3067,39.0384C 43.3067,42.8316 42.5133,46.197 40.9267,49.1348C 39.34,52.0727 36.9724,54.3824 33.8239,56.0641C 30.6753,57.7458 26.8533,58.5867 22.3577,58.5867C 15.5896,58.5867 10.4205,56.8099 6.85052,53.2565C 3.28052,49.703 1.49552,44.9636 1.49552,39.0384L 1.49552,1.86334L 13.16,1.86334L 13.16,38.8649C 13.16,42.6415 13.8996,45.4615 15.3789,47.3251C 16.8581,49.1886 19.1844,50.1203 22.3577,50.1203C 25.531,50.1203 27.8718,49.1886 29.3799,47.3251C 30.8881,45.4615 31.6422,42.6415 31.6422,38.8649L 31.6422,1.86334L 43.3067,1.86334L 43.3067,39.0384 Z "/>
		<path fill="#FFFFFF" fill-opacity="1" stroke-linejoin="round" d="M 95.27,57L 80.271,57L 62.8177,13.1188C 63.297,16.9036 63.6813,20.4612 63.9705,23.7916C 64.2598,27.1219 64.4044,31.0225 64.4044,35.4932L 64.4044,57L 53.8555,57L 53.8555,1.46667L 68.5322,1.46667L 86.3078,45.6578C 85.25,38.4765 84.7212,31.886 84.7212,25.8865L 84.7212,1.46667L 95.27,1.46667L 95.27,57 Z "/>
		<path fill="#FFFFFF" fill-opacity="1" stroke-linejoin="round" d="M 121.376,1.72699C 129.937,1.72699 136.796,3.68346 141.953,7.59641C 147.109,11.5094 149.688,18.6845 149.688,29.1218C 149.688,39.3442 147.163,46.5462 142.114,50.7277C 137.065,54.9092 130.598,57 122.714,57L 107.009,57L 107.009,1.72699L 121.376,1.72699 Z M 118.673,10.1933L 118.673,48.5336L 123.433,48.5336C 127.929,48.5336 131.406,47.1247 133.864,44.3067C 136.323,41.4887 137.552,36.427 137.552,29.1218C 137.552,24.0725 136.93,20.1513 135.687,17.3581C 134.443,14.5649 132.79,12.6725 130.728,11.6808C 128.666,10.6892 126.156,10.1933 123.198,10.1933L 118.673,10.1933 Z "/>
		<path fill="#FFFFFF" fill-opacity="1" stroke-linejoin="round" d="M 180.231,0.933651C 185.255,0.933651 189.594,2.06167 193.247,4.31771C 196.899,6.57376 199.703,9.85245 201.657,14.1538C 203.612,18.4552 204.589,23.6552 204.589,29.754C 204.589,35.7535 203.612,40.9185 201.657,45.2488C 199.703,49.579 196.899,52.8846 193.247,55.1654C 189.594,57.4463 185.255,58.5867 180.231,58.5867C 175.207,58.5867 170.858,57.4586 167.184,55.2026C 163.511,52.9466 160.695,49.6555 158.737,45.3293C 156.778,41.0032 155.799,35.8114 155.799,29.754C 155.799,23.8122 156.79,18.6783 158.774,14.3521C 160.757,10.026 163.588,6.70804 167.265,4.39828C 170.942,2.08853 175.264,0.933651 180.231,0.933651 Z M 180.231,9.40001C 176.215,9.40001 173.188,11.0156 171.151,14.2468C 169.114,17.478 168.095,22.647 168.095,29.754C 168.095,36.8692 169.126,42.0424 171.188,45.2735C 173.25,48.5047 176.264,50.1203 180.231,50.1203C 184.256,50.1203 187.272,48.5171 189.28,45.3107C 191.288,42.1043 192.292,36.9188 192.292,29.754C 192.292,22.5974 191.288,17.416 189.28,14.2096C 187.272,11.0032 184.256,9.40001 180.231,9.40001 Z "/>
	</g>
</svg>
