<?xml version="1.0" encoding="UTF-8" standalone="no"?>
<svg width="243px" height="78px" viewBox="0 0 243 78" version="1.1" xmlns="http://www.w3.org/2000/svg" xmlns:xlink="http://www.w3.org/1999/xlink">
    <!-- Generator: Sketch 45.2 (43514) - http://www.bohemiancoding.com/sketch -->
    <title>LEAD Copy</title>
    <desc>Created with Sketch.</desc>
    <defs></defs>
    <g id="Physics-Tool" stroke="none" stroke-width="1" fill="none" fill-rule="evenodd">
        <g id="Just-Text" transform="translate(-607.000000, -502.000000)" fill="#FFFFFF">
            <path d="M623.64,566.784 L623.64,502.496 L607.176,502.496 L607.176,580 L652.536,580 L654.328,566.784 L623.64,566.784 Z M708.648,514.48 L710.44,502.496 L664.184,502.496 L664.184,580 L710.664,580 L710.664,567.904 L680.648,567.904 L680.648,546.512 L705.064,546.512 L705.064,534.64 L680.648,534.64 L680.648,514.48 L708.648,514.48 Z M759.944,562.64 L735.64,562.64 L731.272,580 L714.136,580 L737.992,502.496 L758.04,502.496 L781.784,580 L764.312,580 L759.944,562.64 Z M756.808,550.432 L747.736,514.704 L738.776,550.432 L756.808,550.432 Z M809.224,502.496 C829.72,502.496 849.208,508.88 849.208,540.912 C849.208,572.16 830.168,580 811.128,580 L788.952,580 L788.952,502.496 L809.224,502.496 Z M805.416,514.592 L805.416,567.904 L812.136,567.904 C823.448,567.904 832.072,562.64 832.072,540.912 C832.072,518.736 823,514.592 811.8,514.592 L805.416,514.592 Z" id="LEAD-Copy"></path>
        </g>
    </g>
</svg>