<?xml version="1.0" encoding="UTF-8" standalone="no"?>
<svg width="375px" height="82px" viewBox="0 0 375 82" version="1.1" xmlns="http://www.w3.org/2000/svg" xmlns:xlink="http://www.w3.org/1999/xlink">
    <!-- Generator: Sketch 45.2 (43514) - http://www.bohemiancoding.com/sketch -->
    <title>ZERO-G</title>
    <desc>Created with Sketch.</desc>
    <defs></defs>
    <g id="Physics-Tool" stroke="none" stroke-width="1" fill="none" fill-rule="evenodd">
        <g id="Just-Text" transform="translate(-1548.000000, -1060.000000)" fill="#FFFFFF">
            <path d="M1602.336,1075.152 L1602.336,1062.496 L1551.936,1062.496 L1551.936,1075.488 L1583.744,1075.488 L1548.352,1127.568 L1548.352,1140 L1601.104,1140 L1602.896,1126.672 L1567.616,1126.672 L1602.336,1075.152 Z M1659.008,1074.48 L1660.8,1062.496 L1614.544,1062.496 L1614.544,1140 L1661.024,1140 L1661.024,1127.904 L1631.008,1127.904 L1631.008,1106.512 L1655.424,1106.512 L1655.424,1094.64 L1631.008,1094.64 L1631.008,1074.48 L1659.008,1074.48 Z M1698.544,1109.648 L1690.144,1109.648 L1690.144,1140 L1673.68,1140 L1673.68,1062.496 L1697.872,1062.496 C1718.592,1062.496 1729.12,1070 1729.12,1085.68 C1729.12,1095.984 1724.08,1102.144 1713.776,1106.624 L1733.824,1140 L1715.12,1140 L1698.544,1109.648 Z M1690.144,1098 L1698.768,1098 C1707.392,1098 1712.096,1094.416 1712.096,1085.68 C1712.096,1077.728 1707.504,1074.256 1697.536,1074.256 L1690.144,1074.256 L1690.144,1098 Z M1771.904,1060.704 C1793.184,1060.704 1806.288,1075.264 1806.288,1101.248 C1806.288,1126.672 1793.184,1141.792 1771.904,1141.792 C1750.624,1141.792 1737.408,1127.12 1737.408,1101.248 C1737.408,1075.936 1750.624,1060.704 1771.904,1060.704 Z M1771.904,1073.024 C1760.928,1073.024 1754.768,1080.976 1754.768,1101.248 C1754.768,1121.52 1761.152,1129.472 1771.904,1129.472 C1782.992,1129.472 1788.928,1121.52 1788.928,1101.248 C1788.928,1080.976 1782.992,1073.024 1771.904,1073.024 Z M1815.92,1098.672 L1815.92,1111.216 L1850.64,1111.216 L1850.64,1098.672 L1815.92,1098.672 Z M1896.448,1060.704 C1876.624,1060.704 1860.272,1074.928 1860.272,1101.136 C1860.272,1127.792 1872.256,1141.792 1894.656,1141.792 C1905.072,1141.792 1914.592,1138.768 1922.32,1133.952 L1922.32,1095.76 L1893.76,1095.76 L1895.44,1107.744 L1906.304,1107.744 L1906.304,1126.672 C1902.832,1128.576 1898.912,1129.472 1894.768,1129.472 C1883.344,1129.472 1877.52,1121.968 1877.52,1101.248 C1877.52,1081.088 1886.256,1072.912 1897.232,1072.912 C1903.616,1072.912 1907.984,1074.928 1913.024,1079.072 L1921.872,1070 C1915.376,1064.4 1907.536,1060.704 1896.448,1060.704 Z" id="ZERO-G"></path>
        </g>
    </g>
</svg>