<?xml version="1.0" encoding="UTF-8" standalone="no"?>
<!-- Created with Inkscape (http://www.inkscape.org/) -->

<svg
   xmlns:dc="http://purl.org/dc/elements/1.1/"
   xmlns:cc="http://creativecommons.org/ns#"
   xmlns:rdf="http://www.w3.org/1999/02/22-rdf-syntax-ns#"
   xmlns:svg="http://www.w3.org/2000/svg"
   xmlns="http://www.w3.org/2000/svg"
   xmlns:sodipodi="http://sodipodi.sourceforge.net/DTD/sodipodi-0.dtd"
   xmlns:inkscape="http://www.inkscape.org/namespaces/inkscape"
   width="225pt"
   height="225pt"
   viewBox="0 0 79.374998 79.374998"
   version="1.1"
   id="svg8"
   inkscape:version="0.92.2 (5c3e80d, 2017-08-06)"
   sodipodi:docname="clap-i.svg">
  <defs
     id="defs2" />
  <sodipodi:namedview
     id="base"
     pagecolor="#ffffff"
     bordercolor="#666666"
     borderopacity="1.0"
     inkscape:pageopacity="0.0"
     inkscape:pageshadow="2"
     inkscape:zoom="2.8"
     inkscape:cx="240.0566"
     inkscape:cy="147.59313"
     inkscape:document-units="mm"
     inkscape:current-layer="g3790"
     showgrid="false"
     inkscape:window-width="2560"
     inkscape:window-height="1377"
     inkscape:window-x="1912"
     inkscape:window-y="-8"
     inkscape:window-maximized="1"
     inkscape:pagecheckerboard="true"
     units="pt" />
  <metadata
     id="metadata5">
    <rdf:RDF>
      <cc:Work
         rdf:about="">
        <dc:format>image/svg+xml</dc:format>
        <dc:type
           rdf:resource="http://purl.org/dc/dcmitype/StillImage" />
        <dc:title></dc:title>
      </cc:Work>
    </rdf:RDF>
  </metadata>
  <g
     inkscape:label="Layer 1"
     inkscape:groupmode="layer"
     id="layer1"
     transform="translate(0,-217.62501)">
    <g
       id="g3790"
       transform="translate(-276.67857,-1.5119048)"
       style="fill:#000000">
      <path
         sodipodi:nodetypes="ccscccsccscssscscsscsccc"
         inkscape:connector-curvature="0"
         id="path3764"
         d="m 287.04656,288.04665 23.71378,9.0592 c 0,0 0.39967,-4.79605 4.5296,-6.92762 4.12992,-2.13158 7.40168,-15.99614 7.40168,-15.99614 l 2.5266,-9.92668 4.1934,-9.24819 c 0,0 -1.13082,-3.82467 -4.67519,-0.19524 -8.8408,9.05294 -3.51813,14.25651 -8.14833,14.16202 -3.77977,-0.75596 -0.13245,-10.86933 0.26722,-16.16497 0.26644,-3.06413 0.69941,-12.98928 0.29974,-18.85112 -0.39966,-5.86184 -0.93256,-6.66118 -2.66446,-6.52795 -1.73191,0.13322 -2.93093,0.93257 -4.39638,9.05919 -1.46546,8.12664 -3.33058,15.72038 -3.06414,18.91774 0.26644,3.19737 -4.36307,0.64443 -2.89762,-5.48385 1.46546,-6.12827 4.82299,-19.49577 4.95621,-21.36089 0.13322,-1.86512 -0.52548,-5.99423 -3.45641,-1.46464 -2.93091,4.52961 -8.39307,31.77464 -8.39307,31.77464 0,0 -4.61911,1.35544 4.75249,-29.62183 0.37058,-1.22492 -1.2231,-1.82036 -2.02245,-0.35491 -0.79933,1.46547 -2.93556,6.41177 -3.60169,9.47592 -0.66612,3.06413 -4.12526,18.76747 -5.99039,20.76582 -1.86514,1.99836 -0.77914,-1.64516 2.43172,-19.62594 -3.46015,-8.7099 -7.6029,16.6051 -8.29355,25.75422 -1.73191,11.05755 2.66446,14.65459 2.53124,22.78122 z"
         style="fill:#ffffff;stroke:#000000;stroke-width:0.09325644px;stroke-linecap:butt;stroke-linejoin:miter;stroke-opacity:1" />
      <path
         sodipodi:nodetypes="ccscsssccccccssc"
         inkscape:connector-curvature="0"
         id="path3766"
         d="m 326.28601,276.79194 4.85752,2.59518 c 0,0 5.99506,0.26645 7.86018,1.19902 1.86513,0.93256 14.52136,-19.31742 14.52136,-19.31742 0,0 -1.59867,-0.39967 -3.19735,-5.32893 -1.59868,-4.92926 -7.59374,-19.98353 -9.45888,-23.44734 -1.86513,-3.46381 -2.53124,-4.66283 -3.4638,-7.46051 -0.93257,-2.7977 -2.13159,-5.0625 -3.73027,-0.13323 -1.59868,4.92927 -1.66343,10.45537 -0.46441,13.91919 1.38613,5.18454 3.8952,15.07683 1.97631,17.7369 -3.13067,-0.0635 -4.1718,-8.94257 -4.84078,-11.98701 l -10.45574,-8.48036 -1.15458,18.13553 c 0,0 3.30736,-4.0697 9.65298,-5.19422 4.51067,-0.79933 2.81751,6.4678 1.21188,14.09965 -1.34794,6.40707 -3.31442,13.66355 -3.31442,13.66355 z"
         style="fill:#ffffff;stroke:#000000;stroke-width:0.09325644px;stroke-linecap:butt;stroke-linejoin:miter;stroke-opacity:1" />
      <path
         sodipodi:nodetypes="cccc"
         inkscape:connector-curvature="0"
         id="path3768"
         d="m 291.74698,236.36722 c 0,0 -1.36535,-0.56172 -0.0701,-3.22296 1.29528,-2.66125 3.72103,-1.62503 4.12138,-1.41306 -1.04349,0.50764 -3.37926,4.82292 -4.05132,4.63602 z"
         style="fill:#ffffff;stroke:#000000;stroke-width:0.09325644px;stroke-linecap:butt;stroke-linejoin:miter;stroke-opacity:1" />
      <path
         inkscape:connector-curvature="0"
         id="path3770"
         d="m 278.60514,277.01718 c 0,0 -0.98806,-8.05217 1.36702,-17.09567 5.11868,-12.29479 -7.76345,3.61446 -1.36702,17.09567 z"
         style="fill:#ffffff;stroke:#000000;stroke-width:0.09325644px;stroke-linecap:butt;stroke-linejoin:miter;stroke-opacity:1"
         sodipodi:nodetypes="ccc" />
      <path
         inkscape:connector-curvature="0"
         id="path3772"
         d="m 283.64252,261.72126 c 0,-0.0431 -1.44898,3.96362 -0.80247,9.53246 0.42679,3.67631 0.64575,8.36037 1.90705,11.72782 3.10143,7.14376 -8.41694,-7.43352 -1.10458,-21.26028 z"
         style="fill:#ffffff;stroke:#000000;stroke-width:0.11350404px;stroke-linecap:butt;stroke-linejoin:miter;stroke-opacity:1"
         sodipodi:nodetypes="cscc" />
      <path
         inkscape:connector-curvature="0"
         id="path3774"
         d="m 318.12446,294.21149 c 0,0 6.68844,-4.71017 9.13772,-13.37686 -5.91279,4.63412 -6.77642,9.57974 -9.13772,13.37686 z"
         style="fill:#ffffff;stroke:#000000;stroke-width:0.09325644px;stroke-linecap:butt;stroke-linejoin:miter;stroke-opacity:1"
         sodipodi:nodetypes="ccc" />
      <path
         inkscape:connector-curvature="0"
         id="path3778"
         d="m 344.21877,231.00112 c 0,0 1.60041,9.36884 7.07841,21.7522 5.35526,12.10587 4.05178,-4.80879 -7.07841,-21.7522 z"
         style="fill:#ffffff;stroke:#000000;stroke-width:0.09325644px;stroke-linecap:butt;stroke-linejoin:miter;stroke-opacity:1"
         sodipodi:nodetypes="csc" />
      <path
         inkscape:connector-curvature="0"
         id="path3780"
         d="m 349.44951,230.90023 c -0.11119,-0.0477 0.96041,8.99393 4.75948,15.37263 1.48524,4.17497 3.73499,-6.08181 -4.75948,-15.37263 z"
         style="fill:#ffffff;stroke:#000000;stroke-width:0.09325644px;stroke-linecap:butt;stroke-linejoin:miter;stroke-opacity:1"
         sodipodi:nodetypes="ccc" />
    </g>
  </g>
</svg>
