<?xml version="1.0" encoding="UTF-8" standalone="no"?>
<!-- Created with Inkscape (http://www.inkscape.org/) -->

<svg
   xmlns:dc="http://purl.org/dc/elements/1.1/"
   xmlns:cc="http://creativecommons.org/ns#"
   xmlns:rdf="http://www.w3.org/1999/02/22-rdf-syntax-ns#"
   xmlns:svg="http://www.w3.org/2000/svg"
   xmlns="http://www.w3.org/2000/svg"
   xmlns:sodipodi="http://sodipodi.sourceforge.net/DTD/sodipodi-0.dtd"
   xmlns:inkscape="http://www.inkscape.org/namespaces/inkscape"
   width="210mm"
   height="297mm"
   viewBox="0 0 210 297"
   version="1.1"
   id="svg8"
   inkscape:version="0.92.2 (5c3e80d, 2017-08-06)"
   sodipodi:docname="ClapWhite.svg">
  <defs
     id="defs2" />
  <sodipodi:namedview
     id="base"
     pagecolor="#ffffff"
     bordercolor="#666666"
     borderopacity="1.0"
     inkscape:pageopacity="0.0"
     inkscape:pageshadow="2"
     inkscape:zoom="0.7"
     inkscape:cx="-2033.1122"
     inkscape:cy="1644.4317"
     inkscape:document-units="mm"
     inkscape:current-layer="layer1"
     showgrid="false"
     inkscape:window-width="2560"
     inkscape:window-height="1377"
     inkscape:window-x="1912"
     inkscape:window-y="-8"
     inkscape:window-maximized="1" />
  <metadata
     id="metadata5">
    <rdf:RDF>
      <cc:Work
         rdf:about="">
        <dc:format>image/svg+xml</dc:format>
        <dc:type
           rdf:resource="http://purl.org/dc/dcmitype/StillImage" />
        <dc:title></dc:title>
      </cc:Work>
    </rdf:RDF>
  </metadata>
  <g
     inkscape:label="Layer 1"
     inkscape:groupmode="layer"
     id="layer1">
    <g
       id="g3790"
       transform="translate(-276.67857,-1.5119048)"
       style="fill:#ffffff;opacity:1;stroke:none">
      <path
         sodipodi:nodetypes="ccscccsccscssscscsscsccc"
         inkscape:connector-curvature="0"
         id="path3764"
         d="m -284.61607,-7.2708335 67.27976,25.7023805 c 0,0 1.13393,-13.6071425 12.85119,-19.6547614 11.71726,-6.0476191 27.97024,-49.1369046 27.97024,-49.1369046 l 5.29167,-24.946427 6.80357,-25.702384 c 0,0 2.12085,-16.96991 -10.58333,-10.20535 -29.10417,15.497021 -24.19048,48.758924 -24.19048,48.758924 0,0 -1.98438,-29.765625 -0.85044,-44.790184 0.75595,-8.69345 1.98437,-36.85267 0.85044,-53.48363 -1.13393,-16.63095 -2.64583,-18.8988 -7.55952,-18.52083 -4.91369,0.37798 -8.31548,2.64583 -12.47322,25.70238 -4.15773,23.05655 -9.4494,44.60119 -8.69345,53.67262 0.75595,9.07143 -5.29167,0.755954 -1.13393,-16.63095 4.15774,-17.3869 12.47322,-54.05059 12.85119,-59.34226 0.37798,-5.29167 -8.31547,-17.76488 -16.63095,-4.91369 -8.31548,12.85119 -23.8125,89.391366 -23.8125,89.391366 0,0 1.97651,-26.642916 19.46577,-82.682286 1.0817,-3.466 -8.50446,-5.19718 -10.77232,-1.03944 -2.26786,4.15774 -10.20535,17.38691 -12.09524,26.08036 -1.88988,8.69345 -9.82738,54.050591 -15.11904,59.720233 -5.29167,5.669645 4.49743,-7.099475 13.60714,-58.113833 -9.817,-24.71133 -28.27858,49.543233 -30.23808,75.500739 -4.9137,31.372023 7.55951,41.577381 7.18153,64.6339275 z"
         style="fill:#ffffff;stroke:none;stroke-width:0.26458332px;stroke-linecap:butt;stroke-linejoin:miter;stroke-opacity:1" />
      <path
         sodipodi:nodetypes="ccscssscscccccssc"
         inkscape:connector-curvature="0"
         id="path3766"
         d="m -178.02678,-41.666667 18.52083,9.827381 c 0,0 17.00893,0.755952 22.30059,3.401785 5.29167,2.645834 41.19941,-54.806545 41.19941,-54.806545 0,0 -4.53572,-1.13393 -9.07143,-15.119048 -4.53571,-13.985116 -21.54464,-56.696426 -26.83631,-66.523806 -5.29167,-9.82738 -7.18155,-13.22917 -9.82738,-21.16667 -2.64583,-7.9375 -6.04762,-14.3631 -10.58333,-0.37797 -4.53572,13.98511 -6.4256,32.12797 -3.02381,41.95535 3.40178,9.82738 4.53571,7.9375 3.02381,17.00893 -1.51191,9.07143 -2.64584,28.348214 0,33.261905 2.64583,4.913688 -4.34848,-6.617405 -3.02381,-32.505955 l -41.57738,-26.08036 -2.09231,69.82276 c 0,0 10.27982,-27.83049 28.28337,-31.02091 12.79747,-2.26785 6.6667,13.23175 2.11129,34.884518 -3.82434,18.177888 -9.40354,37.438635 -9.40354,37.438635 z"
         style="fill:#ffffff;stroke:none;stroke-width:0.26458332px;stroke-linecap:butt;stroke-linejoin:miter;stroke-opacity:1" />
      <path
         sodipodi:nodetypes="csccccc"
         inkscape:connector-curvature="0"
         id="path3768"
         d="m -255.2424,-164.77493 c 0,0 -5.17771,7.37883 -4.94448,12.62849 0.13926,3.13454 -1.06908,-4.6104 -4.94448,-2.53906 -3.87541,2.07134 -5.61266,4.00904 -5.61266,4.00904 0,0 -4.40994,-4.81085 -0.73499,-12.36121 3.67493,-7.55037 10.55714,-4.6104 11.69303,-4.00904 1.1359,0.60135 2.73952,1.9377 4.54358,2.27178 z"
         style="fill:#ffffff;stroke:none;stroke-width:0.26458332px;stroke-linecap:butt;stroke-linejoin:miter;stroke-opacity:1" />
      <path
         inkscape:connector-curvature="0"
         id="path3770"
         d="m -306.29087,-42.165031 c 0,0 -5.07812,-19.243405 1.60361,-44.901278 6.68174,-25.657881 -14.96708,16.83798 -1.60361,44.901278 z"
         style="fill:#ffffff;stroke:none;stroke-width:0.26458332px;stroke-linecap:butt;stroke-linejoin:miter;stroke-opacity:1" />
      <path
         inkscape:connector-curvature="0"
         id="path3772"
         d="m -297.47099,-77.979147 c 0,0 -5.87991,31.537803 1.60362,48.375783 7.48355,16.837982 -14.43255,-11.759858 -1.60362,-48.375783 z"
         style="fill:#ffffff;stroke:none;stroke-width:0.26458332px;stroke-linecap:butt;stroke-linejoin:miter;stroke-opacity:1" />
      <path
         inkscape:connector-curvature="0"
         id="path3774"
         d="m -196.4431,10.219797 c 0,0 18.97614,-13.3634764 25.92514,-37.952273 -5.61266,22.7179099 -15.23436,30.2014566 -25.92514,37.952273 z"
         style="fill:#ffffff;stroke:none;stroke-width:0.26458332px;stroke-linecap:butt;stroke-linejoin:miter;stroke-opacity:1" />
      <path
         inkscape:connector-curvature="0"
         id="path3778"
         d="m -122.40944,-169.11805 c 0,0 14.96709,27.52876 25.390604,63.61014 10.423511,36.08139 1.069078,-20.84702 -25.390604,-63.61014 z"
         style="fill:#ffffff;stroke:none;stroke-width:0.26458332px;stroke-linecap:butt;stroke-linejoin:miter;stroke-opacity:1" />
      <path
         inkscape:connector-curvature="0"
         id="path3780"
         d="m -109.84778,-163.23813 c 0,0 15.501638,25.65788 17.105256,39.82316 1.603616,14.16529 5.078121,-11.75985 -17.105256,-39.82316 z"
         style="fill:#ffffff;stroke:none;stroke-width:0.26458332px;stroke-linecap:butt;stroke-linejoin:miter;stroke-opacity:1" />
    </g>
  </g>
</svg>
