<svg xmlns:dc="http://purl.org/dc/elements/1.1/" xmlns:cc="http://creativecommons.org/ns#" xmlns:rdf="http://www.w3.org/1999/02/22-rdf-syntax-ns#" xmlns:svg="http://www.w3.org/2000/svg" xmlns="http://www.w3.org/2000/svg" xmlns:sodipodi="http://sodipodi.sourceforge.net/DTD/sodipodi-0.dtd" xmlns:inkscape="http://www.inkscape.org/namespaces/inkscape" preserveAspectRatio="xMidYMid" viewBox="0 0 63 78.75" version="1.1" x="0px" y="0px"><defs><style>

      .cls-3 {
        fill: #000000;
      }
    </style></defs><path style="" d="M 31.160156 0.01171875 C 13.985156 0.01171875 0.013671875 13.987016 0.013671875 31.166016 C 0.013671875 48.344016 13.985156 62.320312 31.160156 62.320312 C 48.334156 62.320312 62.306641 48.344016 62.306641 31.166016 C 62.306641 13.987016 48.334156 0.01171875 31.160156 0.01171875 z M 31.160156 3.0117188 C 46.681156 3.0117188 59.306641 15.642016 59.306641 31.166016 C 59.306641 46.690016 46.681156 59.320312 31.160156 59.320312 C 15.640156 59.320312 3.0136719 46.690016 3.0136719 31.166016 C 3.0136719 15.642016 15.640156 3.0117187 31.160156 3.0117188 z M 21.660156 18.306641 C 19.951281 18.286766 18.248188 18.902203 16.992188 20.158203 C 16.406188 20.744203 16.406188 21.69525 16.992188 22.28125 C 17.578187 22.86725 18.527281 22.86725 19.113281 22.28125 C 20.477281 20.91825 22.826047 20.969625 24.248047 22.390625 C 24.541047 22.683625 24.926547 22.830078 25.310547 22.830078 C 25.693547 22.830078 26.076141 22.683625 26.369141 22.390625 C 26.955141 21.805625 26.955141 20.854531 26.369141 20.269531 C 25.083641 18.983031 23.369031 18.326516 21.660156 18.306641 z M 42.0625 18.306641 C 40.353625 18.286766 38.652484 18.902203 37.396484 20.158203 C 36.811484 20.744203 36.811484 21.69525 37.396484 22.28125 C 37.982484 22.86725 38.932578 22.86725 39.517578 22.28125 C 40.881578 20.91825 43.230344 20.969625 44.652344 22.390625 C 44.945344 22.683625 45.330844 22.830078 45.714844 22.830078 C 46.098844 22.830078 46.480438 22.683625 46.773438 22.390625 C 47.359438 21.805625 47.359437 20.854531 46.773438 20.269531 C 45.487938 18.983031 43.771375 18.326516 42.0625 18.306641 z M 18.857422 34.193359 C 18.029422 34.193359 17.357422 34.865359 17.357422 35.693359 C 17.357422 42.478359 22.758344 47.792969 29.652344 47.792969 L 35.052734 47.792969 C 41.946734 47.792969 47.347656 42.566531 47.347656 35.894531 C 47.347656 35.065531 46.675656 34.394531 45.847656 34.394531 C 45.018656 34.394531 44.347656 35.065531 44.347656 35.894531 C 44.347656 40.883531 40.265734 44.791016 35.052734 44.791016 L 29.652344 44.791016 C 24.439344 44.791016 20.357422 40.795359 20.357422 35.693359 C 20.357422 34.865359 19.685422 34.193359 18.857422 34.193359 z " fill="#000000" fill-rule="evenodd"/><text x="0" y="78" fill="#000000" font-size="5px" font-weight="bold" font-family="'Helvetica Neue', Helvetica, Arial-Unicode, Arial, Sans-serif">Created by Shital Patel</text><text x="0" y="83" fill="#000000" font-size="5px" font-weight="bold" font-family="'Helvetica Neue', Helvetica, Arial-Unicode, Arial, Sans-serif">from the Noun Project</text></svg>