<?xml version="1.0" encoding="utf-8"?>
<!-- Generator: Adobe Illustrator 22.0.1, SVG Export Plug-In . SVG Version: 6.00 Build 0)  -->
<svg version="1.1" id="Layer_1" xmlns="http://www.w3.org/2000/svg" xmlns:xlink="http://www.w3.org/1999/xlink" x="0px" y="0px"
	 viewBox="0 0 512 512" style="enable-background:new 0 0 512 512;" xml:space="preserve">
<style type="text/css">
	.st0{fill:#1398BB;}
</style>
<path class="st0" d="M256.8,42C138.5,42,42.2,138.3,42.2,256.6s96.3,214.6,214.6,214.6c118.3,0,214.6-96.3,214.6-214.6
	S375.1,42,256.8,42z M256.8,444.4C153.2,444.4,69,360.1,69,256.6C69,153,153.2,68.7,256.8,68.7c103.6,0,187.8,84.3,187.8,187.8
	C444.6,360.1,360.4,444.4,256.8,444.4z"/>
<circle class="st0" cx="260.6" cy="189.4" r="60.6"/>
<path class="st0" d="M306.4,282.6h-87.6c-36.5,0-66.4,30.2-66.4,66.7v33.9c29.3,22.6,65.4,36.1,105,36.1c44.4,0,84.7-17,115.2-44.7
	v-25.3C372.7,312.7,342.9,282.6,306.4,282.6z"/>
</svg>
