<?xml version="1.0" encoding="utf-8"?>
<!-- Generator: Adobe Illustrator 22.0.1, SVG Export Plug-In . SVG Version: 6.00 Build 0)  -->
<svg version="1.1" id="Layer_1" xmlns="http://www.w3.org/2000/svg" xmlns:xlink="http://www.w3.org/1999/xlink" x="0px" y="0px"
	 viewBox="0 0 512 512" style="enable-background:new 0 0 512 512;" xml:space="preserve">
<style type="text/css">
	.st0{fill:#1398BB;}
</style>
<path class="st0" d="M144.3,155c-8.7-8.8-16.7-17.1-25.2-25.7c-22.4,25.4-36.6,53.9-43.6,86.2c-26.9,125.7,81.2,241.5,208.6,223.4
	C385.9,424.4,458,329.2,443.5,228.2c-4.4-30.6-15.4-58.9-34.1-83.9c-1.6-2.2-3.3-4.3-4.7-6.6c-4.4-7.4-3.1-14.9,3-19.5
	c6-4.5,14.2-3.6,19.2,3.5c8.2,11.7,16.6,23.4,22.9,36.1c41.9,84.9,25.7,181.7-41,248.7c-67,67.4-175.1,81.3-257.1,33.3
	c-35.3-20.7-63.1-48.6-82.7-84.5c-41-75-31.5-172.5,23.4-237.9c2.2-2.7,4.4-5.4,7.1-8.7c-8.1-8.5-16.1-16.9-24-25.3
	c-7.2-7.7-7.9-16.1-1.9-22.1c5.9-5.9,15-5.1,22.1,2.4c56.8,59.5,113.6,119,170.4,178.6c7.2,7.6,7.8,15.4,1.9,21.4
	c-6.1,6.2-14.7,5.5-22-2c-10.2-10.4-20.2-21-30.3-31.5c-17.4,24.7-3.3,62,27.2,72.5c23,7.9,48.8-2,60.7-23.1
	c1.2-2.1,2.3-4.3,3.7-6.3c4.5-6.6,11.7-8.6,18.3-5c6.6,3.5,8.9,10.5,5.9,18.1c-12.4,31.6-47.9,52.2-82.3,47.7
	c-36.1-4.8-64.3-32.6-68.4-67.7c-2.4-20.7,2.4-39.7,14.9-57.5c-10.4-10.9-20.8-21.6-31.7-33c-9.7,10.8-16.2,22.7-20.9,35.7
	c-31.3,86.4,38.9,175.1,130.1,164.3c74-8.7,122.3-80.9,103.3-154.3c-3.4-13.1-1-20.2,7.8-22.7c9.5-2.8,15.2,1.8,19.2,15.4
	c20.1,67.4-16,144.8-79.8,175.3c-67.5,32.2-147.5,9.7-188.8-49c-37.8-53.8-36.1-127.7,4.7-179.1C141.2,159.4,142.5,157.4,144.3,155z
	"/>
<path class="st0" d="M236.2,262.2c-4.2-13.6,3.4-28.2,16.8-32.4c13.5-4.2,28.1,3.3,32.5,16.8c4.5,13.9-3.1,28.4-17.2,32.7
	C254.6,283.5,240.4,275.9,236.2,262.2z"/>
<path class="st0" d="M319.6,101.9c-3.7-11,1.8-22.3,12.7-26c11.3-3.9,22.8,1.9,26.4,13.2c3.5,11-2.3,22.2-13.2,25.8
	C334.5,118.5,323.3,112.9,319.6,101.9z"/>
<path class="st0" d="M214.9,66.2c3.2,10.2-2.2,20.5-12.5,23.6c-9.8,3-20-2.3-23.3-12c-3.3-9.9,2.2-20.8,12-24
	C201.1,50.5,211.8,56.2,214.9,66.2z"/>
<path class="st0" d="M230.8,164.6c-3.7-11,1.8-22.3,12.7-26c11.3-3.9,22.8,1.9,26.4,13.2c3.5,11-2.3,22.2-13.2,25.8
	C245.7,181.2,234.5,175.6,230.8,164.6z"/>
</svg>
