<?xml version="1.0" encoding="utf-8"?>
<!-- Generator: Adobe Illustrator 19.2.0, SVG Export Plug-In . SVG Version: 6.00 Build 0)  -->
<svg version="1.1" id="Layer_1" xmlns="http://www.w3.org/2000/svg" xmlns:xlink="http://www.w3.org/1999/xlink" x="0px" y="0px"
	 viewBox="0 0 50 50" style="enable-background:new 0 0 50 50;" xml:space="preserve">
<style type="text/css">
	.st0{opacity:0.9;}
	.st1{fill:#1E1E1E;}
	.st2{fill:#EAEAEA;}
</style>
<g>
	<g class="st0">
		<path class="st1" d="M50,46c0,2.2-1.8,4-4,4H4c-2.2,0-4-1.8-4-4V4c0-2.2,1.8-4,4-4h42c2.2,0,4,1.8,4,4V46z"/>
	</g>
</g>
<path class="st2" d="M36.5,9.8l-5.9-3.4c-0.3-0.2-0.7-0.2-1,0l-5.3,3.1l-5.5-3.2c-0.3-0.2-0.7-0.2-1,0L12,9.7
	c-0.3,0.2-0.5,0.5-0.5,0.8v6.8c0,0.3,0.2,0.7,0.5,0.8l5.4,3.1v6.2c0,0.3,0.2,0.7,0.5,0.8l5.9,3.4c0.2,0.1,0.3,0.1,0.5,0.1
	s0.3,0,0.5-0.1l5.9-3.4c0.3-0.2,0.5-0.5,0.5-0.8v-6.1l5.4-3.1c0.3-0.2,0.5-0.5,0.5-0.8v-6.8C37,10.3,36.8,10,36.5,9.8z M35.1,15.9
	L31,13.5V8.8l4.1,2.4V15.9z M30.3,19.7l-5-2.9v-5.6l4.1-2.4v4.7l-2,1.2c-0.4,0.2-0.5,0.7-0.3,1.1c0.2,0.3,0.4,0.4,0.7,0.4
	c0.1,0,0.3,0,0.4-0.1l2-1.2l4.1,2.4L30.3,19.7z M25.1,23.6V19l4.1,2.4V26L25.1,23.6z M23.3,15.8l-4.1-2.4V8.7l4.1,2.4V15.8z
	 M13.4,11.1l4.1-2.4v4.7l-2.2,1.3c-0.4,0.2-0.5,0.7-0.3,1.1c0.2,0.3,0.4,0.4,0.7,0.4c0.1,0,0.3,0,0.4-0.1l2.2-1.3l4.1,2.4l-4.1,2.4
	l-4.9-2.8L13.4,11.1L13.4,11.1z M24.3,29.8L19.4,27v-5.6l4.1-2.4v4.7l-2,1.1c-0.4,0.2-0.5,0.7-0.3,1.1c0.2,0.3,0.4,0.4,0.7,0.4
	c0.1,0,0.3,0,0.4-0.1l2-1.1l4.1,2.4L24.3,29.8z"/>
<g>
	<path class="st2" d="M10.9,35.6l1.7,4.8l1.7-4.8h1.3L13.1,42h-1l-2.5-6.4H10.9z"/>
	<path class="st2" d="M19,42c-0.5,0-0.9-0.1-1.2-0.3s-0.7-0.4-1-0.7c-0.3-0.3-0.5-0.6-0.6-1S16,39.2,16,38.8c0-0.4,0.1-0.8,0.2-1.2
		s0.4-0.7,0.6-1c0.3-0.3,0.6-0.5,1-0.7s0.8-0.3,1.2-0.3c0.5,0,0.9,0.1,1.2,0.3s0.7,0.4,1,0.7c0.3,0.3,0.5,0.7,0.6,1
		c0.1,0.4,0.2,0.8,0.2,1.2c0,0.4-0.1,0.8-0.2,1.2c-0.2,0.4-0.4,0.7-0.6,1c-0.3,0.3-0.6,0.5-1,0.7C19.8,41.9,19.4,42,19,42z
		 M17.2,38.8c0,0.3,0,0.5,0.1,0.8s0.2,0.5,0.4,0.7c0.2,0.2,0.3,0.4,0.6,0.5s0.5,0.2,0.8,0.2s0.5-0.1,0.8-0.2s0.4-0.3,0.6-0.5
		c0.1-0.2,0.3-0.4,0.3-0.7s0.1-0.5,0.1-0.8s0-0.5-0.1-0.8s-0.2-0.5-0.4-0.7c-0.2-0.2-0.3-0.4-0.6-0.5c-0.2-0.1-0.5-0.2-0.7-0.2
		c-0.3,0-0.5,0.1-0.8,0.2s-0.4,0.3-0.6,0.5s-0.3,0.4-0.3,0.7C17.2,38.2,17.2,38.5,17.2,38.8z"/>
	<path class="st2" d="M23.6,35.6l1.6,2.4l1.6-2.4h1.3l-2.3,3.2l2.2,3.1h-1.3l-1.5-2.2L23.7,42h-1.3l2.2-3.1l-2.3-3.2h1.3V35.6z"/>
	<path class="st2" d="M33.4,40.9V42H29v-6.4h4.4v1.1h-3.1v1.5H33v1h-2.7v1.7H33.4z"/>
	<path class="st2" d="M34.6,42v-6.4h1.2v5.3h3.3V42H34.6z"/>
</g>
</svg>
