<svg width="553" height="553" viewBox="0 0 553 553" fill="none" xmlns="http://www.w3.org/2000/svg">
<circle cx="276.5" cy="276.5" r="276.5" fill="white"/>
<path d="M292.112 239.537V388.865C292.957 396.799 291.001 404.778 286.583 411.421C282.164 418.064 275.561 422.953 267.916 425.243C263.762 426.761 259.413 427.679 255 427.971C249.454 428.205 243.94 427.025 238.976 424.544C234.011 422.062 229.759 418.359 226.619 413.784C220.979 408.145 212.61 399.415 201.695 387.592C190.779 375.77 182.593 367.039 176.953 361.219C175.486 359.629 173.471 358.654 171.313 358.491H155.304C148.119 358.643 140.935 358.156 133.836 357.035C125.817 355.846 118.507 351.771 113.279 345.577C107.506 339.98 104.172 332.334 104 324.296V220.621C103.989 215.99 105.012 211.415 106.995 207.23C108.978 203.045 111.87 199.355 115.462 196.43C122.88 189.865 132.48 186.298 142.387 186.426H170.949L172.223 185.153C173.774 184.335 175.237 183.36 176.589 182.243C188.778 169.875 205.515 152.414 226.255 129.678C231.222 123.895 237.881 119.818 245.292 118.023C252.702 116.228 260.489 116.806 267.553 119.674C275.013 121.964 281.472 126.722 285.869 133.168C290.266 139.613 292.34 147.362 291.749 155.142L292.112 239.537ZM240.809 169.875L196.783 218.257C195.369 219.895 193.644 221.237 191.708 222.205C189.772 223.173 187.663 223.747 185.504 223.895H142.751V319.203H186.777C189.465 319.135 192.074 320.113 194.054 321.931C199.375 328.283 205.022 334.354 210.973 340.12C218.614 347.759 224.254 353.761 228.074 358.309L240.809 371.223C243.866 375.22 247.21 378.989 250.815 382.499L252.27 383.955V158.598L240.809 169.875ZM452.572 218.257C451.101 216.263 449.182 214.643 446.97 213.527C444.758 212.411 442.315 211.829 439.837 211.829C437.36 211.829 434.916 212.411 432.704 213.527C430.492 214.643 428.574 216.263 427.102 218.257L345.963 299.196C344 300.708 342.41 302.65 341.317 304.874C340.223 307.097 339.654 309.541 339.654 312.019C339.654 314.496 340.223 316.941 341.317 319.164C342.41 321.387 344 323.33 345.963 324.842C347.454 326.836 349.389 328.456 351.616 329.572C353.842 330.687 356.298 331.268 358.789 331.268C361.279 331.268 363.735 330.687 365.962 329.572C368.188 328.456 370.124 326.836 371.615 324.842L452.572 243.903C454.567 242.412 456.187 240.477 457.303 238.251C458.419 236.025 459 233.569 459 231.08C459 228.59 458.419 226.134 457.303 223.908C456.187 221.682 454.567 219.747 452.572 218.257V218.257ZM452.572 324.842C454.567 323.351 456.187 321.416 457.303 319.19C458.419 316.964 459 314.509 459 312.019C459 309.529 458.419 307.073 457.303 304.847C456.187 302.621 454.567 300.686 452.572 299.196L371.615 218.257C370.124 216.262 368.188 214.642 365.962 213.526C363.735 212.411 361.279 211.83 358.789 211.83C356.298 211.83 353.842 212.411 351.616 213.526C349.389 214.642 347.454 216.262 345.963 218.257C344 219.769 342.41 221.711 341.317 223.934C340.223 226.157 339.654 228.602 339.654 231.08C339.654 233.557 340.223 236.002 341.317 238.225C342.41 240.448 344 242.39 345.963 243.903L427.102 324.842C428.574 326.835 430.492 328.455 432.704 329.571C434.916 330.688 437.36 331.269 439.837 331.269C442.315 331.269 444.758 330.688 446.97 329.571C449.182 328.455 451.101 326.835 452.572 324.842V324.842Z" fill="#B20012"/>
</svg>
