<?xml version="1.0" encoding="utf-8"?>
<!-- Generator: Adobe Illustrator 13.0.0, SVG Export Plug-In . SVG Version: 6.00 Build 14948)  -->
<!DOCTYPE svg PUBLIC "-//W3C//DTD SVG 1.1//EN" "http://www.w3.org/Graphics/SVG/1.1/DTD/svg11.dtd">
<svg version="1.1" id="Layer_1" xmlns="http://www.w3.org/2000/svg" xmlns:xlink="http://www.w3.org/1999/xlink" x="0px" y="0px"
	 width="134.568px" height="140.646px" viewBox="0 0 134.568 140.646" enable-background="new 0 0 134.568 140.646"
	 xml:space="preserve">
<path fill="#010101" d="M67.284,140.647C30.188,140.647,0,110.463,0,73.363C0,36.258,30.188,6.079,67.284,6.079
	c37.1,0,67.285,30.18,67.285,67.283C134.569,110.463,104.384,140.647,67.284,140.647 M67.284,14.462
	c-32.478,0-58.9,26.419-58.9,58.9c0,32.476,26.423,58.9,58.9,58.9c32.481,0,58.897-26.426,58.897-58.9
	C126.182,40.881,99.766,14.462,67.284,14.462"/>
<path fill="#010101" d="M105.973,50.304l-0.532-0.528c-1.063-1.058-2.569-1.548-4.048-1.338c-0.245,0.031-24.297,3.485-34.249,3.642
	c-0.185,0.008-0.379,0.008-0.573,0.008c-10.22,0-34.807-3.967-35.062-4.006c-1.926-0.312-3.85,0.575-4.859,2.244l-0.605,1.001
	c-0.718,1.187-0.884,2.623-0.465,3.943c0.419,1.319,1.396,2.391,2.67,2.941c4.482,1.925,19.437,8.244,23.814,8.791
	c0.761,0.088,2.169,0.267,2.398,2.907c0.271,3.119-1.086,18.442-2.911,25.724c-1.778,7.119-4.999,16.348-5.027,16.44
	c-0.874,2.487,0.436,5.214,2.923,6.095l2.966,1.059c1.223,0.427,2.562,0.351,3.723-0.221c1.159-0.57,2.037-1.587,2.441-2.811
	l8.37-25.782l7.855,26.458c0.386,1.285,1.285,2.354,2.496,2.941c0.655,0.317,1.378,0.485,2.099,0.485
	c0.591,0,1.189-0.109,1.752-0.334l2.744-1.071c2.225-0.873,3.474-3.252,2.91-5.577c-0.019-0.098-2.312-9.656-4.319-17.684
	c-1.199-4.797-1.656-11.97-2.025-17.733c-0.226-3.526-0.423-6.569-0.745-8.898c-0.062-0.426-0.198-1.437,1.716-1.878
	c0.337-0.056,0.527-0.12,0.861-0.252l22.079-8.705c1.503-0.59,2.608-1.905,2.931-3.493
	C107.626,53.083,107.128,51.442,105.973,50.304"/>
<path fill="#010101" d="M79.01,35.529c0-6.467-5.244-11.707-11.71-11.707c-6.469,0-11.713,5.24-11.713,11.707
	S60.832,47.241,67.3,47.241C73.766,47.241,79.01,41.995,79.01,35.529"/>
<path fill="#54C9EF" d="M67.284,134.57C30.188,134.57,0,104.389,0,67.284C0,30.184,30.188,0,67.284,0
	c37.1,0,67.285,30.184,67.285,67.284C134.569,104.389,104.384,134.57,67.284,134.57 M67.284,8.384c-32.478,0-58.9,26.423-58.9,58.9
	c0,32.474,26.423,58.896,58.9,58.896c32.481,0,58.897-26.423,58.897-58.896C126.182,34.807,99.766,8.384,67.284,8.384"/>
<path fill="#54C9EF" d="M105.973,44.227l-0.532-0.527c-1.063-1.056-2.569-1.548-4.048-1.34c-0.245,0.031-24.297,3.485-34.249,3.646
	c-0.185,0.003-0.379,0.003-0.573,0.003c-10.22,0-34.807-3.966-35.062-4.005c-1.926-0.312-3.85,0.578-4.859,2.243l-0.605,1.002
	c-0.718,1.188-0.884,2.623-0.465,3.941c0.419,1.319,1.396,2.393,2.67,2.942c4.482,1.925,19.437,8.245,23.814,8.795
	c0.761,0.085,2.169,0.264,2.398,2.903c0.271,3.122-1.086,18.447-2.911,25.726c-1.778,7.118-4.999,16.348-5.027,16.44
	c-0.874,2.487,0.436,5.212,2.923,6.093l2.966,1.061c1.223,0.431,2.562,0.351,3.723-0.221c1.159-0.57,2.037-1.589,2.441-2.812
	l8.37-25.781l7.855,26.457c0.386,1.285,1.285,2.355,2.496,2.94c0.655,0.319,1.378,0.485,2.099,0.485
	c0.591,0,1.189-0.107,1.752-0.333l2.744-1.072c2.225-0.873,3.474-3.252,2.91-5.575c-0.019-0.098-2.312-9.656-4.319-17.684
	c-1.199-4.797-1.656-11.97-2.025-17.729c-0.226-3.525-0.423-6.575-0.745-8.901c-0.062-0.431-0.198-1.439,1.716-1.882
	c0.337-0.05,0.527-0.117,0.861-0.252l22.079-8.705c1.503-0.59,2.608-1.907,2.931-3.493
	C107.626,47.005,107.128,45.367,105.973,44.227"/>
<path fill="#54C9EF" d="M79.01,29.45c0-6.467-5.244-11.708-11.71-11.708c-6.469,0-11.713,5.242-11.713,11.708
	S60.832,41.164,67.3,41.164C73.766,41.164,79.01,35.917,79.01,29.45"/>
</svg>
