<?xml version="1.0" encoding="utf-8"?>
<!-- Generator: Adobe Illustrator 22.0.1, SVG Export Plug-In . SVG Version: 6.00 Build 0)  -->
<svg version="1.1" id="Layer_1" xmlns="http://www.w3.org/2000/svg" xmlns:xlink="http://www.w3.org/1999/xlink" x="0px" y="0px"
	 viewBox="0 0 50 50" style="enable-background:new 0 0 50 50;" xml:space="preserve">
<style type="text/css">
	.st0{opacity:0.85;fill:#FFFFFF;}
</style>
<g id="Layer_2_1_">
</g>
<path class="st0" d="M44.2,21.8H13.6L26.3,8.9c1.2-1.3,1.2-3.3,0-4.5s-3.3-1.2-4.5,0L3.5,22.8c-0.6,0.6-0.9,1.4-0.9,2.3v0.1
	c0,0.9,0.3,1.7,1,2.3L22,45.7c0.6,0.6,1.4,0.9,2.3,0.9c0.8,0,1.7-0.3,2.3-1c1.2-1.3,1.2-3.3,0-4.5L13.4,28.2h30.8
	c1.8,0,3.2-1.4,3.2-3.2S46,21.8,44.2,21.8z"/>
</svg>
