<?xml version="1.0" encoding="UTF-8" standalone="no"?>
<!-- Generator: Adobe Illustrator 19.2.0, SVG Export Plug-In . SVG Version: 6.00 Build 0)  -->

<svg
   xmlns:dc="http://purl.org/dc/elements/1.1/"
   xmlns:cc="http://creativecommons.org/ns#"
   xmlns:rdf="http://www.w3.org/1999/02/22-rdf-syntax-ns#"
   xmlns:svg="http://www.w3.org/2000/svg"
   xmlns="http://www.w3.org/2000/svg"
   xmlns:sodipodi="http://sodipodi.sourceforge.net/DTD/sodipodi-0.dtd"
   xmlns:inkscape="http://www.inkscape.org/namespaces/inkscape"
   version="1.1"
   x="0px"
   y="0px"
   viewBox="0 0 150 450"
   xml:space="preserve"
   id="svg2"
   inkscape:version="0.91 r13725"
   sodipodi:docname="backward.svg"
   width="150"
   height="450"><metadata
     id="metadata20"><rdf:RDF><cc:Work
         rdf:about=""><dc:format>image/svg+xml</dc:format><dc:type
           rdf:resource="http://purl.org/dc/dcmitype/StillImage" /><dc:title></dc:title></cc:Work></rdf:RDF></metadata><defs
     id="defs18" /><sodipodi:namedview
     pagecolor="#ffffff"
     bordercolor="#666666"
     borderopacity="1"
     objecttolerance="10"
     gridtolerance="10"
     guidetolerance="10"
     inkscape:pageopacity="0"
     inkscape:pageshadow="2"
     inkscape:window-width="1920"
     inkscape:window-height="971"
     id="namedview16"
     showgrid="false"
     inkscape:zoom="1.1125147"
     inkscape:cx="12.362631"
     inkscape:cy="233.34206"
     inkscape:window-x="0"
     inkscape:window-y="1"
     inkscape:window-maximized="1"
     inkscape:current-layer="Layer_1" /><style
     type="text/css"
     id="style4">
	.st0{fill:#414042;}
	.st1{fill:#CCCCCC;}
	.st2{fill:#1398BB;}
	.st3{fill:#31D8FF;}
</style><g
     id="Layer_1"
     transform="translate(0,300)"><path
       id="path4148"
       d="M 103.51176,131.14554 61.96248,89.596247 58.602209,86.235997 61.96248,82.875716 104.41995,40.41826 c 2.67913,-2.679128 2.67913,-7.083865 0,-9.762962 -1.31687,-1.316854 -3.04241,-2.043396 -4.90418,-2.043396 -1.86178,0 -3.587322,0.726542 -4.904182,2.043396 L 39.030908,86.235997 93.70341,140.9085 c 1.31686,1.31689 3.042403,2.04343 4.904176,2.04343 1.861774,0 3.587314,-0.72654 4.904174,-2.04343 2.67914,-2.67913 2.67914,-7.0838 0,-9.76296 z"
       class="st0"
       inkscape:connector-curvature="0"
       style="fill:#54c9ef;fill-opacity:1" /><path
       style="fill:#54c9ef;fill-opacity:1"
       inkscape:connector-curvature="0"
       class="st0"
       d="m 103.51176,-28.954508 -41.54928,-41.549293 -3.360271,-3.36025 3.360271,-3.360281 42.45747,-42.457458 c 2.67913,-2.67913 2.67913,-7.08386 0,-9.76296 -1.31687,-1.31685 -3.04241,-2.0434 -4.90418,-2.0434 -1.86178,0 -3.587322,0.72655 -4.904182,2.0434 l -55.58068,55.580699 54.672502,54.672505 c 1.31686,1.316886 3.042403,2.043428 4.904176,2.043428 1.861774,0 3.587314,-0.726542 4.904174,-2.043428 2.67914,-2.679128 2.67914,-7.083802 0,-9.762962 z"
       id="path4158" /><path
       id="path4169"
       d="m 103.51176,-188.41523 -41.54928,-41.54929 -3.360271,-3.36025 3.360271,-3.36028 42.45747,-42.45746 c 2.67913,-2.67913 2.67913,-7.08386 0,-9.76296 -1.31687,-1.31685 -3.04241,-2.0434 -4.90418,-2.0434 -1.86178,0 -3.587322,0.72655 -4.904182,2.0434 l -55.58068,55.5807 54.672502,54.67251 c 1.31686,1.31688 3.042403,2.04342 4.904176,2.04342 1.861774,0 3.587314,-0.72654 4.904174,-2.04342 2.67914,-2.67913 2.67914,-7.08381 0,-9.76297 z"
       class="st0"
       inkscape:connector-curvature="0"
       style="fill:#ffffff;fill-opacity:1" /></g><g
     id="Layer_2"
     transform="translate(0,300)" /></svg>