<?xml version="1.0" encoding="utf-8"?>
<!-- Generator: Adobe Illustrator 13.0.0, SVG Export Plug-In . SVG Version: 6.00 Build 14948)  -->
<!DOCTYPE svg PUBLIC "-//W3C//DTD SVG 1.1//EN" "http://www.w3.org/Graphics/SVG/1.1/DTD/svg11.dtd">
<svg version="1.1" id="Layer_1" xmlns="http://www.w3.org/2000/svg" xmlns:xlink="http://www.w3.org/1999/xlink" x="0px" y="0px"
	 width="133.643px" height="140.84px" viewBox="0 0 133.643 140.84" enable-background="new 0 0 133.643 140.84"
	 xml:space="preserve">
<g id="Layer_1_1_">
</g>
<g id="Isolation_Mode">
	<path d="M66.091,140.76c-28.23-0.094-51.598-18.039-61.716-42.57c-1.077-2.615-0.02-4.201,2.817-4.232
		c2.578-0.023,5.161,0.006,7.748-0.008c1.743-0.01,2.818,0.756,3.598,2.377c7.999,16.568,20.964,26.914,39.104,30.191
		c27.313,4.928,53.661-12.143,60.706-39.008c6.26-23.86-4.301-48.764-25.746-60.638c-5.915-3.278-12.306-5.111-19.013-5.881
		c-11.838-1.357-22.961,0.846-33.257,6.855c-9.743,5.683-17.038,13.676-21.9,23.861c-0.608,1.275-1.521,2.057-2.924,2.077
		c-2.906,0.048-5.809,0.093-8.705,0.004c-2.112-0.067-3.309-1.989-2.543-3.958c6.085-15.67,16.498-27.535,31.388-35.375
		C46.618,8.685,58.356,6.383,70.7,7.208c12.571,0.84,24.249,4.434,34.582,11.767c14.229,10.086,23.288,23.653,26.88,40.779
		c7.375,35.139-13.562,67.75-45.313,77.926C80.329,139.768,73.642,140.754,66.091,140.76"/>
	<path d="M77.212,80.577h-1.454c-23.922,0-47.837,0-71.757,0c-0.459,0-0.924,0.01-1.379-0.031c-1.527-0.145-2.602-1.287-2.608-2.814
		c-0.021-2.551-0.018-5.098-0.004-7.643c0.011-1.588,1.091-2.729,2.679-2.864c0.424-0.035,0.853-0.021,1.275-0.021
		c23.916,0,47.836,0,71.758,0h1.794c-0.451-0.484-0.712-0.78-0.991-1.053c-5.002-5.01-10.008-10.008-15.008-15.015
		c-1.607-1.605-1.604-3.046,0.006-4.661c1.653-1.653,3.298-3.306,4.955-4.951c1.206-1.196,2.943-1.21,4.141-0.017
		c9.134,9.129,18.272,18.254,27.393,27.4c3.179,3.188,3.169,6.792-0.021,9.993c-9.173,9.188-18.356,18.367-27.541,27.541
		c-1.611,1.609-2.837,1.602-4.45-0.002c-1.656-1.65-3.31-3.301-4.956-4.955c-1.583-1.602-1.592-2.764,0-4.355
		c5.12-5.139,10.255-10.266,15.39-15.385c0.299-0.297,0.689-0.494,1.037-0.732C77.379,80.864,77.295,80.721,77.212,80.577"/>
	<path fill="#FFFFFF" d="M66.091,133.637c-28.23-0.094-51.598-18.041-61.716-42.57c-1.077-2.617-0.02-4.205,2.817-4.234
		c2.578-0.023,5.161,0.006,7.748-0.008c1.743-0.01,2.818,0.756,3.598,2.377c7.999,16.566,20.964,26.914,39.104,30.191
		c27.313,4.926,53.661-12.143,60.706-39.01c6.26-23.859-4.301-48.763-25.746-60.637c-5.915-3.277-12.306-5.11-19.013-5.881
		c-11.838-1.357-22.961,0.848-33.257,6.856c-9.743,5.682-17.038,13.677-21.9,23.862c-0.608,1.275-1.521,2.055-2.924,2.077
		c-2.906,0.046-5.809,0.091-8.705,0.003c-2.112-0.067-3.309-1.989-2.543-3.958c6.086-15.67,16.499-27.535,31.388-35.374
		C46.618,1.561,58.356-0.742,70.7,0.083c12.571,0.84,24.249,4.434,34.582,11.767c14.229,10.086,23.288,23.653,26.88,40.779
		c7.375,35.142-13.562,67.749-45.313,77.927C80.329,132.641,73.642,133.629,66.091,133.637"/>
	<path fill="#FFFFFF" d="M77.212,73.45h-1.454c-23.922,0-47.837,0-71.757,0c-0.459,0-0.924,0.012-1.379-0.029
		c-1.527-0.143-2.602-1.289-2.608-2.814c-0.021-2.552-0.018-5.095-0.004-7.646c0.011-1.587,1.091-2.727,2.679-2.862
		c0.424-0.034,0.853-0.02,1.275-0.02c23.916,0,47.836,0,71.758,0h1.794c-0.451-0.485-0.712-0.782-0.991-1.055
		c-5.002-5.01-10.008-10.008-15.008-15.015c-1.607-1.605-1.604-3.045,0.006-4.66c1.653-1.653,3.298-3.305,4.955-4.95
		c1.206-1.198,2.943-1.212,4.141-0.019c9.134,9.13,18.272,18.256,27.393,27.4c3.179,3.189,3.169,6.792-0.021,9.993
		c-9.173,9.189-18.356,18.365-27.541,27.543c-1.611,1.609-2.837,1.6-4.45-0.004c-1.656-1.65-3.31-3.301-4.956-4.955
		c-1.583-1.602-1.592-2.764,0-4.355c5.12-5.139,10.255-10.264,15.39-15.387c0.299-0.293,0.689-0.492,1.037-0.73
		C77.379,73.741,77.295,73.596,77.212,73.45"/>
</g>
</svg>
