<?xml version="1.0" encoding="utf-8"?>
<!-- Generator: Adobe Illustrator 13.0.0, SVG Export Plug-In . SVG Version: 6.00 Build 14948)  -->
<!DOCTYPE svg PUBLIC "-//W3C//DTD SVG 1.1//EN" "http://www.w3.org/Graphics/SVG/1.1/DTD/svg11.dtd">
<svg version="1.1" id="Layer_1" xmlns="http://www.w3.org/2000/svg" xmlns:xlink="http://www.w3.org/1999/xlink" x="0px" y="0px"
	 width="134.832px" height="140.914px" viewBox="0 0 134.832 140.914" enable-background="new 0 0 134.832 140.914"
	 xml:space="preserve">
<g id="Layer_1_1_">
</g>
<g id="Isolation_Mode">
	<path fill="#010101" d="M67.387,125.27c-4.283-8.964-8.396-17.595-12.525-26.22c-4.805-10.047-9.668-20.066-14.412-30.143
		C32.079,51.14,42.62,31.669,62.496,28.08c16.497-2.98,33.083,9.133,34.688,25.24c0.527,5.265-0.231,10.293-2.496,15.059
		c-8.832,18.578-17.736,37.128-26.612,55.685C67.938,124.346,67.764,124.61,67.387,125.27 M83.787,58.053
		c0.064-8.851-7.275-16.006-16.377-15.971c-8.95,0.036-16.223,6.986-16.362,15.633c-0.143,8.716,7.333,15.984,16.417,15.958
		C76.457,73.646,83.725,66.693,83.787,58.053"/>
	<path fill="#010101" d="M67.416,6.083C30.243,6.083,0,36.326,0,73.498c0,37.172,30.243,67.416,67.416,67.416
		c37.174,0,67.416-30.244,67.416-67.416C134.832,36.326,104.59,6.083,67.416,6.083 M67.416,132.514
		c-32.541,0-59.015-26.476-59.015-59.017c0-32.542,26.475-59.016,59.015-59.016c32.544,0,59.018,26.473,59.018,59.016
		C126.434,106.039,99.96,132.514,67.416,132.514"/>
	<path fill="#FFFFFF" d="M67.387,119.187c-4.283-8.964-8.396-17.596-12.525-26.221c-4.805-10.045-9.669-20.066-14.413-30.14
		c-8.37-17.767,2.171-37.24,22.048-40.828c16.496-2.982,33.082,9.13,34.687,25.24c0.527,5.263-0.231,10.292-2.496,15.059
		c-8.832,18.576-17.736,37.126-26.611,55.685C67.938,118.263,67.764,118.527,67.387,119.187 M83.787,51.97
		C83.854,43.119,76.512,35.964,67.41,36c-8.952,0.036-16.223,6.986-16.362,15.635c-0.143,8.714,7.333,15.979,16.416,15.956
		C76.457,67.563,83.725,60.61,83.787,51.97"/>
	<path fill="#FFFFFF" d="M67.416,0C30.243,0,0,30.243,0,67.415c0,37.172,30.243,67.417,67.416,67.417
		c37.174,0,67.416-30.244,67.416-67.417C134.832,30.243,104.59,0,67.416,0 M67.416,126.431c-32.541,0-59.015-26.477-59.015-59.016
		c0-32.544,26.475-59.014,59.015-59.014c32.544,0,59.018,26.47,59.018,59.014C126.434,99.955,99.96,126.431,67.416,126.431"/>
</g>
</svg>
