<svg width="123" height="126" viewBox="0 0 123 126" fill="none" xmlns="http://www.w3.org/2000/svg">
<path opacity="0.85" d="M120.429 69.9586C124.864 79.9597 123.148 89.9608 118.427 99.3905C116.71 102.819 114.421 105.963 112.418 109.249C101.689 114.678 90.8162 120.107 80.0867 125.679C73.0768 126.822 66.6391 124.822 60.7737 121.107C52.7623 115.821 45.1802 110.249 37.455 104.677C31.3034 100.248 25.1518 95.6758 18.8572 91.2467C13.421 87.532 11.4181 81.5313 13.9932 76.245C16.7113 70.673 22.4337 68.5299 28.8714 70.5301C31.8756 71.5302 35.0229 72.3874 38.4564 73.3875C35.5952 67.8155 32.8771 62.2434 29.8728 56.6714C29.5867 56.0999 28.013 55.8141 27.1547 55.8141C15.4238 55.3855 5.69575 48.3847 1.54703 37.3835C-2.17252 27.2395 0.974791 15.0953 9.27224 7.52302C19.0003 -1.33511 33.3062 -2.4781 44.0357 4.66556C54.7652 11.8092 59.0569 24.6678 54.479 37.5264C54.336 37.955 54.0499 38.5265 53.6207 39.3837C58.6278 37.5264 62.9196 38.0979 66.6391 41.0982C73.3629 34.5261 77.0824 33.9546 84.2354 37.955C87.0966 36.2405 89.5286 34.2403 92.3898 33.3831C97.2538 31.8115 102.547 33.9546 104.979 38.5265C110.129 48.9562 115.709 59.2431 120.429 69.9586ZM113.133 97.2474C117.282 88.5321 118.713 79.674 114.564 70.673C109.986 60.9576 104.979 51.528 100.115 41.9555C98.5414 38.9551 95.251 37.8121 92.3898 39.3837C89.3856 40.9553 88.3841 43.9557 89.9578 47.0989C91.8176 50.8136 93.6773 54.5283 95.5371 58.243C96.5385 60.1003 96.9677 61.9577 94.6788 63.1007C92.3898 64.2437 91.2453 62.6721 90.2439 60.8147C87.5258 55.3855 84.8077 50.0992 82.0895 44.67C80.5159 41.6697 77.2255 40.5267 74.3643 41.9555C71.5031 43.3842 70.3587 46.6703 71.9323 49.6706C73.7921 53.5282 75.6518 57.2429 77.6547 60.9576C78.513 62.8149 78.7992 64.5294 76.7963 65.6724C74.6504 66.8154 73.3629 65.3867 72.3615 63.5293C69.6433 58.1001 66.9252 52.8138 64.2071 47.3846C62.4904 44.0985 59.3431 43.0984 56.3388 44.67C53.3346 46.2416 52.4762 49.242 54.0499 52.5281C55.7666 56.0999 57.6264 59.8146 59.4861 63.3864C60.7737 65.9581 60.4875 67.8155 58.7708 68.5299C56.4819 69.3871 55.3374 67.9584 54.336 66.101C52.1901 61.672 49.9011 57.3858 47.7552 53.0996C42.8912 43.5271 38.0272 33.9546 33.1632 24.3821C31.3034 20.6674 27.2977 19.8101 24.1504 22.3818C22.0045 24.0963 21.4323 26.8109 23.006 29.6684C26.8686 37.5264 30.8742 45.2415 34.8799 53.0996C38.8856 60.9576 42.7482 68.6727 46.7538 76.3879C47.6122 77.9595 48.4705 79.5311 46.8969 80.6741C45.8955 81.3884 44.0357 81.5313 42.7482 81.1027C37.455 79.5311 32.1618 77.5309 26.8686 75.8164C23.7212 74.8163 21.0031 75.8164 19.5725 78.2452C18.1419 80.6741 18.7142 83.3887 21.1462 85.5318C21.5754 85.9604 22.1476 86.2461 22.7198 86.6747C26.8686 89.6751 31.1603 92.3897 35.3091 95.5329C42.7482 101.105 50.0442 107.248 57.9125 112.535C62.2043 115.535 67.2113 117.535 72.0754 119.536C74.9365 120.821 77.9408 120.25 80.9451 118.678C88.2411 114.821 95.5371 110.82 103.119 107.534C107.983 105.391 110.988 101.819 113.133 97.2474ZM46.8969 38.9551C52.1901 31.8115 51.3317 20.6674 45.3232 13.6666C38.4564 5.66567 27.2977 3.66545 17.5697 8.66601C8.41388 13.5237 3.69292 24.0963 6.41105 33.8117C8.84306 42.9556 17.7128 50.0992 26.4394 49.6706C23.5782 43.9557 20.717 38.3836 17.8558 32.8116C14.5654 26.2394 16.5683 19.5244 22.7198 16.524C28.7283 13.5237 35.166 15.9525 38.4564 22.3818C41.1745 27.811 43.8926 33.2402 46.8969 38.9551Z" fill="white"/>
</svg>
