<?xml version="1.0" encoding="UTF-8" standalone="no"?>
<!-- Generator: Adobe Illustrator 19.2.0, SVG Export Plug-In . SVG Version: 6.00 Build 0)  -->

<svg
   xmlns:dc="http://purl.org/dc/elements/1.1/"
   xmlns:cc="http://creativecommons.org/ns#"
   xmlns:rdf="http://www.w3.org/1999/02/22-rdf-syntax-ns#"
   xmlns:svg="http://www.w3.org/2000/svg"
   xmlns="http://www.w3.org/2000/svg"
   xmlns:sodipodi="http://sodipodi.sourceforge.net/DTD/sodipodi-0.dtd"
   xmlns:inkscape="http://www.inkscape.org/namespaces/inkscape"
   version="1.1"
   x="0px"
   y="0px"
   viewBox="0 0 150 450"
   xml:space="preserve"
   id="svg3477"
   inkscape:version="0.91 r13725"
   sodipodi:docname="home.svg"
   width="150"
   height="450"><metadata
     id="metadata3509"><rdf:RDF><cc:Work
         rdf:about=""><dc:format>image/svg+xml</dc:format><dc:type
           rdf:resource="http://purl.org/dc/dcmitype/StillImage" /><dc:title></dc:title></cc:Work></rdf:RDF></metadata><defs
     id="defs3507" /><sodipodi:namedview
     pagecolor="#ffffff"
     bordercolor="#666666"
     borderopacity="1"
     objecttolerance="10"
     gridtolerance="10"
     guidetolerance="10"
     inkscape:pageopacity="0"
     inkscape:pageshadow="2"
     inkscape:window-width="1920"
     inkscape:window-height="971"
     id="namedview3505"
     showgrid="false"
     inkscape:zoom="1.2374369"
     inkscape:cx="-13.333753"
     inkscape:cy="232.62067"
     inkscape:window-x="0"
     inkscape:window-y="1"
     inkscape:window-maximized="1"
     inkscape:current-layer="Layer_1" /><style
     type="text/css"
     id="style3479">
	.st0{fill:#414042;}
	.st1{fill:#CCCCCC;}
	.st2{fill:#1398BB;}
	.st3{fill:#31D8FF;}
</style><g
     id="Layer_1"
     transform="translate(0,300)"><g
       id="g3488"
       style="fill:#5252b9;fill-opacity:1"
       transform="matrix(3.0821,0,0,3.0821,-2.698138,-300.18248)" /><path
       inkscape:connector-curvature="0"
       id="path4429"
       d="m 27.161035,121.83179 0,-22.340731 24.600941,-16.476755 24.60095,-16.476629 9.505642,6.836066 c 5.228108,3.759824 15.941892,11.547767 23.808412,17.306609 l 14.30276,10.47051 0,21.51084 0,21.51078 -18.48357,0 -18.483572,0 0,-15.88678 c 0,-17.84354 -0.508377,-19.86808 -5.595309,-22.28192 -3.78599,-1.79662 -6.087151,-1.81511 -9.450212,-0.0755 -5.411548,2.79843 -6.071617,5.25618 -6.075272,22.62166 l -0.0034,15.62301 -19.363741,0 -19.363743,0 0,-22.3407 z"
       style="fill:#54c9ef;fill-opacity:1" /><path
       inkscape:connector-curvature="0"
       id="path4431"
       d="m 22.38409,79.883384 c -3.012207,-1.311495 -4.280953,-5.33376 -2.526881,-8.010779 0.405059,-0.618208 5.405505,-4.258692 11.112153,-8.090143 5.706643,-3.83139 18.179606,-12.401384 27.717708,-19.044419 l 17.341993,-12.07835 7.086558,5.110955 c 3.897599,2.81109 15.865949,11.44319 26.596319,19.182589 12.20371,8.802046 19.74205,14.520791 20.13006,15.271097 1.63016,3.152372 0.0522,6.88008 -3.34311,7.897296 -1.45186,0.435039 -1.94173,0.387604 -3.37823,-0.325624 C 122.1966,79.337081 111.20183,71.579035 98.68784,62.55591 L 75.935126,46.150292 59.24749,57.783863 c -19.959266,13.91445 -30.928599,21.284212 -32.915112,22.114253 -1.778063,0.74291 -2.212171,0.741368 -3.948288,-0.01541 l 0,0 z"
       style="fill:#54c9ef;fill-opacity:1" /><path
       style="fill:#54c9ef;fill-opacity:1"
       d="m 27.161035,-44.60162 0,-22.340726 24.600941,-16.476752 24.60095,-16.47663 9.505642,6.836068 c 5.228108,3.759822 15.941892,11.547765 23.808412,17.306607 l 14.30276,10.470511 0,21.510839 0,21.510778 -18.48357,0 -18.483572,0 0,-15.886778 c 0,-17.843541 -0.508377,-19.86808 -5.595309,-22.281918 -3.78599,-1.796618 -6.087151,-1.815111 -9.450212,-0.07552 -5.411548,2.798424 -6.071617,5.256183 -6.075272,22.621658 l -0.0034,15.623011 -19.363741,0 -19.363743,0 0,-22.340693 z"
       id="path4166"
       inkscape:connector-curvature="0" /><path
       style="fill:#54c9ef;fill-opacity:1"
       d="m 22.38409,-86.550019 c -3.012207,-1.311495 -4.280953,-5.333759 -2.526881,-8.010779 0.405059,-0.618207 5.405505,-4.258691 11.112153,-8.090142 5.706643,-3.83139 18.179606,-12.40138 27.717708,-19.04442 l 17.341993,-12.07835 7.086558,5.11096 c 3.897599,2.81109 15.865949,11.44319 26.596319,19.18259 12.20371,8.80204 19.74205,14.520785 20.13006,15.271092 1.63016,3.152372 0.0522,6.880079 -3.34311,7.897296 -1.45186,0.435038 -1.94173,0.387605 -3.37823,-0.325624 -0.92406,-0.458925 -11.91883,-8.216972 -24.43282,-17.240094 l -22.752714,-16.40562 -16.687636,11.63357 c -19.959266,13.91445 -30.928599,21.284214 -32.915112,22.114254 -1.778063,0.742909 -2.212171,0.741368 -3.948288,-0.01541 l 0,0 z"
       id="path4168"
       inkscape:connector-curvature="0" /><path
       inkscape:connector-curvature="0"
       id="path4170"
       d="m 27.161035,-200.89386 0,-22.34073 24.600941,-16.47675 24.60095,-16.47662 9.505642,6.83606 c 5.228108,3.75983 15.941892,11.54777 23.808412,17.30661 l 14.30276,10.47052 0,21.51083 0,21.51078 -18.48357,0 -18.483572,0 0,-15.88678 c 0,-17.84354 -0.508377,-19.86808 -5.595309,-22.28191 -3.78599,-1.79662 -6.087151,-1.81511 -9.450212,-0.0756 -5.411548,2.79842 -6.071617,5.25619 -6.075272,22.62166 l -0.0034,15.62301 -19.363741,0 -19.363743,0 0,-22.34069 z"
       style="fill:#ffffff;fill-opacity:1" /><path
       inkscape:connector-curvature="0"
       id="path4172"
       d="m 22.38409,-242.84226 c -3.012207,-1.31149 -4.280953,-5.33375 -2.526881,-8.01077 0.405059,-0.61821 5.405505,-4.2587 11.112153,-8.09015 5.706643,-3.83138 18.179606,-12.40138 27.717708,-19.04442 l 17.341993,-12.07835 7.086558,5.11096 c 3.897599,2.81109 15.865949,11.44319 26.596319,19.18259 12.20371,8.80204 19.74205,14.52079 20.13006,15.27109 1.63016,3.15238 0.0522,6.88009 -3.34311,7.89731 -1.45186,0.43503 -1.94173,0.3876 -3.37823,-0.32563 -0.92406,-0.45893 -11.91883,-8.21698 -24.43282,-17.24009 l -22.752714,-16.40563 -16.687636,11.63358 c -19.959266,13.91444 -30.928599,21.28421 -32.915112,22.11425 -1.778063,0.7429 -2.212171,0.74137 -3.948288,-0.0155 l 0,0 z"
       style="fill:#ffffff;fill-opacity:1" /></g><g
     id="Layer_2"
     transform="translate(0,300)" /></svg>