<?xml version="1.0" encoding="utf-8"?>
<!-- Generator: Adobe Illustrator 22.0.1, SVG Export Plug-In . SVG Version: 6.00 Build 0)  -->
<svg version="1.1" id="Layer_1" xmlns="http://www.w3.org/2000/svg" xmlns:xlink="http://www.w3.org/1999/xlink" x="0px" y="0px"
	 viewBox="0 0 50 50" style="enable-background:new 0 0 50 50;" xml:space="preserve">
<style type="text/css">
	.st0{opacity:0.85;}
	.st1{fill:#FFFFFF;}
</style>
<g id="Layer_2_1_" class="st0">
</g>
<g class="st0">
	<path class="st1" d="M31.5,14.5l2.2-2.2c-2.1-2.5-5.3-4.1-8.8-4.1c-3.4,0-6.4,1.5-8.5,3.8c0.7,0.7,1.5,1.5,2.2,2.2
		c1.6-1.7,3.8-2.9,6.3-2.9C27.5,11.3,30,12.5,31.5,14.5z"/>
	<path class="st1" d="M24.8,1c-5.3,0-10.2,2.3-13.6,5.9c0.7,0.7,1.5,1.5,2.2,2.2c2.9-3,6.9-5,11.4-5c4.7,0,8.8,2.1,11.7,5.3l2.2-2.2
		C35.3,3.4,30.3,1,24.8,1z"/>
	<path class="st1" d="M28.5,18.7c0-2-1.6-3.6-3.7-3.6c-2,0-3.7,1.6-3.7,3.6v4.4h7.4V18.7z"/>
	<path class="st1" d="M21.1,31.2c0,2,1.7,3.6,3.7,3.6s3.7-1.6,3.7-3.6v-4.3h-7.4V31.2z"/>
	<path class="st1" d="M34.3,24.9c-1,0-1.7,0.8-1.7,1.8c0,0.3,0,4.8,0,5.2c0,3.7-3.4,6.7-7.5,6.7s-7.5-3-7.5-6.7c0-0.4,0-4.9,0-5.3
		c0-1-0.7-1.8-1.6-1.8c-1-0.1-1.9,0.6-1.9,1.6c0,0.3,0,5.4,0,5.5c0,5.1,4,9.3,9.2,10.1v3.4H19c-1,0-1.8,0.8-1.8,1.8S18,49,19,49
		h12.3c1,0,1.8-0.8,1.8-1.8s-0.8-1.8-1.8-1.8h-4.4V42C32,41.1,36,37,36,31.9c0-0.1,0-5.1,0-5.3C36,25.6,35.1,24.9,34.3,24.9z"/>
</g>
</svg>
