<?xml version="1.0" encoding="UTF-8" standalone="no"?>
<!-- Generator: Adobe Illustrator 13.0.0, SVG Export Plug-In . SVG Version: 6.00 Build 14948)  -->

<svg
   xmlns:dc="http://purl.org/dc/elements/1.1/"
   xmlns:cc="http://creativecommons.org/ns#"
   xmlns:rdf="http://www.w3.org/1999/02/22-rdf-syntax-ns#"
   xmlns:svg="http://www.w3.org/2000/svg"
   xmlns="http://www.w3.org/2000/svg"
   xmlns:sodipodi="http://sodipodi.sourceforge.net/DTD/sodipodi-0.dtd"
   xmlns:inkscape="http://www.inkscape.org/namespaces/inkscape"
   version="1.1"
   id="Layer_1"
   x="0px"
   y="0px"
   width="150px"
   height="150px"
   viewBox="0 0 150 150"
   enable-background="new 0 0 150 150"
   xml:space="preserve"
   inkscape:version="0.91 r13725"
   sodipodi:docname="myview-i.svg"><metadata
     id="metadata45"><rdf:RDF><cc:Work
         rdf:about=""><dc:format>image/svg+xml</dc:format><dc:type
           rdf:resource="http://purl.org/dc/dcmitype/StillImage" /></cc:Work></rdf:RDF></metadata><defs
     id="defs43" /><sodipodi:namedview
     pagecolor="#ffffff"
     bordercolor="#666666"
     borderopacity="1"
     objecttolerance="10"
     gridtolerance="10"
     guidetolerance="10"
     inkscape:pageopacity="0"
     inkscape:pageshadow="2"
     inkscape:window-width="668"
     inkscape:window-height="480"
     id="namedview41"
     showgrid="false"
     inkscape:zoom="1.5733333"
     inkscape:cx="75"
     inkscape:cy="75"
     inkscape:window-x="40"
     inkscape:window-y="107"
     inkscape:window-maximized="0"
     inkscape:current-layer="Layer_1" /><title
     id="title33">Asset 3</title><g
     id="Layer_2"
     transform="translate(0,20)"><g
       id="Layer_1-2"><path
         d="M 135.105,20 12.135,20 C 4.381,20 0,25.958 0,34.238 l 0,80.608 c -0.653,7.229 4.677,13.618 11.906,14.271 0.411,0.037 0.824,0.055 1.236,0.053 l 122.664,0 c 7.709,0 14.105,-8.061 14.105,-16.34 l 0,-80.607 C 150,23.943 142.815,20 135.105,20 Z m 2.322,95.678 c 0.005,2.32 -1.802,4.241 -4.118,4.381 l -118.02,0 c -2.316,-0.14 -4.122,-2.061 -4.118,-4.381 l 0,-82.229 c -0.004,-2.32 1.802,-4.242 4.118,-4.381 l 118.02,0 c 2.316,0.139 4.123,2.061 4.118,4.381 l 0,82.229 z"
         id="path37"
         inkscape:connector-curvature="0"
         style="fill:#afafaf" /><polygon
         points="129.761,74.322 129.761,67.576 99.795,67.576 99.62,67.444 99.533,67.576 49.854,67.576 49.767,67.444 49.547,67.576 18.137,67.576 18.137,74.322 42.188,74.322 18.137,89.349 18.137,97.584 53.578,74.322 61.595,74.322 44.378,113.838 51.519,113.838 68.691,74.322 80.651,74.322 97.868,113.838 105.009,113.838 87.792,74.322 96.072,74.322 129.761,97.41 129.761,89.174 107.462,74.322 "
         id="polygon39"
         style="fill:#afafaf" /></g></g></svg>