<?xml version="1.0" encoding="utf-8"?>
<!-- Generator: Adobe Illustrator 22.0.1, SVG Export Plug-In . SVG Version: 6.00 Build 0)  -->
<svg version="1.1" id="Layer_1" xmlns="http://www.w3.org/2000/svg" xmlns:xlink="http://www.w3.org/1999/xlink" x="0px" y="0px"
	 viewBox="0 0 50 50" style="enable-background:new 0 0 50 50;" xml:space="preserve">
<style type="text/css">
	.st0{opacity:0.85;fill:#FFFFFF;}
</style>
<g id="Layer_2_1_" class="st0">
</g>
<g>
	<path class="st0" d="M45.7,29.3c-0.3-0.3-0.4-0.5-0.7-0.9c-1.2-1.4-2.5-2.9-3.9-4.1c-4.8-4-10.2-6.2-16.1-6.4
		c-5,0.2-9.7,1.7-14.1,4.7C8,24.6,5.7,26.8,4,29.3c-1.1,1.8-1.1,3.5,0,5.3c1.4,2.1,3.2,4,6,6.1c4.7,3.5,9.8,5.3,14.9,5.3
		c4.8,0,9.4-1.5,14-4.7c2.9-1.9,5.2-4.1,6.8-6.6C47.2,32.9,47.2,31,45.7,29.3z M42.9,33.3c-4.5,5.8-10.5,9.1-16.9,9.6
		c-5.5-0.1-10.1-1.7-14.7-5c-1.9-1.4-3.4-3-4.7-4.8c-0.5-0.8-0.4-1.2-0.1-1.7c3-4.4,10-10.1,18.3-10.1c1.7,0,3.4,0.3,5.2,0.8
		c5.4,1.7,9.6,4.6,12.8,8.8C43.9,31.9,44,32,42.9,33.3z"/>
	<path class="st0" d="M25,23c-5,0-9,3.9-9.1,9c0,5.1,4,9.1,9.1,9.1s9-4,9-9.1S30.1,23,25,23z M19,32c0-3.2,2.7-5.9,5.9-5.9
		c1.6,0,3.1,0.7,4.2,1.8s1.7,2.5,1.7,4.1c0,1.6-0.5,3.1-1.7,4.2c-1.1,1.1-2.6,1.8-4.2,1.8C21.8,38,19,35.3,19,32z"/>
</g>
</svg>
