<?xml version="1.0" encoding="UTF-8" standalone="no"?>
<!-- Generator: Adobe Illustrator 13.0.0, SVG Export Plug-In . SVG Version: 6.00 Build 14948)  -->

<svg
   xmlns:dc="http://purl.org/dc/elements/1.1/"
   xmlns:cc="http://creativecommons.org/ns#"
   xmlns:rdf="http://www.w3.org/1999/02/22-rdf-syntax-ns#"
   xmlns:svg="http://www.w3.org/2000/svg"
   xmlns="http://www.w3.org/2000/svg"
   xmlns:sodipodi="http://sodipodi.sourceforge.net/DTD/sodipodi-0.dtd"
   xmlns:inkscape="http://www.inkscape.org/namespaces/inkscape"
   version="1.1"
   id="Layer_1"
   x="0px"
   y="0px"
   width="150px"
   height="150px"
   viewBox="0 0 150 150"
   enable-background="new 0 0 150 150"
   xml:space="preserve"
   inkscape:version="0.91 r13725"
   sodipodi:docname="myview-hover.svg"><metadata
     id="metadata30"><rdf:RDF><cc:Work
         rdf:about=""><dc:format>image/svg+xml</dc:format><dc:type
           rdf:resource="http://purl.org/dc/dcmitype/StillImage" /></cc:Work></rdf:RDF></metadata><defs
     id="defs28" /><sodipodi:namedview
     pagecolor="#ffffff"
     bordercolor="#666666"
     borderopacity="1"
     objecttolerance="10"
     gridtolerance="10"
     guidetolerance="10"
     inkscape:pageopacity="0"
     inkscape:pageshadow="2"
     inkscape:window-width="640"
     inkscape:window-height="480"
     id="namedview26"
     showgrid="false"
     inkscape:zoom="1.5733333"
     inkscape:cx="130.51898"
     inkscape:cy="69.038136"
     inkscape:window-x="20"
     inkscape:window-y="65"
     inkscape:window-maximized="0"
     inkscape:current-layer="Layer_1" /><title
     id="title18">Asset 3</title><g
     id="Layer_2"
     transform="translate(0,20)"><g
       id="Layer_1-2"><path
         d="m 135.105,19.5 -122.97,0 C 4.381,19.5 0,25.458 0,33.738 l 0,80.608 c -0.653,7.229 4.677,13.618 11.906,14.271 0.411,0.037 0.824,0.055 1.236,0.053 l 122.664,0 c 7.709,0 14.105,-8.061 14.105,-16.34 l 0,-80.607 C 150,23.443 142.815,19.5 135.105,19.5 Z m 2.322,95.678 c 0.005,2.32 -1.802,4.241 -4.118,4.381 l -118.02,0 c -2.316,-0.14 -4.122,-2.061 -4.118,-4.381 l 0,-82.229 c -0.004,-2.32 1.802,-4.242 4.118,-4.381 l 118.02,0 c 2.316,0.139 4.123,2.061 4.118,4.381 l 0,82.229 z"
         id="path22"
         inkscape:connector-curvature="0" /><polygon
         points="99.533,67.076 49.854,67.076 49.767,66.944 49.547,67.076 18.137,67.076 18.137,73.822 42.188,73.822 18.137,88.849 18.137,97.084 53.578,73.822 61.595,73.822 44.378,113.338 51.519,113.338 68.691,73.822 80.651,73.822 97.868,113.338 105.009,113.338 87.792,73.822 96.072,73.822 129.761,96.91 129.761,88.674 107.462,73.822 129.761,73.822 129.761,67.076 99.795,67.076 99.62,66.944 "
         id="polygon24" /></g></g></svg>