<?xml version="1.0" encoding="utf-8"?>
<!-- Generator: Adobe Illustrator 22.0.1, SVG Export Plug-In . SVG Version: 6.00 Build 0)  -->
<svg version="1.1" id="Layer_1" xmlns="http://www.w3.org/2000/svg" xmlns:xlink="http://www.w3.org/1999/xlink" x="0px" y="0px"
	 viewBox="0 0 50 50" style="enable-background:new 0 0 50 50;" xml:space="preserve">
<style type="text/css">
	.st0{opacity:0.7;}
	.st1{fill:#FFFFFF;stroke:#FFFFFF;stroke-width:2;stroke-miterlimit:10;}
</style>
<g id="Layer_2_1_">
</g>
<g class="st0">
	<path class="st1" d="M48.1,22.5c-1.6-1.9-3.2-4-5.2-5.6c-5.2-4.4-11.1-6.9-17.8-7.1c-6,0.1-11.1,2-15.8,5.2c-3,2-5.6,4.4-7.6,7.4
		c-1.1,1.7-1.1,3.3,0,5c1.8,2.7,4.1,4.8,6.6,6.7c4.9,3.6,10.4,5.9,16.6,5.9c5.8,0,10.9-2,15.6-5.2c3-2,5.6-4.4,7.6-7.4
		C49.4,25.8,49.5,24.1,48.1,22.5z M46.4,27.1C41,34,33.9,38,26.2,38.5c-7.3-0.1-12.6-2.4-17.4-6c-2.2-1.6-4.1-3.5-5.6-5.8
		c-0.7-1-0.9-2-0.1-3.1c4.8-7.1,16.4-14.6,28.2-11.1c6.2,1.9,11.3,5.3,15.2,10.5C47.8,24.7,47.8,25.3,46.4,27.1z"/>
	<path class="st1" d="M25,15.6c-5.3,0-9.4,4.1-9.5,9.4c0,5.3,4.2,9.5,9.5,9.5c5.3,0,9.4-4.2,9.4-9.5C34.4,19.7,30.3,15.6,25,15.6z
		 M24.9,32.9c-4.2,0-7.8-3.6-7.8-7.9c0-4.2,3.6-7.8,7.8-7.8c4.2,0,7.9,3.6,7.8,7.8C32.8,29.3,29.2,32.9,24.9,32.9z"/>
</g>
</svg>
