<svg xmlns="http://www.w3.org/2000/svg" viewBox="0 0 31.87 31.87"><defs><style type="text/css">.cls-1{fill:#ffffff;}</style></defs><title>Asset 1</title><g id="Layer_2" data-name="Layer 2"><g id="Layer_1-2" data-name="Layer 1"><path class="cls-1" d="M15.94,19.45a3.51,3.51,0,1,1,3.51-3.51A3.51,3.51,0,0,1,15.94,19.45Zm0-5.36a1.85,1.85,0,1,0,1.85,1.85A1.85,1.85,0,0,0,15.94,14.09Z"/><circle class="cls-1" cx="22.65" cy="20.94" r="1.85"/><path class="cls-1" d="M15.94,0A15.84,15.84,0,0,0,7.16,2.65,3.52,3.52,0,0,1,8.24,3.94,14.34,14.34,0,1,1,3.67,8.68a3.51,3.51,0,0,1-1.31-1A15.92,15.92,0,1,0,15.94,0Z"/><circle class="cls-1" cx="5.1" cy="5.48" r="1.85"/><path class="cls-1" d="M19.73,22.88A7.9,7.9,0,0,1,8.82,19.37a3.48,3.48,0,0,1-1.28.25,3.46,3.46,0,0,1-.46,0A9.55,9.55,0,0,0,21,24,3.52,3.52,0,0,1,19.73,22.88Z"/><path class="cls-1" d="M15.94,6.36a9.59,9.59,0,0,0-9,6.3,3.49,3.49,0,0,1,.59-.06,3.47,3.47,0,0,1,1.13.2,7.91,7.91,0,0,1,15,4.79,3.5,3.5,0,0,1,1.48.89A9.55,9.55,0,0,0,15.94,6.36Z"/><circle class="cls-1" cx="7.54" cy="16.11" r="1.85"/><!--<path class="cls-1" d="M5.2,38.52v2H4.09V35.37H5.71c1.39,0,2.09.5,2.09,1.55a1.42,1.42,0,0,1-1,1.4l1.34,2.23H6.87l-1.11-2Zm.58-.78c.58,0,.89-.24.89-.82s-.31-.77-1-.77H5.2v1.59Z"/><path class="cls-1" d="M9.9,39.39l-.29,1.16H8.46l1.6-5.19H11.4L13,40.55H11.82l-.29-1.16Zm.81-3.21-.6,2.39h1.21Z"/><path class="cls-1" d="M17.87,37.94a2.3,2.3,0,0,1-2.55,2.62H13.84V35.37H15.2C16.57,35.37,17.87,35.79,17.87,37.94Zm-2.93,1.81h.45c.76,0,1.33-.35,1.33-1.81s-.61-1.76-1.36-1.76h-.43Z"/><path class="cls-1" d="M19.69,39.39l-.29,1.16H18.25l1.6-5.19h1.34l1.59,5.19H21.61l-.29-1.16Zm.81-3.21-.6,2.39h1.21Z"/><path class="cls-1" d="M24.74,38.52v2h-1.1V35.37h1.62c1.39,0,2.09.5,2.09,1.55a1.42,1.42,0,0,1-1,1.4l1.34,2.23H26.41l-1.11-2Zm.58-.78c.58,0,.89-.24.89-.82s-.31-.77-1-.77h-.49v1.59Z"/>--></g></g></svg>