<?xml version="1.0" encoding="utf-8"?>
<!-- Generator: Adobe Illustrator 19.2.0, SVG Export Plug-In . SVG Version: 6.00 Build 0)  -->
<svg version="1.1" id="Layer_1" xmlns="http://www.w3.org/2000/svg" xmlns:xlink="http://www.w3.org/1999/xlink" x="0px" y="0px"
	 viewBox="0 0 64 64" style="enable-background:new 0 0 64 64;" xml:space="preserve">
<style type="text/css">
	.st0{fill:#FFFFFF;}
</style>
<path class="st0" d="M39.3,25.9c1.6,4.2,3.2,8.4,4.8,12.5c0.1,0.3,0.2,0.6,0,0.9c-0.3,0.3-0.6,0.3-1,0.2c-4-0.8-8.1-1.7-12.1-2.5
	c-0.5-0.1-1-0.1-1.5,0.1c-0.5,0.2-1,0.4-1.5,0.6c-0.8,0.3-0.9,0.7-0.4,1.4c2.1,2.7,4.2,5.5,6.3,8.2c0.1,0.2,0.2,0.3,0.3,0.5
	c0.2,0.4,0.1,0.7-0.3,1c-0.1,0.1-0.3,0.2-0.5,0.2c-1.5,0.6-3,1.1-4.4,1.7c-0.8,0.3-1,0.3-1.5-0.4c-2.3-3-4.6-5.9-6.9-8.9
	c-0.5-0.6-0.6-0.6-1.3-0.4c-0.3,0.1-0.6,0.2-0.8,0.3c-1,0.3-2-0.1-2.3-1.1c-1.2-3.2-2.5-6.5-3.7-9.7c-0.4-1.1,0-2,1.1-2.5
	c0.9-0.4,1.9-0.7,2.8-1.1c2.7-1,5.3-2,8-3c0.5-0.2,0.9-0.5,1.2-0.9c2.4-3.3,4.9-6.6,7.4-9.9c0.2-0.3,0.4-0.5,0.8-0.5
	c0.4,0,0.5,0.4,0.7,0.7C36.1,17.5,37.7,21.7,39.3,25.9z"/>
<path class="st0" d="M38.2,15.6c-0.2,0-0.4-0.1-0.6-0.2c-0.6-0.3-0.7-1.1-0.4-1.6l3.7-6.1C41.3,7.1,42,7,42.6,7.3
	c0.6,0.3,0.7,1.1,0.4,1.6l-3.7,6.1C39,15.4,38.6,15.6,38.2,15.6z"/>
<path class="st0" d="M53.1,36.7c-0.1,0-0.2,0-0.3,0l-7.4-1.6c-0.6-0.1-1-0.8-0.9-1.4c0.1-0.6,0.8-1,1.4-0.9l7.4,1.6
	c0.6,0.1,1,0.8,0.9,1.4C54.1,36.4,53.6,36.7,53.1,36.7z"/>
<path class="st0" d="M42.5,24.8c-0.4,0-0.9-0.3-1.1-0.7c-0.3-0.6,0-1.3,0.6-1.6l7.5-3.5c0.6-0.3,1.3,0,1.6,0.6
	c0.3,0.6,0,1.3-0.6,1.6L43,24.7C42.8,24.8,42.7,24.8,42.5,24.8z"/>
</svg>
