<?xml version="1.0" encoding="utf-8"?>
<!-- Generator: Adobe Illustrator 19.2.0, SVG Export Plug-In . SVG Version: 6.00 Build 0)  -->
<svg version="1.1" id="Layer_1" xmlns="http://www.w3.org/2000/svg" xmlns:xlink="http://www.w3.org/1999/xlink" x="0px" y="0px"
	 viewBox="0 0 199.8 231" style="enable-background:new 0 0 199.8 231;" xml:space="preserve">
<style type="text/css">
	.st0{fill:#FFFFFF;}
</style>
<g>
	<g>
		<path class="st0" d="M146.7,145.3H48V50.1h98.8V145.3z M56.2,122.8h83.1V57.6H56.2V122.8z"/>
		<circle class="st0" cx="96.8" cy="83.5" r="10.9"/>
		<path class="st0" d="M116.9,112.8h-40v-1.2c0-6.5,5.9-11.8,12.5-11.8H105c6.5,0,11.8,5.3,11.8,11.8V112.8z"/>
		<polygon class="st0" points="155.5,80.6 155.5,125.7 170.9,39.2 74.6,19.6 70.3,43.7 78.3,43.7 81,28.8 161.7,45.6 		"/>
	</g>
	<g>
		<path class="st0" d="M12.4,213.7v-29.8h14c6.5,0,10,4.4,10,9.6c0,5.2-3.6,9.6-10,9.6h-7.6v10.6H12.4z M29.9,193.4
			c0-2.5-1.9-4-4.4-4h-6.7v8h6.7C28,197.4,29.9,195.9,29.9,193.4z"/>
		<path class="st0" d="M69.9,213.7L64,203.1h-4.7v10.6H53v-29.8h14c6.2,0,10.1,4.1,10.1,9.6c0,5.2-3.4,8.1-6.6,8.9l6.8,11.4H69.9z
			 M70.5,193.4c0-2.5-1.9-4-4.4-4h-6.7v8.1h6.7C68.6,197.5,70.5,195.9,70.5,193.4z"/>
		<path class="st0" d="M94.4,213.7v-29.8h6.4v29.8H94.4z"/>
		<path class="st0" d="M139.8,213.7l-14.2-19.5v19.5h-6.4v-29.8h6.5l13.8,18.7v-18.7h6.4v29.8H139.8z"/>
		<path class="st0" d="M171.4,213.7v-24.2h-8.7v-5.6h23.8v5.6h-8.7v24.2H171.4z"/>
	</g>
</g>
</svg>
