<?xml version="1.0" encoding="UTF-8" standalone="no"?>
<!-- Generator: Adobe Illustrator 22.0.1, SVG Export Plug-In . SVG Version: 6.00 Build 0)  -->

<svg
   xmlns:dc="http://purl.org/dc/elements/1.1/"
   xmlns:cc="http://creativecommons.org/ns#"
   xmlns:rdf="http://www.w3.org/1999/02/22-rdf-syntax-ns#"
   xmlns:svg="http://www.w3.org/2000/svg"
   xmlns="http://www.w3.org/2000/svg"
   xmlns:sodipodi="http://sodipodi.sourceforge.net/DTD/sodipodi-0.dtd"
   xmlns:inkscape="http://www.inkscape.org/namespaces/inkscape"
   version="1.1"
   id="Layer_1"
   x="0px"
   y="0px"
   viewBox="0 0 50 49.999999"
   xml:space="preserve"
   sodipodi:docname="expandIcon.svg"
   inkscape:version="0.92.3 (2405546, 2018-03-11)"
   width="50"
   height="50"><metadata
   id="metadata21"><rdf:RDF><cc:Work
       rdf:about=""><dc:format>image/svg+xml</dc:format><dc:type
         rdf:resource="http://purl.org/dc/dcmitype/StillImage" /><dc:title></dc:title></cc:Work></rdf:RDF></metadata><defs
   id="defs19" /><sodipodi:namedview
   pagecolor="#ffffff"
   bordercolor="#666666"
   borderopacity="1"
   objecttolerance="10"
   gridtolerance="10"
   guidetolerance="10"
   inkscape:pageopacity="0"
   inkscape:pageshadow="2"
   inkscape:window-width="980"
   inkscape:window-height="792"
   id="namedview17"
   showgrid="false"
   inkscape:zoom="2"
   inkscape:cx="12.25"
   inkscape:cy="62.4"
   inkscape:window-x="249"
   inkscape:window-y="99"
   inkscape:window-maximized="0"
   inkscape:current-layer="Layer_1"
   fit-margin-top="0"
   fit-margin-left="0"
   fit-margin-right="0"
   fit-margin-bottom="0"
   showguides="false" />
<style
   type="text/css"
   id="style2">
	.st0{opacity:0.7;fill:#1B1B1B;stroke:#FFFFFF;stroke-width:4.6505;stroke-miterlimit:10;}
	.st1{fill:#FFFFFF;}
</style>

<g
   id="g14"
   transform="matrix(0.25,0,0,0.25,-214.575,-109.6)">
	<path
   class="st1"
   d="m 919.2,490.4 h 8.5 c 3.9,0 7.1,-3.2 7.1,-7.1 0,-3.9 -3.2,-7.1 -7.1,-7.1 H 902 c 0,0 0,0 -0.1,0 -0.4,0 -0.9,0 -1.3,0.1 -0.2,0 -0.4,0.1 -0.6,0.2 -0.2,0.1 -0.5,0.1 -0.7,0.2 -0.2,0.1 -0.5,0.2 -0.7,0.4 -0.2,0.1 -0.4,0.2 -0.5,0.3 -0.4,0.3 -0.7,0.5 -1.1,0.9 0,0 0,0 0,0 0,0 0,0 0,0 -0.1,0.1 -0.1,0.2 -0.2,0.3 -1.5,1.3 -2.4,3.2 -2.4,5.3 v 25.7 c 0,3.9 3.2,7.1 7.1,7.1 3.9,0 7.1,-3.2 7.1,-7.1 v -9.7 l 24.1,24.1 c 1.4,1.4 3.2,2.1 5,2.1 1.8,0 3.7,-0.7 5,-2.1 2.8,-2.8 2.8,-7.3 0,-10.1 z"
   id="path6"
   inkscape:connector-curvature="0"
   style="fill:#ffffff" />
	<path
   class="st1"
   d="m 932.6,554.6 -24.1,24.1 V 569 c 0,-3.9 -3.2,-7.1 -7.1,-7.1 -3.9,0 -7.1,3.2 -7.1,7.1 v 25.7 c 0,2.1 0.9,4 2.4,5.3 0.4,0.5 0.8,0.9 1.3,1.2 0.2,0.1 0.4,0.2 0.5,0.3 0.2,0.1 0.5,0.3 0.7,0.4 0.2,0.1 0.5,0.1 0.7,0.2 0.2,0.1 0.4,0.1 0.6,0.2 0.5,0.1 0.9,0.1 1.4,0.1 h 25.7 c 3.9,0 7.1,-3.2 7.1,-7.1 0,-3.9 -3.2,-7.1 -7.1,-7.1 h -8.5 l 23.5,-23.5 c 2.8,-2.8 2.8,-7.3 0,-10.1 -2.7,-2.8 -7.2,-2.8 -10,0 z"
   id="path8"
   inkscape:connector-curvature="0"
   style="fill:#ffffff" />
	<path
   class="st1"
   d="m 1018.7,561.9 c -3.9,0 -7.1,3.2 -7.1,7.1 v 9.7 l -24.1,-24.1 c -2.8,-2.8 -7.3,-2.8 -10.1,0 -2.8,2.8 -2.8,7.3 0,10.1 l 23.5,23.5 h -8.5 c -3.9,0 -7.1,3.2 -7.1,7.1 0,3.9 3.2,7.1 7.1,7.1 h 25.7 c 0.5,0 0.9,0 1.4,-0.1 0.2,0 0.4,-0.1 0.6,-0.2 0.2,-0.1 0.5,-0.1 0.7,-0.2 0.3,-0.1 0.5,-0.2 0.7,-0.4 0.2,-0.1 0.3,-0.2 0.5,-0.3 0.5,-0.3 0.9,-0.8 1.4,-1.2 1.5,-1.3 2.4,-3.2 2.4,-5.3 V 569 c 0,-3.9 -3.1,-7.1 -7.1,-7.1 z"
   id="path10"
   inkscape:connector-curvature="0"
   style="fill:#ffffff" />
	<path
   class="st1"
   d="m 982.2,526 c 1.8,0 3.6,-0.7 5,-2.1 l 24.1,-24.1 v 9.7 c 0,3.9 3.2,7.1 7.1,7.1 3.9,0 7.1,-3.2 7.1,-7.1 v -25.7 c 0,-2.1 -0.9,-4 -2.4,-5.3 -0.4,-0.5 -0.8,-0.9 -1.3,-1.2 -0.2,-0.1 -0.3,-0.2 -0.5,-0.3 -0.2,-0.1 -0.5,-0.3 -0.7,-0.4 -0.2,-0.1 -0.5,-0.1 -0.7,-0.2 -0.2,-0.1 -0.4,-0.1 -0.6,-0.2 -0.5,-0.1 -0.9,-0.1 -1.4,-0.1 h -25.7 c -3.9,0 -7.1,3.2 -7.1,7.1 0,3.9 3.2,7.1 7.1,7.1 h 8.5 l -23.5,23.5 c -2.8,2.8 -2.8,7.3 0,10.1 1.4,1.4 3.2,2.1 5,2.1 z"
   id="path12"
   inkscape:connector-curvature="0"
   style="fill:#ffffff" />
</g>
</svg>