<?xml version="1.0" encoding="utf-8"?>
<!-- Generator: Adobe Illustrator 19.2.0, SVG Export Plug-In . SVG Version: 6.00 Build 0)  -->
<svg version="1.1" id="Layer_1" xmlns="http://www.w3.org/2000/svg" xmlns:xlink="http://www.w3.org/1999/xlink" x="0px" y="0px"
	 viewBox="0 0 64 64" style="enable-background:new 0 0 64 64;" xml:space="preserve">
<style type="text/css">
	.st0{fill:#FFFFFF;}
</style>
<path class="st0" d="M12,52.3c6.5,0,13.2,0,20.2,0c6.5,0,13.4,0,20.6,0c3.5,0,5-1.6,5-5.6c0-10.2,0-20.5,0-30.7c0-4-1.3-5.5-5-5.5
	c-4.8,0-9.6,0-14.4,0l-5.9,0c-2,0-4,0-6,0c-4.8,0-9.7,0-14.5,0c-3.5,0-4.9,1.5-4.9,5.5c0,10.3,0,20.6,0,30.9
	C7.1,50.6,8.6,52.3,12,52.3z M41.9,43.3C41.9,43.3,41.9,43.3,41.9,43.3c0.1-0.1,0.1-0.1,0.1-0.2c1.4-1.5,2.8-3,4.3-4.6l0.8-0.9
	c0.6,0.6,1.1,1.2,1.7,1.8c1.8,1.9,3.7,3.9,5.4,6c0.2,0.3,0.3,1.2,0,2.7c-0.1,0.1-0.5,0.2-1.5,0.4c-4.4,0.9-7.7-0.6-10.2-4.5
	C42.4,43.8,42.2,43.5,41.9,43.3z M54.5,32.1c0,2.7,0,5.5,0,8.2L53.3,39c-1.4-1.5-2.8-3-4.2-4.4c-1.7-1.8-2.3-1.8-3.9,0
	c-1.4,1.5-2.8,3-4.2,4.5l-1.5,1.6l-3.4-3.6c-3.4-3.7-6.8-7.3-10.2-10.9c-1.1-1.2-1.8-1.8-2.4-1.8c-0.6,0-1.3,0.6-2.4,1.8
	c-2.6,2.8-5.4,5.5-8.1,8.4l-3,2.9v-4.4c0-1.6,0.2-3.2,0.2-4.8c0-4.1,0.1-8.4,0.1-12.5c0-0.7,0.1-1.1,0.3-1.3
	c0.2-0.2,0.6-0.3,1.2-0.3c13.7,0,27.3,0,41.2,0c0.5,0,1,0,1.2,0.3c0.1,0.2,0.2,0.5,0.2,0.9C54.5,20.9,54.5,26.6,54.5,32.1z
	 M12.7,40.2c2.7-2.7,5.2-5.4,7.9-8.3c0.9-1,1.9-2.1,2.9-3.1L42,48.5c-0.2,0-0.4,0-0.6,0c-9.6,0-19.3,0-28.9,0c-0.8,0-1.5,0-1.7-0.2
	c-0.2-0.2-0.2-1-0.3-2l0-0.1C10.2,43.7,10.9,42,12.7,40.2z"/>
<path class="st0" d="M37,23.7c0,2.1,1.4,3.8,3.3,3.8c1.9,0,3.4-1.6,3.4-3.7c0-2.1-1.4-3.8-3.3-3.8C38.5,19.9,37,21.6,37,23.7z"/>
</svg>
