<?xml version="1.0" encoding="utf-8"?>
<!-- Generator: Adobe Illustrator 19.2.0, SVG Export Plug-In . SVG Version: 6.00 Build 0)  -->
<svg version="1.1" id="Layer_1" xmlns="http://www.w3.org/2000/svg" xmlns:xlink="http://www.w3.org/1999/xlink" x="0px" y="0px"
	 viewBox="0 0 64 64" style="enable-background:new 0 0 64 64;" xml:space="preserve">
<style type="text/css">
	.st0{fill:#FFFFFF;}
</style>
<path class="st0" d="M13.1,43.9c4.5,0,8.2-0.9,11.8-3.6c-3.7-0.7-6.2-2.3-7.6-5.5c0.9-0.2,1.7-0.3,2.9-0.6c-3.6-1.7-5.8-4-6.2-7.9
	c1.1,0.2,2,0.4,3.6,0.8c-3.3-3.5-4.5-6.9-2.5-11.1c4.8,4.9,10.2,8.2,16.6,8.5c0.7-2.3,1-4.6,2-6.4c2.2-3.9,7.4-5.2,11-2.6
	c2,1.4,3.6,1.2,5.5,0.4c0.4-0.2,0.7-0.2,1.7-0.5c-1.1,1.5-1.8,2.5-2.7,3.8c1.1-0.1,2-0.3,2.9-0.4c0,0.2,0.1,0.3,0,0.4
	c-2.6,3.4-2.9,4-3.8,8.9c-3.1,15.7-19.7,23.9-34,16.7C14.2,44.6,13.9,44.4,13.1,43.9z"/>
</svg>
