<?xml version="1.0" encoding="utf-8"?>
<!-- Generator: Adobe Illustrator 22.0.1, SVG Export Plug-In . SVG Version: 6.00 Build 0)  -->
<svg version="1.1" id="Layer_1" xmlns="http://www.w3.org/2000/svg" xmlns:xlink="http://www.w3.org/1999/xlink" x="0px" y="0px"
	 viewBox="0 0 576 576" style="enable-background:new 0 0 576 576;" xml:space="preserve">
<path d="M329.7,410.7H127.8c-42.1,0-76.4-34.3-76.4-76.4V132.4c0-42.1,34.3-76.4,76.4-76.4h201.9c42.1,0,76.4,34.3,76.4,76.4v201.9
	C406.1,376.4,371.8,410.7,329.7,410.7z M127.8,98.9c-18.5,0-33.5,15-33.5,33.5v201.9c0,18.5,15,33.5,33.5,33.5h201.9
	c18.5,0,33.5-15,33.5-33.5V132.4c0-18.5-15-33.5-33.5-33.5H127.8z"/>
<path d="M449.4,519H407c-11.9,0-21.5-9.6-21.5-21.5s9.6-21.5,21.5-21.5h42.4c11.9,0,21.5,9.6,21.5,21.5S461.3,519,449.4,519z
	 M305.1,519H263c-11.9,0-21.5-9.6-21.5-21.5s9.6-21.5,21.5-21.5h42.2c11.9,0,21.5,9.6,21.5,21.5S317,519,305.1,519z M192.4,464.1
	c-11.9,0-21.5-9.6-21.5-21.4v-42.2c0-11.9,9.6-21.5,21.5-21.5c11.9,0,21.5,9.6,21.5,21.5v42.1C213.8,454.5,204.2,464.1,192.4,464.1z
	 M504.1,448.2c-11.9,0-21.5-9.6-21.5-21.5v-42.2c0-11.9,9.6-21.5,21.5-21.5c11.9,0,21.5,9.6,21.5,21.5v42.2
	C525.6,438.6,516,448.2,504.1,448.2z M192.4,320.1c-11.9,0-21.5-9.6-21.5-21.5v-42.2c0-11.9,9.6-21.5,21.5-21.5
	c11.9,0,21.5,9.6,21.5,21.5v42.2C213.8,310.5,204.2,320.1,192.4,320.1z M504.1,304.1c-11.9,0-21.5-9.6-21.5-21.5v-42
	c0-11.9,9.6-21.6,21.5-21.6c11.9,0,21.5,9.5,21.5,21.4v42.2C525.6,294.5,516,304.1,504.1,304.1z M433.4,207.2h-42.2
	c-11.9,0-21.5-9.6-21.5-21.5s9.6-21.5,21.5-21.5h42.2c11.9,0,21.5,9.6,21.5,21.5S445.3,207.2,433.4,207.2z M289.3,207.2h-42.1
	c-11.9,0-21.5-9.6-21.5-21.5s9.6-21.5,21.4-21.5h42.2c11.9,0,21.5,9.6,21.5,21.5S301.2,207.2,289.3,207.2z"/>
</svg>
