<?xml version="1.0" encoding="utf-8"?>
<!-- Generator: Adobe Illustrator 22.0.1, SVG Export Plug-In . SVG Version: 6.00 Build 0)  -->
<svg version="1.1" id="Layer_1" xmlns="http://www.w3.org/2000/svg" xmlns:xlink="http://www.w3.org/1999/xlink" x="0px" y="0px"
	 viewBox="0 0 456 244" style="enable-background:new 0 0 456 244;" xml:space="preserve">
<style type="text/css">
	.st0{fill:#666666;}
</style>
<path class="st0" d="M352.8,3.4h-250C49.6,3.4,6.3,46.2,6.3,98.9v44.9c0,52.7,43.3,95.5,96.5,95.5h67.6c19.4,0,31.9-17.9,42.9-33.6
	c4.2-6.1,11.1-15.9,14.8-17.9c3.6,2.1,10.4,12.2,14.5,18.4c10.4,15.5,22.1,33.1,40.3,33.1h69.9c53.3,0,96.5-42.9,96.5-95.5V98.9
	C449.3,46.2,406,3.4,352.8,3.4z M129.6,157.6c-22.4,0-40.6-18.2-40.6-40.6s18.2-40.6,40.6-40.6c22.4,0,40.6,18.2,40.6,40.6
	S151.9,157.6,129.6,157.6z M328.4,157.6c-22.4,0-40.6-18.2-40.6-40.6s18.2-40.6,40.6-40.6c22.4,0,40.6,18.2,40.6,40.6
	S350.8,157.6,328.4,157.6z"/>
</svg>
