<?xml version="1.0" encoding="utf-8"?>
<!DOCTYPE svg PUBLIC "-//W3C//DTD SVG 1.1//EN" "http://www.w3.org/Graphics/SVG/1.1/DTD/svg11.dtd">
<svg xmlns="http://www.w3.org/2000/svg" xmlns:xlink="http://www.w3.org/1999/xlink" version="1.1" baseProfile="full" width="314" height="82" viewBox="0 0 314.00 82.00" enable-background="new 0 0 314.00 82.00" xml:space="preserve">
	<g>
		<path fill="#FFFFFF" fill-opacity="1" stroke-width="0.2" stroke-linejoin="round" d="M 36.1731,0.487495C 41.0867,0.487495 45.3687,1.1525 49.019,2.4825C 52.6693,3.8125 56.1712,5.8425 59.5246,8.5725L 51.2633,18.775C 46.9319,14.5517 42.2336,12.44 37.1686,12.44C 31.6611,12.44 27.3035,14.7121 24.0956,19.2562C 20.8878,23.8004 19.2838,30.92 19.2838,40.615C 19.2838,49.995 20.9052,56.9775 24.148,61.5625C 27.3908,66.1475 31.8067,68.44 37.3957,68.44C 40.3066,68.44 42.9148,67.8858 45.2202,66.7775C 47.5257,65.6692 50.0582,64.0767 52.8178,62L 60.4153,71.9575C 57.6674,74.8508 54.2616,77.2279 50.1979,79.0887C 46.1343,80.9496 41.6049,81.88 36.6097,81.88C 29.6817,81.88 23.6095,80.305 18.3931,77.155C 13.1767,74.005 9.13343,69.3762 6.26325,63.2687C 3.39307,57.1612 1.95798,49.7617 1.95798,41.07C 1.95798,32.6 3.44838,25.3112 6.42917,19.2037C 9.40997,13.0962 13.4707,8.45 18.6114,5.265C 23.7521,2.07999 29.606,0.487495 36.1731,0.487495 Z "/>
		<path fill="#FFFFFF" fill-opacity="1" stroke-width="0.2" stroke-linejoin="round" d="M 86.0198,66.2L 116.654,66.2L 114.856,79.64L 69.5847,79.64L 69.5847,1.8L 86.0198,1.8L 86.0198,66.2 Z "/>
		<path fill="#FFFFFF" fill-opacity="1" stroke-width="0.2" stroke-linejoin="round" d="M 170.972,13.56L 143.028,13.56L 143.028,34.0875L 167.392,34.0875L 167.392,46.04L 143.028,46.04L 143.028,67.6875L 172.981,67.6875L 172.981,79.64L 126.592,79.64L 126.592,1.6075L 172.754,1.6075L 170.972,13.56 Z "/>
		<path fill="#FFFFFF" fill-opacity="1" stroke-width="0.2" stroke-linejoin="round" d="M 222.391,61.72L 198.131,61.72L 193.783,79.0625L 176.666,79.0625L 200.489,1.24L 220.487,1.24L 244.188,79.0625L 226.758,79.0625L 222.391,61.72 Z M 219.265,49.7675L 210.2,13.7875L 201.153,49.7675L 219.265,49.7675 Z "/>
		<path fill="#FFFFFF" fill-opacity="1" stroke-width="0.2" stroke-linejoin="round" d="M 276.604,49.4L 268.221,49.4L 268.221,80.1825L 251.786,80.1825L 251.786,1.6075L 275.941,1.6075C 286.292,1.6075 294.076,3.55291 299.292,7.44375C 304.509,11.3346 307.117,17.2117 307.117,25.075C 307.117,30.29 305.888,34.5629 303.431,37.8937C 300.975,41.2246 297.138,44.0217 291.922,46.285L 311.815,80.1825L 293.144,80.1825L 276.604,49.4 Z M 268.221,37.4475L 276.831,37.4475C 281.221,37.4475 284.534,36.4529 286.769,34.4637C 289.005,32.4746 290.123,29.3392 290.123,25.0575C 290.123,21.0675 288.95,18.1537 286.603,16.3162C 284.257,14.4787 280.586,13.56 275.591,13.56L 268.221,13.56L 268.221,37.4475 Z "/>
	</g>
</svg>
