<?xml version="1.0" encoding="UTF-8" standalone="no"?>
<svg width="351px" height="82px" viewBox="0 0 351 82" version="1.1" xmlns="http://www.w3.org/2000/svg" xmlns:xlink="http://www.w3.org/1999/xlink">
    <!-- Generator: Sketch 45.2 (43514) - http://www.bohemiancoding.com/sketch -->
    <title>GROUP</title>
    <desc>Created with Sketch.</desc>
    <defs></defs>
    <g id="Group-Tool" stroke="none" stroke-width="1" fill="none" fill-rule="evenodd">
        <g id="Group---Default---Locked-Buttons" transform="translate(-1026.000000, -1040.000000)" fill="#ffffff">
            <path d="M1062.572,1040.704 C1042.748,1040.704 1026.396,1054.928 1026.396,1081.136 C1026.396,1107.792 1038.38,1121.792 1060.78,1121.792 C1071.196,1121.792 1080.716,1118.768 1088.444,1113.952 L1088.444,1075.76 L1059.884,1075.76 L1061.564,1087.744 L1072.428,1087.744 L1072.428,1106.672 C1068.956,1108.576 1065.036,1109.472 1060.892,1109.472 C1049.468,1109.472 1043.644,1101.968 1043.644,1081.248 C1043.644,1061.088 1052.38,1052.912 1063.356,1052.912 C1069.74,1052.912 1074.108,1054.928 1079.148,1059.072 L1087.996,1050 C1081.5,1044.4 1073.66,1040.704 1062.572,1040.704 Z M1126.972,1089.648 L1118.572,1089.648 L1118.572,1120 L1102.108,1120 L1102.108,1042.496 L1126.3,1042.496 C1147.02,1042.496 1157.548,1050 1157.548,1065.68 C1157.548,1075.984 1152.508,1082.144 1142.204,1086.624 L1162.252,1120 L1143.548,1120 L1126.972,1089.648 Z M1118.572,1078 L1127.196,1078 C1135.82,1078 1140.524,1074.416 1140.524,1065.68 C1140.524,1057.728 1135.932,1054.256 1125.964,1054.256 L1118.572,1054.256 L1118.572,1078 Z M1200.332,1040.704 C1221.612,1040.704 1234.716,1055.264 1234.716,1081.248 C1234.716,1106.672 1221.612,1121.792 1200.332,1121.792 C1179.052,1121.792 1165.836,1107.12 1165.836,1081.248 C1165.836,1055.936 1179.052,1040.704 1200.332,1040.704 Z M1200.332,1053.024 C1189.356,1053.024 1183.196,1060.976 1183.196,1081.248 C1183.196,1101.52 1189.58,1109.472 1200.332,1109.472 C1211.42,1109.472 1217.356,1101.52 1217.356,1081.248 C1217.356,1060.976 1211.42,1053.024 1200.332,1053.024 Z M1305.052,1094.464 L1305.052,1042.496 L1288.588,1042.496 L1288.588,1093.68 C1288.588,1104.096 1284.556,1109.248 1275.484,1109.248 C1266.524,1109.248 1262.492,1104.096 1262.492,1093.68 L1262.492,1042.496 L1246.028,1042.496 L1246.028,1094.464 C1246.028,1110.592 1255.884,1121.792 1275.484,1121.792 C1295.084,1121.792 1305.052,1110.032 1305.052,1094.464 Z M1344.364,1042.496 C1364.076,1042.496 1376.172,1050.56 1376.172,1067.472 C1376.172,1085.392 1363.404,1093.568 1345.708,1093.568 L1336.86,1093.568 L1336.86,1120 L1320.396,1120 L1320.396,1042.496 L1344.364,1042.496 Z M1344.364,1081.472 C1353.436,1081.472 1359.148,1078 1359.148,1067.472 C1359.148,1058.4 1353.772,1054.368 1344.14,1054.368 L1336.86,1054.368 L1336.86,1081.472 L1344.364,1081.472 Z" id="GROUP"></path>
        </g>
    </g>
</svg>