<?xml version="1.0" encoding="UTF-8" standalone="no"?>
<svg width="161px" height="114px" viewBox="0 0 161 114" version="1.1" xmlns="http://www.w3.org/2000/svg" xmlns:xlink="http://www.w3.org/1999/xlink">
    <!-- Generator: Sketch 45.2 (43514) - http://www.bohemiancoding.com/sketch -->
    <title>group-icon</title>
    <desc>Created with Sketch.</desc>
    <defs></defs>
    <g id="Group-Tool" stroke="none" stroke-width="1" fill="none" fill-rule="evenodd">
        <g id="Group---Default---Locked-Buttons" transform="translate(-2121.000000, -183.000000)" fill-rule="nonzero" fill="#E3E3E3">
            <g id="group-icon" transform="translate(2121.000000, 183.000000)">
                <path d="M4.75,19 C7.3739,19 9.5,16.8739 9.5,14.25 L9.5,9.5 L14.25,9.5 C16.8739,9.5 19,7.3739 19,4.75 C19,2.1261 16.8739,0 14.25,0 L4.75,0 C2.1261,0 0,2.1261 0,4.75 L0,14.25 C0,16.8739 2.1261,19 4.75,19 Z" id="Shape"></path>
                <path d="M27.75,10 L37.25,10 C39.8739,10 42,7.762 42,5 C42,2.238 39.8739,0 37.25,0 L27.75,0 C25.1261,0 23,2.238 23,5 C23,7.762 25.1261,10 27.75,10 Z" id="Shape"></path>
                <path d="M51.75,10 L61.25,10 C63.8739,10 66,7.762 66,5 C66,2.238 63.8739,0 61.25,0 L51.75,0 C49.1261,0 47,2.238 47,5 C47,7.762 49.1261,10 51.75,10 Z" id="Shape"></path>
                <path d="M98.75,10 L108.25,10 C110.8739,10 113,7.762 113,5 C113,2.238 110.8739,0 108.25,0 L98.75,0 C96.1261,0 94,2.238 94,5 C94,7.762 96.1261,10 98.75,10 Z" id="Shape"></path>
                <path d="M121.75,10 L131.25,10 C133.8739,10 136,7.762 136,5 C136,2.238 133.8739,0 131.25,0 L121.75,0 C119.1261,0 117,2.238 117,5 C117,7.762 119.1261,10 121.75,10 Z" id="Shape"></path>
                <path d="M74.75,10 L84.25,10 C86.8739,10 89,7.762 89,5 C89,2.238 86.8739,0 84.25,0 L74.75,0 C72.1261,0 70,2.238 70,5 C70,7.762 72.1261,10 74.75,10 Z" id="Shape"></path>
                <path d="M160,4.75 C160,2.1261 157.8739,0 155.25,0 L145.75,0 C143.1261,0 141,2.1261 141,4.75 C141,7.3739 143.1261,9.5 145.75,9.5 L150.5,9.5 L150.5,14.25 C150.5,16.8739 152.6261,19 155.25,19 C157.8739,19 160,16.8739 160,14.25 L160,4.75 Z" id="Shape"></path>
                <path d="M161,27.75 C161,25.1261 158.762,23 156,23 C153.238,23 151,25.1261 151,27.75 L151,37.25 C151,39.8739 153.238,42 156,42 C158.762,42 161,39.8739 161,37.25 L161,27.75 Z" id="Shape"></path>
                <path d="M161,51.75 C161,49.1261 158.762,47 156,47 C153.238,47 151,49.1261 151,51.75 L151,61.25 C151,63.8739 153.238,66 156,66 C158.762,66 161,63.8739 161,61.25 L161,51.75 Z" id="Shape"></path>
                <path d="M156,71 C153.238,71 151,73.1261 151,75.75 L151,85.25 C151,87.8739 153.238,90 156,90 C158.762,90 161,87.8739 161,85.25 L161,75.75 C161,73.1261 158.762,71 156,71 Z" id="Shape"></path>
                <path d="M145.75,113 L155.25,113 C157.8739,113 160,110.8739 160,108.25 L160,98.75 C160,96.1261 157.8739,94 155.25,94 C152.6261,94 150.5,96.1261 150.5,98.75 L150.5,103.5 L145.75,103.5 C143.1261,103.5 141,105.6261 141,108.25 C141,110.8739 143.1261,113 145.75,113 Z" id="Shape"></path>
                <path d="M121.75,114 L131.25,114 C133.8739,114 136,111.762 136,109 C136,106.238 133.8739,104 131.25,104 L121.75,104 C119.1261,104 117,106.238 117,109 C117,111.762 119.1261,114 121.75,114 Z" id="Shape"></path>
                <path d="M98.75,114 L108.25,114 C110.8739,114 113,111.762 113,109 C113,106.238 110.8739,104 108.25,104 L98.75,104 C96.1261,104 94,106.238 94,109 C94,111.762 96.1261,114 98.75,114 Z" id="Shape"></path>
                <path d="M51.75,114 L61.25,114 C63.8739,114 66,111.762 66,109 C66,106.238 63.8739,104 61.25,104 L51.75,104 C49.1261,104 47,106.238 47,109 C47,111.762 49.1261,114 51.75,114 Z" id="Shape"></path>
                <path d="M27.75,114 L37.25,114 C39.8739,114 42,111.762 42,109 C42,106.238 39.8739,104 37.25,104 L27.75,104 C25.1261,104 23,106.238 23,109 C23,111.762 25.1261,114 27.75,114 Z" id="Shape"></path>
                <path d="M74.75,114 L84.25,114 C86.8739,114 89,111.762 89,109 C89,106.238 86.8739,104 84.25,104 L74.75,104 C72.1261,104 70,106.238 70,109 C70,111.762 72.1261,114 74.75,114 Z" id="Shape"></path>
                <path d="M0,108.25 C0,110.8739 2.1261,113 4.75,113 L14.25,113 C16.8739,113 19,110.8739 19,108.25 C19,105.6261 16.8739,103.5 14.25,103.5 L9.5,103.5 L9.5,98.75 C9.5,96.1261 7.3739,94 4.75,94 C2.1261,94 0,96.1261 0,98.75 L0,108.25 Z" id="Shape"></path>
                <path d="M0,85.25 C0,87.8739 2.238,90 5,90 C7.762,90 10,87.8739 10,85.25 L10,75.75 C10,73.1261 7.762,71 5,71 C2.238,71 0,73.1261 0,75.75 L0,85.25 Z" id="Shape"></path>
                <path d="M0,61.25 C0,63.8739 2.238,66 5,66 C7.762,66 10,63.8739 10,61.25 L10,51.75 C10,49.1261 7.762,47 5,47 C2.238,47 0,49.1261 0,51.75 L0,61.25 Z" id="Shape"></path>
                <path d="M0,37.25 C0,39.8739 2.238,42 5,42 C7.762,42 10,39.8739 10,37.25 L10,27.75 C10,25.1261 7.762,23 5,23 C2.238,23 0,25.1261 0,27.75 L0,37.25 Z" id="Shape"></path>
            </g>
        </g>
    </g>
</svg>