<?xml version="1.0" encoding="utf-8"?>
<!-- Generator: Adobe Illustrator 18.1.0, SVG Export Plug-In . SVG Version: 6.00 Build 0)  -->
<!DOCTYPE svg PUBLIC "-//W3C//DTD SVG 1.1//EN" "http://www.w3.org/Graphics/SVG/1.1/DTD/svg11.dtd">
<svg version="1.1" id="Layer_1" xmlns="http://www.w3.org/2000/svg" xmlns:xlink="http://www.w3.org/1999/xlink" x="0px" y="0px"
	 viewBox="0 0 9.9 9.9" enable-background="new 0 0 9.9 9.9" xml:space="preserve">
<g>
	<g>
		<path fill="#CCCCCC" d="M9.7,8.6L8.6,9.7C8.4,9.9,8.2,9.9,8,9.9c-0.2,0-0.4-0.1-0.6-0.2L5,7.3L2.5,9.7C2.4,9.9,2.2,9.9,1.9,9.9
			S1.5,9.9,1.4,9.7L0.2,8.6C0.1,8.4,0,8.2,0,8c0-0.2,0.1-0.4,0.2-0.6L2.7,5L0.2,2.5C0.1,2.4,0,2.2,0,1.9s0.1-0.4,0.2-0.6l1.1-1.1
			C1.5,0.1,1.7,0,1.9,0s0.4,0.1,0.6,0.2L5,2.7l2.5-2.5C7.6,0.1,7.8,0,8,0c0.2,0,0.4,0.1,0.6,0.2l1.1,1.1c0.2,0.2,0.2,0.4,0.2,0.6
			S9.9,2.4,9.7,2.5L7.3,5l2.5,2.5C9.9,7.6,9.9,7.8,9.9,8C9.9,8.2,9.9,8.4,9.7,8.6z"/>
	</g>
</g>
</svg>
