<?xml version="1.0" encoding="iso-8859-1"?>
<!-- Generator: Adobe Illustrator 18.1.1, SVG Export Plug-In . SVG Version: 6.00 Build 0)  -->
<!DOCTYPE svg PUBLIC "-//W3C//DTD SVG 1.1//EN" "http://www.w3.org/Graphics/SVG/1.1/DTD/svg11.dtd">
<svg version="1.1" id="Layer_1" xmlns="http://www.w3.org/2000/svg" xmlns:xlink="http://www.w3.org/1999/xlink" x="0px" y="0px"
	 viewBox="-442.8 171 127.6 220" style="enable-background:new -442.8 171 127.6 220;" xml:space="preserve">
<g id="Captions">
</g>
<g id="Your_Icon">
	<path style="fill:#FFFFFF;" d="M-379.022,253.815c15.657-14.331,25.069-27.038,25.909-31.313l-51.775-0.055
		C-403.917,226.88-394.503,239.642-379.022,253.815z"/>
	<path style="fill:#FFFFFF;" d="M-326.2,222.762c0-25.881,0-38.562,0-38.562h11V171h-127.6v13.2h11c0,0,0,12.681,0,38.562
		c0,19.413,29.121,46.105,43.677,58.238c-14.555,12.133-43.677,38.826-43.677,58.238c0,25.881,0,38.562,0,38.562h-11V391h127.6
		v-13.2h-11c0,0,0-12.681,0-38.562c0-19.413-29.117-46.105-43.679-58.238C-355.317,268.867-326.2,242.174-326.2,222.762z
		 M-339.4,339.238V364.6h-7.564c-1.192-4.4-12.848-21.281-32.017-38.821c-19.369,17.73-31.013,34.421-32.056,38.821h-7.564v-25.362
		c0-11.051,21.382-33.051,39.609-48.211C-359.053,307.543-339.4,328.989-339.4,339.238z M-379.011,270.977
		c-19.941-16.52-39.589-37.965-39.589-48.215V197.4h79.2v25.362C-339.4,233.814-360.777,255.819-379.011,270.977z"/>
</g>
</svg>
