<?xml version="1.0" encoding="utf-8"?>
<!-- Generator: Adobe Illustrator 19.2.0, SVG Export Plug-In . SVG Version: 6.00 Build 0)  -->
<svg version="1.1" id="Layer_1" xmlns="http://www.w3.org/2000/svg" xmlns:xlink="http://www.w3.org/1999/xlink" x="0px" y="0px"
	 viewBox="0 0 23.7 34.7" style="enable-background:new 0 0 23.7 34.7;" xml:space="preserve">
<style type="text/css">
	.st0{fill:#414042;}
	.st1{fill:#58595B;}
	.st2{fill:#EF3B4E;}
</style>
<path class="st0" d="M23,12.5c0-6.2-5-11.2-11.2-11.2c-6.2,0-11.2,5-11.2,11.2c0,5.2,3.6,9.6,8.4,10.8l3.2,10.1l2.6-10.2
	C19.6,21.8,23,17.5,23,12.5z M11.9,22.2c-5.4,0-9.8-4.4-9.8-9.8c0-5.4,4.4-9.8,9.8-9.8c5.4,0,9.8,4.4,9.8,9.8
	C21.6,17.9,17.3,22.2,11.9,22.2z"/>
<path class="st0" d="M12.3,33.9L9,23.4c-5-1.3-8.5-5.8-8.5-10.9c0-6.2,5.1-11.3,11.3-11.3c6.2,0,11.3,5.1,11.3,11.3
	c0,5-3.3,9.4-8.1,10.8L12.3,33.9z M11.9,1.4c-6.1,0-11.1,5-11.1,11.1c0,5.1,3.4,9.5,8.3,10.7l0.1,0l0,0.1l3.1,9.7l2.5-9.9l0.1,0
	c4.7-1.4,8-5.7,8-10.6C22.9,6.4,18,1.4,11.9,1.4z M11.9,22.4c-5.5,0-9.9-4.4-9.9-9.9s4.4-9.9,9.9-9.9s9.9,4.4,9.9,9.9
	S17.3,22.4,11.9,22.4z M11.9,2.8c-5.3,0-9.7,4.3-9.7,9.7c0,5.3,4.3,9.7,9.7,9.7s9.7-4.3,9.7-9.7C21.5,7.1,17.2,2.8,11.9,2.8z"/>
<g>
	<path class="st0" d="M16,8.3c-0.4-0.4-1.1-0.4-1.5,0L11.8,11L9,8.2c-0.4-0.4-1.1-0.4-1.5,0C7.1,8.7,7,9.4,7.5,9.8l2.7,2.7l-2.7,2.7
		c-0.4,0.4-0.4,1.1,0,1.5c0.4,0.4,1.1,0.4,1.5,0l2.7-2.7l2.7,2.7c0.4,0.4,1.1,0.4,1.5,0c0.4-0.4,0.4-1.1,0-1.5l-2.7-2.7l2.7-2.7
		C16.5,9.4,16.5,8.7,16,8.3z"/>
	<path class="st1" d="M8.3,17.3c-0.3,0-0.6-0.1-0.9-0.4C7.2,16.7,7,16.4,7,16.1c0-0.3,0.1-0.6,0.4-0.9l2.6-2.7L7.4,9.9
		c-0.5-0.5-0.5-1.2,0-1.7c0.5-0.5,1.2-0.5,1.7,0l2.7,2.7l2.6-2.7c0.2-0.2,0.5-0.4,0.9-0.4l0,0c0.3,0,0.6,0.1,0.9,0.4l0,0
		c0,0,0,0,0,0l0,0c0.2,0.2,0.4,0.5,0.4,0.9c0,0.3-0.1,0.6-0.4,0.9l-2.7,2.7l2.7,2.6c0.2,0.2,0.4,0.5,0.4,0.9c0,0.3-0.1,0.6-0.4,0.9
		c-0.5,0.5-1.3,0.5-1.7,0l-2.7-2.6l-2.7,2.7C8.9,17.2,8.6,17.3,8.3,17.3z M8.3,8.4C8.3,8.4,8.3,8.4,8.3,8.4C8,8.4,7.7,8.3,7.6,8.5
		C7.4,8.7,7.3,8.9,7.3,9.1c0,0.3,0.1,0.5,0.3,0.6l2.8,2.8l-2.8,2.8c-0.4,0.4-0.4,1,0,1.4c0.4,0.4,1,0.4,1.4,0l2.8-2.8l2.8,2.8
		c0.4,0.4,1,0.4,1.4,0c0.2-0.2,0.3-0.4,0.3-0.7c0-0.3-0.1-0.5-0.3-0.7l-2.8-2.8L16,9.7c0.2-0.2,0.3-0.4,0.3-0.7
		c0-0.3-0.1-0.5-0.3-0.7l0,0c-0.2-0.2-0.4-0.3-0.7-0.3l0,0c-0.3,0-0.5,0.1-0.7,0.3l-2.8,2.8L8.9,8.5C8.8,8.3,8.5,8.4,8.3,8.4z"/>
</g>
<g>
	<path class="st2" d="M23,12c0-6.2-5-11.2-11.2-11.2C5.7,0.8,0.7,5.9,0.7,12c0,5.2,3.6,9.6,8.4,10.8L12.3,33L15,22.8
		C19.6,21.4,23,17.1,23,12z M11.9,21.8c-5.4,0-9.8-4.4-9.8-9.8c0-5.4,4.4-9.8,9.8-9.8c5.4,0,9.8,4.4,9.8,9.8
		C21.7,17.4,17.3,21.8,11.9,21.8z"/>
	<path class="st2" d="M16.1,7.8c-0.4-0.4-1.1-0.4-1.5,0l-2.7,2.7L9,7.8c-0.4-0.4-1.1-0.4-1.5,0C7.1,8.3,7.1,9,7.5,9.4l2.7,2.7
		l-2.7,2.7c-0.4,0.4-0.4,1.1,0,1.5c0.4,0.4,1.1,0.4,1.5,0l2.7-2.7l2.7,2.7c0.4,0.4,1.1,0.4,1.5,0c0.4-0.4,0.4-1.1,0-1.5l-2.7-2.7
		l2.7-2.7C16.5,9,16.5,8.3,16.1,7.8z"/>
</g>
</svg>
