<?xml version="1.0" encoding="utf-8"?>
<!-- Generator: Adobe Illustrator 19.2.0, SVG Export Plug-In . SVG Version: 6.00 Build 0)  -->
<svg version="1.1" id="Layer_1" xmlns="http://www.w3.org/2000/svg" xmlns:xlink="http://www.w3.org/1999/xlink" x="0px" y="0px"
	 viewBox="0 0 30 23.1" style="enable-background:new 0 0 30 23.1;" xml:space="preserve">
<style type="text/css">
	.st0{fill:#414042;}
	.st1{fill:#EF3B4E;}
	.st2{fill:#FFFFFF;}
</style>
<path class="st0" d="M1.3,1.7H29c0.4,0,0.7,0.3,0.7,0.7v6c0,0.4-0.3,0.7-0.7,0.7H1.3c-0.4,0-0.7-0.3-0.7-0.7v-6
	C0.6,2,0.9,1.7,1.3,1.7z"/>
<polygon class="st0" points="12.2,12 15.4,22.1 18,12 "/>
<path class="st1" d="M1.1,1.4h27.7c0.4,0,0.7,0.3,0.7,0.7v6c0,0.4-0.3,0.7-0.7,0.7H1.1c-0.4,0-0.7-0.3-0.7-0.7v-6
	C0.3,1.7,0.7,1.4,1.1,1.4z"/>
<path class="st0" d="M8.2,7.1V3H9v2l1.8-2h0.8L10,4.8l1.7,2.3h-0.8L9.6,5.2L9,5.8v1.2H8.2z"/>
<path class="st0" d="M12.2,7.1V3H13v4.1H12.2L12.2,7.1z"/>
<path class="st0" d="M13.8,5c0-0.3,0-0.5,0.1-0.7C14,4,14.1,3.8,14.3,3.6c0.2-0.2,0.4-0.4,0.6-0.5c0.3-0.1,0.5-0.2,0.8-0.2
	c0.4,0,0.7,0.1,1,0.2c0.3,0.2,0.5,0.4,0.6,0.6l-0.6,0.4c0-0.1-0.1-0.2-0.2-0.3c-0.1-0.1-0.1-0.1-0.2-0.2c-0.1,0-0.2-0.1-0.3-0.1
	c-0.1,0-0.2,0-0.3,0c-0.2,0-0.3,0-0.5,0.1C15.1,3.9,15,4,14.9,4.1c-0.1,0.1-0.2,0.3-0.2,0.4c0,0.2-0.1,0.3-0.1,0.5
	c0,0.2,0,0.4,0.1,0.5c0.1,0.2,0.1,0.3,0.2,0.4c0.1,0.1,0.2,0.2,0.4,0.3c0.1,0.1,0.3,0.1,0.5,0.1c0.1,0,0.1,0,0.2,0
	c0.2,0,0.4-0.2,0.5-0.3c0.1-0.1,0.1-0.2,0.2-0.3l0.6,0.4c-0.1,0.2-0.2,0.3-0.3,0.4c-0.1,0.1-0.3,0.2-0.4,0.3C16.5,7,16.4,7,16.2,7.1
	c-0.2,0-0.3,0.1-0.5,0.1c-0.3,0-0.5-0.1-0.8-0.2c-0.2-0.1-0.4-0.3-0.6-0.6C14,6,13.8,5.5,13.8,5z"/>
<path class="st0" d="M18,7.1V3h0.8v2l1.8-2h0.8l-1.6,1.8l1.7,2.3h-0.8l-1.3-1.8l-0.5,0.6v1.2L18,7.1L18,7.1z"/>
<path class="st2" d="M8,6.9V2.8h0.8v2l1.8-2h0.8L9.9,4.6l1.7,2.3h-0.8L9.4,5.1L8.8,5.7v1.2H8z"/>
<path class="st2" d="M12,6.9V2.8h0.8v4.1H12z"/>
<path class="st2" d="M13.6,4.8c0-0.3,0-0.5,0.1-0.7c0.1-0.2,0.2-0.5,0.4-0.7c0.2-0.2,0.4-0.4,0.6-0.5c0.3-0.1,0.5-0.2,0.8-0.2
	c0.4,0,0.7,0.1,1,0.2c0.3,0.2,0.5,0.4,0.6,0.6l-0.6,0.4c0-0.1-0.1-0.2-0.2-0.3c-0.1-0.1-0.1-0.1-0.2-0.2c-0.1,0-0.2-0.1-0.3-0.1
	c-0.1,0-0.2,0-0.3,0c-0.2,0-0.3,0-0.5,0.1c-0.1,0.1-0.3,0.2-0.4,0.3c-0.1,0.1-0.2,0.3-0.2,0.4c0,0.2-0.1,0.3-0.1,0.5
	c0,0.2,0,0.4,0.1,0.5c0.1,0.2,0.1,0.3,0.2,0.4c0.1,0.1,0.2,0.2,0.4,0.3c0.1,0.1,0.3,0.1,0.5,0.1c0.1,0,0.2,0,0.3,0
	c0.2,0,0.4-0.2,0.5-0.3c0.1-0.1,0.1-0.2,0.2-0.3L17.2,6c-0.1,0.2-0.2,0.3-0.3,0.4c-0.1,0.1-0.3,0.2-0.4,0.3
	c-0.1,0.1-0.3,0.1-0.5,0.2C15.9,7,15.7,7,15.6,7c-0.3,0-0.5-0.1-0.8-0.2c-0.2-0.1-0.4-0.3-0.6-0.5C13.8,5.9,13.6,5.4,13.6,4.8z"/>
<path class="st2" d="M17.9,6.9V2.8h0.8v2l1.8-2h0.8l-1.6,1.8l1.7,2.3h-0.8l-1.3-1.8l-0.5,0.6v1.2C18.7,6.9,17.9,6.9,17.9,6.9z"/>
<polygon class="st1" points="12,11.7 15.1,21.8 17.8,11.7 "/>
</svg>
