<?xml version="1.0" encoding="utf-8"?>
<!-- Generator: Adobe Illustrator 19.2.0, SVG Export Plug-In . SVG Version: 6.00 Build 0)  -->
<svg version="1.1" id="Layer_1" xmlns="http://www.w3.org/2000/svg" xmlns:xlink="http://www.w3.org/1999/xlink" x="0px" y="0px"
	 viewBox="0 0 293 225.4" style="enable-background:new 0 0 293 225.4;" xml:space="preserve">
<style type="text/css">
	.st0{fill:#EF3B4E;}
	.st1{fill:#FFFFFF;}
</style>
<path d="M15.1,22.7h266.8c3.9,0,7.1,3.2,7.1,7.1v57.7c0,3.9-3.2,7.1-7.1,7.1H15.1c-3.9,0-7.1-3.2-7.1-7.1V29.9
	C7.9,25.9,11.1,22.7,15.1,22.7z"/>
<polygon points="120.4,121.9 150.8,219 176.6,121.9 "/>
<path class="st0" d="M12.8,19.9h266.8c3.9,0,7.1,3.2,7.1,7.1v57.7c0,3.9-3.2,7.1-7.1,7.1H12.8c-3.9,0-7.1-3.2-7.1-7.1V27
	C5.6,23,8.8,19.9,12.8,19.9z"/>
<path d="M81.8,74.3V34.8h7.5v19.3l17.2-19.3h8L99,52.3l16.1,22h-7.7L94.8,56.7l-5.5,5.7v12H81.8z"/>
<path d="M120.4,74.3V34.8h7.5v39.5h-7.7H120.4z"/>
<path d="M135.4,54.3c0-2.4,0.4-4.8,1.3-7.1c0.8-2.3,2.1-4.5,3.7-6.4c1.7-1.9,3.7-3.4,6-4.5c2.5-1.2,5.2-1.8,8-1.7
	c3.4-0.2,6.7,0.7,9.6,2.4c2.5,1.5,4.4,3.7,5.7,6.3l-5.9,4c-0.4-1-1-2-1.7-2.8c-0.7-0.7-1.4-1.4-2.3-1.8c-0.8-0.4-1.7-0.8-2.6-1
	c-0.9-0.1-1.7-0.1-2.6,0c-1.7,0-3.3,0.4-4.8,1.2c-1.4,0.8-2.6,1.8-3.5,3.1c-0.9,1.3-1.6,2.7-2,4.2c-0.5,1.5-0.7,3.1-0.7,4.7
	c0,1.7,0.2,3.4,0.8,5c0.5,1.5,1.3,3,2.3,4.2c1,1.2,2.2,2.2,3.6,3c1.4,0.8,2.9,1.1,4.5,1.2c0.7,0,1.4-0.1,2.1-0.3
	c1.9-0.4,3.6-1.5,4.9-2.9c0.7-0.8,1.3-1.8,1.7-2.8l6.3,3.7c-0.6,1.5-1.5,2.8-2.6,4c-1.1,1.1-2.4,2.1-3.9,2.9c-1.4,0.8-3,1.4-4.5,1.8
	c-1.5,0.4-3.1,0.6-4.7,0.6c-2.6,0-5.2-0.6-7.5-1.8c-2.3-1.4-4.3-3.2-5.9-5.4C137.3,64.1,135.5,59.3,135.4,54.3z"/>
<path d="M176.1,74.3V34.8h7.7v19.3L201,34.8h8l-15.1,17.5l16.1,22H202l-12.6-17.6l-5.3,5.8v12L176.1,74.3L176.1,74.3z"/>
<path class="st1" d="M79.7,72.7V33.2h7.7v19.3l17.2-19.3h8L97.6,50.6l16.1,22h-8.1L93,54.9l-5.3,5.8v12H79.7z"/>
<path class="st1" d="M118.2,72.7V33.2h7.7v39.5H118.2z"/>
<path class="st1" d="M133.6,52.5c0-2.4,0.4-4.8,1.3-7.1c0.8-2.3,2.1-4.5,3.8-6.4c1.7-1.9,3.7-3.4,6-4.5c2.5-1.2,5.2-1.8,8-1.7
	c3.4-0.2,6.7,0.7,9.6,2.4c2.5,1.5,4.4,3.7,5.7,6.3l-5.9,4c-0.4-1-1-2-1.7-2.8c-0.7-0.7-1.4-1.4-2.3-1.8c-0.8-0.4-1.7-0.8-2.6-1
	c-0.9-0.1-1.7-0.1-2.6,0c-1.7,0-3.3,0.4-4.8,1.2c-1.4,0.8-2.6,1.8-3.5,3.1c-0.9,1.3-1.6,2.7-2,4.2c-0.5,1.5-0.7,3.1-0.7,4.7
	c0,1.7,0.2,3.4,0.8,5c0.5,1.5,1.3,3,2.3,4.2c1,1.2,2.2,2.2,3.6,3c1.4,0.8,2.9,1.1,4.5,1.2c0.9,0.1,1.7,0.1,2.6,0
	c1.9-0.4,3.6-1.5,4.9-2.9c0.7-0.8,1.3-1.8,1.7-2.8l6.3,3.7c-0.6,1.5-1.5,2.8-2.6,4c-1.1,1.1-2.4,2.1-3.9,2.9c-1.4,0.8-3,1.4-4.5,1.8
	c-1.5,0.4-3.1,0.6-4.7,0.6c-2.6,0-5.2-0.6-7.5-1.8c-2.2-1.2-4.2-2.7-5.9-4.6C135.6,63.3,133.6,58,133.6,52.5z"/>
<path class="st1" d="M174.6,72.7V33.2h7.7v19.3l17.2-19.3h8l-15.2,17.5l16.1,22h-8.1l-12.6-17.6l-5.3,5.8v12H174.6z"/>
<polygon class="st0" points="118,119 148.5,216.1 174.3,119 "/>
</svg>
