<?xml version="1.0" encoding="utf-8"?>
<!-- Generator: Adobe Illustrator 21.1.0, SVG Export Plug-In . SVG Version: 6.00 Build 0)  -->
<svg version="1.1" id="Layer_1" xmlns="http://www.w3.org/2000/svg" xmlns:xlink="http://www.w3.org/1999/xlink" x="0px" y="0px"
	 viewBox="0 0 50 50" style="enable-background:new 0 0 50 50;" xml:space="preserve">
<path d="M18.5,36.5c-6.8-2.2-6.8-11.8-0.1-14.1l12.1-4.1c-2.6-2.4-6.1-3.8-9.9-3.8c-8.2,0-14.8,6.6-14.8,14.8
	c0,8.2,6.6,14.8,14.8,14.8c3.7,0,7.1-1.4,9.7-3.7L18.5,36.5z"/>
<path d="M31.9,17.9c-0.5,0.2-0.9,0.3-1.3,0.5c2.9,2.7,4.8,6.6,4.8,10.9c0,4.4-1.9,8.3-4.9,11c0.5,0.2,1,0.5,1.6,0.7l5.9,2.4
	c3.1,1,6.2-1.3,6.2-4.5V13.2L31.9,17.9z"/>
<circle cx="40" cy="6.6" r="3.7"/>
</svg>
