<?xml version="1.0" encoding="utf-8"?>
<!-- Generator: Adobe Illustrator 18.1.1, SVG Export Plug-In . SVG Version: 6.00 Build 0)  -->
<!DOCTYPE svg PUBLIC "-//W3C//DTD SVG 1.1//EN" "http://www.w3.org/Graphics/SVG/1.1/DTD/svg11.dtd">
<svg version="1.1" id="Layer_1" xmlns="http://www.w3.org/2000/svg" xmlns:xlink="http://www.w3.org/1999/xlink" x="0px" y="0px"
	 viewBox="0 0 17.1 32.5" enable-background="new 0 0 17.1 32.5" xml:space="preserve">
<g>
	<g>
		<path fill="#666666" d="M16.1,1v14.2H1V1H16.1 M17.1,0H0v16.2h17.1V0L17.1,0z"/>
	</g>
	<path fill="#B2B2B2" d="M8.8,11.3c-0.2,0.2-0.4,0.2-0.6,0L3.5,6.6C3.4,6.4,3.4,6.2,3.5,6l1.1-1.1c0.2-0.2,0.4-0.2,0.6,0l3.4,3.4
		l3.4-3.4c0.2-0.2,0.4-0.2,0.6,0L13.6,6c0.2,0.2,0.2,0.4,0,0.6L8.8,11.3z"/>
</g>
<g>
	<g>
		<path fill="#666666" d="M16.1,17.2v14.2H1V17.2H16.1 M17.1,16.2H0v16.2h17.1V16.2L17.1,16.2z"/>
	</g>
	<path fill="#B2B2B2" d="M8.3,21.2c0.2-0.2,0.4-0.2,0.6,0l4.7,4.7c0.2,0.2,0.2,0.4,0,0.6l-1.1,1.1c-0.2,0.2-0.4,0.2-0.6,0l-3.4-3.4
		l-3.4,3.4c-0.2,0.2-0.4,0.2-0.6,0l-1.1-1.1c-0.2-0.2-0.2-0.4,0-0.6L8.3,21.2z"/>
</g>
</svg>
