<?xml version="1.0" encoding="utf-8"?>
<!-- Generator: Adobe Illustrator 19.2.0, SVG Export Plug-In . SVG Version: 6.00 Build 0)  -->
<svg version="1.1" id="Layer_1" xmlns="http://www.w3.org/2000/svg" xmlns:xlink="http://www.w3.org/1999/xlink" x="0px" y="0px"
	 viewBox="0 0 293 101.9" style="enable-background:new 0 0 293 101.9;" xml:space="preserve">
<style type="text/css">
	.st0{fill:#EF3B4E;}
	.st1{fill:#FFFFFF;}
</style>
<path d="M16.2,23.2H283c3.9,0,7.1,3.2,7.1,7.1V88c0,3.9-3.2,7.1-7.1,7.1H16.2c-3.9,0-7.1-3.2-7.1-7.1V30.3
	C9.1,26.4,12.3,23.2,16.2,23.2z"/>
<path class="st0" d="M13.9,20.3h266.8c3.9,0,7.1,3.2,7.1,7.1v57.7c0,3.9-3.2,7.1-7.1,7.1H13.9c-3.9,0-7.1-3.2-7.1-7.1V27.4
	C6.8,23.5,10,20.3,13.9,20.3z"/>
<g>
	<g>
		<path d="M103.4,79.8V52.4L92.8,72.8h-4.4L77.7,52.4v27.4h-8.1V38.3h8.6l12.3,23.6l12.4-23.6h8.6v41.5H103.4z"/>
		<path d="M137.6,73c1.9,0,3.5-0.4,4.8-1.2c1.3-0.8,2.4-1.8,3.2-3c0.8-1.2,1.4-2.7,1.7-4.3c0.3-1.6,0.5-3.3,0.5-5V38.3h8v21.1
			c0,2.8-0.3,5.5-1,8c-0.7,2.5-1.8,4.7-3.2,6.5c-1.5,1.9-3.3,3.3-5.6,4.4c-2.3,1.1-5,1.6-8.2,1.6c-3.3,0-6.1-0.6-8.4-1.7
			c-2.3-1.1-4.2-2.7-5.6-4.6c-1.4-1.9-2.5-4.1-3.1-6.6c-0.6-2.5-1-5.1-1-7.8V38.3h8.1v21.1c0,1.8,0.2,3.4,0.5,5.1
			c0.3,1.6,0.9,3,1.7,4.3c0.8,1.2,1.8,2.2,3.1,3C134.2,72.6,135.7,73,137.6,73z"/>
		<path d="M194.8,45.4h-13.2v34.4h-8.1V45.4h-13.3v-7.1h34.5V45.4z"/>
		<path d="M228.8,72.7v7.1H200V38.3h28.3v7.1h-20.2v10h17.5v6.5h-17.5v10.8H228.8z"/>
	</g>
	<g>
		<path class="st1" d="M101.5,77.9V50.4L90.8,70.9h-4.4L75.7,50.4v27.4h-8.1V36.4h8.6L88.6,60L101,36.4h8.6v41.5H101.5z"/>
		<path class="st1" d="M135.7,71c1.9,0,3.5-0.4,4.8-1.2c1.3-0.8,2.4-1.8,3.2-3c0.8-1.2,1.4-2.7,1.7-4.3c0.3-1.6,0.5-3.3,0.5-5V36.4
			h8v21.1c0,2.8-0.3,5.5-1,8c-0.7,2.5-1.8,4.7-3.2,6.5c-1.5,1.9-3.3,3.3-5.6,4.4c-2.3,1.1-5,1.6-8.2,1.6c-3.3,0-6.1-0.6-8.4-1.7
			c-2.3-1.1-4.2-2.7-5.6-4.6c-1.4-1.9-2.5-4.1-3.1-6.6c-0.6-2.5-1-5.1-1-7.8V36.4h8.1v21.1c0,1.8,0.2,3.4,0.5,5.1
			c0.3,1.6,0.9,3,1.7,4.3c0.8,1.2,1.8,2.2,3.1,3C132.2,70.6,133.8,71,135.7,71z"/>
		<path class="st1" d="M192.9,43.5h-13.2v34.4h-8.1V43.5h-13.3v-7.1h34.5V43.5z"/>
		<path class="st1" d="M226.9,70.8v7.1h-28.8V36.4h28.3v7.1h-20.2v10h17.5V60h-17.5v10.8H226.9z"/>
	</g>
</g>
</svg>
