<?xml version="1.0" encoding="utf-8"?>
<!-- Generator: Adobe Illustrator 19.2.0, SVG Export Plug-In . SVG Version: 6.00 Build 0)  -->
<svg version="1.1" id="Layer_1" xmlns="http://www.w3.org/2000/svg" xmlns:xlink="http://www.w3.org/1999/xlink" x="0px" y="0px"
	 viewBox="0 0 256 32" style="enable-background:new 0 0 256 32;" xml:space="preserve">
<style type="text/css">
	.st0{fill:#383838;stroke:#1E1E1E;stroke-width:0.5;stroke-miterlimit:10;}
	.st1{fill:#FFFFFF;stroke:#BABABA;stroke-width:0.25;stroke-miterlimit:10;}
</style>
<g>
	<path class="st0" d="M5.5,8v14.8h7.8l-0.3,2H3.2V8H5.5z"/>
	<path class="st0" d="M16.7,15.3c0-1.2,0.1-2.2,0.3-3.2c0.2-0.9,0.5-1.8,1.1-2.4c0.5-0.7,1.2-1.2,2-1.6c0.8-0.4,1.9-0.5,3.2-0.5
		c1.3,0,2.4,0.2,3.2,0.5c0.8,0.4,1.5,0.9,2,1.5c0.5,0.7,0.8,1.5,1,2.4c0.2,1,0.3,2,0.3,3.2v2.1c0,1.2-0.1,2.2-0.3,3.2
		c-0.2,0.9-0.5,1.8-1.1,2.4c-0.5,0.7-1.2,1.2-2,1.6c-0.8,0.4-1.9,0.5-3.2,0.5c-1.3,0-2.4-0.2-3.2-0.5c-0.9-0.4-1.5-0.9-2-1.5
		c-0.5-0.7-0.8-1.5-1-2.4c-0.2-1-0.3-2-0.3-3.2V15.3z M27.4,15.3c0-1.2-0.1-2.1-0.2-2.9c-0.2-0.7-0.4-1.3-0.8-1.7
		c-0.3-0.4-0.8-0.7-1.3-0.9c-0.5-0.2-1.1-0.2-1.8-0.2S22,9.7,21.5,9.8c-0.5,0.2-1,0.5-1.3,0.9c-0.3,0.4-0.6,1-0.8,1.8
		c-0.2,0.7-0.3,1.7-0.3,2.8v2.1c0,1.2,0.1,2.1,0.2,2.9s0.4,1.3,0.8,1.7c0.3,0.4,0.8,0.7,1.3,0.9c0.5,0.2,1.1,0.2,1.8,0.2
		s1.3-0.1,1.8-0.2c0.5-0.2,1-0.5,1.3-0.9c0.3-0.4,0.6-1,0.8-1.7c0.2-0.7,0.3-1.7,0.3-2.9V15.3z"/>
	<path class="st0" d="M43.6,20h-6.4l-1.6,4.7h-2.4L39.1,8h2.6l5.9,16.8h-2.5L43.6,20z M37.8,18.1H43l-2.6-7.8L37.8,18.1z"/>
	<path class="st0" d="M52,8h5.5c1.4,0,2.5,0.2,3.4,0.6c0.9,0.4,1.6,0.9,2.2,1.6c0.5,0.7,0.9,1.4,1.1,2.4c0.2,0.9,0.3,1.9,0.3,3v1.9
		c0,1.1-0.1,2.1-0.3,3c-0.2,0.9-0.6,1.7-1.2,2.4c-0.6,0.7-1.3,1.2-2.2,1.5c-0.9,0.4-2,0.5-3.4,0.5H52V8z M54.4,22.8h3
		c0.8,0,1.5-0.1,2.1-0.3c0.6-0.2,1.1-0.5,1.5-0.9c0.4-0.4,0.7-1,0.9-1.7c0.2-0.7,0.3-1.6,0.3-2.7v-1.6c0-1.1-0.1-2-0.3-2.7
		c-0.2-0.7-0.5-1.3-0.9-1.7c-0.4-0.4-0.9-0.8-1.5-0.9c-0.6-0.2-1.3-0.3-2.1-0.3h-3V22.8z"/>
	<path class="st0" d="M72.3,24.8h-2.4V8h2.4V24.8z"/>
	<path class="st0" d="M80.2,8l7.9,13V8h2.2v16.8h-2.1l-7.9-13v13H78V8H80.2z"/>
	<path class="st0" d="M103.3,9.7c-1,0-1.8,0.1-2.4,0.3s-1.2,0.5-1.6,0.9c-0.4,0.4-0.7,1.1-0.9,1.8c-0.2,0.8-0.3,1.7-0.3,2.9v1.6
		c0,1.2,0.1,2.1,0.3,2.9c0.2,0.7,0.5,1.3,0.8,1.8c0.4,0.4,0.9,0.7,1.5,0.9c0.6,0.2,1.4,0.3,2.3,0.3c0.8,0,1.5-0.1,2.2-0.2v-5.2h-2.8
		l0.3-1.9h4.8v8.6c-0.3,0.1-0.6,0.2-1,0.3s-0.8,0.2-1.2,0.2c-0.4,0.1-0.8,0.1-1.3,0.1c-0.4,0-0.8,0-1.2,0c-1.5,0-2.7-0.2-3.6-0.6
		c-0.9-0.4-1.6-0.9-2.1-1.6c-0.5-0.7-0.9-1.5-1-2.4c-0.2-0.9-0.3-2-0.3-3.1v-1.7c0-1.2,0.1-2.3,0.3-3.2c0.2-1,0.6-1.8,1.2-2.5
		c0.6-0.7,1.3-1.2,2.3-1.6c1-0.4,2.2-0.6,3.7-0.6c0.7,0,1.5,0.1,2.2,0.2c0.7,0.1,1.3,0.3,1.7,0.4l-0.4,1.8c-0.4-0.1-0.9-0.2-1.5-0.3
		C104.5,9.8,103.9,9.7,103.3,9.7z"/>
	<path class="st0" d="M127.1,25c-1.4,0-2.6-0.2-3.5-0.5c-0.9-0.3-1.6-0.8-2.1-1.5c-0.5-0.6-0.9-1.4-1.1-2.4c-0.2-1-0.3-2.1-0.3-3.3
		v-1.7c0-1.2,0.1-2.3,0.3-3.3c0.2-1,0.6-1.8,1.2-2.5c0.6-0.7,1.3-1.2,2.2-1.5c0.9-0.4,2.1-0.5,3.5-0.5c0.7,0,1.4,0.1,2,0.2
		c0.6,0.1,1.1,0.2,1.5,0.4l-0.4,1.8c-0.4-0.1-0.8-0.2-1.3-0.3c-0.5-0.1-1-0.1-1.5-0.1c-0.9,0-1.7,0.1-2.3,0.3
		c-0.6,0.2-1.1,0.5-1.5,0.9c-0.4,0.4-0.7,1.1-0.9,1.8c-0.2,0.8-0.3,1.7-0.3,2.9v1.6c0,1.2,0.1,2.1,0.2,2.9c0.2,0.7,0.4,1.3,0.8,1.8
		c0.4,0.4,0.9,0.7,1.5,0.9c0.6,0.2,1.4,0.3,2.4,0.3c0.5,0,1,0,1.6-0.1c0.6-0.1,1.1-0.1,1.6-0.2l-0.4,1.9c-0.5,0.1-1,0.2-1.6,0.3
		C128.1,25,127.6,25,127.1,25z"/>
	<path class="st0" d="M134.6,15.3c0-1.2,0.1-2.2,0.3-3.2c0.2-0.9,0.5-1.8,1.1-2.4c0.5-0.7,1.2-1.2,2-1.6c0.8-0.4,1.9-0.5,3.2-0.5
		c1.3,0,2.4,0.2,3.2,0.5c0.8,0.4,1.5,0.9,2,1.5c0.5,0.7,0.8,1.5,1,2.4c0.2,1,0.3,2,0.3,3.2v2.1c0,1.2-0.1,2.2-0.3,3.2
		c-0.2,0.9-0.5,1.8-1.1,2.4c-0.5,0.7-1.2,1.2-2,1.6c-0.8,0.4-1.9,0.5-3.2,0.5c-1.3,0-2.4-0.2-3.2-0.5c-0.9-0.4-1.5-0.9-2-1.5
		c-0.5-0.7-0.8-1.5-1-2.4c-0.2-1-0.3-2-0.3-3.2V15.3z M145.3,15.3c0-1.2-0.1-2.1-0.2-2.9c-0.2-0.7-0.4-1.3-0.8-1.7
		c-0.3-0.4-0.8-0.7-1.3-0.9c-0.5-0.2-1.1-0.2-1.8-0.2s-1.3,0.1-1.8,0.2c-0.5,0.2-1,0.5-1.3,0.9c-0.3,0.4-0.6,1-0.8,1.8
		c-0.2,0.7-0.3,1.7-0.3,2.8v2.1c0,1.2,0.1,2.1,0.2,2.9c0.2,0.7,0.4,1.3,0.8,1.7c0.3,0.4,0.8,0.7,1.3,0.9c0.5,0.2,1.1,0.2,1.8,0.2
		s1.3-0.1,1.8-0.2c0.5-0.2,1-0.5,1.3-0.9c0.3-0.4,0.6-1,0.8-1.7c0.2-0.7,0.3-1.7,0.3-2.9V15.3z"/>
	<path class="st0" d="M155.2,8l7.9,13V8h2.2v16.8h-2.1l-7.9-13v13h-2.2V8H155.2z"/>
	<path class="st0" d="M182.8,8l-0.3,2h-5.2v14.8H175V9.9h-5.4l0.3-2H182.8z"/>
	<path class="st0" d="M197.6,8l-0.3,1.9h-7.9v5.3h7.4l-0.3,1.9h-7.1v5.7h8.2l-0.3,1.9H187V8H197.6z"/>
	<path class="st0" d="M204.7,8l7.9,13V8h2.2v16.8h-2.1l-7.9-13v13h-2.2V8H204.7z"/>
	<path class="st0" d="M232.3,8l-0.3,2h-5.2v14.8h-2.3V9.9h-5.4l0.3-2H232.3z"/>
	<path class="st0" d="M235.2,24.9c-0.5,0-0.9-0.1-1.1-0.4c-0.2-0.3-0.4-0.6-0.4-1.1c0-0.5,0.1-0.8,0.4-1.1c0.2-0.3,0.6-0.4,1.1-0.4
		c0.5,0,0.9,0.1,1.1,0.4c0.2,0.3,0.4,0.6,0.4,1.1c0,0.5-0.1,0.8-0.4,1.1C236.1,24.8,235.7,24.9,235.2,24.9z"/>
	<path class="st0" d="M243.3,24.9c-0.5,0-0.9-0.1-1.1-0.4c-0.2-0.3-0.4-0.6-0.4-1.1c0-0.5,0.1-0.8,0.4-1.1c0.2-0.3,0.6-0.4,1.1-0.4
		s0.9,0.1,1.1,0.4c0.2,0.3,0.4,0.6,0.4,1.1c0,0.5-0.1,0.8-0.4,1.1C244.2,24.8,243.8,24.9,243.3,24.9z"/>
	<path class="st0" d="M251.3,24.9c-0.5,0-0.9-0.1-1.1-0.4c-0.2-0.3-0.4-0.6-0.4-1.1c0-0.5,0.1-0.8,0.4-1.1c0.2-0.3,0.6-0.4,1.1-0.4
		s0.9,0.1,1.1,0.4c0.2,0.3,0.4,0.6,0.4,1.1c0,0.5-0.1,0.8-0.4,1.1C252.2,24.8,251.8,24.9,251.3,24.9z"/>
</g>
<g>
	<path class="st1" d="M6.6,6.8v14.8h7.8l-0.3,2H4.3V6.8H6.6z"/>
	<path class="st1" d="M17.8,14.2c0-1.2,0.1-2.2,0.3-3.2c0.2-0.9,0.5-1.8,1.1-2.4c0.5-0.7,1.2-1.2,2-1.6c0.8-0.4,1.9-0.5,3.2-0.5
		c1.3,0,2.4,0.2,3.2,0.5c0.8,0.4,1.5,0.9,2,1.5c0.5,0.7,0.8,1.5,1,2.4c0.2,1,0.3,2,0.3,3.2v2.1c0,1.2-0.1,2.2-0.3,3.2
		c-0.2,0.9-0.5,1.8-1.1,2.4c-0.5,0.7-1.2,1.2-2,1.6S25.7,24,24.4,24c-1.3,0-2.4-0.2-3.2-0.5c-0.9-0.4-1.5-0.9-2-1.5
		c-0.5-0.7-0.8-1.5-1-2.4c-0.2-1-0.3-2-0.3-3.2V14.2z M28.6,14.2c0-1.2-0.1-2.1-0.2-2.9c-0.2-0.7-0.4-1.3-0.8-1.7
		c-0.3-0.4-0.8-0.7-1.3-0.9c-0.5-0.2-1.1-0.2-1.8-0.2c-0.7,0-1.3,0.1-1.8,0.2c-0.5,0.2-1,0.5-1.3,0.9c-0.3,0.4-0.6,1-0.8,1.8
		c-0.2,0.7-0.3,1.7-0.3,2.8v2.1c0,1.2,0.1,2.1,0.2,2.9c0.2,0.7,0.4,1.3,0.8,1.7c0.3,0.4,0.8,0.7,1.3,0.9c0.5,0.2,1.1,0.2,1.8,0.2
		c0.7,0,1.3-0.1,1.8-0.2c0.5-0.2,1-0.5,1.3-0.9c0.3-0.4,0.6-1,0.8-1.7c0.2-0.7,0.3-1.7,0.3-2.9V14.2z"/>
	<path class="st1" d="M44.8,18.9h-6.4l-1.6,4.7h-2.4l5.9-16.8h2.6l5.9,16.8h-2.5L44.8,18.9z M38.9,17h5.2l-2.6-7.8L38.9,17z"/>
	<path class="st1" d="M53.1,6.8h5.5c1.4,0,2.5,0.2,3.4,0.6C63,7.8,63.7,8.3,64.3,9c0.5,0.7,0.9,1.4,1.1,2.4c0.2,0.9,0.3,1.9,0.3,3
		v1.9c0,1.1-0.1,2.1-0.3,3c-0.2,0.9-0.6,1.7-1.2,2.4c-0.6,0.7-1.3,1.2-2.2,1.5c-0.9,0.4-2,0.5-3.4,0.5h-5.5V6.8z M55.5,21.7h3
		c0.8,0,1.5-0.1,2.1-0.3c0.6-0.2,1.1-0.5,1.5-0.9c0.4-0.4,0.7-1,0.9-1.7c0.2-0.7,0.3-1.6,0.3-2.7v-1.6c0-1.1-0.1-2-0.3-2.7
		c-0.2-0.7-0.5-1.3-0.9-1.7c-0.4-0.4-0.9-0.8-1.5-0.9c-0.6-0.2-1.3-0.3-2.1-0.3h-3V21.7z"/>
	<path class="st1" d="M73.4,23.6h-2.4V6.8h2.4V23.6z"/>
	<path class="st1" d="M81.3,6.8l7.9,13v-13h2.2v16.8h-2.1l-7.9-13v13h-2.2V6.8H81.3z"/>
	<path class="st1" d="M104.4,8.6c-1,0-1.8,0.1-2.4,0.3c-0.7,0.2-1.2,0.5-1.6,0.9c-0.4,0.4-0.7,1.1-0.9,1.8c-0.2,0.8-0.3,1.7-0.3,2.9
		v1.6c0,1.2,0.1,2.1,0.3,2.9c0.2,0.7,0.5,1.3,0.8,1.8c0.4,0.4,0.9,0.7,1.5,0.9c0.6,0.2,1.4,0.3,2.3,0.3c0.8,0,1.5-0.1,2.2-0.2v-5.2
		h-2.8l0.3-1.9h4.8v8.6c-0.3,0.1-0.6,0.2-1,0.3c-0.4,0.1-0.8,0.2-1.2,0.2s-0.8,0.1-1.3,0.1c-0.4,0-0.8,0-1.2,0
		c-1.5,0-2.7-0.2-3.6-0.6c-0.9-0.4-1.6-0.9-2.1-1.6c-0.5-0.7-0.9-1.5-1-2.4c-0.2-0.9-0.3-2-0.3-3.1v-1.7c0-1.2,0.1-2.3,0.3-3.2
		c0.2-1,0.6-1.8,1.2-2.5c0.6-0.7,1.3-1.2,2.3-1.6c1-0.4,2.2-0.6,3.7-0.6c0.7,0,1.5,0.1,2.2,0.2c0.7,0.1,1.3,0.3,1.7,0.4l-0.4,1.8
		c-0.4-0.1-0.9-0.2-1.5-0.3C105.7,8.6,105.1,8.6,104.4,8.6z"/>
	<path class="st1" d="M128.2,23.9c-1.4,0-2.6-0.2-3.5-0.5c-0.9-0.3-1.6-0.8-2.1-1.5c-0.5-0.6-0.9-1.4-1.1-2.4
		c-0.2-1-0.3-2.1-0.3-3.3v-1.7c0-1.2,0.1-2.3,0.3-3.3c0.2-1,0.6-1.8,1.2-2.5c0.6-0.7,1.3-1.2,2.2-1.5c0.9-0.4,2.1-0.5,3.5-0.5
		c0.7,0,1.4,0.1,2,0.2s1.1,0.2,1.5,0.4L131.4,9c-0.4-0.1-0.8-0.2-1.3-0.3c-0.5-0.1-1-0.1-1.5-0.1c-0.9,0-1.7,0.1-2.3,0.3
		c-0.6,0.2-1.1,0.5-1.5,0.9c-0.4,0.4-0.7,1.1-0.9,1.8c-0.2,0.8-0.3,1.7-0.3,2.9v1.6c0,1.2,0.1,2.1,0.2,2.9c0.2,0.7,0.4,1.3,0.8,1.8
		c0.4,0.4,0.9,0.7,1.5,0.9c0.6,0.2,1.4,0.3,2.4,0.3c0.5,0,1,0,1.6-0.1c0.6-0.1,1.1-0.1,1.6-0.2l-0.4,1.9c-0.5,0.1-1,0.2-1.6,0.3
		C129.2,23.8,128.7,23.9,128.2,23.9z"/>
	<path class="st1" d="M135.7,14.2c0-1.2,0.1-2.2,0.3-3.2c0.2-0.9,0.5-1.8,1.1-2.4c0.5-0.7,1.2-1.2,2-1.6c0.8-0.4,1.9-0.5,3.2-0.5
		c1.3,0,2.4,0.2,3.2,0.5c0.8,0.4,1.5,0.9,2,1.5c0.5,0.7,0.8,1.5,1,2.4c0.2,1,0.3,2,0.3,3.2v2.1c0,1.2-0.1,2.2-0.3,3.2
		c-0.2,0.9-0.5,1.8-1.1,2.4c-0.5,0.7-1.2,1.2-2,1.6s-1.9,0.5-3.2,0.5c-1.3,0-2.4-0.2-3.2-0.5c-0.9-0.4-1.5-0.9-2-1.5
		c-0.5-0.7-0.8-1.5-1-2.4c-0.2-1-0.3-2-0.3-3.2V14.2z M146.4,14.2c0-1.2-0.1-2.1-0.2-2.9c-0.2-0.7-0.4-1.3-0.8-1.7
		c-0.3-0.4-0.8-0.7-1.3-0.9c-0.5-0.2-1.1-0.2-1.8-0.2c-0.7,0-1.3,0.1-1.8,0.2c-0.5,0.2-1,0.5-1.3,0.9c-0.3,0.4-0.6,1-0.8,1.8
		s-0.3,1.7-0.3,2.8v2.1c0,1.2,0.1,2.1,0.2,2.9c0.2,0.7,0.4,1.3,0.8,1.7c0.3,0.4,0.8,0.7,1.3,0.9c0.5,0.2,1.1,0.2,1.8,0.2
		c0.7,0,1.3-0.1,1.8-0.2c0.5-0.2,1-0.5,1.3-0.9c0.3-0.4,0.6-1,0.8-1.7c0.2-0.7,0.3-1.7,0.3-2.9V14.2z"/>
	<path class="st1" d="M156.3,6.8l7.9,13v-13h2.2v16.8h-2.1l-7.9-13v13h-2.2V6.8H156.3z"/>
	<path class="st1" d="M183.9,6.8l-0.3,2h-5.2v14.8h-2.3V8.8h-5.4l0.3-2H183.9z"/>
	<path class="st1" d="M198.7,6.8l-0.3,1.9h-7.9V14h7.4l-0.3,1.9h-7.1v5.7h8.2l-0.3,1.9h-10.3V6.8H198.7z"/>
	<path class="st1" d="M205.9,6.8l7.9,13v-13h2.2v16.8h-2.1l-7.9-13v13h-2.2V6.8H205.9z"/>
	<path class="st1" d="M233.4,6.8l-0.3,2H228v14.8h-2.3V8.8h-5.4l0.3-2H233.4z"/>
	<path class="st1" d="M236.3,23.8c-0.5,0-0.9-0.1-1.1-0.4c-0.2-0.3-0.4-0.6-0.4-1.1c0-0.5,0.1-0.8,0.4-1.1c0.2-0.3,0.6-0.4,1.1-0.4
		c0.5,0,0.9,0.1,1.1,0.4c0.2,0.3,0.4,0.6,0.4,1.1c0,0.5-0.1,0.8-0.4,1.1C237.2,23.7,236.9,23.8,236.3,23.8z"/>
	<path class="st1" d="M244.4,23.8c-0.5,0-0.9-0.1-1.1-0.4c-0.2-0.3-0.4-0.6-0.4-1.1c0-0.5,0.1-0.8,0.4-1.1c0.2-0.3,0.6-0.4,1.1-0.4
		c0.5,0,0.9,0.1,1.1,0.4c0.2,0.3,0.4,0.6,0.4,1.1c0,0.5-0.1,0.8-0.4,1.1C245.3,23.7,244.9,23.8,244.4,23.8z"/>
	<path class="st1" d="M252.4,23.8c-0.5,0-0.9-0.1-1.1-0.4c-0.2-0.3-0.4-0.6-0.4-1.1c0-0.5,0.1-0.8,0.4-1.1c0.2-0.3,0.6-0.4,1.1-0.4
		c0.5,0,0.9,0.1,1.1,0.4c0.2,0.3,0.4,0.6,0.4,1.1c0,0.5-0.1,0.8-0.4,1.1C253.3,23.7,253,23.8,252.4,23.8z"/>
</g>
</svg>
