<?xml version="1.0" encoding="UTF-8" standalone="no"?>
<svg width="376px" height="47px" viewBox="0 0 376 47" version="1.1" xmlns="http://www.w3.org/2000/svg" xmlns:xlink="http://www.w3.org/1999/xlink">
    <!-- Generator: Sketch 45.2 (43514) - http://www.bohemiancoding.com/sketch -->
    <title>PROPERTIES</title>
    <desc>Created with Sketch.</desc>
    <defs></defs>
    <g id="Physics-Tool" stroke="none" stroke-width="1" fill="none" fill-rule="evenodd">
        <g id="Physics---Default" transform="translate(-123.000000, -714.000000)" fill="#FFFFFF">
            <path d="M123.76,760 L123.76,714.56 L142.576,714.56 C144.538676,714.56 146.341325,714.975996 147.984,715.808 C149.626675,716.640004 151.045327,717.727993 152.24,719.072 C153.434673,720.416007 154.362663,721.941325 155.024,723.648 C155.685337,725.354675 156.016,727.082658 156.016,728.832 C156.016,730.709343 155.70667,732.511991 155.088,734.24 C154.46933,735.968009 153.584006,737.493327 152.432,738.816 C151.279994,740.138673 149.904008,741.205329 148.304,742.016 C146.703992,742.826671 144.922676,743.232 142.96,743.232 L128.176,743.232 L128.176,760 L123.76,760 Z M128.176,739.264 L142.704,739.264 C144.026673,739.264 145.231995,738.976003 146.32,738.4 C147.408005,737.823997 148.335996,737.056005 149.104,736.096 C149.872004,735.135995 150.469331,734.026673 150.896,732.768 C151.322669,731.509327 151.536,730.19734 151.536,728.832 C151.536,727.423993 151.290669,726.090673 150.8,724.832 C150.309331,723.573327 149.648004,722.474671 148.816,721.536 C147.983996,720.597329 147.002672,719.861336 145.872,719.328 C144.741328,718.794664 143.55734,718.528 142.32,718.528 L128.176,718.528 L128.176,739.264 Z M163.504,760 L163.504,714.56 L182.64,714.56 C184.602676,714.56 186.415992,714.975996 188.08,715.808 C189.744008,716.640004 191.173327,717.727993 192.368,719.072 C193.562673,720.416007 194.490663,721.941325 195.152,723.648 C195.813337,725.354675 196.144,727.082658 196.144,728.832 C196.144,730.496008 195.898669,732.085326 195.408,733.6 C194.917331,735.114674 194.224004,736.479994 193.328,737.696 C192.431996,738.912006 191.36534,739.935996 190.128,740.768 C188.89066,741.600004 187.504008,742.165332 185.968,742.464 L197.168,760 L192.112,760 L181.36,743.232 L167.92,743.232 L167.92,760 L163.504,760 Z M167.92,739.264 L182.832,739.264 C184.154673,739.264 185.359995,738.976003 186.448,738.4 C187.536005,737.823997 188.463996,737.045338 189.232,736.064 C190.000004,735.082662 190.597331,733.97334 191.024,732.736 C191.450669,731.49866 191.664,730.19734 191.664,728.832 C191.664,727.46666 191.418669,726.154673 190.928,724.896 C190.437331,723.637327 189.776004,722.538671 188.944,721.6 C188.111996,720.661329 187.130672,719.914669 186,719.36 C184.869328,718.805331 183.68534,718.528 182.448,718.528 L167.92,718.528 L167.92,739.264 Z M223.92,760.32 C220.762651,760.32 217.872013,759.66934 215.248,758.368 C212.623987,757.06666 210.373343,755.338677 208.496,753.184 C206.618657,751.029323 205.168005,748.565347 204.144,745.792 C203.119995,743.018653 202.608,740.181348 202.608,737.28 C202.608,734.250652 203.151995,731.349347 204.24,728.576 C205.328005,725.802653 206.83199,723.349344 208.752,721.216 C210.67201,719.082656 212.93332,717.386673 215.536,716.128 C218.13868,714.869327 220.954652,714.24 223.984,714.24 C227.141349,714.24 230.031987,714.911993 232.656,716.256 C235.280013,717.600007 237.519991,719.359989 239.376,721.536 C241.232009,723.712011 242.671995,726.175986 243.696,728.928 C244.720005,731.680014 245.232,734.485319 245.232,737.344 C245.232,740.373348 244.688005,743.274653 243.6,746.048 C242.511995,748.821347 241.018676,751.263989 239.12,753.376 C237.221324,755.488011 234.97068,757.173327 232.368,758.432 C229.76532,759.690673 226.949348,760.32 223.92,760.32 Z M207.088,737.28 C207.088,739.754679 207.493329,742.133322 208.304,744.416 C209.114671,746.698678 210.266659,748.725324 211.76,750.496 C213.253341,752.266676 215.02399,753.674661 217.072,754.72 C219.12001,755.765339 221.402654,756.288 223.92,756.288 C226.480013,756.288 228.805323,755.733339 230.896,754.624 C232.986677,753.514661 234.757326,752.064009 236.208,750.272 C237.658674,748.479991 238.778663,746.453345 239.568,744.192 C240.357337,741.930655 240.752,739.626678 240.752,737.28 C240.752,734.805321 240.336004,732.426678 239.504,730.144 C238.671996,727.861322 237.509341,725.845342 236.016,724.096 C234.522659,722.346658 232.75201,720.949339 230.704,719.904 C228.65599,718.858661 226.394679,718.336 223.92,718.336 C221.359987,718.336 219.034677,718.879995 216.944,719.968 C214.853323,721.056005 213.082674,722.495991 211.632,724.288 C210.181326,726.080009 209.061337,728.106655 208.272,730.368 C207.482663,732.629345 207.088,734.933322 207.088,737.28 Z M253.872,760 L253.872,714.56 L272.688,714.56 C274.650676,714.56 276.453325,714.975996 278.096,715.808 C279.738675,716.640004 281.157327,717.727993 282.352,719.072 C283.546673,720.416007 284.474663,721.941325 285.136,723.648 C285.797337,725.354675 286.128,727.082658 286.128,728.832 C286.128,730.709343 285.81867,732.511991 285.2,734.24 C284.58133,735.968009 283.696006,737.493327 282.544,738.816 C281.391994,740.138673 280.016008,741.205329 278.416,742.016 C276.815992,742.826671 275.034676,743.232 273.072,743.232 L258.288,743.232 L258.288,760 L253.872,760 Z M258.288,739.264 L272.816,739.264 C274.138673,739.264 275.343995,738.976003 276.432,738.4 C277.520005,737.823997 278.447996,737.056005 279.216,736.096 C279.984004,735.135995 280.581331,734.026673 281.008,732.768 C281.434669,731.509327 281.648,730.19734 281.648,728.832 C281.648,727.423993 281.402669,726.090673 280.912,724.832 C280.421331,723.573327 279.760004,722.474671 278.928,721.536 C278.095996,720.597329 277.114672,719.861336 275.984,719.328 C274.853328,718.794664 273.66934,718.528 272.432,718.528 L258.288,718.528 L258.288,739.264 Z M324.144,756.032 L324.144,760 L293.616,760 L293.616,714.56 L323.568,714.56 L323.568,718.528 L298.032,718.528 L298.032,734.912 L320.304,734.912 L320.304,738.688 L298.032,738.688 L298.032,756.032 L324.144,756.032 Z M332.848,760 L332.848,714.56 L351.984,714.56 C353.946676,714.56 355.759992,714.975996 357.424,715.808 C359.088008,716.640004 360.517327,717.727993 361.712,719.072 C362.906673,720.416007 363.834663,721.941325 364.496,723.648 C365.157337,725.354675 365.488,727.082658 365.488,728.832 C365.488,730.496008 365.242669,732.085326 364.752,733.6 C364.261331,735.114674 363.568004,736.479994 362.672,737.696 C361.775996,738.912006 360.70934,739.935996 359.472,740.768 C358.23466,741.600004 356.848008,742.165332 355.312,742.464 L366.512,760 L361.456,760 L350.704,743.232 L337.264,743.232 L337.264,760 L332.848,760 Z M337.264,739.264 L352.176,739.264 C353.498673,739.264 354.703995,738.976003 355.792,738.4 C356.880005,737.823997 357.807996,737.045338 358.576,736.064 C359.344004,735.082662 359.941331,733.97334 360.368,732.736 C360.794669,731.49866 361.008,730.19734 361.008,728.832 C361.008,727.46666 360.762669,726.154673 360.272,724.896 C359.781331,723.637327 359.120004,722.538671 358.288,721.6 C357.455996,720.661329 356.474672,719.914669 355.344,719.36 C354.213328,718.805331 353.02934,718.528 351.792,718.528 L337.264,718.528 L337.264,739.264 Z M406.32,718.528 L390.128,718.528 L390.128,760 L385.648,760 L385.648,718.528 L369.456,718.528 L369.456,714.56 L406.32,714.56 L406.32,718.528 Z M413.296,760 L413.296,714.624 L417.712,714.624 L417.712,760 L413.296,760 Z M459.76,756.032 L459.76,760 L429.232,760 L429.232,714.56 L459.184,714.56 L459.184,718.528 L433.648,718.528 L433.648,734.912 L455.92,734.912 L455.92,738.688 L433.648,738.688 L433.648,756.032 L459.76,756.032 Z M494.384,723.072 C493.103994,721.621326 491.386677,720.448004 489.232,719.552 C487.077323,718.655996 484.656013,718.208 481.968,718.208 C477.914646,718.208 474.970676,718.965326 473.136,720.48 C471.301324,721.994674 470.384,724.05332 470.384,726.656 C470.384,728.02134 470.629331,729.141329 471.12,730.016 C471.610669,730.890671 472.378661,731.647997 473.424,732.288 C474.469339,732.928003 475.791992,733.482664 477.392,733.952 C478.992008,734.421336 480.879989,734.890664 483.056,735.36 C485.488012,735.872003 487.66399,736.43733 489.584,737.056 C491.50401,737.67467 493.14666,738.463995 494.512,739.424 C495.87734,740.384005 496.922663,741.557326 497.648,742.944 C498.373337,744.330674 498.736,746.04799 498.736,748.096 C498.736,750.186677 498.330671,751.999992 497.52,753.536 C496.709329,755.072008 495.578674,756.351995 494.128,757.376 C492.677326,758.400005 490.949343,759.157331 488.944,759.648 C486.938657,760.138669 484.762678,760.384 482.416,760.384 C475.290631,760.384 469.210692,758.186689 464.176,753.792 L466.352,750.144 C468.016008,751.893342 470.255986,753.375994 473.072,754.592 C475.888014,755.808006 479.023983,756.416 482.48,756.416 C486.106685,756.416 488.94399,755.76534 490.992,754.464 C493.04001,753.16266 494.064,751.189347 494.064,748.544 C494.064,747.135993 493.776003,745.952005 493.2,744.992 C492.623997,744.031995 491.760006,743.200004 490.608,742.496 C489.455994,741.791996 488.016009,741.184003 486.288,740.672 C484.559991,740.159997 482.565345,739.648003 480.304,739.136 C477.914655,738.581331 475.824009,738.005336 474.032,737.408 C472.239991,736.810664 470.736006,736.064004 469.52,735.168 C468.303994,734.271996 467.38667,733.194673 466.768,731.936 C466.14933,730.677327 465.84,729.130676 465.84,727.296 C465.84,725.205323 466.234663,723.338675 467.024,721.696 C467.813337,720.053325 468.92266,718.688005 470.352,717.6 C471.78134,716.511995 473.48799,715.680003 475.472,715.104 C477.45601,714.527997 479.642655,714.24 482.032,714.24 C485.018682,714.24 487.695988,714.698662 490.064,715.616 C492.432012,716.533338 494.57599,717.823992 496.496,719.488 L494.384,723.072 Z" id="PROPERTIES"></path>
        </g>
    </g>
</svg>