<?xml version="1.0" encoding="UTF-8" standalone="no"?>
<svg width="104px" height="48px" viewBox="0 0 104 48" version="1.1" xmlns="http://www.w3.org/2000/svg" xmlns:xlink="http://www.w3.org/1999/xlink">
    <!-- Generator: Sketch 45.2 (43514) - http://www.bohemiancoding.com/sketch -->
    <title>OFF</title>
    <desc>Created with Sketch.</desc>
    <defs></defs>
    <g id="Physics-Tool" stroke="none" stroke-width="1" fill="none" fill-rule="evenodd">
        <g id="Physics---Default" transform="translate(-401.000000, -1031.000000)" fill="#575757">
            <path d="M421.3,1031.688 C433.46,1031.688 440.948,1040.008 440.948,1054.856 C440.948,1069.384 433.46,1078.024 421.3,1078.024 C409.14,1078.024 401.588,1069.64 401.588,1054.856 C401.588,1040.392 409.14,1031.688 421.3,1031.688 Z M421.3,1038.728 C415.028,1038.728 411.508,1043.272 411.508,1054.856 C411.508,1066.44 415.156,1070.984 421.3,1070.984 C427.636,1070.984 431.028,1066.44 431.028,1054.856 C431.028,1043.272 427.636,1038.728 421.3,1038.728 Z M472.756,1039.56 L473.78,1032.712 L448.052,1032.712 L448.052,1077 L457.46,1077 L457.46,1058.952 L470.772,1058.952 L470.772,1052.104 L457.46,1052.104 L457.46,1039.56 L472.756,1039.56 Z M503.988,1039.56 L505.012,1032.712 L479.284,1032.712 L479.284,1077 L488.692,1077 L488.692,1058.952 L502.004,1058.952 L502.004,1052.104 L488.692,1052.104 L488.692,1039.56 L503.988,1039.56 Z" id="OFF"></path>
        </g>
    </g>
</svg>