<?xml version="1.0" encoding="UTF-8" standalone="no"?>
<svg width="81px" height="48px" viewBox="0 0 81 48" version="1.1" xmlns="http://www.w3.org/2000/svg" xmlns:xlink="http://www.w3.org/1999/xlink">
    <!-- Generator: Sketch 45.2 (43514) - http://www.bohemiancoding.com/sketch -->
    <title>ON</title>
    <desc>Created with Sketch.</desc>
    <defs></defs>
    <g id="Physics-Tool" stroke="none" stroke-width="1" fill="none" fill-rule="evenodd">
        <g id="Physics---Default" transform="translate(-411.000000, -1391.000000)" fill="#575757">
            <path d="M431.156,1391.688 C443.316,1391.688 450.804,1400.008 450.804,1414.856 C450.804,1429.384 443.316,1438.024 431.156,1438.024 C418.996,1438.024 411.444,1429.64 411.444,1414.856 C411.444,1400.392 418.996,1391.688 431.156,1391.688 Z M431.156,1398.728 C424.884,1398.728 421.364,1403.272 421.364,1414.856 C421.364,1426.44 425.012,1430.984 431.156,1430.984 C437.492,1430.984 440.884,1426.44 440.884,1414.856 C440.884,1403.272 437.492,1398.728 431.156,1398.728 Z M491.316,1437 L491.316,1392.712 L482.804,1392.712 L482.804,1412.168 C482.804,1418.76 483.636,1424.904 484.084,1427.912 L469.748,1392.712 L457.908,1392.712 L457.908,1437 L466.42,1437 L466.42,1419.784 C466.42,1411.592 465.652,1405.832 465.14,1401.864 L479.22,1437 L491.316,1437 Z" id="ON"></path>
        </g>
    </g>
</svg>