<svg width="21.167mm" height="21.167mm" version="1.1" viewBox="0 0 21.167 21.167" fill="#FFFFFF" xmlns="http://www.w3.org/2000/svg">
    <g transform="translate(-86.935 -154.12)">
        <g transform="matrix(.26458 0 0 .26458 86.935 154.12)">
            <path d="m56.667 0c-12.885 0-23.334 10.449-23.334 23.333v3.258l-6.406 15.467h-6e-3c-0.163 0.391-0.254 0.82-0.254 1.275 0 1.836 1.494 3.334 3.333 3.334h3.333v6.666c0 5.521 4.477 10 10 10h8.334v16.667h28.333v-56.667c0-12.884-10.442-23.333-23.333-23.333zm16.666 73.334h-15v-16.666h-15c-1.836 0-3.333-1.498-3.333-3.334v-13.334h-5.003l5.003-12.081v-4.586c0-9.189 7.478-16.667 16.667-16.667 9.192 0 16.666 7.478 16.666 16.667z"/>
            <path d="m21.81 44.324-6.158-2.553c-3.093 7.455-3.093 15.671-0.014 23.132l6.166-2.546c-2.409-5.82-2.403-12.219 6e-3 -18.033z"/>
            <path d="m9.4916 39.218-6.159-2.552c-4.27 10.295-4.609 22.222-0.013 33.335l6.159-2.552c-3.763-9.101-3.763-19.128 0.013-28.231z"/>
        </g>
    </g>
</svg>
