<?xml version="1.0" encoding="utf-8"?>
<!-- Generator: Adobe Illustrator 19.2.0, SVG Export Plug-In . SVG Version: 6.00 Build 0)  -->
<svg version="1.1" id="Layer_1" xmlns="http://www.w3.org/2000/svg" xmlns:xlink="http://www.w3.org/1999/xlink" x="0px" y="0px"
	 viewBox="0 0 512 512" style="enable-background:new 0 0 512 512;" xml:space="preserve">
<path d="M348.5,162.5c1.7,0,3,1.4,3,3v181.4c0,1.7-1.3,3-3,3H167.2c-1.6,0-3-1.3-3-3V165.5c0-1.6,1.4-3,3-3H348.5 M348.5,145.5
	H167.2c-11,0-20,9-20,20v181.4c0,11,9,20,20,20h181.4c11,0,20-9,20-20V165.5C368.5,154.5,359.6,145.5,348.5,145.5L348.5,145.5z"/>
<rect x="161.6" y="253.6" width="96.3" height="96.3"/>
<rect x="256.1" y="159.8" width="95.4" height="95.4"/>
</svg>
