<?xml version="1.0" encoding="utf-8"?>
<!-- Generator: Adobe Illustrator 19.2.0, SVG Export Plug-In . SVG Version: 6.00 Build 0)  -->
<svg version="1.1" id="Layer_1" xmlns="http://www.w3.org/2000/svg" xmlns:xlink="http://www.w3.org/1999/xlink" x="0px" y="0px"
	 viewBox="0 0 512 512" style="enable-background:new 0 0 512 512;" xml:space="preserve">
<style type="text/css">
	.st0{fill:none;stroke:#000000;stroke-width:18;stroke-miterlimit:10;}
	.st1{fill:none;stroke:#000000;stroke-width:18;stroke-linecap:round;stroke-miterlimit:10;}
	.st2{fill:none;stroke:#000000;stroke-width:19;stroke-linecap:round;stroke-miterlimit:10;}
</style>
<g>
	<path d="M451.6,90.8L189.4,64.9c-3.2-0.3-6.2,0.5-8.8,2.4l0.1,0L54.9,155.4l0,0c-0.5,0.3-0.5,0.7-0.9,1c-2.8,2.5-4,6.1-4,9.9v262.5
		c0,6.8,4.8,12.6,11.6,13.2l262.3,25.9c0.4,0,0.8,0.1,1.2,0.1c2.7,0,5.3-0.9,7.6-2.4l0,0l125.8-88.2l0,0c0.5-0.3,0.3-0.7,0.7-1
		c2.8-2.5,3.8-6.1,3.8-9.9V104.1C463,97.2,458.4,91.5,451.6,90.8z M430.1,364.7l-1.8,1.4c-0.2,0.1-0.3,0.3-0.6,0.4c0,0,0.4,0,0.4,0
		L339,429.2v-230l98-69.5v222.2C436,358,435,361.1,430.1,364.7z M203.3,93l210.6,20.8l-92.4,64.7L99.6,156.6l86.7-60.8
		c0.2,0,0.3,0,0.5,0c0,0,0,0,0.1,0c3.4-2.1,7.4-3.4,11.4-3.4C200,92.4,201.7,92.6,203.3,93z M313,440L76,416.7V181l237,23.3V440z"/>
</g>
</svg>
