<?xml version="1.0" encoding="utf-8"?>
<!-- Generator: Adobe Illustrator 19.2.0, SVG Export Plug-In . SVG Version: 6.00 Build 0)  -->
<svg version="1.1" id="Layer_1" xmlns="http://www.w3.org/2000/svg" xmlns:xlink="http://www.w3.org/1999/xlink" x="0px" y="0px"
	 viewBox="0 0 512 512" style="enable-background:new 0 0 512 512;" xml:space="preserve">
<style type="text/css">
	.st0{fill:none;stroke:#000000;stroke-width:18;stroke-miterlimit:10;}
	.st1{fill:none;stroke:#000000;stroke-width:18;stroke-linecap:round;stroke-miterlimit:10;}
	.st2{fill:none;stroke:#000000;stroke-width:19;stroke-linecap:round;stroke-miterlimit:10;}
</style>
<g>
	<path d="M380.7,139.8c-2.7-6.6-9.2-10.8-16.3-10.8H292v34h29.9L159,326.1V290h-36v79h1.3c0.1,2,0.5,4.1,1.3,5.9
		c2.7,6.6,9.1,11.1,16.2,11.1H225v-35h-40.8L346,189.7V215h35v-62.4C382,148.5,382.4,144,380.7,139.8z"/>
	<path d="M338.4,437.6c0-12,9.7-21.7,21.7-21.7l0,0c12,0,21.7,9.7,21.7,21.7l0,0c0,12-9.7,21.7-21.7,21.7l0,0
		C348.1,459.3,338.4,449.6,338.4,437.6z M266.9,437.6c0-12,9.7-21.7,21.7-21.7l0,0c12,0,21.7,9.7,21.7,21.7l0,0
		c0,12-9.7,21.7-21.7,21.7l0,0C276.6,459.3,266.9,449.6,266.9,437.6z M195.4,437.6c0-12,9.7-21.7,21.7-21.7l0,0
		c12,0,21.7,9.7,21.7,21.7l0,0c0,12-9.7,21.7-21.7,21.7l0,0C205.1,459.3,195.4,449.6,195.4,437.6z M123.9,437.6
		c0-12,9.7-21.7,21.7-21.7l0,0c12,0,21.7,9.7,21.7,21.7l0,0c0,12-9.7,21.7-21.7,21.7l0,0C133.6,459.3,123.9,449.6,123.9,437.6z"/>
	<path d="M74.1,459.3c-5.7,0-11.3-2.3-15.4-6.4c-4-4-6.4-9.6-6.4-15.3c0-5.7,2.3-11.3,6.4-15.3c4-4,9.6-6.4,15.4-6.4
		c5.7,0,11.3,2.3,15.3,6.4c4,4,6.4,9.6,6.4,15.3c0,5.7-2.3,11.3-6.4,15.3C85.4,457,79.8,459.3,74.1,459.3z"/>
	<path d="M52.4,366.1c0-12,9.7-21.7,21.7-21.7l0,0c12,0,21.7,9.7,21.7,21.7l0,0c0,12-9.7,21.7-21.7,21.7l0,0
		C62.1,387.8,52.4,378,52.4,366.1z M52.4,294.6c0-12,9.7-21.7,21.7-21.7l0,0c12,0,21.7,9.7,21.7,21.7l0,0c0,12-9.7,21.7-21.7,21.7
		l0,0C62.1,316.3,52.4,306.5,52.4,294.6z M52.4,223.1c0-12,9.7-21.7,21.7-21.7l0,0c12,0,21.7,9.7,21.7,21.7l0,0
		c0,12-9.7,21.7-21.7,21.7l0,0C62.1,244.8,52.4,235,52.4,223.1z M52.4,151.5c0-12,9.7-21.7,21.7-21.7l0,0c12,0,21.7,9.7,21.7,21.7
		l0,0c0,12-9.7,21.7-21.7,21.7l0,0C62.1,173.2,52.4,163.5,52.4,151.5z"/>
	<path d="M338.4,80c0-12,9.7-21.7,21.7-21.7l0,0c12,0,21.7,9.7,21.7,21.7l0,0c0,12-9.7,21.7-21.7,21.7l0,0
		C348.1,101.7,338.4,92,338.4,80z M266.9,80c0-12,9.7-21.7,21.7-21.7l0,0c12,0,21.7,9.7,21.7,21.7l0,0c0,12-9.7,21.7-21.7,21.7l0,0
		C276.6,101.7,266.9,92,266.9,80z M195.4,80c0-12,9.7-21.7,21.7-21.7l0,0c12,0,21.7,9.7,21.7,21.7l0,0c0,12-9.7,21.7-21.7,21.7l0,0
		C205.1,101.7,195.4,92,195.4,80z M123.9,80c0-12,9.7-21.7,21.7-21.7l0,0c12,0,21.7,9.7,21.7,21.7l0,0c0,12-9.7,21.7-21.7,21.7l0,0
		C133.6,101.7,123.9,92,123.9,80z"/>
	<path d="M431.6,101.7c-5.7,0-11.3-2.3-15.3-6.4c-4-4-6.4-9.6-6.4-15.3c0-5.7,2.3-11.3,6.4-15.3c4-4,9.6-6.4,15.3-6.4
		s11.3,2.3,15.3,6.4c4,4,6.4,9.6,6.4,15.3c0,5.7-2.3,11.3-6.4,15.3C442.9,99.4,437.4,101.7,431.6,101.7z"/>
	<path d="M409.9,366.1c0-12,9.7-21.7,21.7-21.7l0,0c12,0,21.7,9.7,21.7,21.7l0,0c0,12-9.7,21.7-21.7,21.7l0,0
		C419.7,387.8,409.9,378.1,409.9,366.1z M409.9,294.6c0-12,9.7-21.7,21.7-21.7l0,0c12,0,21.7,9.7,21.7,21.7l0,0
		c0,12-9.7,21.7-21.7,21.7l0,0C419.7,316.3,409.9,306.5,409.9,294.6z M409.9,223.1c0-12,9.7-21.7,21.7-21.7l0,0
		c12,0,21.7,9.7,21.7,21.7l0,0c0,12-9.7,21.7-21.7,21.7l0,0C419.7,244.7,409.9,235,409.9,223.1z M409.9,151.5
		c0-12,9.7-21.7,21.7-21.7l0,0c12,0,21.7,9.7,21.7,21.7l0,0c0,12-9.7,21.7-21.7,21.7l0,0C419.7,173.2,409.9,163.5,409.9,151.5z"/>
</g>
</svg>
