<?xml version="1.0" encoding="utf-8"?>
<!-- Generator: Adobe Illustrator 19.2.0, SVG Export Plug-In . SVG Version: 6.00 Build 0)  -->
<svg version="1.1" id="Layer_1" xmlns="http://www.w3.org/2000/svg" xmlns:xlink="http://www.w3.org/1999/xlink" x="0px" y="0px"
	 viewBox="0 0 512 512" style="enable-background:new 0 0 512 512;" xml:space="preserve">
<style type="text/css">
	.st0{fill:none;stroke:#000000;stroke-width:18;stroke-miterlimit:10;}
	.st1{fill:none;stroke:#000000;stroke-width:18;stroke-linecap:round;stroke-miterlimit:10;}
	.st2{fill:none;stroke:#000000;stroke-width:19;stroke-linecap:round;stroke-miterlimit:10;}
	.st3{stroke:#000000;stroke-width:4;stroke-linecap:round;stroke-linejoin:round;stroke-miterlimit:10;}
</style>
<g>
	<path d="M438,121.5c0-8-6.5-14.5-14.5-14.5h-333c-8,0-14.5,6.5-14.5,14.5v298c0,8,6.5,14.5,14.5,14.5h333c8,0,14.5-6.5,14.5-14.5
		V121.5z M219.4,130H391c8.3,0,15,7.2,15,16s-6.7,16-15,16H219.4c-8.3,0-15-7.2-15-16S211.1,130,219.4,130z M171.5,128.6
		c9.2,0,16.7,7.5,16.7,16.7c0,9.2-7.5,16.7-16.7,16.7c-9.2,0-16.7-7.5-16.7-16.7C154.8,136,162.3,128.6,171.5,128.6z M121,128.6
		c9.2,0,16.7,7.5,16.7,16.7c0,9.2-7.5,16.7-16.7,16.7c-9.2,0-16.7-7.5-16.7-16.7C104.4,136,111.8,128.6,121,128.6z M412,405H104V186
		h308V405z"/>
</g>
<g>
	<path class="st3" d="M161.6,320.5h-14.3l-20.5-59.3h12.9l14.7,44.8l14.7-44.8h12.9l14.7,44.8l14.7-44.8h12.9L204,320.5h-14.3
		l-14-40.6L161.6,320.5z"/>
	<path class="st3" d="M299.4,296.3h-46.5c0.3,4.3,2.3,7.8,5.9,10.4c3.6,2.6,7.8,4,12.5,4c7.4,0,13.1-2.3,16.9-7l7.1,7.8
		c-6.4,6.6-14.7,9.9-25,9.9c-8.3,0-15.4-2.8-21.2-8.3c-5.8-5.5-8.7-13-8.7-22.3c0-9.3,3-16.7,8.9-22.2c5.9-5.5,12.9-8.2,21-8.2
		c8.1,0,14.9,2.4,20.6,7.3c5.6,4.9,8.5,11.6,8.5,20.1V296.3z M252.9,286.5h34c0-5-1.6-8.8-4.7-11.5s-7-4-11.5-4
		c-4.6,0-8.7,1.4-12.3,4.2C254.7,278,252.9,281.8,252.9,286.5z"/>
	<path class="st3" d="M353.6,260.3c7.9,0,14.7,2.8,20.4,8.2c5.6,5.5,8.5,12.8,8.5,22c0,9.1-2.8,16.6-8.4,22.3
		c-5.6,5.7-12.1,8.6-19.6,8.6s-14.2-3.3-20.1-9.8v8.9h-12.5v-82.7h12.5v33.8C339.2,264.1,345.6,260.3,353.6,260.3z M334.1,291
		c0,5.6,1.7,10.3,5.1,13.9c3.4,3.6,7.6,5.4,12.5,5.4c4.9,0,9.2-1.8,12.8-5.3c3.6-3.6,5.5-8.2,5.5-13.9c0-5.7-1.8-10.4-5.3-14.2
		c-3.6-3.8-7.8-5.6-12.8-5.6c-5,0-9.2,1.9-12.6,5.6C335.8,280.6,334.1,285.3,334.1,291z"/>
</g>
</svg>
