<?xml version="1.0" encoding="utf-8"?>
<!-- Generator: Adobe Illustrator 19.2.0, SVG Export Plug-In . SVG Version: 6.00 Build 0)  -->
<svg version="1.1" id="Layer_1" xmlns="http://www.w3.org/2000/svg" xmlns:xlink="http://www.w3.org/1999/xlink" x="0px" y="0px"
	 viewBox="0 0 512 512" style="enable-background:new 0 0 512 512;" xml:space="preserve">
<style type="text/css">
	.st0{fill:none;stroke:#000000;stroke-width:18;stroke-miterlimit:10;}
	.st1{fill:none;stroke:#000000;stroke-width:18;stroke-linecap:round;stroke-miterlimit:10;}
	.st2{fill:none;stroke:#000000;stroke-width:19;stroke-linecap:round;stroke-miterlimit:10;}
</style>
<g>
	<g>
		<path d="M220.3,378.4l-81.1-232c-1-2.8-3.6-4.3-6.6-4.3h-9.2c-3,0-5.6,1.5-6.6,4.3L34,378.5c-0.8,2.1-0.4,5.1,0.9,7
			c1.3,1.9,3.4,3.5,5.7,3.5h15.9c3,0,5.6-2.6,6.6-5.4L90.2,305h73.7l27,78.6c1,2.8,3.6,5.4,6.6,5.4h16.2c2.3,0,4.4-1.8,5.7-3.6
			C220.7,383.5,221.1,380.5,220.3,378.4z M100.3,276l25.6-73.1c0.6-1.7,1.3-3.3,1.9-5.1c0.6,1.8,1.2,3,1.7,4.5l24.9,73.7H100.3z"/>
		<path d="M351.6,215.5c-9.7-11.4-24.3-17.2-43.2-17.2c-17.5,0-35.5,4.7-53.2,14.1c-3.1,1.7-4.6,5.4-3.3,8.7l5.2,13.6
			c0.7,1.9,2.3,3.4,4.2,4.1c1.9,0.7,4.1,0.5,5.8-0.6c14.1-8.2,27.7-12.3,40.6-12.3c10.9,0,18.8,3.2,23.3,9.6c5.2,7.3,8,18.4,8,33
			v4.6l-22.7,0.7c-25,0.6-44.7,6-58.2,16.1c-14.3,10.7-21.6,25.7-21.6,44.7c0,17.1,4.9,30.9,14.5,40.8c9.7,10,23.2,15.1,40.1,15.1
			c12,0,22.8-2.7,32.2-8c5.6-3.1,11.1-7.7,16.4-13.6l1.6,13.3c0.4,3.5,3.4,6.8,6.9,6.8h10.2c3.9,0,7.6-4.4,7.6-8.3V265.9
			C366,243.2,361.1,226.7,351.6,215.5z M265.1,335.2c0-11.2,3.5-19.1,10.7-24.1c8-5.6,22.1-9,42-10.1l19.1-0.9v9.6
			c0,17.2-3.8,29.9-12,39.1c-8.1,9-19,13.4-33.3,13.4c-8.8,0-15.3-2.2-19.8-6.9C267.3,350.8,265.1,344.2,265.1,335.2z"/>
		<path d="M451.3,439.9c-10,0-15.3-8.1-15.3-18c-0.1-22.2-0.2-298.2-0.4-320.4c-0.1-10,5.2-18.2,15.2-18.3c0.1,0,0.1,0,0.2,0
			c9.9,0,15.2,8,15.3,18c0.2,22.2,0.3,298.3,0.4,320.5C466.7,431.7,461.4,439.9,451.3,439.9C451.4,439.9,451.3,439.9,451.3,439.9z"
			/>
	</g>
</g>
</svg>
