<?xml version="1.0" encoding="UTF-8" standalone="no"?>
<!-- Generator: Adobe Illustrator 19.2.0, SVG Export Plug-In . SVG Version: 6.00 Build 0)  -->

<svg
   xmlns:dc="http://purl.org/dc/elements/1.1/"
   xmlns:cc="http://creativecommons.org/ns#"
   xmlns:rdf="http://www.w3.org/1999/02/22-rdf-syntax-ns#"
   xmlns:svg="http://www.w3.org/2000/svg"
   xmlns="http://www.w3.org/2000/svg"
   xmlns:sodipodi="http://sodipodi.sourceforge.net/DTD/sodipodi-0.dtd"
   xmlns:inkscape="http://www.inkscape.org/namespaces/inkscape"
   version="1.1"
   id="Layer_1"
   x="0px"
   y="0px"
   viewBox="0 0 50 50"
   style="enable-background:new 0 0 50 50;"
   xml:space="preserve"
   sodipodi:docname="avatar-record-a.svg"
   inkscape:version="0.92.1 r15371"><metadata
     id="metadata36"><rdf:RDF><cc:Work
         rdf:about=""><dc:format>image/svg+xml</dc:format><dc:type
           rdf:resource="http://purl.org/dc/dcmitype/StillImage" /><dc:title></dc:title></cc:Work></rdf:RDF></metadata><defs
     id="defs34" /><sodipodi:namedview
     pagecolor="#ff0000"
     bordercolor="#666666"
     borderopacity="1"
     objecttolerance="10"
     gridtolerance="10"
     guidetolerance="10"
     inkscape:pageopacity="0"
     inkscape:pageshadow="2"
     inkscape:window-width="1829"
     inkscape:window-height="1057"
     id="namedview32"
     showgrid="false"
     inkscape:zoom="4.72"
     inkscape:cx="-9.4279661"
     inkscape:cy="25"
     inkscape:window-x="83"
     inkscape:window-y="-8"
     inkscape:window-maximized="1"
     inkscape:current-layer="Layer_1" /><style
     type="text/css"
     id="style2">
	.st0{fill:#FFFFFF;}
</style><g
     id="Layer_2" /><g
     id="g879"><path
       class="st0"
       d="m 23.2,20.5 c -1,0.8 -1.8,1.4 -2.7,2.1 -0.2,0.1 -0.2,0.4 -0.2,0.7 -0.3,1.7 -0.6,3.4 -0.9,5.1 -0.1,0.8 -0.6,1.2 -1.3,1.1 -0.7,-0.1 -1.2,-0.7 -1.1,-1.4 0.3,-2.2 0.6,-4.4 1,-6.6 0.1,-0.3 0.3,-0.7 0.6,-0.9 1.4,-1.3 2.8,-2.5 4.2,-3.7 0.7,-0.6 1.5,-1 2.4,-0.9 0.3,0 0.7,0 1,0 1,-0.1 1.7,0.4 2.1,1.3 0.7,1.4 1.4,2.8 1.9,4.3 0.5,1.3 1.2,2.1 2.4,2.6 1,0.4 2,1 3,1.5 0.2,0.1 0.5,0.3 0.7,0.5 0.4,0.4 0.5,1 0.3,1.4 C 36.4,28 36,28.1 35.5,28 35.1,27.9 34.7,27.8 34.3,27.6 33,27 31.8,26.4 30.6,25.8 29.8,25.5 29.2,25 28.8,24.2 c -0.2,-0.3 -0.4,-0.6 -0.7,-1 -0.1,0.3 -0.1,0.5 -0.2,0.7 -0.3,1.2 -0.5,2.4 -0.8,3.6 -0.1,0.4 0,0.7 0.2,1 2.2,3.7 4.4,7.4 6.6,11.1 0.3,0.4 0.4,1 0.5,1.5 0.1,0.7 -0.1,1.3 -0.7,1.6 C 33,43.1 32.3,43.1 31.8,42.6 31.4,42.2 31,41.8 30.7,41.3 28.2,37.4 25.7,33.4 23.2,29.5 22.8,28.8 22.4,28 22.1,27.3 22,26.9 22,26.4 22.1,26 c 0.4,-1.8 0.7,-3.6 1.1,-5.5 z"
       id="path5"
       inkscape:connector-curvature="0"
       style="fill:#000000;fill-opacity:1" /><path
       class="st0"
       d="M 23.2,33.9 C 23.1,33.8 23,33.7 23,33.6 c 0,0 0,0 0,0 -0.2,-0.2 -0.3,-0.5 -0.5,-0.7 -0.3,-0.4 -0.6,-0.8 -0.9,-1.1 -0.3,1 -0.5,2 -0.8,3 -0.1,0.3 -0.3,0.7 -0.4,1 -1,1.5 -2,3.1 -3,4.6 -0.2,0.4 -0.4,0.8 -0.6,1.3 -0.2,0.9 0.7,1.9 1.6,1.5 0.5,-0.2 1,-0.7 1.3,-1.1 0.9,-1.1 1.6,-2.3 2.5,-3.3 0.8,-1 1.4,-2.2 1.8,-3.4 -0.2,-0.7 -0.5,-1.1 -0.8,-1.5 z"
       id="path7"
       inkscape:connector-curvature="0"
       style="fill:#000000;fill-opacity:1" /><path
       class="st0"
       d="M 29,11.6 C 29,12.9 27.9,14 26.6,14 H 26.4 C 25.1,14 24,12.9 24,11.6 V 10.4 C 24,9.1 25.1,8 26.4,8 h 0.2 c 1.3,0 2.4,1.1 2.4,2.4 z"
       id="path9"
       inkscape:connector-curvature="0"
       style="fill:#000000;fill-opacity:1" /><path
       class="st0"
       d="m 43.4,24.1 c -0.5,0.3 -0.9,0.5 -1.4,0.8 v 6.3 h 2.3 v -7.6 c -0.3,0.2 -0.6,0.3 -0.9,0.5 z"
       id="path11"
       inkscape:connector-curvature="0"
       style="fill:#000000;fill-opacity:1" /><path
       class="st0"
       d="M 42,38.6 V 39 c 0,1.2 -1,2.1 -2.1,2.1 h -0.8 v 2.3 h 0.8 c 2.5,0 4.5,-2 4.5,-4.5 V 38.5 H 42 Z"
       id="path13"
       inkscape:connector-curvature="0"
       style="fill:#000000;fill-opacity:1" /><path
       class="st0"
       d="m 9.7,12.2 v -0.4 c 0,-1.2 1,-2.1 2.1,-2.1 h 2 V 7.3 h -2 c -2.5,0 -4.5,2 -4.5,4.5 v 0.4 z"
       id="path15"
       inkscape:connector-curvature="0"
       style="fill:#000000;fill-opacity:1" /><rect
       x="7.4000001"
       y="18.299999"
       class="st0"
       width="2.3"
       height="12.9"
       id="rect17"
       style="fill:#000000;fill-opacity:1" /><path
       class="st0"
       d="M 9.7,38.9 V 38.5 H 7.4 v 0.4 c 0,2.5 2,4.5 4.5,4.5 h 2 v -2.3 h -2 c -1.2,0 -2.2,-1 -2.2,-2.2 z"
       id="path19"
       inkscape:connector-curvature="0"
       style="fill:#000000;fill-opacity:1" /><g
       style="fill:#000000;fill-opacity:1"
       id="g25"><circle
         class="st0"
         cx="38.599998"
         cy="13.3"
         r="2.2"
         id="circle21"
         style="fill:#000000;fill-opacity:1" /><path
         class="st0"
         d="m 38.6,15.5 c -1.2,0 -2.2,-1 -2.2,-2.2 0,-1.2 1,-2.2 2.2,-2.2 1.2,0 2.2,1 2.2,2.2 0,1.2 -1,2.2 -2.2,2.2 z m 0,-4.3 c -1.1,0 -2.1,0.9 -2.1,2.1 0,1.2 0.9,2.1 2.1,2.1 1.1,0 2.1,-0.9 2.1,-2.1 0,-1.2 -1,-2.1 -2.1,-2.1 z"
         id="path23"
         inkscape:connector-curvature="0"
         style="fill:#000000;fill-opacity:1" /></g><path
       class="st0"
       d="m 38.6,19.7 c -3.6,0 -6.4,-2.9 -6.4,-6.4 0,-3.5 2.9,-6.4 6.4,-6.4 3.6,0 6.4,2.9 6.4,6.4 0,3.5 -2.9,6.4 -6.4,6.4 z m 0,-10.6 c -2.3,0 -4.2,1.9 -4.2,4.2 0,2.3 1.9,4.2 4.2,4.2 2.3,0 4.2,-1.9 4.2,-4.2 0,-2.3 -1.9,-4.2 -4.2,-4.2 z"
       id="path27"
       inkscape:connector-curvature="0"
       style="fill:#000000;fill-opacity:1" /></g></svg>