<?xml version="1.0" encoding="UTF-8" standalone="no"?>
<svg width="120px" height="120px" viewBox="0 0 120 120" version="1.1" xmlns="http://www.w3.org/2000/svg" xmlns:xlink="http://www.w3.org/1999/xlink">
    <!-- Generator: Sketch 45.2 (43514) - http://www.bohemiancoding.com/sketch -->
    <title>noun_792623</title>
    <desc>Created with Sketch.</desc>
    <defs></defs>
    <g id="Color-Tool" stroke="none" stroke-width="1" fill="none" fill-rule="evenodd">
        <g id="Color-Tool---Default" transform="translate(-203.000000, -2070.000000)" fill-rule="nonzero" fill="#E3E3E3">
            <g id="noun_792623" transform="translate(202.000000, 2070.000000)">
                <path d="M82.9252,65.5368 C82.9852,65.598 83.0488,65.6556 83.1088,65.7132 L40.18,108.6432 C33.5008,115.32 19.054,114.1032 14.2552,118.9008 C9.46,123.6972 -2.6948,111.5316 2.098,106.7412 C6.8884,101.9496 4.672,88.5024 12.3544,80.8188 L55.282,37.89 C55.3408,37.9524 55.3996,38.0148 55.4596,38.0748 L82.9252,65.5368 Z M101.9548,49.4016 L114.7132,36.6432 C123.0952,28.2612 123.0952,14.67 114.712,6.2868 C106.3312,-2.0952 92.7376,-2.0952 84.3556,6.2868 L71.596,19.0452 C67.8832,15.54 62.0296,15.6024 58.3948,19.2384 C54.7588,22.8732 54.6976,28.7244 58.2028,32.4396 C58.2664,32.5068 88.492,62.7324 88.5604,62.796 C92.2756,66.3024 98.1268,66.2388 101.7628,62.604 C105.3976,58.9692 105.4612,53.1168 101.9548,49.4016 Z" id="Shape"></path>
            </g>
        </g>
    </g>
</svg>