<?xml version="1.0" encoding="UTF-8" standalone="no"?>
<svg width="345px" height="47px" viewBox="0 0 345 47" version="1.1" xmlns="http://www.w3.org/2000/svg" xmlns:xlink="http://www.w3.org/1999/xlink">
    <!-- Generator: Sketch 45.2 (43514) - http://www.bohemiancoding.com/sketch -->
    <title>SWATCHES</title>
    <desc>Created with Sketch.</desc>
    <defs></defs>
    <g id="Color-Tool" stroke="none" stroke-width="1" fill="none" fill-rule="evenodd">
        <g id="Color-Tool---Default" transform="translate(-120.000000, -714.000000)" fill="#FFFFFF">
            <path d="M150.448,723.072 C149.167994,721.621326 147.450677,720.448004 145.296,719.552 C143.141323,718.655996 140.720013,718.208 138.032,718.208 C133.978646,718.208 131.034676,718.965326 129.2,720.48 C127.365324,721.994674 126.448,724.05332 126.448,726.656 C126.448,728.02134 126.693331,729.141329 127.184,730.016 C127.674669,730.890671 128.442661,731.647997 129.488,732.288 C130.533339,732.928003 131.855992,733.482664 133.456,733.952 C135.056008,734.421336 136.943989,734.890664 139.12,735.36 C141.552012,735.872003 143.72799,736.43733 145.648,737.056 C147.56801,737.67467 149.21066,738.463995 150.576,739.424 C151.94134,740.384005 152.986663,741.557326 153.712,742.944 C154.437337,744.330674 154.8,746.04799 154.8,748.096 C154.8,750.186677 154.394671,751.999992 153.584,753.536 C152.773329,755.072008 151.642674,756.351995 150.192,757.376 C148.741326,758.400005 147.013343,759.157331 145.008,759.648 C143.002657,760.138669 140.826678,760.384 138.48,760.384 C131.354631,760.384 125.274692,758.186689 120.24,753.792 L122.416,750.144 C124.080008,751.893342 126.319986,753.375994 129.136,754.592 C131.952014,755.808006 135.087983,756.416 138.544,756.416 C142.170685,756.416 145.00799,755.76534 147.056,754.464 C149.10401,753.16266 150.128,751.189347 150.128,748.544 C150.128,747.135993 149.840003,745.952005 149.264,744.992 C148.687997,744.031995 147.824006,743.200004 146.672,742.496 C145.519994,741.791996 144.080009,741.184003 142.352,740.672 C140.623991,740.159997 138.629345,739.648003 136.368,739.136 C133.978655,738.581331 131.888009,738.005336 130.096,737.408 C128.303991,736.810664 126.800006,736.064004 125.584,735.168 C124.367994,734.271996 123.45067,733.194673 122.832,731.936 C122.21333,730.677327 121.904,729.130676 121.904,727.296 C121.904,725.205323 122.298663,723.338675 123.088,721.696 C123.877337,720.053325 124.98666,718.688005 126.416,717.6 C127.84534,716.511995 129.55199,715.680003 131.536,715.104 C133.52001,714.527997 135.706655,714.24 138.096,714.24 C141.082682,714.24 143.759988,714.698662 146.128,715.616 C148.496012,716.533338 150.63999,717.823992 152.56,719.488 L150.448,723.072 Z M178.928,714.88 L183.216,714.88 L189.616,731.008 L196.08,714.88 L200.304,714.88 L192.368,734.272 L201.072,754.816 L217.52,714.56 L222.384,714.56 L203.184,760 L199.216,760 L189.68,737.536 L180.08,760 L176.112,760 L156.976,714.56 L161.712,714.56 L178.224,754.816 L186.864,734.272 L178.928,714.88 Z M220.528,760 L239.536,714.56 L243.184,714.56 L262.192,760 L257.392,760 L251.504,745.792 L231.088,745.792 L225.264,760 L220.528,760 Z M241.392,719.808 L232.048,742.272 L250.48,742.272 L241.392,719.808 Z M296.56,718.528 L280.368,718.528 L280.368,760 L275.888,760 L275.888,718.528 L259.696,718.528 L259.696,714.56 L296.56,714.56 L296.56,718.528 Z M300.592,736.96 C300.592,734.22932 301.071995,731.509347 302.032,728.8 C302.992005,726.090653 304.389324,723.669344 306.224,721.536 C308.058676,719.402656 310.319987,717.664007 313.008,716.32 C315.696013,714.975993 318.74665,714.304 322.16,714.304 C326.213354,714.304 329.669319,715.221324 332.528,717.056 C335.386681,718.890676 337.519993,721.279985 338.928,724.224 L335.344,726.4 C334.618663,724.906659 333.744005,723.648005 332.72,722.624 C331.695995,721.599995 330.586673,720.768003 329.392,720.128 C328.197327,719.487997 326.960006,719.029335 325.68,718.752 C324.399994,718.474665 323.14134,718.336 321.904,718.336 C319.17332,718.336 316.762677,718.890661 314.672,720 C312.581323,721.109339 310.82134,722.559991 309.392,724.352 C307.96266,726.144009 306.885337,728.159989 306.16,730.4 C305.434663,732.640011 305.072,734.911988 305.072,737.216 C305.072,739.733346 305.509329,742.143988 306.384,744.448 C307.258671,746.752012 308.453326,748.789324 309.968,750.56 C311.482674,752.330676 313.274656,753.738661 315.344,754.784 C317.413344,755.829339 319.663988,756.352 322.096,756.352 C323.376006,756.352 324.687993,756.192002 326.032,755.872 C327.376007,755.551998 328.677327,755.040004 329.936,754.336 C331.194673,753.631996 332.357328,752.757339 333.424,751.712 C334.490672,750.666661 335.386663,749.397341 336.112,747.904 L339.824,749.824 C339.098663,751.530675 338.074673,753.03466 336.752,754.336 C335.429327,755.63734 333.957341,756.735996 332.336,757.632 C330.714659,758.528004 328.997342,759.210664 327.184,759.68 C325.370658,760.149336 323.589342,760.384 321.84,760.384 C318.725318,760.384 315.86668,759.70134 313.264,758.336 C310.66132,756.97066 308.421343,755.189344 306.544,752.992 C304.666657,750.794656 303.205339,748.298681 302.16,745.504 C301.114661,742.709319 300.592,739.861348 300.592,736.96 Z M383.472,714.56 L383.472,760 L378.992,760 L378.992,738.752 L352.048,738.752 L352.048,760 L347.632,760 L347.632,714.56 L352.048,714.56 L352.048,734.784 L378.992,734.784 L378.992,714.56 L383.472,714.56 Z M425.456,756.032 L425.456,760 L394.928,760 L394.928,714.56 L424.88,714.56 L424.88,718.528 L399.344,718.528 L399.344,734.912 L421.616,734.912 L421.616,738.688 L399.344,738.688 L399.344,756.032 L425.456,756.032 Z M460.08,723.072 C458.799994,721.621326 457.082677,720.448004 454.928,719.552 C452.773323,718.655996 450.352013,718.208 447.664,718.208 C443.610646,718.208 440.666676,718.965326 438.832,720.48 C436.997324,721.994674 436.08,724.05332 436.08,726.656 C436.08,728.02134 436.325331,729.141329 436.816,730.016 C437.306669,730.890671 438.074661,731.647997 439.12,732.288 C440.165339,732.928003 441.487992,733.482664 443.088,733.952 C444.688008,734.421336 446.575989,734.890664 448.752,735.36 C451.184012,735.872003 453.35999,736.43733 455.28,737.056 C457.20001,737.67467 458.84266,738.463995 460.208,739.424 C461.57334,740.384005 462.618663,741.557326 463.344,742.944 C464.069337,744.330674 464.432,746.04799 464.432,748.096 C464.432,750.186677 464.026671,751.999992 463.216,753.536 C462.405329,755.072008 461.274674,756.351995 459.824,757.376 C458.373326,758.400005 456.645343,759.157331 454.64,759.648 C452.634657,760.138669 450.458678,760.384 448.112,760.384 C440.986631,760.384 434.906692,758.186689 429.872,753.792 L432.048,750.144 C433.712008,751.893342 435.951986,753.375994 438.768,754.592 C441.584014,755.808006 444.719983,756.416 448.176,756.416 C451.802685,756.416 454.63999,755.76534 456.688,754.464 C458.73601,753.16266 459.76,751.189347 459.76,748.544 C459.76,747.135993 459.472003,745.952005 458.896,744.992 C458.319997,744.031995 457.456006,743.200004 456.304,742.496 C455.151994,741.791996 453.712009,741.184003 451.984,740.672 C450.255991,740.159997 448.261345,739.648003 446,739.136 C443.610655,738.581331 441.520009,738.005336 439.728,737.408 C437.935991,736.810664 436.432006,736.064004 435.216,735.168 C433.999994,734.271996 433.08267,733.194673 432.464,731.936 C431.84533,730.677327 431.536,729.130676 431.536,727.296 C431.536,725.205323 431.930663,723.338675 432.72,721.696 C433.509337,720.053325 434.61866,718.688005 436.048,717.6 C437.47734,716.511995 439.18399,715.680003 441.168,715.104 C443.15201,714.527997 445.338655,714.24 447.728,714.24 C450.714682,714.24 453.391988,714.698662 455.76,715.616 C458.128012,716.533338 460.27199,717.823992 462.192,719.488 L460.08,723.072 Z" id="SWATCHES"></path>
        </g>
    </g>
</svg>