<?xml version="1.0" encoding="UTF-8" standalone="no"?>
<svg width="241px" height="48px" viewBox="0 0 241 48" version="1.1" xmlns="http://www.w3.org/2000/svg" xmlns:xlink="http://www.w3.org/1999/xlink">
    <!-- Generator: Sketch 45.2 (43514) - http://www.bohemiancoding.com/sketch -->
    <title>DENSITY</title>
    <desc>Created with Sketch.</desc>
    <defs></defs>
    <g id="Physics-Tool" stroke="none" stroke-width="1" fill="none" fill-rule="evenodd">
        <g id="Physics---Default" transform="translate(-2016.000000, -2154.000000)" fill="#FFFFFF">
            <path d="M2028.452,2155.712 C2040.164,2155.712 2051.3,2159.36 2051.3,2177.664 C2051.3,2195.52 2040.42,2200 2029.54,2200 L2016.868,2200 L2016.868,2155.712 L2028.452,2155.712 Z M2026.276,2162.624 L2026.276,2193.088 L2030.116,2193.088 C2036.58,2193.088 2041.508,2190.08 2041.508,2177.664 C2041.508,2164.992 2036.324,2162.624 2029.924,2162.624 L2026.276,2162.624 Z M2083.876,2162.56 L2084.9,2155.712 L2058.468,2155.712 L2058.468,2200 L2085.028,2200 L2085.028,2193.088 L2067.876,2193.088 L2067.876,2180.864 L2081.828,2180.864 L2081.828,2174.08 L2067.876,2174.08 L2067.876,2162.56 L2083.876,2162.56 Z M2125.668,2200 L2125.668,2155.712 L2117.156,2155.712 L2117.156,2175.168 C2117.156,2181.76 2117.988,2187.904 2118.436,2190.912 L2104.1,2155.712 L2092.26,2155.712 L2092.26,2200 L2100.772,2200 L2100.772,2182.784 C2100.772,2174.592 2100.004,2168.832 2099.492,2164.864 L2113.572,2200 L2125.668,2200 Z M2148.516,2154.688 C2139.556,2154.688 2133.028,2159.616 2133.028,2167.168 C2133.028,2173.888 2136.868,2177.728 2146.468,2180.736 C2153.188,2182.784 2154.916,2184.32 2154.916,2187.84 C2154.916,2191.744 2151.844,2193.92 2147.3,2193.92 C2142.756,2193.92 2139.172,2192.256 2136.1,2189.44 L2131.172,2194.816 C2134.82,2198.4 2140.196,2201.024 2147.556,2201.024 C2158.308,2201.024 2164.708,2195.328 2164.708,2187.2 C2164.708,2179.008 2159.588,2175.68 2151.588,2173.12 C2144.356,2170.88 2142.692,2169.6 2142.692,2166.528 C2142.692,2163.392 2145.316,2161.728 2149.156,2161.728 C2152.74,2161.728 2155.812,2162.88 2158.884,2165.504 L2163.428,2160.256 C2159.588,2156.672 2155.108,2154.688 2148.516,2154.688 Z M2180.644,2200 L2180.644,2155.712 L2171.172,2155.712 L2171.172,2200 L2180.644,2200 Z M2218.34,2163.072 L2207.14,2163.072 L2207.14,2200 L2197.732,2200 L2197.732,2163.072 L2185.956,2163.072 L2185.956,2155.712 L2219.364,2155.712 L2218.34,2163.072 Z M2242.852,2183.296 L2242.852,2200 L2233.444,2200 L2233.444,2183.36 L2219.236,2155.712 L2229.54,2155.712 L2238.372,2175.808 L2247.14,2155.712 L2257.06,2155.712 L2242.852,2183.296 Z" id="DENSITY"></path>
        </g>
    </g>
</svg>