<?xml version="1.0" encoding="UTF-8" standalone="no"?>
<svg width="258px" height="48px" viewBox="0 0 258 48" version="1.1" xmlns="http://www.w3.org/2000/svg" xmlns:xlink="http://www.w3.org/1999/xlink">
    <!-- Generator: Sketch 45.2 (43514) - http://www.bohemiancoding.com/sketch -->
    <title>FRICTION</title>
    <desc>Created with Sketch.</desc>
    <defs></defs>
    <g id="Physics-Tool" stroke="none" stroke-width="1" fill="none" fill-rule="evenodd">
        <g id="Physics---Default" transform="translate(-1632.000000, -2154.000000)" fill="#FFFFFF">
            <path d="M1657.448,2162.56 L1658.472,2155.712 L1632.744,2155.712 L1632.744,2200 L1642.152,2200 L1642.152,2181.952 L1655.464,2181.952 L1655.464,2175.104 L1642.152,2175.104 L1642.152,2162.56 L1657.448,2162.56 Z M1678.184,2182.656 L1673.384,2182.656 L1673.384,2200 L1663.976,2200 L1663.976,2155.712 L1677.8,2155.712 C1689.64,2155.712 1695.656,2160 1695.656,2168.96 C1695.656,2174.848 1692.776,2178.368 1686.888,2180.928 L1698.344,2200 L1687.656,2200 L1678.184,2182.656 Z M1673.384,2176 L1678.312,2176 C1683.24,2176 1685.928,2173.952 1685.928,2168.96 C1685.928,2164.416 1683.304,2162.432 1677.608,2162.432 L1673.384,2162.432 L1673.384,2176 Z M1712.744,2200 L1712.744,2155.712 L1703.272,2155.712 L1703.272,2200 L1712.744,2200 Z M1739.432,2154.688 C1728.36,2154.688 1719.848,2162.88 1719.848,2177.792 C1719.848,2192.896 1727.912,2201.024 1739.688,2201.024 C1745.832,2201.024 1750.504,2198.336 1753.32,2195.456 L1748.968,2189.888 C1746.408,2191.872 1743.848,2193.6 1740.136,2193.6 C1734.056,2193.6 1729.768,2188.928 1729.768,2177.792 C1729.768,2166.272 1734.12,2161.792 1740.008,2161.792 C1743.08,2161.792 1745.64,2162.88 1748.072,2164.992 L1752.808,2159.488 C1749.16,2156.416 1745.32,2154.688 1739.432,2154.688 Z M1786.984,2163.072 L1788.008,2155.712 L1754.6,2155.712 L1754.6,2163.072 L1766.376,2163.072 L1766.376,2200 L1775.784,2200 L1775.784,2163.072 L1786.984,2163.072 Z M1802.28,2200 L1802.28,2155.712 L1792.808,2155.712 L1792.808,2200 L1802.28,2200 Z M1829.096,2154.688 C1841.256,2154.688 1848.744,2163.008 1848.744,2177.856 C1848.744,2192.384 1841.256,2201.024 1829.096,2201.024 C1816.936,2201.024 1809.384,2192.64 1809.384,2177.856 C1809.384,2163.392 1816.936,2154.688 1829.096,2154.688 Z M1829.096,2161.728 C1822.824,2161.728 1819.304,2166.272 1819.304,2177.856 C1819.304,2189.44 1822.952,2193.984 1829.096,2193.984 C1835.432,2193.984 1838.824,2189.44 1838.824,2177.856 C1838.824,2166.272 1835.432,2161.728 1829.096,2161.728 Z M1889.256,2200 L1889.256,2155.712 L1880.744,2155.712 L1880.744,2175.168 C1880.744,2181.76 1881.576,2187.904 1882.024,2190.912 L1867.688,2155.712 L1855.848,2155.712 L1855.848,2200 L1864.36,2200 L1864.36,2182.784 C1864.36,2174.592 1863.592,2168.832 1863.08,2164.864 L1877.16,2200 L1889.256,2200 Z" id="FRICTION"></path>
        </g>
    </g>
</svg>