<?xml version="1.0" encoding="UTF-8" standalone="no"?>
<svg width="276px" height="47px" viewBox="0 0 276 47" version="1.1" xmlns="http://www.w3.org/2000/svg" xmlns:xlink="http://www.w3.org/1999/xlink">
    <!-- Generator: Sketch 45.2 (43514) - http://www.bohemiancoding.com/sketch -->
    <title>ACTIONS</title>
    <desc>Created with Sketch.</desc>
    <defs></defs>
    <g id="Clone-Tool" stroke="none" stroke-width="1" fill="none" fill-rule="evenodd">
        <g id="Clone---Default" transform="translate(-121.000000, -714.000000)" fill="#FFFFFF">
            <path d="M120.96,760 L139.968,714.56 L143.616,714.56 L162.624,760 L157.824,760 L151.936,745.792 L131.52,745.792 L125.696,760 L120.96,760 Z M141.824,719.808 L132.48,742.272 L150.912,742.272 L141.824,719.808 Z M166.272,736.96 C166.272,734.22932 166.751995,731.509347 167.712,728.8 C168.672005,726.090653 170.069324,723.669344 171.904,721.536 C173.738676,719.402656 175.999987,717.664007 178.688,716.32 C181.376013,714.975993 184.42665,714.304 187.84,714.304 C191.893354,714.304 195.349319,715.221324 198.208,717.056 C201.066681,718.890676 203.199993,721.279985 204.608,724.224 L201.024,726.4 C200.298663,724.906659 199.424005,723.648005 198.4,722.624 C197.375995,721.599995 196.266673,720.768003 195.072,720.128 C193.877327,719.487997 192.640006,719.029335 191.36,718.752 C190.079994,718.474665 188.82134,718.336 187.584,718.336 C184.85332,718.336 182.442677,718.890661 180.352,720 C178.261323,721.109339 176.50134,722.559991 175.072,724.352 C173.64266,726.144009 172.565337,728.159989 171.84,730.4 C171.114663,732.640011 170.752,734.911988 170.752,737.216 C170.752,739.733346 171.189329,742.143988 172.064,744.448 C172.938671,746.752012 174.133326,748.789324 175.648,750.56 C177.162674,752.330676 178.954656,753.738661 181.024,754.784 C183.093344,755.829339 185.343988,756.352 187.776,756.352 C189.056006,756.352 190.367993,756.192002 191.712,755.872 C193.056007,755.551998 194.357327,755.040004 195.616,754.336 C196.874673,753.631996 198.037328,752.757339 199.104,751.712 C200.170672,750.666661 201.066663,749.397341 201.792,747.904 L205.504,749.824 C204.778663,751.530675 203.754673,753.03466 202.432,754.336 C201.109327,755.63734 199.637341,756.735996 198.016,757.632 C196.394659,758.528004 194.677342,759.210664 192.864,759.68 C191.050658,760.149336 189.269342,760.384 187.52,760.384 C184.405318,760.384 181.54668,759.70134 178.944,758.336 C176.34132,756.97066 174.101343,755.189344 172.224,752.992 C170.346657,750.794656 168.885339,748.298681 167.84,745.504 C166.794661,742.709319 166.272,739.861348 166.272,736.96 Z M245.12,718.528 L228.928,718.528 L228.928,760 L224.448,760 L224.448,718.528 L208.256,718.528 L208.256,714.56 L245.12,714.56 L245.12,718.528 Z M252.096,760 L252.096,714.624 L256.512,714.624 L256.512,760 L252.096,760 Z M286.464,760.32 C283.306651,760.32 280.416013,759.66934 277.792,758.368 C275.167987,757.06666 272.917343,755.338677 271.04,753.184 C269.162657,751.029323 267.712005,748.565347 266.688,745.792 C265.663995,743.018653 265.152,740.181348 265.152,737.28 C265.152,734.250652 265.695995,731.349347 266.784,728.576 C267.872005,725.802653 269.37599,723.349344 271.296,721.216 C273.21601,719.082656 275.47732,717.386673 278.08,716.128 C280.68268,714.869327 283.498652,714.24 286.528,714.24 C289.685349,714.24 292.575987,714.911993 295.2,716.256 C297.824013,717.600007 300.063991,719.359989 301.92,721.536 C303.776009,723.712011 305.215995,726.175986 306.24,728.928 C307.264005,731.680014 307.776,734.485319 307.776,737.344 C307.776,740.373348 307.232005,743.274653 306.144,746.048 C305.055995,748.821347 303.562676,751.263989 301.664,753.376 C299.765324,755.488011 297.51468,757.173327 294.912,758.432 C292.30932,759.690673 289.493348,760.32 286.464,760.32 Z M269.632,737.28 C269.632,739.754679 270.037329,742.133322 270.848,744.416 C271.658671,746.698678 272.810659,748.725324 274.304,750.496 C275.797341,752.266676 277.56799,753.674661 279.616,754.72 C281.66401,755.765339 283.946654,756.288 286.464,756.288 C289.024013,756.288 291.349323,755.733339 293.44,754.624 C295.530677,753.514661 297.301326,752.064009 298.752,750.272 C300.202674,748.479991 301.322663,746.453345 302.112,744.192 C302.901337,741.930655 303.296,739.626678 303.296,737.28 C303.296,734.805321 302.880004,732.426678 302.048,730.144 C301.215996,727.861322 300.053341,725.845342 298.56,724.096 C297.066659,722.346658 295.29601,720.949339 293.248,719.904 C291.19999,718.858661 288.938679,718.336 286.464,718.336 C283.903987,718.336 281.578677,718.879995 279.488,719.968 C277.397323,721.056005 275.626674,722.495991 274.176,724.288 C272.725326,726.080009 271.605337,728.106655 270.816,730.368 C270.026663,732.629345 269.632,734.933322 269.632,737.28 Z M320.832,722.88 L320.832,760 L316.416,760 L316.416,714.56 L319.872,714.56 L349.952,752.384 L349.952,714.624 L354.368,714.624 L354.368,760 L350.528,760 L320.832,722.88 Z M392.576,723.072 C391.295994,721.621326 389.578677,720.448004 387.424,719.552 C385.269323,718.655996 382.848013,718.208 380.16,718.208 C376.106646,718.208 373.162676,718.965326 371.328,720.48 C369.493324,721.994674 368.576,724.05332 368.576,726.656 C368.576,728.02134 368.821331,729.141329 369.312,730.016 C369.802669,730.890671 370.570661,731.647997 371.616,732.288 C372.661339,732.928003 373.983992,733.482664 375.584,733.952 C377.184008,734.421336 379.071989,734.890664 381.248,735.36 C383.680012,735.872003 385.85599,736.43733 387.776,737.056 C389.69601,737.67467 391.33866,738.463995 392.704,739.424 C394.06934,740.384005 395.114663,741.557326 395.84,742.944 C396.565337,744.330674 396.928,746.04799 396.928,748.096 C396.928,750.186677 396.522671,751.999992 395.712,753.536 C394.901329,755.072008 393.770674,756.351995 392.32,757.376 C390.869326,758.400005 389.141343,759.157331 387.136,759.648 C385.130657,760.138669 382.954678,760.384 380.608,760.384 C373.482631,760.384 367.402692,758.186689 362.368,753.792 L364.544,750.144 C366.208008,751.893342 368.447986,753.375994 371.264,754.592 C374.080014,755.808006 377.215983,756.416 380.672,756.416 C384.298685,756.416 387.13599,755.76534 389.184,754.464 C391.23201,753.16266 392.256,751.189347 392.256,748.544 C392.256,747.135993 391.968003,745.952005 391.392,744.992 C390.815997,744.031995 389.952006,743.200004 388.8,742.496 C387.647994,741.791996 386.208009,741.184003 384.48,740.672 C382.751991,740.159997 380.757345,739.648003 378.496,739.136 C376.106655,738.581331 374.016009,738.005336 372.224,737.408 C370.431991,736.810664 368.928006,736.064004 367.712,735.168 C366.495994,734.271996 365.57867,733.194673 364.96,731.936 C364.34133,730.677327 364.032,729.130676 364.032,727.296 C364.032,725.205323 364.426663,723.338675 365.216,721.696 C366.005337,720.053325 367.11466,718.688005 368.544,717.6 C369.97334,716.511995 371.67999,715.680003 373.664,715.104 C375.64801,714.527997 377.834655,714.24 380.224,714.24 C383.210682,714.24 385.887988,714.698662 388.256,715.616 C390.624012,716.533338 392.76799,717.823992 394.688,719.488 L392.576,723.072 Z" id="ACTIONS"></path>
        </g>
    </g>
</svg>