<?xml version="1.0" encoding="UTF-8" standalone="no"?>
<svg width="321px" height="320px" viewBox="0 0 321 320" version="1.1" xmlns="http://www.w3.org/2000/svg" xmlns:xlink="http://www.w3.org/1999/xlink">
    <!-- Generator: Sketch 45.2 (43514) - http://www.bohemiancoding.com/sketch -->
    <title>[</title>
    <desc>Created with Sketch.</desc>
    <defs></defs>
    <g id="Stretch-Tool" stroke="none" stroke-width="1" fill="none" fill-rule="evenodd">
        <g id="Stretch---Default" transform="translate(-118.000000, -1880.000000)" fill="#6A6A6A">
            <path d="M299.333333,1997.33333 L286,2090.66667 C285.111107,2099.5556 288.222187,2104 295.333333,2104 L306,2104 L302,2124 C293.99996,2127.55557 286.00004,2129.33333 278,2129.33333 C257.555453,2129.33333 249.111093,2118.66677 252.666667,2097.33333 L263.333333,2022.66667 C260.666653,2022.66667 255.777813,2021.77779 248.666667,2020 L251.333333,1997.33333 L299.333333,1997.33333 Z M306,1965.33333 C304.222213,1975.11116 297.555613,1980 286,1980 C280.66664,1980 276.22224,1978.22224 272.666667,1974.66667 C269.111093,1971.11109 267.777773,1966.66669 268.666667,1961.33333 C270.444453,1951.55551 277.111053,1946.66667 288.666667,1946.66667 C302.000067,1946.66667 307.777787,1952.88883 306,1965.33333 Z M392.666667,1926.66667 C424.666827,1959.55572 439.777787,1997.33312 438,2040 C438,2084.44467 422.4446,2122.22207 391.333333,2153.33333 C361.999853,2184.4446 324.222453,2200 278,2200 C233.555333,2200 195.777933,2184.4446 164.666667,2153.33333 C133.5554,2123.99985 118,2086.22245 118,2040 C118,1995.55533 133.5554,1957.77793 164.666667,1926.66667 C195.777933,1895.5554 233.999773,1880 279.333333,1880 C323.778,1880 361.5554,1895.5554 392.666667,1926.66667 Z M416.666667,2040 C416.666667,2002.66648 402.889027,1970.22236 375.333333,1942.66667 C349.555427,1915.11097 317.111307,1901.33333 278,1901.33333 C238.888693,1901.33333 206.444573,1915.11097 180.666667,1942.66667 C153.110973,1970.22236 139.333333,2002.66648 139.333333,2040 C139.333333,2079.11131 153.110973,2111.55543 180.666667,2137.33333 C206.444573,2164.88903 238.888693,2178.66667 278,2178.66667 C317.111307,2178.66667 349.555427,2164.88903 375.333333,2137.33333 C402.889027,2112.44432 416.666667,2080.0002 416.666667,2040 Z" id="["></path>
        </g>
    </g>
</svg>