<?xml version="1.0" encoding="utf-8"?>
<!-- Generator: Adobe Illustrator 19.2.0, SVG Export Plug-In . SVG Version: 6.00 Build 0)  -->
<svg version="1.1" id="Layer_1" xmlns="http://www.w3.org/2000/svg" xmlns:xlink="http://www.w3.org/1999/xlink" x="0px" y="0px"
	 viewBox="0 0 50 200.1" style="enable-background:new 0 0 50 200.1;" xml:space="preserve">
<style type="text/css">
	.st0{fill:#414042;}
	.st1{fill:#FFFFFF;}
	.st2{fill:#1E1E1E;}
	.st3{fill:#333333;}
</style>
<g id="Layer_2">
	<g>
		<g>
			<path class="st0" d="M50.1,146.1c0,2.2-1.8,4-4,4h-42c-2.2,0-4-1.8-4-4v-42c0-2.2,1.8-4,4-4h42c2.2,0,4,1.8,4,4V146.1z"/>
		</g>
	</g>
	<g>
		<g>
			<path class="st0" d="M50,196.1c0,2.2-1.8,4-4,4H4c-2.2,0-4-1.8-4-4v-42c0-2.2,1.8-4,4-4h42c2.2,0,4,1.8,4,4V196.1z"/>
		</g>
	</g>
	<g>
		<g>
			<path class="st1" d="M50,46c0,2.2-1.8,4-4,4H4c-2.2,0-4-1.8-4-4V4c0-2.2,1.8-4,4-4h42c2.2,0,4,1.8,4,4V46z"/>
		</g>
	</g>
	<g>
		<path class="st2" d="M50,96.1c0,2.2-1.8,4-4,4H4c-2.2,0-4-1.8-4-4v-42c0-2.2,1.8-4,4-4h42c2.2,0,4,1.8,4,4V96.1z"/>
	</g>
</g>
<path class="st3" d="M14.32,21.31c0.16,0.05,0.25,0.08,0.33,0.11c1.27,0.53,2.55,1.07,3.82,1.59c0.19,0.08,0.28,0.19,0.34,0.38
	c0.49,1.6,1.94,2.57,3.55,2.37c1.59-0.19,2.8-1.51,2.89-3.16c0.01-0.22,0.08-0.35,0.25-0.47c1.17-0.83,2.33-1.67,3.5-2.51
	c0.11-0.08,0.27-0.14,0.41-0.14c2.31-0.06,4.14-1.88,4.23-4.29c0.09-2.34-1.64-4.19-3.73-4.49c-2.59-0.36-4.9,1.56-5,4.17
	c-0.01,0.14-0.05,0.3-0.13,0.41c-0.82,1.21-1.66,2.42-2.48,3.64c-0.11,0.16-0.22,0.22-0.41,0.23c-0.56,0.02-1.1,0.17-1.59,0.45
	c-0.1,0.06-0.27,0.08-0.37,0.03c-1.91-0.79-3.81-1.59-5.72-2.37c-0.2-0.08-0.27-0.18-0.25-0.4c0.22-2.12,0.95-4.04,2.22-5.74
	c1.96-2.62,4.57-4.26,7.83-4.6c5.01-0.53,8.91,1.43,11.48,5.76c3.52,5.94,0.91,13.76-5.42,16.52c-6.07,2.65-13.21-0.43-15.45-6.66
	C14.51,21.89,14.43,21.64,14.32,21.31z"/>
<path class="st3" d="M29.28,18c-1.6,0-2.92-1.33-2.91-2.93c0.01-1.61,1.33-2.92,2.93-2.92c1.59,0.01,2.88,1.31,2.88,2.92
	C32.18,16.69,30.88,18,29.28,18z M29.27,17.28c1.21,0,2.21-0.99,2.21-2.2c0.01-1.22-0.98-2.22-2.18-2.23c-1.21,0-2.2,0.98-2.21,2.2
	C27.08,16.27,28.07,17.28,29.27,17.28z"/>
<path class="st3" d="M19.8,23.57c0.47,0.19,0.89,0.37,1.3,0.54c1.01,0.41,2.06,0,2.45-0.97c0.39-0.95-0.05-1.99-1.04-2.41
	c-0.44-0.19-0.88-0.37-1.35-0.57c1.08-0.49,2.47,0.1,3.02,1.26c0.57,1.2,0.05,2.68-1.14,3.26C21.84,25.27,20.4,24.8,19.8,23.57z"/>
<g>
	<path class="st3" d="M10.49,42.3v-6.38h1.24v6.38H10.49z"/>
	<path class="st3" d="M14.53,38.2v4.1h-1.24V35.9h0.96l3.33,4.19v-4.19h1.24v6.38h-1.01L14.53,38.2z"/>
	<path class="st3" d="M21.02,35.9l1.73,4.83l1.71-4.83h1.3l-2.49,6.39h-1.04l-2.51-6.39H21.02z"/>
	<path class="st3" d="M26.67,42.3v-6.38h1.24v6.38H26.67z"/>
	<path class="st3" d="M34.25,36.99h-2.03v5.3h-1.24v-5.3h-2.04V35.9h5.32V36.99z"/>
	<path class="st3" d="M39.71,41.21v1.09h-4.44V35.9h4.36v1.09h-3.11v1.54h2.69v1.01h-2.69v1.67H39.71z"/>
</g>
<path class="st1" d="M14.32,71.31c0.16,0.05,0.25,0.08,0.33,0.11c1.27,0.53,2.55,1.07,3.82,1.59c0.19,0.08,0.28,0.19,0.34,0.38
	c0.49,1.6,1.94,2.57,3.55,2.37c1.59-0.19,2.8-1.51,2.89-3.16c0.01-0.22,0.08-0.35,0.25-0.47c1.17-0.83,2.33-1.67,3.5-2.51
	c0.11-0.08,0.27-0.14,0.41-0.14c2.31-0.06,4.14-1.88,4.23-4.29c0.09-2.34-1.64-4.19-3.73-4.49c-2.59-0.36-4.9,1.56-5,4.17
	c-0.01,0.14-0.05,0.3-0.13,0.41c-0.82,1.21-1.66,2.42-2.48,3.64c-0.11,0.16-0.22,0.22-0.41,0.23c-0.56,0.02-1.1,0.17-1.59,0.45
	c-0.1,0.06-0.27,0.08-0.37,0.03c-1.91-0.79-3.81-1.59-5.72-2.37c-0.2-0.08-0.27-0.18-0.25-0.4c0.22-2.12,0.95-4.04,2.22-5.74
	c1.96-2.62,4.57-4.26,7.83-4.6c5.01-0.53,8.91,1.43,11.48,5.76c3.52,5.94,0.91,13.76-5.42,16.52c-6.07,2.65-13.21-0.43-15.45-6.66
	C14.51,71.9,14.43,71.65,14.32,71.31z"/>
<path class="st1" d="M29.28,68c-1.6,0-2.92-1.33-2.91-2.93c0.01-1.61,1.33-2.92,2.93-2.92c1.59,0.01,2.88,1.31,2.88,2.92
	C32.18,66.69,30.88,68,29.28,68z M29.27,67.29c1.21,0,2.21-0.99,2.21-2.2c0.01-1.22-0.98-2.22-2.18-2.23c-1.21,0-2.2,0.98-2.21,2.2
	C27.08,66.28,28.07,67.28,29.27,67.29z"/>
<path class="st1" d="M19.8,73.58c0.47,0.19,0.89,0.37,1.3,0.54c1.01,0.41,2.06,0,2.45-0.97c0.39-0.95-0.05-1.99-1.04-2.41
	c-0.44-0.19-0.88-0.37-1.35-0.57c1.08-0.49,2.47,0.1,3.02,1.26c0.57,1.2,0.05,2.68-1.14,3.26C21.84,75.27,20.4,74.8,19.8,73.58z"/>
<g>
	<path class="st1" d="M10.49,92.3v-6.38h1.24v6.38H10.49z"/>
	<path class="st1" d="M14.53,88.2v4.1h-1.24v-6.39h0.96l3.33,4.19v-4.19h1.24v6.38h-1.01L14.53,88.2z"/>
	<path class="st1" d="M21.02,85.91l1.73,4.83l1.71-4.83h1.3l-2.49,6.39h-1.04l-2.51-6.39H21.02z"/>
	<path class="st1" d="M26.67,92.3v-6.38h1.24v6.38H26.67z"/>
	<path class="st1" d="M34.25,87h-2.03v5.3h-1.24V87h-2.04v-1.09h5.32V87z"/>
	<path class="st1" d="M39.71,91.21v1.09h-4.44v-6.39h4.36V87h-3.11v1.54h2.69v1.01h-2.69v1.67H39.71z"/>
</g>
<path class="st1" d="M14.32,121.41c0.16,0.05,0.25,0.08,0.33,0.11c1.27,0.53,2.55,1.07,3.82,1.59c0.19,0.08,0.28,0.19,0.34,0.38
	c0.49,1.6,1.94,2.57,3.55,2.37c1.59-0.19,2.8-1.51,2.89-3.16c0.01-0.22,0.08-0.35,0.25-0.47c1.17-0.83,2.33-1.67,3.5-2.51
	c0.11-0.08,0.27-0.14,0.41-0.14c2.31-0.06,4.14-1.88,4.23-4.29c0.09-2.34-1.64-4.19-3.73-4.49c-2.59-0.36-4.9,1.56-5,4.17
	c-0.01,0.14-0.05,0.3-0.13,0.41c-0.82,1.21-1.66,2.42-2.48,3.64c-0.11,0.16-0.22,0.22-0.41,0.23c-0.56,0.02-1.1,0.17-1.59,0.45
	c-0.1,0.06-0.27,0.08-0.37,0.03c-1.91-0.79-3.81-1.59-5.72-2.37c-0.2-0.08-0.27-0.18-0.25-0.4c0.22-2.12,0.95-4.04,2.22-5.74
	c1.96-2.62,4.57-4.26,7.83-4.6c5.01-0.53,8.91,1.43,11.48,5.76c3.52,5.94,0.91,13.76-5.42,16.52c-6.07,2.65-13.21-0.43-15.45-6.66
	C14.51,122,14.43,121.75,14.32,121.41z"/>
<path class="st1" d="M29.28,118.1c-1.6,0-2.92-1.33-2.91-2.93c0.01-1.61,1.33-2.92,2.93-2.92c1.59,0.01,2.88,1.31,2.88,2.92
	C32.18,116.79,30.88,118.1,29.28,118.1z M29.27,117.39c1.21,0,2.21-0.99,2.21-2.2c0.01-1.22-0.98-2.22-2.18-2.23
	c-1.21,0-2.2,0.98-2.21,2.2C27.08,116.38,28.07,117.38,29.27,117.39z"/>
<path class="st1" d="M19.8,123.68c0.47,0.19,0.89,0.37,1.3,0.54c1.01,0.41,2.06,0,2.45-0.97c0.39-0.95-0.05-1.99-1.04-2.41
	c-0.44-0.19-0.88-0.37-1.35-0.57c1.08-0.49,2.47,0.1,3.02,1.26c0.57,1.2,0.05,2.68-1.14,3.26C21.84,125.37,20.4,124.9,19.8,123.68z"
	/>
<g>
	<path class="st1" d="M10.49,142.4v-6.38h1.24v6.38H10.49z"/>
	<path class="st1" d="M14.53,138.3v4.1h-1.24v-6.39h0.96l3.33,4.19v-4.19h1.24v6.38h-1.01L14.53,138.3z"/>
	<path class="st1" d="M21.02,136.01l1.73,4.83l1.71-4.83h1.3l-2.49,6.39h-1.04l-2.51-6.39H21.02z"/>
	<path class="st1" d="M26.67,142.4v-6.38h1.24v6.38H26.67z"/>
	<path class="st1" d="M34.25,137.1h-2.03v5.3h-1.24v-5.3h-2.04v-1.09h5.32V137.1z"/>
	<path class="st1" d="M39.71,141.31v1.09h-4.44v-6.39h4.36v1.09h-3.11v1.54h2.69v1.01h-2.69v1.67H39.71z"/>
</g>
<path class="st1" d="M14.32,171.51c0.16,0.05,0.25,0.08,0.33,0.11c1.27,0.53,2.55,1.07,3.82,1.59c0.19,0.08,0.28,0.19,0.34,0.38
	c0.49,1.6,1.94,2.57,3.55,2.37c1.59-0.19,2.8-1.51,2.89-3.16c0.01-0.22,0.08-0.35,0.25-0.47c1.17-0.83,2.33-1.67,3.5-2.51
	c0.11-0.08,0.27-0.14,0.41-0.14c2.31-0.06,4.14-1.88,4.23-4.29c0.09-2.34-1.64-4.19-3.73-4.49c-2.59-0.36-4.9,1.56-5,4.17
	c-0.01,0.14-0.05,0.3-0.13,0.41c-0.82,1.21-1.66,2.42-2.48,3.64c-0.11,0.16-0.22,0.22-0.41,0.23c-0.56,0.02-1.1,0.17-1.59,0.45
	c-0.1,0.06-0.27,0.08-0.37,0.03c-1.91-0.79-3.81-1.59-5.72-2.37c-0.2-0.08-0.27-0.18-0.25-0.4c0.22-2.12,0.95-4.04,2.22-5.74
	c1.96-2.62,4.57-4.26,7.83-4.6c5.01-0.53,8.91,1.43,11.48,5.76c3.52,5.94,0.91,13.76-5.42,16.52c-6.07,2.65-13.21-0.43-15.45-6.66
	C14.51,172.1,14.43,171.85,14.32,171.51z"/>
<path class="st1" d="M29.28,168.2c-1.6,0-2.92-1.33-2.91-2.93c0.01-1.61,1.33-2.92,2.93-2.92c1.59,0.01,2.88,1.31,2.88,2.92
	C32.18,166.89,30.88,168.2,29.28,168.2z M29.27,167.49c1.21,0,2.21-0.99,2.21-2.2c0.01-1.22-0.98-2.22-2.18-2.23
	c-1.21,0-2.2,0.98-2.21,2.2C27.08,166.48,28.07,167.48,29.27,167.49z"/>
<path class="st1" d="M19.8,173.78c0.47,0.19,0.89,0.37,1.3,0.54c1.01,0.41,2.06,0,2.45-0.97c0.39-0.95-0.05-1.99-1.04-2.41
	c-0.44-0.19-0.88-0.37-1.35-0.57c1.08-0.49,2.47,0.1,3.02,1.26c0.57,1.2,0.05,2.68-1.14,3.26C21.84,175.47,20.4,175,19.8,173.78z"/>
<g>
	<path class="st1" d="M10.49,192.5v-6.38h1.24v6.38H10.49z"/>
	<path class="st1" d="M14.53,188.4v4.1h-1.24v-6.39h0.96l3.33,4.19v-4.19h1.24v6.38h-1.01L14.53,188.4z"/>
	<path class="st1" d="M21.02,186.11l1.73,4.83l1.71-4.83h1.3l-2.49,6.39h-1.04l-2.51-6.39H21.02z"/>
	<path class="st1" d="M26.67,192.5v-6.38h1.24v6.38H26.67z"/>
	<path class="st1" d="M34.25,187.2h-2.03v5.3h-1.24v-5.3h-2.04v-1.09h5.32V187.2z"/>
	<path class="st1" d="M39.71,191.41v1.09h-4.44v-6.39h4.36v1.09h-3.11v1.54h2.69v1.01h-2.69v1.67H39.71z"/>
</g>
</svg>
