<?xml version="1.0" encoding="utf-8"?>
<!-- Generator: Adobe Illustrator 19.2.0, SVG Export Plug-In . SVG Version: 6.00 Build 0)  -->
<svg version="1.1" id="Layer_1" xmlns="http://www.w3.org/2000/svg" xmlns:xlink="http://www.w3.org/1999/xlink" x="0px" y="0px"
	 viewBox="0 0 50 150" style="enable-background:new 0 0 50 150;" xml:space="preserve">
<style type="text/css">
	.st0{opacity:0.9;}
	.st1{fill:#FFFFFF;}
	.st2{fill:#1E1E1E;}
	.st3{fill:#EAEAEA;}
	.st4{opacity:0.47;}
	.st5{opacity:0.47;fill:#EAEAEA;enable-background:new    ;}
	.st6{opacity:0.48;}
</style>
<g>
	<g class="st0">
		<path class="st1" d="M50.2,46.6c0,2.2-1.8,4-4,4h-42c-2.2,0-4-1.8-4-4v-42c0-2.2,1.8-4,4-4h42c2.2,0,4,1.8,4,4V46.6z"/>
	</g>
</g>
<g>
	<g class="st0">
		<path class="st2" d="M50.2,96.6c0,2.2-1.8,4-4,4h-42c-2.2,0-4-1.8-4-4v-42c0-2.2,1.8-4,4-4h42c2.2,0,4,1.8,4,4V96.6z"/>
	</g>
</g>
<polygon points="28.9,21 24.7,16.7 20.4,21 23.1,21 23.1,28.2 26.2,27.1 26.2,21 "/>
<path d="M28.4,8.4c-2,0-3.9,0.7-5.4,2.1c-1.2,1.1-2,2.5-2.4,4.1c-0.5-0.2-1-0.2-1.5-0.2c-2.7,0-5,2.2-5,5s2.2,5,5,5c0,0,1,0,2.3,0
	v-1.5c-1.3,0-2.3,0-2.3,0c-1.9,0-3.5-1.6-3.5-3.5s1.6-3.5,3.5-3.5c0.6,0,1.2,0.2,1.7,0.4l1,0.6l0.1-1.1c0.2-1.6,0.9-3.1,2.1-4.1
	c1.2-1.1,2.7-1.7,4.4-1.7c3.6,0,6.5,2.9,6.5,6.5S32,23,28.4,23c0,0-0.3,0-0.5,0v1.5c0.3,0,0.5,0,0.5,0c4.4,0,8-3.6,8-8
	S32.8,8.4,28.4,8.4z"/>
<polygon class="st3" points="29.3,71.1 25,66.7 20.8,71.1 23.4,71.1 23.4,78.3 26.5,77.1 26.5,71.1 "/>
<path class="st3" d="M28.7,58.4c-2,0-3.9,0.7-5.4,2.1c-1.2,1.1-2,2.5-2.4,4.1c-0.5-0.2-1-0.2-1.5-0.2c-2.7,0-5,2.2-5,5
	c0,2.7,2.2,5,5,5c0,0,1,0,2.3,0v-1.5c-1.3,0-2.3,0-2.3,0c-1.9,0-3.5-1.6-3.5-3.5s1.6-3.5,3.5-3.5c0.6,0,1.2,0.2,1.7,0.4l1,0.6
	l0.1-1.1c0.2-1.6,0.9-3.1,2.1-4.1c1.2-1.1,2.7-1.7,4.4-1.7c3.6,0,6.5,2.9,6.5,6.5c0,3.6-2.9,6.5-6.5,6.5c0,0-0.3,0-0.5,0v1.5
	c0.3,0,0.5,0,0.5,0c4.4,0,8-3.6,8-8S33.1,58.4,28.7,58.4z"/>
<g>
	<path class="st3" d="M7,92.7v-6.4h1.2v6.4H7z"/>
	<path class="st3" d="M15,92.7v-4.2l-1.6,3.1h-0.7L11,88.5v4.2H9.8v-6.4h1.3L13,90l1.9-3.6h1.3v6.4H15z"/>
	<path class="st3" d="M17.8,92.7v-6.4h2.7c0.3,0,0.6,0.1,0.8,0.2s0.5,0.3,0.6,0.5c0.2,0.2,0.3,0.4,0.4,0.7c0.1,0.3,0.2,0.5,0.2,0.8
		c0,0.3,0,0.5-0.1,0.8c-0.1,0.3-0.2,0.5-0.4,0.7c-0.2,0.2-0.4,0.4-0.6,0.5c-0.2,0.1-0.5,0.2-0.8,0.2H19v2.1H17.8z M19,89.5h1.4
		c0.2,0,0.4-0.1,0.6-0.3c0.2-0.2,0.2-0.4,0.2-0.8c0-0.2,0-0.3-0.1-0.4c0-0.1-0.1-0.2-0.2-0.3c-0.1-0.1-0.2-0.2-0.3-0.2
		c-0.1,0-0.2-0.1-0.3-0.1H19V89.5z"/>
	<path class="st3" d="M26.2,92.8c-0.5,0-0.9-0.1-1.2-0.3s-0.7-0.4-1-0.7c-0.3-0.3-0.5-0.6-0.6-1c-0.1-0.4-0.2-0.8-0.2-1.2
		c0-0.4,0.1-0.8,0.2-1.2s0.4-0.7,0.6-1c0.3-0.3,0.6-0.5,1-0.7s0.8-0.3,1.2-0.3c0.5,0,0.9,0.1,1.2,0.3s0.7,0.4,1,0.7
		c0.3,0.3,0.5,0.7,0.6,1c0.1,0.4,0.2,0.8,0.2,1.2c0,0.4-0.1,0.8-0.2,1.2c-0.2,0.4-0.4,0.7-0.6,1c-0.3,0.3-0.6,0.5-1,0.7
		C27.1,92.7,26.7,92.8,26.2,92.8z M24.5,89.6c0,0.3,0,0.5,0.1,0.8c0.1,0.3,0.2,0.5,0.4,0.7c0.2,0.2,0.3,0.4,0.6,0.5s0.5,0.2,0.8,0.2
		c0.3,0,0.5-0.1,0.8-0.2s0.4-0.3,0.6-0.5c0.1-0.2,0.3-0.4,0.3-0.7s0.1-0.5,0.1-0.8c0-0.3,0-0.5-0.1-0.8c-0.1-0.3-0.2-0.5-0.4-0.7
		c-0.2-0.2-0.3-0.4-0.6-0.5c-0.2-0.1-0.5-0.2-0.7-0.2c-0.3,0-0.5,0.1-0.8,0.2s-0.4,0.3-0.6,0.5c-0.2,0.2-0.3,0.4-0.3,0.7
		C24.5,89,24.5,89.3,24.5,89.6z"/>
	<path class="st3" d="M30.5,92.7v-6.4h2.8c0.3,0,0.6,0.1,0.8,0.2s0.5,0.3,0.6,0.5c0.2,0.2,0.3,0.4,0.4,0.7c0.1,0.3,0.2,0.5,0.2,0.8
		c0,0.4-0.1,0.8-0.3,1.1c-0.2,0.3-0.5,0.6-0.8,0.7l1.5,2.4h-1.4l-1.3-2.1h-1.2v2.1H30.5z M31.7,89.5h1.6c0.1,0,0.2,0,0.3-0.1
		c0.1-0.1,0.2-0.1,0.3-0.2c0.1-0.1,0.1-0.2,0.2-0.3s0.1-0.3,0.1-0.4c0-0.1,0-0.3-0.1-0.4s-0.1-0.2-0.2-0.3c-0.1-0.1-0.2-0.2-0.3-0.2
		c-0.1-0.1-0.2-0.1-0.3-0.1h-1.5V89.5z"/>
	<path class="st3" d="M41.4,87.4h-2v5.3h-1.2v-5.3h-2v-1.1h5.3V87.4z"/>
</g>
<g class="st4">
	<g class="st0">
		<path class="st2" d="M50.2,146.6c0,2.2-1.8,4-4,4h-42c-2.2,0-4-1.8-4-4v-42c0-2.2,1.8-4,4-4h42c2.2,0,4,1.8,4,4V146.6z"/>
	</g>
</g>
<polygon class="st5" points="29.3,121.1 25,116.7 20.8,121.1 23.4,121.1 23.4,128.3 26.5,127.1 26.5,121.1 "/>
<path class="st5" d="M28.7,108.4c-2,0-3.9,0.7-5.4,2.1c-1.2,1.1-2,2.5-2.4,4.1c-0.5-0.2-1-0.2-1.5-0.2c-2.7,0-5,2.2-5,5
	c0,2.7,2.2,5,5,5c0,0,1,0,2.3,0v-1.5c-1.3,0-2.3,0-2.3,0c-1.9,0-3.5-1.6-3.5-3.5s1.6-3.5,3.5-3.5c0.6,0,1.2,0.2,1.7,0.4l1,0.6
	l0.1-1.1c0.2-1.6,0.9-3.1,2.1-4.1c1.2-1.1,2.7-1.7,4.4-1.7c3.6,0,6.5,2.9,6.5,6.5s-2.9,6.5-6.5,6.5c0,0-0.3,0-0.5,0v1.5
	c0.3,0,0.5,0,0.5,0c4.4,0,8-3.6,8-8C36.7,112,33.1,108.4,28.7,108.4z"/>
<g>
	<path d="M7,42.9v-6.4h1.2v6.4H7z"/>
	<path d="M15,42.9v-4.2l-1.6,3.1h-0.7L11,38.7v4.2H9.8v-6.4h1.3l1.9,3.6l1.9-3.6h1.3v6.4H15z"/>
	<path d="M17.8,42.9v-6.4h2.7c0.3,0,0.6,0.1,0.8,0.2s0.5,0.3,0.6,0.5c0.2,0.2,0.3,0.4,0.4,0.7c0.1,0.3,0.2,0.5,0.2,0.8
		c0,0.3,0,0.5-0.1,0.8c-0.1,0.3-0.2,0.5-0.4,0.7c-0.2,0.2-0.4,0.4-0.6,0.5c-0.2,0.1-0.5,0.2-0.8,0.2H19v2.1H17.8z M19,39.7h1.4
		c0.2,0,0.4-0.1,0.6-0.3c0.2-0.2,0.2-0.4,0.2-0.8c0-0.2,0-0.3-0.1-0.4c0-0.1-0.1-0.2-0.2-0.3c-0.1-0.1-0.2-0.2-0.3-0.2
		c-0.1,0-0.2-0.1-0.3-0.1H19V39.7z"/>
	<path d="M26.2,43c-0.5,0-0.9-0.1-1.2-0.3s-0.7-0.4-1-0.7c-0.3-0.3-0.5-0.6-0.6-1c-0.1-0.4-0.2-0.8-0.2-1.2c0-0.4,0.1-0.8,0.2-1.2
		s0.4-0.7,0.6-1c0.3-0.3,0.6-0.5,1-0.7s0.8-0.3,1.2-0.3c0.5,0,0.9,0.1,1.2,0.3s0.7,0.4,1,0.7c0.3,0.3,0.5,0.7,0.6,1
		c0.1,0.4,0.2,0.8,0.2,1.2c0,0.4-0.1,0.8-0.2,1.2c-0.2,0.4-0.4,0.7-0.6,1c-0.3,0.3-0.6,0.5-1,0.7C27.1,42.9,26.7,43,26.2,43z
		 M24.5,39.7c0,0.3,0,0.5,0.1,0.8c0.1,0.3,0.2,0.5,0.4,0.7c0.2,0.2,0.3,0.4,0.6,0.5s0.5,0.2,0.8,0.2c0.3,0,0.5-0.1,0.8-0.2
		s0.4-0.3,0.6-0.5c0.1-0.2,0.3-0.4,0.3-0.7S28,40,28,39.7c0-0.3,0-0.5-0.1-0.8c-0.1-0.3-0.2-0.5-0.4-0.7c-0.2-0.2-0.3-0.4-0.6-0.5
		c-0.2-0.1-0.5-0.2-0.7-0.2c-0.3,0-0.5,0.1-0.8,0.2s-0.4,0.3-0.6,0.5c-0.2,0.2-0.3,0.4-0.3,0.7C24.5,39.2,24.5,39.4,24.5,39.7z"/>
	<path d="M30.5,42.9v-6.4h2.8c0.3,0,0.6,0.1,0.8,0.2s0.5,0.3,0.6,0.5c0.2,0.2,0.3,0.4,0.4,0.7c0.1,0.3,0.2,0.5,0.2,0.8
		c0,0.4-0.1,0.8-0.3,1.1c-0.2,0.3-0.5,0.6-0.8,0.7l1.5,2.4h-1.4l-1.3-2.1h-1.2v2.1H30.5z M31.7,39.7h1.6c0.1,0,0.2,0,0.3-0.1
		c0.1-0.1,0.2-0.1,0.3-0.2c0.1-0.1,0.1-0.2,0.2-0.3s0.1-0.3,0.1-0.4c0-0.1,0-0.3-0.1-0.4s-0.1-0.2-0.2-0.3c-0.1-0.1-0.2-0.2-0.3-0.2
		c-0.1-0.1-0.2-0.1-0.3-0.1h-1.5V39.7z"/>
	<path d="M41.4,37.6h-2v5.3h-1.2v-5.3h-2v-1.1h5.3V37.6z"/>
</g>
<g class="st6">
	<path class="st3" d="M7,142.7v-6.4h1.2v6.4H7z"/>
	<path class="st3" d="M15,142.7v-4.2l-1.6,3.1h-0.7l-1.6-3.1v4.2H9.8v-6.4h1.3l1.9,3.6l1.9-3.6h1.3v6.4H15z"/>
	<path class="st3" d="M17.8,142.7v-6.4h2.7c0.3,0,0.6,0.1,0.8,0.2s0.5,0.3,0.6,0.5c0.2,0.2,0.3,0.4,0.4,0.7c0.1,0.3,0.2,0.5,0.2,0.8
		c0,0.3,0,0.5-0.1,0.8c-0.1,0.3-0.2,0.5-0.4,0.7c-0.2,0.2-0.4,0.4-0.6,0.5c-0.2,0.1-0.5,0.2-0.8,0.2H19v2.1H17.8z M19,139.5h1.4
		c0.2,0,0.4-0.1,0.6-0.3c0.2-0.2,0.2-0.4,0.2-0.8c0-0.2,0-0.3-0.1-0.4c0-0.1-0.1-0.2-0.2-0.3c-0.1-0.1-0.2-0.2-0.3-0.2
		c-0.1,0-0.2-0.1-0.3-0.1H19V139.5z"/>
	<path class="st3" d="M26.2,142.7c-0.5,0-0.9-0.1-1.2-0.3s-0.7-0.4-1-0.7c-0.3-0.3-0.5-0.6-0.6-1c-0.1-0.4-0.2-0.8-0.2-1.2
		c0-0.4,0.1-0.8,0.2-1.2s0.4-0.7,0.6-1c0.3-0.3,0.6-0.5,1-0.7s0.8-0.3,1.2-0.3c0.5,0,0.9,0.1,1.2,0.3s0.7,0.4,1,0.7
		c0.3,0.3,0.5,0.7,0.6,1c0.1,0.4,0.2,0.8,0.2,1.2c0,0.4-0.1,0.8-0.2,1.2c-0.2,0.4-0.4,0.7-0.6,1c-0.3,0.3-0.6,0.5-1,0.7
		C27.1,142.7,26.7,142.7,26.2,142.7z M24.5,139.5c0,0.3,0,0.5,0.1,0.8c0.1,0.3,0.2,0.5,0.4,0.7c0.2,0.2,0.3,0.4,0.6,0.5
		s0.5,0.2,0.8,0.2c0.3,0,0.5-0.1,0.8-0.2s0.4-0.3,0.6-0.5c0.1-0.2,0.3-0.4,0.3-0.7s0.1-0.5,0.1-0.8c0-0.3,0-0.5-0.1-0.8
		c-0.1-0.3-0.2-0.5-0.4-0.7c-0.2-0.2-0.3-0.4-0.6-0.5c-0.2-0.1-0.5-0.2-0.7-0.2c-0.3,0-0.5,0.1-0.8,0.2s-0.4,0.3-0.6,0.5
		c-0.2,0.2-0.3,0.4-0.3,0.7C24.5,139,24.5,139.2,24.5,139.5z"/>
	<path class="st3" d="M30.5,142.7v-6.4h2.8c0.3,0,0.6,0.1,0.8,0.2s0.5,0.3,0.6,0.5c0.2,0.2,0.3,0.4,0.4,0.7c0.1,0.3,0.2,0.5,0.2,0.8
		c0,0.4-0.1,0.8-0.3,1.1c-0.2,0.3-0.5,0.6-0.8,0.7l1.5,2.4h-1.4l-1.3-2.1h-1.2v2.1H30.5z M31.7,139.5h1.6c0.1,0,0.2,0,0.3-0.1
		c0.1-0.1,0.2-0.1,0.3-0.2c0.1-0.1,0.1-0.2,0.2-0.3s0.1-0.3,0.1-0.4c0-0.1,0-0.3-0.1-0.4s-0.1-0.2-0.2-0.3c-0.1-0.1-0.2-0.2-0.3-0.2
		c-0.1-0.1-0.2-0.1-0.3-0.1h-1.5V139.5z"/>
	<path class="st3" d="M41.4,137.4h-2v5.3h-1.2v-5.3h-2v-1.1h5.3V137.4z"/>
</g>
</svg>
