<?xml version="1.0" encoding="UTF-8" standalone="no"?>
<svg width="631px" height="82px" viewBox="0 0 631 82" version="1.1" xmlns="http://www.w3.org/2000/svg" xmlns:xlink="http://www.w3.org/1999/xlink">
    <!-- Generator: Sketch 45.2 (43514) - http://www.bohemiancoding.com/sketch -->
    <title>COLOR TOOL</title>
    <desc>Created with Sketch.</desc>
    <defs></defs>
    <g id="Color-Tool" stroke="none" stroke-width="1" fill="none" fill-rule="evenodd">
        <g id="Color-Tool---Default" transform="translate(-886.000000, -200.000000)" fill="#FFFFFF">
            <path d="M920.528,200.704 C901.152,200.704 886.256,215.04 886.256,241.136 C886.256,267.568 900.368,281.792 920.976,281.792 C931.728,281.792 939.904,277.088 944.832,272.048 L937.216,262.304 C932.736,265.776 928.256,268.8 921.76,268.8 C911.12,268.8 903.616,260.624 903.616,241.136 C903.616,220.976 911.232,213.136 921.536,213.136 C926.912,213.136 931.392,215.04 935.648,218.736 L943.936,209.104 C937.552,203.728 930.832,200.704 920.528,200.704 Z M982.464,200.704 C1003.744,200.704 1016.848,215.264 1016.848,241.248 C1016.848,266.672 1003.744,281.792 982.464,281.792 C961.184,281.792 947.968,267.12 947.968,241.248 C947.968,215.936 961.184,200.704 982.464,200.704 Z M982.464,213.024 C971.488,213.024 965.328,220.976 965.328,241.248 C965.328,261.52 971.712,269.472 982.464,269.472 C993.552,269.472 999.488,261.52 999.488,241.248 C999.488,220.976 993.552,213.024 982.464,213.024 Z M1045.744,266.784 L1045.744,202.496 L1029.28,202.496 L1029.28,280 L1074.64,280 L1076.432,266.784 L1045.744,266.784 Z M1115.744,200.704 C1137.024,200.704 1150.128,215.264 1150.128,241.248 C1150.128,266.672 1137.024,281.792 1115.744,281.792 C1094.464,281.792 1081.248,267.12 1081.248,241.248 C1081.248,215.936 1094.464,200.704 1115.744,200.704 Z M1115.744,213.024 C1104.768,213.024 1098.608,220.976 1098.608,241.248 C1098.608,261.52 1104.992,269.472 1115.744,269.472 C1126.832,269.472 1132.768,261.52 1132.768,241.248 C1132.768,220.976 1126.832,213.024 1115.744,213.024 Z M1187.424,249.648 L1179.024,249.648 L1179.024,280 L1162.56,280 L1162.56,202.496 L1186.752,202.496 C1207.472,202.496 1218,210 1218,225.68 C1218,235.984 1212.96,242.144 1202.656,246.624 L1222.704,280 L1204,280 L1187.424,249.648 Z M1179.024,238 L1187.648,238 C1196.272,238 1200.976,234.416 1200.976,225.68 C1200.976,217.728 1196.384,214.256 1186.416,214.256 L1179.024,214.256 L1179.024,238 Z M1308.272,215.376 L1310.064,202.496 L1251.6,202.496 L1251.6,215.376 L1272.208,215.376 L1272.208,280 L1288.672,280 L1288.672,215.376 L1308.272,215.376 Z M1345.12,200.704 C1366.4,200.704 1379.504,215.264 1379.504,241.248 C1379.504,266.672 1366.4,281.792 1345.12,281.792 C1323.84,281.792 1310.624,267.12 1310.624,241.248 C1310.624,215.936 1323.84,200.704 1345.12,200.704 Z M1345.12,213.024 C1334.144,213.024 1327.984,220.976 1327.984,241.248 C1327.984,261.52 1334.368,269.472 1345.12,269.472 C1356.208,269.472 1362.144,261.52 1362.144,241.248 C1362.144,220.976 1356.208,213.024 1345.12,213.024 Z M1422.512,200.704 C1443.792,200.704 1456.896,215.264 1456.896,241.248 C1456.896,266.672 1443.792,281.792 1422.512,281.792 C1401.232,281.792 1388.016,267.12 1388.016,241.248 C1388.016,215.936 1401.232,200.704 1422.512,200.704 Z M1422.512,213.024 C1411.536,213.024 1405.376,220.976 1405.376,241.248 C1405.376,261.52 1411.76,269.472 1422.512,269.472 C1433.6,269.472 1439.536,261.52 1439.536,241.248 C1439.536,220.976 1433.6,213.024 1422.512,213.024 Z M1485.792,266.784 L1485.792,202.496 L1469.328,202.496 L1469.328,280 L1514.688,280 L1516.48,266.784 L1485.792,266.784 Z" id="COLOR-TOOL"></path>
        </g>
    </g>
</svg>