<?xml version="1.0" encoding="UTF-8" standalone="no"?>
<svg width="161px" height="161px" viewBox="0 0 161 161" version="1.1" xmlns="http://www.w3.org/2000/svg" xmlns:xlink="http://www.w3.org/1999/xlink">
    <!-- Generator: Sketch 45.2 (43514) - http://www.bohemiancoding.com/sketch -->
    <title>delete-icon</title>
    <desc>Created with Sketch.</desc>
    <defs></defs>
    <g id="Icons" stroke="none" stroke-width="1" fill="none" fill-rule="evenodd">
        <g id="Tool-Icons" transform="translate(-1402.000000, -1306.000000)" fill-rule="nonzero" fill="#AFAFAF">
            <g id="delete-icon" transform="translate(1402.000000, 1306.000000)">
                <path d="M151.781331,0 C149.423978,0 147.067406,0.900440203 145.265587,2.70210224 L80.4954354,67.4691188 L15.7350484,2.71206805 C12.1312136,-0.891451434 6.30583152,-0.891451434 2.70258297,2.71206805 C-0.900860989,6.31539213 -0.900860989,12.1393331 2.70258297,15.7428525 L67.4629641,80.5002941 L2.70258297,145.25832 C-0.900860989,148.861644 -0.900860989,154.686757 2.70258297,158.290277 C4.49990835,160.08764 6.85921546,160.99023 9.21871797,160.99023 C11.5778297,160.99023 13.937723,160.08764 15.7350484,158.290277 L80.4954354,93.5324464 L145.265587,158.299461 C147.062717,160.096824 149.422024,161 151.781331,161 C154.140638,161 156.490761,160.096824 158.29727,158.299461 C161.90091,154.695942 161.90091,148.87161 158.29727,145.268286 L93.5279008,80.5010757 L158.29727,15.7340592 C161.90091,12.1305397 161.90091,6.30562173 158.29727,2.70210224 C156.495451,0.900440203 154.137902,0 151.781331,0 Z" id="Shape"></path>
            </g>
        </g>
    </g>
</svg>