<?xml version="1.0" encoding="UTF-8" standalone="no"?>
<svg width="180px" height="198px" viewBox="0 0 180 198" version="1.1" xmlns="http://www.w3.org/2000/svg" xmlns:xlink="http://www.w3.org/1999/xlink">
    <!-- Generator: Sketch 45.2 (43514) - http://www.bohemiancoding.com/sketch -->
    <title>physics-icon</title>
    <desc>Created with Sketch.</desc>
    <defs></defs>
    <g id="Icons" stroke="none" stroke-width="1" fill="none" fill-rule="evenodd">
        <g id="Tool-Icons" transform="translate(-271.000000, -1288.000000)" fill="#AFAFAF">
            <g id="physics-icon" transform="translate(271.000000, 1288.000000)">
                <path d="M132.009431,123.008722 C139.271057,117.895835 145.810909,112.592751 151.635816,107.102397 C160.130308,116.149924 165.795254,124.94288 167.729412,132.307894 C168.251234,134.30155 168.501904,136.073796 168.500929,137.631461 C168.498978,139.713875 168.067865,141.403215 167.238801,142.852614 C165.843047,145.23349 163.538249,146.999884 160.312702,148.207392 C157.093008,149.410998 152.984752,150.008899 148.238604,150.006949 C142.30153,150.007924 135.367628,149.070594 127.917757,147.357845 C129.645136,139.813362 131.008702,131.594899 132.009431,123.008722 M133.07551,90.2909288 C136.802397,93.1653426 140.365422,96.1343672 143.589993,99.1053426 C140.365422,102.077293 136.802397,105.045343 133.07551,107.920732 C133.160367,105.022909 133.161343,102.058761 133.161343,99.1053426 C133.161343,96.1528993 133.160367,93.1887515 133.07551,90.2909288 M167.238801,55.359047 C168.067865,56.8084461 168.498978,58.497786 168.500929,60.5792244 C168.501904,62.1388402 168.251234,63.9101111 167.729412,65.9037663 C165.794279,73.2717071 160.122505,82.0714904 151.619234,91.1248697 C145.788476,85.8013032 139.100367,80.3402096 132.023087,75.2214707 C131.196949,66.6021308 129.665619,58.3748894 127.921658,50.8528402 C135.369579,49.1400914 142.302505,48.2037367 148.238604,48.2047121 C152.984752,48.2027613 157.093008,48.7996874 160.312702,50.0032934 C163.538249,51.2117761 165.843047,52.9781702 167.238801,55.359047 M47.9842787,75.2019633 C40.7226531,80.3158254 34.1828009,85.6179337 28.3578944,91.1082884 C19.8634018,82.0617367 14.198456,73.2668303 12.2642984,65.9037663 C11.7415004,63.9091357 11.4918058,62.1368894 11.4918058,60.5772737 C11.4947319,58.4958352 11.9268206,56.80552 12.7558846,55.3561209 C13.4522984,54.1573919 14.3759733,53.1283771 15.5376383,52.2407909 C17.2786728,50.910387 19.5668895,49.9038057 22.3330373,49.2395791 C25.0972343,48.5743771 28.3305841,48.2515298 31.9131161,48.2525052 C37.7594807,48.2505544 44.7948206,49.1791062 52.0759536,50.8528402 C50.3485743,58.3973229 48.9850077,66.6167613 47.9842787,75.2019633 M46.9191752,107.920732 C43.1913132,105.045343 39.6282885,102.077293 36.4027417,99.1053426 C39.6282885,96.1343672 43.1913132,93.1653426 46.9191752,90.2909288 C46.8343181,93.1887515 46.8323674,96.1528993 46.8323674,99.1053426 C46.8323674,102.058761 46.8343181,105.022909 46.9191752,107.920732 M12.7549092,142.852614 C11.867323,141.303727 11.3581802,139.383224 11.3572048,137.127195 C11.3572048,135.657313 11.5747122,134.046978 12.0477664,132.322525 L12.0497171,132.315697 L12.0516678,132.30887 C13.9858255,124.939953 19.6575989,116.14017 28.1608698,107.086791 C33.9926038,112.410357 40.6816876,117.870476 47.757993,122.989215 C48.5841309,131.60953 50.1164363,139.838722 51.8594215,147.361747 C44.492456,149.072545 37.6131752,150.007924 31.7092639,150.006949 C26.9875004,150.008899 22.8899733,149.410998 19.6761309,148.208367 C16.4564363,147.00086 14.1496876,145.23349 12.7549092,142.852614 M120.940939,116.701008 C116.031904,119.958742 111.144328,123.176485 105.900742,125.986525 L105.890988,125.992377 L105.880259,125.997254 C100.76152,128.851185 95.4633132,131.683658 89.9963674,134.135737 C84.533323,131.684633 79.2380422,128.854111 74.1212541,126.002131 C68.8328009,122.963855 63.9374215,119.923628 59.0527713,116.696131 C58.4743772,110.84684 58.2685743,104.98487 58.2685743,99.1053426 C58.2685743,93.2248402 58.4743772,87.3599436 59.0527713,81.5096776 C63.9608304,78.252919 68.8484068,75.0351751 74.0929683,72.2251357 L74.102722,72.2192835 L74.1144265,72.2134313 C79.23219,69.3595003 84.5303969,66.5280027 89.9963674,64.0749485 C95.4603871,66.5270273 100.755668,69.3565741 105.872456,72.2095298 C111.160909,75.2468303 116.056289,78.2880323 120.940939,81.5145544 C121.518358,87.3638451 121.72416,93.2258155 121.72416,99.1053426 C121.72416,104.98682 121.518358,110.850742 120.940939,116.701008 M104.008525,140.229845 C106.53083,138.930653 109.099954,137.556357 111.562761,136.177185 L111.591047,136.160604 L111.620308,136.143047 C114.078239,134.613668 116.662968,133.073559 119.137481,131.521747 C118.453747,135.968456 117.629559,140.290318 116.596643,144.486357 C112.393776,143.218377 108.197737,141.824574 104.008525,140.229845 M68.4309486,135.96553 C70.9571555,137.379816 73.5867516,138.788249 76.1490472,140.187904 C71.8701013,141.846032 67.5443378,143.345175 63.4341309,144.512692 C62.4948501,140.263008 61.591658,135.915786 60.8689092,131.470052 C63.3795102,133.020889 65.8988895,134.548318 68.4309486,135.96553 M75.9861605,57.9818155 C73.4628797,59.2800323 70.8937565,60.6553032 68.4309486,62.0335003 L68.4026629,62.0500815 L68.3734018,62.0686136 C65.9154708,63.5979929 63.3307417,65.1371259 60.8572048,66.689914 C61.538988,62.2422293 62.3641506,57.922318 63.3970669,53.7253032 C67.5999339,54.9932835 71.7959733,56.3870865 75.9861605,57.9818155 M111.561786,62.2461308 C109.092151,60.8620815 106.514249,59.4838845 103.985116,58.1807909 C108.217244,56.5441209 112.493264,55.0654608 116.558604,53.909648 C117.484229,58.0949584 118.375717,62.3739042 119.092614,66.750387 C116.613224,65.1283475 114.026545,63.6262786 111.561786,62.2461308 M83.1678058,13.64152 C85.4082294,12.1540815 87.6632836,11.4001209 89.9963674,11.3981702 C92.3304265,11.4001209 94.5845053,12.1540815 96.8259043,13.64152 C100.1802,15.8673131 103.433057,19.77952 106.363067,24.9684855 C109.105806,29.8141209 111.569589,35.7677761 113.68419,42.4246727 C106.131904,44.6787515 98.2421408,47.6341209 90.0022196,51.1308204 C81.9271358,47.6282687 73.8715595,44.6738746 66.3046432,42.4217466 C69.1732048,33.3878746 72.6991654,25.6648993 76.6591654,20.220387 C78.7386531,17.3567022 80.932259,15.127983 83.1678058,13.64152 M96.8259043,184.569165 C94.5845053,186.057579 92.3304265,186.81154 89.9963674,186.81349 C87.6632836,186.81154 85.4082294,186.057579 83.1678058,184.569165 C79.8125348,182.344348 76.5596777,178.431165 73.6296678,173.2422 C70.8879043,168.396564 68.424121,162.44486 66.3095201,155.786013 C73.8618058,153.531934 81.7515693,150.57754 89.9914905,147.08084 C98.0655989,150.583392 106.122151,153.536811 113.689067,155.788939 C110.820505,164.822811 107.294545,172.545786 103.334545,177.991274 C101.255057,180.854958 99.0614511,183.083678 96.8259043,184.569165 M178.863254,129.259865 L178.858377,129.240357 L178.852525,129.218899 C176.267796,119.826091 169.464594,109.480348 159.869885,99.1150963 C169.661619,88.7400914 176.276574,78.3602096 178.8535,68.7772047 C179.613313,66.0042293 179.993707,63.3356185 179.993707,60.7957564 C179.995658,56.6835988 178.986151,52.9040421 177.0042,49.6550865 L177.005175,49.6550865 C177.002249,49.651185 177.000298,49.6472835 176.997372,49.6443574 C176.994446,49.6385052 176.99152,49.632653 176.987619,49.6268007 L176.986643,49.6277761 C174.454584,45.2834805 170.391195,42.0920717 165.25685,40.0233131 C160.106899,37.9467515 153.867461,36.9577269 146.798958,36.9557761 C140.142062,36.9567515 132.738032,37.8482392 124.816082,39.5726924 C121.097973,27.9414116 116.244535,18.2803771 110.509362,11.3825643 C107.535461,7.8088106 104.319668,4.97243621 100.882466,3.01779582 C97.44819,1.06315542 93.7817762,-0.0019480244 89.9963674,2.71451705e-06 C86.2158353,-0.0019480244 82.5503969,1.04754951 79.116121,2.98463326 C73.9593427,5.89416035 69.2990275,10.7680815 65.2073526,17.1938155 C61.3088009,23.3201111 57.9330472,30.8850766 55.1795792,39.5726924 C47.2566531,37.8482392 39.8526235,36.9567515 33.1947516,36.9557761 C26.1262491,36.9577269 19.8868107,37.9467515 14.73686,40.0233131 C9.59373681,42.0949978 5.52156932,45.2961603 2.99048558,49.6531357 C1.01536243,53.0191357 0.0907121813,56.8260027 0.0936382897,60.9176776 C0.0936382897,63.4838746 0.451598881,66.1651653 1.13045602,68.9517958 L1.13533287,68.9722786 L1.14118509,68.9927613 C3.72688952,78.3855692 10.5291161,88.7313131 20.1238255,99.0955889 C10.3320915,109.471569 3.71713583,119.851451 1.14020972,129.434456 C0.38039691,132.207431 2.82173939e-06,134.876042 2.82173939e-06,137.415904 C-0.00194791718,141.528062 1.00755947,145.306643 2.99048558,148.556574 L2.98951021,148.556574 C2.99146095,148.560476 2.99438706,148.564377 2.9963378,148.568279 C3.00023927,148.574131 3.00219001,148.579983 3.00609149,148.58486 L3.00706686,148.58486 C5.53132302,152.9155 9.55179593,156.085451 14.6383476,158.127875 C19.7414807,160.179077 25.9282491,161.143717 32.9762688,161.145668 C39.7755693,161.144692 47.1161999,160.165421 55.173727,158.426338 C58.8918353,170.156131 63.7481999,179.822042 69.4862984,186.699372 C72.4611752,190.260446 75.6789191,193.077313 79.116121,195.014397 C82.5503969,196.952456 86.21486,198.001953 89.9963674,198.000003 C93.7778747,198.001953 97.4433132,196.952456 100.877589,195.014397 C106.034367,192.105845 110.693707,187.231924 114.787333,180.80619 C118.684909,174.678919 122.060663,167.113953 124.814131,158.425362 C132.873609,160.164446 140.217165,161.144692 147.017441,161.145668 C154.065461,161.143717 160.252229,160.179077 165.355362,158.127875 C170.451668,156.080574 174.479944,152.903796 177.003224,148.558525 C178.978348,145.19155 179.902998,141.384683 179.901047,137.293983 C179.901047,134.727786 179.541136,132.046495 178.863254,129.259865" id="Fill-9"></path>
                <path d="M94.8987488,103.898749 C93.6200394,105.175507 91.8770542,105.96068 89.9692315,105.96068 C88.0623842,105.96068 86.319399,105.175507 85.0406897,103.898749 C83.7649064,102.620039 82.9787586,100.877054 82.9787586,98.9692315 C82.9787586,97.0623842 83.7649064,95.319399 85.0406897,94.0406897 C86.319399,92.7649064 88.0623842,91.9787586 89.9692315,91.9787586 C91.8770542,91.9787586 93.6200394,92.7649064 94.8987488,94.0406897 C96.1755074,95.319399 96.9606798,97.0623842 96.9606798,98.9692315 C96.9606798,100.877054 96.1755074,102.620039 94.8987488,103.898749 M89.9692315,81 C80.0936158,81.0087783 72.0087783,89.0936158 72,98.9692315 C72.0087783,108.844847 80.0936158,116.93066 89.9692315,116.938463 C99.8448473,116.93066 107.93066,108.844847 107.938463,98.9692315 C107.93066,89.0936158 99.8448473,81.0087783 89.9692315,81" id="Fill-12"></path>
            </g>
        </g>
    </g>
</svg>