<?xml version="1.0" encoding="utf-8"?>
<!DOCTYPE svg PUBLIC "-//W3C//DTD SVG 1.1//EN" "http://www.w3.org/Graphics/SVG/1.1/DTD/svg11.dtd">
<svg xmlns="http://www.w3.org/2000/svg" xmlns:xlink="http://www.w3.org/1999/xlink" version="1.1" baseProfile="full" width="180" height="186" viewBox="0 0 180.00 186.00" enable-background="new 0 0 180.00 186.00" xml:space="preserve">
	<g>
		<path fill="#AFAFAF" fill-opacity="1" stroke-width="0.2" stroke-linejoin="round" d="M 142.265,146.571C 136.166,141.827 135.664,136.23 140.76,129.779C 151.25,117.229 156.075,102.741 155.235,86.3146C 154.395,69.8885 148.038,55.7393 136.166,43.867C 123.643,31.3442 108.572,25.0827 90.9536,25.0827C 73.3349,25.0827 58.2506,31.3577 45.7006,43.9077C 31.8225,57.7858 25.0461,73.0192 25.3713,89.6079C 25.7237,104.868 33.0016,120.63 47.205,136.894L 47.7335,121.159C 47.7335,113.678 51.7994,109.612 59.9311,108.961C 62.9669,109.287 65.6775,110.642 68.0628,113.027C 70.7734,115.738 71.966,118.611 71.6408,121.647L 71.1122,165.843C 71.1122,167.198 70.7734,168.892 70.0958,170.925C 68.0628,175.669 64.3358,178.04 58.9147,178.04L 14.1902,178.04C 11.4797,178.04 8.93849,176.854 6.56674,174.483C 4.19499,172.111 2.84649,169.407 2.52122,166.371C 2.52121,158.24 6.58708,154.174 14.7188,154.174L 29.9251,154.174C 11.3035,133.492 1.83001,112.146 1.50475,90.1365C 0.47474,66.7713 9.28409,45.7644 27.9328,27.1157C 45.1992,9.84935 66.0299,1.21617 90.425,1.21617C 114.82,1.21617 135.651,9.84935 152.917,27.1157C 169.181,43.3791 177.827,62.6919 178.857,85.0541C 179.887,107.416 173.274,127.407 159.016,145.026C 157.01,147.736 154.306,149.261 150.905,149.6C 147.503,149.938 144.623,148.929 142.265,146.571 Z "/>
	</g>
</svg>
