<svg width="14" height="13" viewBox="0 0 14 13" fill="none" xmlns="http://www.w3.org/2000/svg">
<path d="M0.546497 6.46222C0.68683 6.52762 0.841945 6.5522 0.994929 6.53328C1.08986 6.5539 1.18806 6.55265 1.28246 6.52963C1.37687 6.50661 1.46514 6.46239 1.54094 6.40015L3.30854 5.1924L7.13987 2.44404L12.4889 6.38113C12.5827 6.46758 12.6942 6.53129 12.8152 6.56759C12.9361 6.60388 13.0634 6.61183 13.1878 6.59084C13.3121 6.56985 13.4303 6.52046 13.5336 6.44631C13.6369 6.37216 13.7226 6.27514 13.7846 6.1624C13.8688 6.06517 13.9308 5.94985 13.9662 5.82485C14.0015 5.69986 14.0093 5.56833 13.9889 5.43987C13.9685 5.3114 13.9205 5.18923 13.8483 5.08225C13.7761 4.97528 13.6816 4.88619 13.5717 4.8215L7.13987 0L2.21652 3.5662L0.485918 4.75494C-0.0415861 5.04974 -0.143383 5.51573 0.199032 6.1624C0.285979 6.29313 0.406165 6.39683 0.546497 6.46222Z" fill="white"/>
<path d="M6.99182 4.97367L10.3142 7.35113L11.9059 8.53987V13H2.15174V8.38771L3.7435 7.27505L6.99182 4.97367Z" fill="white"/>
</svg>
