<?xml version="1.0" encoding="utf-8"?>
<!-- Generator: Adobe Illustrator 18.1.1, SVG Export Plug-In . SVG Version: 6.00 Build 0)  -->
<!DOCTYPE svg PUBLIC "-//W3C//DTD SVG 1.1//EN" "http://www.w3.org/Graphics/SVG/1.1/DTD/svg11.dtd">
<svg version="1.1" id="Layer_1" xmlns="http://www.w3.org/2000/svg" xmlns:xlink="http://www.w3.org/1999/xlink" x="0px" y="0px"
	 viewBox="0 0 106.7 27" enable-background="new 0 0 106.7 27" xml:space="preserve">
<g>
	<g>
		<path fill="#878787" d="M102.2,27H4.5C2,27,0,25,0,22.5v-18C0,2,2,0,4.5,0h97.7c2.5,0,4.5,2,4.5,4.5v18
			C106.7,25,104.6,27,102.2,27z M4.5,1C2.6,1,1,2.6,1,4.5v18C1,24.4,2.6,26,4.5,26h97.7c1.9,0,3.5-1.6,3.5-3.5v-18
			c0-1.9-1.6-3.5-3.5-3.5H4.5z"/>
	</g>
	<g>
		<g>
			<path fill="#CCCCCC" d="M16.8,13.4c1.1-0.8,1.8-2,1.8-3.4c0-2.3-1.9-4.2-4.2-4.2c-2.3,0-4.2,1.9-4.2,4.2c0,1.4,0.7,2.6,1.8,3.4
				c-1.8,1-3.5,2.7-3.5,4.3c0,1.9,3.7,2.2,5.8,2.2s5.8-0.3,5.8-2.2C20.2,16.1,18.5,14.4,16.8,13.4z M14.4,7.5c1.4,0,2.6,1.2,2.6,2.6
				c0,1.4-1.2,2.6-2.6,2.6c-1.4,0-2.6-1.1-2.6-2.6C11.8,8.6,13,7.5,14.4,7.5z M14.3,18.3c-2.5,0-3.9-0.4-4.2-0.7
				c0.1-1.4,2.8-3.3,4.3-3.3c1.5,0,4.1,2,4.2,3.3C18.3,17.9,16.8,18.3,14.3,18.3z"/>
			<path fill="#CCCCCC" d="M23.8,12.4h-1.4V11c0-0.4-0.4-0.8-0.8-0.8c-0.4,0-0.8,0.4-0.8,0.8v1.4h-1.4c-0.4,0-0.8,0.4-0.8,0.8
				s0.4,0.8,0.8,0.8h1.4v1.4c0,0.4,0.4,0.8,0.8,0.8c0.4,0,0.8-0.4,0.8-0.8V14h1.4c0.4,0,0.8-0.4,0.8-0.8S24.2,12.4,23.8,12.4z"/>
		</g>
	</g>
	<g>
		<path fill="#CCCCCC" d="M36.7,18h-1.9l-0.8-2h-3.4l-0.7,2h-1.8l3.3-8.6h1.8L36.7,18z M33.5,14.6l-1.2-3.2l-1.2,3.2H33.5z"/>
		<path fill="#CCCCCC" d="M43.3,18h-1.5v-0.9c-0.3,0.4-0.6,0.6-0.9,0.8s-0.7,0.3-1,0.3c-0.7,0-1.3-0.3-1.8-0.9s-0.8-1.4-0.8-2.4
			c0-1.1,0.2-1.9,0.7-2.4s1.1-0.8,1.9-0.8c0.7,0,1.3,0.3,1.8,0.9V9.5h1.6V18z M38.9,14.8c0,0.7,0.1,1.1,0.3,1.4
			c0.3,0.4,0.6,0.6,1.1,0.6c0.4,0,0.7-0.2,1-0.5s0.4-0.8,0.4-1.4c0-0.7-0.1-1.2-0.4-1.5s-0.6-0.5-1-0.5c-0.4,0-0.7,0.2-1,0.5
			S38.9,14.2,38.9,14.8z"/>
		<path fill="#CCCCCC" d="M50.6,18h-1.5v-0.9c-0.3,0.4-0.6,0.6-0.9,0.8s-0.7,0.3-1,0.3c-0.7,0-1.3-0.3-1.8-0.9s-0.8-1.4-0.8-2.4
			c0-1.1,0.2-1.9,0.7-2.4s1.1-0.8,1.9-0.8c0.7,0,1.3,0.3,1.8,0.9V9.5h1.6V18z M46.2,14.8c0,0.7,0.1,1.1,0.3,1.4
			c0.3,0.4,0.6,0.6,1.1,0.6c0.4,0,0.7-0.2,1-0.5S49,15.6,49,15c0-0.7-0.1-1.2-0.4-1.5s-0.6-0.5-1-0.5c-0.4,0-0.7,0.2-1,0.5
			S46.2,14.2,46.2,14.8z"/>
		<path fill="#CCCCCC" d="M51.4,18.2l2.1-8.9h1.2l-2.2,8.9H51.4z"/>
		<path fill="#CCCCCC" d="M57.2,18h-1.6v-6.2H57v0.9c0.3-0.4,0.5-0.7,0.7-0.8s0.4-0.2,0.7-0.2c0.4,0,0.7,0.1,1.1,0.3L59,13.4
			c-0.3-0.2-0.5-0.3-0.8-0.3c-0.2,0-0.4,0.1-0.6,0.2s-0.3,0.4-0.4,0.7s-0.1,1-0.1,2.1V18z"/>
		<path fill="#CCCCCC" d="M63.9,16.1l1.6,0.3c-0.2,0.6-0.5,1.1-1,1.4s-1,0.5-1.7,0.5c-1.1,0-1.9-0.4-2.4-1.1
			c-0.4-0.6-0.6-1.3-0.6-2.1c0-1,0.3-1.8,0.8-2.4s1.2-0.9,2-0.9c0.9,0,1.7,0.3,2.2,0.9s0.8,1.5,0.8,2.8h-4.1c0,0.5,0.1,0.9,0.4,1.1
			s0.6,0.4,0.9,0.4c0.3,0,0.5-0.1,0.7-0.2S63.8,16.4,63.9,16.1z M64,14.4c0-0.5-0.1-0.8-0.4-1.1s-0.5-0.4-0.9-0.4
			c-0.4,0-0.7,0.1-0.9,0.4s-0.3,0.6-0.3,1.1H64z"/>
		<path fill="#CCCCCC" d="M66.8,11.8h1.5v0.8c0.5-0.7,1.2-1,1.9-1c0.4,0,0.7,0.1,1,0.2s0.5,0.4,0.7,0.7c0.3-0.3,0.6-0.6,0.9-0.7
			s0.7-0.2,1-0.2c0.5,0,0.8,0.1,1.2,0.3s0.6,0.5,0.7,0.8c0.1,0.3,0.2,0.7,0.2,1.3v4h-1.6v-3.6c0-0.6-0.1-1-0.2-1.2
			c-0.2-0.2-0.4-0.4-0.7-0.4c-0.2,0-0.4,0.1-0.7,0.2s-0.3,0.3-0.4,0.6s-0.1,0.7-0.1,1.3v3h-1.6v-3.4c0-0.6,0-1-0.1-1.2
			s-0.1-0.3-0.3-0.4s-0.3-0.1-0.5-0.1c-0.3,0-0.5,0.1-0.7,0.2s-0.3,0.3-0.4,0.6s-0.1,0.7-0.1,1.3v3h-1.6V11.8z"/>
		<path fill="#CCCCCC" d="M77.2,14.8c0-0.5,0.1-1.1,0.4-1.6s0.7-0.9,1.1-1.2s1-0.4,1.7-0.4c0.9,0,1.7,0.3,2.3,0.9s0.9,1.4,0.9,2.3
			c0,0.9-0.3,1.7-0.9,2.3s-1.4,0.9-2.3,0.9c-0.6,0-1.1-0.1-1.6-0.4s-0.9-0.6-1.2-1.1S77.2,15.6,77.2,14.8z M78.9,14.9
			c0,0.6,0.1,1.1,0.4,1.4s0.7,0.5,1.1,0.5s0.8-0.2,1.1-0.5s0.4-0.8,0.4-1.4c0-0.6-0.1-1.1-0.4-1.4S80.9,13,80.4,13s-0.8,0.2-1.1,0.5
			S78.9,14.3,78.9,14.9z"/>
		<path fill="#CCCCCC" d="M86.6,18l-2.5-6.2h1.7L87,15l0.3,1.1c0.1-0.3,0.1-0.4,0.2-0.5c0.1-0.2,0.1-0.4,0.2-0.5l1.2-3.2h1.7
			L88.1,18H86.6z"/>
		<path fill="#CCCCCC" d="M95.2,16.1l1.6,0.3c-0.2,0.6-0.5,1.1-1,1.4s-1,0.5-1.7,0.5c-1.1,0-1.9-0.4-2.4-1.1
			c-0.4-0.6-0.6-1.3-0.6-2.1c0-1,0.3-1.8,0.8-2.4s1.2-0.9,2-0.9c0.9,0,1.7,0.3,2.2,0.9s0.8,1.5,0.8,2.8h-4.1c0,0.5,0.1,0.9,0.4,1.1
			s0.6,0.4,0.9,0.4c0.3,0,0.5-0.1,0.7-0.2S95.1,16.4,95.2,16.1z M95.3,14.4c0-0.5-0.1-0.8-0.4-1.1s-0.5-0.4-0.9-0.4
			c-0.4,0-0.7,0.1-0.9,0.4s-0.3,0.6-0.3,1.1H95.3z"/>
	</g>
</g>
</svg>
