<?xml version="1.0" encoding="utf-8"?>
<!-- Generator: Adobe Illustrator 19.2.0, SVG Export Plug-In . SVG Version: 6.00 Build 0)  -->
<svg version="1.1" id="Layer_1" xmlns="http://www.w3.org/2000/svg" xmlns:xlink="http://www.w3.org/1999/xlink" x="0px" y="0px"
	 viewBox="0 0 50 150" style="enable-background:new 0 0 50 150;" xml:space="preserve">
<style type="text/css">
	.st0{opacity:0.9;}
	.st1{fill:#FFFFFF;}
	.st2{fill:#1E1E1E;}
	.st3{fill:#EAEAEA;}
	.st4{opacity:0.47;}
	.st5{opacity:0.47;fill:#EAEAEA;}
</style>
<g>
	<g class="st0">
		<path class="st1" d="M50,46.3c0,2.2-1.8,4-4,4H4c-2.2,0-4-1.8-4-4v-42c0-2.2,1.8-4,4-4h42c2.2,0,4,1.8,4,4V46.3z"/>
	</g>
</g>
<g>
	<g class="st0">
		<path class="st2" d="M50,96.3c0,2.2-1.8,4-4,4H4c-2.2,0-4-1.8-4-4v-42c0-2.2,1.8-4,4-4h42c2.2,0,4,1.8,4,4V96.3z"/>
	</g>
</g>
<path d="M35,8.3L21.6,6.9c-0.2,0-0.3,0-0.4,0.1l0,0l-6.4,4.5l0,0c0,0,0,0,0,0.1c-0.1,0.1-0.2,0.3-0.2,0.5v13.4
	c0,0.3,0.2,0.6,0.6,0.7l13.4,1.3c0,0,0,0,0.1,0c0.1,0,0.3,0,0.4-0.1l0,0l6.4-4.5l0,0c0,0,0,0,0-0.1c0.1-0.1,0.2-0.3,0.2-0.5V8.9
	C35.6,8.6,35.3,8.3,35,8.3z M33.9,22.3L33.9,22.3c-0.1,0.1-0.1,0.1-0.1,0.1c0,0,0,0,0,0l-4.6,3.2V13.8l5-3.6v11.4
	C34.2,21.9,34.1,22.1,33.9,22.3z M22.3,8.4L33,9.4l-4.7,3.3L17,11.6l4.4-3.1c0,0,0,0,0,0c0,0,0,0,0,0c0.2-0.1,0.4-0.2,0.6-0.2
	C22.1,8.3,22.2,8.3,22.3,8.4z M27.9,26.1l-12.1-1.2V12.9l12.1,1.2V26.1z"/>
<g>
	<path d="M13.1,38.7c0-0.4,0.1-0.8,0.2-1.2c0.1-0.4,0.3-0.7,0.6-1c0.3-0.3,0.6-0.5,1-0.7s0.8-0.3,1.3-0.3c0.6,0,1.1,0.1,1.5,0.4
		c0.4,0.3,0.7,0.6,0.9,1l-1,0.7c-0.1-0.2-0.2-0.3-0.3-0.5c-0.1-0.1-0.2-0.2-0.4-0.3c-0.1-0.1-0.3-0.1-0.4-0.2c-0.1,0-0.3,0-0.4,0
		c-0.3,0-0.6,0.1-0.8,0.2s-0.4,0.3-0.6,0.5c-0.1,0.2-0.3,0.4-0.3,0.7s-0.1,0.5-0.1,0.8c0,0.3,0,0.6,0.1,0.8c0.1,0.3,0.2,0.5,0.4,0.7
		c0.2,0.2,0.3,0.4,0.6,0.5c0.2,0.1,0.5,0.2,0.7,0.2c0.1,0,0.3,0,0.4-0.1c0.1,0,0.3-0.1,0.4-0.2c0.1-0.1,0.3-0.2,0.4-0.3
		c0.1-0.1,0.2-0.3,0.3-0.4l1,0.6c-0.1,0.2-0.2,0.5-0.4,0.6c-0.2,0.2-0.4,0.3-0.6,0.5c-0.2,0.1-0.5,0.2-0.7,0.3
		c-0.3,0.1-0.5,0.1-0.8,0.1c-0.4,0-0.9-0.1-1.2-0.3c-0.4-0.2-0.7-0.4-1-0.8c-0.3-0.3-0.5-0.7-0.6-1.1C13.1,39.5,13.1,39.1,13.1,38.7
		z"/>
	<path d="M22.4,40.9c0.3,0,0.5-0.1,0.7-0.2s0.4-0.3,0.5-0.5c0.1-0.2,0.2-0.4,0.3-0.7s0.1-0.5,0.1-0.8v-3.3h1.2v3.3
		c0,0.4-0.1,0.8-0.2,1.2c-0.1,0.4-0.3,0.7-0.5,1c-0.2,0.3-0.5,0.5-0.9,0.7c-0.4,0.2-0.8,0.3-1.3,0.3c-0.5,0-0.9-0.1-1.3-0.3
		c-0.4-0.2-0.6-0.4-0.9-0.7c-0.2-0.3-0.4-0.6-0.5-1c-0.1-0.4-0.1-0.8-0.1-1.2v-3.3h1.2v3.3c0,0.3,0,0.5,0.1,0.8
		c0.1,0.2,0.1,0.5,0.3,0.7s0.3,0.3,0.5,0.5S22.1,40.9,22.4,40.9z"/>
	<path d="M31.8,40.3c0,0.3-0.1,0.5-0.2,0.7c-0.1,0.2-0.3,0.4-0.4,0.5c-0.2,0.1-0.4,0.2-0.7,0.3c-0.2,0.1-0.5,0.1-0.8,0.1h-3.1v-6.4
		h3.4c0.2,0,0.4,0,0.6,0.1c0.2,0.1,0.3,0.2,0.5,0.4s0.2,0.3,0.3,0.5c0.1,0.2,0.1,0.4,0.1,0.6c0,0.3-0.1,0.6-0.2,0.9
		c-0.2,0.3-0.4,0.5-0.7,0.6c0.4,0.1,0.7,0.3,0.9,0.6C31.7,39.5,31.8,39.9,31.8,40.3z M27.9,36.6v1.6h1.7c0.2,0,0.4-0.1,0.5-0.2
		c0.1-0.1,0.2-0.3,0.2-0.6c0-0.2-0.1-0.4-0.2-0.6c-0.1-0.1-0.3-0.2-0.5-0.2H27.9z M30.5,40c0-0.1,0-0.2-0.1-0.3
		c0-0.1-0.1-0.2-0.2-0.3c-0.1-0.1-0.1-0.1-0.2-0.2s-0.2-0.1-0.3-0.1h-1.9v1.7h1.8c0.1,0,0.2,0,0.3-0.1c0.1,0,0.2-0.1,0.3-0.2
		c0.1-0.1,0.1-0.2,0.2-0.3S30.5,40.2,30.5,40z"/>
	<path d="M37.4,40.8v1.1H33v-6.4h4.4v1.1h-3.1v1.5h2.7v1h-2.7v1.7H37.4z"/>
</g>
<path class="st3" d="M35.3,58.3L21.9,57c-0.2,0-0.3,0-0.4,0.1l0,0L15,61.6l0,0c0,0,0,0,0,0.1c-0.1,0.1-0.2,0.3-0.2,0.5v13.4
	c0,0.3,0.2,0.6,0.6,0.7l13.4,1.3c0,0,0,0,0.1,0c0.1,0,0.3,0,0.4-0.1l0,0l6.4-4.5l0,0c0,0,0,0,0-0.1c0.1-0.1,0.2-0.3,0.2-0.5V59
	C35.9,58.6,35.7,58.3,35.3,58.3z M34.2,72.3L34.2,72.3c-0.1,0.1-0.1,0.1-0.1,0.1c0,0,0,0,0,0l-4.6,3.2V63.8l5-3.6v11.4
	C34.5,71.9,34.5,72.1,34.2,72.3z M22.6,58.4l10.8,1.1l-4.7,3.3l-11.3-1.1l4.4-3.1c0,0,0,0,0,0c0,0,0,0,0,0c0.2-0.1,0.4-0.2,0.6-0.2
	C22.4,58.4,22.5,58.4,22.6,58.4z M28.2,76.1L16.1,75V62.9l12.1,1.2V76.1z"/>
<g>
	<path class="st3" d="M13.4,88.7c0-0.4,0.1-0.8,0.2-1.2c0.1-0.4,0.3-0.7,0.6-1c0.3-0.3,0.6-0.5,1-0.7c0.4-0.2,0.8-0.3,1.3-0.3
		c0.6,0,1.1,0.1,1.5,0.4c0.4,0.3,0.7,0.6,0.9,1l-1,0.7c-0.1-0.2-0.2-0.3-0.3-0.5c-0.1-0.1-0.2-0.2-0.4-0.3c-0.1-0.1-0.3-0.1-0.4-0.2
		c-0.1,0-0.3,0-0.4,0c-0.3,0-0.6,0.1-0.8,0.2s-0.4,0.3-0.6,0.5c-0.1,0.2-0.3,0.4-0.3,0.7s-0.1,0.5-0.1,0.8c0,0.3,0,0.6,0.1,0.8
		c0.1,0.3,0.2,0.5,0.4,0.7c0.2,0.2,0.3,0.4,0.6,0.5c0.2,0.1,0.5,0.2,0.7,0.2c0.1,0,0.3,0,0.4-0.1c0.1,0,0.3-0.1,0.4-0.2
		s0.3-0.2,0.4-0.3c0.1-0.1,0.2-0.3,0.3-0.4l1,0.6c-0.1,0.2-0.2,0.5-0.4,0.6c-0.2,0.2-0.4,0.3-0.6,0.5c-0.2,0.1-0.5,0.2-0.7,0.3
		C16.9,92,16.6,92,16.4,92c-0.4,0-0.9-0.1-1.2-0.3c-0.4-0.2-0.7-0.4-1-0.8c-0.3-0.3-0.5-0.7-0.6-1.1C13.5,89.5,13.4,89.1,13.4,88.7z
		"/>
	<path class="st3" d="M22.7,90.9c0.3,0,0.5-0.1,0.7-0.2s0.4-0.3,0.5-0.5c0.1-0.2,0.2-0.4,0.3-0.7s0.1-0.5,0.1-0.8v-3.3h1.2v3.3
		c0,0.4-0.1,0.8-0.2,1.2c-0.1,0.4-0.3,0.7-0.5,1c-0.2,0.3-0.5,0.5-0.9,0.7c-0.4,0.2-0.8,0.3-1.3,0.3c-0.5,0-0.9-0.1-1.3-0.3
		c-0.4-0.2-0.6-0.4-0.9-0.7c-0.2-0.3-0.4-0.6-0.5-1c-0.1-0.4-0.1-0.8-0.1-1.2v-3.3h1.2v3.3c0,0.3,0,0.5,0.1,0.8
		c0.1,0.2,0.1,0.5,0.3,0.7c0.1,0.2,0.3,0.3,0.5,0.5S22.4,90.9,22.7,90.9z"/>
	<path class="st3" d="M32.1,90.3c0,0.3-0.1,0.5-0.2,0.7c-0.1,0.2-0.3,0.4-0.4,0.5c-0.2,0.1-0.4,0.2-0.7,0.3
		c-0.2,0.1-0.5,0.1-0.8,0.1H27v-6.4h3.4c0.2,0,0.4,0,0.6,0.1c0.2,0.1,0.3,0.2,0.5,0.4c0.1,0.2,0.2,0.3,0.3,0.5
		c0.1,0.2,0.1,0.4,0.1,0.6c0,0.3-0.1,0.6-0.2,0.9c-0.2,0.3-0.4,0.5-0.7,0.6c0.4,0.1,0.7,0.3,0.9,0.6S32.1,89.9,32.1,90.3z
		 M28.2,86.6v1.6h1.7c0.2,0,0.4-0.1,0.5-0.2c0.1-0.1,0.2-0.3,0.2-0.6c0-0.2-0.1-0.4-0.2-0.6c-0.1-0.1-0.3-0.2-0.5-0.2H28.2z
		 M30.9,90.1c0-0.1,0-0.2-0.1-0.3c0-0.1-0.1-0.2-0.2-0.3c-0.1-0.1-0.1-0.1-0.2-0.2s-0.2-0.1-0.3-0.1h-1.9v1.7h1.8
		c0.1,0,0.2,0,0.3-0.1c0.1,0,0.2-0.1,0.3-0.2s0.1-0.2,0.2-0.3C30.8,90.3,30.9,90.2,30.9,90.1z"/>
	<path class="st3" d="M37.7,90.9v1.1h-4.4v-6.4h4.4v1.1h-3.1v1.5h2.7v1h-2.7v1.7H37.7z"/>
</g>
<g class="st4">
	<g class="st0">
		<path class="st2" d="M50,146.3c0,2.2-1.8,4-4,4H4c-2.2,0-4-1.8-4-4v-42c0-2.2,1.8-4,4-4h42c2.2,0,4,1.8,4,4V146.3z"/>
	</g>
</g>
<path class="st5" d="M35.3,108.3L21.9,107c-0.2,0-0.3,0-0.4,0.1l0,0l-6.4,4.5l0,0c0,0,0,0,0,0.1c-0.1,0.1-0.2,0.3-0.2,0.5v13.4
	c0,0.3,0.2,0.6,0.6,0.7l13.4,1.3c0,0,0,0,0.1,0c0.1,0,0.3,0,0.4-0.1l0,0l6.4-4.5l0,0c0,0,0,0,0-0.1c0.1-0.1,0.2-0.3,0.2-0.5V109
	C35.9,108.6,35.7,108.3,35.3,108.3z M34.2,122.3L34.2,122.3c-0.1,0.1-0.1,0.1-0.1,0.1c0,0,0,0,0,0l-4.6,3.2v-11.8l5-3.6v11.4
	C34.5,121.9,34.5,122.1,34.2,122.3z M22.6,108.4l10.8,1.1l-4.7,3.3l-11.3-1.1l4.4-3.1c0,0,0,0,0,0c0,0,0,0,0,0
	c0.2-0.1,0.4-0.2,0.6-0.2C22.4,108.4,22.5,108.4,22.6,108.4z M28.2,126.1L16.1,125v-12.1l12.1,1.2V126.1z"/>
<g class="st4">
	<path class="st3" d="M13.4,138.7c0-0.4,0.1-0.8,0.2-1.2c0.1-0.4,0.3-0.7,0.6-1c0.3-0.3,0.6-0.5,1-0.7c0.4-0.2,0.8-0.3,1.3-0.3
		c0.6,0,1.1,0.1,1.5,0.4c0.4,0.3,0.7,0.6,0.9,1l-1,0.7c-0.1-0.2-0.2-0.3-0.3-0.5c-0.1-0.1-0.2-0.2-0.4-0.3c-0.1-0.1-0.3-0.1-0.4-0.2
		c-0.1,0-0.3,0-0.4,0c-0.3,0-0.6,0.1-0.8,0.2s-0.4,0.3-0.6,0.5c-0.1,0.2-0.3,0.4-0.3,0.7s-0.1,0.5-0.1,0.8c0,0.3,0,0.6,0.1,0.8
		c0.1,0.3,0.2,0.5,0.4,0.7c0.2,0.2,0.3,0.4,0.6,0.5c0.2,0.1,0.5,0.2,0.7,0.2c0.1,0,0.3,0,0.4-0.1c0.1,0,0.3-0.1,0.4-0.2
		s0.3-0.2,0.4-0.3c0.1-0.1,0.2-0.3,0.3-0.4l1,0.6c-0.1,0.2-0.2,0.5-0.4,0.6c-0.2,0.2-0.4,0.3-0.6,0.5c-0.2,0.1-0.5,0.2-0.7,0.3
		c-0.3,0.1-0.5,0.1-0.8,0.1c-0.4,0-0.9-0.1-1.2-0.3c-0.4-0.2-0.7-0.4-1-0.8c-0.3-0.3-0.5-0.7-0.6-1.1
		C13.5,139.5,13.4,139.1,13.4,138.7z"/>
	<path class="st3" d="M22.7,140.9c0.3,0,0.5-0.1,0.7-0.2s0.4-0.3,0.5-0.5c0.1-0.2,0.2-0.4,0.3-0.7s0.1-0.5,0.1-0.8v-3.3h1.2v3.3
		c0,0.4-0.1,0.8-0.2,1.2c-0.1,0.4-0.3,0.7-0.5,1c-0.2,0.3-0.5,0.5-0.9,0.7c-0.4,0.2-0.8,0.3-1.3,0.3c-0.5,0-0.9-0.1-1.3-0.3
		c-0.4-0.2-0.6-0.4-0.9-0.7c-0.2-0.3-0.4-0.6-0.5-1c-0.1-0.4-0.1-0.8-0.1-1.2v-3.3h1.2v3.3c0,0.3,0,0.5,0.1,0.8
		c0.1,0.2,0.1,0.5,0.3,0.7c0.1,0.2,0.3,0.3,0.5,0.5S22.4,140.9,22.7,140.9z"/>
	<path class="st3" d="M32.1,140.3c0,0.3-0.1,0.5-0.2,0.7c-0.1,0.2-0.3,0.4-0.4,0.5c-0.2,0.1-0.4,0.2-0.7,0.3
		c-0.2,0.1-0.5,0.1-0.8,0.1H27v-6.4h3.4c0.2,0,0.4,0,0.6,0.1c0.2,0.1,0.3,0.2,0.5,0.4c0.1,0.2,0.2,0.3,0.3,0.5
		c0.1,0.2,0.1,0.4,0.1,0.6c0,0.3-0.1,0.6-0.2,0.9c-0.2,0.3-0.4,0.5-0.7,0.6c0.4,0.1,0.7,0.3,0.9,0.6S32.1,139.9,32.1,140.3z
		 M28.2,136.6v1.6h1.7c0.2,0,0.4-0.1,0.5-0.2c0.1-0.1,0.2-0.3,0.2-0.6c0-0.2-0.1-0.4-0.2-0.6c-0.1-0.1-0.3-0.2-0.5-0.2H28.2z
		 M30.9,140.1c0-0.1,0-0.2-0.1-0.3c0-0.1-0.1-0.2-0.2-0.3c-0.1-0.1-0.1-0.1-0.2-0.2s-0.2-0.1-0.3-0.1h-1.9v1.7h1.8
		c0.1,0,0.2,0,0.3-0.1c0.1,0,0.2-0.1,0.3-0.2s0.1-0.2,0.2-0.3C30.8,140.3,30.9,140.2,30.9,140.1z"/>
	<path class="st3" d="M37.7,140.9v1.1h-4.4v-6.4h4.4v1.1h-3.1v1.5h2.7v1h-2.7v1.7H37.7z"/>
</g>
</svg>
