<?xml version="1.0" encoding="utf-8"?>
<!-- Generator: Adobe Illustrator 19.2.0, SVG Export Plug-In . SVG Version: 6.00 Build 0)  -->
<svg version="1.1" id="Layer_1" xmlns="http://www.w3.org/2000/svg" xmlns:xlink="http://www.w3.org/1999/xlink" x="0px" y="0px"
	 viewBox="0 0 50 150" style="enable-background:new 0 0 50 150;" xml:space="preserve">
<style type="text/css">
	.st0{opacity:0.9;}
	.st1{fill:#1E1E1E;}
	.st2{fill:#FFFFFF;}
	.st3{fill:#EAEAEA;}
	.st4{opacity:0.47;}
	.st5{opacity:0.47;enable-background:new    ;}
</style>
<g class="st0">
	<path class="st1" d="M50,96c0,2.2-1.8,4-4,4H4c-2.2,0-4-1.8-4-4V54c0-2.2,1.8-4,4-4h42c2.2,0,4,1.8,4,4V96z"/>
</g>
<g class="st0">
	<path class="st2" d="M50,46c0,2.2-1.8,4-4,4H4c-2.2,0-4-1.8-4-4V4c0-2.2,1.8-4,4-4h42c2.2,0,4,1.8,4,4V46z"/>
</g>
<g>
	<path d="M15.9,41.3c-0.5,0.5-1.1,0.8-1.7,0.8c-0.4,0-0.8-0.1-1.2-0.3s-0.7-0.4-0.9-0.7c-0.3-0.3-0.5-0.7-0.6-1s-0.2-0.8-0.2-1.2
		s0.1-0.9,0.2-1.2c0.2-0.4,0.4-0.7,0.6-1c0.3-0.3,0.6-0.5,1-0.7s0.8-0.3,1.2-0.3c0.6,0,1.1,0.1,1.5,0.4c0.4,0.3,0.7,0.6,0.9,1
		l-0.9,0.7c-0.2-0.3-0.4-0.6-0.6-0.7s-0.6-0.3-0.9-0.3c-0.3,0-0.5,0.1-0.7,0.2c-0.2,0.1-0.4,0.3-0.5,0.5c-0.2,0.2-0.3,0.4-0.4,0.7
		c-0.1,0.3-0.1,0.5-0.1,0.8s0,0.6,0.1,0.8c0.1,0.3,0.2,0.5,0.4,0.7s0.4,0.3,0.6,0.5c0.2,0.1,0.5,0.2,0.7,0.2c0.6,0,1.1-0.3,1.6-0.9
		v-0.5h-1.3v-0.9H17V42h-1v-0.7H15.9z"/>
	<path d="M20.9,42.1c-0.5,0-0.9-0.1-1.2-0.3s-0.7-0.4-1-0.7s-0.5-0.6-0.6-1s-0.2-0.8-0.2-1.2s0.1-0.8,0.2-1.2s0.4-0.7,0.6-1
		c0.3-0.3,0.6-0.5,1-0.7s0.8-0.3,1.2-0.3c0.5,0,0.9,0.1,1.2,0.3s0.7,0.4,1,0.7s0.5,0.7,0.6,1c0.1,0.4,0.2,0.8,0.2,1.2
		s-0.1,0.8-0.2,1.2c-0.2,0.4-0.4,0.7-0.6,1c-0.3,0.3-0.6,0.5-1,0.7S21.3,42.1,20.9,42.1z M19.1,38.9c0,0.3,0,0.5,0.1,0.8
		s0.2,0.5,0.4,0.7c0.2,0.2,0.3,0.4,0.6,0.5s0.5,0.2,0.8,0.2s0.5-0.1,0.8-0.2s0.4-0.3,0.6-0.5c0.1-0.2,0.3-0.4,0.3-0.7
		s0.1-0.5,0.1-0.8s0-0.5-0.1-0.8s-0.2-0.5-0.4-0.7c-0.2-0.2-0.3-0.4-0.6-0.5c-0.2-0.1-0.5-0.2-0.7-0.2c-0.3,0-0.5,0.1-0.8,0.2
		s-0.4,0.3-0.6,0.5s-0.3,0.4-0.3,0.7C19.1,38.3,19.1,38.6,19.1,38.9z"/>
	<path d="M32,36.7h-2V42h-1.2v-5.3h-2v-1.1H32V36.7z"/>
	<path d="M35.5,42.1c-0.5,0-0.9-0.1-1.2-0.3s-0.7-0.4-1-0.7s-0.5-0.6-0.6-1s-0.2-0.8-0.2-1.2s0.1-0.8,0.2-1.2s0.4-0.7,0.6-1
		c0.3-0.3,0.6-0.5,1-0.7s0.8-0.3,1.2-0.3c0.5,0,0.9,0.1,1.2,0.3s0.7,0.4,1,0.7s0.5,0.7,0.6,1c0.1,0.4,0.2,0.8,0.2,1.2
		s-0.1,0.8-0.2,1.2c-0.2,0.4-0.4,0.7-0.6,1c-0.3,0.3-0.6,0.5-1,0.7S35.9,42.1,35.5,42.1z M33.7,38.9c0,0.3,0,0.5,0.1,0.8
		s0.2,0.5,0.4,0.7s0.3,0.4,0.6,0.5s0.5,0.2,0.8,0.2s0.5-0.1,0.8-0.2s0.4-0.3,0.6-0.5c0.1-0.2,0.3-0.4,0.3-0.7s0.1-0.5,0.1-0.8
		s0-0.5-0.1-0.8s-0.2-0.5-0.4-0.7s-0.3-0.4-0.6-0.5c-0.2-0.1-0.5-0.2-0.7-0.2c-0.3,0-0.5,0.1-0.8,0.2s-0.4,0.3-0.6,0.5
		c-0.2,0.2-0.3,0.4-0.3,0.7C33.7,38.3,33.7,38.6,33.7,38.9z"/>
</g>
<g>
	<path class="st3" d="M15.9,91.3c-0.5,0.5-1.1,0.8-1.7,0.8c-0.4,0-0.8-0.1-1.2-0.3c-0.4-0.2-0.7-0.4-0.9-0.7c-0.3-0.3-0.5-0.7-0.6-1
		s-0.2-0.8-0.2-1.2c0-0.4,0.1-0.9,0.2-1.2c0.2-0.4,0.4-0.7,0.6-1c0.3-0.3,0.6-0.5,1-0.7s0.8-0.3,1.2-0.3c0.6,0,1.1,0.1,1.5,0.4
		c0.4,0.3,0.7,0.6,0.9,1l-0.9,0.7c-0.2-0.3-0.4-0.6-0.6-0.7s-0.6-0.3-0.9-0.3c-0.3,0-0.5,0.1-0.7,0.2s-0.4,0.3-0.5,0.5
		c-0.2,0.2-0.3,0.4-0.4,0.7c-0.1,0.3-0.1,0.5-0.1,0.8s0,0.6,0.1,0.8c0.1,0.3,0.2,0.5,0.4,0.7s0.4,0.3,0.6,0.5
		c0.2,0.1,0.5,0.2,0.7,0.2c0.6,0,1.1-0.3,1.6-0.9v-0.5h-1.3v-0.9H17V92h-1v-0.7H15.9z"/>
	<path class="st3" d="M20.9,92.1c-0.5,0-0.9-0.1-1.2-0.3s-0.7-0.4-1-0.7c-0.3-0.3-0.5-0.6-0.6-1s-0.2-0.8-0.2-1.2
		c0-0.4,0.1-0.8,0.2-1.2s0.4-0.7,0.6-1c0.3-0.3,0.6-0.5,1-0.7s0.8-0.3,1.2-0.3c0.5,0,0.9,0.1,1.2,0.3s0.7,0.4,1,0.7
		c0.3,0.3,0.5,0.7,0.6,1c0.1,0.4,0.2,0.8,0.2,1.2c0,0.4-0.1,0.8-0.2,1.2c-0.2,0.4-0.4,0.7-0.6,1c-0.3,0.3-0.6,0.5-1,0.7
		C21.7,92,21.3,92.1,20.9,92.1z M19.1,88.9c0,0.3,0,0.5,0.1,0.8s0.2,0.5,0.4,0.7c0.2,0.2,0.3,0.4,0.6,0.5s0.5,0.2,0.8,0.2
		s0.5-0.1,0.8-0.2s0.4-0.3,0.6-0.5c0.1-0.2,0.3-0.4,0.3-0.7s0.1-0.5,0.1-0.8s0-0.5-0.1-0.8s-0.2-0.5-0.4-0.7
		c-0.2-0.2-0.3-0.4-0.6-0.5c-0.2-0.1-0.5-0.2-0.7-0.2c-0.3,0-0.5,0.1-0.8,0.2s-0.4,0.3-0.6,0.5s-0.3,0.4-0.3,0.7
		C19.1,88.3,19.1,88.6,19.1,88.9z"/>
	<path class="st3" d="M32,86.7h-2V92h-1.2v-5.3h-2v-1.1H32V86.7z"/>
	<path class="st3" d="M35.5,92.1c-0.5,0-0.9-0.1-1.2-0.3s-0.7-0.4-1-0.7c-0.3-0.3-0.5-0.6-0.6-1s-0.2-0.8-0.2-1.2
		c0-0.4,0.1-0.8,0.2-1.2s0.4-0.7,0.6-1c0.3-0.3,0.6-0.5,1-0.7s0.8-0.3,1.2-0.3c0.5,0,0.9,0.1,1.2,0.3s0.7,0.4,1,0.7
		c0.3,0.3,0.5,0.7,0.6,1c0.1,0.4,0.2,0.8,0.2,1.2c0,0.4-0.1,0.8-0.2,1.2c-0.2,0.4-0.4,0.7-0.6,1c-0.3,0.3-0.6,0.5-1,0.7
		C36.3,92,35.9,92.1,35.5,92.1z M33.7,88.9c0,0.3,0,0.5,0.1,0.8s0.2,0.5,0.4,0.7s0.3,0.4,0.6,0.5s0.5,0.2,0.8,0.2s0.5-0.1,0.8-0.2
		s0.4-0.3,0.6-0.5c0.1-0.2,0.3-0.4,0.3-0.7s0.1-0.5,0.1-0.8s0-0.5-0.1-0.8s-0.2-0.5-0.4-0.7s-0.3-0.4-0.6-0.5
		c-0.2-0.1-0.5-0.2-0.7-0.2c-0.3,0-0.5,0.1-0.8,0.2s-0.4,0.3-0.6,0.5c-0.2,0.2-0.3,0.4-0.3,0.7C33.7,88.3,33.7,88.6,33.7,88.9z"/>
</g>
<g class="st4">
	<path class="st1" d="M50,146c0,2.2-1.8,4-4,4H4c-2.2,0-4-1.8-4-4v-42c0-2.2,1.8-4,4-4h42c2.2,0,4,1.8,4,4V146z"/>
</g>
<g class="st4">
	<path class="st3" d="M15.9,141.3c-0.5,0.5-1.1,0.8-1.7,0.8c-0.4,0-0.8-0.1-1.2-0.3s-0.7-0.4-0.9-0.7c-0.3-0.3-0.5-0.7-0.6-1
		s-0.2-0.8-0.2-1.2s0.1-0.9,0.2-1.2c0.2-0.4,0.4-0.7,0.6-1c0.3-0.3,0.6-0.5,1-0.7s0.8-0.3,1.2-0.3c0.6,0,1.1,0.1,1.5,0.4
		c0.4,0.3,0.7,0.6,0.9,1l-0.9,0.7c-0.2-0.3-0.4-0.6-0.6-0.7s-0.6-0.3-0.9-0.3c-0.3,0-0.5,0.1-0.7,0.2c-0.2,0.1-0.4,0.3-0.5,0.5
		c-0.2,0.2-0.3,0.4-0.4,0.7c-0.1,0.3-0.1,0.5-0.1,0.8s0,0.6,0.1,0.8c0.1,0.3,0.2,0.5,0.4,0.7s0.4,0.3,0.6,0.5
		c0.2,0.1,0.5,0.2,0.7,0.2c0.6,0,1.1-0.3,1.6-0.9v-0.5h-1.3v-0.9H17v3.3h-1v-0.9H15.9z"/>
	<path class="st3" d="M20.9,142.1c-0.5,0-0.9-0.1-1.2-0.3s-0.7-0.4-1-0.7s-0.5-0.6-0.6-1s-0.2-0.8-0.2-1.2s0.1-0.8,0.2-1.2
		s0.4-0.7,0.6-1c0.3-0.3,0.6-0.5,1-0.7s0.8-0.3,1.2-0.3c0.5,0,0.9,0.1,1.2,0.3s0.7,0.4,1,0.7s0.5,0.7,0.6,1c0.1,0.4,0.2,0.8,0.2,1.2
		s-0.1,0.8-0.2,1.2c-0.2,0.4-0.4,0.7-0.6,1c-0.3,0.3-0.6,0.5-1,0.7S21.3,142.1,20.9,142.1z M19.1,138.9c0,0.3,0,0.5,0.1,0.8
		s0.2,0.5,0.4,0.7c0.2,0.2,0.3,0.4,0.6,0.5s0.5,0.2,0.8,0.2s0.5-0.1,0.8-0.2s0.4-0.3,0.6-0.5c0.1-0.2,0.3-0.4,0.3-0.7
		s0.1-0.5,0.1-0.8s0-0.5-0.1-0.8s-0.2-0.5-0.4-0.7c-0.2-0.2-0.3-0.4-0.6-0.5c-0.2-0.1-0.5-0.2-0.7-0.2c-0.3,0-0.5,0.1-0.8,0.2
		s-0.4,0.3-0.6,0.5s-0.3,0.4-0.3,0.7C19.1,138.3,19.1,138.6,19.1,138.9z"/>
	<path class="st3" d="M32,136.7h-2v5.3h-1.2v-5.3h-2v-1.1H32V136.7z"/>
	<path class="st3" d="M35.5,142.1c-0.5,0-0.9-0.1-1.2-0.3s-0.7-0.4-1-0.7s-0.5-0.6-0.6-1s-0.2-0.8-0.2-1.2s0.1-0.8,0.2-1.2
		s0.4-0.7,0.6-1c0.3-0.3,0.6-0.5,1-0.7s0.8-0.3,1.2-0.3c0.5,0,0.9,0.1,1.2,0.3s0.7,0.4,1,0.7s0.5,0.7,0.6,1c0.1,0.4,0.2,0.8,0.2,1.2
		s-0.1,0.8-0.2,1.2c-0.2,0.4-0.4,0.7-0.6,1c-0.3,0.3-0.6,0.5-1,0.7S35.9,142.1,35.5,142.1z M33.7,138.9c0,0.3,0,0.5,0.1,0.8
		s0.2,0.5,0.4,0.7s0.3,0.4,0.6,0.5s0.5,0.2,0.8,0.2s0.5-0.1,0.8-0.2s0.4-0.3,0.6-0.5c0.1-0.2,0.3-0.4,0.3-0.7s0.1-0.5,0.1-0.8
		s0-0.5-0.1-0.8s-0.2-0.5-0.4-0.7s-0.3-0.4-0.6-0.5c-0.2-0.1-0.5-0.2-0.7-0.2c-0.3,0-0.5,0.1-0.8,0.2s-0.4,0.3-0.6,0.5
		c-0.2,0.2-0.3,0.4-0.3,0.7C33.7,138.3,33.7,138.6,33.7,138.9z"/>
</g>
<g>
	<g>
		<path d="M17.2,28.2c2,2.1,4.8,3.2,7.8,3.2h0.1c2.9,0,5.7-1.1,7.7-3.1c2-2,3.1-4.7,3.2-7.5c0-3-1-5.8-3.1-7.9
			c-0.6-0.6-1.3-1.2-2-1.6c-0.2,0.5-0.4,1-0.7,1.5c0.3,0.2,0.7,0.5,1,0.8c1,1,1.9,2.1,2.2,3l0,0.1c0,0.1,0,0.2-0.1,0.2l0,0
			c-0.8,0.4-1.6,0.6-2.5,0.8c-0.2,0-0.3,0.1-0.5,0.1l-0.1,0c0,0-0.1,0-0.1,0s-0.1-0.1-0.1-0.1l0-0.1c-0.2-1-0.4-2-0.8-3l-0.5,1
			c0.2,0.7,0.4,1.4,0.5,2.1l0,0.1c0,0,0,0.1,0,0.1c0,0-0.1,0.1-0.1,0.1l-0.1,0l-3.6,0.2l-0.2,0c0,0-0.1,0-0.1,0c0,0,0-0.1,0-0.1
			v-4.9c-0.3-0.6-0.5-1.1-0.7-1.7c0,0,0,0,0,0l0,0v6.4c0,0,0,0.1,0,0.1c0,0.1-0.1,0.2-0.2,0.2l0,0c0,0-0.1,0-0.1,0l-3.4-0.2
			c-0.1,0-0.1,0-0.1-0.1s0-0.1,0-0.2l0-0.1c0.4-1.8,0.9-3.8,2.3-5.5c0.4-0.4,0.8-0.9,1.3-1c0,0,0.1,0,0.1,0c-0.2-0.5-0.4-1-0.6-1.5
			c-2.5,0.3-4.7,1.3-6.5,3.1c-2,2-3.1,4.6-3.2,7.5C14,23.3,15.1,26.1,17.2,28.2z M30.2,23.4c0-0.2,0-0.4,0-0.6v0
			c0-0.5,0.1-0.9,0.1-1.4c0-0.6,0-1.2,0-1.8c0-0.2,0-0.4,0-0.6v0c0-0.1,0-0.4,0.4-0.5c0.7-0.2,1.5-0.3,2.2-0.5l0.1,0
			c0.3-0.1,0.5-0.1,0.8-0.2l0.1,0c0.1,0,0.2,0,0.2,0.1l0,0.1c0,0,0,0.1,0,0.1c0,0.2,0.1,0.3,0.1,0.5c0.2,0.9,0.3,1.8,0.2,2.7
			c-0.1,0.8-0.5,1.4-1.1,1.6c-0.5,0.2-1.1,0.4-1.7,0.5c-0.2,0.1-0.4,0.1-0.7,0.2c-0.1,0-0.2,0-0.3,0.1c0,0-0.1,0-0.1,0l-0.1,0
			c0,0,0,0,0,0c0,0-0.1,0-0.1,0C30.2,23.6,30.2,23.5,30.2,23.4L30.2,23.4z M30.3,24.5c0.8-0.2,1.5-0.4,2.3-0.6l0.9-0.3
			c0.1,0,0.1,0,0.2,0.1c0,0,0.1,0.1,0,0.2l0,0.1c-0.5,1.2-1.1,2.2-2,3.1c-0.8,0.9-1.9,1.5-3.1,2.1l-0.1,0c0,0,0,0-0.1,0
			c0,0-0.1,0-0.1,0c-0.1,0-0.1-0.1-0.1-0.2l0-0.1c0,0,0,0,0,0c0,0,0-0.1,0.1-0.2c0.4-0.6,1-1.6,1.5-3.7C29.9,24.8,30,24.6,30.3,24.5
			z M25.2,19c0-0.1,0.1-0.2,0.2-0.2h0.2l2.7-0.1l0.9-0.1c0,0,0,0,0.1,0l0,0c0,0,0.1,0,0.1,0l0.1,0c0.1,0,0.1,0.1,0.1,0.2
			c0,0.1,0,0.2,0,0.4c0,0.1,0,0.3,0,0.4V20c0,0.5,0,1,0,1.4l0,0.2c0,0.4,0,0.8-0.1,1.1c0,0.1,0,0.2,0,0.3c0,0.1,0,0.2,0,0.3
			c0,0.1,0,0.4-0.4,0.5c-0.7,0.1-1.3,0.1-2,0.2l-0.2,0c-0.2,0-0.5,0-0.8,0.1c-0.4,0-0.5,0.1-0.6,0.1c0,0-0.1,0-0.1,0l-0.2-0.1
			c-0.1,0-0.1-0.1-0.1-0.2L25.2,19L25.2,19z M25.2,25.1c0-0.1,0.1-0.2,0.2-0.2l0.2,0l3.4-0.2c0,0,0.1,0,0.1,0.1c0,0,0.1,0.1,0,0.1
			l0,0.1c0,0,0,0,0,0c0,0,0,0,0,0.1c0,0,0,0.1,0,0.1l0,0.1c0,0.1,0,0.2-0.1,0.3c-0.1,0.1-0.1,0.3-0.2,0.4l-0.1,0.2
			c-0.2,0.6-0.5,1.2-0.7,1.8c-0.2,0.5-0.6,0.9-0.9,1.3c-0.3,0.3-0.9,0.6-1.5,0.6l-0.2,0l0,0c0,0-0.1,0-0.1-0.1s0-0.1,0-0.1
			L25.2,25.1L25.2,25.1z M21.7,29c0,0-0.1,0.1-0.1,0.1c0,0,0,0,0,0L21.4,29l0,0c-1.8-0.4-4.2-2.6-5.1-5.2l0-0.1c0-0.1,0-0.1,0-0.2
			c0,0,0.1-0.1,0.2,0l0.9,0.3c0.8,0.2,1.6,0.5,2.4,0.7c0.2,0.1,0.4,0.1,0.4,0.4c0.3,1.6,0.8,2.8,1.5,3.8l0.1,0.1
			C21.8,28.9,21.8,29,21.7,29z M24.4,29.6c0,0.1-0.1,0.1-0.1,0.1c0,0-0.1,0-0.1,0c0,0,0,0-0.1,0c0,0-0.9-0.3-1.3-0.8
			c-1-1.3-1.5-2.7-1.9-4c0,0,0,0,0,0l0-0.1c0-0.1,0-0.1,0-0.1c0,0,0.1-0.1,0.1-0.1l0.1,0l1.9,0.1l1.2,0.1c0.1,0,0.2,0.1,0.2,0.2
			L24.4,29.6L24.4,29.6z M23,18.8l1.2,0.1c0.1,0,0.2,0.1,0.2,0.2v5c0,0,0,0.1-0.1,0.1c0,0-0.1,0-0.1,0c0,0,0,0,0,0s-0.9-0.1-1.4-0.1
			c-0.6,0-1.2-0.1-1.7-0.2c-0.2,0-0.4-0.3-0.4-0.4c-0.1-1.2-0.1-2.3-0.2-3.1c0-0.3,0-1.4,0-1.5s0-0.1,0.1-0.1s0.1-0.1,0.1,0L23,18.8
			z M16.6,16.7L16.6,16.7c0.8-2.1,2.8-3.9,5-4.7l0.2-0.1c0.1,0,0.2,0,0.2,0.1c0,0.1,0,0.1,0,0.2l-0.1,0.2c-1.2,1.6-1.7,3.5-2,5.3
			l0,0.1c0,0,0,0.1-0.1,0.1c0,0-0.1,0-0.1,0c0,0,0,0-0.1,0l-0.1,0c-0.4-0.1-0.7-0.2-1.1-0.3c-0.6-0.1-1.2-0.3-1.8-0.5l-0.1,0
			C16.6,16.8,16.5,16.7,16.6,16.7z M16,17.9L16,17.9c0-0.2,0.1-0.2,0.2-0.2l3.3,0.8c0.1,0,0.1,0.1,0.1,0.2l0.1,4.7
			c0,0.1,0,0.1-0.1,0.1c0,0-0.1,0-0.1,0c0,0,0,0,0,0l-0.1,0c0,0-0.1,0-0.1,0h0c-0.1,0-0.3-0.1-0.5-0.1c-1.1-0.3-1.9-0.6-2.6-1.1
			c-0.4-0.3-0.6-0.6-0.6-1C15.6,20.1,15.7,18.9,16,17.9z"/>
	</g>
	<path d="M27.7,15.1c-0.5-1-0.9-2-1.4-3c-0.5-1.1-1.1-2.3-1.6-3.4c-0.9-2,0.2-4.3,2.4-4.7C29,3.6,30.8,5,31,6.8
		c0.1,0.6,0,1.2-0.3,1.7c-1,2.1-2,4.3-2.9,6.4C27.8,15,27.8,15,27.7,15.1z M29.5,7.4c0-1-0.8-1.8-1.8-1.8c-1,0-1.8,0.8-1.8,1.8
		c0,1,0.8,1.8,1.8,1.8C28.7,9.2,29.5,8.4,29.5,7.4z"/>
</g>
<g>
	<g>
		<path class="st3" d="M17.2,78.3c2,2.1,4.8,3.2,7.8,3.2h0.1c2.9,0,5.7-1.1,7.7-3.1c2-2,3.1-4.7,3.2-7.5c0-3-1-5.8-3.1-7.9
			c-0.6-0.6-1.3-1.2-2-1.6c-0.2,0.5-0.4,1-0.7,1.5c0.3,0.2,0.7,0.5,1,0.8c1,1,1.9,2.1,2.2,3l0,0.1c0,0.1,0,0.2-0.1,0.2l0,0
			c-0.8,0.4-1.6,0.6-2.5,0.8c-0.2,0-0.3,0.1-0.5,0.1l-0.1,0c0,0-0.1,0-0.1,0s-0.1-0.1-0.1-0.1l0-0.1c-0.2-1-0.4-2-0.8-3l-0.5,1
			c0.2,0.7,0.4,1.4,0.5,2.1l0,0.1c0,0,0,0.1,0,0.1c0,0-0.1,0.1-0.1,0.1l-0.1,0l-3.6,0.2l-0.2,0c0,0-0.1,0-0.1,0c0,0,0-0.1,0-0.1
			v-4.9c-0.3-0.6-0.5-1.1-0.7-1.7c0,0,0,0,0,0l0,0V68c0,0,0,0.1,0,0.1c0,0.1-0.1,0.2-0.2,0.2l0,0c0,0-0.1,0-0.1,0l-3.4-0.2
			c-0.1,0-0.1,0-0.1-0.1c0,0,0-0.1,0-0.2l0-0.1c0.4-1.8,0.9-3.8,2.3-5.5c0.4-0.4,0.8-0.9,1.3-1c0,0,0.1,0,0.1,0
			c-0.2-0.5-0.4-1-0.6-1.5c-2.5,0.3-4.7,1.3-6.5,3.1c-2,2-3.1,4.6-3.2,7.5C14,73.4,15.1,76.2,17.2,78.3z M30.2,73.5
			c0-0.2,0-0.4,0-0.6v0c0-0.5,0.1-0.9,0.1-1.4c0-0.6,0-1.2,0-1.8c0-0.2,0-0.4,0-0.6v0c0-0.1,0-0.4,0.4-0.5c0.7-0.2,1.5-0.3,2.2-0.5
			l0.1,0c0.3-0.1,0.5-0.1,0.8-0.2l0.1,0c0.1,0,0.2,0,0.2,0.1l0,0.1c0,0,0,0.1,0,0.1c0,0.2,0.1,0.3,0.1,0.5c0.2,0.9,0.3,1.8,0.2,2.7
			c-0.1,0.8-0.5,1.4-1.1,1.6c-0.5,0.2-1.1,0.4-1.7,0.5c-0.2,0.1-0.4,0.1-0.7,0.2c-0.1,0-0.2,0-0.3,0.1c0,0-0.1,0-0.1,0l-0.1,0
			c0,0,0,0,0,0c0,0-0.1,0-0.1,0C30.2,73.7,30.2,73.7,30.2,73.5L30.2,73.5z M30.3,74.7c0.8-0.2,1.5-0.4,2.3-0.6l0.9-0.3
			c0.1,0,0.1,0,0.2,0.1c0,0,0.1,0.1,0,0.2l0,0.1c-0.5,1.2-1.1,2.2-2,3.1c-0.8,0.9-1.9,1.5-3.1,2.1l-0.1,0c0,0,0,0-0.1,0
			c0,0-0.1,0-0.1,0c-0.1,0-0.1-0.1-0.1-0.2l0-0.1c0,0,0,0,0,0c0,0,0-0.1,0.1-0.2c0.4-0.6,1-1.6,1.5-3.7C29.9,74.9,30,74.7,30.3,74.7
			z M25.2,69.2c0-0.1,0.1-0.2,0.2-0.2h0.2l2.7-0.1l0.9-0.1c0,0,0,0,0.1,0l0,0c0,0,0.1,0,0.1,0l0.1,0c0.1,0,0.1,0.1,0.1,0.2
			c0,0.1,0,0.2,0,0.4c0,0.1,0,0.3,0,0.4v0.3c0,0.5,0,1,0,1.4l0,0.2c0,0.4,0,0.8-0.1,1.1c0,0.1,0,0.2,0,0.3c0,0.1,0,0.2,0,0.3
			c0,0.1,0,0.4-0.4,0.5c-0.7,0.1-1.3,0.1-2,0.2l-0.2,0c-0.2,0-0.5,0-0.8,0.1c-0.4,0-0.5,0.1-0.6,0.1c0,0-0.1,0-0.1,0l-0.2-0.1
			c-0.1,0-0.1-0.1-0.1-0.2L25.2,69.2L25.2,69.2z M25.2,75.3c0-0.1,0.1-0.2,0.2-0.2l0.2,0l3.4-0.2c0,0,0.1,0,0.1,0.1
			c0,0,0.1,0.1,0,0.1l0,0.1c0,0,0,0,0,0c0,0,0,0,0,0.1c0,0,0,0.1,0,0.1l0,0.1c0,0.1,0,0.2-0.1,0.3c-0.1,0.1-0.1,0.3-0.2,0.4
			l-0.1,0.2c-0.2,0.6-0.5,1.2-0.7,1.8c-0.2,0.5-0.6,0.9-0.9,1.3c-0.3,0.3-0.9,0.6-1.5,0.6l-0.2,0l0,0c0,0-0.1,0-0.1-0.1
			c0,0,0-0.1,0-0.1L25.2,75.3L25.2,75.3z M21.7,79.2c0,0-0.1,0.1-0.1,0.1c0,0,0,0,0,0l-0.2-0.1l0,0c-1.8-0.4-4.2-2.6-5.1-5.2l0-0.1
			c0-0.1,0-0.1,0-0.2c0,0,0.1-0.1,0.2,0l0.9,0.3c0.8,0.2,1.6,0.5,2.4,0.7c0.2,0.1,0.4,0.1,0.4,0.4c0.3,1.6,0.8,2.8,1.5,3.8l0.1,0.1
			C21.8,79.1,21.8,79.1,21.7,79.2z M24.4,79.8c0,0.1-0.1,0.1-0.1,0.1c0,0-0.1,0-0.1,0c0,0,0,0-0.1,0c0,0-0.9-0.3-1.3-0.8
			c-1-1.3-1.5-2.7-1.9-4c0,0,0,0,0,0l0-0.1c0-0.1,0-0.1,0-0.1c0,0,0.1-0.1,0.1-0.1l0.1,0L23,75l1.2,0.1c0.1,0,0.2,0.1,0.2,0.2
			L24.4,79.8L24.4,79.8z M23,69l1.2,0.1c0.1,0,0.2,0.1,0.2,0.2v5c0,0,0,0.1-0.1,0.1c0,0-0.1,0-0.1,0c0,0,0,0,0,0s-0.9-0.1-1.4-0.1
			c-0.6,0-1.2-0.1-1.7-0.2c-0.2,0-0.4-0.3-0.4-0.4c-0.1-1.2-0.1-2.3-0.2-3.1c0-0.3,0-1.4,0-1.5s0-0.1,0.1-0.1c0,0,0.1-0.1,0.1,0
			L23,69z M16.6,66.8L16.6,66.8c0.8-2.1,2.8-3.9,5-4.7l0.2-0.1c0.1,0,0.2,0,0.2,0.1c0,0.1,0,0.1,0,0.2l-0.1,0.2
			c-1.2,1.6-1.7,3.5-2,5.3l0,0.1c0,0,0,0.1-0.1,0.1c0,0-0.1,0-0.1,0c0,0,0,0-0.1,0l-0.1,0c-0.4-0.1-0.7-0.2-1.1-0.3
			c-0.6-0.1-1.2-0.3-1.8-0.5l-0.1,0C16.6,67,16.5,66.9,16.6,66.8z M16,68L16,68c0-0.2,0.1-0.2,0.2-0.2l3.3,0.8
			c0.1,0,0.1,0.1,0.1,0.2l0.1,4.7c0,0.1,0,0.1-0.1,0.1c0,0-0.1,0-0.1,0c0,0,0,0,0,0l-0.1,0c0,0-0.1,0-0.1,0h0
			c-0.1,0-0.3-0.1-0.5-0.1c-1.1-0.3-1.9-0.6-2.6-1.1c-0.4-0.3-0.6-0.6-0.6-1C15.6,70.3,15.7,69.1,16,68z"/>
	</g>
	<path class="st3" d="M27.7,65.2c-0.5-1-0.9-2-1.4-3c-0.5-1.1-1.1-2.3-1.6-3.4c-0.9-2,0.2-4.3,2.4-4.7c1.8-0.3,3.7,1,3.8,2.9
		c0.1,0.6,0,1.2-0.3,1.7c-1,2.1-2,4.3-2.9,6.4C27.8,65.1,27.8,65.2,27.7,65.2z M29.5,57.5c0-1-0.8-1.8-1.8-1.8c-1,0-1.8,0.8-1.8,1.8
		c0,1,0.8,1.8,1.8,1.8C28.7,59.3,29.5,58.5,29.5,57.5z"/>
</g>
<g class="st5">
	<g>
		<path class="st3" d="M17.2,127.4c2,2.1,4.8,3.2,7.8,3.2h0.1c2.9,0,5.7-1.1,7.7-3.1c2-2,3.1-4.7,3.2-7.5c0-3-1-5.8-3.1-7.9
			c-0.6-0.6-1.3-1.2-2-1.6c-0.2,0.5-0.4,1-0.7,1.5c0.3,0.2,0.7,0.5,1,0.8c1,1,1.9,2.1,2.2,3l0,0.1c0,0.1,0,0.2-0.1,0.2l0,0
			c-0.8,0.4-1.6,0.6-2.5,0.8c-0.2,0-0.3,0.1-0.5,0.1l-0.1,0c0,0-0.1,0-0.1,0s-0.1-0.1-0.1-0.1l0-0.1c-0.2-1-0.4-2-0.8-3l-0.5,1
			c0.2,0.7,0.4,1.4,0.5,2.1l0,0.1c0,0,0,0.1,0,0.1c0,0-0.1,0.1-0.1,0.1l-0.1,0l-3.6,0.2l-0.2,0c0,0-0.1,0-0.1,0c0,0,0-0.1,0-0.1
			v-4.9c-0.3-0.6-0.5-1.1-0.7-1.7c0,0,0,0,0,0l0,0v6.4c0,0,0,0.1,0,0.1c0,0.1-0.1,0.2-0.2,0.2l0,0c0,0-0.1,0-0.1,0l-3.4-0.2
			c-0.1,0-0.1,0-0.1-0.1c0,0,0-0.1,0-0.2l0-0.1c0.4-1.8,0.9-3.8,2.3-5.5c0.4-0.4,0.8-0.9,1.3-1c0,0,0.1,0,0.1,0
			c-0.2-0.5-0.4-1-0.6-1.5c-2.5,0.3-4.7,1.3-6.5,3.1c-2,2-3.1,4.6-3.2,7.5C14,122.5,15.1,125.3,17.2,127.4z M30.2,122.6
			c0-0.2,0-0.4,0-0.6v0c0-0.5,0.1-0.9,0.1-1.4c0-0.6,0-1.2,0-1.8c0-0.2,0-0.4,0-0.6v0c0-0.1,0-0.4,0.4-0.5c0.7-0.2,1.5-0.3,2.2-0.5
			l0.1,0c0.3-0.1,0.5-0.1,0.8-0.2l0.1,0c0.1,0,0.2,0,0.2,0.1l0,0.1c0,0,0,0.1,0,0.1c0,0.2,0.1,0.3,0.1,0.5c0.2,0.9,0.3,1.8,0.2,2.7
			c-0.1,0.8-0.5,1.4-1.1,1.6c-0.5,0.2-1.1,0.4-1.7,0.5c-0.2,0.1-0.4,0.1-0.7,0.2c-0.1,0-0.2,0-0.3,0.1c0,0-0.1,0-0.1,0l-0.1,0
			c0,0,0,0,0,0c0,0-0.1,0-0.1,0C30.2,122.8,30.2,122.8,30.2,122.6L30.2,122.6z M30.3,123.7c0.8-0.2,1.5-0.4,2.3-0.6l0.9-0.3
			c0.1,0,0.1,0,0.2,0.1c0,0,0.1,0.1,0,0.2l0,0.1c-0.5,1.2-1.1,2.2-2,3.1c-0.8,0.9-1.9,1.5-3.1,2.1l-0.1,0c0,0,0,0-0.1,0
			c0,0-0.1,0-0.1,0c-0.1,0-0.1-0.1-0.1-0.2l0-0.1c0,0,0,0,0,0c0,0,0-0.1,0.1-0.2c0.4-0.6,1-1.6,1.5-3.7
			C29.9,124,30,123.8,30.3,123.7z M25.2,118.3c0-0.1,0.1-0.2,0.2-0.2h0.2l2.7-0.1l0.9-0.1c0,0,0,0,0.1,0l0,0c0,0,0.1,0,0.1,0l0.1,0
			c0.1,0,0.1,0.1,0.1,0.2c0,0.1,0,0.2,0,0.4c0,0.1,0,0.3,0,0.4v0.3c0,0.5,0,1,0,1.4l0,0.2c0,0.4,0,0.8-0.1,1.1c0,0.1,0,0.2,0,0.3
			c0,0.1,0,0.2,0,0.3c0,0.1,0,0.4-0.4,0.5c-0.7,0.1-1.3,0.1-2,0.2l-0.2,0c-0.2,0-0.5,0-0.8,0.1c-0.4,0-0.5,0.1-0.6,0.1
			c0,0-0.1,0-0.1,0l-0.2-0.1c-0.1,0-0.1-0.1-0.1-0.2L25.2,118.3L25.2,118.3z M25.2,124.4c0-0.1,0.1-0.2,0.2-0.2l0.2,0l3.4-0.2
			c0,0,0.1,0,0.1,0.1c0,0,0.1,0.1,0,0.1l0,0.1c0,0,0,0,0,0c0,0,0,0,0,0.1c0,0,0,0.1,0,0.1l0,0.1c0,0.1,0,0.2-0.1,0.3
			c-0.1,0.1-0.1,0.3-0.2,0.4l-0.1,0.2c-0.2,0.6-0.5,1.2-0.7,1.8c-0.2,0.5-0.6,0.9-0.9,1.3c-0.3,0.3-0.9,0.6-1.5,0.6l-0.2,0l0,0
			c0,0-0.1,0-0.1-0.1s0-0.1,0-0.1L25.2,124.4L25.2,124.4z M21.7,128.3c0,0-0.1,0.1-0.1,0.1c0,0,0,0,0,0l-0.2-0.1l0,0
			c-1.8-0.4-4.2-2.6-5.1-5.2l0-0.1c0-0.1,0-0.1,0-0.2c0,0,0.1-0.1,0.2,0l0.9,0.3c0.8,0.2,1.6,0.5,2.4,0.7c0.2,0.1,0.4,0.1,0.4,0.4
			c0.3,1.6,0.8,2.8,1.5,3.8l0.1,0.1C21.8,128.2,21.8,128.2,21.7,128.3z M24.4,128.9c0,0.1-0.1,0.1-0.1,0.1c0,0-0.1,0-0.1,0
			c0,0,0,0-0.1,0c0,0-0.9-0.3-1.3-0.8c-1-1.3-1.5-2.7-1.9-4c0,0,0,0,0,0l0-0.1c0-0.1,0-0.1,0-0.1c0,0,0.1-0.1,0.1-0.1l0.1,0l1.9,0.1
			l1.2,0.1c0.1,0,0.2,0.1,0.2,0.2L24.4,128.9L24.4,128.9z M23,118.1l1.2,0.1c0.1,0,0.2,0.1,0.2,0.2v5c0,0,0,0.1-0.1,0.1
			c0,0-0.1,0-0.1,0c0,0,0,0,0,0s-0.9-0.1-1.4-0.1c-0.6,0-1.2-0.1-1.7-0.2c-0.2,0-0.4-0.3-0.4-0.4c-0.1-1.2-0.1-2.3-0.2-3.1
			c0-0.3,0-1.4,0-1.5s0-0.1,0.1-0.1c0,0,0.1-0.1,0.1,0L23,118.1z M16.6,115.9L16.6,115.9c0.8-2.1,2.8-3.9,5-4.7l0.2-0.1
			c0.1,0,0.2,0,0.2,0.1c0,0.1,0,0.1,0,0.2l-0.1,0.2c-1.2,1.6-1.7,3.5-2,5.3l0,0.1c0,0,0,0.1-0.1,0.1c0,0-0.1,0-0.1,0c0,0,0,0-0.1,0
			l-0.1,0c-0.4-0.1-0.7-0.2-1.1-0.3c-0.6-0.1-1.2-0.3-1.8-0.5l-0.1,0C16.6,116.1,16.5,116,16.6,115.9z M16,117.1L16,117.1
			c0-0.2,0.1-0.2,0.2-0.2l3.3,0.8c0.1,0,0.1,0.1,0.1,0.2l0.1,4.7c0,0.1,0,0.1-0.1,0.1c0,0-0.1,0-0.1,0c0,0,0,0,0,0l-0.1,0
			c0,0-0.1,0-0.1,0h0c-0.1,0-0.3-0.1-0.5-0.1c-1.1-0.3-1.9-0.6-2.6-1.1c-0.4-0.3-0.6-0.6-0.6-1C15.6,119.4,15.7,118.2,16,117.1z"/>
	</g>
	<path class="st3" d="M27.7,114.3c-0.5-1-0.9-2-1.4-3c-0.5-1.1-1.1-2.3-1.6-3.4c-0.9-2,0.2-4.3,2.4-4.7c1.8-0.3,3.7,1,3.8,2.9
		c0.1,0.6,0,1.2-0.3,1.7c-1,2.1-2,4.3-2.9,6.4C27.8,114.2,27.8,114.3,27.7,114.3z M29.5,106.6c0-1-0.8-1.8-1.8-1.8
		c-1,0-1.8,0.8-1.8,1.8c0,1,0.8,1.8,1.8,1.8C28.7,108.4,29.5,107.6,29.5,106.6z"/>
</g>
</svg>
