<?xml version="1.0" encoding="utf-8"?>
<!-- Generator: Adobe Illustrator 19.2.0, SVG Export Plug-In . SVG Version: 6.00 Build 0)  -->
<svg version="1.1" xmlns="http://www.w3.org/2000/svg" xmlns:xlink="http://www.w3.org/1999/xlink" x="0px" y="0px"
	 viewBox="0 0 50 200.1" style="enable-background:new 0 0 50 200.1;" xml:space="preserve">
<style type="text/css">
	.st0{fill:#414042;}
	.st1{fill:#FFFFFF;}
	.st2{fill:#1E1E1E;}
	.st3{fill:#333333;}
</style>
<g id="Layer_2">
	<g>
		<g>
			<path class="st0" d="M50.1,146.1c0,2.2-1.8,4-4,4h-42c-2.2,0-4-1.8-4-4v-42c0-2.2,1.8-4,4-4h42c2.2,0,4,1.8,4,4V146.1z"/>
		</g>
	</g>
	<g>
		<g>
			<path class="st0" d="M50,196.1c0,2.2-1.8,4-4,4H4c-2.2,0-4-1.8-4-4v-42c0-2.2,1.8-4,4-4h42c2.2,0,4,1.8,4,4V196.1z"/>
		</g>
	</g>
	<g>
		<g>
			<path class="st1" d="M50,46c0,2.2-1.8,4-4,4H4c-2.2,0-4-1.8-4-4V4c0-2.2,1.8-4,4-4h42c2.2,0,4,1.8,4,4V46z"/>
		</g>
	</g>
	<g>
		<path class="st2" d="M50,96.1c0,2.2-1.8,4-4,4H4c-2.2,0-4-1.8-4-4v-42c0-2.2,1.8-4,4-4h42c2.2,0,4,1.8,4,4V96.1z"/>
	</g>
</g>
<g id="Layer_3">
</g>
<g id="Layer_1">
	<g>
		<path class="st3" d="M15.9,41.5c-0.5,0.5-1.1,0.8-1.7,0.8c-0.4,0-0.8-0.1-1.2-0.3c-0.4-0.2-0.7-0.4-0.9-0.7
			c-0.3-0.3-0.5-0.7-0.6-1s-0.2-0.8-0.2-1.2c0-0.4,0.1-0.9,0.2-1.2c0.2-0.4,0.4-0.7,0.6-1c0.3-0.3,0.6-0.5,1-0.7s0.8-0.3,1.2-0.3
			c0.6,0,1.1,0.1,1.5,0.4c0.4,0.3,0.7,0.6,0.9,1L15.8,38c-0.2-0.3-0.4-0.6-0.6-0.7S14.6,37,14.3,37c-0.3,0-0.5,0.1-0.7,0.2
			s-0.4,0.3-0.5,0.5c-0.2,0.2-0.3,0.4-0.4,0.7c-0.1,0.3-0.1,0.5-0.1,0.8s0,0.6,0.1,0.8c0.1,0.3,0.2,0.5,0.4,0.7s0.4,0.3,0.6,0.5
			c0.2,0.1,0.5,0.2,0.7,0.2c0.6,0,1.1-0.3,1.6-0.9V40h-1.3v-0.9H17v3.1h-1v-0.7H15.9z"/>
		<path class="st3" d="M20.9,42.3c-0.5,0-0.9-0.1-1.2-0.3s-0.7-0.4-1-0.7c-0.3-0.3-0.5-0.6-0.6-1s-0.2-0.8-0.2-1.2
			c0-0.4,0.1-0.8,0.2-1.2s0.4-0.7,0.6-1c0.3-0.3,0.6-0.5,1-0.7s0.8-0.3,1.2-0.3c0.5,0,0.9,0.1,1.2,0.3s0.7,0.4,1,0.7
			c0.3,0.3,0.5,0.7,0.6,1c0.1,0.4,0.2,0.8,0.2,1.2c0,0.4-0.1,0.8-0.2,1.2c-0.2,0.4-0.4,0.7-0.6,1c-0.3,0.3-0.6,0.5-1,0.7
			C21.7,42.2,21.3,42.3,20.9,42.3z M19.1,39.1c0,0.3,0,0.5,0.1,0.8s0.2,0.5,0.4,0.7c0.2,0.2,0.3,0.4,0.6,0.5s0.5,0.2,0.8,0.2
			s0.5-0.1,0.8-0.2s0.4-0.3,0.6-0.5c0.1-0.2,0.3-0.4,0.3-0.7s0.1-0.5,0.1-0.8s0-0.5-0.1-0.8s-0.2-0.5-0.4-0.7
			c-0.2-0.2-0.3-0.4-0.6-0.5c-0.2-0.1-0.5-0.2-0.7-0.2c-0.3,0-0.5,0.1-0.8,0.2s-0.4,0.3-0.6,0.5s-0.3,0.4-0.3,0.7
			C19.1,38.5,19.1,38.8,19.1,39.1z"/>
		<path class="st3" d="M32,36.9h-2v5.3h-1.2v-5.3h-2v-1.1H32V36.9z"/>
		<path class="st3" d="M35.5,42.3c-0.5,0-0.9-0.1-1.2-0.3s-0.7-0.4-1-0.7c-0.3-0.3-0.5-0.6-0.6-1s-0.2-0.8-0.2-1.2
			c0-0.4,0.1-0.8,0.2-1.2s0.4-0.7,0.6-1c0.3-0.3,0.6-0.5,1-0.7s0.8-0.3,1.2-0.3c0.5,0,0.9,0.1,1.2,0.3s0.7,0.4,1,0.7
			c0.3,0.3,0.5,0.7,0.6,1c0.1,0.4,0.2,0.8,0.2,1.2c0,0.4-0.1,0.8-0.2,1.2c-0.2,0.4-0.4,0.7-0.6,1c-0.3,0.3-0.6,0.5-1,0.7
			C36.3,42.2,35.9,42.3,35.5,42.3z M33.7,39.1c0,0.3,0,0.5,0.1,0.8s0.2,0.5,0.4,0.7s0.3,0.4,0.6,0.5s0.5,0.2,0.8,0.2
			s0.5-0.1,0.8-0.2s0.4-0.3,0.6-0.5c0.1-0.2,0.3-0.4,0.3-0.7s0.1-0.5,0.1-0.8s0-0.5-0.1-0.8s-0.2-0.5-0.4-0.7s-0.3-0.4-0.6-0.5
			c-0.2-0.1-0.5-0.2-0.7-0.2c-0.3,0-0.5,0.1-0.8,0.2s-0.4,0.3-0.6,0.5c-0.2,0.2-0.3,0.4-0.3,0.7C33.7,38.5,33.7,38.8,33.7,39.1z"/>
	</g>
	<g>
		<g>
			<path class="st3" d="M17.2,28.5c2,2.1,4.8,3.2,7.8,3.2h0.1c2.9,0,5.7-1.1,7.7-3.1s3.1-4.7,3.2-7.5c0-3-1-5.8-3.1-7.9
				c-0.6-0.6-1.3-1.2-2-1.6c-0.2,0.5-0.4,1-0.7,1.5c0.3,0.2,0.7,0.5,1,0.8c1,1,1.9,2.1,2.2,3V17c0,0.1,0,0.2-0.1,0.2l0,0
				c-0.8,0.4-1.6,0.6-2.5,0.8c-0.2,0-0.3,0.1-0.5,0.1h-0.1h-0.1L30,18v-0.1c-0.2-1-0.4-2-0.8-3l-0.5,1c0.2,0.7,0.4,1.4,0.5,2.1v0.1
				v0.1l-0.1,0.1H29l-3.6,0.2h-0.2h-0.1v-0.1v-4.9c-0.3-0.6-0.5-1.1-0.7-1.7l0,0l0,0v6.4v0.1c0,0.1-0.1,0.2-0.2,0.2l0,0h-0.1
				l-3.4-0.2c-0.1,0-0.1,0-0.1-0.1c0,0,0-0.1,0-0.2v-0.1c0.4-1.8,0.9-3.8,2.3-5.5c0.4-0.4,0.8-0.9,1.3-1h0.1c-0.2-0.5-0.4-1-0.6-1.5
				c-2.5,0.3-4.7,1.3-6.5,3.1c-2,2-3.1,4.6-3.2,7.5C14,23.6,15.1,26.4,17.2,28.5z M30.2,23.7c0-0.2,0-0.4,0-0.6l0,0
				c0-0.5,0.1-0.9,0.1-1.4c0-0.6,0-1.2,0-1.8c0-0.2,0-0.4,0-0.6l0,0c0-0.1,0-0.4,0.4-0.5c0.7-0.2,1.5-0.3,2.2-0.5H33
				c0.3-0.1,0.5-0.1,0.8-0.2h0.1c0.1,0,0.2,0,0.2,0.1v0.1v0.1c0,0.2,0.1,0.3,0.1,0.5c0.2,0.9,0.3,1.8,0.2,2.7
				c-0.1,0.8-0.5,1.4-1.1,1.6c-0.5,0.2-1.1,0.4-1.7,0.5c-0.2,0.1-0.4,0.1-0.7,0.2c-0.1,0-0.2,0-0.3,0.1h-0.1h-0.1l0,0h-0.1
				C30.2,23.9,30.2,23.9,30.2,23.7L30.2,23.7z M30.3,24.9c0.8-0.2,1.5-0.4,2.3-0.6l0.9-0.3c0.1,0,0.1,0,0.2,0.1c0,0,0.1,0.1,0,0.2
				v0.1c-0.5,1.2-1.1,2.2-2,3.1c-0.8,0.9-1.9,1.5-3.1,2.1h-0.1c0,0,0,0-0.1,0h-0.1c-0.1,0-0.1-0.1-0.1-0.2v-0.1l0,0
				c0,0,0-0.1,0.1-0.2c0.4-0.6,1-1.6,1.5-3.7C29.9,25.1,30,24.9,30.3,24.9z M25.2,19.4c0-0.1,0.1-0.2,0.2-0.2h0.2l2.7-0.1l0.9-0.1
				c0,0,0,0,0.1,0l0,0h0.1h0.1c0.1,0,0.1,0.1,0.1,0.2s0,0.2,0,0.4c0,0.1,0,0.3,0,0.4v0.3c0,0.5,0,1,0,1.4v0.2c0,0.4,0,0.8-0.1,1.1
				c0,0.1,0,0.2,0,0.3c0,0.1,0,0.2,0,0.3c0,0.1,0,0.4-0.4,0.5c-0.7,0.1-1.3,0.1-2,0.2h-0.2c-0.2,0-0.5,0-0.8,0.1
				c-0.4,0-0.5,0.1-0.6,0.1h-0.1l-0.2-0.1c-0.1,0-0.1-0.1-0.1-0.2L25.2,19.4L25.2,19.4z M25.2,25.5c0-0.1,0.1-0.2,0.2-0.2h0.2
				l3.4-0.2c0,0,0.1,0,0.1,0.1c0,0,0.1,0.1,0,0.1v0.1l0,0c0,0,0,0,0,0.1v0.1v0.1c0,0.1,0,0.2-0.1,0.3c-0.1,0.1-0.1,0.3-0.2,0.4
				l-0.1,0.2c-0.2,0.6-0.5,1.2-0.7,1.8c-0.2,0.5-0.6,0.9-0.9,1.3c-0.3,0.3-0.9,0.6-1.5,0.6h-0.2l0,0c0,0-0.1,0-0.1-0.1v-0.1
				L25.2,25.5L25.2,25.5z M21.7,29.4l-0.1,0.1l0,0l-0.2-0.1l0,0c-1.8-0.4-4.2-2.6-5.1-5.2v-0.1c0-0.1,0-0.1,0-0.2c0,0,0.1-0.1,0.2,0
				l0.9,0.3c0.8,0.2,1.6,0.5,2.4,0.7c0.2,0.1,0.4,0.1,0.4,0.4c0.3,1.6,0.8,2.8,1.5,3.8l0.1,0.1C21.8,29.3,21.8,29.3,21.7,29.4z
				 M24.4,30c0,0.1-0.1,0.1-0.1,0.1h-0.1c0,0,0,0-0.1,0c0,0-0.9-0.3-1.3-0.8c-1-1.3-1.5-2.7-1.9-4l0,0v-0.1c0-0.1,0-0.1,0-0.1L21,25
				h0.1l1.9,0.2l1.2,0.1c0.1,0,0.2,0.1,0.2,0.2L24.4,30L24.4,30z M23,19.2l1.2,0.1c0.1,0,0.2,0.1,0.2,0.2v5c0,0,0,0.1-0.1,0.1h-0.1
				l0,0c0,0-0.9-0.1-1.4-0.1c-0.6,0-1.2-0.1-1.7-0.2c-0.2,0-0.4-0.3-0.4-0.4c-0.1-1.2-0.1-2.3-0.2-3.1c0-0.3,0-1.4,0-1.5
				s0-0.1,0.1-0.1c0,0,0.1-0.1,0.1,0H23z M16.6,17L16.6,17c0.8-2.1,2.8-3.9,5-4.7l0.2-0.1c0.1,0,0.2,0,0.2,0.1s0,0.1,0,0.2l-0.1,0.2
				c-1.2,1.6-1.7,3.5-2,5.3v0.1c0,0,0,0.1-0.1,0.1h-0.1c0,0,0,0-0.1,0h-0.1c-0.4-0.1-0.7-0.2-1.1-0.3c-0.6-0.1-1.2-0.3-1.8-0.5h-0.1
				C16.6,17.2,16.5,17.1,16.6,17z M16,18.2L16,18.2c0-0.2,0.1-0.2,0.2-0.2l3.3,0.8c0.1,0,0.1,0.1,0.1,0.2l0.1,4.7
				c0,0.1,0,0.1-0.1,0.1h-0.1l0,0h-0.1h-0.1l0,0c-0.1,0-0.3-0.1-0.5-0.1c-1.1-0.3-1.9-0.6-2.6-1.1c-0.4-0.3-0.6-0.6-0.6-1
				C15.6,20.5,15.7,19.3,16,18.2z"/>
		</g>
		<path class="st3" d="M27.7,15.4c-0.5-1-0.9-2-1.4-3c-0.5-1.1-1.1-2.3-1.6-3.4c-0.9-2,0.2-4.3,2.4-4.7c1.8-0.3,3.7,1,3.8,2.9
			c0.1,0.6,0,1.2-0.3,1.7C29.6,11,28.6,13.2,27.7,15.4C27.8,15.3,27.8,15.4,27.7,15.4z M29.5,7.7c0-1-0.8-1.8-1.8-1.8
			s-1.8,0.8-1.8,1.8s0.8,1.8,1.8,1.8S29.5,8.7,29.5,7.7z"/>
	</g>
	<g>
		<path class="st1" d="M15.9,91.5c-0.5,0.5-1.1,0.8-1.7,0.8c-0.4,0-0.8-0.1-1.2-0.3c-0.4-0.2-0.7-0.4-0.9-0.7
			c-0.3-0.3-0.5-0.7-0.6-1s-0.2-0.8-0.2-1.2c0-0.4,0.1-0.9,0.2-1.2c0.2-0.4,0.4-0.7,0.6-1c0.3-0.3,0.6-0.5,1-0.7s0.8-0.3,1.2-0.3
			c0.6,0,1.1,0.1,1.5,0.4c0.4,0.3,0.7,0.6,0.9,1L15.8,88c-0.2-0.3-0.4-0.6-0.6-0.7S14.6,87,14.3,87c-0.3,0-0.5,0.1-0.7,0.2
			s-0.4,0.3-0.5,0.5c-0.2,0.2-0.3,0.4-0.4,0.7c-0.1,0.3-0.1,0.5-0.1,0.8s0,0.6,0.1,0.8c0.1,0.3,0.2,0.5,0.4,0.7s0.4,0.3,0.6,0.5
			c0.2,0.1,0.5,0.2,0.7,0.2c0.6,0,1.1-0.3,1.6-0.9V90h-1.3v-0.9H17v3.1h-1v-0.7H15.9z"/>
		<path class="st1" d="M20.9,92.3c-0.5,0-0.9-0.1-1.2-0.3s-0.7-0.4-1-0.7c-0.3-0.3-0.5-0.6-0.6-1s-0.2-0.8-0.2-1.2
			c0-0.4,0.1-0.8,0.2-1.2s0.4-0.7,0.6-1c0.3-0.3,0.6-0.5,1-0.7s0.8-0.3,1.2-0.3c0.5,0,0.9,0.1,1.2,0.3s0.7,0.4,1,0.7
			c0.3,0.3,0.5,0.7,0.6,1c0.1,0.4,0.2,0.8,0.2,1.2c0,0.4-0.1,0.8-0.2,1.2c-0.2,0.4-0.4,0.7-0.6,1c-0.3,0.3-0.6,0.5-1,0.7
			C21.7,92.2,21.3,92.3,20.9,92.3z M19.1,89.1c0,0.3,0,0.5,0.1,0.8s0.2,0.5,0.4,0.7c0.2,0.2,0.3,0.4,0.6,0.5s0.5,0.2,0.8,0.2
			s0.5-0.1,0.8-0.2s0.4-0.3,0.6-0.5c0.1-0.2,0.3-0.4,0.3-0.7s0.1-0.5,0.1-0.8s0-0.5-0.1-0.8s-0.2-0.5-0.4-0.7
			c-0.2-0.2-0.3-0.4-0.6-0.5c-0.2-0.1-0.5-0.2-0.7-0.2c-0.3,0-0.5,0.1-0.8,0.2s-0.4,0.3-0.6,0.5s-0.3,0.4-0.3,0.7
			C19.1,88.5,19.1,88.8,19.1,89.1z"/>
		<path class="st1" d="M32,86.9h-2v5.3h-1.2v-5.3h-2v-1.1H32V86.9z"/>
		<path class="st1" d="M35.5,92.3c-0.5,0-0.9-0.1-1.2-0.3s-0.7-0.4-1-0.7c-0.3-0.3-0.5-0.6-0.6-1s-0.2-0.8-0.2-1.2
			c0-0.4,0.1-0.8,0.2-1.2s0.4-0.7,0.6-1c0.3-0.3,0.6-0.5,1-0.7s0.8-0.3,1.2-0.3c0.5,0,0.9,0.1,1.2,0.3s0.7,0.4,1,0.7
			c0.3,0.3,0.5,0.7,0.6,1c0.1,0.4,0.2,0.8,0.2,1.2c0,0.4-0.1,0.8-0.2,1.2c-0.2,0.4-0.4,0.7-0.6,1c-0.3,0.3-0.6,0.5-1,0.7
			C36.3,92.2,35.9,92.3,35.5,92.3z M33.7,89.1c0,0.3,0,0.5,0.1,0.8s0.2,0.5,0.4,0.7s0.3,0.4,0.6,0.5s0.5,0.2,0.8,0.2
			s0.5-0.1,0.8-0.2s0.4-0.3,0.6-0.5c0.1-0.2,0.3-0.4,0.3-0.7s0.1-0.5,0.1-0.8s0-0.5-0.1-0.8s-0.2-0.5-0.4-0.7s-0.3-0.4-0.6-0.5
			c-0.2-0.1-0.5-0.2-0.7-0.2c-0.3,0-0.5,0.1-0.8,0.2s-0.4,0.3-0.6,0.5c-0.2,0.2-0.3,0.4-0.3,0.7C33.7,88.5,33.7,88.8,33.7,89.1z"/>
	</g>
	<g>
		<g>
			<path class="st1" d="M17.2,78.5c2,2.1,4.8,3.2,7.8,3.2h0.1c2.9,0,5.7-1.1,7.7-3.1s3.1-4.7,3.2-7.5c0-3-1-5.8-3.1-7.9
				c-0.6-0.6-1.3-1.2-2-1.6c-0.2,0.5-0.4,1-0.7,1.5c0.3,0.2,0.7,0.5,1,0.8c1,1,1.9,2.1,2.2,3V67c0,0.1,0,0.2-0.1,0.2l0,0
				c-0.8,0.4-1.6,0.6-2.5,0.8c-0.2,0-0.3,0.1-0.5,0.1h-0.1h-0.1L30,68v-0.1c-0.2-1-0.4-2-0.8-3l-0.5,1c0.2,0.7,0.4,1.4,0.5,2.1v0.1
				v0.1l-0.1,0.1H29l-3.6,0.2h-0.2h-0.1v-0.1v-4.9c-0.3-0.6-0.5-1.1-0.7-1.7l0,0l0,0v6.4v0.1c0,0.1-0.1,0.2-0.2,0.2l0,0h-0.1
				l-3.4-0.2c-0.1,0-0.1,0-0.1-0.1c0,0,0-0.1,0-0.2v-0.1c0.4-1.8,0.9-3.8,2.3-5.5c0.4-0.4,0.8-0.9,1.3-1h0.1c-0.2-0.5-0.4-1-0.6-1.5
				c-2.5,0.3-4.7,1.3-6.5,3.1c-2,2-3.1,4.6-3.2,7.5C14,73.6,15.1,76.4,17.2,78.5z M30.2,73.7c0-0.2,0-0.4,0-0.6l0,0
				c0-0.5,0.1-0.9,0.1-1.4c0-0.6,0-1.2,0-1.8c0-0.2,0-0.4,0-0.6l0,0c0-0.1,0-0.4,0.4-0.5c0.7-0.2,1.5-0.3,2.2-0.5H33
				c0.3-0.1,0.5-0.1,0.8-0.2h0.1c0.1,0,0.2,0,0.2,0.1v0.1v0.1c0,0.2,0.1,0.3,0.1,0.5c0.2,0.9,0.3,1.8,0.2,2.7
				c-0.1,0.8-0.5,1.4-1.1,1.6c-0.5,0.2-1.1,0.4-1.7,0.5c-0.2,0.1-0.4,0.1-0.7,0.2c-0.1,0-0.2,0-0.3,0.1h-0.1h-0.1l0,0h-0.1
				C30.2,73.9,30.2,73.9,30.2,73.7L30.2,73.7z M30.3,74.9c0.8-0.2,1.5-0.4,2.3-0.6l0.9-0.3c0.1,0,0.1,0,0.2,0.1c0,0,0.1,0.1,0,0.2
				v0.1c-0.5,1.2-1.1,2.2-2,3.1c-0.8,0.9-1.9,1.5-3.1,2.1h-0.1c0,0,0,0-0.1,0h-0.1c-0.1,0-0.1-0.1-0.1-0.2v-0.1l0,0
				c0,0,0-0.1,0.1-0.2c0.4-0.6,1-1.6,1.5-3.7C29.9,75.1,30,74.9,30.3,74.9z M25.2,69.4c0-0.1,0.1-0.2,0.2-0.2h0.2l2.7-0.1l0.9-0.1
				c0,0,0,0,0.1,0l0,0h0.1h0.1c0.1,0,0.1,0.1,0.1,0.2s0,0.2,0,0.4c0,0.1,0,0.3,0,0.4v0.3c0,0.5,0,1,0,1.4v0.2c0,0.4,0,0.8-0.1,1.1
				c0,0.1,0,0.2,0,0.3c0,0.1,0,0.2,0,0.3c0,0.1,0,0.4-0.4,0.5c-0.7,0.1-1.3,0.1-2,0.2h-0.2c-0.2,0-0.5,0-0.8,0.1
				c-0.4,0-0.5,0.1-0.6,0.1h-0.1l-0.2-0.1c-0.1,0-0.1-0.1-0.1-0.2L25.2,69.4L25.2,69.4z M25.2,75.5c0-0.1,0.1-0.2,0.2-0.2h0.2
				l3.4-0.2c0,0,0.1,0,0.1,0.1c0,0,0.1,0.1,0,0.1v0.1l0,0c0,0,0,0,0,0.1v0.1v0.1c0,0.1,0,0.2-0.1,0.3c-0.1,0.1-0.1,0.3-0.2,0.4
				l-0.1,0.2c-0.2,0.6-0.5,1.2-0.7,1.8c-0.2,0.5-0.6,0.9-0.9,1.3c-0.3,0.3-0.9,0.6-1.5,0.6h-0.2l0,0c0,0-0.1,0-0.1-0.1v-0.1
				L25.2,75.5L25.2,75.5z M21.7,79.4l-0.1,0.1l0,0l-0.2-0.1l0,0c-1.8-0.4-4.2-2.6-5.1-5.2v-0.1c0-0.1,0-0.1,0-0.2c0,0,0.1-0.1,0.2,0
				l0.9,0.3c0.8,0.2,1.6,0.5,2.4,0.7c0.2,0.1,0.4,0.1,0.4,0.4c0.3,1.6,0.8,2.8,1.5,3.8l0.1,0.1C21.8,79.3,21.8,79.3,21.7,79.4z
				 M24.4,80c0,0.1-0.1,0.1-0.1,0.1h-0.1c0,0,0,0-0.1,0c0,0-0.9-0.3-1.3-0.8c-1-1.3-1.5-2.7-1.9-4l0,0v-0.1c0-0.1,0-0.1,0-0.1L21,75
				h0.1l1.9,0.2l1.2,0.1c0.1,0,0.2,0.1,0.2,0.2L24.4,80L24.4,80z M23,69.2l1.2,0.1c0.1,0,0.2,0.1,0.2,0.2v5c0,0,0,0.1-0.1,0.1h-0.1
				l0,0c0,0-0.9-0.1-1.4-0.1c-0.6,0-1.2-0.1-1.7-0.2c-0.2,0-0.4-0.3-0.4-0.4c-0.1-1.2-0.1-2.3-0.2-3.1c0-0.3,0-1.4,0-1.5
				s0-0.1,0.1-0.1c0,0,0.1-0.1,0.1,0H23z M16.6,67L16.6,67c0.8-2.1,2.8-3.9,5-4.7l0.2-0.1c0.1,0,0.2,0,0.2,0.1s0,0.1,0,0.2l-0.1,0.2
				c-1.2,1.6-1.7,3.5-2,5.3v0.1c0,0,0,0.1-0.1,0.1h-0.1c0,0,0,0-0.1,0h-0.1c-0.4-0.1-0.7-0.2-1.1-0.3c-0.6-0.1-1.2-0.3-1.8-0.5h-0.1
				C16.6,67.2,16.5,67.1,16.6,67z M16,68.2L16,68.2c0-0.2,0.1-0.2,0.2-0.2l3.3,0.8c0.1,0,0.1,0.1,0.1,0.2l0.1,4.7
				c0,0.1,0,0.1-0.1,0.1h-0.1l0,0h-0.1h-0.1l0,0c-0.1,0-0.3-0.1-0.5-0.1c-1.1-0.3-1.9-0.6-2.6-1.1c-0.4-0.3-0.6-0.6-0.6-1
				C15.6,70.5,15.7,69.3,16,68.2z"/>
		</g>
		<path class="st1" d="M27.7,65.4c-0.5-1-0.9-2-1.4-3c-0.5-1.1-1.1-2.3-1.6-3.4c-0.9-2,0.2-4.3,2.4-4.7c1.8-0.3,3.7,1,3.8,2.9
			c0.1,0.6,0,1.2-0.3,1.7C29.6,61,28.6,63.2,27.7,65.4C27.8,65.3,27.8,65.4,27.7,65.4z M29.5,57.7c0-1-0.8-1.8-1.8-1.8
			s-1.8,0.8-1.8,1.8s0.8,1.8,1.8,1.8S29.5,58.7,29.5,57.7z"/>
	</g>
	<g>
		<path class="st1" d="M15.7,141.6c-0.5,0.5-1.1,0.8-1.7,0.8c-0.4,0-0.8-0.1-1.2-0.3c-0.4-0.2-0.7-0.4-0.9-0.7
			c-0.3-0.3-0.5-0.7-0.6-1s-0.2-0.8-0.2-1.2s0.1-0.9,0.2-1.2c0.2-0.4,0.4-0.7,0.6-1c0.3-0.3,0.6-0.5,1-0.7s0.8-0.3,1.2-0.3
			c0.6,0,1.1,0.1,1.5,0.4c0.4,0.3,0.7,0.6,0.9,1l-0.9,0.7c-0.2-0.3-0.4-0.6-0.6-0.7c-0.2-0.1-0.6-0.3-0.9-0.3
			c-0.3,0-0.5,0.1-0.7,0.2c-0.2,0.1-0.4,0.3-0.5,0.5c-0.2,0.2-0.3,0.4-0.4,0.7c-0.1,0.3-0.1,0.5-0.1,0.8s0,0.6,0.1,0.8
			c0.1,0.3,0.2,0.5,0.4,0.7s0.4,0.3,0.6,0.5c0.2,0.1,0.5,0.2,0.7,0.2c0.6,0,1.1-0.3,1.6-0.9v-0.5h-1.3v-0.9h2.3v3.1h-1v-0.7H15.7z"
			/>
		<path class="st1" d="M20.7,142.4c-0.5,0-0.9-0.1-1.2-0.3c-0.3-0.2-0.7-0.4-1-0.7c-0.3-0.3-0.5-0.6-0.6-1c-0.1-0.4-0.2-0.8-0.2-1.2
			c0-0.4,0.1-0.8,0.2-1.2s0.4-0.7,0.6-1c0.3-0.3,0.6-0.5,1-0.7s0.8-0.3,1.2-0.3c0.5,0,0.9,0.1,1.2,0.3c0.3,0.2,0.7,0.4,1,0.7
			s0.5,0.7,0.6,1c0.1,0.4,0.2,0.8,0.2,1.2s-0.1,0.8-0.2,1.2c-0.2,0.4-0.4,0.7-0.6,1c-0.3,0.3-0.6,0.5-1,0.7S21.1,142.4,20.7,142.4z
			 M18.9,139.2c0,0.3,0,0.5,0.1,0.8s0.2,0.5,0.4,0.7c0.2,0.2,0.3,0.4,0.6,0.5c0.3,0.1,0.5,0.2,0.8,0.2s0.5-0.1,0.8-0.2
			c0.3-0.1,0.4-0.3,0.6-0.5c0.1-0.2,0.3-0.4,0.3-0.7c0-0.3,0.1-0.5,0.1-0.8s0-0.5-0.1-0.8s-0.2-0.5-0.4-0.7
			c-0.2-0.2-0.3-0.4-0.6-0.5c-0.2-0.1-0.5-0.2-0.7-0.2c-0.3,0-0.5,0.1-0.8,0.2c-0.3,0.1-0.4,0.3-0.6,0.5s-0.3,0.4-0.3,0.7
			C18.9,138.6,18.9,138.9,18.9,139.2z"/>
		<path class="st1" d="M31.8,137h-2v5.3h-1.2V137h-2v-1.1h5.2V137z"/>
		<path class="st1" d="M35.3,142.4c-0.5,0-0.9-0.1-1.2-0.3c-0.3-0.2-0.7-0.4-1-0.7c-0.3-0.3-0.5-0.6-0.6-1c-0.1-0.4-0.2-0.8-0.2-1.2
			c0-0.4,0.1-0.8,0.2-1.2s0.4-0.7,0.6-1c0.3-0.3,0.6-0.5,1-0.7s0.8-0.3,1.2-0.3c0.5,0,0.9,0.1,1.2,0.3c0.3,0.2,0.7,0.4,1,0.7
			s0.5,0.7,0.6,1c0.1,0.4,0.2,0.8,0.2,1.2s-0.1,0.8-0.2,1.2c-0.2,0.4-0.4,0.7-0.6,1c-0.3,0.3-0.6,0.5-1,0.7S35.7,142.4,35.3,142.4z
			 M33.5,139.2c0,0.3,0,0.5,0.1,0.8s0.2,0.5,0.4,0.7s0.3,0.4,0.6,0.5c0.3,0.1,0.5,0.2,0.8,0.2s0.5-0.1,0.8-0.2
			c0.3-0.1,0.4-0.3,0.6-0.5c0.1-0.2,0.3-0.4,0.3-0.7c0-0.3,0.1-0.5,0.1-0.8s0-0.5-0.1-0.8s-0.2-0.5-0.4-0.7s-0.3-0.4-0.6-0.5
			c-0.2-0.1-0.5-0.2-0.7-0.2c-0.3,0-0.5,0.1-0.8,0.2c-0.3,0.1-0.4,0.3-0.6,0.5c-0.2,0.2-0.3,0.4-0.3,0.7
			C33.5,138.6,33.5,138.9,33.5,139.2z"/>
	</g>
	<g>
		<path class="st1" d="M17,128.6c2,2.1,4.8,3.2,7.8,3.2h0.1c2.9,0,5.7-1.1,7.7-3.1c2-2,3.1-4.7,3.2-7.5c0-3-1-5.8-3.1-7.9
			c-0.6-0.6-1.3-1.2-2-1.6c-0.2,0.5-0.4,1-0.7,1.5c0.3,0.2,0.7,0.5,1,0.8c1,1,1.9,2.1,2.2,3v0.1c0,0.1,0,0.2-0.1,0.2l0,0
			c-0.8,0.4-1.6,0.6-2.5,0.8c-0.2,0-0.3,0.1-0.5,0.1H30h-0.1l-0.1-0.1V118c-0.2-1-0.4-2-0.8-3l-0.5,1c0.2,0.7,0.4,1.4,0.5,2.1v0.1
			v0.1l-0.1,0.1h-0.1l-3.6,0.2H25h-0.1v-0.1v-4.9c-0.3-0.6-0.5-1.1-0.7-1.7l0,0l0,0v6.4v0.1c0,0.1-0.1,0.2-0.2,0.2l0,0h-0.1
			l-3.4-0.2c-0.1,0-0.1,0-0.1-0.1c0,0,0-0.1,0-0.2V118c0.4-1.8,0.9-3.8,2.3-5.5c0.4-0.4,0.8-0.9,1.3-1h0.1c-0.2-0.5-0.4-1-0.6-1.5
			c-2.5,0.3-4.7,1.3-6.5,3.1c-2,2-3.1,4.6-3.2,7.5C13.8,123.7,14.9,126.5,17,128.6z M30,123.8c0-0.2,0-0.4,0-0.6l0,0
			c0-0.5,0.1-0.9,0.1-1.4c0-0.6,0-1.2,0-1.8c0-0.2,0-0.4,0-0.6l0,0c0-0.1,0-0.4,0.4-0.5c0.7-0.2,1.5-0.3,2.2-0.5h0.1
			c0.3-0.1,0.5-0.1,0.8-0.2h0.1c0.1,0,0.2,0,0.2,0.1v0.1v0.1c0,0.2,0.1,0.3,0.1,0.5c0.2,0.9,0.3,1.8,0.2,2.7
			c-0.1,0.8-0.5,1.4-1.1,1.6c-0.5,0.2-1.1,0.4-1.7,0.5c-0.2,0.1-0.4,0.1-0.7,0.2c-0.1,0-0.2,0-0.3,0.1h-0.1h-0.1l0,0h-0.1
			C30,124,30,124,30,123.8L30,123.8z M30.1,125c0.8-0.2,1.5-0.4,2.3-0.6l0.9-0.3c0.1,0,0.1,0,0.2,0.1c0,0,0.1,0.1,0,0.2v0.1
			c-0.5,1.2-1.1,2.2-2,3.1c-0.8,0.9-1.9,1.5-3.1,2.1h-0.1c0,0,0,0-0.1,0h-0.1c-0.1,0-0.1-0.1-0.1-0.2v-0.1l0,0c0,0,0-0.1,0.1-0.2
			c0.4-0.6,1-1.6,1.5-3.7C29.7,125.2,29.8,125,30.1,125z M25,119.5c0-0.1,0.1-0.2,0.2-0.2h0.2l2.7-0.1l0.9-0.1c0,0,0,0,0.1,0l0,0
			h0.1h0.1c0.1,0,0.1,0.1,0.1,0.2s0,0.2,0,0.4c0,0.1,0,0.3,0,0.4v0.3c0,0.5,0,1,0,1.4v0.2c0,0.4,0,0.8-0.1,1.1c0,0.1,0,0.2,0,0.3
			c0,0.1,0,0.2,0,0.3c0,0.1,0,0.4-0.4,0.5c-0.7,0.1-1.3,0.1-2,0.2h-0.2c-0.2,0-0.5,0-0.8,0.1c-0.4,0-0.5,0.1-0.6,0.1h-0.1l-0.2-0.1
			c-0.1,0-0.1-0.1-0.1-0.2L25,119.5L25,119.5z M25,125.6c0-0.1,0.1-0.2,0.2-0.2h0.2l3.4-0.2c0,0,0.1,0,0.1,0.1c0,0,0.1,0.1,0,0.1
			v0.1l0,0c0,0,0,0,0,0.1v0.1v0.1c0,0.1,0,0.2-0.1,0.3c-0.1,0.1-0.1,0.3-0.2,0.4l-0.1,0.2c-0.2,0.6-0.5,1.2-0.7,1.8
			c-0.2,0.5-0.6,0.9-0.9,1.3c-0.3,0.3-0.9,0.6-1.5,0.6h-0.2l0,0c0,0-0.1,0-0.1-0.1v-0.1L25,125.6L25,125.6z M21.5,129.5l-0.1,0.1
			l0,0l-0.2-0.1l0,0c-1.8-0.4-4.2-2.6-5.1-5.2v-0.1c0-0.1,0-0.1,0-0.2c0,0,0.1-0.1,0.2,0l0.9,0.3c0.8,0.2,1.6,0.5,2.4,0.7
			c0.2,0.1,0.4,0.1,0.4,0.4c0.3,1.6,0.8,2.8,1.5,3.8l0.1,0.1C21.6,129.4,21.6,129.4,21.5,129.5z M24.2,130.1c0,0.1-0.1,0.1-0.1,0.1
			H24c0,0,0,0-0.1,0c0,0-0.9-0.3-1.3-0.8c-1-1.3-1.5-2.7-1.9-4l0,0v-0.1c0-0.1,0-0.1,0-0.1l0.1-0.1h0.1l1.9,0.2l1.2,0.1
			c0.1,0,0.2,0.1,0.2,0.2L24.2,130.1L24.2,130.1z M22.8,119.3l1.2,0.1c0.1,0,0.2,0.1,0.2,0.2v5c0,0,0,0.1-0.1,0.1H24l0,0
			c0,0-0.9-0.1-1.4-0.1c-0.6,0-1.2-0.1-1.7-0.2c-0.2,0-0.4-0.3-0.4-0.4c-0.1-1.2-0.1-2.3-0.2-3.1c0-0.3,0-1.4,0-1.5s0-0.1,0.1-0.1
			c0,0,0.1-0.1,0.1,0H22.8z M16.4,117.1L16.4,117.1c0.8-2.1,2.8-3.9,5-4.7l0.2-0.1c0.1,0,0.2,0,0.2,0.1s0,0.1,0,0.2l-0.1,0.2
			c-1.2,1.6-1.7,3.5-2,5.3v0.1c0,0,0,0.1-0.1,0.1h-0.1c0,0,0,0-0.1,0h-0.1c-0.4-0.1-0.7-0.2-1.1-0.3c-0.6-0.1-1.2-0.3-1.8-0.5h-0.1
			C16.4,117.3,16.3,117.2,16.4,117.1z M15.8,118.3L15.8,118.3c0-0.2,0.1-0.2,0.2-0.2l3.3,0.8c0.1,0,0.1,0.1,0.1,0.2l0.1,4.7
			c0,0.1,0,0.1-0.1,0.1h-0.1l0,0h-0.1h-0.1l0,0c-0.1,0-0.3-0.1-0.5-0.1c-1.1-0.3-1.9-0.6-2.6-1.1c-0.4-0.3-0.6-0.6-0.6-1
			C15.4,120.6,15.5,119.4,15.8,118.3z"/>
	</g>
	<path class="st1" d="M27.5,114.5c-0.5-1-0.9-2-1.4-3c-0.5-1.1-1.1-2.3-1.6-3.4c-0.9-2,0.2-4.3,2.4-4.7c1.8-0.3,3.7,1,3.8,2.9
		c0.1,0.6,0,1.2-0.3,1.7C29.4,110.1,28.4,112.3,27.5,114.5C27.6,114.4,27.6,114.5,27.5,114.5z M29.3,106.8c0-1-0.8-1.8-1.8-1.8
		s-1.8,0.8-1.8,1.8s0.8,1.8,1.8,1.8S29.3,107.8,29.3,106.8z"/>
	<g>
		<path class="st1" d="M15.7,191.7c-0.5,0.5-1.1,0.8-1.7,0.8c-0.4,0-0.8-0.1-1.2-0.3c-0.4-0.2-0.7-0.4-0.9-0.7
			c-0.3-0.3-0.5-0.7-0.6-1s-0.2-0.8-0.2-1.2s0.1-0.9,0.2-1.2c0.2-0.4,0.4-0.7,0.6-1c0.3-0.3,0.6-0.5,1-0.7s0.8-0.3,1.2-0.3
			c0.6,0,1.1,0.1,1.5,0.4c0.4,0.3,0.7,0.6,0.9,1l-0.9,0.7c-0.2-0.3-0.4-0.6-0.6-0.7c-0.2-0.1-0.6-0.3-0.9-0.3
			c-0.3,0-0.5,0.1-0.7,0.2c-0.2,0.1-0.4,0.3-0.5,0.5c-0.2,0.2-0.3,0.4-0.4,0.7c-0.1,0.3-0.1,0.5-0.1,0.8s0,0.6,0.1,0.8
			c0.1,0.3,0.2,0.5,0.4,0.7s0.4,0.3,0.6,0.5c0.2,0.1,0.5,0.2,0.7,0.2c0.6,0,1.1-0.3,1.6-0.9v-0.5h-1.3v-0.9h2.3v3.1h-1v-0.7H15.7z"
			/>
		<path class="st1" d="M20.7,192.5c-0.5,0-0.9-0.1-1.2-0.3c-0.3-0.2-0.7-0.4-1-0.7c-0.3-0.3-0.5-0.6-0.6-1c-0.1-0.4-0.2-0.8-0.2-1.2
			c0-0.4,0.1-0.8,0.2-1.2s0.4-0.7,0.6-1c0.3-0.3,0.6-0.5,1-0.7s0.8-0.3,1.2-0.3c0.5,0,0.9,0.1,1.2,0.3c0.3,0.2,0.7,0.4,1,0.7
			s0.5,0.7,0.6,1c0.1,0.4,0.2,0.8,0.2,1.2s-0.1,0.8-0.2,1.2c-0.2,0.4-0.4,0.7-0.6,1c-0.3,0.3-0.6,0.5-1,0.7S21.1,192.5,20.7,192.5z
			 M18.9,189.3c0,0.3,0,0.5,0.1,0.8s0.2,0.5,0.4,0.7c0.2,0.2,0.3,0.4,0.6,0.5c0.3,0.1,0.5,0.2,0.8,0.2s0.5-0.1,0.8-0.2
			c0.3-0.1,0.4-0.3,0.6-0.5c0.1-0.2,0.3-0.4,0.3-0.7c0-0.3,0.1-0.5,0.1-0.8s0-0.5-0.1-0.8s-0.2-0.5-0.4-0.7
			c-0.2-0.2-0.3-0.4-0.6-0.5c-0.2-0.1-0.5-0.2-0.7-0.2c-0.3,0-0.5,0.1-0.8,0.2c-0.3,0.1-0.4,0.3-0.6,0.5s-0.3,0.4-0.3,0.7
			C18.9,188.7,18.9,189,18.9,189.3z"/>
		<path class="st1" d="M31.8,187.1h-2v5.3h-1.2v-5.3h-2V186h5.2V187.1z"/>
		<path class="st1" d="M35.3,192.5c-0.5,0-0.9-0.1-1.2-0.3c-0.3-0.2-0.7-0.4-1-0.7c-0.3-0.3-0.5-0.6-0.6-1c-0.1-0.4-0.2-0.8-0.2-1.2
			c0-0.4,0.1-0.8,0.2-1.2s0.4-0.7,0.6-1c0.3-0.3,0.6-0.5,1-0.7s0.8-0.3,1.2-0.3c0.5,0,0.9,0.1,1.2,0.3c0.3,0.2,0.7,0.4,1,0.7
			s0.5,0.7,0.6,1c0.1,0.4,0.2,0.8,0.2,1.2s-0.1,0.8-0.2,1.2c-0.2,0.4-0.4,0.7-0.6,1c-0.3,0.3-0.6,0.5-1,0.7S35.7,192.5,35.3,192.5z
			 M33.5,189.3c0,0.3,0,0.5,0.1,0.8s0.2,0.5,0.4,0.7s0.3,0.4,0.6,0.5c0.3,0.1,0.5,0.2,0.8,0.2s0.5-0.1,0.8-0.2
			c0.3-0.1,0.4-0.3,0.6-0.5c0.1-0.2,0.3-0.4,0.3-0.7c0-0.3,0.1-0.5,0.1-0.8s0-0.5-0.1-0.8s-0.2-0.5-0.4-0.7s-0.3-0.4-0.6-0.5
			c-0.2-0.1-0.5-0.2-0.7-0.2c-0.3,0-0.5,0.1-0.8,0.2c-0.3,0.1-0.4,0.3-0.6,0.5c-0.2,0.2-0.3,0.4-0.3,0.7
			C33.5,188.7,33.5,189,33.5,189.3z"/>
	</g>
	<g>
		<path class="st1" d="M17,178.7c2,2.1,4.8,3.2,7.8,3.2h0.1c2.9,0,5.7-1.1,7.7-3.1s3.1-4.7,3.2-7.5c0-3-1-5.8-3.1-7.9
			c-0.6-0.6-1.3-1.2-2-1.6c-0.2,0.5-0.4,1-0.7,1.5c0.3,0.2,0.7,0.5,1,0.8c1,1,1.9,2.1,2.2,3v0.1c0,0.1,0,0.2-0.1,0.2l0,0
			c-0.8,0.4-1.6,0.6-2.5,0.8c-0.2,0-0.3,0.1-0.5,0.1H30h-0.1l-0.1-0.1v-0.1c-0.2-1-0.4-2-0.8-3l-0.5,1c0.2,0.7,0.4,1.4,0.5,2.1v0.1
			v0.1l-0.1,0.1h-0.1l-3.6,0.2H25h-0.1v-0.1v-4.9c-0.3-0.6-0.5-1.1-0.7-1.7l0,0l0,0v6.4v0.1c0,0.1-0.1,0.2-0.2,0.2l0,0h-0.1
			l-3.4-0.2c-0.1,0-0.1,0-0.1-0.1c0,0,0-0.1,0-0.2v-0.1c0.4-1.8,0.9-3.8,2.3-5.5c0.4-0.4,0.8-0.9,1.3-1h0.1c-0.2-0.5-0.4-1-0.6-1.5
			c-2.5,0.3-4.7,1.3-6.5,3.1c-2,2-3.1,4.6-3.2,7.5C13.8,173.8,14.9,176.6,17,178.7z M30,173.9c0-0.2,0-0.4,0-0.6l0,0
			c0-0.5,0.1-0.9,0.1-1.4c0-0.6,0-1.2,0-1.8c0-0.2,0-0.4,0-0.6l0,0c0-0.1,0-0.4,0.4-0.5c0.7-0.2,1.5-0.3,2.2-0.5h0.1
			c0.3-0.1,0.5-0.1,0.8-0.2h0.1c0.1,0,0.2,0,0.2,0.1v0.1v0.1c0,0.2,0.1,0.3,0.1,0.5c0.2,0.9,0.3,1.8,0.2,2.7
			c-0.1,0.8-0.5,1.4-1.1,1.6c-0.5,0.2-1.1,0.4-1.7,0.5c-0.2,0.1-0.4,0.1-0.7,0.2c-0.1,0-0.2,0-0.3,0.1h-0.1h-0.1l0,0h-0.1
			C30,174.1,30,174.1,30,173.9L30,173.9z M30.1,175.1c0.8-0.2,1.5-0.4,2.3-0.6l0.9-0.3c0.1,0,0.1,0,0.2,0.1c0,0,0.1,0.1,0,0.2v0.1
			c-0.5,1.2-1.1,2.2-2,3.1c-0.8,0.9-1.9,1.5-3.1,2.1h-0.1c0,0,0,0-0.1,0h-0.1c-0.1,0-0.1-0.1-0.1-0.2v-0.1l0,0c0,0,0-0.1,0.1-0.2
			c0.4-0.6,1-1.6,1.5-3.7C29.7,175.3,29.8,175.1,30.1,175.1z M25,169.6c0-0.1,0.1-0.2,0.2-0.2h0.2l2.7-0.1l0.9-0.1c0,0,0,0,0.1,0
			l0,0h0.1h0.1c0.1,0,0.1,0.1,0.1,0.2c0,0.1,0,0.2,0,0.4c0,0.1,0,0.3,0,0.4v0.3c0,0.5,0,1,0,1.4v0.2c0,0.4,0,0.8-0.1,1.1
			c0,0.1,0,0.2,0,0.3s0,0.2,0,0.3s0,0.4-0.4,0.5c-0.7,0.1-1.3,0.1-2,0.2h-0.2c-0.2,0-0.5,0-0.8,0.1c-0.4,0-0.5,0.1-0.6,0.1h-0.1
			l-0.2-0.1c-0.1,0-0.1-0.1-0.1-0.2L25,169.6L25,169.6z M25,175.7c0-0.1,0.1-0.2,0.2-0.2h0.2l3.4-0.2c0,0,0.1,0,0.1,0.1
			c0,0,0.1,0.1,0,0.1v0.1l0,0c0,0,0,0,0,0.1v0.1v0.1c0,0.1,0,0.2-0.1,0.3s-0.1,0.3-0.2,0.4l-0.1,0.2c-0.2,0.6-0.5,1.2-0.7,1.8
			c-0.2,0.5-0.6,0.9-0.9,1.3c-0.3,0.3-0.9,0.6-1.5,0.6h-0.2l0,0c0,0-0.1,0-0.1-0.1v-0.1L25,175.7L25,175.7z M21.5,179.6l-0.1,0.1
			l0,0l-0.2-0.1l0,0c-1.8-0.4-4.2-2.6-5.1-5.2v-0.1c0-0.1,0-0.1,0-0.2c0,0,0.1-0.1,0.2,0l0.9,0.3c0.8,0.2,1.6,0.5,2.4,0.7
			c0.2,0.1,0.4,0.1,0.4,0.4c0.3,1.6,0.8,2.8,1.5,3.8l0.1,0.1C21.6,179.5,21.6,179.5,21.5,179.6z M24.2,180.2c0,0.1-0.1,0.1-0.1,0.1
			H24c0,0,0,0-0.1,0c0,0-0.9-0.3-1.3-0.8c-1-1.3-1.5-2.7-1.9-4l0,0v-0.1c0-0.1,0-0.1,0-0.1l0.1-0.1h0.1l1.9,0.2l1.2,0.1
			c0.1,0,0.2,0.1,0.2,0.2L24.2,180.2L24.2,180.2z M22.8,169.4l1.2,0.1c0.1,0,0.2,0.1,0.2,0.2v5c0,0,0,0.1-0.1,0.1H24l0,0
			c0,0-0.9-0.1-1.4-0.1c-0.6,0-1.2-0.1-1.7-0.2c-0.2,0-0.4-0.3-0.4-0.4c-0.1-1.2-0.1-2.3-0.2-3.1c0-0.3,0-1.4,0-1.5
			c0-0.1,0-0.1,0.1-0.1c0,0,0.1-0.1,0.1,0H22.8z M16.4,167.2L16.4,167.2c0.8-2.1,2.8-3.9,5-4.7l0.2-0.1c0.1,0,0.2,0,0.2,0.1
			c0,0.1,0,0.1,0,0.2l-0.1,0.2c-1.2,1.6-1.7,3.5-2,5.3v0.1c0,0,0,0.1-0.1,0.1h-0.1c0,0,0,0-0.1,0h-0.1c-0.4-0.1-0.7-0.2-1.1-0.3
			c-0.6-0.1-1.2-0.3-1.8-0.5h-0.1C16.4,167.4,16.3,167.3,16.4,167.2z M15.8,168.4L15.8,168.4c0-0.2,0.1-0.2,0.2-0.2l3.3,0.8
			c0.1,0,0.1,0.1,0.1,0.2l0.1,4.7c0,0.1,0,0.1-0.1,0.1h-0.1l0,0h-0.1h-0.1l0,0c-0.1,0-0.3-0.1-0.5-0.1c-1.1-0.3-1.9-0.6-2.6-1.1
			c-0.4-0.3-0.6-0.6-0.6-1C15.4,170.7,15.5,169.5,15.8,168.4z"/>
	</g>
	<path class="st1" d="M27.5,164.6c-0.5-1-0.9-2-1.4-3c-0.5-1.1-1.1-2.3-1.6-3.4c-0.9-2,0.2-4.3,2.4-4.7c1.8-0.3,3.7,1,3.8,2.9
		c0.1,0.6,0,1.2-0.3,1.7C29.4,160.2,28.4,162.4,27.5,164.6C27.6,164.5,27.6,164.6,27.5,164.6z M29.3,156.9c0-1-0.8-1.8-1.8-1.8
		s-1.8,0.8-1.8,1.8s0.8,1.8,1.8,1.8S29.3,157.9,29.3,156.9z"/>
</g>
</svg>
