<?xml version="1.0" encoding="utf-8"?>
<!-- Generator: Adobe Illustrator 19.2.0, SVG Export Plug-In . SVG Version: 6.00 Build 0)  -->
<svg version="1.1" xmlns="http://www.w3.org/2000/svg" xmlns:xlink="http://www.w3.org/1999/xlink" x="0px" y="0px"
	 viewBox="0 0 50 200.1" style="enable-background:new 0 0 50 200.1;" xml:space="preserve">
<style type="text/css">
	.st0{fill:#414042;}
	.st1{fill:#FFFFFF;}
	.st2{fill:#1E1E1E;}
	.st3{fill:#333333;}
</style>
<g id="Layer_2">
	<g>
		<g>
			<path class="st0" d="M50.1,146.1c0,2.2-1.8,4-4,4h-42c-2.2,0-4-1.8-4-4v-42c0-2.2,1.8-4,4-4h42c2.2,0,4,1.8,4,4V146.1z"/>
		</g>
	</g>
	<g>
		<g>
			<path class="st0" d="M50,196.1c0,2.2-1.8,4-4,4H4c-2.2,0-4-1.8-4-4v-42c0-2.2,1.8-4,4-4h42c2.2,0,4,1.8,4,4V196.1z"/>
		</g>
	</g>
	<g>
		<g>
			<path class="st1" d="M50,46c0,2.2-1.8,4-4,4H4c-2.2,0-4-1.8-4-4V4c0-2.2,1.8-4,4-4h42c2.2,0,4,1.8,4,4V46z"/>
		</g>
	</g>
	<g>
		<path class="st2" d="M50,96.1c0,2.2-1.8,4-4,4H4c-2.2,0-4-1.8-4-4v-42c0-2.2,1.8-4,4-4h42c2.2,0,4,1.8,4,4V96.1z"/>
	</g>
</g>
<g id="Layer_3">
</g>
<g id="Layer_1">
	<path class="st3" d="M22.2,21.5c-1.4,1.4-2.8,2.8-4.2,4.2c-0.3-0.3-0.7-0.7-1-1c1.4-1.4,2.8-2.8,4.2-4.2L20,19.4
		c-1.6,1.6-3.2,3.2-4.9,4.8c-0.3,0.3-0.5,0.7-0.6,1.2c-0.2,1.3-0.4,2.6-0.6,4c0.1,0,0.2,0,0.3,0c1.3-0.3,2.5-0.5,3.8-0.8
		c0.2-0.1,0.5-0.2,0.7-0.4c1.7-1.7,3.4-3.4,5.1-5.1L22.2,21.5z"/>
	<path class="st3" d="M28.8,10.6c0.5-0.5,1.1-1.1,1.7-1.7c0.2-0.2,0.5-0.2,0.7,0c1,1,2,2,3,3c0.2,0.2,0.2,0.5,0,0.8
		c-0.6,0.6-1.2,1.2-1.7,1.7C31.3,13.2,30.1,11.9,28.8,10.6z"/>
	<path class="st3" d="M30.2,19.9c-0.3,0.1-0.4,0-0.6-0.2c-0.4-0.4-0.8-0.8-1.2-1.2c1-1,1.9-1.9,2.9-2.9c0.1-0.1,0.2-0.2,0.2-0.2
		c-1.3-1.3-2.5-2.5-3.8-3.9c-0.1,0.1-0.1,0.2-0.2,0.3c-1,1-1.9,1.9-2.9,2.9c-1.8-1.8-3.5-3.5-5.3-5.3c-0.1-0.1-0.3-0.3-0.4-0.4
		c-1-0.7-2.2-0.6-3,0.3c-0.8,0.9-0.7,2.2,0.1,3c2.6,2.6,5.3,5.3,7.9,7.9c0.9,0.9,1.7,1.7,2.6,2.6c0.1,0.1,0.2,0.2,0.1,0.4
		c-0.1,0.4-0.2,0.8-0.2,1.2c-0.2,2.5,1.4,4.7,3.9,5.4c1,0.3,2,0.2,3.1-0.2c-0.1-0.1-0.2-0.2-0.3-0.2c-0.7-0.7-1.5-1.5-2.2-2.2
		c-0.5-0.5-0.6-1.4-0.1-1.9c0.4-0.4,0.8-0.8,1.2-1.2c0.6-0.5,1.3-0.5,1.8,0c0.1,0.1,0.2,0.2,0.3,0.3c0.7,0.7,1.5,1.5,2.2,2.2
		c0,0,0.1,0,0.1,0c0.1-0.4,0.2-0.8,0.2-1.3C37.2,21.7,33.7,18.9,30.2,19.9z M17.5,11.5c-0.4,0-0.7-0.3-0.7-0.7
		c0-0.4,0.3-0.8,0.7-0.8c0.4,0,0.8,0.4,0.8,0.7C18.3,11.1,17.9,11.5,17.5,11.5z M27.9,13.8c0.3,0.3,0.6,0.7,1,1
		c-0.7,0.7-1.4,1.4-2.1,2.1c-0.3-0.3-0.7-0.7-1-1C26.5,15.2,27.2,14.5,27.9,13.8z"/>
	<g>
		<path class="st3" d="M18.8,41.3v1.1h-4.4V36h4.4v1.1h-3.1v1.5h2.7v1h-2.7v1.7H18.8z"/>
		<path class="st3" d="M20,42.4V36h2.3c0.5,0,1,0.1,1.4,0.3s0.7,0.4,1,0.7c0.3,0.3,0.5,0.6,0.6,1c0.1,0.4,0.2,0.8,0.2,1.2
			c0,0.5-0.1,0.9-0.2,1.3c-0.1,0.4-0.4,0.7-0.6,1c-0.3,0.3-0.6,0.5-1,0.6c-0.4,0.2-0.8,0.2-1.3,0.2H20z M24.2,39.2
			c0-0.3,0-0.6-0.1-0.8s-0.2-0.5-0.4-0.7c-0.2-0.2-0.4-0.3-0.6-0.4c-0.2-0.1-0.5-0.2-0.8-0.2h-1.1v4.2h1.1c0.3,0,0.6-0.1,0.8-0.2
			c0.2-0.1,0.4-0.3,0.6-0.4s0.3-0.4,0.4-0.7C24.2,39.8,24.2,39.5,24.2,39.2z"/>
		<path class="st3" d="M26.7,42.4v-6.4h1.2v6.4H26.7z"/>
		<path class="st3" d="M34.3,37.1h-2v5.3H31v-5.3h-2V36h5.3V37.1z"/>
	</g>
	<path class="st1" d="M22.2,71.5c-1.4,1.4-2.8,2.8-4.2,4.2c-0.3-0.3-0.7-0.7-1-1c1.4-1.4,2.8-2.8,4.2-4.2L20,69.4
		c-1.6,1.6-3.2,3.2-4.9,4.8c-0.3,0.3-0.5,0.7-0.6,1.2c-0.2,1.3-0.4,2.6-0.6,4c0.1,0,0.2,0,0.3,0c1.3-0.3,2.5-0.5,3.8-0.8
		c0.2-0.1,0.5-0.2,0.7-0.4c1.7-1.7,3.4-3.4,5.1-5.1L22.2,71.5z"/>
	<path class="st1" d="M28.8,60.6c0.5-0.5,1.1-1.1,1.7-1.7c0.2-0.2,0.5-0.2,0.7,0c1,1,2,2,3,3c0.2,0.2,0.2,0.5,0,0.8
		c-0.6,0.6-1.2,1.2-1.7,1.7C31.3,63.2,30.1,61.9,28.8,60.6z"/>
	<path class="st1" d="M30.3,69.9c-0.3,0.1-0.4,0-0.6-0.2c-0.4-0.4-0.8-0.8-1.2-1.2c1-1,1.9-1.9,2.9-2.9c0.1-0.1,0.2-0.2,0.2-0.2
		c-1.3-1.3-2.5-2.5-3.8-3.9c-0.1,0.1-0.1,0.2-0.2,0.3c-1,1-1.9,1.9-2.9,2.9c-1.8-1.8-3.5-3.5-5.3-5.3c-0.1-0.1-0.3-0.3-0.4-0.4
		c-1-0.7-2.2-0.6-3,0.3c-0.8,0.9-0.7,2.2,0.1,3c2.6,2.6,5.3,5.3,7.9,7.9c0.9,0.9,1.7,1.7,2.6,2.6c0.1,0.1,0.2,0.2,0.1,0.4
		c-0.1,0.4-0.2,0.8-0.2,1.2c-0.2,2.5,1.4,4.7,3.9,5.4c1,0.3,2,0.2,3.1-0.2c-0.1-0.1-0.2-0.2-0.3-0.2c-0.7-0.7-1.5-1.5-2.2-2.2
		c-0.5-0.5-0.6-1.4-0.1-1.9c0.4-0.4,0.8-0.8,1.2-1.2c0.6-0.5,1.3-0.5,1.8,0c0.1,0.1,0.2,0.2,0.3,0.3c0.7,0.7,1.5,1.5,2.2,2.2
		c0,0,0.1,0,0.1,0c0.1-0.4,0.2-0.8,0.2-1.3C37.2,71.7,33.8,68.9,30.3,69.9z M17.6,61.5c-0.4,0-0.7-0.3-0.7-0.7
		c0-0.4,0.3-0.8,0.7-0.8c0.4,0,0.8,0.4,0.8,0.7C18.3,61.1,18,61.5,17.6,61.5z M28,63.8c0.3,0.3,0.6,0.7,1,1
		c-0.7,0.7-1.4,1.4-2.1,2.1c-0.3-0.3-0.7-0.7-1-1C26.6,65.2,27.3,64.5,28,63.8z"/>
	<g>
		<path class="st1" d="M18.8,91.3v1.1h-4.4V86h4.4v1.1h-3.1v1.5h2.7v1h-2.7v1.7H18.8z"/>
		<path class="st1" d="M20,92.4V86h2.3c0.5,0,1,0.1,1.4,0.3s0.7,0.4,1,0.7c0.3,0.3,0.5,0.6,0.6,1c0.1,0.4,0.2,0.8,0.2,1.2
			c0,0.5-0.1,0.9-0.2,1.3c-0.1,0.4-0.4,0.7-0.6,1c-0.3,0.3-0.6,0.5-1,0.6c-0.4,0.2-0.8,0.2-1.3,0.2H20z M24.2,89.2
			c0-0.3,0-0.6-0.1-0.8s-0.2-0.5-0.4-0.7c-0.2-0.2-0.4-0.3-0.6-0.4c-0.2-0.1-0.5-0.2-0.8-0.2h-1.1v4.2h1.1c0.3,0,0.6-0.1,0.8-0.2
			c0.2-0.1,0.4-0.3,0.6-0.4s0.3-0.4,0.4-0.7C24.2,89.8,24.2,89.5,24.2,89.2z"/>
		<path class="st1" d="M26.7,92.4v-6.4h1.2v6.4H26.7z"/>
		<path class="st1" d="M34.3,87.1h-2v5.3H31v-5.3h-2V86h5.3V87.1z"/>
	</g>
	<path class="st1" d="M22,121.6c-1.4,1.4-2.8,2.8-4.2,4.2c-0.3-0.3-0.7-0.7-1-1c1.4-1.4,2.8-2.8,4.2-4.2l-1.1-1.1
		c-1.6,1.6-3.2,3.2-4.9,4.8c-0.3,0.3-0.5,0.7-0.6,1.2c-0.2,1.3-0.4,2.6-0.6,4c0.1,0,0.2,0,0.3,0c1.3-0.3,2.5-0.5,3.8-0.8
		c0.2-0.1,0.5-0.2,0.7-0.4c1.7-1.7,3.4-3.4,5.1-5.1L22,121.6z"/>
	<path class="st1" d="M28.6,110.7c0.5-0.5,1.1-1.1,1.7-1.7c0.2-0.2,0.5-0.2,0.7,0c1,1,2,2,3,3c0.2,0.2,0.2,0.5,0,0.8
		c-0.6,0.6-1.2,1.2-1.7,1.7C31.1,113.2,29.9,112,28.6,110.7z"/>
	<path class="st1" d="M30.2,120c-0.3,0.1-0.4,0-0.6-0.2c-0.4-0.4-0.8-0.8-1.2-1.2c1-1,1.9-1.9,2.9-2.9c0.1-0.1,0.2-0.2,0.2-0.2
		c-1.3-1.3-2.5-2.5-3.8-3.9c-0.1,0.1-0.1,0.2-0.2,0.3c-1,1-1.9,1.9-2.9,2.9c-1.8-1.8-3.5-3.5-5.3-5.3c-0.1-0.1-0.3-0.3-0.4-0.4
		c-1-0.7-2.2-0.6-3,0.3c-0.8,0.9-0.7,2.2,0.1,3c2.6,2.6,5.3,5.3,7.9,7.9c0.9,0.9,1.7,1.7,2.6,2.6c0.1,0.1,0.2,0.2,0.1,0.4
		c-0.1,0.4-0.2,0.8-0.2,1.2c-0.2,2.5,1.4,4.7,3.9,5.4c1,0.3,2,0.2,3.1-0.2c-0.1-0.1-0.2-0.2-0.3-0.2c-0.7-0.7-1.5-1.5-2.2-2.2
		c-0.5-0.5-0.6-1.4-0.1-1.9c0.4-0.4,0.8-0.8,1.2-1.2c0.6-0.5,1.3-0.5,1.8,0c0.1,0.1,0.2,0.2,0.3,0.3c0.7,0.7,1.5,1.5,2.2,2.2
		c0,0,0.1,0,0.1,0c0.1-0.4,0.2-0.8,0.2-1.3C37.1,121.8,33.7,119,30.2,120z M17.5,111.5c-0.4,0-0.7-0.3-0.7-0.7
		c0-0.4,0.3-0.8,0.7-0.8c0.4,0,0.8,0.4,0.8,0.7C18.2,111.2,17.9,111.5,17.5,111.5z M27.9,113.9c0.3,0.3,0.6,0.7,1,1
		c-0.7,0.7-1.4,1.4-2.1,2.1c-0.3-0.3-0.7-0.7-1-1C26.5,115.3,27.2,114.6,27.9,113.9z"/>
	<g>
		<path class="st1" d="M18.6,141.4v1.1h-4.4v-6.4h4.4v1.1h-3.1v1.5h2.7v1h-2.7v1.7H18.6z"/>
		<path class="st1" d="M19.8,142.5v-6.4h2.3c0.5,0,1,0.1,1.4,0.3s0.7,0.4,1,0.7c0.3,0.3,0.5,0.6,0.6,1c0.1,0.4,0.2,0.8,0.2,1.2
			c0,0.5-0.1,0.9-0.2,1.3c-0.1,0.4-0.4,0.7-0.6,1c-0.3,0.3-0.6,0.5-1,0.6c-0.4,0.2-0.8,0.2-1.3,0.2H19.8z M24,139.3
			c0-0.3,0-0.6-0.1-0.8s-0.2-0.5-0.4-0.7c-0.2-0.2-0.4-0.3-0.6-0.4c-0.2-0.1-0.5-0.2-0.8-0.2h-1.1v4.2h1.1c0.3,0,0.6-0.1,0.8-0.2
			c0.2-0.1,0.4-0.3,0.6-0.4s0.3-0.4,0.4-0.7C24,139.9,24,139.6,24,139.3z"/>
		<path class="st1" d="M26.5,142.5v-6.4h1.2v6.4H26.5z"/>
		<path class="st1" d="M34.1,137.2h-2v5.3h-1.2v-5.3h-2v-1.1h5.3V137.2z"/>
	</g>
	<path class="st1" d="M22,171.6c-1.4,1.4-2.8,2.8-4.2,4.2c-0.3-0.3-0.7-0.7-1-1c1.4-1.4,2.8-2.8,4.2-4.2l-1.1-1.1
		c-1.6,1.6-3.2,3.2-4.9,4.8c-0.3,0.3-0.5,0.7-0.6,1.2c-0.2,1.3-0.4,2.6-0.6,4c0.1,0,0.2,0,0.3,0c1.3-0.3,2.5-0.5,3.8-0.8
		c0.2-0.1,0.5-0.2,0.7-0.4c1.7-1.7,3.4-3.4,5.1-5.1L22,171.6z"/>
	<path class="st1" d="M28.6,160.8c0.5-0.5,1.1-1.1,1.7-1.7c0.2-0.2,0.5-0.2,0.7,0c1,1,2,2,3,3c0.2,0.2,0.2,0.5,0,0.8
		c-0.6,0.6-1.2,1.2-1.7,1.7C31.1,163.3,29.9,162,28.6,160.8z"/>
	<path class="st1" d="M30.2,170.1c-0.3,0.1-0.4,0-0.6-0.2c-0.4-0.4-0.8-0.8-1.2-1.2c1-1,1.9-1.9,2.9-2.9c0.1-0.1,0.2-0.2,0.2-0.2
		c-1.3-1.3-2.5-2.5-3.8-3.9c-0.1,0.1-0.1,0.2-0.2,0.3c-1,1-1.9,1.9-2.9,2.9c-1.8-1.8-3.5-3.5-5.3-5.3c-0.1-0.1-0.3-0.3-0.4-0.4
		c-1-0.7-2.2-0.6-3,0.3c-0.8,0.9-0.7,2.2,0.1,3c2.6,2.6,5.3,5.3,7.9,7.9c0.9,0.9,1.7,1.7,2.6,2.6c0.1,0.1,0.2,0.2,0.1,0.4
		c-0.1,0.4-0.2,0.8-0.2,1.2c-0.2,2.5,1.4,4.7,3.9,5.4c1,0.3,2,0.2,3.1-0.2c-0.1-0.1-0.2-0.2-0.3-0.2c-0.7-0.7-1.5-1.5-2.2-2.2
		c-0.5-0.5-0.6-1.4-0.1-1.9c0.4-0.4,0.8-0.8,1.2-1.2c0.6-0.5,1.3-0.5,1.8,0c0.1,0.1,0.2,0.2,0.3,0.3c0.7,0.7,1.5,1.5,2.2,2.2
		c0,0,0.1,0,0.1,0c0.1-0.4,0.2-0.8,0.2-1.3C37.1,171.9,33.7,169,30.2,170.1z M17.4,161.6c-0.4,0-0.7-0.3-0.7-0.7
		c0-0.4,0.3-0.8,0.7-0.8c0.4,0,0.8,0.4,0.8,0.7C18.2,161.2,17.8,161.6,17.4,161.6z M27.8,164c0.3,0.3,0.6,0.7,1,1
		c-0.7,0.7-1.4,1.4-2.1,2.1c-0.3-0.3-0.7-0.7-1-1C26.4,165.4,27.1,164.7,27.8,164z"/>
	<g>
		<path class="st1" d="M18.6,191.5v1.1h-4.4v-6.4h4.4v1.1h-3.1v1.5h2.7v1h-2.7v1.7H18.6z"/>
		<path class="st1" d="M19.8,192.6v-6.4h2.3c0.5,0,1,0.1,1.4,0.3s0.7,0.4,1,0.7c0.3,0.3,0.5,0.6,0.6,1c0.1,0.4,0.2,0.8,0.2,1.2
			c0,0.5-0.1,0.9-0.2,1.3c-0.1,0.4-0.4,0.7-0.6,1c-0.3,0.3-0.6,0.5-1,0.6c-0.4,0.2-0.8,0.2-1.3,0.2H19.8z M24,189.4
			c0-0.3,0-0.6-0.1-0.8s-0.2-0.5-0.4-0.7c-0.2-0.2-0.4-0.3-0.6-0.4c-0.2-0.1-0.5-0.2-0.8-0.2h-1.1v4.2h1.1c0.3,0,0.6-0.1,0.8-0.2
			c0.2-0.1,0.4-0.3,0.6-0.4s0.3-0.4,0.4-0.7C24,189.9,24,189.7,24,189.4z"/>
		<path class="st1" d="M26.5,192.6v-6.4h1.2v6.4H26.5z"/>
		<path class="st1" d="M34.1,187.3h-2v5.3h-1.2v-5.3h-2v-1.1h5.3V187.3z"/>
	</g>
</g>
</svg>
