<?xml version="1.0" encoding="utf-8"?>
<!-- Generator: Adobe Illustrator 19.2.0, SVG Export Plug-In . SVG Version: 6.00 Build 0)  -->
<svg version="1.1" id="Layer_1" xmlns="http://www.w3.org/2000/svg" xmlns:xlink="http://www.w3.org/1999/xlink" x="0px" y="0px"
	 viewBox="0 0 50 150" style="enable-background:new 0 0 50 150;" xml:space="preserve">
<style type="text/css">
	.st0{opacity:0.9;}
	.st1{fill:#FFFFFF;}
	.st2{fill:#1E1E1E;}
	.st3{fill:#EAEAEA;}
	.st4{opacity:0.47;}
	.st5{opacity:0.47;fill:#EAEAEA;}
</style>
<g>
	<g class="st0">
		<path class="st1" d="M50,46.3c0,2.2-1.8,4-4,4H4c-2.2,0-4-1.8-4-4v-42c0-2.2,1.8-4,4-4h42c2.2,0,4,1.8,4,4V46.3z"/>
	</g>
</g>
<g>
	<g class="st0">
		<path class="st2" d="M50,96.3c0,2.2-1.8,4-4,4H4c-2.2,0-4-1.8-4-4v-42c0-2.2,1.8-4,4-4h42c2.2,0,4,1.8,4,4V96.3z"/>
	</g>
</g>
<path d="M21.6,21.5c-1.4,1.4-2.8,2.8-4.2,4.2c-0.3-0.3-0.7-0.7-1-1c1.4-1.4,2.8-2.8,4.2-4.2l-1.1-1.1c-1.6,1.6-3.2,3.2-4.9,4.8
	c-0.3,0.3-0.5,0.7-0.6,1.2c-0.2,1.3-0.4,2.6-0.6,4c0.1,0,0.2,0,0.3,0c1.3-0.3,2.5-0.5,3.8-0.8c0.2-0.1,0.5-0.2,0.7-0.4
	c1.7-1.7,3.4-3.4,5.1-5.1L21.6,21.5z"/>
<path d="M28.2,10.6c0.5-0.5,1.1-1.1,1.7-1.7c0.2-0.2,0.5-0.2,0.7,0c1,1,2,2,3,3c0.2,0.2,0.2,0.5,0,0.8c-0.6,0.6-1.2,1.2-1.7,1.7
	C30.7,13.2,29.4,11.9,28.2,10.6z"/>
<path d="M29.4,19.1c-0.3,0.1-0.4,0-0.6-0.2c-0.4-0.4-0.8-0.8-1.2-1.2c1-1,1.9-1.9,2.9-2.9c0.1-0.1,0.2-0.2,0.2-0.2
	c-1.3-1.3-2.5-2.5-3.8-3.9c-0.1,0.1-0.1,0.2-0.2,0.3c-1,1-1.9,1.9-2.9,2.9c-1.8-1.8-3.5-3.5-5.3-5.3c-0.1-0.1-0.3-0.3-0.4-0.4
	c-1-0.7-2.2-0.6-3,0.3c-0.8,0.9-0.7,2.2,0.1,3c2.6,2.6,5.3,5.3,7.9,7.9c0.9,0.9,1.7,1.7,2.6,2.6c0.1,0.1,0.2,0.2,0.1,0.4
	c-0.1,0.4-0.2,0.8-0.2,1.2c-0.2,2.5,1.4,4.7,3.9,5.4c1,0.3,2,0.2,3.1-0.2c-0.1-0.1-0.2-0.2-0.3-0.2c-0.7-0.7-1.5-1.5-2.2-2.2
	c-0.5-0.5-0.6-1.4-0.1-1.9c0.4-0.4,0.8-0.8,1.2-1.2c0.6-0.5,1.3-0.5,1.8,0c0.1,0.1,0.2,0.2,0.3,0.3c0.7,0.7,1.5,1.5,2.2,2.2
	c0,0,0.1,0,0.1,0c0.1-0.4,0.2-0.8,0.2-1.3C36.3,20.9,32.9,18.1,29.4,19.1z M16.7,10.6c-0.4,0-0.7-0.3-0.7-0.7c0-0.4,0.3-0.8,0.7-0.8
	c0.4,0,0.8,0.4,0.8,0.7C17.4,10.3,17.1,10.6,16.7,10.6z M27.1,13c0.3,0.3,0.6,0.7,1,1c-0.7,0.7-1.4,1.4-2.1,2.1
	c-0.3-0.3-0.7-0.7-1-1C25.7,14.4,26.4,13.7,27.1,13z"/>
<g>
	<path d="M18.2,41.3v1.1h-4.4V36h4.4v1.1H15v1.5h2.7v1H15v1.7H18.2z"/>
	<path d="M19.4,42.4V36h2.3c0.5,0,1,0.1,1.4,0.3c0.4,0.2,0.7,0.4,1,0.7c0.3,0.3,0.5,0.6,0.6,1c0.1,0.4,0.2,0.8,0.2,1.2
		c0,0.5-0.1,0.9-0.2,1.3c-0.1,0.4-0.4,0.7-0.6,1c-0.3,0.3-0.6,0.5-1,0.6c-0.4,0.2-0.8,0.2-1.3,0.2H19.4z M23.6,39.2
		c0-0.3,0-0.6-0.1-0.8c-0.1-0.3-0.2-0.5-0.4-0.7c-0.2-0.2-0.4-0.3-0.6-0.4c-0.2-0.1-0.5-0.2-0.8-0.2h-1.1v4.2h1.1
		c0.3,0,0.6-0.1,0.8-0.2c0.2-0.1,0.4-0.3,0.6-0.4c0.2-0.2,0.3-0.4,0.4-0.7C23.6,39.8,23.6,39.5,23.6,39.2z"/>
	<path d="M26.1,42.4V36h1.2v6.4H26.1z"/>
	<path d="M33.6,37.1h-2v5.3h-1.2v-5.3h-2V36h5.3V37.1z"/>
</g>
<path class="st3" d="M21.9,71.5c-1.4,1.4-2.8,2.8-4.2,4.2c-0.3-0.3-0.7-0.7-1-1c1.4-1.4,2.8-2.8,4.2-4.2l-1.1-1.1
	c-1.6,1.6-3.2,3.2-4.9,4.8c-0.3,0.3-0.5,0.7-0.6,1.2c-0.2,1.3-0.4,2.6-0.6,4c0.1,0,0.2,0,0.3,0c1.3-0.3,2.5-0.5,3.8-0.8
	c0.2-0.1,0.5-0.2,0.7-0.4c1.7-1.7,3.4-3.4,5.1-5.1L21.9,71.5z"/>
<path class="st3" d="M28.5,60.6c0.5-0.5,1.1-1.1,1.7-1.7c0.2-0.2,0.5-0.2,0.7,0c1,1,2,2,3,3c0.2,0.2,0.2,0.5,0,0.8
	c-0.6,0.6-1.2,1.2-1.7,1.7C31,63.2,29.8,61.9,28.5,60.6z"/>
<path class="st3" d="M29.7,69.1c-0.3,0.1-0.4,0-0.6-0.2c-0.4-0.4-0.8-0.8-1.2-1.2c1-1,1.9-1.9,2.9-2.9c0.1-0.1,0.2-0.2,0.2-0.2
	c-1.3-1.3-2.5-2.5-3.8-3.9c-0.1,0.1-0.1,0.2-0.2,0.3c-1,1-1.9,1.9-2.9,2.9c-1.8-1.8-3.5-3.5-5.3-5.3c-0.1-0.1-0.3-0.3-0.4-0.4
	c-1-0.7-2.2-0.6-3,0.3c-0.8,0.9-0.7,2.2,0.1,3c2.6,2.6,5.3,5.3,7.9,7.9c0.9,0.9,1.7,1.7,2.6,2.6c0.1,0.1,0.2,0.2,0.1,0.4
	c-0.1,0.4-0.2,0.8-0.2,1.2c-0.2,2.5,1.4,4.7,3.9,5.4c1,0.3,2,0.2,3.1-0.2c-0.1-0.1-0.2-0.2-0.3-0.2c-0.7-0.7-1.5-1.5-2.2-2.2
	c-0.5-0.5-0.6-1.4-0.1-1.9c0.4-0.4,0.8-0.8,1.2-1.2c0.6-0.5,1.3-0.5,1.8,0c0.1,0.1,0.2,0.2,0.3,0.3c0.7,0.7,1.5,1.5,2.2,2.2
	c0,0,0.1,0,0.1,0c0.1-0.4,0.2-0.8,0.2-1.3C36.6,70.9,33.2,68.1,29.7,69.1z M17,60.6c-0.4,0-0.7-0.3-0.7-0.7c0-0.4,0.3-0.8,0.7-0.8
	c0.4,0,0.8,0.4,0.8,0.7C17.7,60.3,17.4,60.6,17,60.6z M27.4,63c0.3,0.3,0.6,0.7,1,1c-0.7,0.7-1.4,1.4-2.1,2.1c-0.3-0.3-0.7-0.7-1-1
	C26,64.4,26.7,63.7,27.4,63z"/>
<g>
	<path class="st3" d="M18.5,91.4v1.1H14v-6.4h4.4v1.1h-3.1v1.5H18v1h-2.7v1.7H18.5z"/>
	<path class="st3" d="M19.7,92.4v-6.4H22c0.5,0,1,0.1,1.4,0.3s0.7,0.4,1,0.7c0.3,0.3,0.5,0.6,0.6,1c0.1,0.4,0.2,0.8,0.2,1.2
		c0,0.5-0.1,0.9-0.2,1.3c-0.1,0.4-0.4,0.7-0.6,1c-0.3,0.3-0.6,0.5-1,0.6c-0.4,0.2-0.8,0.2-1.3,0.2H19.7z M23.9,89.2
		c0-0.3,0-0.6-0.1-0.8s-0.2-0.5-0.4-0.7c-0.2-0.2-0.4-0.3-0.6-0.4c-0.2-0.1-0.5-0.2-0.8-0.2H21v4.2H22c0.3,0,0.6-0.1,0.8-0.2
		c0.2-0.1,0.4-0.3,0.6-0.4s0.3-0.4,0.4-0.7C23.9,89.8,23.9,89.5,23.9,89.2z"/>
	<path class="st3" d="M26.4,92.4v-6.4h1.2v6.4H26.4z"/>
	<path class="st3" d="M34,87.1h-2v5.3h-1.2v-5.3h-2v-1.1H34V87.1z"/>
</g>
<g class="st4">
	<g class="st0">
		<path class="st2" d="M50,146.3c0,2.2-1.8,4-4,4H4c-2.2,0-4-1.8-4-4v-42c0-2.2,1.8-4,4-4h42c2.2,0,4,1.8,4,4V146.3z"/>
	</g>
</g>
<path class="st5" d="M21.9,121.5c-1.4,1.4-2.8,2.8-4.2,4.2c-0.3-0.3-0.7-0.7-1-1c1.4-1.4,2.8-2.8,4.2-4.2l-1.1-1.1
	c-1.6,1.6-3.2,3.2-4.9,4.8c-0.3,0.3-0.5,0.7-0.6,1.2c-0.2,1.3-0.4,2.6-0.6,4c0.1,0,0.2,0,0.3,0c1.3-0.3,2.5-0.5,3.8-0.8
	c0.2-0.1,0.5-0.2,0.7-0.4c1.7-1.7,3.4-3.4,5.1-5.1L21.9,121.5z"/>
<path class="st5" d="M28.5,110.6c0.5-0.5,1.1-1.1,1.7-1.7c0.2-0.2,0.5-0.2,0.7,0c1,1,2,2,3,3c0.2,0.2,0.2,0.5,0,0.8
	c-0.6,0.6-1.2,1.2-1.7,1.7C31,113.2,29.8,111.9,28.5,110.6z"/>
<path class="st5" d="M29.7,119.1c-0.3,0.1-0.4,0-0.6-0.2c-0.4-0.4-0.8-0.8-1.2-1.2c1-1,1.9-1.9,2.9-2.9c0.1-0.1,0.2-0.2,0.2-0.2
	c-1.3-1.3-2.5-2.5-3.8-3.9c-0.1,0.1-0.1,0.2-0.2,0.3c-1,1-1.9,1.9-2.9,2.9c-1.8-1.8-3.5-3.5-5.3-5.3c-0.1-0.1-0.3-0.3-0.4-0.4
	c-1-0.7-2.2-0.6-3,0.3c-0.8,0.9-0.7,2.2,0.1,3c2.6,2.6,5.3,5.3,7.9,7.9c0.9,0.9,1.7,1.7,2.6,2.6c0.1,0.1,0.2,0.2,0.1,0.4
	c-0.1,0.4-0.2,0.8-0.2,1.2c-0.2,2.5,1.4,4.7,3.9,5.4c1,0.3,2,0.2,3.1-0.2c-0.1-0.1-0.2-0.2-0.3-0.2c-0.7-0.7-1.5-1.5-2.2-2.2
	c-0.5-0.5-0.6-1.4-0.1-1.9c0.4-0.4,0.8-0.8,1.2-1.2c0.6-0.5,1.3-0.5,1.8,0c0.1,0.1,0.2,0.2,0.3,0.3c0.7,0.7,1.5,1.5,2.2,2.2
	c0,0,0.1,0,0.1,0c0.1-0.4,0.2-0.8,0.2-1.3C36.6,120.9,33.2,118.1,29.7,119.1z M17,110.6c-0.4,0-0.7-0.3-0.7-0.7
	c0-0.4,0.3-0.8,0.7-0.8c0.4,0,0.8,0.4,0.8,0.7C17.7,110.3,17.4,110.6,17,110.6z M27.4,113c0.3,0.3,0.6,0.7,1,1
	c-0.7,0.7-1.4,1.4-2.1,2.1c-0.3-0.3-0.7-0.7-1-1C26,114.4,26.7,113.7,27.4,113z"/>
<g class="st4">
	<path class="st3" d="M18.5,141.4v1.1H14v-6.4h4.4v1.1h-3.1v1.5H18v1h-2.7v1.7H18.5z"/>
	<path class="st3" d="M19.7,142.4v-6.4H22c0.5,0,1,0.1,1.4,0.3s0.7,0.4,1,0.7c0.3,0.3,0.5,0.6,0.6,1c0.1,0.4,0.2,0.8,0.2,1.2
		c0,0.5-0.1,0.9-0.2,1.3c-0.1,0.4-0.4,0.7-0.6,1c-0.3,0.3-0.6,0.5-1,0.6c-0.4,0.2-0.8,0.2-1.3,0.2H19.7z M23.9,139.2
		c0-0.3,0-0.6-0.1-0.8s-0.2-0.5-0.4-0.7c-0.2-0.2-0.4-0.3-0.6-0.4c-0.2-0.1-0.5-0.2-0.8-0.2H21v4.2H22c0.3,0,0.6-0.1,0.8-0.2
		c0.2-0.1,0.4-0.3,0.6-0.4s0.3-0.4,0.4-0.7C23.9,139.8,23.9,139.5,23.9,139.2z"/>
	<path class="st3" d="M26.4,142.4v-6.4h1.2v6.4H26.4z"/>
	<path class="st3" d="M34,137.1h-2v5.3h-1.2v-5.3h-2v-1.1H34V137.1z"/>
</g>
</svg>
