<?xml version="1.0" encoding="utf-8"?>
<!-- Generator: Adobe Illustrator 19.2.0, SVG Export Plug-In . SVG Version: 6.00 Build 0)  -->
<svg version="1.1" id="Layer_1" xmlns="http://www.w3.org/2000/svg" xmlns:xlink="http://www.w3.org/1999/xlink" x="0px" y="0px"
	 viewBox="0 0 50 150" style="enable-background:new 0 0 50 150;" xml:space="preserve">
<style type="text/css">
	.st0{opacity:0.49;}
	.st1{opacity:0.9;}
	.st2{fill:#1E1E1E;}
	.st3{fill:#FFFFFF;}
	.st4{fill:#EAEAEA;}
	.st5{opacity:0.49;fill:#EAEAEA;}
</style>
<g class="st0">
	<g class="st1">
		<path class="st2" d="M50,146.4c0,2.2-1.8,4-4,4H4c-2.2,0-4-1.8-4-4v-42c0-2.2,1.8-4,4-4h42c2.2,0,4,1.8,4,4V146.4z"/>
	</g>
</g>
<g class="st1">
	<path class="st3" d="M50,46.6c0,2.2-1.8,4-4,4H4c-2.2,0-4-1.8-4-4v-42c0-2.2,1.8-4,4-4h42c2.2,0,4,1.8,4,4V46.6z"/>
</g>
<path d="M27.3,21.1v3.5c0,0.6-0.5,1.1-1.1,1.1H13c-0.6,0-1.1-0.5-1.1-1.1v-6.5c0-0.6,0.5-1.1,1.1-1.1h3.8c-0.1-0.4-0.3-0.9-0.3-1.3
	H13c-1.4,0-2.4,1.1-2.4,2.4v6.5c0,1.4,1.1,2.4,2.4,2.4h5.9v1.2h-3.4c-0.3,0-0.6,0.3-0.6,0.7c0,0.3,0.3,0.7,0.6,0.7h8.5
	c0.3,0,0.6-0.3,0.6-0.7c0-0.3-0.3-0.7-0.6-0.7h-3.7V27c-0.1,0-0.2,0-0.4,0h6.3c1.4,0,2.4-1.1,2.4-2.4v-4.4
	C28.2,20.5,27.8,20.8,27.3,21.1z"/>
<path d="M35.7,19.8h-3.7c-0.9,0-1.6-0.9-2.1-1.7c-0.2-0.3-0.6-0.8-0.8-1c-0.2,0.1-0.6,0.6-0.8,0.9c-0.6,0.8-1.2,1.8-2.2,1.8h-3.5
	c-2.8,0-5-2.2-5-5v-2.3c0-2.8,2.3-5,5-5h13.1c2.8,0,5,2.2,5,5v2.3C40.8,17.6,38.5,19.8,35.7,19.8z M29.2,15.8c0.8,0,1.4,0.8,1.9,1.6
	c0.2,0.4,0.8,1.1,1,1.1h3.7c2,0,3.7-1.6,3.7-3.7v-2.3c0-2-1.7-3.7-3.7-3.7H22.7c-2,0-3.7,1.6-3.7,3.7v2.3c0,2,1.7,3.7,3.7,3.7h3.5
	c0.3,0,0.8-0.7,1.1-1.2C27.8,16.5,28.4,15.8,29.2,15.8C29.2,15.8,29.2,15.8,29.2,15.8z"/>
<path d="M36.9,21.6c-0.2-0.1-0.4,0-0.6,0.1l-1.8,1.8l0.7,0.7l0.9-0.9c0,0,0.3,1.3-0.7,2.4c-1,1-2.3,0.6-2.3,0.6l0.8-0.8l-0.8-0.8
	l-1.7,1.7l0,0c0,0-0.1,0.1-0.1,0.2c-0.1,0.2,0,0.4,0.1,0.6l1.8,1.8l0.8-0.8l-0.9-0.9c0,0,1.7,0.3,3.1-1.1c1.3-1.3,1-3.1,1-3.1
	l0.8,0.8l0.8-0.8l-1.6-1.6C37.2,21.8,37,21.7,36.9,21.6z"/>
<g>
	<path d="M10.3,37.9c0,0-0.1-0.1-0.2-0.2c-0.1-0.1-0.2-0.1-0.4-0.2c-0.2-0.1-0.3-0.1-0.5-0.2c-0.2,0-0.4-0.1-0.6-0.1
		c-0.3,0-0.6,0.1-0.8,0.2c-0.2,0.1-0.3,0.3-0.3,0.5c0,0.1,0,0.2,0.1,0.3c0.1,0.1,0.2,0.2,0.3,0.2s0.3,0.1,0.5,0.2
		c0.2,0.1,0.4,0.1,0.6,0.2c0.3,0.1,0.6,0.2,0.9,0.3c0.3,0.1,0.5,0.2,0.6,0.4c0.2,0.1,0.3,0.3,0.4,0.5c0.1,0.2,0.1,0.4,0.1,0.7
		c0,0.3-0.1,0.6-0.2,0.9c-0.1,0.2-0.3,0.4-0.5,0.6s-0.5,0.3-0.8,0.3c-0.3,0.1-0.6,0.1-0.9,0.1c-0.5,0-1-0.1-1.4-0.2S6.4,42.2,6,41.9
		l0.5-1.1c0.1,0.1,0.2,0.1,0.3,0.2c0.1,0.1,0.3,0.2,0.5,0.3s0.4,0.2,0.6,0.2c0.2,0.1,0.5,0.1,0.7,0.1c0.7,0,1-0.2,1-0.7
		c0-0.1,0-0.3-0.1-0.4c-0.1-0.1-0.2-0.2-0.3-0.3c-0.1-0.1-0.3-0.1-0.5-0.2c-0.2-0.1-0.4-0.1-0.7-0.2c-0.3-0.1-0.6-0.2-0.8-0.3
		s-0.4-0.2-0.6-0.3c-0.2-0.1-0.3-0.3-0.3-0.5c-0.1-0.2-0.1-0.4-0.1-0.6c0-0.3,0.1-0.6,0.2-0.9c0.1-0.3,0.3-0.5,0.5-0.6
		s0.5-0.3,0.7-0.4c0.3-0.1,0.6-0.1,0.9-0.1c0.5,0,0.9,0.1,1.2,0.2c0.4,0.1,0.7,0.3,1,0.5L10.3,37.9z"/>
	<path d="M14.3,36.3h1.1l0.7,2.1l0.7-2.1H18L17,39.2l0.8,2l1.8-5h1.4l-2.6,6.4h-1L16.2,40l-1.1,2.7h-1l-2.6-6.4h1.3l1.8,5l0.8-2
		L14.3,36.3z"/>
	<path d="M21.8,42.6v-6.4h1.2v6.4H21.8z"/>
	<path d="M29.4,37.3h-2v5.3h-1.2v-5.3h-2v-1.1h5.3V37.3z"/>
	<path d="M30,39.4c0-0.4,0.1-0.8,0.2-1.2c0.1-0.4,0.3-0.7,0.6-1c0.3-0.3,0.6-0.5,1-0.7s0.8-0.3,1.3-0.3c0.6,0,1.1,0.1,1.5,0.4
		c0.4,0.3,0.7,0.6,0.9,1l-1,0.7c-0.1-0.2-0.2-0.3-0.3-0.5c-0.1-0.1-0.2-0.2-0.4-0.3c-0.1-0.1-0.3-0.1-0.4-0.2c-0.1,0-0.3,0-0.4,0
		c-0.3,0-0.6,0.1-0.8,0.2s-0.4,0.3-0.6,0.5c-0.1,0.2-0.3,0.4-0.3,0.7s-0.1,0.5-0.1,0.8c0,0.3,0,0.6,0.1,0.8c0.1,0.3,0.2,0.5,0.4,0.7
		c0.2,0.2,0.3,0.4,0.6,0.5c0.2,0.1,0.5,0.2,0.7,0.2c0.1,0,0.3,0,0.4-0.1c0.1,0,0.3-0.1,0.4-0.2c0.1-0.1,0.3-0.2,0.4-0.3
		c0.1-0.1,0.2-0.3,0.3-0.4l1,0.6c-0.1,0.2-0.2,0.5-0.4,0.6c-0.2,0.2-0.4,0.3-0.6,0.5c-0.2,0.1-0.5,0.2-0.7,0.3
		c-0.3,0.1-0.5,0.1-0.8,0.1c-0.4,0-0.9-0.1-1.2-0.3c-0.4-0.2-0.7-0.4-1-0.8c-0.3-0.3-0.5-0.7-0.6-1.1C30.1,40.2,30,39.8,30,39.4z"/>
	<path d="M42,36.3v6.4h-1.2v-2.7h-2.9v2.7h-1.2v-6.4h1.2v2.6h2.9v-2.6H42z"/>
</g>
<g class="st1">
	<path class="st2" d="M50,96.6c0,2.2-1.8,4-4,4H4c-2.2,0-4-1.8-4-4v-42c0-2.2,1.8-4,4-4h42c2.2,0,4,1.8,4,4V96.6z"/>
</g>
<path class="st4" d="M27.3,71.1v3.5c0,0.6-0.5,1.1-1.1,1.1H13c-0.6,0-1.1-0.5-1.1-1.1v-6.5c0-0.6,0.5-1.1,1.1-1.1h3.8
	c-0.1-0.4-0.3-0.9-0.3-1.3H13c-1.4,0-2.4,1.1-2.4,2.4v6.5c0,1.4,1.1,2.4,2.4,2.4h5.9v1.2h-3.4c-0.3,0-0.6,0.3-0.6,0.7
	c0,0.3,0.3,0.7,0.6,0.7h8.5c0.3,0,0.6-0.3,0.6-0.7c0-0.3-0.3-0.7-0.6-0.7h-3.7V77c-0.1,0-0.2,0-0.4,0h6.3c1.4,0,2.4-1.1,2.4-2.4
	v-4.4C28.2,70.5,27.8,70.8,27.3,71.1z"/>
<path class="st4" d="M35.7,69.8h-3.7c-0.9,0-1.6-0.9-2.1-1.7c-0.2-0.3-0.6-0.8-0.8-1c-0.2,0.1-0.6,0.6-0.8,0.9
	c-0.6,0.8-1.2,1.8-2.2,1.8h-3.5c-2.8,0-5-2.2-5-5v-2.3c0-2.8,2.3-5,5-5h13.1c2.8,0,5,2.2,5,5v2.3C40.8,67.6,38.5,69.8,35.7,69.8z
	 M29.2,65.8c0.8,0,1.4,0.8,1.9,1.6c0.2,0.4,0.8,1.1,1,1.1h3.7c2,0,3.7-1.6,3.7-3.7v-2.3c0-2-1.7-3.7-3.7-3.7H22.7
	c-2,0-3.7,1.6-3.7,3.7v2.3c0,2,1.7,3.7,3.7,3.7h3.5c0.3,0,0.8-0.7,1.1-1.2C27.8,66.5,28.4,65.8,29.2,65.8
	C29.2,65.8,29.2,65.8,29.2,65.8z"/>
<path class="st4" d="M36.9,71.6c-0.2-0.1-0.4,0-0.6,0.1l-1.8,1.8l0.7,0.7l0.9-0.9c0,0,0.3,1.3-0.7,2.4c-1,1-2.3,0.6-2.3,0.6l0.8-0.8
	l-0.8-0.8l-1.7,1.7l0,0c0,0-0.1,0.1-0.1,0.2c-0.1,0.2,0,0.4,0.1,0.6l1.8,1.8l0.8-0.8l-0.9-0.9c0,0,1.7,0.3,3.1-1.1
	c1.3-1.3,1-3.1,1-3.1l0.8,0.8l0.8-0.8l-1.6-1.6C37.2,71.8,37,71.7,36.9,71.6z"/>
<g>
	<path class="st4" d="M10.3,87.9c0,0-0.1-0.1-0.2-0.2c-0.1-0.1-0.2-0.1-0.4-0.2s-0.3-0.1-0.5-0.2c-0.2,0-0.4-0.1-0.6-0.1
		c-0.3,0-0.6,0.1-0.8,0.2S7.6,87.8,7.6,88c0,0.1,0,0.2,0.1,0.3c0.1,0.1,0.2,0.2,0.3,0.2c0.1,0.1,0.3,0.1,0.5,0.2
		c0.2,0.1,0.4,0.1,0.6,0.2c0.3,0.1,0.6,0.2,0.9,0.3s0.5,0.2,0.6,0.4c0.2,0.1,0.3,0.3,0.4,0.5c0.1,0.2,0.1,0.4,0.1,0.7
		c0,0.3-0.1,0.6-0.2,0.9c-0.1,0.2-0.3,0.4-0.5,0.6c-0.2,0.2-0.5,0.3-0.8,0.3c-0.3,0.1-0.6,0.1-0.9,0.1c-0.5,0-1-0.1-1.4-0.2
		c-0.5-0.1-0.9-0.3-1.3-0.6l0.5-1.1c0.1,0.1,0.2,0.1,0.3,0.2c0.1,0.1,0.3,0.2,0.5,0.3s0.4,0.2,0.6,0.2c0.2,0.1,0.5,0.1,0.7,0.1
		c0.7,0,1-0.2,1-0.7c0-0.1,0-0.3-0.1-0.4c-0.1-0.1-0.2-0.2-0.3-0.3c-0.1-0.1-0.3-0.1-0.5-0.2c-0.2-0.1-0.4-0.1-0.7-0.2
		c-0.3-0.1-0.6-0.2-0.8-0.3c-0.2-0.1-0.4-0.2-0.6-0.3S6.5,89,6.4,88.8c-0.1-0.2-0.1-0.4-0.1-0.6c0-0.3,0.1-0.6,0.2-0.9
		c0.1-0.3,0.3-0.5,0.5-0.6s0.5-0.3,0.7-0.4s0.6-0.1,0.9-0.1c0.5,0,0.9,0.1,1.2,0.2s0.7,0.3,1,0.5L10.3,87.9z"/>
	<path class="st4" d="M14.3,86.3h1.1l0.7,2.1l0.7-2.1H18L17,89.2l0.8,2l1.8-5h1.4l-2.6,6.4h-1L16.2,90l-1.1,2.7h-1l-2.6-6.4h1.3
		l1.8,5l0.8-2L14.3,86.3z"/>
	<path class="st4" d="M21.8,92.6v-6.4h1.2v6.4H21.8z"/>
	<path class="st4" d="M29.4,87.3h-2v5.3h-1.2v-5.3h-2v-1.1h5.3V87.3z"/>
	<path class="st4" d="M30,89.4c0-0.4,0.1-0.8,0.2-1.2c0.1-0.4,0.3-0.7,0.6-1c0.3-0.3,0.6-0.5,1-0.7c0.4-0.2,0.8-0.3,1.3-0.3
		c0.6,0,1.1,0.1,1.5,0.4s0.7,0.6,0.9,1l-1,0.7c-0.1-0.2-0.2-0.3-0.3-0.5c-0.1-0.1-0.2-0.2-0.4-0.3s-0.3-0.1-0.4-0.2
		c-0.1,0-0.3,0-0.4,0c-0.3,0-0.6,0.1-0.8,0.2s-0.4,0.3-0.6,0.5c-0.1,0.2-0.3,0.4-0.3,0.7s-0.1,0.5-0.1,0.8c0,0.3,0,0.6,0.1,0.8
		c0.1,0.3,0.2,0.5,0.4,0.7c0.2,0.2,0.3,0.4,0.6,0.5c0.2,0.1,0.5,0.2,0.7,0.2c0.1,0,0.3,0,0.4-0.1c0.1,0,0.3-0.1,0.4-0.2
		c0.1-0.1,0.3-0.2,0.4-0.3c0.1-0.1,0.2-0.3,0.3-0.4l1,0.6c-0.1,0.2-0.2,0.5-0.4,0.6c-0.2,0.2-0.4,0.3-0.6,0.5
		c-0.2,0.1-0.5,0.2-0.7,0.3c-0.3,0.1-0.5,0.1-0.8,0.1c-0.4,0-0.9-0.1-1.2-0.3c-0.4-0.2-0.7-0.4-1-0.8c-0.3-0.3-0.5-0.7-0.6-1.1
		C30.1,90.2,30,89.8,30,89.4z"/>
	<path class="st4" d="M42,86.2v6.4h-1.2v-2.7h-2.9v2.7h-1.2v-6.4h1.2v2.6h2.9v-2.6H42z"/>
</g>
<path class="st5" d="M27.3,121.1v3.5c0,0.6-0.5,1.1-1.1,1.1H13c-0.6,0-1.1-0.5-1.1-1.1v-6.5c0-0.6,0.5-1.1,1.1-1.1h3.8
	c-0.1-0.4-0.3-0.9-0.3-1.3H13c-1.4,0-2.4,1.1-2.4,2.4v6.5c0,1.4,1.1,2.4,2.4,2.4h5.9v1.2h-3.4c-0.3,0-0.6,0.3-0.6,0.7
	c0,0.3,0.3,0.7,0.6,0.7h8.5c0.3,0,0.6-0.3,0.6-0.7c0-0.3-0.3-0.7-0.6-0.7h-3.7V127c-0.1,0-0.2,0-0.4,0h6.3c1.4,0,2.4-1.1,2.4-2.4
	v-4.4C28.2,120.5,27.8,120.8,27.3,121.1z"/>
<path class="st5" d="M35.7,119.8h-3.7c-0.9,0-1.6-0.9-2.1-1.7c-0.2-0.3-0.6-0.8-0.8-1c-0.2,0.1-0.6,0.6-0.8,0.9
	c-0.6,0.8-1.2,1.8-2.2,1.8h-3.5c-2.8,0-5-2.2-5-5v-2.3c0-2.8,2.3-5,5-5h13.1c2.8,0,5,2.2,5,5v2.3C40.8,117.6,38.5,119.8,35.7,119.8z
	 M29.2,115.8c0.8,0,1.4,0.8,1.9,1.6c0.2,0.4,0.8,1.1,1,1.1h3.7c2,0,3.7-1.6,3.7-3.7v-2.3c0-2-1.7-3.7-3.7-3.7H22.7
	c-2,0-3.7,1.6-3.7,3.7v2.3c0,2,1.7,3.7,3.7,3.7h3.5c0.3,0,0.8-0.7,1.1-1.2C27.8,116.5,28.4,115.8,29.2,115.8
	C29.2,115.8,29.2,115.8,29.2,115.8z"/>
<path class="st5" d="M36.9,121.6c-0.2-0.1-0.4,0-0.6,0.1l-1.8,1.8l0.7,0.7l0.9-0.9c0,0,0.3,1.3-0.7,2.4c-1,1-2.3,0.6-2.3,0.6
	l0.8-0.8l-0.8-0.8l-1.7,1.7l0,0c0,0-0.1,0.1-0.1,0.2c-0.1,0.2,0,0.4,0.1,0.6l1.8,1.8l0.8-0.8l-0.9-0.9c0,0,1.7,0.3,3.1-1.1
	c1.3-1.3,1-3.1,1-3.1l0.8,0.8l0.8-0.8l-1.6-1.6C37.2,121.8,37,121.7,36.9,121.6z"/>
<g class="st0">
	<path class="st4" d="M10.3,137.9c0,0-0.1-0.1-0.2-0.2c-0.1-0.1-0.2-0.1-0.4-0.2s-0.3-0.1-0.5-0.2c-0.2,0-0.4-0.1-0.6-0.1
		c-0.3,0-0.6,0.1-0.8,0.2s-0.3,0.3-0.3,0.5c0,0.1,0,0.2,0.1,0.3c0.1,0.1,0.2,0.2,0.3,0.2c0.1,0.1,0.3,0.1,0.5,0.2
		c0.2,0.1,0.4,0.1,0.6,0.2c0.3,0.1,0.6,0.2,0.9,0.3s0.5,0.2,0.6,0.4c0.2,0.1,0.3,0.3,0.4,0.5c0.1,0.2,0.1,0.4,0.1,0.7
		c0,0.3-0.1,0.6-0.2,0.9c-0.1,0.2-0.3,0.4-0.5,0.6c-0.2,0.2-0.5,0.3-0.8,0.3c-0.3,0.1-0.6,0.1-0.9,0.1c-0.5,0-1-0.1-1.4-0.2
		c-0.5-0.1-0.9-0.3-1.3-0.6l0.5-1.1c0.1,0.1,0.2,0.1,0.3,0.2c0.1,0.1,0.3,0.2,0.5,0.3s0.4,0.2,0.6,0.2c0.2,0.1,0.5,0.1,0.7,0.1
		c0.7,0,1-0.2,1-0.7c0-0.1,0-0.3-0.1-0.4c-0.1-0.1-0.2-0.2-0.3-0.3c-0.1-0.1-0.3-0.1-0.5-0.2c-0.2-0.1-0.4-0.1-0.7-0.2
		c-0.3-0.1-0.6-0.2-0.8-0.3c-0.2-0.1-0.4-0.2-0.6-0.3s-0.3-0.3-0.3-0.5c-0.1-0.2-0.1-0.4-0.1-0.6c0-0.3,0.1-0.6,0.2-0.9
		c0.1-0.3,0.3-0.5,0.5-0.6s0.5-0.3,0.7-0.4s0.6-0.1,0.9-0.1c0.5,0,0.9,0.1,1.2,0.2s0.7,0.3,1,0.5L10.3,137.9z"/>
	<path class="st4" d="M14.3,136.3h1.1l0.7,2.1l0.7-2.1H18l-1.1,2.9l0.8,2l1.8-5h1.4l-2.6,6.4h-1l-1.1-2.7l-1.1,2.7h-1l-2.6-6.4h1.3
		l1.8,5l0.8-2L14.3,136.3z"/>
	<path class="st4" d="M21.8,142.6v-6.4h1.2v6.4H21.8z"/>
	<path class="st4" d="M29.4,137.3h-2v5.3h-1.2v-5.3h-2v-1.1h5.3V137.3z"/>
	<path class="st4" d="M30,139.4c0-0.4,0.1-0.8,0.2-1.2c0.1-0.4,0.3-0.7,0.6-1c0.3-0.3,0.6-0.5,1-0.7c0.4-0.2,0.8-0.3,1.3-0.3
		c0.6,0,1.1,0.1,1.5,0.4s0.7,0.6,0.9,1l-1,0.7c-0.1-0.2-0.2-0.3-0.3-0.5c-0.1-0.1-0.2-0.2-0.4-0.3s-0.3-0.1-0.4-0.2
		c-0.1,0-0.3,0-0.4,0c-0.3,0-0.6,0.1-0.8,0.2s-0.4,0.3-0.6,0.5c-0.1,0.2-0.3,0.4-0.3,0.7s-0.1,0.5-0.1,0.8c0,0.3,0,0.6,0.1,0.8
		c0.1,0.3,0.2,0.5,0.4,0.7c0.2,0.2,0.3,0.4,0.6,0.5c0.2,0.1,0.5,0.2,0.7,0.2c0.1,0,0.3,0,0.4-0.1c0.1,0,0.3-0.1,0.4-0.2
		c0.1-0.1,0.3-0.2,0.4-0.3c0.1-0.1,0.2-0.3,0.3-0.4l1,0.6c-0.1,0.2-0.2,0.5-0.4,0.6c-0.2,0.2-0.4,0.3-0.6,0.5
		c-0.2,0.1-0.5,0.2-0.7,0.3c-0.3,0.1-0.5,0.1-0.8,0.1c-0.4,0-0.9-0.1-1.2-0.3c-0.4-0.2-0.7-0.4-1-0.8c-0.3-0.3-0.5-0.7-0.6-1.1
		C30.1,140.2,30,139.8,30,139.4z"/>
	<path class="st4" d="M42,136.2v6.4h-1.2v-2.7h-2.9v2.7h-1.2v-6.4h1.2v2.6h2.9v-2.6H42z"/>
</g>
</svg>
