<?xml version="1.0" encoding="utf-8"?>
<!-- Generator: Adobe Illustrator 19.2.0, SVG Export Plug-In . SVG Version: 6.00 Build 0)  -->
<svg version="1.1" id="Layer_1" xmlns="http://www.w3.org/2000/svg" xmlns:xlink="http://www.w3.org/1999/xlink" x="0px" y="0px"
	 viewBox="0 0 50 200.1" style="enable-background:new 0 0 50 200.1;" xml:space="preserve">
<style type="text/css">
	.st0{fill:#414042;}
	.st1{fill:#FFFFFF;}
	.st2{fill:#1E1E1E;}
	.st3{fill:#333333;}
</style>
<g id="Layer_2">
	<g>
		<g>
			<path class="st0" d="M50.1,146.1c0,2.2-1.8,4-4,4h-42c-2.2,0-4-1.8-4-4v-42c0-2.2,1.8-4,4-4h42c2.2,0,4,1.8,4,4V146.1z"/>
		</g>
	</g>
	<g>
		<g>
			<path class="st0" d="M50,196.1c0,2.2-1.8,4-4,4H4c-2.2,0-4-1.8-4-4v-42c0-2.2,1.8-4,4-4h42c2.2,0,4,1.8,4,4V196.1z"/>
		</g>
	</g>
	<g>
		<g>
			<path class="st1" d="M50,46c0,2.2-1.8,4-4,4H4c-2.2,0-4-1.8-4-4V4c0-2.2,1.8-4,4-4h42c2.2,0,4,1.8,4,4V46z"/>
		</g>
	</g>
	<g>
		<path class="st2" d="M50,96.1c0,2.2-1.8,4-4,4H4c-2.2,0-4-1.8-4-4v-42c0-2.2,1.8-4,4-4h42c2.2,0,4,1.8,4,4V96.1z"/>
	</g>
</g>
<path class="st1" d="M24.7,81.2c-6.2,0-11.2-5-11.2-11.2c0-6.2,5-11.2,11.2-11.2c6.2,0,11.2,5,11.2,11.2
	C35.9,76.2,30.9,81.2,24.7,81.2z M24.7,60.3c-5.4,0-9.8,4.4-9.8,9.8c0,5.4,4.4,9.8,9.8,9.8c5.4,0,9.8-4.4,9.8-9.8
	C34.5,64.6,30.1,60.3,24.7,60.3z"/>
<path class="st1" d="M27.1,79.5c-0.8,0.2-1.6,0.3-2.4,0.3c-5.4,0-9.8-4.4-9.8-9.8c0-5.4,4.4-9.8,9.8-9.8c5.4,0,9.8,4.4,9.8,9.8
	c0,0.1,0,0.2,0,0.3c0.4-0.4,0.8-0.6,1.4-0.9c-0.3-5.9-5.2-10.6-11.2-10.6c-6.2,0-11.2,5-11.2,11.2c0,6.2,5,11.2,11.2,11.2
	c1,0,2-0.2,3-0.4C27.5,80.4,27.3,80,27.1,79.5z"/>
<path class="st1" d="M31.2,66.5L31.2,66.5c-0.3-0.3-0.5-0.3-0.8-0.2c0,0-4,0.5-5.7,0.5c0,0-0.1,0-0.1,0c-1.7,0-5.8-0.6-5.8-0.6
	c-0.3-0.1-0.6,0-0.8,0.3l-0.1,0.2c-0.1,0.2-0.1,0.4-0.1,0.7c0.1,0.2,0.2,0.4,0.4,0.5c0.7,0.3,3.3,1.2,4,1.4c0.1,0,0.4,0.1,0.4,0.6
	c0,0.6-0.2,3.1-0.5,4.3c-0.3,1.2-0.8,2.7-0.8,2.7c-0.1,0.4,0.1,0.9,0.5,1l0.5,0.2c0.2,0.1,0.4,0.1,0.6,0c0.2-0.1,0.3-0.3,0.4-0.5
	l1.4-4.3l1.3,4.4c0.1,0.2,0.2,0.4,0.4,0.5c0.1,0.1,0.2,0.1,0.3,0.1c0.1,0,0.2,0,0.3-0.1l0.5-0.2c0.4-0.1,0.6-0.5,0.5-0.9
	c0,0-0.4-1.6-0.7-2.9c-0.2-0.8-0.3-2-0.3-2.9c0-0.6-0.1-1.1-0.1-1.5c0-0.2,0.1-0.4,0.4-0.5c0.1,0,3.7-1.3,3.7-1.3
	c0.3-0.1,0.4-0.3,0.5-0.6C31.4,66.9,31.4,66.7,31.2,66.5z"/>
<circle class="st1" cx="24.7" cy="64" r="1.7"/>
<path class="st3" d="M27.1,29.7c-0.8,0.2-1.6,0.3-2.4,0.3c-5.4,0-9.8-4.4-9.8-9.8c0-5.4,4.4-9.8,9.8-9.8c5.4,0,9.8,4.4,9.8,9.8
	c0,0.1,0,0.2,0,0.3c0.4-0.4,0.8-0.6,1.4-0.9C35.6,13.7,30.7,9,24.7,9c-6.2,0-11.2,5-11.2,11.2c0,6.2,5,11.2,11.2,11.2
	c1,0,2-0.2,3-0.4C27.5,30.5,27.3,30.1,27.1,29.7z"/>
<path class="st3" d="M31.2,16.6L31.2,16.6c-0.3-0.3-0.5-0.3-0.8-0.2c0,0-4,0.5-5.7,0.5c0,0-0.1,0-0.1,0c-1.7,0-5.8-0.6-5.8-0.6
	c-0.3-0.1-0.6,0-0.8,0.3l-0.1,0.2c-0.1,0.2-0.1,0.4-0.1,0.7c0.1,0.2,0.2,0.4,0.4,0.5c0.7,0.3,3.3,1.2,4,1.4c0.1,0,0.4,0.1,0.4,0.6
	c0,0.6-0.2,3.1-0.5,4.3c-0.3,1.2-0.8,2.7-0.8,2.7c-0.1,0.4,0.1,0.9,0.5,1l0.5,0.2c0.2,0.1,0.4,0.1,0.6,0c0.2-0.1,0.3-0.3,0.4-0.5
	l1.4-4.3l1.3,4.4c0.1,0.2,0.2,0.4,0.4,0.5c0.1,0.1,0.2,0.1,0.3,0.1c0.1,0,0.2,0,0.3-0.1l0.5-0.2c0.4-0.1,0.6-0.5,0.5-0.9
	c0,0-0.4-1.6-0.7-2.9c-0.2-0.8-0.3-2-0.3-2.9c0-0.6-0.1-1.1-0.1-1.5c0-0.2,0.1-0.4,0.4-0.5c0.1,0,3.7-1.3,3.7-1.3
	c0.3-0.1,0.4-0.3,0.5-0.6C31.4,17.1,31.4,16.8,31.2,16.6z"/>
<circle class="st3" cx="24.7" cy="14.1" r="1.7"/>
<g>
	<polygon class="st3" points="36.4,30.1 36.4,30.1 36.4,30.1 	"/>
	<path class="st3" d="M35.2,25.8l2.7-2.7c0.4-0.4,0.4-1.1,0-1.5c-0.4-0.4-1.1-0.4-1.5,0l-2.7,2.7l-2.7-2.7c-0.4-0.4-1.1-0.4-1.5,0
		c-0.4,0.4-0.4,1.1,0,1.5l2.7,2.7l-2.7,2.7c-0.4,0.4-0.4,1.1,0,1.5c0.4,0.4,1.1,0.4,1.5,0l2.7-2.7l2.7,2.7c0.4,0.4,1.1,0.4,1.5,0
		c0.4-0.4,0.4-1.1,0-1.5L35.2,25.8z"/>
</g>
<path class="st1" d="M27.3,129.6c-0.8,0.2-1.6,0.3-2.4,0.3c-5.4,0-9.8-4.4-9.8-9.8c0-5.4,4.4-9.8,9.8-9.8c5.4,0,9.8,4.4,9.8,9.8
	c0,0.1,0,0.2,0,0.3c0.4-0.4,0.8-0.6,1.4-0.9c-0.3-5.9-5.2-10.6-11.2-10.6c-6.2,0-11.2,5-11.2,11.2c0,6.2,5,11.2,11.2,11.2
	c1,0,2-0.2,3-0.4C27.6,130.5,27.4,130.1,27.3,129.6z"/>
<path class="st1" d="M31.3,116.6L31.3,116.6c-0.3-0.3-0.5-0.3-0.8-0.2c0,0-4,0.5-5.7,0.5c0,0-0.1,0-0.1,0c-1.7,0-5.8-0.6-5.8-0.6
	c-0.3-0.1-0.6,0-0.8,0.3l-0.1,0.2c-0.1,0.2-0.1,0.4-0.1,0.7c0.1,0.2,0.2,0.4,0.4,0.5c0.7,0.3,3.3,1.2,4,1.4c0.1,0,0.4,0.1,0.4,0.6
	c0,0.6-0.2,3.1-0.5,4.3c-0.3,1.2-0.8,2.7-0.8,2.7c-0.1,0.4,0.1,0.9,0.5,1l0.5,0.2c0.2,0.1,0.4,0.1,0.6,0c0.2-0.1,0.3-0.3,0.4-0.5
	l1.4-4.3l1.3,4.4c0.1,0.2,0.2,0.4,0.4,0.5c0.1,0.1,0.2,0.1,0.3,0.1c0.1,0,0.2,0,0.3-0.1l0.5-0.2c0.4-0.1,0.6-0.5,0.5-0.9
	c0,0-0.4-1.6-0.7-2.9c-0.2-0.8-0.3-2-0.3-2.9c0-0.6-0.1-1.1-0.1-1.5c0-0.2,0.1-0.4,0.4-0.5c0.1,0,3.7-1.3,3.7-1.3
	c0.3-0.1,0.4-0.3,0.5-0.6C31.6,117,31.5,116.8,31.3,116.6z"/>
<circle class="st1" cx="24.9" cy="114.1" r="1.7"/>
<g>
	<polygon class="st1" points="36.5,130.1 36.5,130.1 36.5,130.1 	"/>
	<path class="st1" d="M35.3,125.8l2.7-2.7c0.4-0.4,0.4-1.1,0-1.5c-0.4-0.4-1.1-0.4-1.5,0l-2.7,2.7l-2.7-2.7c-0.4-0.4-1.1-0.4-1.5,0
		c-0.4,0.4-0.4,1.1,0,1.5l2.7,2.7l-2.7,2.7c-0.4,0.4-0.4,1.1,0,1.5c0.4,0.4,1.1,0.4,1.5,0l2.7-2.7l2.7,2.7c0.4,0.4,1.1,0.4,1.5,0
		c0.4-0.4,0.4-1.1,0-1.5L35.3,125.8z"/>
</g>
<path class="st1" d="M27.1,179.9c-0.8,0.2-1.6,0.3-2.4,0.3c-5.4,0-9.8-4.4-9.8-9.8c0-5.4,4.4-9.8,9.8-9.8c5.4,0,9.8,4.4,9.8,9.8
	c0,0.1,0,0.2,0,0.3c0.4-0.4,0.8-0.6,1.4-0.9c-0.3-5.9-5.2-10.6-11.2-10.6c-6.2,0-11.2,5-11.2,11.2c0,6.2,5,11.2,11.2,11.2
	c1,0,2-0.2,3-0.4C27.5,180.7,27.3,180.3,27.1,179.9z"/>
<path class="st1" d="M31.2,166.8L31.2,166.8c-0.3-0.3-0.5-0.3-0.8-0.2c0,0-4,0.5-5.7,0.5c0,0-0.1,0-0.1,0c-1.7,0-5.8-0.6-5.8-0.6
	c-0.3-0.1-0.6,0-0.8,0.3l-0.1,0.2c-0.1,0.2-0.1,0.4-0.1,0.7c0.1,0.2,0.2,0.4,0.4,0.5c0.7,0.3,3.3,1.2,4,1.4c0.1,0,0.4,0.1,0.4,0.6
	c0,0.6-0.2,3.1-0.5,4.3c-0.3,1.2-0.8,2.7-0.8,2.7c-0.1,0.4,0.1,0.9,0.5,1l0.5,0.2c0.2,0.1,0.4,0.1,0.6,0c0.2-0.1,0.3-0.3,0.4-0.5
	l1.4-4.3l1.3,4.4c0.1,0.2,0.2,0.4,0.4,0.5c0.1,0.1,0.2,0.1,0.3,0.1c0.1,0,0.2,0,0.3-0.1l0.5-0.2c0.4-0.1,0.6-0.5,0.5-0.9
	c0,0-0.4-1.6-0.7-2.9c-0.2-0.8-0.3-2-0.3-2.9c0-0.6-0.1-1.1-0.1-1.5c0-0.2,0.1-0.4,0.4-0.5c0.1,0,3.7-1.3,3.7-1.3
	c0.3-0.1,0.4-0.3,0.5-0.6C31.4,167.3,31.4,167,31.2,166.8z"/>
<circle class="st1" cx="24.7" cy="164.3" r="1.7"/>
<g>
	<polygon class="st1" points="36.4,180.3 36.4,180.3 36.4,180.3 	"/>
	<path class="st1" d="M35.2,176l2.7-2.7c0.4-0.4,0.4-1.1,0-1.5c-0.4-0.4-1.1-0.4-1.5,0l-2.7,2.7l-2.7-2.7c-0.4-0.4-1.1-0.4-1.5,0
		c-0.4,0.4-0.4,1.1,0,1.5l2.7,2.7l-2.7,2.7c-0.4,0.4-0.4,1.1,0,1.5c0.4,0.4,1.1,0.4,1.5,0l2.7-2.7l2.7,2.7c0.4,0.4,1.1,0.4,1.5,0
		c0.4-0.4,0.4-1.1,0-1.5L35.2,176z"/>
</g>
<g>
	<path class="st1" d="M14.7,92.3v-6.4h1.2v3.1l2.8-3.1H20l-2.4,2.8l2.6,3.6h-1.3l-2-2.9l-0.9,0.9v1.9H14.7z"/>
	<path class="st1" d="M20.9,92.3v-6.4h1.2v6.4H20.9z"/>
	<path class="st1" d="M23.3,89.1c0-0.4,0.1-0.8,0.2-1.2c0.1-0.4,0.3-0.7,0.6-1c0.3-0.3,0.6-0.5,1-0.7s0.8-0.3,1.3-0.3
		c0.6,0,1.1,0.1,1.5,0.4c0.4,0.3,0.7,0.6,0.9,1l-1,0.7c-0.1-0.2-0.2-0.3-0.3-0.5c-0.1-0.1-0.2-0.2-0.4-0.3c-0.1-0.1-0.3-0.1-0.4-0.2
		c-0.1,0-0.3,0-0.4,0c-0.3,0-0.6,0.1-0.8,0.2s-0.4,0.3-0.6,0.5c-0.1,0.2-0.3,0.4-0.3,0.7s-0.1,0.5-0.1,0.8c0,0.3,0,0.6,0.1,0.8
		c0.1,0.3,0.2,0.5,0.4,0.7c0.2,0.2,0.3,0.4,0.6,0.5c0.2,0.1,0.5,0.2,0.7,0.2c0.1,0,0.3,0,0.4-0.1c0.1,0,0.3-0.1,0.4-0.2
		c0.1-0.1,0.3-0.2,0.4-0.3c0.1-0.1,0.2-0.3,0.3-0.4l1,0.6c-0.1,0.2-0.2,0.5-0.4,0.6c-0.2,0.2-0.4,0.3-0.6,0.5
		c-0.2,0.1-0.5,0.2-0.7,0.3c-0.3,0.1-0.5,0.1-0.8,0.1c-0.4,0-0.9-0.1-1.2-0.3c-0.4-0.2-0.7-0.4-1-0.8c-0.3-0.3-0.5-0.7-0.6-1.1
		C23.4,89.9,23.3,89.5,23.3,89.1z"/>
	<path class="st1" d="M30,92.3v-6.4h1.2v3.1l2.8-3.1h1.3l-2.4,2.8l2.6,3.6h-1.3l-2-2.9l-0.9,0.9v1.9H30z"/>
</g>
<g>
	<path class="st3" d="M14.7,42.6v-6.4h1.2v3.1l2.8-3.1H20l-2.4,2.8l2.6,3.6h-1.3l-2-2.9l-0.9,0.9v1.9H14.7z"/>
	<path class="st3" d="M20.9,42.6v-6.4h1.2v6.4H20.9z"/>
	<path class="st3" d="M23.3,39.4c0-0.4,0.1-0.8,0.2-1.2c0.1-0.4,0.3-0.7,0.6-1c0.3-0.3,0.6-0.5,1-0.7s0.8-0.3,1.3-0.3
		c0.6,0,1.1,0.1,1.5,0.4c0.4,0.3,0.7,0.6,0.9,1l-1,0.7c-0.1-0.2-0.2-0.3-0.3-0.5c-0.1-0.1-0.2-0.2-0.4-0.3c-0.1-0.1-0.3-0.1-0.4-0.2
		c-0.1,0-0.3,0-0.4,0c-0.3,0-0.6,0.1-0.8,0.2S25.2,37.8,25,38c-0.1,0.2-0.3,0.4-0.3,0.7s-0.1,0.5-0.1,0.8c0,0.3,0,0.6,0.1,0.8
		c0.1,0.3,0.2,0.5,0.4,0.7c0.2,0.2,0.3,0.4,0.6,0.5c0.2,0.1,0.5,0.2,0.7,0.2c0.1,0,0.3,0,0.4-0.1c0.1,0,0.3-0.1,0.4-0.2
		c0.1-0.1,0.3-0.2,0.4-0.3c0.1-0.1,0.2-0.3,0.3-0.4l1,0.6c-0.1,0.2-0.2,0.5-0.4,0.6c-0.2,0.2-0.4,0.3-0.6,0.5
		c-0.2,0.1-0.5,0.2-0.7,0.3c-0.3,0.1-0.5,0.1-0.8,0.1c-0.4,0-0.9-0.1-1.2-0.3c-0.4-0.2-0.7-0.4-1-0.8c-0.3-0.3-0.5-0.7-0.6-1.1
		C23.4,40.2,23.3,39.8,23.3,39.4z"/>
	<path class="st3" d="M30,42.6v-6.4h1.2v3.1l2.8-3.1h1.3l-2.4,2.8l2.6,3.6h-1.3l-2-2.9l-0.9,0.9v1.9H30z"/>
</g>
<g>
	<path class="st1" d="M14.8,142.4v-6.4H16v3.1l2.8-3.1h1.3l-2.4,2.8l2.6,3.6h-1.3l-2-2.9l-0.9,0.9v1.9H14.8z"/>
	<path class="st1" d="M21,142.4v-6.4h1.2v6.4H21z"/>
	<path class="st1" d="M23.4,139.2c0-0.4,0.1-0.8,0.2-1.2c0.1-0.4,0.3-0.7,0.6-1c0.3-0.3,0.6-0.5,1-0.7c0.4-0.2,0.8-0.3,1.3-0.3
		c0.6,0,1.1,0.1,1.5,0.4c0.4,0.3,0.7,0.6,0.9,1l-1,0.7c-0.1-0.2-0.2-0.3-0.3-0.5c-0.1-0.1-0.2-0.2-0.4-0.3c-0.1-0.1-0.3-0.1-0.4-0.2
		c-0.1,0-0.3,0-0.4,0c-0.3,0-0.6,0.1-0.8,0.2s-0.4,0.3-0.6,0.5c-0.1,0.2-0.3,0.4-0.3,0.7s-0.1,0.5-0.1,0.8c0,0.3,0,0.6,0.1,0.8
		c0.1,0.3,0.2,0.5,0.4,0.7c0.2,0.2,0.3,0.4,0.6,0.5c0.2,0.1,0.5,0.2,0.7,0.2c0.1,0,0.3,0,0.4-0.1c0.1,0,0.3-0.1,0.4-0.2
		s0.3-0.2,0.4-0.3c0.1-0.1,0.2-0.3,0.3-0.4l1,0.6c-0.1,0.2-0.2,0.5-0.4,0.6c-0.2,0.2-0.4,0.3-0.6,0.5c-0.2,0.1-0.5,0.2-0.7,0.3
		c-0.3,0.1-0.5,0.1-0.8,0.1c-0.4,0-0.9-0.1-1.2-0.3c-0.4-0.2-0.7-0.4-1-0.8c-0.3-0.3-0.5-0.7-0.6-1.1
		C23.5,140,23.4,139.6,23.4,139.2z"/>
	<path class="st1" d="M30.1,142.4v-6.4h1.2v3.1l2.8-3.1h1.3l-2.4,2.8l2.6,3.6h-1.3l-2-2.9l-0.9,0.9v1.9H30.1z"/>
</g>
<g>
	<path class="st1" d="M14.7,192.7v-6.4h1.2v3.1l2.8-3.1H20l-2.4,2.8l2.6,3.6h-1.3l-2-2.9l-0.9,0.9v1.9H14.7z"/>
	<path class="st1" d="M20.9,192.7v-6.4h1.2v6.4H20.9z"/>
	<path class="st1" d="M23.3,189.4c0-0.4,0.1-0.8,0.2-1.2c0.1-0.4,0.3-0.7,0.6-1c0.3-0.3,0.6-0.5,1-0.7c0.4-0.2,0.8-0.3,1.3-0.3
		c0.6,0,1.1,0.1,1.5,0.4s0.7,0.6,0.9,1l-1,0.7c-0.1-0.2-0.2-0.3-0.3-0.5c-0.1-0.1-0.2-0.2-0.4-0.3s-0.3-0.1-0.4-0.2
		c-0.1,0-0.3,0-0.4,0c-0.3,0-0.6,0.1-0.8,0.2s-0.4,0.3-0.6,0.5c-0.1,0.2-0.3,0.4-0.3,0.7s-0.1,0.5-0.1,0.8c0,0.3,0,0.6,0.1,0.8
		c0.1,0.3,0.2,0.5,0.4,0.7c0.2,0.2,0.3,0.4,0.6,0.5c0.2,0.1,0.5,0.2,0.7,0.2c0.1,0,0.3,0,0.4-0.1c0.1,0,0.3-0.1,0.4-0.2
		c0.1-0.1,0.3-0.2,0.4-0.3c0.1-0.1,0.2-0.3,0.3-0.4l1,0.6c-0.1,0.2-0.2,0.5-0.4,0.6c-0.2,0.2-0.4,0.3-0.6,0.5
		c-0.2,0.1-0.5,0.2-0.7,0.3c-0.3,0.1-0.5,0.1-0.8,0.1c-0.4,0-0.9-0.1-1.2-0.3c-0.4-0.2-0.7-0.4-1-0.8c-0.3-0.3-0.5-0.7-0.6-1.1
		C23.4,190.2,23.3,189.8,23.3,189.4z"/>
	<path class="st1" d="M29.9,192.7v-6.4h1.2v3.1l2.8-3.1h1.3l-2.4,2.8l2.6,3.6h-1.3l-2-2.9l-0.9,0.9v1.9H29.9z"/>
</g>
</svg>
