<?xml version="1.0" encoding="utf-8"?>
<!-- Generator: Adobe Illustrator 19.2.0, SVG Export Plug-In . SVG Version: 6.00 Build 0)  -->
<svg version="1.1" id="Layer_1" xmlns="http://www.w3.org/2000/svg" xmlns:xlink="http://www.w3.org/1999/xlink" x="0px" y="0px"
	 viewBox="0 0 50 150" style="enable-background:new 0 0 50 150;" xml:space="preserve">
<style type="text/css">
	.st0{opacity:0.9;}
	.st1{fill:#1E1E1E;}
	.st2{fill:#FFFFFF;}
	.st3{fill:#EAEAEA;}
	.st4{opacity:0.47;}
	.st5{opacity:0.47;fill:#EAEAEA;}
</style>
<g class="st0">
	<path class="st1" d="M50,95.8c0,2.2-1.8,4-4,4H4c-2.2,0-4-1.8-4-4v-42c0-2.2,1.8-4,4-4h42c2.2,0,4,1.8,4,4V95.8z"/>
</g>
<g class="st0">
	<path class="st2" d="M50,45.8c0,2.2-1.8,4-4,4H4c-2.2,0-4-1.8-4-4v-42c0-2.2,1.8-4,4-4h42c2.2,0,4,1.8,4,4V45.8z"/>
</g>
<circle cx="25.8" cy="16" r="2"/>
<path d="M25.8,21.6c-3.1,0-5.6-2.5-5.6-5.6s2.5-5.6,5.6-5.6s5.6,2.5,5.6,5.6S28.9,21.6,25.8,21.6z M25.8,11.9
	c-2.3,0-4.1,1.9-4.1,4.1s1.9,4.1,4.1,4.1S30,18.3,30,16S28.1,11.9,25.8,11.9z"/>
<path d="M33.8,16.8c-0.4,0-0.7-0.3-0.7-0.7c0-0.4,0.3-0.7,0.7-0.7c0.9,0,1.8,0,2.6,0c0,0,0,0,0,0c0.4,0,0.7,0.3,0.7,0.7
	c0,0.4-0.3,0.7-0.7,0.7C35.5,16.8,34.7,16.8,33.8,16.8C33.8,16.8,33.8,16.8,33.8,16.8z"/>
<path d="M18,16.8C18,16.8,18,16.8,18,16.8c-0.9-0.1-1.8,0-2.6,0c-0.4,0-0.7-0.3-0.7-0.7c0-0.4,0.3-0.7,0.7-0.7c0,0,0,0,0,0
	c0.9,0,1.8,0,2.6,0c0.4,0,0.7,0.3,0.7,0.7C18.7,16.5,18.4,16.8,18,16.8z"/>
<path d="M31.5,11.2c-0.2,0-0.4-0.1-0.5-0.2c-0.3-0.3-0.3-0.7,0-1c0.6-0.6,1.2-1.3,1.9-1.9c0.3-0.3,0.7-0.3,1,0c0.3,0.3,0.3,0.7,0,1
	c-0.6,0.6-1.2,1.3-1.9,1.9C31.8,11.2,31.7,11.2,31.5,11.2z"/>
<path d="M18.4,24.2c-0.2,0-0.4-0.1-0.5-0.2c-0.3-0.3-0.3-0.8,0-1c0.6-0.6,1.3-1.2,1.9-1.8c0.3-0.3,0.7-0.3,1,0c0.3,0.3,0.3,0.7,0,1
	c-0.6,0.6-1.3,1.2-1.9,1.9C18.8,24.2,18.6,24.2,18.4,24.2z"/>
<path d="M25.9,8.9c-0.4,0-0.7-0.3-0.7-0.7c0-0.9,0-1.8,0-2.6c0-0.4,0.3-0.7,0.7-0.7c0,0,0,0,0,0c0.4,0,0.7,0.3,0.7,0.7
	c0,0.9,0,1.8,0,2.6C26.6,8.6,26.3,8.9,25.9,8.9C25.9,8.9,25.9,8.9,25.9,8.9z"/>
<path d="M25.9,27.3C25.9,27.3,25.9,27.3,25.9,27.3c-0.4,0-0.7-0.3-0.7-0.7c0-0.9,0-1.8,0-2.6c0-0.4,0.3-0.7,0.7-0.7c0,0,0,0,0,0
	c0.4,0,0.7,0.3,0.7,0.7c0,0.9,0,1.8,0,2.6C26.6,27,26.3,27.3,25.9,27.3z"/>
<path d="M20.3,11.2c-0.2,0-0.4-0.1-0.5-0.2c-0.6-0.6-1.3-1.2-1.9-1.9c-0.3-0.3-0.3-0.7,0-1c0.3-0.3,0.7-0.3,1,0
	c0.6,0.6,1.3,1.2,1.9,1.9c0.3,0.3,0.3,0.7,0,1C20.7,11.2,20.5,11.2,20.3,11.2z"/>
<path d="M33.3,24.2c-0.2,0-0.4-0.1-0.5-0.2c-0.6-0.6-1.2-1.3-1.8-1.9c-0.3-0.3-0.3-0.7,0-1c0.3-0.3,0.7-0.3,1,0
	c0.6,0.6,1.2,1.3,1.9,1.9c0.3,0.3,0.3,0.8,0,1C33.7,24.2,33.5,24.2,33.3,24.2z"/>
<g>
	<path d="M11,41.5v-6.4h1.2v5.3h3.3v1.1H11z"/>
	<path d="M16.5,41.5v-6.4h1.2v6.4H16.5z"/>
	<path d="M23.6,40.7c-0.5,0.5-1.1,0.8-1.7,0.8c-0.4,0-0.8-0.1-1.2-0.3c-0.4-0.2-0.7-0.4-0.9-0.7c-0.3-0.3-0.5-0.7-0.6-1
		S19,38.7,19,38.2c0-0.4,0.1-0.9,0.2-1.2c0.2-0.4,0.4-0.7,0.6-1c0.3-0.3,0.6-0.5,1-0.7c0.4-0.2,0.8-0.3,1.2-0.3
		c0.6,0,1.1,0.1,1.5,0.4s0.7,0.6,0.9,1l-0.9,0.7c-0.2-0.3-0.4-0.6-0.6-0.7s-0.6-0.3-0.9-0.3c-0.3,0-0.5,0.1-0.7,0.2
		c-0.2,0.1-0.4,0.3-0.5,0.5c-0.2,0.2-0.3,0.4-0.4,0.7c-0.1,0.3-0.1,0.5-0.1,0.8c0,0.3,0,0.6,0.1,0.8c0.1,0.3,0.2,0.5,0.4,0.7
		c0.2,0.2,0.4,0.3,0.6,0.5c0.2,0.1,0.5,0.2,0.7,0.2c0.6,0,1.1-0.3,1.6-0.9v-0.5h-1.3v-0.9h2.3v3.3h-1V40.7z"/>
	<path d="M31.3,35.1v6.4h-1.2v-2.7h-2.9v2.7h-1.2v-6.4h1.2v2.6h2.9v-2.6H31.3z"/>
	<path d="M37.7,36.2h-2v5.3h-1.2v-5.3h-2v-1.1h5.3V36.2z"/>
</g>
<circle class="st3" cx="26.2" cy="66" r="2"/>
<path class="st3" d="M26.2,71.6c-3.1,0-5.6-2.5-5.6-5.6s2.5-5.6,5.6-5.6s5.6,2.5,5.6,5.6S29.3,71.6,26.2,71.6z M26.2,61.9
	c-2.3,0-4.1,1.9-4.1,4.1s1.9,4.1,4.1,4.1s4.1-1.9,4.1-4.1S28.4,61.9,26.2,61.9z"/>
<path class="st3" d="M34.1,66.8c-0.4,0-0.7-0.3-0.7-0.7c0-0.4,0.3-0.7,0.7-0.7c0.9,0,1.8,0,2.6,0c0,0,0,0,0,0c0.4,0,0.7,0.3,0.7,0.7
	c0,0.4-0.3,0.7-0.7,0.7C35.9,66.8,35,66.8,34.1,66.8C34.1,66.8,34.1,66.8,34.1,66.8z"/>
<path class="st3" d="M18.3,66.9C18.3,66.9,18.3,66.9,18.3,66.9c-0.9-0.1-1.8,0-2.6,0c-0.4,0-0.7-0.3-0.7-0.7c0-0.4,0.3-0.7,0.7-0.7
	c0,0,0,0,0,0c0.9,0,1.8,0,2.6,0c0.4,0,0.7,0.3,0.7,0.7C19.1,66.5,18.7,66.9,18.3,66.9z"/>
<path class="st3" d="M31.8,61.3c-0.2,0-0.4-0.1-0.5-0.2c-0.3-0.3-0.3-0.7,0-1c0.6-0.6,1.2-1.3,1.9-1.9c0.3-0.3,0.7-0.3,1,0
	c0.3,0.3,0.3,0.7,0,1c-0.6,0.6-1.2,1.3-1.9,1.9C32.2,61.2,32,61.3,31.8,61.3z"/>
<path class="st3" d="M18.8,74.3c-0.2,0-0.4-0.1-0.5-0.2c-0.3-0.3-0.3-0.8,0-1c0.6-0.6,1.3-1.2,1.9-1.8c0.3-0.3,0.7-0.3,1,0
	c0.3,0.3,0.3,0.7,0,1c-0.6,0.6-1.3,1.2-1.9,1.9C19.1,74.2,19,74.3,18.8,74.3z"/>
<path class="st3" d="M26.2,58.9c-0.4,0-0.7-0.3-0.7-0.7c0-0.9,0-1.8,0-2.6c0-0.4,0.3-0.7,0.7-0.7c0,0,0,0,0,0c0.4,0,0.7,0.3,0.7,0.7
	c0,0.9,0,1.8,0,2.6C27,58.6,26.6,58.9,26.2,58.9C26.2,58.9,26.2,58.9,26.2,58.9z"/>
<path class="st3" d="M26.2,77.3C26.2,77.3,26.2,77.3,26.2,77.3c-0.4,0-0.7-0.3-0.7-0.7c0-0.9,0-1.8,0-2.6c0-0.4,0.3-0.7,0.7-0.7
	c0,0,0,0,0,0c0.4,0,0.7,0.3,0.7,0.7c0,0.9,0,1.8,0,2.6C26.9,77,26.6,77.3,26.2,77.3z"/>
<path class="st3" d="M20.7,61.2c-0.2,0-0.4-0.1-0.5-0.2c-0.6-0.6-1.3-1.2-1.9-1.9c-0.3-0.3-0.3-0.7,0-1c0.3-0.3,0.7-0.3,1,0
	c0.6,0.6,1.3,1.2,1.9,1.9c0.3,0.3,0.3,0.7,0,1C21,61.2,20.8,61.2,20.7,61.2z"/>
<path class="st3" d="M33.7,74.3c-0.2,0-0.4-0.1-0.5-0.2c-0.6-0.6-1.2-1.3-1.8-1.9c-0.3-0.3-0.3-0.7,0-1c0.3-0.3,0.7-0.3,1,0
	c0.6,0.6,1.2,1.3,1.9,1.9c0.3,0.3,0.3,0.8,0,1C34,74.2,33.8,74.3,33.7,74.3z"/>
<g>
	<path class="st3" d="M11.3,91.5v-6.4h1.2v5.3h3.3v1.1H11.3z"/>
	<path class="st3" d="M16.9,91.5v-6.4h1.2v6.4H16.9z"/>
	<path class="st3" d="M24,90.8c-0.5,0.5-1.1,0.8-1.7,0.8c-0.4,0-0.8-0.1-1.2-0.3c-0.4-0.2-0.7-0.4-0.9-0.7c-0.3-0.3-0.5-0.7-0.6-1
		c-0.2-0.4-0.2-0.8-0.2-1.2c0-0.4,0.1-0.9,0.2-1.2c0.2-0.4,0.4-0.7,0.6-1c0.3-0.3,0.6-0.5,1-0.7c0.4-0.2,0.8-0.3,1.2-0.3
		c0.6,0,1.1,0.1,1.5,0.4s0.7,0.6,0.9,1l-0.9,0.7c-0.2-0.3-0.4-0.6-0.6-0.7s-0.6-0.3-0.9-0.3c-0.3,0-0.5,0.1-0.7,0.2
		c-0.2,0.1-0.4,0.3-0.5,0.5c-0.2,0.2-0.3,0.4-0.4,0.7s-0.1,0.5-0.1,0.8c0,0.3,0,0.6,0.1,0.8c0.1,0.3,0.2,0.5,0.4,0.7
		c0.2,0.2,0.4,0.3,0.6,0.5c0.2,0.1,0.5,0.2,0.7,0.2c0.6,0,1.1-0.3,1.6-0.9v-0.5h-1.3v-0.9H25v3.3h-1V90.8z"/>
	<path class="st3" d="M31.6,85.1v6.4h-1.2v-2.7h-2.9v2.7h-1.2v-6.4h1.2v2.6h2.9v-2.6H31.6z"/>
	<path class="st3" d="M38,86.2h-2v5.3h-1.2v-5.3h-2v-1.1H38V86.2z"/>
</g>
<g class="st4">
	<path class="st1" d="M50,145.8c0,2.2-1.8,4-4,4H4c-2.2,0-4-1.8-4-4v-42c0-2.2,1.8-4,4-4h42c2.2,0,4,1.8,4,4V145.8z"/>
</g>
<circle class="st5" cx="26.2" cy="116" r="2"/>
<path class="st5" d="M26.2,121.6c-3.1,0-5.6-2.5-5.6-5.6s2.5-5.6,5.6-5.6s5.6,2.5,5.6,5.6S29.3,121.6,26.2,121.6z M26.2,111.9
	c-2.3,0-4.1,1.9-4.1,4.1s1.9,4.1,4.1,4.1s4.1-1.9,4.1-4.1S28.4,111.9,26.2,111.9z"/>
<path class="st5" d="M34.1,116.8c-0.4,0-0.7-0.3-0.7-0.7c0-0.4,0.3-0.7,0.7-0.7c0.9,0,1.8,0,2.6,0c0,0,0,0,0,0
	c0.4,0,0.7,0.3,0.7,0.7c0,0.4-0.3,0.7-0.7,0.7C35.9,116.8,35,116.8,34.1,116.8C34.1,116.8,34.1,116.8,34.1,116.8z"/>
<path class="st5" d="M18.3,116.9C18.3,116.9,18.3,116.9,18.3,116.9c-0.9-0.1-1.8,0-2.6,0c-0.4,0-0.7-0.3-0.7-0.7
	c0-0.4,0.3-0.7,0.7-0.7c0,0,0,0,0,0c0.9,0,1.8,0,2.6,0c0.4,0,0.7,0.3,0.7,0.7C19.1,116.5,18.7,116.9,18.3,116.9z"/>
<path class="st5" d="M31.8,111.3c-0.2,0-0.4-0.1-0.5-0.2c-0.3-0.3-0.3-0.7,0-1c0.6-0.6,1.2-1.3,1.9-1.9c0.3-0.3,0.7-0.3,1,0
	c0.3,0.3,0.3,0.7,0,1c-0.6,0.6-1.2,1.3-1.9,1.9C32.2,111.2,32,111.3,31.8,111.3z"/>
<path class="st5" d="M18.8,124.3c-0.2,0-0.4-0.1-0.5-0.2c-0.3-0.3-0.3-0.8,0-1c0.6-0.6,1.3-1.2,1.9-1.8c0.3-0.3,0.7-0.3,1,0
	c0.3,0.3,0.3,0.7,0,1c-0.6,0.6-1.3,1.2-1.9,1.9C19.1,124.2,19,124.3,18.8,124.3z"/>
<path class="st5" d="M26.2,108.9c-0.4,0-0.7-0.3-0.7-0.7c0-0.9,0-1.8,0-2.6c0-0.4,0.3-0.7,0.7-0.7c0,0,0,0,0,0
	c0.4,0,0.7,0.3,0.7,0.7c0,0.9,0,1.8,0,2.6C27,108.6,26.6,108.9,26.2,108.9C26.2,108.9,26.2,108.9,26.2,108.9z"/>
<path class="st5" d="M26.2,127.3C26.2,127.3,26.2,127.3,26.2,127.3c-0.4,0-0.7-0.3-0.7-0.7c0-0.9,0-1.8,0-2.6c0-0.4,0.3-0.7,0.7-0.7
	c0,0,0,0,0,0c0.4,0,0.7,0.3,0.7,0.7c0,0.9,0,1.8,0,2.6C26.9,127,26.6,127.3,26.2,127.3z"/>
<path class="st5" d="M20.7,111.2c-0.2,0-0.4-0.1-0.5-0.2c-0.6-0.6-1.3-1.2-1.9-1.9c-0.3-0.3-0.3-0.7,0-1c0.3-0.3,0.7-0.3,1,0
	c0.6,0.6,1.3,1.2,1.9,1.9c0.3,0.3,0.3,0.7,0,1C21,111.2,20.8,111.2,20.7,111.2z"/>
<path class="st5" d="M33.7,124.3c-0.2,0-0.4-0.1-0.5-0.2c-0.6-0.6-1.2-1.3-1.8-1.9c-0.3-0.3-0.3-0.7,0-1c0.3-0.3,0.7-0.3,1,0
	c0.6,0.6,1.2,1.3,1.9,1.9c0.3,0.3,0.3,0.8,0,1C34,124.2,33.8,124.3,33.7,124.3z"/>
<g class="st4">
	<path class="st3" d="M11.3,141.5v-6.4h1.2v5.3h3.3v1.1H11.3z"/>
	<path class="st3" d="M16.9,141.5v-6.4h1.2v6.4H16.9z"/>
	<path class="st3" d="M24,140.8c-0.5,0.5-1.1,0.8-1.7,0.8c-0.4,0-0.8-0.1-1.2-0.3c-0.4-0.2-0.7-0.4-0.9-0.7c-0.3-0.3-0.5-0.7-0.6-1
		c-0.2-0.4-0.2-0.8-0.2-1.2c0-0.4,0.1-0.9,0.2-1.2c0.2-0.4,0.4-0.7,0.6-1c0.3-0.3,0.6-0.5,1-0.7c0.4-0.2,0.8-0.3,1.2-0.3
		c0.6,0,1.1,0.1,1.5,0.4s0.7,0.6,0.9,1l-0.9,0.7c-0.2-0.3-0.4-0.6-0.6-0.7s-0.6-0.3-0.9-0.3c-0.3,0-0.5,0.1-0.7,0.2
		c-0.2,0.1-0.4,0.3-0.5,0.5c-0.2,0.2-0.3,0.4-0.4,0.7s-0.1,0.5-0.1,0.8c0,0.3,0,0.6,0.1,0.8c0.1,0.3,0.2,0.5,0.4,0.7
		c0.2,0.2,0.4,0.3,0.6,0.5c0.2,0.1,0.5,0.2,0.7,0.2c0.6,0,1.1-0.3,1.6-0.9v-0.5h-1.3v-0.9H25v3.3h-1V140.8z"/>
	<path class="st3" d="M31.6,135.1v6.4h-1.2v-2.7h-2.9v2.7h-1.2v-6.4h1.2v2.6h2.9v-2.6H31.6z"/>
	<path class="st3" d="M38,136.2h-2v5.3h-1.2v-5.3h-2v-1.1H38V136.2z"/>
</g>
</svg>
