<?xml version="1.0" encoding="utf-8"?>
<!-- Generator: Adobe Illustrator 19.2.0, SVG Export Plug-In . SVG Version: 6.00 Build 0)  -->
<svg version="1.1" xmlns="http://www.w3.org/2000/svg" xmlns:xlink="http://www.w3.org/1999/xlink" x="0px" y="0px"
	 viewBox="0 0 50 200.1" style="enable-background:new 0 0 50 200.1;" xml:space="preserve">
<style type="text/css">
	.st0{fill:#414042;}
	.st1{fill:#FFFFFF;}
	.st2{fill:#1E1E1E;}
	.st3{fill:#333333;}
</style>
<g id="Layer_2">
	<g>
		<g>
			<path class="st0" d="M50.1,146.1c0,2.2-1.8,4-4,4h-42c-2.2,0-4-1.8-4-4v-42c0-2.2,1.8-4,4-4h42c2.2,0,4,1.8,4,4V146.1z"/>
		</g>
	</g>
	<g>
		<g>
			<path class="st0" d="M50,196.1c0,2.2-1.8,4-4,4H4c-2.2,0-4-1.8-4-4v-42c0-2.2,1.8-4,4-4h42c2.2,0,4,1.8,4,4V196.1z"/>
		</g>
	</g>
	<g>
		<g>
			<path class="st1" d="M50,46c0,2.2-1.8,4-4,4H4c-2.2,0-4-1.8-4-4V4c0-2.2,1.8-4,4-4h42c2.2,0,4,1.8,4,4V46z"/>
		</g>
	</g>
	<g>
		<path class="st2" d="M50,96.1c0,2.2-1.8,4-4,4H4c-2.2,0-4-1.8-4-4v-42c0-2.2,1.8-4,4-4h42c2.2,0,4,1.8,4,4V96.1z"/>
	</g>
</g>
<g id="Layer_3">
</g>
<g id="Layer_1">
	<g>
		<path class="st3" d="M12,42.3v-4.2l-1.6,3.1H9.6L8,38.1v4.2H6.7v-6.4h1.3l1.9,3.6l1.9-3.6h1.3v6.4H12z"/>
		<path class="st3" d="M14.1,42.3l2.5-6.4h1l2.5,6.4h-1.3l-0.6-1.6H16l-0.6,1.6H14.1z M17.1,37.3l-0.9,2.6H18L17.1,37.3z"/>
		<path class="st3" d="M21.1,42.3v-6.4h2.8c0.3,0,0.6,0.1,0.8,0.2s0.5,0.3,0.6,0.5c0.2,0.2,0.3,0.4,0.4,0.7c0.1,0.3,0.2,0.5,0.2,0.8
			c0,0.4-0.1,0.8-0.3,1.1c-0.2,0.3-0.5,0.6-0.8,0.7l1.5,2.4h-1.4l-1.3-2.1h-1.2v2.1H21.1z M22.3,39.1h1.6c0.1,0,0.2,0,0.3-0.1
			c0.1-0.1,0.2-0.1,0.3-0.2c0.1-0.1,0.1-0.2,0.2-0.3c0-0.1,0.1-0.3,0.1-0.4c0-0.1,0-0.3-0.1-0.4s-0.1-0.2-0.2-0.3
			c-0.1-0.1-0.2-0.2-0.3-0.2C24,37.1,23.9,37,23.8,37h-1.5V39.1z"/>
		<path class="st3" d="M27.3,42.3v-6.4h1.2v3.1l2.8-3.1h1.3l-2.4,2.8l2.6,3.6h-1.3l-2-2.9l-0.9,0.9v1.9H27.3z"/>
		<path class="st3" d="M38,41.2v1.1h-4.4v-6.4h4.4V37h-3.1v1.5h2.7v1h-2.7v1.7H38z"/>
		<path class="st3" d="M44,37h-2v5.3h-1.2V37h-2v-1.1H44V37z"/>
	</g>
	<g>
		<path class="st3" d="M14.1,11.7c0.2,0,0.3,0,0.5,0c0.3,0,0.5,0,0.8,0.1c0.4,0.1,0.8,0.4,1,0.8c0.1,0.2,0.2,0.5,0.3,0.8
			c0.1,0.3,0.2,0.6,0.3,1c0.1,0.5,0.3,1,0.4,1.4c0.1,0.3,0.2,0.6,0.3,0.9c0.1,0.4,0.2,0.8,0.4,1.2c0.1,0.5,0.3,1,0.4,1.5
			c0,0.1,0.1,0.2,0.1,0.3c0.1,0.5,0.2,0.9,0.4,1.3c0.2,0.3,0.4,0.6,0.7,0.8c0.3,0.2,0.7,0.3,1.1,0.3c0.1,0,0.2,0,0.4,0l1.1,0l2.9,0
			c1.3,0,2.5,0,3.8,0c0.6,0,1.3,0,1.9,0c0,0,0.1,0,0.1,0c0.3,0,0.6,0,0.9-0.1c0.2-0.1,0.4-0.5,0.4-0.8l0,0l0.1-0.5c0,0,0,0,0,0
			c0-0.1,0-0.1,0-0.1h0c0.3-1,0.6-2.1,0.9-3.1c0.1-0.2,0.1-0.4,0.2-0.6c0.1-0.4,0.2-0.8,0.4-1.2c0.1-0.4,0.2-0.8,0-1.1
			c-0.1-0.2-0.4-0.2-0.7-0.2c-0.3,0-9.6,0.1-14.5,0.2l-0.2,0l-0.3-1.1c0-0.1-0.1-0.3-0.1-0.5c0-0.1-0.1-0.2-0.1-0.3
			c0-0.1,0-0.1-0.1-0.2c0-0.2-0.1-0.4-0.1-0.5c-0.1-0.3-0.3-0.7-0.6-0.9c-0.2-0.2-0.5-0.4-0.9-0.5c-0.2,0-0.3,0-0.5-0.1
			c-0.2,0-0.5,0-0.7,0c-1,0-2,0-3,0c-0.1,0-0.1,0-0.2,0c-0.2,0-0.4,0-0.5,0c-0.2,0-0.3,0.1-0.4,0.2c-0.2,0.2-0.2,0.6-0.1,0.9
			c0.1,0.2,0.3,0.3,0.5,0.3c0.2,0,0.4,0,0.6,0c0.3,0,0.6,0,0.8,0l0.9,0C13.8,11.7,14,11.7,14.1,11.7z M32.1,15.7l-1.3,4.7l-0.3,0.2
			l-0.1,0c-0.1,0-1.1,0-2.8,0c-2.5,0-6,0-6.4,0l0,0h0c-0.3,0-0.6-0.1-0.8-0.3c-0.2-0.2-0.3-0.5-0.4-0.8c-0.1-0.6-0.3-1.3-0.5-2
			c-0.1-0.2-0.1-0.4-0.2-0.6c-0.1-0.2-0.1-0.4-0.2-0.7l-0.2-0.6H32.1z"/>
		<path class="st3" d="M22.2,24.1L22.2,24.1c-0.5,0-0.8,0.1-1.1,0.3c-0.3,0.3-0.4,0.6-0.4,1c0,0.4,0.1,0.8,0.4,1.1
			c0.3,0.3,0.6,0.4,1.1,0.4c0.9,0,1.5-0.6,1.5-1.5c0-0.4-0.2-0.8-0.4-1C23,24.2,22.7,24.1,22.2,24.1z"/>
		<path class="st3" d="M29.3,24.1L29.3,24.1c-0.5,0-0.8,0.1-1.1,0.3c-0.3,0.3-0.4,0.6-0.4,1.1c0,0.4,0.1,0.8,0.4,1.1
			c0.3,0.3,0.6,0.4,1.1,0.4c0.8,0,1.5-0.7,1.5-1.5c0-0.4-0.1-0.7-0.4-1C30.1,24.2,29.8,24.1,29.3,24.1z"/>
	</g>
	<g>
		<path class="st1" d="M12,92.3v-4.2l-1.6,3.1H9.6L8,88.1v4.2H6.7v-6.4h1.3l1.9,3.6l1.9-3.6h1.3v6.4H12z"/>
		<path class="st1" d="M14.1,92.3l2.5-6.4h1l2.5,6.4h-1.3l-0.6-1.6H16l-0.6,1.6H14.1z M17.1,87.3l-0.9,2.6H18L17.1,87.3z"/>
		<path class="st1" d="M21.1,92.3v-6.4h2.8c0.3,0,0.6,0.1,0.8,0.2s0.5,0.3,0.6,0.5c0.2,0.2,0.3,0.4,0.4,0.7c0.1,0.3,0.2,0.5,0.2,0.8
			c0,0.4-0.1,0.8-0.3,1.1c-0.2,0.3-0.5,0.6-0.8,0.7l1.5,2.4h-1.4l-1.3-2.1h-1.2v2.1H21.1z M22.3,89.1h1.6c0.1,0,0.2,0,0.3-0.1
			c0.1-0.1,0.2-0.1,0.3-0.2c0.1-0.1,0.1-0.2,0.2-0.3c0-0.1,0.1-0.3,0.1-0.4c0-0.1,0-0.3-0.1-0.4s-0.1-0.2-0.2-0.3
			c-0.1-0.1-0.2-0.2-0.3-0.2C24,87.1,23.9,87,23.8,87h-1.5V89.1z"/>
		<path class="st1" d="M27.3,92.3v-6.4h1.2v3.1l2.8-3.1h1.3l-2.4,2.8l2.6,3.6h-1.3l-2-2.9l-0.9,0.9v1.9H27.3z"/>
		<path class="st1" d="M38,91.2v1.1h-4.4v-6.4h4.4V87h-3.1v1.5h2.7v1h-2.7v1.7H38z"/>
		<path class="st1" d="M44,87h-2v5.3h-1.2V87h-2v-1.1H44V87z"/>
	</g>
	<g>
		<path class="st1" d="M14.1,61.7c0.2,0,0.3,0,0.5,0c0.3,0,0.5,0,0.8,0.1c0.4,0.1,0.8,0.4,1,0.8c0.1,0.2,0.2,0.5,0.3,0.8
			c0.1,0.3,0.2,0.6,0.3,1c0.1,0.5,0.3,1,0.4,1.4c0.1,0.3,0.2,0.6,0.3,0.9c0.1,0.4,0.2,0.8,0.4,1.2c0.1,0.5,0.3,1,0.4,1.5
			c0,0.1,0.1,0.2,0.1,0.3c0.1,0.5,0.2,0.9,0.4,1.3c0.2,0.3,0.4,0.6,0.7,0.8c0.3,0.2,0.7,0.3,1.1,0.3c0.1,0,0.2,0,0.4,0l1.1,0l2.9,0
			c1.3,0,2.5,0,3.8,0c0.6,0,1.3,0,1.9,0c0,0,0.1,0,0.1,0c0.3,0,0.6,0,0.9-0.1c0.2-0.1,0.4-0.5,0.4-0.8l0,0l0.1-0.5c0,0,0,0,0,0
			c0-0.1,0-0.1,0-0.1h0c0.3-1,0.6-2.1,0.9-3.1c0.1-0.2,0.1-0.4,0.2-0.6c0.1-0.4,0.2-0.8,0.4-1.2c0.1-0.4,0.2-0.8,0-1.1
			c-0.1-0.2-0.4-0.2-0.7-0.2c-0.3,0-9.6,0.1-14.5,0.2l-0.2,0l-0.3-1.1c0-0.1-0.1-0.3-0.1-0.5c0-0.1-0.1-0.2-0.1-0.3
			c0-0.1,0-0.1-0.1-0.2c0-0.2-0.1-0.4-0.1-0.5c-0.1-0.3-0.3-0.7-0.6-0.9c-0.2-0.2-0.5-0.4-0.9-0.5c-0.2,0-0.3,0-0.5-0.1
			c-0.2,0-0.5,0-0.7,0c-1,0-2,0-3,0c-0.1,0-0.1,0-0.2,0c-0.2,0-0.4,0-0.5,0c-0.2,0-0.3,0.1-0.4,0.2c-0.2,0.2-0.2,0.6-0.1,0.9
			c0.1,0.2,0.3,0.3,0.5,0.3c0.2,0,0.4,0,0.6,0c0.3,0,0.6,0,0.8,0l0.9,0C13.8,61.7,14,61.7,14.1,61.7z M32.1,65.7l-1.3,4.7l-0.3,0.2
			l-0.1,0c-0.1,0-1.1,0-2.8,0c-2.5,0-6,0-6.4,0l0,0h0c-0.3,0-0.6-0.1-0.8-0.3c-0.2-0.2-0.3-0.5-0.4-0.8c-0.1-0.6-0.3-1.3-0.5-2
			c-0.1-0.2-0.1-0.4-0.2-0.6c-0.1-0.2-0.1-0.4-0.2-0.7l-0.2-0.6H32.1z"/>
		<path class="st1" d="M22.2,74.1L22.2,74.1c-0.5,0-0.8,0.1-1.1,0.3c-0.3,0.3-0.4,0.6-0.4,1c0,0.4,0.1,0.8,0.4,1.1
			c0.3,0.3,0.6,0.4,1.1,0.4c0.9,0,1.5-0.6,1.5-1.5c0-0.4-0.2-0.8-0.4-1C23,74.2,22.7,74.1,22.2,74.1z"/>
		<path class="st1" d="M29.3,74.1L29.3,74.1c-0.5,0-0.8,0.1-1.1,0.3c-0.3,0.3-0.4,0.6-0.4,1.1c0,0.4,0.1,0.8,0.4,1.1
			c0.3,0.3,0.6,0.4,1.1,0.4c0.8,0,1.5-0.7,1.5-1.5c0-0.4-0.1-0.7-0.4-1C30.1,74.2,29.8,74.1,29.3,74.1z"/>
	</g>
	<g>
		<path class="st1" d="M11.8,142.4v-4.2l-1.6,3.1H9.5l-1.6-3.1v4.2H6.6V136h1.3l1.9,3.6l1.9-3.6H13v6.4H11.8z"/>
		<path class="st1" d="M13.9,142.4l2.5-6.4h1l2.5,6.4h-1.3l-0.6-1.6h-2.2l-0.6,1.6H13.9z M17,137.4l-0.9,2.6h1.8L17,137.4z"/>
		<path class="st1" d="M20.9,142.4V136h2.8c0.3,0,0.6,0.1,0.8,0.2s0.5,0.3,0.6,0.5c0.2,0.2,0.3,0.4,0.4,0.7c0.1,0.3,0.2,0.5,0.2,0.8
			c0,0.4-0.1,0.8-0.3,1.1c-0.2,0.3-0.5,0.6-0.8,0.7l1.5,2.4h-1.4l-1.3-2.1h-1.2v2.1H20.9z M22.1,139.2h1.6c0.1,0,0.2,0,0.3-0.1
			c0.1-0.1,0.2-0.1,0.3-0.2c0.1-0.1,0.1-0.2,0.2-0.3c0-0.1,0.1-0.3,0.1-0.4c0-0.1,0-0.3-0.1-0.4s-0.1-0.2-0.2-0.3
			c-0.1-0.1-0.2-0.2-0.3-0.2c-0.1-0.1-0.2-0.1-0.3-0.1h-1.5V139.2z"/>
		<path class="st1" d="M27.2,142.4V136h1.2v3.1l2.8-3.1h1.3l-2.4,2.8l2.6,3.6h-1.3l-2-2.9l-0.9,0.9v1.9H27.2z"/>
		<path class="st1" d="M37.8,141.3v1.1h-4.4V136h4.4v1.1h-3.1v1.5h2.7v1h-2.7v1.7H37.8z"/>
		<path class="st1" d="M43.8,137.1h-2v5.3h-1.2v-5.3h-2V136h5.3V137.1z"/>
	</g>
	<g>
		<path class="st1" d="M13.9,111.8c0.2,0,0.3,0,0.5,0c0.3,0,0.5,0,0.8,0.1c0.4,0.1,0.8,0.4,1,0.8c0.1,0.2,0.2,0.5,0.3,0.8
			c0.1,0.3,0.2,0.6,0.3,1c0.1,0.5,0.3,1,0.4,1.4c0.1,0.3,0.2,0.6,0.3,0.9c0.1,0.4,0.2,0.8,0.4,1.2c0.1,0.5,0.3,1,0.4,1.5
			c0,0.1,0.1,0.2,0.1,0.3c0.1,0.5,0.2,0.9,0.4,1.3c0.2,0.3,0.4,0.6,0.7,0.8c0.3,0.2,0.7,0.3,1.1,0.3c0.1,0,0.2,0,0.4,0l1.1,0l2.9,0
			c1.3,0,2.5,0,3.8,0c0.6,0,1.3,0,1.9,0c0,0,0.1,0,0.1,0c0.3,0,0.6,0,0.9-0.1c0.2-0.1,0.4-0.5,0.4-0.8l0,0l0.1-0.5c0,0,0,0,0,0
			c0-0.1,0-0.1,0-0.1h0c0.3-1,0.6-2.1,0.9-3.1c0.1-0.2,0.1-0.4,0.2-0.6c0.1-0.4,0.2-0.8,0.4-1.2c0.1-0.4,0.2-0.8,0-1.1
			c-0.1-0.2-0.4-0.2-0.7-0.2c-0.3,0-9.6,0.1-14.5,0.2l-0.2,0l-0.3-1.1c0-0.1-0.1-0.3-0.1-0.5c0-0.1-0.1-0.2-0.1-0.3
			c0-0.1,0-0.1-0.1-0.2c0-0.2-0.1-0.4-0.1-0.5c-0.1-0.3-0.3-0.7-0.6-0.9c-0.2-0.2-0.5-0.4-0.9-0.5c-0.2,0-0.3,0-0.5-0.1
			c-0.2,0-0.5,0-0.7,0c-1,0-2,0-3,0c-0.1,0-0.1,0-0.2,0c-0.2,0-0.4,0-0.5,0c-0.2,0-0.3,0.1-0.4,0.2c-0.2,0.2-0.2,0.6-0.1,0.9
			c0.1,0.2,0.3,0.3,0.5,0.3c0.2,0,0.4,0,0.6,0c0.3,0,0.6,0,0.8,0l0.9,0C13.7,111.8,13.8,111.8,13.9,111.8z M32,115.8l-1.3,4.7
			l-0.3,0.2l-0.1,0c-0.1,0-1.1,0-2.8,0c-2.5,0-6,0-6.4,0l0,0h0c-0.3,0-0.6-0.1-0.8-0.3c-0.2-0.2-0.3-0.5-0.4-0.8
			c-0.1-0.6-0.3-1.3-0.5-2c-0.1-0.2-0.1-0.4-0.2-0.6c-0.1-0.2-0.1-0.4-0.2-0.7l-0.2-0.6H32z"/>
		<path class="st1" d="M22.1,124.2L22.1,124.2c-0.5,0-0.8,0.1-1.1,0.3c-0.3,0.3-0.4,0.6-0.4,1c0,0.4,0.1,0.8,0.4,1.1
			c0.3,0.3,0.6,0.4,1.1,0.4c0.9,0,1.5-0.6,1.5-1.5c0-0.4-0.2-0.8-0.4-1C22.9,124.3,22.5,124.2,22.1,124.2z"/>
		<path class="st1" d="M29.2,124.2L29.2,124.2c-0.5,0-0.8,0.1-1.1,0.3c-0.3,0.3-0.4,0.6-0.4,1.1c0,0.4,0.1,0.8,0.4,1.1
			c0.3,0.3,0.6,0.4,1.1,0.4c0.8,0,1.5-0.7,1.5-1.5c0-0.4-0.1-0.7-0.4-1C30,124.3,29.6,124.2,29.2,124.2z"/>
	</g>
	<g>
		<path class="st1" d="M11.8,192.5v-4.2l-1.6,3.1H9.5l-1.6-3.1v4.2H6.6v-6.4h1.3l1.9,3.6l1.9-3.6H13v6.4H11.8z"/>
		<path class="st1" d="M13.9,192.5l2.5-6.4h1l2.5,6.4h-1.3l-0.6-1.6h-2.2l-0.6,1.6H13.9z M17,187.4L16,190h1.8L17,187.4z"/>
		<path class="st1" d="M20.9,192.5v-6.4h2.8c0.3,0,0.6,0.1,0.8,0.2s0.5,0.3,0.6,0.5c0.2,0.2,0.3,0.4,0.4,0.7
			c0.1,0.3,0.2,0.5,0.2,0.8c0,0.4-0.1,0.8-0.3,1.1c-0.2,0.3-0.5,0.6-0.8,0.7l1.5,2.4h-1.4l-1.3-2.1h-1.2v2.1H20.9z M22.1,189.2h1.6
			c0.1,0,0.2,0,0.3-0.1c0.1-0.1,0.2-0.1,0.3-0.2c0.1-0.1,0.1-0.2,0.2-0.3c0-0.1,0.1-0.3,0.1-0.4c0-0.1,0-0.3-0.1-0.4
			s-0.1-0.2-0.2-0.3c-0.1-0.1-0.2-0.2-0.3-0.2c-0.1-0.1-0.2-0.1-0.3-0.1h-1.5V189.2z"/>
		<path class="st1" d="M27.2,192.5v-6.4h1.2v3.1l2.8-3.1h1.3l-2.4,2.8l2.6,3.6h-1.3l-2-2.9l-0.9,0.9v1.9H27.2z"/>
		<path class="st1" d="M37.8,191.4v1.1h-4.4v-6.4h4.4v1.1h-3.1v1.5h2.7v1h-2.7v1.7H37.8z"/>
		<path class="st1" d="M43.8,187.2h-2v5.3h-1.2v-5.3h-2v-1.1h5.3V187.2z"/>
	</g>
	<g>
		<path class="st1" d="M13.9,161.8c0.2,0,0.3,0,0.5,0c0.3,0,0.5,0,0.8,0.1c0.4,0.1,0.8,0.4,1,0.8c0.1,0.2,0.2,0.5,0.3,0.8
			c0.1,0.3,0.2,0.6,0.3,1c0.1,0.5,0.3,1,0.4,1.4c0.1,0.3,0.2,0.6,0.3,0.9c0.1,0.4,0.2,0.8,0.4,1.2c0.1,0.5,0.3,1,0.4,1.5
			c0,0.1,0.1,0.2,0.1,0.3c0.1,0.5,0.2,0.9,0.4,1.3c0.2,0.3,0.4,0.6,0.7,0.8c0.3,0.2,0.7,0.3,1.1,0.3c0.1,0,0.2,0,0.4,0l1.1,0l2.9,0
			c1.3,0,2.5,0,3.8,0c0.6,0,1.3,0,1.9,0c0,0,0.1,0,0.1,0c0.3,0,0.6,0,0.9-0.1c0.2-0.1,0.4-0.5,0.4-0.8l0,0l0.1-0.5c0,0,0,0,0,0
			c0-0.1,0-0.1,0-0.1h0c0.3-1,0.6-2.1,0.9-3.1c0.1-0.2,0.1-0.4,0.2-0.6c0.1-0.4,0.2-0.8,0.4-1.2c0.1-0.4,0.2-0.8,0-1.1
			c-0.1-0.2-0.4-0.2-0.7-0.2c-0.3,0-9.6,0.1-14.5,0.2l-0.2,0l-0.3-1.1c0-0.1-0.1-0.3-0.1-0.5c0-0.1-0.1-0.2-0.1-0.3
			c0-0.1,0-0.1-0.1-0.2c0-0.2-0.1-0.4-0.1-0.5c-0.1-0.3-0.3-0.7-0.6-0.9c-0.2-0.2-0.5-0.4-0.9-0.5c-0.2,0-0.3,0-0.5-0.1
			c-0.2,0-0.5,0-0.7,0c-1,0-2,0-3,0c-0.1,0-0.1,0-0.2,0c-0.2,0-0.4,0-0.5,0c-0.2,0-0.3,0.1-0.4,0.2c-0.2,0.2-0.2,0.6-0.1,0.9
			c0.1,0.2,0.3,0.3,0.5,0.3c0.2,0,0.4,0,0.6,0c0.3,0,0.6,0,0.8,0l0.9,0C13.7,161.8,13.8,161.8,13.9,161.8z M32,165.8l-1.3,4.7
			l-0.3,0.2l-0.1,0c-0.1,0-1.1,0-2.8,0c-2.5,0-6,0-6.4,0l0,0h0c-0.3,0-0.6-0.1-0.8-0.3c-0.2-0.2-0.3-0.5-0.4-0.8
			c-0.1-0.6-0.3-1.3-0.5-2c-0.1-0.2-0.1-0.4-0.2-0.6c-0.1-0.2-0.1-0.4-0.2-0.7l-0.2-0.6H32z"/>
		<path class="st1" d="M22.1,174.2L22.1,174.2c-0.5,0-0.8,0.1-1.1,0.3c-0.3,0.3-0.4,0.6-0.4,1c0,0.4,0.1,0.8,0.4,1.1
			c0.3,0.3,0.6,0.4,1.1,0.4c0.9,0,1.5-0.6,1.5-1.5c0-0.4-0.2-0.8-0.4-1C22.9,174.3,22.5,174.2,22.1,174.2z"/>
		<path class="st1" d="M29.2,174.2L29.2,174.2c-0.5,0-0.8,0.1-1.1,0.3c-0.3,0.3-0.4,0.6-0.4,1.1c0,0.4,0.1,0.8,0.4,1.1
			c0.3,0.3,0.6,0.4,1.1,0.4c0.8,0,1.5-0.7,1.5-1.5c0-0.4-0.1-0.7-0.4-1C30,174.3,29.6,174.2,29.2,174.2z"/>
	</g>
</g>
</svg>
