<?xml version="1.0" encoding="utf-8"?>
<!-- Generator: Adobe Illustrator 19.2.0, SVG Export Plug-In . SVG Version: 6.00 Build 0)  -->
<svg version="1.1" id="Layer_1" xmlns="http://www.w3.org/2000/svg" xmlns:xlink="http://www.w3.org/1999/xlink" x="0px" y="0px"
	 viewBox="0 0 50 200.1" style="enable-background:new 0 0 50 200.1;" xml:space="preserve">
<style type="text/css">
	.st0{fill:#FFFFFF;}
	.st1{fill:#414042;}
	.st2{fill:#1E1E1E;}
	.st3{fill:#333333;}
</style>
<g id="Layer_3">
</g>
<g>
	<g>
		<path class="st0" d="M50.1,146.1c0,2.2-1.8,4-4,4h-42c-2.2,0-4-1.8-4-4v-42c0-2.2,1.8-4,4-4h42c2.2,0,4,1.8,4,4V146.1z"/>
	</g>
</g>
<g>
	<g>
		<path class="st1" d="M50,196.1c0,2.2-1.8,4-4,4H4c-2.2,0-4-1.8-4-4v-42c0-2.2,1.8-4,4-4h42c2.2,0,4,1.8,4,4V196.1z"/>
	</g>
</g>
<g>
	<g>
		<path class="st0" d="M50,46c0,2.2-1.8,4-4,4H4c-2.2,0-4-1.8-4-4V4c0-2.2,1.8-4,4-4h42c2.2,0,4,1.8,4,4V46z"/>
	</g>
</g>
<g>
	<path class="st2" d="M50,96.1c0,2.2-1.8,4-4,4H4c-2.2,0-4-1.8-4-4v-42c0-2.2,1.8-4,4-4h42c2.2,0,4,1.8,4,4V96.1z"/>
</g>
<g>
	<path class="st0" d="M18,192.8v-4.2l-1.6,3.1h-0.7l-1.6-3.1v4.2h-1.2v-6.4h1.3l1.9,3.6l1.9-3.6h1.3v6.4H18z"/>
	<path class="st0" d="M23.5,191.8c0.3,0,0.5-0.1,0.7-0.2s0.4-0.3,0.5-0.5s0.2-0.4,0.3-0.7s0.1-0.5,0.1-0.8v-3.3h1.2v3.3
		c0,0.4-0.1,0.8-0.2,1.2s-0.3,0.7-0.5,1s-0.5,0.5-0.9,0.7s-0.8,0.3-1.3,0.3s-0.9-0.1-1.3-0.3s-0.6-0.4-0.9-0.7
		c-0.2-0.3-0.4-0.6-0.5-1s-0.1-0.8-0.1-1.2v-3.3H22v3.3c0,0.3,0,0.5,0.1,0.8c0.1,0.2,0.1,0.5,0.3,0.7c0.1,0.2,0.3,0.3,0.5,0.5
		S23.2,191.8,23.5,191.8z"/>
	<path class="st0" d="M32.6,187.5h-2v5.3h-1.2v-5.3h-2v-1.1h5.3L32.6,187.5L32.6,187.5z"/>
	<path class="st0" d="M38,191.8v1.1h-4.4v-6.4H38v1.1h-3.1v1.5h2.7v1h-2.7v1.7L38,191.8L38,191.8z"/>
</g>
<path class="st3" d="M28.2,115.4l1.1-1.1c-1.1-1.3-2.7-2.1-4.6-2.1c-1.7,0-3.3,0.8-4.4,2c0.4,0.4,0.8,0.8,1.1,1.1
	c0.8-0.9,2-1.5,3.3-1.5C26.2,113.7,27.4,114.4,28.2,115.4z"/>
<path class="st3" d="M30.8,112.8l1.1-1.1c-1.8-2-4.4-3.2-7.2-3.2s-5.3,1.2-7,3c0.4,0.4,0.8,0.8,1.1,1.1c1.5-1.6,3.6-2.6,5.9-2.6
	C27.2,110,29.4,111.1,30.8,112.8z"/>
<path class="st3" d="M26.7,119.9v-2.4c0-1.1-0.9-1.9-1.9-1.9l0,0c-1.1,0-1.9,0.9-1.9,1.9v2.4H26.7z"/>
<path class="st3" d="M22.9,121.5v2.4c0,1.1,0.9,1.9,1.9,1.9l0,0c1.1,0,1.9-0.9,1.9-1.9v-2.4H22.9z"/>
<path class="st3" d="M30.6,124.3c0,0,0-2.6,0-2.7c0-0.5-0.4-0.9-1-0.9c-0.5,0-0.9,0.4-0.9,0.9c0,0.2,0,2.5,0,2.7
	c0,1.9-1.7,3.5-3.9,3.5c-2.1,0-3.9-1.6-3.9-3.5c0-0.2,0-2.6,0-2.8c0-0.5-0.4-0.9-0.9-1c-0.5,0-0.9,0.3-1,0.9c0,0.1,0,2.8,0,2.9
	c0,2.6,2.1,4.8,4.8,5.2v1.8h-2.2c-0.5,0-0.9,0.4-0.9,0.9s0.4,0.9,0.9,0.9H28c0.5,0,0.9-0.4,0.9-0.9s-0.4-0.9-0.9-0.9h-2.3v-1.8
	C28.5,129.1,30.6,126.9,30.6,124.3z"/>
<path class="st0" d="M28.3,65.3l1.1-1.1c-1.1-1.3-2.7-2.1-4.6-2.1c-1.7,0-3.3,0.8-4.4,2c0.4,0.4,0.8,0.8,1.1,1.1
	c0.8-0.9,2-1.5,3.3-1.5C26.3,63.6,27.5,64.3,28.3,65.3z"/>
<path class="st0" d="M31,62.7l1.1-1.1c-1.8-2-4.4-3.2-7.2-3.2s-5.3,1.2-7,3c0.4,0.4,0.8,0.8,1.1,1.1c1.5-1.6,3.6-2.6,5.9-2.6
	C27.3,59.9,29.5,61,31,62.7z"/>
<path class="st0" d="M26.9,69.8v-2.4c0-1.1-0.9-1.9-1.9-1.9l0,0c-1.1,0-1.9,0.9-1.9,1.9v2.4H26.9z"/>
<path class="st0" d="M23,71.4v2.4c0,1.1,0.9,1.9,1.9,1.9l0,0c1.1,0,1.9-0.9,1.9-1.9v-2.4H23z"/>
<path class="st0" d="M30.7,74.2c0,0,0-2.6,0-2.7c0-0.5-0.4-0.9-1-0.9c-0.5,0-0.9,0.4-0.9,0.9c0,0.2,0,2.5,0,2.7
	c0,1.9-1.7,3.5-3.9,3.5c-2.1,0-3.9-1.6-3.9-3.5c0-0.2,0-2.6,0-2.8c0-0.5-0.4-0.9-0.9-1c-0.5,0-0.9,0.3-1,0.9c0,0.1,0,2.8,0,2.9
	c0,2.6,2.1,4.8,4.8,5.2v1.8h-2.2c-0.5,0-0.9,0.4-0.9,0.9s0.4,0.9,0.9,0.9h6.4c0.5,0,0.9-0.4,0.9-0.9s-0.4-0.9-0.9-0.9h-2.3v-1.8
	C28.6,79,30.7,76.9,30.7,74.2z"/>
<g>
	<path class="st0" d="M18,92.8v-4.2l-1.6,3.1h-0.7l-1.6-3.1v4.2h-1.2v-6.4h1.3l1.9,3.6l1.9-3.6h1.3v6.4H18z"/>
	<path class="st0" d="M23.5,91.8c0.3,0,0.5-0.1,0.7-0.2s0.4-0.3,0.5-0.5s0.2-0.4,0.3-0.7s0.1-0.5,0.1-0.8v-3.3h1.2v3.3
		c0,0.4-0.1,0.8-0.2,1.2c-0.1,0.4-0.3,0.7-0.5,1s-0.5,0.5-0.9,0.7s-0.8,0.3-1.3,0.3s-0.9-0.1-1.3-0.3c-0.4-0.2-0.6-0.4-0.9-0.7
		c-0.2-0.3-0.4-0.6-0.5-1s-0.1-0.8-0.1-1.2v-3.3H22v3.3c0,0.3,0,0.5,0.1,0.8c0.1,0.2,0.1,0.5,0.3,0.7c0.1,0.2,0.3,0.3,0.5,0.5
		S23.2,91.8,23.5,91.8z"/>
	<path class="st0" d="M32.6,87.5h-2v5.3h-1.2v-5.3h-2v-1.1h5.3L32.6,87.5L32.6,87.5z"/>
	<path class="st0" d="M38,91.8v1.1h-4.4v-6.4H38v1.1h-3.1v1.5h2.7v1h-2.7v1.7C34.9,91.8,38,91.8,38,91.8z"/>
</g>
<g>
	<path class="st3" d="M8.3,41.9c0.3,0,0.5-0.1,0.7-0.2s0.4-0.3,0.5-0.5s0.2-0.4,0.3-0.7s0.1-0.5,0.1-0.8v-3.3h1.2v3.3
		c0,0.4-0.1,0.8-0.2,1.2c-0.1,0.4-0.3,0.7-0.5,1s-0.5,0.5-0.9,0.7C9.3,42.9,8.8,43,8.3,43S7.4,42.9,7,42.7S6.4,42.3,6.1,42
		c-0.2-0.3-0.4-0.6-0.5-1s-0.1-0.8-0.1-1.2v-3.3h1.2v3.3c0,0.3,0,0.5,0.1,0.8c0.1,0.2,0.1,0.5,0.3,0.7s0.3,0.3,0.5,0.5
		S8,41.9,8.3,41.9z"/>
	<path class="st3" d="M13.8,38.8v4.1h-1.2v-6.4h1l3.3,4.2v-4.2h1.2v6.4h-1L13.8,38.8z"/>
	<path class="st3" d="M24.9,42.9v-4.2l-1.6,3.1h-0.7L21,38.7v4.2h-1.2v-6.4H21l1.9,3.6l1.9-3.6h1.3v6.4H24.9z"/>
	<path class="st3" d="M30.4,41.9c0.3,0,0.5-0.1,0.7-0.2s0.4-0.3,0.5-0.5s0.2-0.4,0.3-0.7S32,40,32,39.7v-3.3h1.2v3.3
		c0,0.4-0.1,0.8-0.2,1.2c-0.1,0.4-0.3,0.7-0.5,1s-0.5,0.5-0.9,0.7s-0.8,0.3-1.3,0.3s-0.9-0.1-1.3-0.3s-0.6-0.4-0.9-0.7
		c-0.2-0.3-0.4-0.6-0.5-1s-0.1-0.8-0.1-1.2v-3.3h1.2v3.3c0,0.3,0,0.5,0.1,0.8c0.1,0.2,0.1,0.5,0.3,0.7s0.3,0.3,0.5,0.5
		S30.1,41.9,30.4,41.9z"/>
	<path class="st3" d="M39.4,37.6h-2v5.3h-1.2v-5.3h-2v-1.1h5.3L39.4,37.6L39.4,37.6z"/>
	<path class="st3" d="M44.9,41.8v1.1h-4.4v-6.4h4.4v1.1h-3.1v1.5h2.7v1h-2.7v1.7C41.8,41.8,44.9,41.8,44.9,41.8z"/>
</g>
<g>
	<g>
		<path class="st3" d="M27.3,18.7L27.3,18.7L27.3,18.7z"/>
		<path class="st3" d="M26.1,14.4l2.7-2.7c0.4-0.4,0.4-1.1,0-1.5s-1.1-0.4-1.5,0l-2.7,2.7l-2.7-2.7c-0.4-0.4-1.1-0.4-1.5,0
			s-0.4,1.1,0,1.5l2.7,2.7l-2.7,2.7c-0.4,0.4-0.4,1.1,0,1.5s1.1,0.4,1.5,0l2.7-2.7l2.7,2.7c0.4,0.4,1.1,0.4,1.5,0s0.4-1.1,0-1.5
			L26.1,14.4z"/>
	</g>
	<path class="st3" d="M22.9,21.6V24c0,1.1,0.9,1.9,1.9,1.9l0,0c1.1,0,1.9-0.9,1.9-1.9v-2.4H22.9z"/>
	<path class="st3" d="M30.6,24.4c0,0,0-2.6,0-2.7c0-0.5-0.4-0.9-1-0.9c-0.5,0-0.9,0.4-0.9,0.9c0,0.2,0,2.5,0,2.7
		c0,1.9-1.7,3.5-3.9,3.5c-2.1,0-3.9-1.6-3.9-3.5c0-0.2,0-2.6,0-2.8c0-0.5-0.4-0.9-0.9-1c-0.5,0-0.9,0.3-1,0.9c0,0.1,0,2.8,0,2.9
		c0,2.6,2.1,4.8,4.8,5.2v1.8h-2.2c-0.5,0-0.9,0.4-0.9,0.9c0,0.5,0.4,0.9,0.9,0.9H28c0.5,0,0.9-0.4,0.9-0.9s-0.4-0.9-0.9-0.9h-2.3
		v-1.8C28.5,29.2,30.6,27,30.6,24.4z"/>
</g>
<g>
	<g>
		<path class="st0" d="M27.3,168.6L27.3,168.6L27.3,168.6z"/>
		<path class="st0" d="M26.1,164.3l2.7-2.7c0.4-0.4,0.4-1.1,0-1.5s-1.1-0.4-1.5,0l-2.7,2.7l-2.7-2.7c-0.4-0.4-1.1-0.4-1.5,0
			s-0.4,1.1,0,1.5l2.7,2.7l-2.7,2.7c-0.4,0.4-0.4,1.1,0,1.5s1.1,0.4,1.5,0l2.7-2.7l2.7,2.7c0.4,0.4,1.1,0.4,1.5,0s0.4-1.1,0-1.5
			L26.1,164.3z"/>
	</g>
	<path class="st0" d="M22.9,171.5v2.4c0,1.1,0.9,1.9,1.9,1.9l0,0c1.1,0,1.9-0.9,1.9-1.9v-2.4H22.9z"/>
	<path class="st0" d="M30.6,174.3c0,0,0-2.6,0-2.7c0-0.5-0.4-0.9-1-0.9c-0.5,0-0.9,0.4-0.9,0.9c0,0.2,0,2.5,0,2.7
		c0,1.9-1.7,3.5-3.9,3.5c-2.1,0-3.9-1.6-3.9-3.5c0-0.2,0-2.6,0-2.8c0-0.5-0.4-0.9-0.9-1c-0.5,0-0.9,0.3-1,0.9c0,0.1,0,2.8,0,2.9
		c0,2.6,2.1,4.8,4.8,5.2v1.8h-2.2c-0.5,0-0.9,0.4-0.9,0.9s0.4,0.9,0.9,0.9H28c0.5,0,0.9-0.4,0.9-0.9s-0.4-0.9-0.9-0.9h-2.3v-1.8
		C28.5,179.1,30.6,176.9,30.6,174.3z"/>
</g>
<g>
	<path class="st3" d="M8.2,141.9c0.3,0,0.5-0.1,0.7-0.2s0.4-0.3,0.5-0.5s0.2-0.4,0.3-0.7s0.1-0.5,0.1-0.8v-3.3H11v3.3
		c0,0.4-0.1,0.8-0.2,1.2c-0.1,0.4-0.3,0.7-0.5,1s-0.5,0.5-0.9,0.7s-0.8,0.3-1.3,0.3s-0.9-0.1-1.3-0.3S6.3,142.3,6,142
		c-0.2-0.3-0.4-0.6-0.5-1s-0.1-0.8-0.1-1.2v-3.3h1.2v3.3c0,0.3,0,0.5,0.1,0.8c0.1,0.2,0.1,0.5,0.3,0.7c0.1,0.2,0.3,0.3,0.5,0.5
		S7.9,141.9,8.2,141.9z"/>
	<path class="st3" d="M13.7,138.8v4.1h-1.2v-6.4h1l3.3,4.2v-4.2H18v6.4h-1L13.7,138.8z"/>
	<path class="st3" d="M24.8,142.9v-4.2l-1.6,3.2h-0.7l-1.6-3.2v4.2h-1.2v-6.4H21l1.9,3.6l1.9-3.6H26v6.4H24.8z"/>
	<path class="st3" d="M30.3,141.9c0.3,0,0.5-0.1,0.7-0.2s0.4-0.3,0.5-0.5s0.2-0.4,0.3-0.7s0.1-0.5,0.1-0.8v-3.3h1.2v3.3
		c0,0.4-0.1,0.8-0.2,1.2c-0.1,0.4-0.3,0.7-0.5,1s-0.5,0.5-0.9,0.7s-0.8,0.3-1.3,0.3s-0.9-0.1-1.3-0.3s-0.6-0.4-0.9-0.7
		c-0.2-0.3-0.4-0.6-0.5-1s-0.1-0.8-0.1-1.2v-3.3h1.2v3.3c0,0.3,0,0.5,0.1,0.8c0.1,0.2,0.1,0.5,0.3,0.7c0.1,0.2,0.3,0.3,0.5,0.5
		S30,141.9,30.3,141.9z"/>
	<path class="st3" d="M39.3,137.6h-2v5.3H36v-5.3h-2v-1.1h5.3V137.6z"/>
	<path class="st3" d="M44.8,141.8v1.1h-4.4v-6.4h4.4v1.1h-3.1v1.5h2.7v1h-2.7v1.7L44.8,141.8L44.8,141.8z"/>
</g>
</svg>
