<?xml version="1.0" encoding="utf-8"?>
<!-- Generator: Adobe Illustrator 19.2.0, SVG Export Plug-In . SVG Version: 6.00 Build 0)  -->
<svg version="1.1" id="Layer_1" xmlns="http://www.w3.org/2000/svg" xmlns:xlink="http://www.w3.org/1999/xlink" x="0px" y="0px"
	 viewBox="0 0 50 150" style="enable-background:new 0 0 50 150;" xml:space="preserve">
<style type="text/css">
	.st0{opacity:0.9;}
	.st1{fill:#FFFFFF;}
	.st2{fill:#1E1E1E;}
	.st3{fill:#EAEAEA;}
	.st4{opacity:0.49;}
	.st5{opacity:0.49;fill:#EAEAEA;}
</style>
<g>
	<g class="st0">
		<path class="st1" d="M50,46.3c0,2.2-1.8,4-4,4H4c-2.2,0-4-1.8-4-4v-42c0-2.2,1.8-4,4-4h42c2.2,0,4,1.8,4,4V46.3z"/>
	</g>
</g>
<g>
	<g class="st0">
		<path class="st2" d="M50,96.3c0,2.2-1.8,4-4,4H4c-2.2,0-4-1.8-4-4v-42c0-2.2,1.8-4,4-4h42c2.2,0,4,1.8,4,4V96.3z"/>
	</g>
</g>
<g>
	<path d="M15.2,42.6v-4.2l-1.6,3.1h-0.7l-1.6-3.1v4.2H10v-6.4h1.3l1.9,3.6l1.9-3.6h1.3v6.4H15.2z"/>
	<path d="M20.6,42.6c-0.5,0-0.9-0.1-1.2-0.3s-0.7-0.4-1-0.7c-0.3-0.3-0.5-0.6-0.6-1c-0.1-0.4-0.2-0.8-0.2-1.2c0-0.4,0.1-0.8,0.2-1.2
		s0.4-0.7,0.6-1c0.3-0.3,0.6-0.5,1-0.7s0.8-0.3,1.2-0.3c0.5,0,0.9,0.1,1.2,0.3s0.7,0.4,1,0.7c0.3,0.3,0.5,0.7,0.6,1
		c0.1,0.4,0.2,0.8,0.2,1.2c0,0.4-0.1,0.8-0.2,1.2c-0.2,0.4-0.4,0.7-0.6,1c-0.3,0.3-0.6,0.5-1,0.7C21.5,42.6,21.1,42.6,20.6,42.6z
		 M18.9,39.4c0,0.3,0,0.5,0.1,0.8c0.1,0.3,0.2,0.5,0.4,0.7c0.2,0.2,0.3,0.4,0.6,0.5s0.5,0.2,0.8,0.2c0.3,0,0.5-0.1,0.8-0.2
		s0.4-0.3,0.6-0.5c0.1-0.2,0.3-0.4,0.3-0.7s0.1-0.5,0.1-0.8c0-0.3,0-0.5-0.1-0.8c-0.1-0.3-0.2-0.5-0.4-0.7c-0.2-0.2-0.3-0.4-0.6-0.5
		c-0.2-0.1-0.5-0.2-0.7-0.2c-0.3,0-0.5,0.1-0.8,0.2s-0.4,0.3-0.6,0.5c-0.2,0.2-0.3,0.4-0.3,0.7C18.9,38.9,18.9,39.1,18.9,39.4z"/>
	<path d="M24.9,42.6v-6.4h2.3c0.5,0,1,0.1,1.4,0.3c0.4,0.2,0.7,0.4,1,0.7c0.3,0.3,0.5,0.6,0.6,1c0.1,0.4,0.2,0.8,0.2,1.2
		c0,0.5-0.1,0.9-0.2,1.3c-0.1,0.4-0.4,0.7-0.6,1c-0.3,0.3-0.6,0.5-1,0.6c-0.4,0.2-0.8,0.2-1.3,0.2H24.9z M29.1,39.4
		c0-0.3,0-0.6-0.1-0.8c-0.1-0.3-0.2-0.5-0.4-0.7c-0.2-0.2-0.4-0.3-0.6-0.4c-0.2-0.1-0.5-0.2-0.8-0.2h-1.1v4.2h1.1
		c0.3,0,0.6-0.1,0.8-0.2c0.2-0.1,0.4-0.3,0.6-0.4c0.2-0.2,0.3-0.4,0.4-0.7C29,40,29.1,39.7,29.1,39.4z"/>
	<path d="M36,41.5v1.1h-4.4v-6.4h4.4v1.1h-3.1v1.5h2.7v1h-2.7v1.7H36z"/>
	<path d="M37.2,42.6v-6.4h1.2v5.3h3.3v1.1H37.2z"/>
</g>
<g>
	<path class="st3" d="M15.2,92.6v-4.2l-1.6,3.2h-0.7l-1.6-3.2v4.2H10v-6.4h1.3l1.9,3.6l1.9-3.6h1.3v6.4H15.2z"/>
	<path class="st3" d="M20.6,92.7c-0.5,0-0.9-0.1-1.2-0.3c-0.4-0.2-0.7-0.4-1-0.7c-0.3-0.3-0.5-0.6-0.6-1c-0.1-0.4-0.2-0.8-0.2-1.2
		c0-0.4,0.1-0.8,0.2-1.2c0.2-0.4,0.4-0.7,0.6-1c0.3-0.3,0.6-0.5,1-0.7s0.8-0.3,1.2-0.3c0.5,0,0.9,0.1,1.2,0.3c0.4,0.2,0.7,0.4,1,0.7
		c0.3,0.3,0.5,0.7,0.6,1c0.1,0.4,0.2,0.8,0.2,1.2c0,0.4-0.1,0.8-0.2,1.2c-0.2,0.4-0.4,0.7-0.6,1c-0.3,0.3-0.6,0.5-1,0.7
		S21.1,92.7,20.6,92.7z M18.9,89.4c0,0.3,0,0.5,0.1,0.8c0.1,0.3,0.2,0.5,0.4,0.7c0.2,0.2,0.3,0.4,0.6,0.5s0.5,0.2,0.8,0.2
		c0.3,0,0.5-0.1,0.8-0.2s0.4-0.3,0.6-0.5c0.1-0.2,0.3-0.4,0.3-0.7s0.1-0.5,0.1-0.8c0-0.3,0-0.5-0.1-0.8s-0.2-0.5-0.4-0.7
		c-0.2-0.2-0.3-0.4-0.6-0.5c-0.2-0.1-0.5-0.2-0.7-0.2c-0.3,0-0.5,0.1-0.8,0.2s-0.4,0.3-0.6,0.5c-0.2,0.2-0.3,0.4-0.3,0.7
		S18.9,89.1,18.9,89.4z"/>
	<path class="st3" d="M24.9,92.6v-6.4h2.3c0.5,0,1,0.1,1.4,0.3c0.4,0.2,0.7,0.4,1,0.7c0.3,0.3,0.5,0.6,0.6,1
		c0.1,0.4,0.2,0.8,0.2,1.2c0,0.5-0.1,0.9-0.2,1.3c-0.1,0.4-0.4,0.7-0.6,1c-0.3,0.3-0.6,0.5-1,0.6c-0.4,0.2-0.8,0.2-1.3,0.2H24.9z
		 M29.1,89.4c0-0.3,0-0.6-0.1-0.8c-0.1-0.3-0.2-0.5-0.4-0.7c-0.2-0.2-0.4-0.3-0.6-0.4c-0.2-0.1-0.5-0.2-0.8-0.2h-1.1v4.2h1.1
		c0.3,0,0.6-0.1,0.8-0.2c0.2-0.1,0.4-0.3,0.6-0.4c0.2-0.2,0.3-0.4,0.4-0.7S29.1,89.7,29.1,89.4z"/>
	<path class="st3" d="M36,91.5v1.1h-4.4v-6.4h4.4v1.1h-3.1v1.5h2.7v1h-2.7v1.7H36z"/>
	<path class="st3" d="M37.2,92.6v-6.4h1.2v5.3h3.3v1.1H37.2z"/>
</g>
<path d="M39.5,10.9c-0.1-0.3-0.4-0.5-0.8-0.4l-5,0.9l2.5-4c0.2-0.3,0.1-0.6-0.1-0.8s-0.5-0.3-0.8-0.2l-11.9,5.5
	c-0.9-0.3-4-1.5-6.2-2.4c0,0,0,0,0,0c0,0,0,0,0,0c0,0,0,0-0.1,0c0,0,0-0.2,0-0.2c0,0-0.1-0.2-0.1-0.2c0,0,0,0,0,0
	C17,9,17,9.2,17,9.2c0,0,0,0.1,0,0.1c0,0,0,0.1,0,0.1c0,0-0.1,0-0.1,0c0,0,0,0,0,0c0,0,0,0-0.1,0c0,0,0,0,0,0c0,0,0,0-0.1,0
	c0,0,0,0,0,0c0,0-0.1,0.1-0.1,0.1c0,0,0,0,0,0c0,0,0,0-0.1,0.1c0,0,0,0,0,0c0,0,0,0,0,0c0,0,0,0,0,0c0,0,0,0,0,0c0,0,0,0,0,0.1
	c0,0,0,0,0,0l-1.5,2.9l-1.8,2.2c-0.2,0.2-0.2,0.6,0,0.8c0.1,0.2,0.3,0.3,0.6,0.3c0.1,0,0.1,0,0.2,0l2.8-0.9l2.3-0.1l-1.5,2.8
	c-0.1,0.2-0.1,0.6,0.1,0.8c0,0,1.4,1.6,2.9,3.2c0.9,0.9,1.6,1.7,2.1,2.2c0.4,0.4,0.6,0.6,0.9,0.8l-0.9,3.4l-2.5,1
	c-0.3,0.1-0.5,0.5-0.4,0.9c0.1,0.3,0.4,0.4,0.6,0.4c0.1,0,0.2,0,0.3,0l2.5-1l1,0.9c0.1,0.1,0.3,0.2,0.5,0.2c0.2,0,0.4-0.1,0.5-0.2
	c0.2-0.3,0.2-0.7-0.1-1l-1-0.9l0.9-3.4l4.2,5c0.1,0.2,0.3,0.2,0.5,0.2c0.1,0,0.1,0,0.2,0l4.7-1.3c0.3-0.1,0.5-0.3,0.5-0.6
	c0-0.3-0.1-0.5-0.4-0.7l-7.6-4l2.5-5.1l9.9-6.9C39.5,11.6,39.6,11.2,39.5,10.9z M28.3,17.5l-6.8-3l2.3-1h0l10.1-4.7L28.3,17.5z
	 M20.1,13.4l-1.4-1.8c0.9,0.4,2.2,0.9,3,1.2L20.1,13.4z M16.8,13.7L16.3,13l0.8-1.6l1.5,2.1l0.1,0.1L16.8,13.7z M18.8,18l1.3-2.4
	c1,2.5,2,5.1,2.6,6.7C21.6,21.2,20.2,19.5,18.8,18z M29.6,28.8L26.4,25l5.8,3.1L29.6,28.8z M24.4,23.2c-0.3-0.8-2.4-5.8-1.7-4.3
	c0,0.1-1.1-2.7-1.6-3.7l6.7,3.3l-2.6,5.3L24.4,23.2z M30.4,16.5l2.4-3.5l4-0.9L30.4,16.5z"/>
<path class="st3" d="M38.6,61.3c-0.1-0.3-0.4-0.5-0.8-0.4l-5,0.9l2.5-4c0.2-0.3,0.1-0.6-0.1-0.8s-0.5-0.3-0.8-0.2l-11.9,5.5
	c-0.9-0.3-4-1.5-6.2-2.4c0,0,0,0,0,0c0,0,0,0,0,0c0,0,0,0-0.1,0c0,0,0,0.1,0,0.1c0,0-0.1,0.1-0.1,0.1c0,0,0,0,0,0
	c0,0-0.1-0.1-0.1-0.1c0,0,0-0.1,0-0.1c0,0,0,0,0,0c0,0-0.1,0-0.1,0c0,0,0,0,0,0c0,0,0,0-0.1,0c0,0,0,0,0,0c0,0,0,0-0.1,0
	c0,0,0,0,0,0c0,0-0.1,0.1-0.1,0.1c0,0,0,0,0,0c0,0,0,0-0.1,0.1c0,0,0,0,0,0c0,0,0,0,0,0c0,0,0,0,0,0c0,0,0,0,0,0c0,0,0,0,0,0.1
	c0,0,0,0,0,0L14,63.1l-1.8,2.2c-0.2,0.2-0.2,0.6,0,0.8c0.1,0.2,0.3,0.3,0.6,0.3c0.1,0,0.1,0,0.2,0l2.8-0.9l2.3-0.1l-1.5,2.8
	c-0.1,0.2-0.1,0.6,0.1,0.8c0,0,1.4,1.6,2.9,3.2c0.9,0.9,1.6,1.7,2.1,2.2c0.4,0.4,0.6,0.6,0.9,0.8l-0.9,3.4l-2.5,1
	c-0.3,0.1-0.5,0.5-0.4,0.9c0.1,0.3,0.4,0.4,0.6,0.4c0.1,0,0.2,0,0.3,0l2.5-1l1,0.9c0.1,0.1,0.3,0.2,0.5,0.2c0.2,0,0.4-0.1,0.5-0.2
	c0.2-0.3,0.2-0.7-0.1-1l-1-0.9l0.9-3.4l4.2,5c0.1,0.2,0.3,0.2,0.5,0.2c0.1,0,0.1,0,0.2,0l4.7-1.3c0.3-0.1,0.5-0.3,0.5-0.6
	c0-0.3-0.1-0.5-0.4-0.7l-7.6-4l2.5-5.1l9.9-6.9C38.6,61.9,38.7,61.6,38.6,61.3z M27.4,67.8l-6.8-3l2.3-1h0L33,59.1L27.4,67.8z
	 M19.2,63.7l-1.4-1.8c0.9,0.4,2.2,0.9,3,1.2L19.2,63.7z M15.9,64l-0.5-0.7l0.8-1.6l1.5,2.1l0.1,0.1L15.9,64z M17.9,68.3l1.3-2.4
	c1,2.5,2,5.1,2.6,6.7C20.7,71.5,19.3,69.9,17.9,68.3z M28.7,79.2l-3.2-3.8l5.8,3.1L28.7,79.2z M23.5,73.5c-0.3-0.8-2.4-5.8-1.7-4.3
	c0,0.1-1.1-2.7-1.6-3.7l6.7,3.3l-2.6,5.3L23.5,73.5z M29.5,66.8l2.4-3.5l4-0.9L29.5,66.8z"/>
<g class="st4">
	<g class="st0">
		<path class="st2" d="M50,146.3c0,2.2-1.8,4-4,4H4c-2.2,0-4-1.8-4-4v-42c0-2.2,1.8-4,4-4h42c2.2,0,4,1.8,4,4V146.3z"/>
	</g>
</g>
<g class="st4">
	<path class="st3" d="M15.2,142.6v-4.2l-1.6,3.2h-0.7l-1.6-3.2v4.2H10v-6.4h1.3l1.9,3.6l1.9-3.6h1.3v6.4H15.2z"/>
	<path class="st3" d="M20.6,142.7c-0.5,0-0.9-0.1-1.2-0.3c-0.4-0.2-0.7-0.4-1-0.7c-0.3-0.3-0.5-0.6-0.6-1c-0.1-0.4-0.2-0.8-0.2-1.2
		c0-0.4,0.1-0.8,0.2-1.2c0.2-0.4,0.4-0.7,0.6-1c0.3-0.3,0.6-0.5,1-0.7s0.8-0.3,1.2-0.3c0.5,0,0.9,0.1,1.2,0.3c0.4,0.2,0.7,0.4,1,0.7
		c0.3,0.3,0.5,0.7,0.6,1c0.1,0.4,0.2,0.8,0.2,1.2c0,0.4-0.1,0.8-0.2,1.2c-0.2,0.4-0.4,0.7-0.6,1c-0.3,0.3-0.6,0.5-1,0.7
		S21.1,142.7,20.6,142.7z M18.9,139.4c0,0.3,0,0.5,0.1,0.8c0.1,0.3,0.2,0.5,0.4,0.7c0.2,0.2,0.3,0.4,0.6,0.5s0.5,0.2,0.8,0.2
		c0.3,0,0.5-0.1,0.8-0.2s0.4-0.3,0.6-0.5c0.1-0.2,0.3-0.4,0.3-0.7s0.1-0.5,0.1-0.8c0-0.3,0-0.5-0.1-0.8s-0.2-0.5-0.4-0.7
		c-0.2-0.2-0.3-0.4-0.6-0.5c-0.2-0.1-0.5-0.2-0.7-0.2c-0.3,0-0.5,0.1-0.8,0.2s-0.4,0.3-0.6,0.5c-0.2,0.2-0.3,0.4-0.3,0.7
		S18.9,139.1,18.9,139.4z"/>
	<path class="st3" d="M24.9,142.6v-6.4h2.3c0.5,0,1,0.1,1.4,0.3c0.4,0.2,0.7,0.4,1,0.7c0.3,0.3,0.5,0.6,0.6,1
		c0.1,0.4,0.2,0.8,0.2,1.2c0,0.5-0.1,0.9-0.2,1.3c-0.1,0.4-0.4,0.7-0.6,1c-0.3,0.3-0.6,0.5-1,0.6c-0.4,0.2-0.8,0.2-1.3,0.2H24.9z
		 M29.1,139.4c0-0.3,0-0.6-0.1-0.8c-0.1-0.3-0.2-0.5-0.4-0.7c-0.2-0.2-0.4-0.3-0.6-0.4c-0.2-0.1-0.5-0.2-0.8-0.2h-1.1v4.2h1.1
		c0.3,0,0.6-0.1,0.8-0.2c0.2-0.1,0.4-0.3,0.6-0.4c0.2-0.2,0.3-0.4,0.4-0.7S29.1,139.7,29.1,139.4z"/>
	<path class="st3" d="M36,141.5v1.1h-4.4v-6.4h4.4v1.1h-3.1v1.5h2.7v1h-2.7v1.7H36z"/>
	<path class="st3" d="M37.2,142.6v-6.4h1.2v5.3h3.3v1.1H37.2z"/>
</g>
<path class="st5" d="M38.6,111.3c-0.1-0.3-0.4-0.5-0.8-0.4l-5,0.9l2.5-4c0.2-0.3,0.1-0.6-0.1-0.8s-0.5-0.3-0.8-0.2l-11.9,5.5
	c-0.9-0.3-4-1.5-6.2-2.4c0,0,0,0,0,0c0,0,0,0,0,0c0,0,0,0-0.1,0c0,0,0,0.1,0,0.1c0,0-0.1,0.1-0.1,0.1c0,0,0,0,0,0
	c0,0-0.1-0.1-0.1-0.1c0,0,0-0.1,0-0.1c0,0,0,0,0,0c0,0-0.1,0-0.1,0c0,0,0,0,0,0c0,0,0,0-0.1,0c0,0,0,0,0,0c0,0,0,0-0.1,0
	c0,0,0,0,0,0c0,0-0.1,0.1-0.1,0.1c0,0,0,0,0,0c0,0,0,0-0.1,0.1c0,0,0,0,0,0c0,0,0,0,0,0c0,0,0,0,0,0c0,0,0,0,0,0c0,0,0,0,0,0.1
	c0,0,0,0,0,0l-1.5,2.9l-1.8,2.2c-0.2,0.2-0.2,0.6,0,0.8c0.1,0.2,0.3,0.3,0.6,0.3c0.1,0,0.1,0,0.2,0l2.8-0.9l2.3-0.1l-1.5,2.8
	c-0.1,0.2-0.1,0.6,0.1,0.8c0,0,1.4,1.6,2.9,3.2c0.9,0.9,1.6,1.7,2.1,2.2c0.4,0.4,0.6,0.6,0.9,0.8l-0.9,3.4l-2.5,1
	c-0.3,0.1-0.5,0.5-0.4,0.9c0.1,0.3,0.4,0.4,0.6,0.4c0.1,0,0.2,0,0.3,0l2.5-1l1,0.9c0.1,0.1,0.3,0.2,0.5,0.2c0.2,0,0.4-0.1,0.5-0.2
	c0.2-0.3,0.2-0.7-0.1-1l-1-0.9l0.9-3.4l4.2,5c0.1,0.2,0.3,0.2,0.5,0.2c0.1,0,0.1,0,0.2,0l4.7-1.3c0.3-0.1,0.5-0.3,0.5-0.6
	c0-0.3-0.1-0.5-0.4-0.7l-7.6-4l2.5-5.1l9.9-6.9C38.6,111.9,38.7,111.6,38.6,111.3z M27.4,117.8l-6.8-3l2.3-1h0l10.1-4.7L27.4,117.8z
	 M19.2,113.7l-1.4-1.8c0.9,0.4,2.2,0.9,3,1.2L19.2,113.7z M15.9,114l-0.5-0.7l0.8-1.6l1.5,2.1l0.1,0.1L15.9,114z M17.9,118.3
	l1.3-2.4c1,2.5,2,5.1,2.6,6.7C20.7,121.5,19.3,119.9,17.9,118.3z M28.7,129.2l-3.2-3.8l5.8,3.1L28.7,129.2z M23.5,123.5
	c-0.3-0.8-2.4-5.8-1.7-4.3c0,0.1-1.1-2.7-1.6-3.7l6.7,3.3l-2.6,5.3L23.5,123.5z M29.5,116.8l2.4-3.5l4-0.9L29.5,116.8z"/>
</svg>
