<?xml version="1.0" encoding="utf-8"?>
<!-- Generator: Adobe Illustrator 19.2.0, SVG Export Plug-In . SVG Version: 6.00 Build 0)  -->
<svg version="1.1" id="Layer_1" xmlns="http://www.w3.org/2000/svg" xmlns:xlink="http://www.w3.org/1999/xlink" x="0px" y="0px"
	 viewBox="0 0 50 150" style="enable-background:new 0 0 50 150;" xml:space="preserve">
<style type="text/css">
	.st0{opacity:0.9;}
	.st1{fill:#1E1E1E;}
	.st2{fill:#FFFFFF;}
	.st3{opacity:0.47;}
	.st4{fill:#EAEAEA;}
</style>
<g class="st0">
	<path class="st1" d="M50,96c0,2.2-1.8,4-4,4H4c-2.2,0-4-1.8-4-4V54c0-2.2,1.8-4,4-4h42c2.2,0,4,1.8,4,4V96z"/>
</g>
<g class="st0">
	<path class="st2" d="M50,46c0,2.2-1.8,4-4,4H4c-2.2,0-4-1.8-4-4V4c0-2.2,1.8-4,4-4h42c2.2,0,4,1.8,4,4V46z"/>
</g>
<g class="st3">
	<path class="st1" d="M50,146c0,2.2-1.8,4-4,4H4c-2.2,0-4-1.8-4-4v-42c0-2.2,1.8-4,4-4h42c2.2,0,4,1.8,4,4V146z"/>
</g>
<g>
	<path d="M28.7,19.9c0-0.7,0.6-1.3,1.3-1.3l0,0c0.7,0,1.3,0.6,1.3,1.3l0,0c0,0.7-0.6,1.3-1.3,1.3l0,0C29.3,21.2,28.7,20.6,28.7,19.9
		z"/>
	<path d="M25.5,23.8c0-0.7,0.6-1.3,1.3-1.3l0,0c0.7,0,1.3,0.6,1.3,1.3l0,0c0,0.7-0.6,1.3-1.3,1.3l0,0C26.1,25.2,25.5,24.6,25.5,23.8
		z"/>
	<path d="M22,24.9c0-0.7,0.6-1.3,1.3-1.3l0,0c0.7,0,1.3,0.6,1.3,1.3l0,0c0,0.7-0.6,1.3-1.3,1.3l0,0C22.6,26.2,22,25.6,22,24.9z"/>
	<path d="M19.3,21.4c0-0.7,0.6-1.3,1.3-1.3l0,0c0.7,0,1.3,0.6,1.3,1.3l0,0c0,0.7-0.6,1.3-1.3,1.3l0,0C19.9,22.7,19.3,22.1,19.3,21.4
		z"/>
	<path d="M24,29.4c-0.3-0.2-0.5-0.5-0.5-0.9c-0.1-0.3,0-0.7,0.2-1c0.2-0.3,0.5-0.5,0.9-0.5c0.3-0.1,0.7,0,1,0.2
		c0.3,0.2,0.5,0.5,0.5,0.9c0.1,0.3,0,0.7-0.2,1c-0.2,0.3-0.5,0.5-0.9,0.5C24.7,29.7,24.3,29.6,24,29.4z"/>
	<path d="M13.3,17.7c0-0.7,0.6-1.3,1.3-1.3l0,0c0.7,0,1.3,0.6,1.3,1.3l0,0c0,0.7-0.6,1.3-1.3,1.3l0,0C14,19.1,13.3,18.5,13.3,17.7z"
		/>
	<path d="M19.8,15c0-0.7,0.6-1.3,1.3-1.3l0,0c0.7,0,1.3,0.6,1.3,1.3l0,0c0,0.7-0.6,1.3-1.3,1.3l0,0C20.4,16.4,19.8,15.8,19.8,15z"/>
	<path d="M23.9,20.5c0-0.7,0.6-1.3,1.3-1.3l0,0c0.7,0,1.3,0.6,1.3,1.3l0,0c0,0.7-0.6,1.3-1.3,1.3l0,0C24.6,21.9,23.9,21.2,23.9,20.5
		z"/>
	<path d="M33.4,17.5c0-0.7,0.6-1.3,1.3-1.3l0,0c0.7,0,1.3,0.6,1.3,1.3l0,0c0,0.7-0.6,1.3-1.3,1.3l0,0C34,18.8,33.4,18.2,33.4,17.5z"
		/>
	<path d="M27,15.3c0-0.7,0.6-1.3,1.3-1.3l0,0c0.7,0,1.3,0.6,1.3,1.3l0,0c0,0.7-0.6,1.3-1.3,1.3l0,0C27.6,16.6,27,16,27,15.3z"/>
	<path d="M17.1,10c0-0.7,0.6-1.3,1.3-1.3l0,0c0.7,0,1.3,0.6,1.3,1.3l0,0c0,0.7-0.6,1.3-1.3,1.3l0,0C17.7,11.4,17.1,10.8,17.1,10z"/>
	<path d="M30.7,11.4c0-0.7,0.6-1.3,1.3-1.3l0,0c0.7,0,1.3,0.6,1.3,1.3l0,0c0,0.7-0.6,1.3-1.3,1.3l0,0C31.3,12.7,30.7,12.1,30.7,11.4
		z"/>
</g>
<g>
	<path d="M4.5,42.1v-6.4h2.7c0.3,0,0.6,0.1,0.8,0.2s0.5,0.3,0.6,0.5c0.2,0.2,0.3,0.4,0.4,0.7c0.1,0.3,0.2,0.5,0.2,0.8
		c0,0.3,0,0.5-0.1,0.8c-0.1,0.3-0.2,0.5-0.4,0.7c-0.2,0.2-0.4,0.4-0.6,0.5c-0.2,0.1-0.5,0.2-0.8,0.2H5.7v2.1H4.5z M5.7,38.9h1.4
		c0.2,0,0.4-0.1,0.6-0.3C7.9,38.4,8,38.1,8,37.8c0-0.2,0-0.3-0.1-0.4c0-0.1-0.1-0.2-0.2-0.3c-0.1-0.1-0.2-0.2-0.3-0.2
		c-0.1,0-0.2-0.1-0.3-0.1H5.7V38.9z"/>
	<path d="M9,42.1l2.5-6.4h1l2.5,6.4h-1.3l-0.6-1.6h-2.2l-0.6,1.6H9z M12,37l-0.9,2.6h1.8L12,37z"/>
	<path d="M15.7,42.1v-6.4h2.8c0.3,0,0.6,0.1,0.8,0.2s0.5,0.3,0.6,0.5c0.2,0.2,0.3,0.4,0.4,0.7c0.1,0.3,0.2,0.5,0.2,0.8
		c0,0.4-0.1,0.8-0.3,1.1c-0.2,0.3-0.5,0.6-0.8,0.7l1.5,2.4h-1.4l-1.3-2.1h-1.2v2.1H15.7z M16.9,38.9h1.6c0.1,0,0.2,0,0.3-0.1
		c0.1-0.1,0.2-0.1,0.3-0.2c0.1-0.1,0.1-0.2,0.2-0.3s0.1-0.3,0.1-0.4c0-0.1,0-0.3-0.1-0.4s-0.1-0.2-0.2-0.3c-0.1-0.1-0.2-0.2-0.3-0.2
		c-0.1-0.1-0.2-0.1-0.3-0.1h-1.5V38.9z"/>
	<path d="M26.4,36.8h-2v5.3h-1.2v-5.3h-2v-1.1h5.3V36.8z"/>
	<path d="M27.2,42.1v-6.4h1.2v6.4H27.2z"/>
	<path d="M29.4,38.9c0-0.4,0.1-0.8,0.2-1.2c0.1-0.4,0.3-0.7,0.6-1c0.3-0.3,0.6-0.5,1-0.7s0.8-0.3,1.3-0.3c0.6,0,1.1,0.1,1.5,0.4
		c0.4,0.3,0.7,0.6,0.9,1l-1,0.7c-0.1-0.2-0.2-0.3-0.3-0.5c-0.1-0.1-0.2-0.2-0.4-0.3c-0.1-0.1-0.3-0.1-0.4-0.2c-0.1,0-0.3,0-0.4,0
		c-0.3,0-0.6,0.1-0.8,0.2s-0.4,0.3-0.6,0.5c-0.1,0.2-0.3,0.4-0.3,0.7s-0.1,0.5-0.1,0.8c0,0.3,0,0.6,0.1,0.8c0.1,0.3,0.2,0.5,0.4,0.7
		c0.2,0.2,0.3,0.4,0.6,0.5c0.2,0.1,0.5,0.2,0.7,0.2c0.1,0,0.3,0,0.4-0.1c0.1,0,0.3-0.1,0.4-0.2c0.1-0.1,0.3-0.2,0.4-0.3
		c0.1-0.1,0.2-0.3,0.3-0.4l1,0.6c-0.1,0.2-0.2,0.5-0.4,0.6c-0.2,0.2-0.4,0.3-0.6,0.5c-0.2,0.1-0.5,0.2-0.7,0.3
		c-0.3,0.1-0.5,0.1-0.8,0.1c-0.4,0-0.9-0.1-1.2-0.3c-0.4-0.2-0.7-0.4-1-0.8c-0.3-0.3-0.5-0.7-0.6-1.1C29.4,39.7,29.4,39.3,29.4,38.9
		z"/>
	<path d="M35.8,42.1v-6.4H37V41h3.3v1.1H35.8z"/>
	<path d="M45.5,41v1.1h-4.4v-6.4h4.4v1.1h-3.1v1.5H45v1h-2.7V41H45.5z"/>
</g>
<g>
	<path class="st4" d="M29.2,69.9c0-0.7,0.6-1.3,1.3-1.3l0,0c0.7,0,1.3,0.6,1.3,1.3l0,0c0,0.7-0.6,1.3-1.3,1.3l0,0
		C29.8,71.2,29.2,70.6,29.2,69.9z"/>
	<path class="st4" d="M26,73.8c0-0.7,0.6-1.3,1.3-1.3l0,0c0.7,0,1.3,0.6,1.3,1.3l0,0c0,0.7-0.6,1.3-1.3,1.3l0,0
		C26.6,75.2,26,74.6,26,73.8z"/>
	<path class="st4" d="M22.5,74.9c0-0.7,0.6-1.3,1.3-1.3l0,0c0.7,0,1.3,0.6,1.3,1.3l0,0c0,0.7-0.6,1.3-1.3,1.3l0,0
		C23.1,76.2,22.5,75.6,22.5,74.9z"/>
	<path class="st4" d="M19.8,71.4c0-0.7,0.6-1.3,1.3-1.3l0,0c0.7,0,1.3,0.6,1.3,1.3l0,0c0,0.7-0.6,1.3-1.3,1.3l0,0
		C20.4,72.7,19.8,72.1,19.8,71.4z"/>
	<path class="st4" d="M24.5,79.4c-0.3-0.2-0.5-0.5-0.5-0.9c-0.1-0.3,0-0.7,0.2-1c0.2-0.3,0.5-0.5,0.9-0.5c0.3-0.1,0.7,0,1,0.2
		c0.3,0.2,0.5,0.5,0.5,0.9c0.1,0.3,0,0.7-0.2,1c-0.2,0.3-0.5,0.5-0.9,0.5C25.1,79.7,24.8,79.6,24.5,79.4z"/>
	<path class="st4" d="M13.8,67.7c0-0.7,0.6-1.3,1.3-1.3l0,0c0.7,0,1.3,0.6,1.3,1.3l0,0c0,0.7-0.6,1.3-1.3,1.3l0,0
		C14.4,69.1,13.8,68.5,13.8,67.7z"/>
	<path class="st4" d="M20.3,65c0-0.7,0.6-1.3,1.3-1.3l0,0c0.7,0,1.3,0.6,1.3,1.3l0,0c0,0.7-0.6,1.3-1.3,1.3l0,0
		C20.9,66.4,20.3,65.8,20.3,65z"/>
	<path class="st4" d="M24.4,70.5c0-0.7,0.6-1.3,1.3-1.3l0,0c0.7,0,1.3,0.6,1.3,1.3l0,0c0,0.7-0.6,1.3-1.3,1.3l0,0
		C25,71.9,24.4,71.2,24.4,70.5z"/>
	<path class="st4" d="M33.9,67.5c0-0.7,0.6-1.3,1.3-1.3l0,0c0.7,0,1.3,0.6,1.3,1.3l0,0c0,0.7-0.6,1.3-1.3,1.3l0,0
		C34.5,68.8,33.9,68.2,33.9,67.5z"/>
	<path class="st4" d="M27.4,65.3c0-0.7,0.6-1.3,1.3-1.3l0,0c0.7,0,1.3,0.6,1.3,1.3l0,0c0,0.7-0.6,1.3-1.3,1.3l0,0
		C28.1,66.6,27.4,66,27.4,65.3z"/>
	<path class="st4" d="M17.6,60c0-0.7,0.6-1.3,1.3-1.3l0,0c0.7,0,1.3,0.6,1.3,1.3l0,0c0,0.7-0.6,1.3-1.3,1.3l0,0
		C18.2,61.4,17.6,60.8,17.6,60z"/>
	<path class="st4" d="M31.2,61.4c0-0.7,0.6-1.3,1.3-1.3l0,0c0.7,0,1.3,0.6,1.3,1.3l0,0c0,0.7-0.6,1.3-1.3,1.3l0,0
		C31.8,62.7,31.2,62.1,31.2,61.4z"/>
</g>
<g>
	<path class="st4" d="M5,92.1v-6.4h2.7c0.3,0,0.6,0.1,0.8,0.2s0.5,0.3,0.6,0.5c0.2,0.2,0.3,0.4,0.4,0.7c0.1,0.3,0.2,0.5,0.2,0.8
		c0,0.3,0,0.5-0.1,0.8c-0.1,0.3-0.2,0.5-0.4,0.7c-0.2,0.2-0.4,0.4-0.6,0.5c-0.2,0.1-0.5,0.2-0.8,0.2H6.2v2.1H5z M6.2,88.9h1.4
		c0.2,0,0.4-0.1,0.6-0.3c0.2-0.2,0.2-0.4,0.2-0.8c0-0.2,0-0.3-0.1-0.4c0-0.1-0.1-0.2-0.2-0.3C8.1,87,8,86.9,7.9,86.9
		c-0.1,0-0.2-0.1-0.3-0.1H6.2V88.9z"/>
	<path class="st4" d="M9.4,92.1l2.5-6.4h1l2.5,6.4h-1.3l-0.6-1.6h-2.2l-0.6,1.6H9.4z M12.5,87l-0.9,2.6h1.8L12.5,87z"/>
	<path class="st4" d="M16.2,92.1v-6.4H19c0.3,0,0.6,0.1,0.8,0.2s0.5,0.3,0.6,0.5c0.2,0.2,0.3,0.4,0.4,0.7c0.1,0.3,0.2,0.5,0.2,0.8
		c0,0.4-0.1,0.8-0.3,1.1c-0.2,0.3-0.5,0.6-0.8,0.7l1.5,2.4H20l-1.3-2.1h-1.2v2.1H16.2z M17.4,88.9H19c0.1,0,0.2,0,0.3-0.1
		c0.1-0.1,0.2-0.1,0.3-0.2c0.1-0.1,0.1-0.2,0.2-0.3s0.1-0.3,0.1-0.4c0-0.1,0-0.3-0.1-0.4s-0.1-0.2-0.2-0.3c-0.1-0.1-0.2-0.2-0.3-0.2
		c-0.1-0.1-0.2-0.1-0.3-0.1h-1.5V88.9z"/>
	<path class="st4" d="M26.9,86.8h-2v5.3h-1.2v-5.3h-2v-1.1h5.3V86.8z"/>
	<path class="st4" d="M27.7,92.1v-6.4h1.2v6.4H27.7z"/>
	<path class="st4" d="M29.9,88.9c0-0.4,0.1-0.8,0.2-1.2c0.1-0.4,0.3-0.7,0.6-1c0.3-0.3,0.6-0.5,1-0.7s0.8-0.3,1.3-0.3
		c0.6,0,1.1,0.1,1.5,0.4c0.4,0.3,0.7,0.6,0.9,1l-1,0.7c-0.1-0.2-0.2-0.3-0.3-0.5C34,87.1,33.8,87,33.7,87c-0.1-0.1-0.3-0.1-0.4-0.2
		c-0.1,0-0.3,0-0.4,0c-0.3,0-0.6,0.1-0.8,0.2s-0.4,0.3-0.6,0.5c-0.1,0.2-0.3,0.4-0.3,0.7s-0.1,0.5-0.1,0.8c0,0.3,0,0.6,0.1,0.8
		c0.1,0.3,0.2,0.5,0.4,0.7c0.2,0.2,0.3,0.4,0.6,0.5c0.2,0.1,0.5,0.2,0.7,0.2c0.1,0,0.3,0,0.4-0.1c0.1,0,0.3-0.1,0.4-0.2
		c0.1-0.1,0.3-0.2,0.4-0.3c0.1-0.1,0.2-0.3,0.3-0.4l1,0.6c-0.1,0.2-0.2,0.5-0.4,0.6c-0.2,0.2-0.4,0.3-0.6,0.5
		c-0.2,0.1-0.5,0.2-0.7,0.3c-0.3,0.1-0.5,0.1-0.8,0.1c-0.4,0-0.9-0.1-1.2-0.3c-0.4-0.2-0.7-0.4-1-0.8c-0.3-0.3-0.5-0.7-0.6-1.1
		C29.9,89.7,29.9,89.3,29.9,88.9z"/>
	<path class="st4" d="M36.3,92.1v-6.4h1.2V91h3.3v1.1H36.3z"/>
	<path class="st4" d="M46,91v1.1h-4.4v-6.4h4.4v1.1h-3.1v1.5h2.7v1h-2.7V91H46z"/>
</g>
<g class="st3">
	<path class="st4" d="M29.2,119.9c0-0.7,0.6-1.3,1.3-1.3l0,0c0.7,0,1.3,0.6,1.3,1.3l0,0c0,0.7-0.6,1.3-1.3,1.3l0,0
		C29.8,121.2,29.2,120.6,29.2,119.9z"/>
	<path class="st4" d="M26,123.8c0-0.7,0.6-1.3,1.3-1.3l0,0c0.7,0,1.3,0.6,1.3,1.3l0,0c0,0.7-0.6,1.3-1.3,1.3l0,0
		C26.6,125.2,26,124.6,26,123.8z"/>
	<path class="st4" d="M22.5,124.9c0-0.7,0.6-1.3,1.3-1.3l0,0c0.7,0,1.3,0.6,1.3,1.3l0,0c0,0.7-0.6,1.3-1.3,1.3l0,0
		C23.1,126.2,22.5,125.6,22.5,124.9z"/>
	<path class="st4" d="M19.8,121.4c0-0.7,0.6-1.3,1.3-1.3l0,0c0.7,0,1.3,0.6,1.3,1.3l0,0c0,0.7-0.6,1.3-1.3,1.3l0,0
		C20.4,122.7,19.8,122.1,19.8,121.4z"/>
	<path class="st4" d="M24.5,129.4c-0.3-0.2-0.5-0.5-0.5-0.9c-0.1-0.3,0-0.7,0.2-1c0.2-0.3,0.5-0.5,0.9-0.5c0.3-0.1,0.7,0,1,0.2
		c0.3,0.2,0.5,0.5,0.5,0.9c0.1,0.3,0,0.7-0.2,1c-0.2,0.3-0.5,0.5-0.9,0.5C25.1,129.7,24.8,129.6,24.5,129.4z"/>
	<path class="st4" d="M13.8,117.7c0-0.7,0.6-1.3,1.3-1.3l0,0c0.7,0,1.3,0.6,1.3,1.3l0,0c0,0.7-0.6,1.3-1.3,1.3l0,0
		C14.4,119.1,13.8,118.5,13.8,117.7z"/>
	<path class="st4" d="M20.3,115c0-0.7,0.6-1.3,1.3-1.3l0,0c0.7,0,1.3,0.6,1.3,1.3l0,0c0,0.7-0.6,1.3-1.3,1.3l0,0
		C20.9,116.4,20.3,115.8,20.3,115z"/>
	<path class="st4" d="M24.4,120.5c0-0.7,0.6-1.3,1.3-1.3l0,0c0.7,0,1.3,0.6,1.3,1.3l0,0c0,0.7-0.6,1.3-1.3,1.3l0,0
		C25,121.9,24.4,121.2,24.4,120.5z"/>
	<path class="st4" d="M33.9,117.5c0-0.7,0.6-1.3,1.3-1.3l0,0c0.7,0,1.3,0.6,1.3,1.3l0,0c0,0.7-0.6,1.3-1.3,1.3l0,0
		C34.5,118.8,33.9,118.2,33.9,117.5z"/>
	<path class="st4" d="M27.4,115.3c0-0.7,0.6-1.3,1.3-1.3l0,0c0.7,0,1.3,0.6,1.3,1.3l0,0c0,0.7-0.6,1.3-1.3,1.3l0,0
		C28.1,116.6,27.4,116,27.4,115.3z"/>
	<path class="st4" d="M17.6,110c0-0.7,0.6-1.3,1.3-1.3l0,0c0.7,0,1.3,0.6,1.3,1.3l0,0c0,0.7-0.6,1.3-1.3,1.3l0,0
		C18.2,111.4,17.6,110.8,17.6,110z"/>
	<path class="st4" d="M31.2,111.4c0-0.7,0.6-1.3,1.3-1.3l0,0c0.7,0,1.3,0.6,1.3,1.3l0,0c0,0.7-0.6,1.3-1.3,1.3l0,0
		C31.8,112.7,31.2,112.1,31.2,111.4z"/>
</g>
<g class="st3">
	<path class="st4" d="M5,142.1v-6.4h2.7c0.3,0,0.6,0.1,0.8,0.2s0.5,0.3,0.6,0.5c0.2,0.2,0.3,0.4,0.4,0.7c0.1,0.3,0.2,0.5,0.2,0.8
		c0,0.3,0,0.5-0.1,0.8c-0.1,0.3-0.2,0.5-0.4,0.7c-0.2,0.2-0.4,0.4-0.6,0.5c-0.2,0.1-0.5,0.2-0.8,0.2H6.2v2.1H5z M6.2,138.9h1.4
		c0.2,0,0.4-0.1,0.6-0.3c0.2-0.2,0.2-0.4,0.2-0.8c0-0.2,0-0.3-0.1-0.4c0-0.1-0.1-0.2-0.2-0.3c-0.1-0.1-0.2-0.2-0.3-0.2
		c-0.1,0-0.2-0.1-0.3-0.1H6.2V138.9z"/>
	<path class="st4" d="M9.4,142.1l2.5-6.4h1l2.5,6.4h-1.3l-0.6-1.6h-2.2l-0.6,1.6H9.4z M12.5,137l-0.9,2.6h1.8L12.5,137z"/>
	<path class="st4" d="M16.2,142.1v-6.4H19c0.3,0,0.6,0.1,0.8,0.2s0.5,0.3,0.6,0.5c0.2,0.2,0.3,0.4,0.4,0.7c0.1,0.3,0.2,0.5,0.2,0.8
		c0,0.4-0.1,0.8-0.3,1.1c-0.2,0.3-0.5,0.6-0.8,0.7l1.5,2.4H20l-1.3-2.1h-1.2v2.1H16.2z M17.4,138.9H19c0.1,0,0.2,0,0.3-0.1
		c0.1-0.1,0.2-0.1,0.3-0.2c0.1-0.1,0.1-0.2,0.2-0.3s0.1-0.3,0.1-0.4c0-0.1,0-0.3-0.1-0.4s-0.1-0.2-0.2-0.3c-0.1-0.1-0.2-0.2-0.3-0.2
		c-0.1-0.1-0.2-0.1-0.3-0.1h-1.5V138.9z"/>
	<path class="st4" d="M26.9,136.8h-2v5.3h-1.2v-5.3h-2v-1.1h5.3V136.8z"/>
	<path class="st4" d="M27.7,142.1v-6.4h1.2v6.4H27.7z"/>
	<path class="st4" d="M29.9,138.9c0-0.4,0.1-0.8,0.2-1.2c0.1-0.4,0.3-0.7,0.6-1c0.3-0.3,0.6-0.5,1-0.7s0.8-0.3,1.3-0.3
		c0.6,0,1.1,0.1,1.5,0.4c0.4,0.3,0.7,0.6,0.9,1l-1,0.7c-0.1-0.2-0.2-0.3-0.3-0.5c-0.1-0.1-0.2-0.2-0.4-0.3c-0.1-0.1-0.3-0.1-0.4-0.2
		c-0.1,0-0.3,0-0.4,0c-0.3,0-0.6,0.1-0.8,0.2s-0.4,0.3-0.6,0.5c-0.1,0.2-0.3,0.4-0.3,0.7s-0.1,0.5-0.1,0.8c0,0.3,0,0.6,0.1,0.8
		c0.1,0.3,0.2,0.5,0.4,0.7c0.2,0.2,0.3,0.4,0.6,0.5c0.2,0.1,0.5,0.2,0.7,0.2c0.1,0,0.3,0,0.4-0.1c0.1,0,0.3-0.1,0.4-0.2
		c0.1-0.1,0.3-0.2,0.4-0.3c0.1-0.1,0.2-0.3,0.3-0.4l1,0.6c-0.1,0.2-0.2,0.5-0.4,0.6c-0.2,0.2-0.4,0.3-0.6,0.5
		c-0.2,0.1-0.5,0.2-0.7,0.3c-0.3,0.1-0.5,0.1-0.8,0.1c-0.4,0-0.9-0.1-1.2-0.3c-0.4-0.2-0.7-0.4-1-0.8c-0.3-0.3-0.5-0.7-0.6-1.1
		C29.9,139.7,29.9,139.3,29.9,138.9z"/>
	<path class="st4" d="M36.3,142.1v-6.4h1.2v5.3h3.3v1.1H36.3z"/>
	<path class="st4" d="M46,141v1.1h-4.4v-6.4h4.4v1.1h-3.1v1.5h2.7v1h-2.7v1.7H46z"/>
</g>
</svg>
