<?xml version="1.0" encoding="utf-8"?>
<!-- Generator: Adobe Illustrator 19.2.0, SVG Export Plug-In . SVG Version: 6.00 Build 0)  -->
<svg version="1.1" id="Layer_1" xmlns="http://www.w3.org/2000/svg" xmlns:xlink="http://www.w3.org/1999/xlink" x="0px" y="0px"
	 viewBox="0 0 50 200.1" style="enable-background:new 0 0 50 200.1;" xml:space="preserve">
<style type="text/css">
	.st0{fill:#414042;}
	.st1{fill:#FFFFFF;}
	.st2{fill:#1E1E1E;}
	.st3{fill:#333333;}
</style>
<g id="Layer_2">
	<g>
		<g>
			<path class="st0" d="M50.1,146.1c0,2.2-1.8,4-4,4h-42c-2.2,0-4-1.8-4-4v-42c0-2.2,1.8-4,4-4h42c2.2,0,4,1.8,4,4V146.1z"/>
		</g>
	</g>
	<g>
		<g>
			<path class="st0" d="M50,196.1c0,2.2-1.8,4-4,4H4c-2.2,0-4-1.8-4-4v-42c0-2.2,1.8-4,4-4h42c2.2,0,4,1.8,4,4V196.1z"/>
		</g>
	</g>
	<g>
		<g>
			<path class="st1" d="M50,46c0,2.2-1.8,4-4,4H4c-2.2,0-4-1.8-4-4V4c0-2.2,1.8-4,4-4h42c2.2,0,4,1.8,4,4V46z"/>
		</g>
	</g>
	<g>
		<path class="st2" d="M50,96.1c0,2.2-1.8,4-4,4H4c-2.2,0-4-1.8-4-4v-42c0-2.2,1.8-4,4-4h42c2.2,0,4,1.8,4,4V96.1z"/>
	</g>
</g>
<g id="Layer_3">
</g>
<g>
	<path class="st1" d="M8.1,92.5v-6.4h2.7c0.3,0,0.6,0.1,0.8,0.2s0.5,0.3,0.6,0.5c0.2,0.2,0.3,0.4,0.4,0.7c0.1,0.3,0.2,0.5,0.2,0.8
		c0,0.3,0,0.5-0.1,0.8c-0.1,0.3-0.2,0.5-0.4,0.7c-0.2,0.2-0.4,0.4-0.6,0.5c-0.2,0.1-0.5,0.2-0.8,0.2H9.3v2.1H8.1z M9.3,89.2h1.4
		c0.2,0,0.4-0.1,0.6-0.3c0.2-0.2,0.2-0.4,0.2-0.8c0-0.2,0-0.3-0.1-0.4c0-0.1-0.1-0.2-0.2-0.3c-0.1-0.1-0.2-0.2-0.3-0.2
		c-0.1,0-0.2-0.1-0.3-0.1H9.3V89.2z"/>
	<path class="st1" d="M18.3,91.4v1.1h-4.4v-6.4h4.4v1.1h-3.1v1.5h2.7v1h-2.7v1.7H18.3z"/>
	<path class="st1" d="M22.1,92.5c-0.5,0-0.9-0.1-1.2-0.3s-0.7-0.4-1-0.7c-0.3-0.3-0.5-0.6-0.6-1c-0.1-0.4-0.2-0.8-0.2-1.2
		c0-0.4,0.1-0.8,0.2-1.2s0.4-0.7,0.6-1c0.3-0.3,0.6-0.5,1-0.7s0.8-0.3,1.2-0.3c0.5,0,0.9,0.1,1.2,0.3s0.7,0.4,1,0.7
		c0.3,0.3,0.5,0.7,0.6,1c0.1,0.4,0.2,0.8,0.2,1.2c0,0.4-0.1,0.8-0.2,1.2c-0.2,0.4-0.4,0.7-0.6,1c-0.3,0.3-0.6,0.5-1,0.7
		C22.9,92.4,22.5,92.5,22.1,92.5z M20.3,89.3c0,0.3,0,0.5,0.1,0.8c0.1,0.3,0.2,0.5,0.4,0.7c0.2,0.2,0.3,0.4,0.6,0.5s0.5,0.2,0.8,0.2
		c0.3,0,0.5-0.1,0.8-0.2s0.4-0.3,0.6-0.5c0.1-0.2,0.3-0.4,0.3-0.7s0.1-0.5,0.1-0.8c0-0.3,0-0.5-0.1-0.8c-0.1-0.3-0.2-0.5-0.4-0.7
		c-0.2-0.2-0.3-0.4-0.6-0.5c-0.2-0.1-0.5-0.2-0.7-0.2c-0.3,0-0.5,0.1-0.8,0.2s-0.4,0.3-0.6,0.5c-0.2,0.2-0.3,0.4-0.3,0.7
		C20.4,88.7,20.3,89,20.3,89.3z"/>
	<path class="st1" d="M26.3,92.5v-6.4H29c0.3,0,0.6,0.1,0.8,0.2s0.5,0.3,0.6,0.5c0.2,0.2,0.3,0.4,0.4,0.7c0.1,0.3,0.2,0.5,0.2,0.8
		c0,0.3,0,0.5-0.1,0.8c-0.1,0.3-0.2,0.5-0.4,0.7c-0.2,0.2-0.4,0.4-0.6,0.5c-0.2,0.1-0.5,0.2-0.8,0.2h-1.5v2.1H26.3z M27.6,89.2H29
		c0.2,0,0.4-0.1,0.6-0.3c0.2-0.2,0.2-0.4,0.2-0.8c0-0.2,0-0.3-0.1-0.4c0-0.1-0.1-0.2-0.2-0.3c-0.1-0.1-0.2-0.2-0.3-0.2
		c-0.1,0-0.2-0.1-0.3-0.1h-1.4V89.2z"/>
	<path class="st1" d="M32.1,92.5v-6.4h1.2v5.3h3.3v1.1H32.1z"/>
	<path class="st1" d="M42.1,91.4v1.1h-4.4v-6.4H42v1.1h-3.1v1.5h2.7v1h-2.7v1.7H42.1z"/>
</g>
<g>
	<circle class="st1" cx="25" cy="64" r="4.5"/>
	<path class="st1" d="M28.2,70.9h-6.1c-2.6,0-4.6,2.2-4.6,4.7V78c2.1,1.6,4.5,2.5,7.3,2.5c3.1,0,5.9-1.2,8-3.1v-1.8
		C32.8,73,30.8,70.9,28.2,70.9z"/>
	<circle class="st1" cx="34" cy="65.3" r="2"/>
	<path class="st1" d="M35.2,69.1h-2.3c-0.5,0-0.9,0.2-1.3,0.5c0.7,0.3,1.3,0.9,1.7,1.4c0.6,0.7,0.9,1.5,0.9,2.4
		c0.2,0.5,0.2,1,0.1,1.6v0.3c0.9-1.2,1.8-3.3,2.2-4.6v-0.2C36.7,70.1,36,69.1,35.2,69.1z"/>
	<circle class="st1" cx="16" cy="65.8" r="2"/>
	<path class="st1" d="M15.4,75.8c-0.1-0.4-0.1-0.8,0-1.2l0-0.1c0-0.1,0-0.2,0-0.3c0-0.1,0-0.2,0-0.3c0-0.1,0-0.2,0-0.3
		c0.1-1.2,0.9-2.5,1.8-3.2c0.2-0.2,0.5-0.3,0.8-0.5c-0.3-0.3-0.7-0.4-1.1-0.4h-2.3c-0.8,0-1.5,1-1.4,1.5v0.2
		C13.5,72.4,14.5,74.5,15.4,75.8z"/>
</g>
<g>
	<path class="st1" d="M8.1,142.5v-6.4h2.7c0.3,0,0.6,0.1,0.8,0.2s0.5,0.3,0.6,0.5c0.2,0.2,0.3,0.4,0.4,0.7c0.1,0.3,0.2,0.5,0.2,0.8
		c0,0.3,0,0.5-0.1,0.8c-0.1,0.3-0.2,0.5-0.4,0.7c-0.2,0.2-0.4,0.4-0.6,0.5c-0.2,0.1-0.5,0.2-0.8,0.2H9.3v2.1H8.1z M9.3,139.2h1.4
		c0.2,0,0.4-0.1,0.6-0.3c0.2-0.2,0.2-0.4,0.2-0.8c0-0.2,0-0.3-0.1-0.4c0-0.1-0.1-0.2-0.2-0.3c-0.1-0.1-0.2-0.2-0.3-0.2
		c-0.1,0-0.2-0.1-0.3-0.1H9.3V139.2z"/>
	<path class="st1" d="M18.3,141.4v1.1h-4.4v-6.4h4.4v1.1h-3.1v1.5h2.7v1h-2.7v1.7H18.3z"/>
	<path class="st1" d="M22.1,142.5c-0.5,0-0.9-0.1-1.2-0.3s-0.7-0.4-1-0.7c-0.3-0.3-0.5-0.6-0.6-1c-0.1-0.4-0.2-0.8-0.2-1.2
		c0-0.4,0.1-0.8,0.2-1.2s0.4-0.7,0.6-1c0.3-0.3,0.6-0.5,1-0.7s0.8-0.3,1.2-0.3c0.5,0,0.9,0.1,1.2,0.3s0.7,0.4,1,0.7
		c0.3,0.3,0.5,0.7,0.6,1c0.1,0.4,0.2,0.8,0.2,1.2c0,0.4-0.1,0.8-0.2,1.2c-0.2,0.4-0.4,0.7-0.6,1c-0.3,0.3-0.6,0.5-1,0.7
		C22.9,142.4,22.5,142.5,22.1,142.5z M20.3,139.3c0,0.3,0,0.5,0.1,0.8c0.1,0.3,0.2,0.5,0.4,0.7c0.2,0.2,0.3,0.4,0.6,0.5
		s0.5,0.2,0.8,0.2c0.3,0,0.5-0.1,0.8-0.2s0.4-0.3,0.6-0.5c0.1-0.2,0.3-0.4,0.3-0.7s0.1-0.5,0.1-0.8c0-0.3,0-0.5-0.1-0.8
		c-0.1-0.3-0.2-0.5-0.4-0.7c-0.2-0.2-0.3-0.4-0.6-0.5c-0.2-0.1-0.5-0.2-0.7-0.2c-0.3,0-0.5,0.1-0.8,0.2s-0.4,0.3-0.6,0.5
		c-0.2,0.2-0.3,0.4-0.3,0.7C20.4,138.7,20.3,139,20.3,139.3z"/>
	<path class="st1" d="M26.3,142.5v-6.4H29c0.3,0,0.6,0.1,0.8,0.2s0.5,0.3,0.6,0.5c0.2,0.2,0.3,0.4,0.4,0.7c0.1,0.3,0.2,0.5,0.2,0.8
		c0,0.3,0,0.5-0.1,0.8c-0.1,0.3-0.2,0.5-0.4,0.7c-0.2,0.2-0.4,0.4-0.6,0.5c-0.2,0.1-0.5,0.2-0.8,0.2h-1.5v2.1H26.3z M27.6,139.2H29
		c0.2,0,0.4-0.1,0.6-0.3c0.2-0.2,0.2-0.4,0.2-0.8c0-0.2,0-0.3-0.1-0.4c0-0.1-0.1-0.2-0.2-0.3c-0.1-0.1-0.2-0.2-0.3-0.2
		c-0.1,0-0.2-0.1-0.3-0.1h-1.4V139.2z"/>
	<path class="st1" d="M32.1,142.5v-6.4h1.2v5.3h3.3v1.1H32.1z"/>
	<path class="st1" d="M42.1,141.4v1.1h-4.4v-6.4H42v1.1h-3.1v1.5h2.7v1h-2.7v1.7H42.1z"/>
</g>
<g>
	<circle class="st1" cx="25" cy="114" r="4.5"/>
	<path class="st1" d="M28.2,120.9h-6.1c-2.6,0-4.6,2.2-4.6,4.7v2.4c2.1,1.6,4.5,2.5,7.3,2.5c3.1,0,5.9-1.2,8-3.1v-1.8
		C32.8,123,30.8,120.9,28.2,120.9z"/>
	<circle class="st1" cx="34" cy="115.3" r="2"/>
	<path class="st1" d="M35.2,119.1h-2.3c-0.5,0-0.9,0.2-1.3,0.5c0.7,0.3,1.3,0.9,1.7,1.4c0.6,0.7,0.9,1.5,0.9,2.4
		c0.2,0.5,0.2,1,0.1,1.6v0.3c0.9-1.2,1.8-3.3,2.2-4.6v-0.2C36.7,120.1,36,119.1,35.2,119.1z"/>
	<circle class="st1" cx="16" cy="115.8" r="2"/>
	<path class="st1" d="M15.4,125.8c-0.1-0.4-0.1-0.8,0-1.2l0-0.1c0-0.1,0-0.2,0-0.3c0-0.1,0-0.2,0-0.3c0-0.1,0-0.2,0-0.3
		c0.1-1.2,0.9-2.5,1.8-3.2c0.2-0.2,0.5-0.3,0.8-0.5c-0.3-0.3-0.7-0.4-1.1-0.4h-2.3c-0.8,0-1.5,1-1.4,1.5v0.2
		C13.5,122.4,14.5,124.5,15.4,125.8z"/>
</g>
<g>
	<path class="st3" d="M8.1,42.5v-6.4h2.7c0.3,0,0.6,0.1,0.8,0.2s0.5,0.3,0.6,0.5c0.2,0.2,0.3,0.4,0.4,0.7c0.1,0.3,0.2,0.5,0.2,0.8
		c0,0.3,0,0.5-0.1,0.8c-0.1,0.3-0.2,0.5-0.4,0.7c-0.2,0.2-0.4,0.4-0.6,0.5c-0.2,0.1-0.5,0.2-0.8,0.2H9.3v2.1H8.1z M9.3,39.2h1.4
		c0.2,0,0.4-0.1,0.6-0.3c0.2-0.2,0.2-0.4,0.2-0.8c0-0.2,0-0.3-0.1-0.4c0-0.1-0.1-0.2-0.2-0.3c-0.1-0.1-0.2-0.2-0.3-0.2
		c-0.1,0-0.2-0.1-0.3-0.1H9.3V39.2z"/>
	<path class="st3" d="M18.3,41.4v1.1h-4.4v-6.4h4.4v1.1h-3.1v1.5h2.7v1h-2.7v1.7H18.3z"/>
	<path class="st3" d="M22.1,42.5c-0.5,0-0.9-0.1-1.2-0.3s-0.7-0.4-1-0.7c-0.3-0.3-0.5-0.6-0.6-1c-0.1-0.4-0.2-0.8-0.2-1.2
		c0-0.4,0.1-0.8,0.2-1.2s0.4-0.7,0.6-1c0.3-0.3,0.6-0.5,1-0.7s0.8-0.3,1.2-0.3c0.5,0,0.9,0.1,1.2,0.3s0.7,0.4,1,0.7
		c0.3,0.3,0.5,0.7,0.6,1c0.1,0.4,0.2,0.8,0.2,1.2c0,0.4-0.1,0.8-0.2,1.2c-0.2,0.4-0.4,0.7-0.6,1c-0.3,0.3-0.6,0.5-1,0.7
		C22.9,42.4,22.5,42.5,22.1,42.5z M20.3,39.3c0,0.3,0,0.5,0.1,0.8c0.1,0.3,0.2,0.5,0.4,0.7c0.2,0.2,0.3,0.4,0.6,0.5s0.5,0.2,0.8,0.2
		c0.3,0,0.5-0.1,0.8-0.2s0.4-0.3,0.6-0.5c0.1-0.2,0.3-0.4,0.3-0.7s0.1-0.5,0.1-0.8c0-0.3,0-0.5-0.1-0.8c-0.1-0.3-0.2-0.5-0.4-0.7
		c-0.2-0.2-0.3-0.4-0.6-0.5c-0.2-0.1-0.5-0.2-0.7-0.2c-0.3,0-0.5,0.1-0.8,0.2s-0.4,0.3-0.6,0.5c-0.2,0.2-0.3,0.4-0.3,0.7
		C20.4,38.7,20.3,39,20.3,39.3z"/>
	<path class="st3" d="M26.3,42.5v-6.4H29c0.3,0,0.6,0.1,0.8,0.2s0.5,0.3,0.6,0.5c0.2,0.2,0.3,0.4,0.4,0.7c0.1,0.3,0.2,0.5,0.2,0.8
		c0,0.3,0,0.5-0.1,0.8c-0.1,0.3-0.2,0.5-0.4,0.7c-0.2,0.2-0.4,0.4-0.6,0.5c-0.2,0.1-0.5,0.2-0.8,0.2h-1.5v2.1H26.3z M27.6,39.2H29
		c0.2,0,0.4-0.1,0.6-0.3c0.2-0.2,0.2-0.4,0.2-0.8c0-0.2,0-0.3-0.1-0.4c0-0.1-0.1-0.2-0.2-0.3c-0.1-0.1-0.2-0.2-0.3-0.2
		c-0.1,0-0.2-0.1-0.3-0.1h-1.4V39.2z"/>
	<path class="st3" d="M32.1,42.5v-6.4h1.2v5.3h3.3v1.1H32.1z"/>
	<path class="st3" d="M42.1,41.4v1.1h-4.4v-6.4H42v1.1h-3.1v1.5h2.7v1h-2.7v1.7H42.1z"/>
</g>
<g>
	<circle class="st3" cx="25" cy="14" r="4.5"/>
	<path class="st3" d="M28.2,20.9h-6.1c-2.6,0-4.6,2.2-4.6,4.7V28c2.1,1.6,4.5,2.5,7.3,2.5c3.1,0,5.9-1.2,8-3.1v-1.8
		C32.8,23,30.8,20.9,28.2,20.9z"/>
	<circle class="st3" cx="34" cy="15.3" r="2"/>
	<path class="st3" d="M35.2,19.1h-2.3c-0.5,0-0.9,0.2-1.3,0.5c0.7,0.3,1.3,0.9,1.7,1.4c0.6,0.7,0.9,1.5,0.9,2.4
		c0.2,0.5,0.2,1,0.1,1.6v0.3c0.9-1.2,1.8-3.3,2.2-4.6v-0.2C36.7,20.1,36,19.1,35.2,19.1z"/>
	<circle class="st3" cx="16" cy="15.8" r="2"/>
	<path class="st3" d="M15.4,25.8c-0.1-0.4-0.1-0.8,0-1.2l0-0.1c0-0.1,0-0.2,0-0.3c0-0.1,0-0.2,0-0.3c0-0.1,0-0.2,0-0.3
		c0.1-1.2,0.9-2.5,1.8-3.2c0.2-0.2,0.5-0.3,0.8-0.5c-0.3-0.3-0.7-0.4-1.1-0.4h-2.3c-0.8,0-1.5,1-1.4,1.5v0.2
		C13.5,22.4,14.5,24.5,15.4,25.8z"/>
</g>
<g>
	<path class="st1" d="M8.1,192.6v-6.4h2.7c0.3,0,0.6,0.1,0.8,0.2s0.5,0.3,0.6,0.5c0.2,0.2,0.3,0.4,0.4,0.7c0.1,0.3,0.2,0.5,0.2,0.8
		c0,0.3,0,0.5-0.1,0.8c-0.1,0.3-0.2,0.5-0.4,0.7c-0.2,0.2-0.4,0.4-0.6,0.5c-0.2,0.1-0.5,0.2-0.8,0.2H9.3v2.1H8.1z M9.3,189.3h1.4
		c0.2,0,0.4-0.1,0.6-0.3c0.2-0.2,0.2-0.4,0.2-0.8c0-0.2,0-0.3-0.1-0.4c0-0.1-0.1-0.2-0.2-0.3c-0.1-0.1-0.2-0.2-0.3-0.2
		c-0.1,0-0.2-0.1-0.3-0.1H9.3V189.3z"/>
	<path class="st1" d="M18.3,191.5v1.1h-4.4v-6.4h4.4v1.1h-3.1v1.5h2.7v1h-2.7v1.7H18.3z"/>
	<path class="st1" d="M22.1,192.6c-0.5,0-0.9-0.1-1.2-0.3s-0.7-0.4-1-0.7c-0.3-0.3-0.5-0.6-0.6-1c-0.1-0.4-0.2-0.8-0.2-1.2
		c0-0.4,0.1-0.8,0.2-1.2s0.4-0.7,0.6-1c0.3-0.3,0.6-0.5,1-0.7s0.8-0.3,1.2-0.3c0.5,0,0.9,0.1,1.2,0.3s0.7,0.4,1,0.7
		c0.3,0.3,0.5,0.7,0.6,1c0.1,0.4,0.2,0.8,0.2,1.2c0,0.4-0.1,0.8-0.2,1.2c-0.2,0.4-0.4,0.7-0.6,1c-0.3,0.3-0.6,0.5-1,0.7
		C22.9,192.5,22.5,192.6,22.1,192.6z M20.3,189.4c0,0.3,0,0.5,0.1,0.8c0.1,0.3,0.2,0.5,0.4,0.7c0.2,0.2,0.3,0.4,0.6,0.5
		s0.5,0.2,0.8,0.2c0.3,0,0.5-0.1,0.8-0.2s0.4-0.3,0.6-0.5c0.1-0.2,0.3-0.4,0.3-0.7s0.1-0.5,0.1-0.8c0-0.3,0-0.5-0.1-0.8
		c-0.1-0.3-0.2-0.5-0.4-0.7c-0.2-0.2-0.3-0.4-0.6-0.5c-0.2-0.1-0.5-0.2-0.7-0.2c-0.3,0-0.5,0.1-0.8,0.2s-0.4,0.3-0.6,0.5
		c-0.2,0.2-0.3,0.4-0.3,0.7C20.4,188.8,20.3,189.1,20.3,189.4z"/>
	<path class="st1" d="M26.3,192.6v-6.4H29c0.3,0,0.6,0.1,0.8,0.2s0.5,0.3,0.6,0.5c0.2,0.2,0.3,0.4,0.4,0.7c0.1,0.3,0.2,0.5,0.2,0.8
		c0,0.3,0,0.5-0.1,0.8c-0.1,0.3-0.2,0.5-0.4,0.7c-0.2,0.2-0.4,0.4-0.6,0.5c-0.2,0.1-0.5,0.2-0.8,0.2h-1.5v2.1H26.3z M27.6,189.3H29
		c0.2,0,0.4-0.1,0.6-0.3c0.2-0.2,0.2-0.4,0.2-0.8c0-0.2,0-0.3-0.1-0.4c0-0.1-0.1-0.2-0.2-0.3c-0.1-0.1-0.2-0.2-0.3-0.2
		c-0.1,0-0.2-0.1-0.3-0.1h-1.4V189.3z"/>
	<path class="st1" d="M32.1,192.6v-6.4h1.2v5.3h3.3v1.1H32.1z"/>
	<path class="st1" d="M42.1,191.5v1.1h-4.4v-6.4H42v1.1h-3.1v1.5h2.7v1h-2.7v1.7H42.1z"/>
</g>
<g>
	<circle class="st1" cx="25" cy="164.2" r="4.5"/>
	<path class="st1" d="M28.2,171h-6.1c-2.6,0-4.6,2.2-4.6,4.7v2.4c2.1,1.6,4.5,2.5,7.3,2.5c3.1,0,5.9-1.2,8-3.1v-1.8
		C32.8,173.1,30.8,171,28.2,171z"/>
	<circle class="st1" cx="34" cy="165.4" r="2"/>
	<path class="st1" d="M35.2,169.2h-2.3c-0.5,0-0.9,0.2-1.3,0.5c0.7,0.3,1.3,0.9,1.7,1.4c0.6,0.7,0.9,1.5,0.9,2.4
		c0.2,0.5,0.2,1,0.1,1.6v0.3c0.9-1.2,1.8-3.3,2.2-4.6v-0.2C36.7,170.2,36,169.2,35.2,169.2z"/>
	<circle class="st1" cx="16" cy="165.9" r="2"/>
	<path class="st1" d="M15.4,175.9c-0.1-0.4-0.1-0.8,0-1.2l0-0.1c0-0.1,0-0.2,0-0.3c0-0.1,0-0.2,0-0.3c0-0.1,0-0.2,0-0.3
		c0.1-1.2,0.9-2.5,1.8-3.2c0.2-0.2,0.5-0.3,0.8-0.5c-0.3-0.3-0.7-0.4-1.1-0.4h-2.3c-0.8,0-1.5,1-1.4,1.5v0.2
		C13.5,172.5,14.5,174.6,15.4,175.9z"/>
</g>
</svg>
