<?xml version="1.0" encoding="utf-8"?>
<!-- Generator: Adobe Illustrator 19.2.1, SVG Export Plug-In . SVG Version: 6.00 Build 0)  -->
<svg version="1.1" id="Layer_2" xmlns="http://www.w3.org/2000/svg" xmlns:xlink="http://www.w3.org/1999/xlink" x="0px" y="0px"
	 viewBox="0 0 258 257.8" style="enable-background:new 0 0 258 257.8;" xml:space="preserve">
<style type="text/css">
	.st0{opacity:0.9;}
	.st1{fill:#1E1E1E;}
	.st2{fill:#D8D8D8;}
	.st3{font-family:'ArialMT';}
	.st4{font-size:60px;}
	.st5{letter-spacing:-3;}
	.st6{fill:#FFFFFF;}
</style>
<title>polyvox</title>
<g class="st0">
	<path class="st1" d="M259.4,237.2c-0.1,11.4-9.2,20.5-20.6,20.6H22c-11.4,0-20.6-9.2-20.6-20.5c0,0,0,0,0-0.1V20.6
		C1.5,9.2,10.6,0.1,22,0h216.6c11.4,0.1,20.5,9.2,20.6,20.6v216.6L259.4,237.2L259.4,237.2z"/>
</g>
<text transform="matrix(1 0 0 1 57 236.0604)" class="st2 st3 st4 st5">voxels</text>
<path class="st6" d="M235.9,129.5c0,6.6,0,13.3,0,19.9c0,5-2.3,8.9-6.8,11.2c-14.6,7.4-29.2,14.7-43.9,22c-3.5,1.7-7.2,1.5-10.7-0.2
	c-14.2-7.1-28.4-14.2-42.6-21.3c-1-0.5-1.7-0.6-2.8,0c-14.2,7-28.4,14-42.5,21.1c-3.8,1.9-7.7,2-11.5,0c-14.1-7-28.2-14.1-42.4-21.1
	c-5.4-2.7-7.9-6.8-7.8-12.7c0.1-12.7,0-25.5,0-38.2c0-6.1,2.8-10.2,8.3-12.6c13.2-5.7,26.3-11.3,39.5-16.9c1.4-0.6,1.9-1.4,1.9-2.9
	c-0.1-12,0-24-0.1-36.1c0-5.9,2.7-10,8-12.2c14.4-6.3,28.6-12.3,42.9-18.4c3.4-1.4,6.8-1.4,10.1,0c14.2,6.1,28.5,12.1,42.7,18.3
	c5.4,2.3,8.1,6.5,8.1,12.4c0,12.1,0,24.2,0,36.2c0,1.3,0.4,2,1.6,2.5c13.2,5.6,26.4,11.3,39.5,16.9c5.7,2.4,8.5,6.6,8.5,12.8
	C235.8,116.7,235.9,123.1,235.9,129.5z M173,40.7c-0.5-0.2-0.8-0.4-1.1-0.6c-13.4-5.8-26.9-11.5-40.4-17.2c-0.7-0.3-1.8-0.2-2.5,0.1
	c-13.2,5.6-26.5,11.3-39.7,17c-0.4,0.2-0.9,0.4-1.5,0.8c0.5,0.3,0.9,0.4,1.2,0.6c13.4,5.7,26.8,11.5,40.2,17.2
	c0.7,0.3,1.8,0.3,2.5,0c13.3-5.6,26.5-11.3,39.7-17C171.9,41.3,172.4,41,173,40.7z M119.8,107.5c-0.5-0.3-0.7-0.4-0.9-0.5
	c-12.3-5.3-24.7-10.6-37.1-15.8c-0.7-0.3-1.8-0.2-2.5,0.1c-11.3,4.8-22.5,9.6-33.8,14.4c-1.2,0.5-2.5,1.1-3.9,1.7
	c0.5,0.3,0.7,0.4,1,0.5c12.3,5.3,24.6,10.6,36.9,15.8c0.7,0.3,1.9,0.2,2.7-0.1c10.1-4.3,20.2-8.6,30.3-12.9
	C115,109.6,117.3,108.6,119.8,107.5z M219.1,107.5c-0.4-0.3-0.6-0.4-0.9-0.5c-12.4-5.3-24.8-10.6-37.2-15.9
	c-0.6-0.3-1.6-0.2-2.3,0.1c-12,5.1-24,10.3-36.1,15.4c-0.5,0.2-1,0.5-1.5,0.8c0.3,0.2,0.3,0.3,0.4,0.3c12.5,5.4,25,10.7,37.6,16.1
	c0.6,0.3,1.5,0.1,2.2-0.1c5.5-2.3,10.9-4.6,16.3-7C204.7,113.7,211.8,110.7,219.1,107.5z M186.4,168c0.5-0.2,0.9-0.3,1.2-0.5
	c11.5-5.8,23.1-11.5,34.6-17.3c1-0.5,1.3-1.2,1.3-2.2c0-9,0-17.9,0-26.9c0-0.6-0.1-1.1-0.1-1.8c-0.5,0.2-0.9,0.3-1.2,0.4
	c-11.6,4.9-23.2,9.9-34.8,14.8c-1.1,0.4-1.2,1.1-1.2,2.1c0,10,0,20,0,30C186.3,167,186.3,167.4,186.4,168z M124.2,119.3
	c-0.5,0.1-0.7,0.1-1,0.2c-11.8,5-23.5,10-35.3,15c-1.1,0.5-1.1,1.2-1.1,2.1c0,9.9,0,19.9,0,29.8c0,0.5,0.1,1,0.1,1.5
	c0.3,0,0.4,0,0.5,0c11.9-5.9,23.8-11.9,35.7-17.9c0.5-0.2,0.9-1.1,0.9-1.7c0.1-3.3,0-6.7,0-10C124.2,132,124.2,125.8,124.2,119.3z
	 M136.7,95.7c0.4-0.1,0.7-0.2,1-0.3c11.7-5,23.4-10,35.1-15.1c0.5-0.2,1.1-1.1,1.1-1.7c0.1-7.9,0-15.8,0-23.7c0-0.2-0.1-0.4-0.1-0.7
	c-0.3,0.1-0.5,0.2-0.8,0.2c-11.8,5-23.5,10-35.3,15c-1,0.4-1.1,1.1-1.1,2c0,7.6,0,15.2,0,22.8C136.6,94.6,136.7,95.1,136.7,95.7z"/>
</svg>
