<?xml version="1.0" encoding="utf-8"?>
<!-- Generator: Adobe Illustrator 19.2.0, SVG Export Plug-In . SVG Version: 6.00 Build 0)  -->
<svg version="1.1" id="Layer_1" xmlns="http://www.w3.org/2000/svg" xmlns:xlink="http://www.w3.org/1999/xlink" x="0px" y="0px"
	 viewBox="0 0 50 150" style="enable-background:new 0 0 50 150;" xml:space="preserve">
<style type="text/css">
	.st0{opacity:0.9;}
	.st1{fill:#FFFFFF;}
	.st2{fill:#1E1E1E;}
	.st3{fill:#EAEAEA;}
	.st4{opacity:0.47;}
	.st5{opacity:0.47;fill:#EAEAEA;}
</style>
<g>
	<g class="st0">
		<path class="st1" d="M50,46c0,2.2-1.8,4-4,4H4c-2.2,0-4-1.8-4-4V4c0-2.2,1.8-4,4-4h42c2.2,0,4,1.8,4,4V46z"/>
	</g>
</g>
<g class="st0">
	<path class="st2" d="M50,96c0,2.2-1.8,4-4,4H4c-2.2,0-4-1.8-4-4V54c0-2.2,1.8-4,4-4h42c2.2,0,4,1.8,4,4V96z"/>
</g>
<path d="M32.7,9.4c-4.3-4.3-11.2-4.3-15.5,0c-2.1,2.1-3.2,4.8-3.2,7.7c0,2.9,1.1,5.7,3.2,7.7C19.4,27,22.2,28,25,28
	c2.8,0,5.6-1.1,7.7-3.2c2.1-2.1,3.2-4.8,3.2-7.7C35.9,14.2,34.8,11.4,32.7,9.4z M18.3,10.4c1.4-1.4,3.2-2.3,5-2.6
	C23,8.3,22.7,9,22.4,9.9c-0.6,2-1,4.6-1,7.3c0,0.1,0,0.3,0,0.5c0.3,0.1,0.6,0.1,0.9,0.1c0.1,0,0.2,0,0.3,0c0-0.2,0-0.4,0-0.6
	c0-5.5,1.4-9.2,2.5-9.5c0,0,0,0,0.1-0.1c2.4,0,4.7,1,6.5,2.8c1.7,1.7,2.7,4,2.8,6.5c-0.2,1.1-3.9,2.5-9.5,2.5
	c-5.5,0-9.1-1.4-9.4-2.4C15.6,14.5,16.6,12.2,18.3,10.4z M31.7,23.8c-1.9,1.9-4.3,2.8-6.8,2.8c-0.7-0.4-1.4-2.1-1.9-4.6l-1.2-0.1
	c0.2,0.9,0.4,1.8,0.6,2.6c0.2,0.8,0.5,1.4,0.8,1.9c-1.8-0.3-3.5-1.2-4.9-2.6c-1.4-1.4-2.3-3.2-2.6-5.1c0.5,0.3,1.2,0.6,2,0.9
	c2,0.6,4.6,1,7.3,1s5.3-0.3,7.3-1c0.8-0.3,1.5-0.6,2-0.9C34,20.6,33.1,22.4,31.7,23.8z"/>
<g>
	<path d="M11.1,37.5c0,0-0.1-0.1-0.2-0.2c-0.1-0.1-0.2-0.1-0.4-0.2c-0.2-0.1-0.3-0.1-0.5-0.2c-0.2,0-0.4-0.1-0.6-0.1
		c-0.3,0-0.6,0.1-0.8,0.2c-0.2,0.1-0.3,0.3-0.3,0.5c0,0.1,0,0.2,0.1,0.3c0.1,0.1,0.2,0.2,0.3,0.2s0.3,0.1,0.5,0.2
		c0.2,0.1,0.4,0.1,0.6,0.2c0.3,0.1,0.6,0.2,0.9,0.3c0.3,0.1,0.5,0.2,0.6,0.4c0.2,0.1,0.3,0.3,0.4,0.5c0.1,0.2,0.1,0.4,0.1,0.7
		c0,0.3-0.1,0.6-0.2,0.9c-0.1,0.2-0.3,0.4-0.5,0.6s-0.5,0.3-0.8,0.3c-0.3,0.1-0.6,0.1-0.9,0.1c-0.5,0-1-0.1-1.4-0.2
		s-0.9-0.3-1.3-0.6l0.5-1.1c0.1,0.1,0.2,0.1,0.3,0.2c0.1,0.1,0.3,0.2,0.5,0.3s0.4,0.2,0.6,0.2c0.2,0.1,0.5,0.1,0.7,0.1
		c0.7,0,1-0.2,1-0.7c0-0.1,0-0.3-0.1-0.4c-0.1-0.1-0.2-0.2-0.3-0.3c-0.1-0.1-0.3-0.1-0.5-0.2c-0.2-0.1-0.4-0.1-0.7-0.2
		c-0.3-0.1-0.6-0.2-0.8-0.3S7.7,39,7.6,38.9c-0.2-0.1-0.3-0.3-0.3-0.5c-0.1-0.2-0.1-0.4-0.1-0.6c0-0.3,0.1-0.6,0.2-0.9
		c0.1-0.3,0.3-0.5,0.5-0.6s0.5-0.3,0.7-0.4c0.3-0.1,0.6-0.1,0.9-0.1c0.5,0,0.9,0.1,1.2,0.2c0.4,0.1,0.7,0.3,1,0.5L11.1,37.5z"/>
	<path d="M13.1,42.2v-6.4h2.7c0.3,0,0.6,0.1,0.8,0.2s0.5,0.3,0.6,0.5c0.2,0.2,0.3,0.4,0.4,0.7c0.1,0.3,0.2,0.5,0.2,0.8
		c0,0.3,0,0.5-0.1,0.8c-0.1,0.3-0.2,0.5-0.4,0.7c-0.2,0.2-0.4,0.4-0.6,0.5c-0.2,0.1-0.5,0.2-0.8,0.2h-1.5v2.1H13.1z M14.3,39h1.4
		c0.2,0,0.4-0.1,0.6-0.3c0.2-0.2,0.2-0.4,0.2-0.8c0-0.2,0-0.3-0.1-0.4c0-0.1-0.1-0.2-0.2-0.3C16.2,37.1,16.1,37,16,37
		c-0.1,0-0.2-0.1-0.3-0.1h-1.4V39z"/>
	<path d="M24.3,35.8v6.4H23v-2.7h-2.9v2.7h-1.2v-6.4h1.2v2.6H23v-2.6H24.3z"/>
	<path d="M30.3,41.1v1.1h-4.4v-6.4h4.4v1.1h-3.1v1.5h2.7v1h-2.7v1.7H30.3z"/>
	<path d="M31.5,42.2v-6.4h2.8c0.3,0,0.6,0.1,0.8,0.2s0.5,0.3,0.6,0.5c0.2,0.2,0.3,0.4,0.4,0.7c0.1,0.3,0.2,0.5,0.2,0.8
		c0,0.4-0.1,0.8-0.3,1.1c-0.2,0.3-0.5,0.6-0.8,0.7l1.5,2.4h-1.4L34,40.1h-1.2v2.1H31.5z M32.7,39h1.6c0.1,0,0.2,0,0.3-0.1
		c0.1-0.1,0.2-0.1,0.3-0.2c0.1-0.1,0.1-0.2,0.2-0.3s0.1-0.3,0.1-0.4c0-0.1,0-0.3-0.1-0.4s-0.1-0.2-0.2-0.3c-0.1-0.1-0.2-0.2-0.3-0.2
		c-0.1-0.1-0.2-0.1-0.3-0.1h-1.5V39z"/>
	<path d="M42.2,41.1v1.1h-4.4v-6.4h4.4v1.1H39v1.5h2.7v1H39v1.7H42.2z"/>
</g>
<path class="st3" d="M33.1,59.4c-4.3-4.3-11.2-4.3-15.5,0c-2.1,2.1-3.2,4.8-3.2,7.7c0,2.9,1.1,5.7,3.2,7.7c2.1,2.1,4.9,3.2,7.7,3.2
	c2.8,0,5.6-1.1,7.7-3.2c2.1-2.1,3.2-4.8,3.2-7.7C36.3,64.2,35.1,61.5,33.1,59.4z M18.6,60.4c1.4-1.4,3.2-2.3,5-2.6
	c-0.3,0.5-0.7,1.2-0.9,2.1c-0.6,2-1,4.6-1,7.3c0,0.1,0,0.3,0,0.5c0.3,0.1,0.6,0.1,0.9,0.1c0.1,0,0.2,0,0.3,0c0-0.2,0-0.4,0-0.6
	c0-5.5,1.4-9.2,2.5-9.5c0,0,0,0,0.1-0.1c2.4,0,4.7,1,6.5,2.8c1.7,1.7,2.7,4,2.8,6.5c-0.2,1.1-3.9,2.5-9.5,2.5
	c-5.5,0-9.1-1.4-9.4-2.4C15.9,64.5,16.9,62.2,18.6,60.4z M32,73.8c-1.9,1.9-4.3,2.8-6.8,2.8c-0.7-0.4-1.4-2.1-1.9-4.6l-1.2-0.1
	c0.2,0.9,0.4,1.8,0.6,2.6c0.2,0.8,0.5,1.4,0.8,1.9c-1.8-0.3-3.5-1.2-4.9-2.6c-1.4-1.4-2.3-3.2-2.6-5.1c0.5,0.3,1.2,0.6,2,0.9
	c2,0.6,4.6,1,7.3,1s5.3-0.3,7.3-1c0.8-0.3,1.5-0.6,2-0.9C34.3,70.7,33.4,72.4,32,73.8z"/>
<g>
	<path class="st3" d="M11.5,87.5c0,0-0.1-0.1-0.2-0.2c-0.1-0.1-0.2-0.1-0.4-0.2S10.5,87,10.3,87c-0.2,0-0.4-0.1-0.6-0.1
		c-0.3,0-0.6,0.1-0.8,0.2s-0.3,0.3-0.3,0.5c0,0.1,0,0.2,0.1,0.3C8.9,88,9,88.1,9.1,88.2c0.1,0.1,0.3,0.1,0.5,0.2
		c0.2,0.1,0.4,0.1,0.6,0.2c0.3,0.1,0.6,0.2,0.9,0.3s0.5,0.2,0.6,0.4c0.2,0.1,0.3,0.3,0.4,0.5c0.1,0.2,0.1,0.4,0.1,0.7
		c0,0.3-0.1,0.6-0.2,0.9c-0.1,0.2-0.3,0.4-0.5,0.6c-0.2,0.2-0.5,0.3-0.8,0.3c-0.3,0.1-0.6,0.1-0.9,0.1c-0.5,0-1-0.1-1.4-0.2
		C8,92,7.6,91.8,7.2,91.5l0.5-1.1c0.1,0.1,0.2,0.1,0.3,0.2c0.1,0.1,0.3,0.2,0.5,0.3s0.4,0.2,0.6,0.2c0.2,0.1,0.5,0.1,0.7,0.1
		c0.7,0,1-0.2,1-0.7c0-0.1,0-0.3-0.1-0.4c-0.1-0.1-0.2-0.2-0.3-0.3c-0.1-0.1-0.3-0.1-0.5-0.2c-0.2-0.1-0.4-0.1-0.7-0.2
		c-0.3-0.1-0.6-0.2-0.8-0.3c-0.2-0.1-0.4-0.2-0.6-0.3s-0.3-0.3-0.3-0.5c-0.1-0.2-0.1-0.4-0.1-0.6c0-0.3,0.1-0.6,0.2-0.9
		c0.1-0.3,0.3-0.5,0.5-0.6s0.5-0.3,0.7-0.4s0.6-0.1,0.9-0.1c0.5,0,0.9,0.1,1.2,0.2s0.7,0.3,1,0.5L11.5,87.5z"/>
	<path class="st3" d="M13.4,92.2v-6.4h2.7c0.3,0,0.6,0.1,0.8,0.2s0.5,0.3,0.6,0.5s0.3,0.4,0.4,0.7c0.1,0.3,0.2,0.5,0.2,0.8
		c0,0.3,0,0.5-0.1,0.8c-0.1,0.3-0.2,0.5-0.4,0.7c-0.2,0.2-0.4,0.4-0.6,0.5c-0.2,0.1-0.5,0.2-0.8,0.2h-1.5v2.1H13.4z M14.7,89h1.4
		c0.2,0,0.4-0.1,0.6-0.3c0.2-0.2,0.2-0.4,0.2-0.8c0-0.2,0-0.3-0.1-0.4c0-0.1-0.1-0.2-0.2-0.3s-0.2-0.2-0.3-0.2
		c-0.1,0-0.2-0.1-0.3-0.1h-1.4V89z"/>
	<path class="st3" d="M24.6,85.9v6.4h-1.2v-2.7h-2.9v2.7h-1.2v-6.4h1.2v2.6h2.9v-2.6H24.6z"/>
	<path class="st3" d="M30.6,91.2v1.1h-4.4v-6.4h4.4v1.1h-3.1v1.5h2.7v1h-2.7v1.7H30.6z"/>
	<path class="st3" d="M31.8,92.2v-6.4h2.8c0.3,0,0.6,0.1,0.8,0.2s0.5,0.3,0.6,0.5c0.2,0.2,0.3,0.4,0.4,0.7c0.1,0.3,0.2,0.5,0.2,0.8
		c0,0.4-0.1,0.8-0.3,1.1s-0.5,0.6-0.8,0.7l1.5,2.4h-1.4l-1.3-2.1h-1.2v2.1H31.8z M33.1,89h1.6c0.1,0,0.2,0,0.3-0.1
		c0.1-0.1,0.2-0.1,0.3-0.2c0.1-0.1,0.1-0.2,0.2-0.3s0.1-0.3,0.1-0.4c0-0.1,0-0.3-0.1-0.4s-0.1-0.2-0.2-0.3S35,87.1,34.9,87
		c-0.1-0.1-0.2-0.1-0.3-0.1h-1.5V89z"/>
	<path class="st3" d="M42.5,91.2v1.1h-4.4v-6.4h4.4v1.1h-3.1v1.5H42v1h-2.7v1.7H42.5z"/>
</g>
<g class="st4">
	<path class="st2" d="M50,146c0,2.2-1.8,4-4,4H4c-2.2,0-4-1.8-4-4v-42c0-2.2,1.8-4,4-4h42c2.2,0,4,1.8,4,4V146z"/>
</g>
<path class="st5" d="M33.1,109.4c-4.3-4.3-11.2-4.3-15.5,0c-2.1,2.1-3.2,4.8-3.2,7.7c0,2.9,1.1,5.7,3.2,7.7c2.1,2.1,4.9,3.2,7.7,3.2
	c2.8,0,5.6-1.1,7.7-3.2c2.1-2.1,3.2-4.8,3.2-7.7C36.3,114.2,35.1,111.5,33.1,109.4z M18.6,110.4c1.4-1.4,3.2-2.3,5-2.6
	c-0.3,0.5-0.7,1.2-0.9,2.1c-0.6,2-1,4.6-1,7.3c0,0.1,0,0.3,0,0.5c0.3,0.1,0.6,0.1,0.9,0.1c0.1,0,0.2,0,0.3,0c0-0.2,0-0.4,0-0.6
	c0-5.5,1.4-9.2,2.5-9.5c0,0,0,0,0.1-0.1c2.4,0,4.7,1,6.5,2.8c1.7,1.7,2.7,4,2.8,6.5c-0.2,1.1-3.9,2.5-9.5,2.5
	c-5.5,0-9.1-1.4-9.4-2.4C15.9,114.5,16.9,112.2,18.6,110.4z M32,123.8c-1.9,1.9-4.3,2.8-6.8,2.8c-0.7-0.4-1.4-2.1-1.9-4.6l-1.2-0.1
	c0.2,0.9,0.4,1.8,0.6,2.6c0.2,0.8,0.5,1.4,0.8,1.9c-1.8-0.3-3.5-1.2-4.9-2.6c-1.4-1.4-2.3-3.2-2.6-5.1c0.5,0.3,1.2,0.6,2,0.9
	c2,0.6,4.6,1,7.3,1s5.3-0.3,7.3-1c0.8-0.3,1.5-0.6,2-0.9C34.3,120.7,33.4,122.4,32,123.8z"/>
<g class="st4">
	<path class="st3" d="M11.5,137.5c0,0-0.1-0.1-0.2-0.2c-0.1-0.1-0.2-0.1-0.4-0.2s-0.3-0.1-0.5-0.2c-0.2,0-0.4-0.1-0.6-0.1
		c-0.3,0-0.6,0.1-0.8,0.2s-0.3,0.3-0.3,0.5c0,0.1,0,0.2,0.1,0.3c0.1,0.1,0.2,0.2,0.3,0.2c0.1,0.1,0.3,0.1,0.5,0.2
		c0.2,0.1,0.4,0.1,0.6,0.2c0.3,0.1,0.6,0.2,0.9,0.3s0.5,0.2,0.6,0.4c0.2,0.1,0.3,0.3,0.4,0.5c0.1,0.2,0.1,0.4,0.1,0.7
		c0,0.3-0.1,0.6-0.2,0.9c-0.1,0.2-0.3,0.4-0.5,0.6c-0.2,0.2-0.5,0.3-0.8,0.3c-0.3,0.1-0.6,0.1-0.9,0.1c-0.5,0-1-0.1-1.4-0.2
		c-0.5-0.1-0.9-0.3-1.3-0.6l0.5-1.1c0.1,0.1,0.2,0.1,0.3,0.2c0.1,0.1,0.3,0.2,0.5,0.3s0.4,0.2,0.6,0.2c0.2,0.1,0.5,0.1,0.7,0.1
		c0.7,0,1-0.2,1-0.7c0-0.1,0-0.3-0.1-0.4c-0.1-0.1-0.2-0.2-0.3-0.3c-0.1-0.1-0.3-0.1-0.5-0.2c-0.2-0.1-0.4-0.1-0.7-0.2
		c-0.3-0.1-0.6-0.2-0.8-0.3c-0.2-0.1-0.4-0.2-0.6-0.3s-0.3-0.3-0.3-0.5c-0.1-0.2-0.1-0.4-0.1-0.6c0-0.3,0.1-0.6,0.2-0.9
		c0.1-0.3,0.3-0.5,0.5-0.6s0.5-0.3,0.7-0.4s0.6-0.1,0.9-0.1c0.5,0,0.9,0.1,1.2,0.2s0.7,0.3,1,0.5L11.5,137.5z"/>
	<path class="st3" d="M13.4,142.2v-6.4h2.7c0.3,0,0.6,0.1,0.8,0.2s0.5,0.3,0.6,0.5s0.3,0.4,0.4,0.7c0.1,0.3,0.2,0.5,0.2,0.8
		c0,0.3,0,0.5-0.1,0.8c-0.1,0.3-0.2,0.5-0.4,0.7c-0.2,0.2-0.4,0.4-0.6,0.5c-0.2,0.1-0.5,0.2-0.8,0.2h-1.5v2.1H13.4z M14.7,139h1.4
		c0.2,0,0.4-0.1,0.6-0.3c0.2-0.2,0.2-0.4,0.2-0.8c0-0.2,0-0.3-0.1-0.4c0-0.1-0.1-0.2-0.2-0.3s-0.2-0.2-0.3-0.2
		c-0.1,0-0.2-0.1-0.3-0.1h-1.4V139z"/>
	<path class="st3" d="M24.6,135.9v6.4h-1.2v-2.7h-2.9v2.7h-1.2v-6.4h1.2v2.6h2.9v-2.6H24.6z"/>
	<path class="st3" d="M30.6,141.2v1.1h-4.4v-6.4h4.4v1.1h-3.1v1.5h2.7v1h-2.7v1.7H30.6z"/>
	<path class="st3" d="M31.8,142.2v-6.4h2.8c0.3,0,0.6,0.1,0.8,0.2s0.5,0.3,0.6,0.5c0.2,0.2,0.3,0.4,0.4,0.7c0.1,0.3,0.2,0.5,0.2,0.8
		c0,0.4-0.1,0.8-0.3,1.1s-0.5,0.6-0.8,0.7l1.5,2.4h-1.4l-1.3-2.1h-1.2v2.1H31.8z M33.1,139h1.6c0.1,0,0.2,0,0.3-0.1
		c0.1-0.1,0.2-0.1,0.3-0.2c0.1-0.1,0.1-0.2,0.2-0.3s0.1-0.3,0.1-0.4c0-0.1,0-0.3-0.1-0.4s-0.1-0.2-0.2-0.3s-0.2-0.2-0.3-0.2
		c-0.1-0.1-0.2-0.1-0.3-0.1h-1.5V139z"/>
	<path class="st3" d="M42.5,141.2v1.1h-4.4v-6.4h4.4v1.1h-3.1v1.5H42v1h-2.7v1.7H42.5z"/>
</g>
</svg>
