<?xml version="1.0" encoding="utf-8"?>
<!-- Generator: Adobe Illustrator 19.2.0, SVG Export Plug-In . SVG Version: 6.00 Build 0)  -->
<svg version="1.1" xmlns="http://www.w3.org/2000/svg" xmlns:xlink="http://www.w3.org/1999/xlink" x="0px" y="0px"
	 viewBox="0 0 50 200.1" style="enable-background:new 0 0 50 200.1;" xml:space="preserve">
<style type="text/css">
	.st0{fill:#414042;}
	.st1{fill:#1E1E1E;}
	.st2{fill:none;stroke:#75FF48;stroke-width:0.25;stroke-miterlimit:10;}
	.st3{fill:#FFFFFF;}
</style>
<g id="Layer_2">
	<g>
		<g>
			<path class="st0" d="M50.1,146.1c0,2.2-1.8,4-4,4h-42c-2.2,0-4-1.8-4-4v-42c0-2.2,1.8-4,4-4h42c2.2,0,4,1.8,4,4V146.1z"/>
		</g>
	</g>
	<g>
		<g>
			<path class="st0" d="M50,196.1c0,2.2-1.8,4-4,4H4c-2.2,0-4-1.8-4-4v-42c0-2.2,1.8-4,4-4h42c2.2,0,4,1.8,4,4V196.1z"/>
		</g>
	</g>
	<g>
		<g>
			<path class="st1" d="M50,46c0,2.2-1.8,4-4,4H4c-2.2,0-4-1.8-4-4V4c0-2.2,1.8-4,4-4h42c2.2,0,4,1.8,4,4V46z"/>
		</g>
	</g>
	<g>
		<path class="st1" d="M50,96.1c0,2.2-1.8,4-4,4H4c-2.2,0-4-1.8-4-4v-42c0-2.2,1.8-4,4-4h42c2.2,0,4,1.8,4,4V96.1z"/>
	</g>
</g>
<g id="Layer_3">
</g>
<g id="Layer_1">
	<path class="st3" d="M27.7,20.9v3.5c0,0.6-0.5,1.1-1.1,1.1H13.4c-0.6,0-1.1-0.5-1.1-1.1v-6.5c0-0.6,0.5-1.1,1.1-1.1l3.9,0
		c-0.1-0.5-0.2-1-0.2-1.3l-3.8,0c-1.4,0-2.4,1.1-2.4,2.4v6.5c0,1.4,1.1,2.4,2.4,2.4h5.9v1.2h-3.4c-0.3,0-0.6,0.3-0.6,0.7
		s0.3,0.7,0.6,0.7h8.5c0.3,0,0.6-0.3,0.6-0.7s-0.3-0.7-0.6-0.7h-3.7v-1.2c-0.1,0-0.2,0-0.4,0h6.3c1.4,0,2.4-1.1,2.4-2.4V20
		C28.7,20.4,28.2,20.7,27.7,20.9z"/>
	<path class="st3" d="M36.2,19.9h-3.7c-0.5,0-0.9-0.4-1.5-1.4c-0.4-0.6-0.9-1.3-1.4-1.3l0-0.6l0,0.6c-0.5,0-0.9,0.6-1.4,1.2
		c-0.6,0.9-1.1,1.5-1.7,1.5h-3.5c-2.4,0-4.3-1.9-4.3-4.3v-2.3c0-2.4,1.9-4.3,4.3-4.3h13.1c2.4,0,4.3,1.9,4.3,4.3v2.3
		C40.5,18,38.6,19.9,36.2,19.9z M32.7,18.7h3.5c1.7,0,3.1-1.4,3.1-3v-2.3c0-1.7-1.4-3-3.1-3H23.1c-1.7,0-3.1,1.4-3.1,3v2.3
		c0,1.7,1.4,3,3.1,3h3.4c0.2-0.2,0.6-0.7,0.7-0.9c0.6-0.8,1.2-1.7,2.3-1.8l0.1,0c1.2,0,1.8,1,2.4,1.8C32.4,18.3,32.6,18.5,32.7,18.7
		z"/>
	<path class="st3" d="M37.4,21.5c-0.2-0.1-0.4,0-0.6,0.1L35,23.4l0.7,0.7l0.9-0.9c0,0,0.3,1.3-0.7,2.4c-1,1-2.3,0.6-2.3,0.6l0.8-0.8
		l-0.8-0.8l-1.7,1.7l0,0c0,0-0.1,0.1-0.1,0.2c-0.1,0.2,0,0.4,0.1,0.6l1.8,1.8l0.8-0.8l-0.9-0.9c0,0,1.7,0.3,3.1-1.1
		c1.3-1.3,1-3.1,1-3.1l0.8,0.8l0.8-0.8l-1.6-1.6C37.6,21.6,37.5,21.5,37.4,21.5z"/>
	<path class="st3" d="M11.8,37.7c0,0-0.1-0.1-0.2-0.2c-0.1-0.1-0.3-0.1-0.4-0.2c-0.2-0.1-0.3-0.1-0.5-0.2c-0.2,0-0.4-0.1-0.6-0.1
		c-0.4,0-0.6,0.1-0.8,0.2C9.1,37.4,9,37.6,9,37.8c0,0.1,0,0.2,0.1,0.3c0.1,0.1,0.2,0.2,0.3,0.2s0.3,0.1,0.5,0.2
		c0.2,0.1,0.4,0.1,0.7,0.2c0.3,0.1,0.6,0.2,0.9,0.3c0.3,0.1,0.5,0.2,0.7,0.4c0.2,0.1,0.3,0.3,0.4,0.5c0.1,0.2,0.1,0.5,0.1,0.8
		c0,0.4-0.1,0.7-0.2,0.9c-0.1,0.2-0.3,0.5-0.5,0.6c-0.2,0.2-0.5,0.3-0.8,0.3c-0.3,0.1-0.6,0.1-0.9,0.1c-0.5,0-1-0.1-1.5-0.2
		S7.8,42,7.4,41.8L8,40.7c0.1,0.1,0.2,0.1,0.3,0.2c0.1,0.1,0.3,0.2,0.5,0.3c0.2,0.1,0.4,0.2,0.7,0.2c0.2,0.1,0.5,0.1,0.7,0.1
		c0.7,0,1.1-0.2,1.1-0.7c0-0.1,0-0.3-0.1-0.4c-0.1-0.1-0.2-0.2-0.3-0.3c-0.1-0.1-0.3-0.1-0.5-0.2c-0.2-0.1-0.4-0.1-0.7-0.2
		c-0.3-0.1-0.6-0.2-0.8-0.3c-0.2-0.1-0.4-0.2-0.6-0.4C8,39,7.9,38.9,7.8,38.7c-0.1-0.2-0.1-0.4-0.1-0.7c0-0.3,0.1-0.6,0.2-0.9
		c0.1-0.3,0.3-0.5,0.5-0.6c0.2-0.2,0.5-0.3,0.8-0.4C9.4,36,9.7,36,10.1,36c0.5,0,0.9,0.1,1.3,0.2c0.4,0.1,0.7,0.3,1,0.5L11.8,37.7z"
		/>
	<path class="st3" d="M15.8,36.1h1.1l0.7,2.1l0.7-2.1h1.2L18.4,39l0.8,2l1.8-5h1.4l-2.6,6.4h-1l-1.1-2.7l-1.1,2.7h-1l-2.6-6.4h1.3
		l1.8,5l0.8-2L15.8,36.1z"/>
	<path class="st3" d="M23.3,42.5v-6.4h1.2v6.4H23.3z"/>
	<path class="st3" d="M30.8,37.2h-2v5.3h-1.2v-5.3h-2v-1.1h5.3V37.2z"/>
	<path class="st3" d="M31.4,39.2c0-0.4,0.1-0.8,0.2-1.2c0.1-0.4,0.3-0.7,0.6-1.1c0.3-0.3,0.6-0.6,1-0.7c0.4-0.2,0.8-0.3,1.3-0.3
		c0.6,0,1.1,0.1,1.5,0.4c0.4,0.3,0.7,0.6,0.9,1l-1,0.7c-0.1-0.2-0.2-0.3-0.3-0.5c-0.1-0.1-0.2-0.2-0.4-0.3c-0.1-0.1-0.3-0.1-0.4-0.2
		c-0.1,0-0.3-0.1-0.4-0.1c-0.3,0-0.6,0.1-0.8,0.2s-0.4,0.3-0.6,0.5c-0.2,0.2-0.3,0.4-0.3,0.7c-0.1,0.3-0.1,0.5-0.1,0.8
		c0,0.3,0,0.6,0.1,0.8c0.1,0.3,0.2,0.5,0.4,0.7c0.2,0.2,0.4,0.4,0.6,0.5c0.2,0.1,0.5,0.2,0.7,0.2c0.1,0,0.3,0,0.4-0.1
		c0.1,0,0.3-0.1,0.4-0.2c0.1-0.1,0.3-0.2,0.4-0.3c0.1-0.1,0.2-0.3,0.3-0.5l1,0.6c-0.1,0.2-0.2,0.5-0.4,0.7c-0.2,0.2-0.4,0.3-0.6,0.5
		c-0.2,0.1-0.5,0.2-0.8,0.3c-0.3,0.1-0.5,0.1-0.8,0.1c-0.5,0-0.9-0.1-1.3-0.3c-0.4-0.2-0.7-0.5-1-0.8c-0.3-0.3-0.5-0.7-0.6-1.1
		C31.5,40.1,31.4,39.7,31.4,39.2z"/>
	<path class="st3" d="M43.5,36.1v6.4h-1.2v-2.7h-2.9v2.7h-1.2v-6.4h1.2v2.6h2.9v-2.6H43.5z"/>
	<g>
		<path class="st3" d="M27.7,70.9v3.5c0,0.6-0.5,1.1-1.1,1.1H13.4c-0.6,0-1.1-0.5-1.1-1.1v-6.5c0-0.6,0.5-1.1,1.1-1.1h3.8
			c-0.1-0.4-0.3-0.9-0.3-1.3h-3.5c-1.4,0-2.4,1.1-2.4,2.4v6.5c0,1.4,1.1,2.4,2.4,2.4h5.9v1.2h-3.4c-0.3,0-0.6,0.3-0.6,0.7
			c0,0.3,0.3,0.7,0.6,0.7h8.5c0.3,0,0.6-0.3,0.6-0.7c0-0.3-0.3-0.7-0.6-0.7h-3.7v-1.2c-0.1,0-0.2,0-0.4,0h6.3c1.4,0,2.4-1.1,2.4-2.4
			V70C28.7,70.4,28.2,70.7,27.7,70.9z"/>
		<path class="st3" d="M29.7,66.6c0.8,0,1.4,0.8,1.9,1.6c0.2,0.4,0.8,1.1,1,1.1h3.7c2,0,3.7-1.6,3.7-3.7v-2.3c0-2-1.7-3.7-3.7-3.7
			H23.1c-2,0-3.7,1.6-3.7,3.7v2.3c0,2,1.7,3.7,3.7,3.7h3.5c0.3,0,0.8-0.7,1.1-1.2C28.3,67.4,28.8,66.6,29.7,66.6
			C29.6,66.6,29.7,66.6,29.7,66.6z"/>
		<path class="st3" d="M37.4,71.5c-0.2-0.1-0.4,0-0.6,0.1L35,73.4l0.7,0.7l0.9-0.9c0,0,0.3,1.3-0.7,2.4c-1,1-2.3,0.6-2.3,0.6
			l0.8-0.8l-0.8-0.8l-1.7,1.7l0,0c0,0-0.1,0.1-0.1,0.2c-0.1,0.2,0,0.4,0.1,0.6l1.8,1.8l0.8-0.8l-0.9-0.9c0,0,1.7,0.3,3.1-1.1
			c1.3-1.3,1-3.1,1-3.1l0.8,0.8l0.8-0.8l-1.6-1.6C37.6,71.6,37.5,71.5,37.4,71.5z"/>
	</g>
	<path class="st3" d="M11.8,87.7c0,0-0.1-0.1-0.2-0.2c-0.1-0.1-0.3-0.1-0.4-0.2c-0.2-0.1-0.3-0.1-0.5-0.2c-0.2,0-0.4-0.1-0.6-0.1
		c-0.4,0-0.6,0.1-0.8,0.2C9.1,87.4,9,87.6,9,87.8c0,0.1,0,0.2,0.1,0.3c0.1,0.1,0.2,0.2,0.3,0.2c0.1,0.1,0.3,0.1,0.5,0.2
		c0.2,0.1,0.4,0.1,0.7,0.2c0.3,0.1,0.6,0.2,0.9,0.3c0.3,0.1,0.5,0.2,0.7,0.4c0.2,0.1,0.3,0.3,0.4,0.5c0.1,0.2,0.1,0.5,0.1,0.8
		c0,0.4-0.1,0.7-0.2,0.9c-0.1,0.2-0.3,0.5-0.5,0.6c-0.2,0.2-0.5,0.3-0.8,0.3c-0.3,0.1-0.6,0.1-0.9,0.1c-0.5,0-1-0.1-1.5-0.2
		S7.8,92,7.4,91.8L8,90.7c0.1,0.1,0.2,0.1,0.3,0.2c0.1,0.1,0.3,0.2,0.5,0.3c0.2,0.1,0.4,0.2,0.7,0.2c0.2,0.1,0.5,0.1,0.7,0.1
		c0.7,0,1.1-0.2,1.1-0.7c0-0.1,0-0.3-0.1-0.4c-0.1-0.1-0.2-0.2-0.3-0.3c-0.1-0.1-0.3-0.1-0.5-0.2c-0.2-0.1-0.4-0.1-0.7-0.2
		c-0.3-0.1-0.6-0.2-0.8-0.3c-0.2-0.1-0.4-0.2-0.6-0.4C8,89,7.9,88.9,7.8,88.7c-0.1-0.2-0.1-0.4-0.1-0.7c0-0.3,0.1-0.6,0.2-0.9
		c0.1-0.3,0.3-0.5,0.5-0.6c0.2-0.2,0.5-0.3,0.8-0.4C9.4,86,9.7,86,10.1,86c0.5,0,0.9,0.1,1.3,0.2c0.4,0.1,0.7,0.3,1,0.5L11.8,87.7z"
		/>
	<path class="st3" d="M15.8,86.1h1.1l0.7,2.1l0.7-2.1h1.2L18.4,89l0.8,2l1.8-5h1.4l-2.6,6.4h-1l-1.1-2.7l-1.1,2.7h-1l-2.6-6.4h1.3
		l1.8,5l0.8-2L15.8,86.1z"/>
	<path class="st3" d="M23.3,92.5v-6.4h1.2v6.4H23.3z"/>
	<path class="st3" d="M30.8,87.2h-2v5.3h-1.2v-5.3h-2v-1.1h5.3V87.2z"/>
	<path class="st3" d="M31.4,89.2c0-0.4,0.1-0.8,0.2-1.2c0.1-0.4,0.3-0.7,0.6-1.1c0.3-0.3,0.6-0.6,1-0.7c0.4-0.2,0.8-0.3,1.3-0.3
		c0.6,0,1.1,0.1,1.5,0.4c0.4,0.3,0.7,0.6,0.9,1l-1,0.7c-0.1-0.2-0.2-0.3-0.3-0.5c-0.1-0.1-0.2-0.2-0.4-0.3c-0.1-0.1-0.3-0.1-0.4-0.2
		c-0.1,0-0.3-0.1-0.4-0.1c-0.3,0-0.6,0.1-0.8,0.2c-0.2,0.1-0.4,0.3-0.6,0.5c-0.2,0.2-0.3,0.4-0.3,0.7c-0.1,0.3-0.1,0.5-0.1,0.8
		c0,0.3,0,0.6,0.1,0.8c0.1,0.3,0.2,0.5,0.4,0.7c0.2,0.2,0.4,0.4,0.6,0.5c0.2,0.1,0.5,0.2,0.7,0.2c0.1,0,0.3,0,0.4-0.1
		c0.1,0,0.3-0.1,0.4-0.2c0.1-0.1,0.3-0.2,0.4-0.3c0.1-0.1,0.2-0.3,0.3-0.5l1,0.6c-0.1,0.2-0.2,0.5-0.4,0.7c-0.2,0.2-0.4,0.3-0.6,0.5
		c-0.2,0.1-0.5,0.2-0.8,0.3c-0.3,0.1-0.5,0.1-0.8,0.1c-0.5,0-0.9-0.1-1.3-0.3c-0.4-0.2-0.7-0.5-1-0.8c-0.3-0.3-0.5-0.7-0.6-1.1
		C31.5,90.1,31.4,89.7,31.4,89.2z"/>
	<path class="st3" d="M43.5,86.1v6.4h-1.2v-2.7h-2.9v2.7h-1.2v-6.4h1.2v2.6h2.9v-2.6H43.5z"/>
	<path class="st3" d="M26.6,120.8l0,4.7c0,0.6-0.5,1.1-1.1,1.1H12.3c-0.6,0-1.1-0.5-1.1-1.1V119c0-0.6,0.5-1.1,1.1-1.1h7.2
		c-0.1-0.4-0.3-0.9-0.3-1.3h-6.9c-1.4,0-2.4,1.1-2.4,2.4v6.5c0,1.4,1.1,2.4,2.4,2.4h5.9v1.2h-3.4c-0.3,0-0.6,0.3-0.6,0.7
		c0,0.3,0.3,0.7,0.6,0.7h8.5c0.3,0,0.6-0.3,0.6-0.7c0-0.3-0.3-0.7-0.6-0.7h-3.7v-1.2c-0.1,0-0.2,0-0.4,0h6.3c1.4,0,2.4-1.1,2.4-2.4
		v-4.7C27.5,120.8,27,120.7,26.6,120.8z"/>
	<path class="st3" d="M38,119h-3.7c-0.5,0-0.9-0.4-1.5-1.4c-0.4-0.6-0.9-1.3-1.3-1.3c-0.5,0-0.9,0.6-1.4,1.2
		c-0.6,0.9-1.1,1.5-1.7,1.5h-3.5c-2.4,0-4.3-1.9-4.3-4.3v-2.3c0-2.4,1.9-4.3,4.3-4.3H38c2.4,0,4.3,1.9,4.3,4.3v2.3
		C42.3,117.1,40.4,119,38,119z M34.5,117.7H38c1.7,0,3.1-1.4,3.1-3v-2.3c0-1.7-1.4-3-3.1-3H24.9c-1.7,0-3.1,1.4-3.1,3v2.3
		c0,1.7,1.4,3,3.1,3h3.4c0.2-0.2,0.6-0.7,0.7-0.9c0.6-0.8,1.2-1.7,2.3-1.8l0.1,0c1.2,0,1.8,1,2.4,1.8
		C34.2,117.4,34.4,117.6,34.5,117.7z"/>
	<path class="st3" d="M37.2,120.5c-0.2-0.1-0.4,0-0.6,0.1l-1.8,1.8l0.7,0.7l0.9-0.9c0,0,0.3,2.3-0.7,3.4c-1,1-3.3,0.6-3.3,0.6
		l0.8-0.8l-0.8-0.8l-1.7,1.7l0,0c0,0-0.1,0.1-0.1,0.2c-0.1,0.2,0,0.4,0.1,0.6l1.8,1.8l0.8-0.8l-0.9-0.9c0,0,2.7,0.3,4.1-1.1
		c1.3-1.3,1-4.1,1-4.1l0.8,0.8l0.8-0.8l-1.6-1.6C37.4,120.7,37.3,120.6,37.2,120.5z"/>
	<path class="st3" d="M11.6,137.8c0,0-0.1-0.1-0.2-0.2c-0.1-0.1-0.3-0.1-0.4-0.2c-0.2-0.1-0.3-0.1-0.5-0.2c-0.2,0-0.4-0.1-0.6-0.1
		c-0.4,0-0.6,0.1-0.8,0.2c-0.2,0.1-0.3,0.3-0.3,0.5c0,0.1,0,0.2,0.1,0.3c0.1,0.1,0.2,0.2,0.3,0.2c0.1,0.1,0.3,0.1,0.5,0.2
		c0.2,0.1,0.4,0.1,0.7,0.2c0.3,0.1,0.6,0.2,0.9,0.3c0.3,0.1,0.5,0.2,0.7,0.4c0.2,0.1,0.3,0.3,0.4,0.5c0.1,0.2,0.1,0.5,0.1,0.8
		c0,0.4-0.1,0.7-0.2,0.9c-0.1,0.2-0.3,0.5-0.5,0.6s-0.5,0.3-0.8,0.3c-0.3,0.1-0.6,0.1-0.9,0.1c-0.5,0-1-0.1-1.5-0.2
		s-0.9-0.4-1.3-0.6l0.6-1.1c0.1,0.1,0.2,0.1,0.3,0.2c0.1,0.1,0.3,0.2,0.5,0.3s0.4,0.2,0.7,0.2c0.2,0.1,0.5,0.1,0.7,0.1
		c0.7,0,1.1-0.2,1.1-0.7c0-0.1,0-0.3-0.1-0.4c-0.1-0.1-0.2-0.2-0.3-0.3c-0.1-0.1-0.3-0.1-0.5-0.2c-0.2-0.1-0.4-0.1-0.7-0.2
		c-0.3-0.1-0.6-0.2-0.8-0.3c-0.2-0.1-0.4-0.2-0.6-0.4c-0.2-0.1-0.3-0.3-0.3-0.5c-0.1-0.2-0.1-0.4-0.1-0.7c0-0.3,0.1-0.6,0.2-0.9
		c0.1-0.3,0.3-0.5,0.5-0.6c0.2-0.2,0.5-0.3,0.8-0.4c0.3-0.1,0.6-0.1,0.9-0.1c0.5,0,0.9,0.1,1.3,0.2c0.4,0.1,0.7,0.3,1,0.5
		L11.6,137.8z"/>
	<path class="st3" d="M15.6,136.2h1.1l0.7,2.1l0.7-2.1h1.2l-1.1,2.9l0.8,2l1.8-5h1.4l-2.6,6.4h-1l-1.1-2.7l-1.1,2.7h-1l-2.6-6.4h1.3
		l1.8,5l0.8-2L15.6,136.2z"/>
	<path class="st3" d="M23.1,142.6v-6.4h1.2v6.4H23.1z"/>
	<path class="st3" d="M30.7,137.3h-2v5.3h-1.2v-5.3h-2v-1.1h5.3V137.3z"/>
	<path class="st3" d="M31.3,139.3c0-0.4,0.1-0.8,0.2-1.2c0.1-0.4,0.3-0.7,0.6-1.1c0.3-0.3,0.6-0.6,1-0.7s0.8-0.3,1.3-0.3
		c0.6,0,1.1,0.1,1.5,0.4c0.4,0.3,0.7,0.6,0.9,1l-1,0.7c-0.1-0.2-0.2-0.3-0.3-0.5c-0.1-0.1-0.2-0.2-0.4-0.3c-0.1-0.1-0.3-0.1-0.4-0.2
		c-0.1,0-0.3-0.1-0.4-0.1c-0.3,0-0.6,0.1-0.8,0.2c-0.2,0.1-0.4,0.3-0.6,0.5c-0.2,0.2-0.3,0.4-0.3,0.7c-0.1,0.3-0.1,0.5-0.1,0.8
		c0,0.3,0,0.6,0.1,0.8c0.1,0.3,0.2,0.5,0.4,0.7c0.2,0.2,0.4,0.4,0.6,0.5c0.2,0.1,0.5,0.2,0.7,0.2c0.1,0,0.3,0,0.4-0.1
		c0.1,0,0.3-0.1,0.4-0.2c0.1-0.1,0.3-0.2,0.4-0.3c0.1-0.1,0.2-0.3,0.3-0.5l1,0.6c-0.1,0.2-0.2,0.5-0.4,0.7c-0.2,0.2-0.4,0.3-0.6,0.5
		c-0.2,0.1-0.5,0.2-0.8,0.3c-0.3,0.1-0.5,0.1-0.8,0.1c-0.5,0-0.9-0.1-1.3-0.3c-0.4-0.2-0.7-0.5-1-0.8c-0.3-0.3-0.5-0.7-0.6-1.1
		C31.3,140.1,31.3,139.7,31.3,139.3z"/>
	<path class="st3" d="M43.3,136.2v6.4h-1.2v-2.7h-2.9v2.7H38v-6.4h1.2v2.6h2.9v-2.6H43.3z"/>
	<path class="st3" d="M26.6,171v4.5c0,0.6-0.5,1.1-1.1,1.1H12.3c-0.6,0-1.1-0.5-1.1-1.1v-6.5c0-0.6,0.5-1.1,1.1-1.1h6.8
		c-0.1-0.4-0.3-0.9-0.3-1.3h-6.5c-1.4,0-2.4,1.1-2.4,2.4v6.5c0,1.4,1.1,2.4,2.4,2.4h5.9v1.2h-3.4c-0.3,0-0.6,0.3-0.6,0.7
		c0,0.3,0.3,0.7,0.6,0.7h8.5c0.3,0,0.6-0.3,0.6-0.7c0-0.3-0.3-0.7-0.6-0.7h-3.7V178c-0.1,0-0.2,0-0.4,0h6.3c1.4,0,2.4-1.1,2.4-2.4
		v-5.4C27.5,170.5,27.1,170.8,26.6,171z"/>
	<path class="st3" d="M31.5,165.7c0.8,0,1.4,0.8,1.9,1.6c0.2,0.4,0.8,1.1,1,1.1H38c2,0,3.7-1.6,3.7-3.7v-2.3c0-2-1.7-3.7-3.7-3.7
		H24.9c-2,0-3.7,1.6-3.7,3.7v2.3c0,2,1.7,3.7,3.7,3.7h3.5c0.3,0,0.8-0.7,1.1-1.2C30.1,166.5,30.7,165.7,31.5,165.7
		C31.5,165.7,31.5,165.7,31.5,165.7z"/>
	<path class="st3" d="M37.2,170.6c-0.2-0.1-0.4,0-0.6,0.1l-1.8,1.8l0.7,0.7l0.9-0.9c0,0,0.3,2.3-0.7,3.4c-1,1-3.3,0.6-3.3,0.6
		l0.8-0.8l-0.8-0.8l-1.7,1.7l0,0c0,0-0.1,0.1-0.1,0.2c-0.1,0.2,0,0.4,0.1,0.6l1.8,1.8l0.8-0.8l-0.9-0.9c0,0,2.7,0.3,4.1-1.1
		c1.3-1.3,1-4.1,1-4.1l0.8,0.8l0.8-0.8l-1.6-1.6C37.4,170.7,37.3,170.7,37.2,170.6z"/>
	<path class="st3" d="M11.6,187.9c0,0-0.1-0.1-0.2-0.2c-0.1-0.1-0.3-0.1-0.4-0.2c-0.2-0.1-0.3-0.1-0.5-0.2c-0.2,0-0.4-0.1-0.6-0.1
		c-0.4,0-0.6,0.1-0.8,0.2c-0.2,0.1-0.3,0.3-0.3,0.5c0,0.1,0,0.2,0.1,0.3c0.1,0.1,0.2,0.2,0.3,0.2s0.3,0.1,0.5,0.2
		c0.2,0.1,0.4,0.1,0.7,0.2c0.3,0.1,0.6,0.2,0.9,0.3c0.3,0.1,0.5,0.2,0.7,0.4c0.2,0.1,0.3,0.3,0.4,0.5c0.1,0.2,0.1,0.5,0.1,0.8
		c0,0.4-0.1,0.7-0.2,0.9c-0.1,0.2-0.3,0.5-0.5,0.6s-0.5,0.3-0.8,0.3c-0.3,0.1-0.6,0.1-0.9,0.1c-0.5,0-1-0.1-1.5-0.2
		s-0.9-0.4-1.3-0.6l0.6-1.1c0.1,0.1,0.2,0.1,0.3,0.2c0.1,0.1,0.3,0.2,0.5,0.3s0.4,0.2,0.7,0.2c0.2,0.1,0.5,0.1,0.7,0.1
		c0.7,0,1.1-0.2,1.1-0.7c0-0.1,0-0.3-0.1-0.4c-0.1-0.1-0.2-0.2-0.3-0.3c-0.1-0.1-0.3-0.1-0.5-0.2c-0.2-0.1-0.4-0.1-0.7-0.2
		c-0.3-0.1-0.6-0.2-0.8-0.3c-0.2-0.1-0.4-0.2-0.6-0.4c-0.2-0.1-0.3-0.3-0.3-0.5c-0.1-0.2-0.1-0.4-0.1-0.7c0-0.3,0.1-0.6,0.2-0.9
		c0.1-0.3,0.3-0.5,0.5-0.6c0.2-0.2,0.5-0.3,0.8-0.4c0.3-0.1,0.6-0.1,0.9-0.1c0.5,0,0.9,0.1,1.3,0.2c0.4,0.1,0.7,0.3,1,0.5
		L11.6,187.9z"/>
	<path class="st3" d="M15.6,186.2h1.1l0.7,2.1l0.7-2.1h1.2l-1.1,2.9l0.8,2l1.8-5h1.4l-2.6,6.4h-1l-1.1-2.7l-1.1,2.7h-1l-2.6-6.4h1.3
		l1.8,5l0.8-2L15.6,186.2z"/>
	<path class="st3" d="M23.1,192.6v-6.4h1.2v6.4H23.1z"/>
	<path class="st3" d="M30.7,187.3h-2v5.3h-1.2v-5.3h-2v-1.1h5.3V187.3z"/>
	<path class="st3" d="M31.3,189.4c0-0.4,0.1-0.8,0.2-1.2c0.1-0.4,0.3-0.7,0.6-1.1c0.3-0.3,0.6-0.6,1-0.7s0.8-0.3,1.3-0.3
		c0.6,0,1.1,0.1,1.5,0.4c0.4,0.3,0.7,0.6,0.9,1l-1,0.7c-0.1-0.2-0.2-0.3-0.3-0.5c-0.1-0.1-0.2-0.2-0.4-0.3c-0.1-0.1-0.3-0.1-0.4-0.2
		c-0.1,0-0.3-0.1-0.4-0.1c-0.3,0-0.6,0.1-0.8,0.2c-0.2,0.1-0.4,0.3-0.6,0.5c-0.2,0.2-0.3,0.4-0.3,0.7c-0.1,0.3-0.1,0.5-0.1,0.8
		c0,0.3,0,0.6,0.1,0.8c0.1,0.3,0.2,0.5,0.4,0.7c0.2,0.2,0.4,0.4,0.6,0.5c0.2,0.1,0.5,0.2,0.7,0.2c0.1,0,0.3,0,0.4-0.1
		c0.1,0,0.3-0.1,0.4-0.2c0.1-0.1,0.3-0.2,0.4-0.3c0.1-0.1,0.2-0.3,0.3-0.5l1,0.6c-0.1,0.2-0.2,0.5-0.4,0.7c-0.2,0.2-0.4,0.3-0.6,0.5
		c-0.2,0.1-0.5,0.2-0.8,0.3c-0.3,0.1-0.5,0.1-0.8,0.1c-0.5,0-0.9-0.1-1.3-0.3c-0.4-0.2-0.7-0.5-1-0.8c-0.3-0.3-0.5-0.7-0.6-1.1
		C31.3,190.2,31.3,189.8,31.3,189.4z"/>
	<path class="st3" d="M43.3,186.2v6.4h-1.2v-2.7h-2.9v2.7H38v-6.4h1.2v2.6h2.9v-2.6H43.3z"/>
	<path class="st3" d="M21.3,21.1c-1.2-0.1-3-1.4-3.6-3.1h-4.1v6.2h12.6v-3.1H21.3z"/>
	<path class="st3" d="M22.8,120.7c-1.3,0-2.2-0.4-3-1.7h-7.2v6.2h12.6v-4.5H22.8z"/>
</g>
</svg>
