<?xml version="1.0" encoding="utf-8"?>
<!-- Generator: Adobe Illustrator 19.2.0, SVG Export Plug-In . SVG Version: 6.00 Build 0)  -->
<svg version="1.1" id="Layer_1" xmlns="http://www.w3.org/2000/svg" xmlns:xlink="http://www.w3.org/1999/xlink" x="0px" y="0px"
	 viewBox="0 0 50 150" style="enable-background:new 0 0 50 150;" xml:space="preserve">
<style type="text/css">
	.st0{opacity:0.9;}
	.st1{fill:#FFFFFF;}
	.st2{fill:#1E1E1E;}
	.st3{fill:#EAEAEA;}
	.st4{opacity:0.47;}
</style>
<g>
	<g class="st0">
		<path class="st1" d="M50,46.3c0,2.2-1.8,4-4,4H4c-2.2,0-4-1.8-4-4v-42c0-2.2,1.8-4,4-4h42c2.2,0,4,1.8,4,4V46.3z"/>
	</g>
</g>
<g class="st0">
	<path class="st2" d="M50,96.3c0,2.2-1.8,4-4,4H4c-2.2,0-4-1.8-4-4v-42c0-2.2,1.8-4,4-4h42c2.2,0,4,1.8,4,4V96.3z"/>
</g>
<g>
	<path d="M23.2,23.8L19,11.9c-0.1-0.1-0.2-0.2-0.3-0.2h-0.5c-0.2,0-0.3,0.1-0.3,0.2l-4.2,11.9c0,0.1,0,0.3,0,0.4
		c0.1,0.1,0.2,0.2,0.3,0.2h0.8c0.2,0,0.3-0.1,0.3-0.3l1.4-4h3.8l1.4,4c0,0.1,0.2,0.3,0.3,0.3h0.8c0.1,0,0.2-0.1,0.3-0.2
		C23.2,24.1,23.2,23.9,23.2,23.8z M17,18.6l1.3-3.7c0-0.1,0.1-0.2,0.1-0.3c0,0.1,0.1,0.2,0.1,0.2l1.3,3.8H17z"/>
	<path d="M29.9,15.5c-0.5-0.6-1.2-0.9-2.2-0.9c-0.9,0-1.8,0.2-2.7,0.7c-0.2,0.1-0.2,0.3-0.2,0.4l0.3,0.7c0,0.1,0.1,0.2,0.2,0.2
		c0.1,0,0.2,0,0.3,0c0.7-0.4,1.4-0.6,2.1-0.6c0.6,0,1,0.2,1.2,0.5c0.3,0.4,0.4,0.9,0.4,1.7v0.2l-1.2,0c-1.3,0-2.3,0.3-3,0.8
		c-0.7,0.5-1.1,1.3-1.1,2.3c0,0.9,0.2,1.6,0.7,2.1c0.5,0.5,1.2,0.8,2.1,0.8c0.6,0,1.2-0.1,1.6-0.4c0.3-0.2,0.6-0.4,0.8-0.7l0.1,0.7
		c0,0.2,0.2,0.3,0.4,0.3h0.5c0.2,0,0.4-0.2,0.4-0.4v-5.9C30.6,16.9,30.4,16.1,29.9,15.5z M25.5,21.6c0-0.6,0.2-1,0.5-1.2
		c0.4-0.3,1.1-0.5,2.1-0.5l1,0v0.5c0,0.9-0.2,1.5-0.6,2c-0.4,0.5-1,0.7-1.7,0.7c-0.5,0-0.8-0.1-1-0.4C25.6,22.4,25.5,22.1,25.5,21.6
		z"/>
	<path d="M35,27c-0.5,0-0.8-0.4-0.8-0.9c0-1.1,0-15.3,0-16.4c0-0.5,0.3-0.9,0.8-0.9c0,0,0,0,0,0c0.5,0,0.8,0.4,0.8,0.9
		c0,1.1,0,15.3,0,16.4C35.8,26.5,35.5,27,35,27C35,27,35,27,35,27z"/>
</g>
<g>
	<path d="M17.6,36.8h-2v5.3h-1.2v-5.3h-2v-1.1h5.3V36.8z"/>
	<path d="M23.1,41v1.1h-4.4v-6.4H23v1.1h-3.1v1.5h2.7v1h-2.7V41H23.1z"/>
	<path d="M24.9,35.7l1.6,2.4l1.6-2.4h1.3L27.2,39l2.2,3.1H28l-1.5-2.3L25,42.1h-1.3l2.2-3.1l-2.3-3.2H24.9z"/>
	<path d="M35.1,36.8h-2v5.3h-1.2v-5.3h-2v-1.1h5.3V36.8z"/>
</g>
<g>
	<path class="st3" d="M23.5,73.8L19.3,62c-0.1-0.1-0.2-0.2-0.3-0.2h-0.5c-0.2,0-0.3,0.1-0.3,0.2L14,73.8c0,0.1,0,0.3,0,0.4
		c0.1,0.1,0.2,0.2,0.3,0.2h0.8c0.2,0,0.3-0.1,0.3-0.3l1.4-4h3.8l1.4,4c0,0.1,0.2,0.3,0.3,0.3h0.8c0.1,0,0.2-0.1,0.3-0.2
		C23.5,74.1,23.5,73.9,23.5,73.8z M17.4,68.6l1.3-3.7c0-0.1,0.1-0.2,0.1-0.3c0,0.1,0.1,0.2,0.1,0.2l1.3,3.8H17.4z"/>
	<path class="st3" d="M30.2,65.5c-0.5-0.6-1.2-0.9-2.2-0.9c-0.9,0-1.8,0.2-2.7,0.7c-0.2,0.1-0.2,0.3-0.2,0.4l0.3,0.7
		c0,0.1,0.1,0.2,0.2,0.2c0.1,0,0.2,0,0.3,0c0.7-0.4,1.4-0.6,2.1-0.6c0.6,0,1,0.2,1.2,0.5c0.3,0.4,0.4,0.9,0.4,1.7v0.2l-1.2,0
		c-1.3,0-2.3,0.3-3,0.8c-0.7,0.5-1.1,1.3-1.1,2.3c0,0.9,0.2,1.6,0.7,2.1c0.5,0.5,1.2,0.8,2.1,0.8c0.6,0,1.2-0.1,1.6-0.4
		c0.3-0.2,0.6-0.4,0.8-0.7l0.1,0.7c0,0.2,0.2,0.3,0.4,0.3h0.5c0.2,0,0.4-0.2,0.4-0.4v-5.9C30.9,66.9,30.7,66.1,30.2,65.5z
		 M25.8,71.6c0-0.6,0.2-1,0.5-1.2c0.4-0.3,1.1-0.5,2.1-0.5l1,0v0.5c0,0.9-0.2,1.5-0.6,2c-0.4,0.5-1,0.7-1.7,0.7
		c-0.5,0-0.8-0.1-1-0.4C25.9,72.4,25.8,72.1,25.8,71.6z"/>
	<path class="st3" d="M35.3,77c-0.5,0-0.8-0.4-0.8-0.9c0-1.1,0-15.3,0-16.4c0-0.5,0.3-0.9,0.8-0.9c0,0,0,0,0,0
		c0.5,0,0.8,0.4,0.8,0.9c0,1.1,0,15.3,0,16.4C36.1,76.6,35.8,77,35.3,77C35.3,77,35.3,77,35.3,77z"/>
</g>
<g>
	<path class="st3" d="M17.9,86.8h-2v5.3h-1.2v-5.3h-2v-1.1h5.3V86.8z"/>
	<path class="st3" d="M23.4,91.1v1.1h-4.4v-6.4h4.4v1.1h-3.1v1.5h2.7v1h-2.7v1.7H23.4z"/>
	<path class="st3" d="M25.3,85.8l1.6,2.4l1.6-2.4h1.3L27.5,89l2.2,3.1h-1.3l-1.5-2.3l-1.5,2.3H24l2.2-3.1l-2.3-3.2H25.3z"/>
	<path class="st3" d="M35.4,86.8h-2v5.3h-1.2v-5.3h-2v-1.1h5.3V86.8z"/>
</g>
<g class="st4">
	<path class="st2" d="M50,146.3c0,2.2-1.8,4-4,4H4c-2.2,0-4-1.8-4-4v-42c0-2.2,1.8-4,4-4h42c2.2,0,4,1.8,4,4V146.3z"/>
</g>
<g class="st4">
	<path class="st3" d="M23.5,123.8L19.3,112c-0.1-0.1-0.2-0.2-0.3-0.2h-0.5c-0.2,0-0.3,0.1-0.3,0.2L14,123.8c0,0.1,0,0.3,0,0.4
		c0.1,0.1,0.2,0.2,0.3,0.2h0.8c0.2,0,0.3-0.1,0.3-0.3l1.4-4h3.8l1.4,4c0,0.1,0.2,0.3,0.3,0.3h0.8c0.1,0,0.2-0.1,0.3-0.2
		C23.5,124.1,23.5,123.9,23.5,123.8z M17.4,118.6l1.3-3.7c0-0.1,0.1-0.2,0.1-0.3c0,0.1,0.1,0.2,0.1,0.2l1.3,3.8H17.4z"/>
	<path class="st3" d="M30.2,115.5c-0.5-0.6-1.2-0.9-2.2-0.9c-0.9,0-1.8,0.2-2.7,0.7c-0.2,0.1-0.2,0.3-0.2,0.4l0.3,0.7
		c0,0.1,0.1,0.2,0.2,0.2c0.1,0,0.2,0,0.3,0c0.7-0.4,1.4-0.6,2.1-0.6c0.6,0,1,0.2,1.2,0.5c0.3,0.4,0.4,0.9,0.4,1.7v0.2l-1.2,0
		c-1.3,0-2.3,0.3-3,0.8c-0.7,0.5-1.1,1.3-1.1,2.3c0,0.9,0.2,1.6,0.7,2.1c0.5,0.5,1.2,0.8,2.1,0.8c0.6,0,1.2-0.1,1.6-0.4
		c0.3-0.2,0.6-0.4,0.8-0.7l0.1,0.7c0,0.2,0.2,0.3,0.4,0.3h0.5c0.2,0,0.4-0.2,0.4-0.4v-5.9C30.9,116.9,30.7,116.1,30.2,115.5z
		 M25.8,121.6c0-0.6,0.2-1,0.5-1.2c0.4-0.3,1.1-0.5,2.1-0.5l1,0v0.5c0,0.9-0.2,1.5-0.6,2c-0.4,0.5-1,0.7-1.7,0.7
		c-0.5,0-0.8-0.1-1-0.4C25.9,122.4,25.8,122.1,25.8,121.6z"/>
	<path class="st3" d="M35.3,127c-0.5,0-0.8-0.4-0.8-0.9c0-1.1,0-15.3,0-16.4c0-0.5,0.3-0.9,0.8-0.9c0,0,0,0,0,0
		c0.5,0,0.8,0.4,0.8,0.9c0,1.1,0,15.3,0,16.4C36.1,126.6,35.8,127,35.3,127C35.3,127,35.3,127,35.3,127z"/>
</g>
<g class="st4">
	<path class="st3" d="M17.9,136.8h-2v5.3h-1.2v-5.3h-2v-1.1h5.3V136.8z"/>
	<path class="st3" d="M23.4,141.1v1.1h-4.4v-6.4h4.4v1.1h-3.1v1.5h2.7v1h-2.7v1.7H23.4z"/>
	<path class="st3" d="M25.3,135.8l1.6,2.4l1.6-2.4h1.3l-2.3,3.2l2.2,3.1h-1.3l-1.5-2.3l-1.5,2.3H24l2.2-3.1l-2.3-3.2H25.3z"/>
	<path class="st3" d="M35.4,136.8h-2v5.3h-1.2v-5.3h-2v-1.1h5.3V136.8z"/>
</g>
</svg>
