<?xml version="1.0" encoding="utf-8"?>
<!-- Generator: Adobe Illustrator 19.2.0, SVG Export Plug-In . SVG Version: 6.00 Build 0)  -->
<svg version="1.1" id="Layer_1" xmlns="http://www.w3.org/2000/svg" xmlns:xlink="http://www.w3.org/1999/xlink" x="0px" y="0px"
	 viewBox="0 0 50 150" style="enable-background:new 0 0 50 150;" xml:space="preserve">
<style type="text/css">
	.st0{opacity:0.9;}
	.st1{fill:#1E1E1E;}
	.st2{fill:#FFFFFF;}
	.st3{fill:#EAEAEA;}
	.st4{opacity:0.47;}
	.st5{opacity:0.47;fill:#EAEAEA;}
</style>
<g class="st0">
	<path class="st1" d="M50,96c0,2.2-1.8,4-4,4H4c-2.2,0-4-1.8-4-4V54c0-2.2,1.8-4,4-4h42c2.2,0,4,1.8,4,4V96z"/>
</g>
<g class="st0">
	<path class="st2" d="M50,46c0,2.2-1.8,4-4,4H4c-2.2,0-4-1.8-4-4V4c0-2.2,1.8-4,4-4h42c2.2,0,4,1.8,4,4V46z"/>
</g>
<path d="M34.8,10.3c0-0.4-0.3-0.7-0.7-0.7h-17c-0.4,0-0.7,0.3-0.7,0.7v15.2c0,0.4,0.3,0.7,0.7,0.7h17c0.4,0,0.7-0.3,0.7-0.7V10.3z
	 M23.7,10.7h8.8c0.4,0,0.8,0.4,0.8,0.8s-0.3,0.8-0.8,0.8h-8.8c-0.4,0-0.8-0.4-0.8-0.8S23.2,10.7,23.7,10.7z M21.2,10.6
	c0.5,0,0.9,0.4,0.9,0.9c0,0.5-0.4,0.9-0.9,0.9c-0.5,0-0.9-0.4-0.9-0.9C20.4,11,20.7,10.6,21.2,10.6z M18.6,10.6
	c0.5,0,0.9,0.4,0.9,0.9c0,0.5-0.4,0.9-0.9,0.9c-0.5,0-0.9-0.4-0.9-0.9C17.8,11,18.2,10.6,18.6,10.6z M33.5,24.8H17.8V13.6h15.8V24.8
	z"/>
<g>
	<g>
		<path d="M17,35.5h1.1l0.7,2.1l0.7-2.1h1.2l-1.1,2.9l0.8,2l1.8-5h1.4L21,41.9h-1l-1.1-2.7l-1.1,2.7h-1l-2.6-6.4h1.3l1.8,5l0.8-2
			L17,35.5z"/>
		<path d="M28.9,40.8v1.1h-4.4v-6.4h4.4v1.1h-3.1v1.5h2.7v1h-2.7v1.7H28.9z"/>
		<path d="M35.3,40.3c0,0.3-0.1,0.5-0.2,0.7c-0.1,0.2-0.3,0.4-0.4,0.5c-0.2,0.1-0.4,0.2-0.7,0.3c-0.2,0.1-0.5,0.1-0.8,0.1h-3.1v-6.4
			h3.4c0.2,0,0.4,0,0.6,0.1c0.2,0.1,0.3,0.2,0.5,0.4s0.2,0.3,0.3,0.5C35,36.8,35,37,35,37.2c0,0.3-0.1,0.6-0.2,0.9
			c-0.2,0.3-0.4,0.5-0.7,0.6c0.4,0.1,0.7,0.3,0.9,0.6C35.2,39.5,35.3,39.9,35.3,40.3z M31.4,36.6v1.6h1.7c0.2,0,0.4-0.1,0.5-0.2
			c0.1-0.1,0.2-0.3,0.2-0.6c0-0.2-0.1-0.4-0.2-0.6c-0.1-0.1-0.3-0.2-0.5-0.2H31.4z M34.1,40c0-0.1,0-0.2-0.1-0.3
			c0-0.1-0.1-0.2-0.2-0.3c-0.1-0.1-0.1-0.1-0.2-0.2s-0.2-0.1-0.3-0.1h-1.9v1.7h1.8c0.1,0,0.2,0,0.3-0.1c0.1,0,0.2-0.1,0.3-0.2
			c0.1-0.1,0.1-0.2,0.2-0.3S34.1,40.2,34.1,40z"/>
	</g>
</g>
<path class="st3" d="M35.2,60.3c0-0.4-0.3-0.7-0.7-0.7h-17c-0.4,0-0.7,0.3-0.7,0.7v15.2c0,0.4,0.3,0.7,0.7,0.7h17
	c0.4,0,0.7-0.3,0.7-0.7V60.3z M24,60.7h8.8c0.4,0,0.8,0.4,0.8,0.8c0,0.4-0.3,0.8-0.8,0.8H24c-0.4,0-0.8-0.4-0.8-0.8
	C23.2,61.1,23.6,60.7,24,60.7z M21.5,60.7c0.5,0,0.9,0.4,0.9,0.9c0,0.5-0.4,0.9-0.9,0.9c-0.5,0-0.9-0.4-0.9-0.9
	C20.7,61,21.1,60.7,21.5,60.7z M19,60.7c0.5,0,0.9,0.4,0.9,0.9c0,0.5-0.4,0.9-0.9,0.9c-0.5,0-0.9-0.4-0.9-0.9
	C18.1,61,18.5,60.7,19,60.7z M33.8,74.8H18.1V63.6h15.8V74.8z"/>
<g>
	<g>
		<path class="st3" d="M17.3,85.6h1.1l0.7,2.1l0.7-2.1h1.2L20,88.5l0.8,2l1.8-5H24l-2.6,6.4h-1l-1.1-2.7l-1.1,2.7h-1l-2.6-6.4h1.3
			l1.8,5l0.8-2L17.3,85.6z"/>
		<path class="st3" d="M29.3,90.9v1.1h-4.4v-6.4h4.4v1.1h-3.1v1.5h2.7v1h-2.7v1.7H29.3z"/>
		<path class="st3" d="M35.6,90.3c0,0.3-0.1,0.5-0.2,0.7c-0.1,0.2-0.3,0.4-0.4,0.5c-0.2,0.1-0.4,0.2-0.7,0.3s-0.5,0.1-0.8,0.1h-3.1
			v-6.4h3.4c0.2,0,0.4,0,0.6,0.1c0.2,0.1,0.3,0.2,0.5,0.4c0.1,0.2,0.2,0.3,0.3,0.5s0.1,0.4,0.1,0.6c0,0.3-0.1,0.6-0.2,0.9
			c-0.2,0.3-0.4,0.5-0.7,0.6c0.4,0.1,0.7,0.3,0.9,0.6C35.5,89.5,35.6,89.9,35.6,90.3z M31.7,86.6v1.6h1.7c0.2,0,0.4-0.1,0.5-0.2
			c0.1-0.1,0.2-0.3,0.2-0.6c0-0.2-0.1-0.4-0.2-0.6c-0.1-0.1-0.3-0.2-0.5-0.2H31.7z M34.4,90.1c0-0.1,0-0.2-0.1-0.3
			c0-0.1-0.1-0.2-0.2-0.3c-0.1-0.1-0.1-0.1-0.2-0.2s-0.2-0.1-0.3-0.1h-1.9v1.7h1.8c0.1,0,0.2,0,0.3-0.1c0.1,0,0.2-0.1,0.3-0.2
			c0.1-0.1,0.1-0.2,0.2-0.3C34.4,90.3,34.4,90.2,34.4,90.1z"/>
	</g>
</g>
<g class="st4">
	<path class="st1" d="M50,146c0,2.2-1.8,4-4,4H4c-2.2,0-4-1.8-4-4v-42c0-2.2,1.8-4,4-4h42c2.2,0,4,1.8,4,4V146z"/>
</g>
<path class="st5" d="M35.2,110.3c0-0.4-0.3-0.7-0.7-0.7h-17c-0.4,0-0.7,0.3-0.7,0.7v15.2c0,0.4,0.3,0.7,0.7,0.7h17
	c0.4,0,0.7-0.3,0.7-0.7V110.3z M24,110.7h8.8c0.4,0,0.8,0.4,0.8,0.8s-0.3,0.8-0.8,0.8H24c-0.4,0-0.8-0.4-0.8-0.8
	S23.6,110.7,24,110.7z M21.5,110.7c0.5,0,0.9,0.4,0.9,0.9c0,0.5-0.4,0.9-0.9,0.9c-0.5,0-0.9-0.4-0.9-0.9
	C20.7,111,21.1,110.7,21.5,110.7z M19,110.7c0.5,0,0.9,0.4,0.9,0.9c0,0.5-0.4,0.9-0.9,0.9c-0.5,0-0.9-0.4-0.9-0.9
	C18.1,111,18.5,110.7,19,110.7z M33.8,124.8H18.1v-11.2h15.8V124.8z"/>
<g class="st4">
	<g>
		<path class="st3" d="M17.3,135.6h1.1l0.7,2.1l0.7-2.1h1.2l-1.1,2.9l0.8,2l1.8-5H24l-2.6,6.4h-1l-1.1-2.7l-1.1,2.7h-1l-2.6-6.4h1.3
			l1.8,5l0.8-2L17.3,135.6z"/>
		<path class="st3" d="M29.3,140.9v1.1h-4.4v-6.4h4.4v1.1h-3.1v1.5h2.7v1h-2.7v1.7H29.3z"/>
		<path class="st3" d="M35.6,140.3c0,0.3-0.1,0.5-0.2,0.7c-0.1,0.2-0.3,0.4-0.4,0.5c-0.2,0.1-0.4,0.2-0.7,0.3s-0.5,0.1-0.8,0.1h-3.1
			v-6.4h3.4c0.2,0,0.4,0,0.6,0.1c0.2,0.1,0.3,0.2,0.5,0.4c0.1,0.2,0.2,0.3,0.3,0.5s0.1,0.4,0.1,0.6c0,0.3-0.1,0.6-0.2,0.9
			c-0.2,0.3-0.4,0.5-0.7,0.6c0.4,0.1,0.7,0.3,0.9,0.6C35.5,139.5,35.6,139.9,35.6,140.3z M31.7,136.6v1.6h1.7c0.2,0,0.4-0.1,0.5-0.2
			c0.1-0.1,0.2-0.3,0.2-0.6c0-0.2-0.1-0.4-0.2-0.6c-0.1-0.1-0.3-0.2-0.5-0.2H31.7z M34.4,140.1c0-0.1,0-0.2-0.1-0.3
			c0-0.1-0.1-0.2-0.2-0.3c-0.1-0.1-0.1-0.1-0.2-0.2s-0.2-0.1-0.3-0.1h-1.9v1.7h1.8c0.1,0,0.2,0,0.3-0.1c0.1,0,0.2-0.1,0.3-0.2
			c0.1-0.1,0.1-0.2,0.2-0.3C34.4,140.3,34.4,140.2,34.4,140.1z"/>
	</g>
</g>
</svg>
