<?xml version="1.0" encoding="utf-8"?>
<!-- Generator: Adobe Illustrator 19.2.0, SVG Export Plug-In . SVG Version: 6.00 Build 0)  -->
<svg version="1.1" id="Layer_1" xmlns="http://www.w3.org/2000/svg" xmlns:xlink="http://www.w3.org/1999/xlink" x="0px" y="0px"
	 viewBox="0 0 50 150" style="enable-background:new 0 0 50 150;" xml:space="preserve">
<style type="text/css">
	.st0{opacity:0.9;}
	.st1{fill:#1E1E1E;}
	.st2{fill:#FFFFFF;}
	.st3{fill:#EAEAEA;}
	.st4{opacity:0.47;}
	.st5{opacity:0.47;fill:#EAEAEA;}
</style>
<g class="st0">
	<path class="st1" d="M50,96.3c0,2.2-1.8,4-4,4H4c-2.2,0-4-1.8-4-4v-42c0-2.2,1.8-4,4-4h42c2.2,0,4,1.8,4,4V96.3z"/>
</g>
<g class="st0">
	<path class="st2" d="M50,46.3c0,2.2-1.8,4-4,4H4c-2.2,0-4-1.8-4-4v-42c0-2.2,1.8-4,4-4h42c2.2,0,4,1.8,4,4V46.3z"/>
</g>
<path d="M33.1,11.3c-0.1-0.3-0.5-0.6-0.8-0.6h-3.7v1.7h1.5l-8.3,8.3V19h-1.8v4H20c0,0.1,0,0.2,0.1,0.3c0.1,0.3,0.5,0.6,0.8,0.6h4.3
	v-1.8h-2.1l8.3-8.3v1.3h1.8V12C33.2,11.8,33.2,11.5,33.1,11.3z"/>
<path d="M31,26.5c0-0.6,0.5-1.1,1.1-1.1l0,0c0.6,0,1.1,0.5,1.1,1.1l0,0c0,0.6-0.5,1.1-1.1,1.1l0,0C31.5,27.7,31,27.2,31,26.5z
	 M27.3,26.5c0-0.6,0.5-1.1,1.1-1.1l0,0c0.6,0,1.1,0.5,1.1,1.1l0,0c0,0.6-0.5,1.1-1.1,1.1l0,0C27.8,27.7,27.3,27.2,27.3,26.5z
	 M23.7,26.5c0-0.6,0.5-1.1,1.1-1.1l0,0c0.6,0,1.1,0.5,1.1,1.1l0,0c0,0.6-0.5,1.1-1.1,1.1l0,0C24.1,27.7,23.7,27.2,23.7,26.5z
	 M20,26.5c0-0.6,0.5-1.1,1.1-1.1l0,0c0.6,0,1.1,0.5,1.1,1.1l0,0c0,0.6-0.5,1.1-1.1,1.1l0,0C20.5,27.7,20,27.2,20,26.5z"/>
<path d="M17.4,27.7c-0.3,0-0.6-0.1-0.8-0.3c-0.2-0.2-0.3-0.5-0.3-0.8c0-0.3,0.1-0.6,0.3-0.8c0.2-0.2,0.5-0.3,0.8-0.3
	c0.3,0,0.6,0.1,0.8,0.3c0.2,0.2,0.3,0.5,0.3,0.8c0,0.3-0.1,0.6-0.3,0.8C18,27.5,17.7,27.7,17.4,27.7z"/>
<path d="M16.3,22.9c0-0.6,0.5-1.1,1.1-1.1l0,0c0.6,0,1.1,0.5,1.1,1.1l0,0c0,0.6-0.5,1.1-1.1,1.1l0,0C16.8,24,16.3,23.5,16.3,22.9z
	 M16.3,19.2c0-0.6,0.5-1.1,1.1-1.1l0,0c0.6,0,1.1,0.5,1.1,1.1l0,0c0,0.6-0.5,1.1-1.1,1.1l0,0C16.8,20.3,16.3,19.8,16.3,19.2z
	 M16.3,15.6c0-0.6,0.5-1.1,1.1-1.1l0,0c0.6,0,1.1,0.5,1.1,1.1l0,0c0,0.6-0.5,1.1-1.1,1.1l0,0C16.8,16.7,16.3,16.2,16.3,15.6z
	 M16.3,11.9c0-0.6,0.5-1.1,1.1-1.1l0,0c0.6,0,1.1,0.5,1.1,1.1l0,0c0,0.6-0.5,1.1-1.1,1.1l0,0C16.8,13,16.3,12.5,16.3,11.9z"/>
<path d="M31,8.3c0-0.6,0.5-1.1,1.1-1.1l0,0c0.6,0,1.1,0.5,1.1,1.1l0,0c0,0.6-0.5,1.1-1.1,1.1l0,0C31.5,9.4,31,8.9,31,8.3z M27.3,8.3
	c0-0.6,0.5-1.1,1.1-1.1l0,0c0.6,0,1.1,0.5,1.1,1.1l0,0c0,0.6-0.5,1.1-1.1,1.1l0,0C27.8,9.4,27.3,8.9,27.3,8.3z M23.7,8.3
	c0-0.6,0.5-1.1,1.1-1.1l0,0c0.6,0,1.1,0.5,1.1,1.1l0,0c0,0.6-0.5,1.1-1.1,1.1l0,0C24.1,9.4,23.7,8.9,23.7,8.3z M20,8.3
	c0-0.6,0.5-1.1,1.1-1.1l0,0c0.6,0,1.1,0.5,1.1,1.1l0,0c0,0.6-0.5,1.1-1.1,1.1l0,0C20.5,9.4,20,8.9,20,8.3z"/>
<path d="M35.7,9.4c-0.3,0-0.6-0.1-0.8-0.3c-0.2-0.2-0.3-0.5-0.3-0.8c0-0.3,0.1-0.6,0.3-0.8c0.2-0.2,0.5-0.3,0.8-0.3
	c0.3,0,0.6,0.1,0.8,0.3c0.2,0.2,0.3,0.5,0.3,0.8c0,0.3-0.1,0.6-0.3,0.8C36.3,9.3,36,9.4,35.7,9.4z"/>
<path d="M34.6,22.9c0-0.6,0.5-1.1,1.1-1.1l0,0c0.6,0,1.1,0.5,1.1,1.1l0,0c0,0.6-0.5,1.1-1.1,1.1l0,0C35.1,24,34.6,23.5,34.6,22.9z
	 M34.6,19.2c0-0.6,0.5-1.1,1.1-1.1l0,0c0.6,0,1.1,0.5,1.1,1.1l0,0c0,0.6-0.5,1.1-1.1,1.1l0,0C35.1,20.3,34.6,19.8,34.6,19.2z
	 M34.6,15.6c0-0.6,0.5-1.1,1.1-1.1l0,0c0.6,0,1.1,0.5,1.1,1.1l0,0c0,0.6-0.5,1.1-1.1,1.1l0,0C35.1,16.7,34.6,16.2,34.6,15.6z
	 M34.6,11.9c0-0.6,0.5-1.1,1.1-1.1l0,0c0.6,0,1.1,0.5,1.1,1.1l0,0c0,0.6-0.5,1.1-1.1,1.1l0,0C35.1,13,34.6,12.5,34.6,11.9z"/>
<g>
	<path d="M12.3,41.3l3.6-4.4h-3.5v-1.1h4.9v0.9l-3.5,4.4h3.5v1.1h-5.1V41.3z"/>
	<path d="M21,42.3c-0.5,0-0.9-0.1-1.2-0.3s-0.7-0.4-1-0.7c-0.3-0.3-0.5-0.6-0.6-1C18.1,39.8,18,39.4,18,39c0-0.4,0.1-0.8,0.2-1.2
		s0.4-0.7,0.6-1c0.3-0.3,0.6-0.5,1-0.7s0.8-0.3,1.2-0.3c0.5,0,0.9,0.1,1.2,0.3s0.7,0.4,1,0.7c0.3,0.3,0.5,0.7,0.6,1
		c0.1,0.4,0.2,0.8,0.2,1.2c0,0.4-0.1,0.8-0.2,1.2c-0.2,0.4-0.4,0.7-0.6,1c-0.3,0.3-0.6,0.5-1,0.7C21.9,42.2,21.5,42.3,21,42.3z
		 M19.3,39c0,0.3,0,0.5,0.1,0.8c0.1,0.3,0.2,0.5,0.4,0.7c0.2,0.2,0.3,0.4,0.6,0.5s0.5,0.2,0.8,0.2c0.3,0,0.5-0.1,0.8-0.2
		s0.4-0.3,0.6-0.5c0.1-0.2,0.3-0.4,0.3-0.7s0.1-0.5,0.1-0.8c0-0.3,0-0.5-0.1-0.8c-0.1-0.3-0.2-0.5-0.4-0.7c-0.2-0.2-0.3-0.4-0.6-0.5
		c-0.2-0.1-0.5-0.2-0.7-0.2c-0.3,0-0.5,0.1-0.8,0.2s-0.4,0.3-0.6,0.5c-0.2,0.2-0.3,0.4-0.3,0.7C19.3,38.5,19.3,38.8,19.3,39z"/>
	<path d="M26.5,38.1v4.1h-1.2v-6.4h1l3.3,4.2v-4.2h1.2v6.4h-1L26.5,38.1z"/>
	<path d="M36.8,41.1v1.1h-4.4v-6.4h4.4v1.1h-3.1v1.5h2.7v1h-2.7v1.7H36.8z"/>
</g>
<path class="st3" d="M33.5,61.3c-0.1-0.3-0.5-0.6-0.8-0.6h-3.7v1.7h1.5l-8.3,8.3V69h-1.8v4h0.1c0,0.1,0,0.2,0.1,0.3
	c0.1,0.3,0.5,0.6,0.8,0.6h4.3v-1.8h-2.1l8.3-8.3v1.3h1.8V62C33.5,61.8,33.5,61.6,33.5,61.3z"/>
<path class="st3" d="M31.3,76.6c0-0.6,0.5-1.1,1.1-1.1l0,0c0.6,0,1.1,0.5,1.1,1.1l0,0c0,0.6-0.5,1.1-1.1,1.1l0,0
	C31.8,77.7,31.3,77.2,31.3,76.6z M27.6,76.6c0-0.6,0.5-1.1,1.1-1.1l0,0c0.6,0,1.1,0.5,1.1,1.1l0,0c0,0.6-0.5,1.1-1.1,1.1l0,0
	C28.1,77.7,27.6,77.2,27.6,76.6z M24,76.6c0-0.6,0.5-1.1,1.1-1.1l0,0c0.6,0,1.1,0.5,1.1,1.1l0,0c0,0.6-0.5,1.1-1.1,1.1l0,0
	C24.5,77.7,24,77.2,24,76.6z M20.3,76.6c0-0.6,0.5-1.1,1.1-1.1l0,0c0.6,0,1.1,0.5,1.1,1.1l0,0c0,0.6-0.5,1.1-1.1,1.1l0,0
	C20.8,77.7,20.3,77.2,20.3,76.6z"/>
<path class="st3" d="M17.8,77.7c-0.3,0-0.6-0.1-0.8-0.3c-0.2-0.2-0.3-0.5-0.3-0.8s0.1-0.6,0.3-0.8c0.2-0.2,0.5-0.3,0.8-0.3
	c0.3,0,0.6,0.1,0.8,0.3c0.2,0.2,0.3,0.5,0.3,0.8c0,0.3-0.1,0.6-0.3,0.8C18.4,77.6,18.1,77.7,17.8,77.7z"/>
<path class="st3" d="M16.7,72.9c0-0.6,0.5-1.1,1.1-1.1l0,0c0.6,0,1.1,0.5,1.1,1.1l0,0c0,0.6-0.5,1.1-1.1,1.1l0,0
	C17.2,74,16.7,73.5,16.7,72.9z M16.7,69.3c0-0.6,0.5-1.1,1.1-1.1l0,0c0.6,0,1.1,0.5,1.1,1.1l0,0c0,0.6-0.5,1.1-1.1,1.1l0,0
	C17.2,70.4,16.7,69.9,16.7,69.3z M16.7,65.6c0-0.6,0.5-1.1,1.1-1.1l0,0c0.6,0,1.1,0.5,1.1,1.1l0,0c0,0.6-0.5,1.1-1.1,1.1l0,0
	C17.2,66.7,16.7,66.2,16.7,65.6z M16.7,61.9c0-0.6,0.5-1.1,1.1-1.1l0,0c0.6,0,1.1,0.5,1.1,1.1l0,0c0,0.6-0.5,1.1-1.1,1.1l0,0
	C17.2,63.1,16.7,62.6,16.7,61.9z"/>
<path class="st3" d="M31.3,58.3c0-0.6,0.5-1.1,1.1-1.1l0,0c0.6,0,1.1,0.5,1.1,1.1l0,0c0,0.6-0.5,1.1-1.1,1.1l0,0
	C31.8,59.4,31.3,58.9,31.3,58.3z M27.6,58.3c0-0.6,0.5-1.1,1.1-1.1l0,0c0.6,0,1.1,0.5,1.1,1.1l0,0c0,0.6-0.5,1.1-1.1,1.1l0,0
	C28.1,59.4,27.6,58.9,27.6,58.3z M24,58.3c0-0.6,0.5-1.1,1.1-1.1l0,0c0.6,0,1.1,0.5,1.1,1.1l0,0c0,0.6-0.5,1.1-1.1,1.1l0,0
	C24.5,59.4,24,58.9,24,58.3z M20.3,58.3c0-0.6,0.5-1.1,1.1-1.1l0,0c0.6,0,1.1,0.5,1.1,1.1l0,0c0,0.6-0.5,1.1-1.1,1.1l0,0
	C20.8,59.4,20.3,58.9,20.3,58.3z"/>
<path class="st3" d="M36.1,59.4c-0.3,0-0.6-0.1-0.8-0.3c-0.2-0.2-0.3-0.5-0.3-0.8c0-0.3,0.1-0.6,0.3-0.8c0.2-0.2,0.5-0.3,0.8-0.3
	s0.6,0.1,0.8,0.3c0.2,0.2,0.3,0.5,0.3,0.8c0,0.3-0.1,0.6-0.3,0.8C36.6,59.3,36.4,59.4,36.1,59.4z"/>
<path class="st3" d="M35,72.9c0-0.6,0.5-1.1,1.1-1.1l0,0c0.6,0,1.1,0.5,1.1,1.1l0,0c0,0.6-0.5,1.1-1.1,1.1l0,0
	C35.4,74,35,73.5,35,72.9z M35,69.3c0-0.6,0.5-1.1,1.1-1.1l0,0c0.6,0,1.1,0.5,1.1,1.1l0,0c0,0.6-0.5,1.1-1.1,1.1l0,0
	C35.4,70.4,35,69.9,35,69.3z M35,65.6c0-0.6,0.5-1.1,1.1-1.1l0,0c0.6,0,1.1,0.5,1.1,1.1l0,0c0,0.6-0.5,1.1-1.1,1.1l0,0
	C35.4,66.7,35,66.2,35,65.6z M35,61.9c0-0.6,0.5-1.1,1.1-1.1l0,0c0.6,0,1.1,0.5,1.1,1.1l0,0c0,0.6-0.5,1.1-1.1,1.1l0,0
	C35.4,63.1,35,62.6,35,61.9z"/>
<g>
	<path class="st3" d="M12.6,91.3l3.6-4.4h-3.5v-1.1h4.9v0.9l-3.5,4.4h3.5v1.1h-5.1V91.3z"/>
	<path class="st3" d="M21.4,92.3c-0.5,0-0.9-0.1-1.2-0.3c-0.4-0.2-0.7-0.4-1-0.7c-0.3-0.3-0.5-0.6-0.6-1c-0.1-0.4-0.2-0.8-0.2-1.2
		c0-0.4,0.1-0.8,0.2-1.2c0.2-0.4,0.4-0.7,0.6-1c0.3-0.3,0.6-0.5,1-0.7s0.8-0.3,1.2-0.3c0.5,0,0.9,0.1,1.2,0.3c0.4,0.2,0.7,0.4,1,0.7
		c0.3,0.3,0.5,0.7,0.6,1c0.1,0.4,0.2,0.8,0.2,1.2c0,0.4-0.1,0.8-0.2,1.2c-0.2,0.4-0.4,0.7-0.6,1c-0.3,0.3-0.6,0.5-1,0.7
		C22.2,92.2,21.8,92.3,21.4,92.3z M19.6,89c0,0.3,0,0.5,0.1,0.8s0.2,0.5,0.4,0.7s0.3,0.4,0.6,0.5s0.5,0.2,0.8,0.2
		c0.3,0,0.5-0.1,0.8-0.2s0.4-0.3,0.6-0.5c0.1-0.2,0.3-0.4,0.3-0.7s0.1-0.5,0.1-0.8c0-0.3,0-0.5-0.1-0.8c-0.1-0.3-0.2-0.5-0.4-0.7
		c-0.2-0.2-0.3-0.4-0.6-0.5s-0.5-0.2-0.7-0.2c-0.3,0-0.5,0.1-0.8,0.2s-0.4,0.3-0.6,0.5c-0.2,0.2-0.3,0.4-0.3,0.7
		C19.6,88.5,19.6,88.8,19.6,89z"/>
	<path class="st3" d="M26.8,88.1v4.1h-1.2v-6.4h1l3.3,4.2v-4.2h1.2v6.4h-1L26.8,88.1z"/>
	<path class="st3" d="M37.1,91.2v1.1h-4.4v-6.4H37v1.1h-3.1v1.5h2.7v1h-2.7v1.7H37.1z"/>
</g>
<g class="st4">
	<path class="st1" d="M50,146.3c0,2.2-1.8,4-4,4H4c-2.2,0-4-1.8-4-4v-42c0-2.2,1.8-4,4-4h42c2.2,0,4,1.8,4,4V146.3z"/>
</g>
<path class="st5" d="M33.5,111.3c-0.1-0.3-0.5-0.6-0.8-0.6h-3.7v1.7h1.5l-8.3,8.3V119h-1.8v4h0.1c0,0.1,0,0.2,0.1,0.3
	c0.1,0.3,0.5,0.6,0.8,0.6h4.3v-1.8h-2.1l8.3-8.3v1.3h1.8V112C33.5,111.8,33.5,111.6,33.5,111.3z"/>
<path class="st5" d="M31.3,126.6c0-0.6,0.5-1.1,1.1-1.1l0,0c0.6,0,1.1,0.5,1.1,1.1l0,0c0,0.6-0.5,1.1-1.1,1.1l0,0
	C31.8,127.7,31.3,127.2,31.3,126.6z M27.6,126.6c0-0.6,0.5-1.1,1.1-1.1l0,0c0.6,0,1.1,0.5,1.1,1.1l0,0c0,0.6-0.5,1.1-1.1,1.1l0,0
	C28.1,127.7,27.6,127.2,27.6,126.6z M24,126.6c0-0.6,0.5-1.1,1.1-1.1l0,0c0.6,0,1.1,0.5,1.1,1.1l0,0c0,0.6-0.5,1.1-1.1,1.1l0,0
	C24.5,127.7,24,127.2,24,126.6z M20.3,126.6c0-0.6,0.5-1.1,1.1-1.1l0,0c0.6,0,1.1,0.5,1.1,1.1l0,0c0,0.6-0.5,1.1-1.1,1.1l0,0
	C20.8,127.7,20.3,127.2,20.3,126.6z"/>
<path class="st5" d="M17.8,127.7c-0.3,0-0.6-0.1-0.8-0.3c-0.2-0.2-0.3-0.5-0.3-0.8s0.1-0.6,0.3-0.8c0.2-0.2,0.5-0.3,0.8-0.3
	c0.3,0,0.6,0.1,0.8,0.3c0.2,0.2,0.3,0.5,0.3,0.8c0,0.3-0.1,0.6-0.3,0.8C18.4,127.6,18.1,127.7,17.8,127.7z"/>
<path class="st5" d="M16.7,122.9c0-0.6,0.5-1.1,1.1-1.1l0,0c0.6,0,1.1,0.5,1.1,1.1l0,0c0,0.6-0.5,1.1-1.1,1.1l0,0
	C17.2,124,16.7,123.5,16.7,122.9z M16.7,119.3c0-0.6,0.5-1.1,1.1-1.1l0,0c0.6,0,1.1,0.5,1.1,1.1l0,0c0,0.6-0.5,1.1-1.1,1.1l0,0
	C17.2,120.4,16.7,119.9,16.7,119.3z M16.7,115.6c0-0.6,0.5-1.1,1.1-1.1l0,0c0.6,0,1.1,0.5,1.1,1.1l0,0c0,0.6-0.5,1.1-1.1,1.1l0,0
	C17.2,116.7,16.7,116.2,16.7,115.6z M16.7,111.9c0-0.6,0.5-1.1,1.1-1.1l0,0c0.6,0,1.1,0.5,1.1,1.1l0,0c0,0.6-0.5,1.1-1.1,1.1l0,0
	C17.2,113.1,16.7,112.6,16.7,111.9z"/>
<path class="st5" d="M31.3,108.3c0-0.6,0.5-1.1,1.1-1.1l0,0c0.6,0,1.1,0.5,1.1,1.1l0,0c0,0.6-0.5,1.1-1.1,1.1l0,0
	C31.8,109.4,31.3,108.9,31.3,108.3z M27.6,108.3c0-0.6,0.5-1.1,1.1-1.1l0,0c0.6,0,1.1,0.5,1.1,1.1l0,0c0,0.6-0.5,1.1-1.1,1.1l0,0
	C28.1,109.4,27.6,108.9,27.6,108.3z M24,108.3c0-0.6,0.5-1.1,1.1-1.1l0,0c0.6,0,1.1,0.5,1.1,1.1l0,0c0,0.6-0.5,1.1-1.1,1.1l0,0
	C24.5,109.4,24,108.9,24,108.3z M20.3,108.3c0-0.6,0.5-1.1,1.1-1.1l0,0c0.6,0,1.1,0.5,1.1,1.1l0,0c0,0.6-0.5,1.1-1.1,1.1l0,0
	C20.8,109.4,20.3,108.9,20.3,108.3z"/>
<path class="st5" d="M36.1,109.4c-0.3,0-0.6-0.1-0.8-0.3c-0.2-0.2-0.3-0.5-0.3-0.8c0-0.3,0.1-0.6,0.3-0.8c0.2-0.2,0.5-0.3,0.8-0.3
	s0.6,0.1,0.8,0.3c0.2,0.2,0.3,0.5,0.3,0.8c0,0.3-0.1,0.6-0.3,0.8C36.6,109.3,36.4,109.4,36.1,109.4z"/>
<path class="st5" d="M35,122.9c0-0.6,0.5-1.1,1.1-1.1l0,0c0.6,0,1.1,0.5,1.1,1.1l0,0c0,0.6-0.5,1.1-1.1,1.1l0,0
	C35.4,124,35,123.5,35,122.9z M35,119.3c0-0.6,0.5-1.1,1.1-1.1l0,0c0.6,0,1.1,0.5,1.1,1.1l0,0c0,0.6-0.5,1.1-1.1,1.1l0,0
	C35.4,120.4,35,119.9,35,119.3z M35,115.6c0-0.6,0.5-1.1,1.1-1.1l0,0c0.6,0,1.1,0.5,1.1,1.1l0,0c0,0.6-0.5,1.1-1.1,1.1l0,0
	C35.4,116.7,35,116.2,35,115.6z M35,111.9c0-0.6,0.5-1.1,1.1-1.1l0,0c0.6,0,1.1,0.5,1.1,1.1l0,0c0,0.6-0.5,1.1-1.1,1.1l0,0
	C35.4,113.1,35,112.6,35,111.9z"/>
<g class="st4">
	<path class="st3" d="M12.6,141.3l3.6-4.4h-3.5v-1.1h4.9v0.9l-3.5,4.4h3.5v1.1h-5.1V141.3z"/>
	<path class="st3" d="M21.4,142.3c-0.5,0-0.9-0.1-1.2-0.3c-0.4-0.2-0.7-0.4-1-0.7c-0.3-0.3-0.5-0.6-0.6-1c-0.1-0.4-0.2-0.8-0.2-1.2
		c0-0.4,0.1-0.8,0.2-1.2c0.2-0.4,0.4-0.7,0.6-1c0.3-0.3,0.6-0.5,1-0.7s0.8-0.3,1.2-0.3c0.5,0,0.9,0.1,1.2,0.3c0.4,0.2,0.7,0.4,1,0.7
		c0.3,0.3,0.5,0.7,0.6,1c0.1,0.4,0.2,0.8,0.2,1.2c0,0.4-0.1,0.8-0.2,1.2c-0.2,0.4-0.4,0.7-0.6,1c-0.3,0.3-0.6,0.5-1,0.7
		C22.2,142.2,21.8,142.3,21.4,142.3z M19.6,139c0,0.3,0,0.5,0.1,0.8s0.2,0.5,0.4,0.7s0.3,0.4,0.6,0.5s0.5,0.2,0.8,0.2
		c0.3,0,0.5-0.1,0.8-0.2s0.4-0.3,0.6-0.5c0.1-0.2,0.3-0.4,0.3-0.7s0.1-0.5,0.1-0.8c0-0.3,0-0.5-0.1-0.8c-0.1-0.3-0.2-0.5-0.4-0.7
		c-0.2-0.2-0.3-0.4-0.6-0.5s-0.5-0.2-0.7-0.2c-0.3,0-0.5,0.1-0.8,0.2s-0.4,0.3-0.6,0.5c-0.2,0.2-0.3,0.4-0.3,0.7
		C19.6,138.5,19.6,138.8,19.6,139z"/>
	<path class="st3" d="M26.8,138.1v4.1h-1.2v-6.4h1l3.3,4.2v-4.2h1.2v6.4h-1L26.8,138.1z"/>
	<path class="st3" d="M37.1,141.2v1.1h-4.4v-6.4H37v1.1h-3.1v1.5h2.7v1h-2.7v1.7H37.1z"/>
</g>
</svg>
