<svg xmlns="http://www.w3.org/2000/svg" xmlns:xlink="http://www.w3.org/1999/xlink" version="1.1" style="enable-background:new 0 0 512 512;" xml:space="preserve" width="512" height="512"><rect id="backgroundrect" width="100%" height="100%" x="0" y="0" fill="none" stroke="none"/>












<g class="currentLayer" style=""><title>Layer 1</title><path d="M408.20359709172556,241.8132492332185 c0,-15.45891101489433 12.560365199601643,-28.01927621449597 28.01927621449597,-28.01927621449597 l0,0 c15.45891101489433,0 28.01927621449597,12.560365199601643 28.01927621449597,28.01927621449597 l0,0 c0,15.45891101489433 -12.560365199601643,28.01927621449597 -28.01927621449597,28.01927621449597 l0,0 C420.88473503363105,269.71175270541056 408.20359709172556,257.1513875058089 408.20359709172556,241.8132492332185 z" class="" fill="#ffffff" fill-opacity="1" id="svg_19"/><path d="M297.36022635608026,203.86144572779781 c0,-15.45891101489433 12.560365199601643,-28.01927621449597 28.01927621449597,-28.01927621449597 l0,0 c15.45891101489433,0 28.01927621449597,12.560365199601643 28.01927621449597,28.01927621449597 l0,0 c0,15.45891101489433 -12.560365199601643,28.01927621449597 -28.01927621449597,28.01927621449597 l0,0 C310.04136429798575,231.75994919998988 297.36022635608026,219.1995840003882 297.36022635608026,203.86144572779781 z" class="" fill="#ffffff" fill-opacity="1" id="svg_20"/><path d="M326.87829848437616,283.3795178560937 c0,-15.45891101489433 12.560365199601643,-28.01927621449597 28.01927621449597,-28.01927621449597 l0,0 c15.45891101489433,0 28.01927621449597,12.560365199601643 28.01927621449597,28.01927621449597 l0,0 c0,15.45891101489433 -12.560365199601643,28.01927621449597 -28.01927621449597,28.01927621449597 l0,0 C339.55943642628165,311.2780213282858 326.87829848437616,298.7176561286841 326.87829848437616,283.3795178560937 z" class="" fill="#ffffff" fill-opacity="1" id="svg_21"/><path d="M273.26384802966425,350.8493950991357 c0,-15.45891101489433 12.560365199601643,-28.01927621449597 28.01927621449597,-28.01927621449597 l0,0 c15.45891101489433,0 28.01927621449597,12.560365199601643 28.01927621449597,28.01927621449597 l0,0 c0,15.45891101489433 -12.560365199601643,28.01927621449597 -28.01927621449597,28.01927621449597 l0,0 C285.94498597156974,378.74789857132777 273.26384802966425,366.1875333717261 273.26384802966425,350.8493950991357 z" class="" fill="#ffffff" fill-opacity="1" id="svg_22"/><path d="M237.1192729106457,428.56023150965814 c0,-15.45891101489433 12.560365199601643,-28.01927621449597 28.01927621449597,-28.01927621449597 l0,0 c15.45891101489433,0 28.01927621449597,12.560365199601643 28.01927621449597,28.01927621449597 l0,0 c0,15.45891101489433 -12.560365199601643,28.01927621449597 -28.01927621449597,28.01927621449597 l0,0 C249.80041085255118,456.4587349818502 237.1192729106457,443.89836978224855 237.1192729106457,428.56023150965814 z" class="" fill="#ffffff" fill-opacity="1" id="svg_23"/><path d="M245.55300822167703,294.2228959231103 c0,-15.45891101489433 12.560365199601643,-28.01927621449597 28.01927621449597,-28.01927621449597 l0,0 c15.45891101489433,0 28.01927621449597,12.560365199601643 28.01927621449597,28.01927621449597 l0,0 c0,15.45891101489433 -12.560365199601643,28.01927621449597 -28.01927621449597,28.01927621449597 l0,0 C258.2341461635825,322.1213993953024 245.55300822167703,309.5610341957007 245.55300822167703,294.2228959231103 z" class="" fill="#ffffff" fill-opacity="1" id="svg_24"/><path d="M211.21566119103738,368.92168903634195 c0,-15.45891101489433 12.560365199601643,-28.01927621449597 28.01927621449597,-28.01927621449597 l0,0 c15.45891101489433,0 28.01927621449597,12.560365199601643 28.01927621449597,28.01927621449597 l0,0 c0,15.45891101489433 -12.560365199601643,28.01927621449597 -28.01927621449597,28.01927621449597 l0,0 C223.89679913294287,396.82019250853403 211.21566119103738,384.25982730893236 211.21566119103738,368.92168903634195 z" class="" fill="#ffffff" fill-opacity="1" id="svg_25"/><path d="M173.8662673464329,199.6445872215951 c0,-15.45891101489433 12.560365199601643,-28.01927621449597 28.01927621449597,-28.01927621449597 l0,0 c15.45891101489433,0 28.01927621449597,12.560365199601643 28.01927621449597,28.01927621449597 l0,0 c0,15.45891101489433 -12.560365199601643,28.01927621449597 -28.01927621449597,28.01927621449597 l0,0 C186.54740528833838,227.54309069378718 173.8662673464329,214.9827254941855 173.8662673464329,199.6445872215951 z" class="" fill="#ffffff" fill-opacity="1" id="svg_26"/><path d="M164.8301246991665,308.68072545811776 c0,-15.45891101489433 12.560365199601643,-28.01927621449597 28.01927621449597,-28.01927621449597 l0,0 c15.45891101489433,0 28.01927621449597,12.560365199601643 28.01927621449597,28.01927621449597 l0,0 c0,15.45891101489433 -12.560365199601643,28.01927621449597 -28.01927621449597,28.01927621449597 l0,0 C177.511262641072,336.57922893030985 164.8301246991665,324.0188637307082 164.8301246991665,308.68072545811776 z" class="" fill="#ffffff" fill-opacity="1" id="svg_27"/><path d="M63.022902332833496,246.0301269321168 c0,-15.45891101489433 12.560365199601643,-28.01927621449597 28.01927621449597,-28.01927621449597 l0,0 c15.45891101489433,0 28.01927621449597,12.560365199601643 28.01927621449597,28.01927621449597 l0,0 c0,15.45891101489433 -12.560365199601643,28.01927621449597 -28.01927621449597,28.01927621449597 l0,0 C75.70404027473899,273.9286304043089 63.022902332833496,261.3682652047072 63.022902332833496,246.0301269321168 z" class="" fill="#ffffff" fill-opacity="1" id="svg_28"/><path d="M331.8,283.4c0-12.8,10.4-23.2,23.2-23.2l0,0c12.8,0,23.2,10.4,23.2,23.2l0,0c0,12.8-10.4,23.2-23.2,23.2l0,0  C342.1,306.6,331.8,296.2,331.8,283.4z" id="svg_1" class="" fill="#242424" fill-opacity="1"/><path d="M277.8,350.9c0-12.8,10.4-23.2,23.2-23.2l0,0c12.8,0,23.2,10.4,23.2,23.2l0,0c0,12.8-10.4,23.2-23.2,23.2l0,0  C288.1,374.2,277.8,363.8,277.8,350.9z" id="svg_2" class="" fill="#242424" fill-opacity="1"/><path d="M216.3,368.8c0-12.8,10.4-23.2,23.2-23.2l0,0c12.8,0,23.2,10.4,23.2,23.2l0,0c0,12.8-10.4,23.2-23.2,23.2l0,0  C226.7,392,216.3,381.6,216.3,368.8z" id="svg_3" class="" fill="#242424" fill-opacity="1"/><path d="M169.9,308.9c0-12.8,10.4-23.2,23.2-23.2l0,0c12.8,0,23.2,10.4,23.2,23.2l0,0c0,12.8-10.4,23.2-23.2,23.2l0,0  C180.3,332.1,169.9,321.7,169.9,308.9z" id="svg_4" class="" fill="#242424" fill-opacity="1"/><path d="M251.2,447.4c-4.9-3.6-8.3-9.1-9.2-15.3c-0.9-6,0.6-12.3,4.2-17.2c3.6-4.9,9.1-8.3,15.2-9.1c6-0.9,12.3,0.6,17.3,4.3  c4.9,3.6,8.3,9.1,9.1,15.2c0.9,6-0.6,12.3-4.2,17.2s-9.1,8.3-15.2,9.1C262.4,452.6,256.1,451,251.2,447.4z" id="svg_5" class="" fill="#242424" fill-opacity="1"/><path d="M67.6,246.1c0-12.8,10.4-23.2,23.2-23.2l0,0c12.8,0,23.2,10.4,23.2,23.2l0,0c0,12.8-10.4,23.2-23.2,23.2l0,0  C78,269.3,67.6,258.8,67.6,246.1z" id="svg_6" class="" fill="#242424" fill-opacity="1"/><path d="M178.8,199.5c0-12.8,10.4-23.2,23.2-23.2l0,0c12.8,0,23.2,10.4,23.2,23.2l0,0c0,12.8-10.4,23.2-23.2,23.2l0,0  C189.1,222.7,178.8,212.2,178.8,199.5z" id="svg_7" class="" fill="#242424" fill-opacity="1"/><path d="M250.3,293.9c0-12.8,10.4-23.2,23.2-23.2l0,0c12.8,0,23.2,10.4,23.2,23.2l0,0c0,12.8-10.4,23.2-23.2,23.2l0,0  C260.7,317.1,250.3,306.6,250.3,293.9z" id="svg_8" class="" fill="#242424" fill-opacity="1"/><path d="M413,242.1c0-12.8,10.4-23.2,23.2-23.2l0,0c12.8,0,23.2,10.4,23.2,23.2l0,0c0,12.8-10.4,23.2-23.2,23.2l0,0  C423.5,265.3,413,255,413,242.1z" id="svg_9" class="" fill="#242424" fill-opacity="1"/><path d="M302.1,203.7c0-12.8,10.4-23.2,23.2-23.2l0,0c12.8,0,23.2,10.4,23.2,23.2l0,0c0,12.8-10.4,23.2-23.2,23.2l0,0  C312.6,226.9,302.1,216.5,302.1,203.7z" id="svg_10" class="" fill="#242424" fill-opacity="1"/><path d="M132.30000095367433,113.50000095367432 c0,-12.8 10.4,-23.2 23.2,-23.2 l0,0 c12.8,0 23.2,10.4 23.2,23.2 l0,0 c0,12.8 -10.4,23.2 -23.2,23.2 l0,0 C142.80000095367433,136.6000009536743 132.30000095367433,126.2000009536743 132.30000095367433,113.50000095367432 z" class="" fill="#ffffff" fill-opacity="1" id="svg_16"/><path d="M127.48072340398141,113.4999997048104 c0,-15.45891101489433 12.560365199601643,-28.01927621449597 28.01927621449597,-28.01927621449597 l0,0 c15.45891101489433,0 28.01927621449597,12.560365199601643 28.01927621449597,28.01927621449597 l0,0 c0,15.45891101489433 -12.560365199601643,28.01927621449597 -28.01927621449597,28.01927621449597 l0,0 C140.1618613458869,141.3985031770025 127.48072340398141,128.83813797740086 127.48072340398141,113.4999997048104 z" class="" fill="#ffffff" fill-opacity="1" id="svg_17"/><path d="M361.81805577187845,136.99397534415368 c0,-15.45891101489433 12.560365199601643,-28.01927621449597 28.01927621449597,-28.01927621449597 l0,0 c15.45891101489433,0 28.01927621449597,12.560365199601643 28.01927621449597,28.01927621449597 l0,0 c0,15.45891101489433 -12.560365199601643,28.01927621449597 -28.01927621449597,28.01927621449597 l0,0 C374.49919371378394,164.89247881634577 361.81805577187845,152.33211361674412 361.81805577187845,136.99397534415368 z" class="" fill="#ffffff" fill-opacity="1" id="svg_18"/><path d="M132.3,113.5c0-12.8,10.4-23.2,23.2-23.2l0,0c12.8,0,23.2,10.4,23.2,23.2l0,0c0,12.8-10.4,23.2-23.2,23.2l0,0  C142.8,136.6,132.3,126.2,132.3,113.5z" id="svg_11" class="" fill="#242424" fill-opacity="1"/><path d="M366.6,136.7c0-12.8,10.4-23.2,23.2-23.2l0,0c12.8,0,23.2,10.4,23.2,23.2l0,0c0,12.8-10.4,23.2-23.2,23.2l0,0  C377.1,159.9,366.6,149.5,366.6,136.7z" id="svg_12" class="" fill="#242424" fill-opacity="1"/></g></svg>