<svg xmlns="http://www.w3.org/2000/svg" xmlns:xlink="http://www.w3.org/1999/xlink" version="1.1" style="" xml:space="preserve" width="512" height="512"><rect id="backgroundrect" width="100%" height="100%" x="0" y="0" fill="none" stroke="none"/>



<g class="currentLayer" style=""><title>Layer 1</title><g class=""><rect fill="#ffffff" stroke-dashoffset="" fill-rule="nonzero" id="svg_5" x="160.85614078625295" y="158.9852023923402" width="10.531234830969368" height="98.06203275549922" style="color: rgb(0, 0, 0);" class="" fill-opacity="1"/><rect fill="#ffffff" stroke-dashoffset="" fill-rule="nonzero" x="209.15666843567067" y="108.3932784182918" width="10.843375325202928" height="102.80722260475153" style="color: rgb(0, 0, 0);" class="" fill-opacity="1" id="svg_9" transform="matrix(-0.0018477934675853714,0.9538420822131074,-0.9712119570660508,-0.0018147461589597617,367.3500746247034,-41.18663668001403) "/><rect fill="#ffffff" stroke-dashoffset="" fill-rule="nonzero" x="207.3494403472917" y="201.76676589082615" width="10.843375325202928" height="102.80722260475153" style="color: rgb(0, 0, 0);" class="" fill-opacity="1" transform="matrix(-0.0018477934675853714,0.9538420822131074,-0.9712119570660508,-0.0018147461589597617,456.2769576505074,49.770340126555396) " id="svg_10"/><rect fill="#ffffff" stroke-dashoffset="" fill-rule="nonzero" x="248.61641124634482" y="158.98520352941063" width="10.531234830969368" height="98.06203275549922" style="color: rgb(0, 0, 0);" class="" fill-opacity="1" id="svg_8"/></g><g class="" id="svg_11"><rect fill="#ffffff" stroke-dashoffset="" fill-rule="nonzero" id="svg_12" x="253.65058110708242" y="251.20481491088867" width="10.843375325202942" height="102.80722260475159" style="color: rgb(0, 0, 0);" class="" fill-opacity="1"/><rect fill="#ffffff" stroke-dashoffset="" fill-rule="nonzero" x="300.6385287498856" y="204.2168674468994" width="10.843375325202942" height="102.80722260475159" style="color: rgb(0, 0, 0);" class="" fill-opacity="1" id="svg_13" transform="rotate(90.1090087890625 306.0600280761718,255.6206359863281) "/><rect fill="#ffffff" stroke-dashoffset="" fill-rule="nonzero" x="298.8313006615067" y="297.5903549194336" width="10.843375325202942" height="102.80722260475159" style="color: rgb(0, 0, 0);" class="" fill-opacity="1" transform="rotate(90.1090087890625 304.25280761718756,348.9941101074219) " id="svg_14"/><rect fill="#ffffff" stroke-dashoffset="" fill-rule="nonzero" x="344.01202176565175" y="251.20481610298157" width="10.843375325202942" height="102.80722260475159" style="color: rgb(0, 0, 0);" class="" fill-opacity="1" id="svg_15"/></g><path d="M353.92333081107876,157.9109143298332 c1.8017621501637127,0 3.1795802649947857,1.468567041994318 3.1795802649947857,3.146929375702109 v190.28432958412085 c0,1.7832599795645292 -1.3778181148310744,3.146929375702109 -3.1795802649947857,3.146929375702109 H161.77069679656054 c-1.695776141330552,0 -3.1795802649947857,-1.3636693961375808 -3.1795802649947857,-3.146929375702109 V161.05784370553528 c0,-1.678362333707791 1.483804123664234,-3.146929375702109 3.1795802649947857,-3.146929375702109 H353.92333081107876 M353.92333081107876,140.07831453418788 H161.77069679656054 c-11.65846097164755,0 -21.197201766631906,9.440788127106327 -21.197201766631906,20.979529171347394 v190.28432958412085 c0,11.538741044241068 9.538740794984358,20.979529171347394 21.197201766631906,20.979529171347394 h192.2586200233514 c11.65846097164755,0 21.197201766631906,-9.440788127106327 21.197201766631906,-20.979529171347394 V161.05784370553528 C375.12053257771066,149.51910266129423 365.68777779155954,140.07831453418788 353.92333081107876,140.07831453418788 L353.92333081107876,140.07831453418788 z" class="" id="svg_4" fill="#ffffff" fill-opacity="1"/><path d="M348.5,162.5c1.7,0,3,1.4,3,3v181.4c0,1.7-1.3,3-3,3H167.2c-1.6,0-3-1.3-3-3V165.5c0-1.6,1.4-3,3-3H348.5 M348.5,145.5  H167.2c-11,0-20,9-20,20v181.4c0,11,9,20,20,20h181.4c11,0,20-9,20-20V165.5C368.5,154.5,359.6,145.5,348.5,145.5L348.5,145.5z" id="svg_1" class="" fill="#242424" fill-opacity="1"/><rect x="160.3951836560118" y="253.60000610351562" width="97.50482530835689" height="97.50482530835689" id="svg_2" class="" fill="#242424" fill-opacity="1"/><rect x="256.1000061035156" y="159.8000030517578" width="97.80964364091233" height="94.79759099712055" id="svg_3" class=""/><rect x="256.1000061035156" y="157.99277523323144" width="99.61686881173529" height="96.60481879341887" class="" id="svg_19" fill="#242424" fill-opacity="1"/></g></svg>