<?xml version="1.0" encoding="iso-8859-1"?>
<!-- Generator: Adobe Illustrator 18.1.1, SVG Export Plug-In . SVG Version: 6.00 Build 0)  -->
<!DOCTYPE svg PUBLIC "-//W3C//DTD SVG 1.1//EN" "http://www.w3.org/Graphics/SVG/1.1/DTD/svg11.dtd">
<svg version="1.1" id="Layer_2" xmlns="http://www.w3.org/2000/svg" xmlns:xlink="http://www.w3.org/1999/xlink" x="0px" y="0px"
	 viewBox="3.44 0 735.338 557.9" style="enable-background:new 3.44 0 735.338 557.9;" xml:space="preserve">
<g>
	<g>
		<rect x="503.95" y="260.767" style="fill:#333333;" width="227.728" height="36.376"/>
		<path style="fill:#FFFFFF;" d="M738.778,304.24H496.854v-50.566h241.924V304.24z M511.052,290.042H724.58v-22.17H511.052V290.042z
			"/>
	</g>
	<g>
		<g>
			<g>
				
					<rect x="426.085" y="465.518" transform="matrix(-0.9213 -0.3888 0.3888 -0.9213 849.3369 1139.2869)" style="fill:#333333;" width="227.719" height="36.374"/>
				<path style="fill:#FFFFFF;" d="M641.55,554.032l-222.88-94.06l19.668-46.6l222.88,94.06L641.55,554.032z M437.277,452.401
					l196.717,83.024l8.617-20.423l-196.717-83.024L437.277,452.401z"/>
			</g>
			<g>
				
					<rect x="426.295" y="56.081" transform="matrix(0.9213 -0.3888 0.3888 0.9213 13.624 215.8596)" style="fill:#333333;" width="227.719" height="36.374"/>
				<path style="fill:#FFFFFF;" d="M438.545,144.598l-19.668-46.6l222.887-94.06l19.667,46.6L438.545,144.598z M437.484,105.568
					l8.617,20.423l196.724-83.024l-8.617-20.423L437.484,105.568z"/>
			</g>
		</g>
		<g>
			<path style="fill:#333333;" d="M430.774,280.311c0-50.839-32.955-93.895-78.642-109.198V13.262L124.404,165.081H10.54v227.728
				h113.864l227.728,151.819V389.51C397.818,374.206,430.774,331.151,430.774,280.311z"/>
			<path style="fill:#FFFFFF;" d="M359.23,557.9L122.257,399.908H3.44V157.978h118.816L359.23,0v166.117
				c47.245,18.038,78.642,63.308,78.642,114.192s-31.397,96.154-78.642,114.192V557.9z M17.638,385.711h108.917l218.478,145.652
				V384.407l4.846-1.622c44.139-14.794,73.796-55.973,73.796-102.476s-29.657-87.682-73.796-102.476l-4.846-1.622V26.538
				L126.555,172.176H17.638V385.711z"/>
		</g>
	</g>
</g>
</svg>
