<svg xmlns="http://www.w3.org/2000/svg" xmlns:xlink="http://www.w3.org/1999/xlink" version="1.1" style="enable-background:new 3.44 0 735.338 557.9;" xml:space="preserve" width="735.338" height="557.9"><rect id="backgroundrect" width="100%" height="100%" x="0" y="0" fill="none" stroke="none"/>

<g class="currentLayer" style=""><title>Layer 1</title>
	
		
		
	
	
		
			
				
					
				
			
			
				
					
				
			
		
		
			
			
		
	
<g class="selected"><rect x="503.95001220703125" y="260.7669982910156" style="" width="227.72799682617188" height="36.375999450683594" id="svg_3" class="" fill="#242424" fill-opacity="1"/><path style="fill:#FFFFFF;" d="M738.778,304.24H496.854v-50.566h241.924V304.24z M511.052,290.042H724.58v-22.17H511.052V290.042z    " id="svg_4" class=""/><rect x="426.0849914550781" y="465.51800537109375" transform="matrix(-0.9213,-0.3888,0.3888,-0.9213,849.3369,1139.2869) " style="" width="227.718994140625" height="36.374000549316406" id="svg_8" class="" fill="#242424" fill-opacity="1"/><path style="fill:#FFFFFF;" d="M641.55,554.032l-222.88-94.06l19.668-46.6l222.88,94.06L641.55,554.032z M437.277,452.401      l196.717,83.024l8.617-20.423l-196.717-83.024L437.277,452.401z" id="svg_9" class=""/><rect x="426.2950134277344" y="56.08100128173828" transform="matrix(0.9213,-0.3888,0.3888,0.9213,13.624,215.8596) " style="" width="227.718994140625" height="36.374000549316406" id="svg_11" class="" fill="#242424" fill-opacity="1"/><path style="fill:#FFFFFF;" d="M438.545,144.598l-19.668-46.6l222.887-94.06l19.667,46.6L438.545,144.598z M437.484,105.568      l8.617,20.423l196.724-83.024l-8.617-20.423L437.484,105.568z" id="svg_12" class=""/><path style="" d="M430.774,280.311c0-50.839-32.955-93.895-78.642-109.198V13.262L124.404,165.081H10.54v227.728     h113.864l227.728,151.819V389.51C397.818,374.206,430.774,331.151,430.774,280.311z" id="svg_14" class="" fill="#242424" fill-opacity="1"/><path style="fill:#FFFFFF;" d="M359.23,557.9L122.257,399.908H3.44V157.978h118.816L359.23,0v166.117     c47.245,18.038,78.642,63.308,78.642,114.192s-31.397,96.154-78.642,114.192V557.9z M17.638,385.711h108.917l218.478,145.652     V384.407l4.846-1.622c44.139-14.794,73.796-55.973,73.796-102.476s-29.657-87.682-73.796-102.476l-4.846-1.622V26.538     L126.555,172.176H17.638V385.711z" id="svg_15" class=""/></g></g></svg>