<?xml version="1.0" encoding="iso-8859-1"?>
<!-- Generator: Adobe Illustrator 18.1.1, SVG Export Plug-In . SVG Version: 6.00 Build 0)  -->
<!DOCTYPE svg PUBLIC "-//W3C//DTD SVG 1.1//EN" "http://www.w3.org/Graphics/SVG/1.1/DTD/svg11.dtd">
<svg version="1.1" id="Layer_1" xmlns="http://www.w3.org/2000/svg" xmlns:xlink="http://www.w3.org/1999/xlink" x="0px" y="0px"
	 viewBox="0 0 960 560" style="enable-background:new 0 0 960 560;" xml:space="preserve">
<g>
	<g>
		<path style="fill:#333333;" d="M478.879,127.676c-83.872,0-152.325,68.454-152.325,152.325s68.454,152.325,152.325,152.325
			s152.325-67.837,152.325-152.325C631.204,196.13,563.366,127.676,478.879,127.676z"/>
		<path style="fill:#FFFFFF;" d="M478.881,437.281C392.156,437.281,321.6,366.725,321.6,280s70.557-157.281,157.281-157.281
			S636.157,193.275,636.157,280S565.606,437.281,478.881,437.281z M478.881,132.627c-81.263,0-147.373,66.115-147.373,147.373
			s66.11,147.373,147.373,147.373c81.258,0,147.368-66.115,147.368-147.373S560.138,132.627,478.881,132.627z"/>
	</g>
	<g>
		<rect x="459.145" y="4.952" style="fill:#333333;" width="40.086" height="75.237"/>
		<path style="fill:#FFFFFF;" d="M504.183,85.147h-49.99V0h49.99V85.147z M464.1,75.239h30.174V9.908H464.1V75.239z"/>
	</g>
	<g>
		
			<rect x="272.766" y="90.696" transform="matrix(-0.707 -0.7072 0.7072 -0.707 451.5123 408.5368)" style="fill:#333333;" width="75.236" height="40.085"/>
		<path style="fill:#FFFFFF;" d="M322.809,158.519l-60.198-60.212l35.351-35.346l60.198,60.212L322.809,158.519z M276.621,98.307
			l46.188,46.202l21.34-21.335l-46.188-46.202L276.621,98.307z"/>
	</g>
	<g>
		<rect x="201.98" y="257.8" style="fill:#333333;" width="75.237" height="40.086"/>
		<path style="fill:#FFFFFF;" d="M282.17,302.845h-85.142V252.85h85.142V302.845z M206.936,292.937h65.327v-30.179h-65.327V292.937z
			"/>
	</g>
	<g>
		
			<rect x="287.46" y="408.97" transform="matrix(0.7072 0.707 -0.707 0.7072 405.7749 -86.6482)" style="fill:#333333;" width="40.085" height="75.236"/>
		<path style="fill:#FFFFFF;" d="M295.083,494.359l-35.355-35.346l60.198-60.212l35.355,35.346L295.083,494.359z M273.738,459.013
			l21.345,21.335l46.187-46.202l-21.345-21.335L273.738,459.013z"/>
	</g>
	<g>
		<rect x="454.827" y="479.812" style="fill:#333333;" width="40.086" height="75.237"/>
		<path style="fill:#FFFFFF;" d="M499.868,560h-49.995v-85.137h49.995V560z M459.781,550.091h30.179V484.77h-30.179V550.091z"/>
	</g>
	<g>
		
			<rect x="606.017" y="429.505" transform="matrix(0.707 0.7072 -0.7072 0.707 506.5034 -323.4691)" style="fill:#333333;" width="75.236" height="40.085"/>
		<path style="fill:#FFFFFF;" d="M656.06,497.32l-60.198-60.212l35.351-35.346l60.198,60.212L656.06,497.32z M609.872,437.107
			l46.187,46.202l21.34-21.335l-46.188-46.202L609.872,437.107z"/>
	</g>
	<g>
		<rect x="676.839" y="262.117" style="fill:#333333;" width="75.237" height="40.086"/>
		<path style="fill:#FFFFFF;" d="M757.032,307.16h-85.147v-49.995h85.147V307.16z M681.792,297.252h65.332v-30.179h-65.332V297.252z
			"/>
	</g>
	<g>
		
			<rect x="626.205" y="75.756" transform="matrix(-0.7072 -0.707 0.707 -0.7072 1023.1211 650.4535)" style="fill:#333333;" width="40.085" height="75.236"/>
		<path style="fill:#FFFFFF;" d="M633.825,161.161l-35.351-35.346l60.198-60.212l35.351,35.346L633.825,161.161z M612.485,125.815
			l21.34,21.335l46.188-46.202l-21.34-21.335L612.485,125.815z"/>
	</g>
</g>
</svg>
