<?xml version="1.0" encoding="utf-8"?>
<!-- Generator: Adobe Illustrator 19.2.0, SVG Export Plug-In . SVG Version: 6.00 Build 0)  -->
<svg version="1.1" id="Layer_1" xmlns="http://www.w3.org/2000/svg" xmlns:xlink="http://www.w3.org/1999/xlink" x="0px" y="0px"
	 viewBox="0 0 512 512" style="enable-background:new 0 0 512 512;" xml:space="preserve">
<path d="M331.8,283.4c0-12.8,10.4-23.2,23.2-23.2l0,0c12.8,0,23.2,10.4,23.2,23.2l0,0c0,12.8-10.4,23.2-23.2,23.2l0,0
	C342.1,306.6,331.8,296.2,331.8,283.4z"/>
<path d="M277.8,350.9c0-12.8,10.4-23.2,23.2-23.2l0,0c12.8,0,23.2,10.4,23.2,23.2l0,0c0,12.8-10.4,23.2-23.2,23.2l0,0
	C288.1,374.2,277.8,363.8,277.8,350.9z"/>
<path d="M216.3,368.8c0-12.8,10.4-23.2,23.2-23.2l0,0c12.8,0,23.2,10.4,23.2,23.2l0,0c0,12.8-10.4,23.2-23.2,23.2l0,0
	C226.7,392,216.3,381.6,216.3,368.8z"/>
<path d="M169.9,308.9c0-12.8,10.4-23.2,23.2-23.2l0,0c12.8,0,23.2,10.4,23.2,23.2l0,0c0,12.8-10.4,23.2-23.2,23.2l0,0
	C180.3,332.1,169.9,321.7,169.9,308.9z"/>
<path d="M251.2,447.4c-4.9-3.6-8.3-9.1-9.2-15.3c-0.9-6,0.6-12.3,4.2-17.2c3.6-4.9,9.1-8.3,15.2-9.1c6-0.9,12.3,0.6,17.3,4.3
	c4.9,3.6,8.3,9.1,9.1,15.2c0.9,6-0.6,12.3-4.2,17.2s-9.1,8.3-15.2,9.1C262.4,452.6,256.1,451,251.2,447.4z"/>
<path d="M67.6,246.1c0-12.8,10.4-23.2,23.2-23.2l0,0c12.8,0,23.2,10.4,23.2,23.2l0,0c0,12.8-10.4,23.2-23.2,23.2l0,0
	C78,269.3,67.6,258.8,67.6,246.1z"/>
<path d="M178.8,199.5c0-12.8,10.4-23.2,23.2-23.2l0,0c12.8,0,23.2,10.4,23.2,23.2l0,0c0,12.8-10.4,23.2-23.2,23.2l0,0
	C189.1,222.7,178.8,212.2,178.8,199.5z"/>
<path d="M250.3,293.9c0-12.8,10.4-23.2,23.2-23.2l0,0c12.8,0,23.2,10.4,23.2,23.2l0,0c0,12.8-10.4,23.2-23.2,23.2l0,0
	C260.7,317.1,250.3,306.6,250.3,293.9z"/>
<path d="M413,242.1c0-12.8,10.4-23.2,23.2-23.2l0,0c12.8,0,23.2,10.4,23.2,23.2l0,0c0,12.8-10.4,23.2-23.2,23.2l0,0
	C423.5,265.3,413,255,413,242.1z"/>
<path d="M302.1,203.7c0-12.8,10.4-23.2,23.2-23.2l0,0c12.8,0,23.2,10.4,23.2,23.2l0,0c0,12.8-10.4,23.2-23.2,23.2l0,0
	C312.6,226.9,302.1,216.5,302.1,203.7z"/>
<path d="M132.3,113.5c0-12.8,10.4-23.2,23.2-23.2l0,0c12.8,0,23.2,10.4,23.2,23.2l0,0c0,12.8-10.4,23.2-23.2,23.2l0,0
	C142.8,136.6,132.3,126.2,132.3,113.5z"/>
<path d="M366.6,136.7c0-12.8,10.4-23.2,23.2-23.2l0,0c12.8,0,23.2,10.4,23.2,23.2l0,0c0,12.8-10.4,23.2-23.2,23.2l0,0
	C377.1,159.9,366.6,149.5,366.6,136.7z"/>
</svg>
