<svg xmlns="http://www.w3.org/2000/svg" xmlns:xlink="http://www.w3.org/1999/xlink" version="1.1" style="enable-background:new 0 0 960 560;" xml:space="preserve" width="960" height="560"><rect id="backgroundrect" width="100%" height="100%" x="0" y="0" fill="none" stroke="none"/>

<g class="currentLayer" style=""><title>Layer 1</title>
	
		
		
	
	
		
		
	
	
		
			
		
	
	
		
		
	
	
	
	
	
		
		
	
	
		
			
		
	

		
			
		
	
		
		
	
		
			
		
	<g class="selected"><path style="" d="M478.879,127.676c-83.872,0-152.325,68.454-152.325,152.325s68.454,152.325,152.325,152.325    s152.325-67.837,152.325-152.325C631.204,196.13,563.366,127.676,478.879,127.676z" id="svg_3" class="" fill="#242424" fill-opacity="1"/><path style="fill:#FFFFFF;" d="M478.881,437.281C392.156,437.281,321.6,366.725,321.6,280s70.557-157.281,157.281-157.281    S636.157,193.275,636.157,280S565.606,437.281,478.881,437.281z M478.881,132.627c-81.263,0-147.373,66.115-147.373,147.373    s66.11,147.373,147.373,147.373c81.258,0,147.368-66.115,147.368-147.373S560.138,132.627,478.881,132.627z" id="svg_4" class=""/><rect x="459.1449890136719" y="4.952000141143799" style="" width="40.08599853515625" height="75.23699951171875" id="svg_6" class="" fill="#242424" fill-opacity="1"/><path style="fill:#FFFFFF;" d="M504.183,85.147h-49.99V0h49.99V85.147z M464.1,75.239h30.174V9.908H464.1V75.239z" id="svg_7" class=""/><rect x="272.7659912109375" y="90.69599914550781" transform="matrix(-0.707,-0.7072,0.7072,-0.707,451.5123,408.5368) " style="" width="75.23600006103516" height="40.084999084472656" id="svg_9" class="" fill="#242424" fill-opacity="1"/><path style="fill:#FFFFFF;" d="M322.809,158.519l-60.198-60.212l35.351-35.346l60.198,60.212L322.809,158.519z M276.621,98.307    l46.188,46.202l21.34-21.335l-46.188-46.202L276.621,98.307z" id="svg_10" class=""/><rect x="201.97999572753906" y="257.79998779296875" style="" width="75.23699951171875" height="40.08599853515625" id="svg_12" class="" fill="#242424" fill-opacity="1"/><path style="fill:#FFFFFF;" d="M282.17,302.845h-85.142V252.85h85.142V302.845z M206.936,292.937h65.327v-30.179h-65.327V292.937z    " id="svg_13" class=""/><g id="svg_14" class="">
		
			<rect x="287.4599914550781" y="408.9700012207031" transform="matrix(0.7072,0.707,-0.707,0.7072,405.7749,-86.6482) " style="fill:#333333;" width="40.084999084472656" height="75.23600006103516" id="svg_15"/>
		<path style="fill:#FFFFFF;" d="M295.083,494.359l-35.355-35.346l60.198-60.212l35.355,35.346L295.083,494.359z M273.738,459.013    l21.345,21.335l46.187-46.202l-21.345-21.335L273.738,459.013z" id="svg_16"/>
	</g><rect x="676.8389892578125" y="262.11700439453125" style="" width="75.23699951171875" height="40.08599853515625" id="svg_24" class="" fill="#242424" fill-opacity="1"/><path style="fill:#FFFFFF;" d="M757.032,307.16h-85.147v-49.995h85.147V307.16z M681.792,297.252h65.332v-30.179h-65.332V297.252z    " id="svg_25" class=""/><rect x="626.2050170898438" y="75.75599670410156" transform="matrix(-0.7072,-0.707,0.707,-0.7072,1023.1211,650.4535) " style="" width="40.084999084472656" height="75.23600006103516" id="svg_27" class="" fill="#242424" fill-opacity="1"/><path style="fill:#FFFFFF;" d="M633.825,161.161l-35.351-35.346l60.198-60.212l35.351,35.346L633.825,161.161z M612.485,125.815    l21.34,21.335l46.188-46.202l-21.34-21.335L612.485,125.815z" id="svg_28" class=""/><rect x="287.4599914550781" y="408.9700012207031" transform="matrix(0.7072,0.707,-0.707,0.7072,405.7749,-86.6482) " style="" width="40.084999084472656" height="75.23600006103516" id="svg_31" class="" fill="#242424" fill-opacity="1"/><path style="fill:#FFFFFF;" d="M295.083,494.359l-35.355-35.346l60.198-60.212l35.355,35.346L295.083,494.359z M273.738,459.013    l21.345,21.335l46.187-46.202l-21.345-21.335L273.738,459.013z" id="svg_33" class=""/><rect x="454.8269958496094" y="479.81201171875" style="" width="40.08599853515625" height="75.23699951171875" id="svg_18" class="" fill="#242424" fill-opacity="1"/><path style="fill:#FFFFFF;" d="M499.868,560h-49.995v-85.137h49.995V560z M459.781,550.091h30.179V484.77h-30.179V550.091z" id="svg_19" class=""/><rect x="606.0170288085938" y="429.5050048828125" transform="matrix(0.707,0.7072,-0.7072,0.707,506.5034,-323.4691) " style="" width="75.23600006103516" height="40.084999084472656" id="svg_21" class="" fill="#242424" fill-opacity="1"/><path style="fill:#FFFFFF;" d="M656.06,497.32l-60.198-60.212l35.351-35.346l60.198,60.212L656.06,497.32z M609.872,437.107    l46.187,46.202l21.34-21.335l-46.188-46.202L609.872,437.107z" id="svg_22" class=""/></g></g></svg>