<svg xmlns:dc="http://purl.org/dc/elements/1.1/" xmlns:cc="http://creativecommons.org/ns#" xmlns:rdf="http://www.w3.org/1999/02/22-rdf-syntax-ns#" xmlns:svg="http://www.w3.org/2000/svg" xmlns="http://www.w3.org/2000/svg" xmlns:sodipodi="http://sodipodi.sourceforge.net/DTD/sodipodi-0.dtd" xmlns:inkscape="http://www.inkscape.org/namespaces/inkscape" version="1.1" style="enable-background:new 0 0 512 512;" xml:space="preserve" inkscape:version="0.91 r13725" sodipodi:docname="icon-zone.svg" width="512" height="512"><rect id="backgroundrect" width="100%" height="100%" x="0" y="0" fill="none" stroke="none"/><metadata id="metadata4211"><rdf:RDF><cc:Work rdf:about=""><dc:format>image/svg+xml</dc:format><dc:type rdf:resource="http://purl.org/dc/dcmitype/StillImage"/></cc:Work></rdf:RDF></metadata><defs id="defs4209"/><sodipodi:namedview pagecolor="#ffffff" bordercolor="#666666" borderopacity="1" objecttolerance="10" gridtolerance="10" guidetolerance="10" inkscape:pageopacity="0" inkscape:pageshadow="2" inkscape:window-width="2560" inkscape:window-height="1377" id="namedview4207" showgrid="false" inkscape:zoom="2" inkscape:cx="228.01796" inkscape:cy="376.88605" inkscape:window-x="-8" inkscape:window-y="-8" inkscape:window-maximized="1" inkscape:current-layer="g4191"/><style type="text/css" id="style4189">
	.st0{fill:none;stroke:#000000;stroke-width:18;stroke-miterlimit:10;}
	.st1{fill:none;stroke:#000000;stroke-width:18;stroke-linecap:round;stroke-miterlimit:10;}
	.st2{fill:none;stroke:#000000;stroke-width:19;stroke-linecap:round;stroke-miterlimit:10;}
</style><g class="currentLayer" style=""><title>Layer 1</title><g class="" id="svg_2"><rect fill="#ffffff" stroke-dashoffset="" fill-rule="nonzero" id="svg_5" x="285.3658752441406" y="121.6875" width="85.32164001464844" height="46.751522064208984" style="color: rgb(0, 0, 0);" class=""/><rect fill="#ffffff" stroke-dashoffset="" fill-rule="nonzero" x="339.7865905761719" y="141.8704376220703" width="49.6966438293457" height="78.62652587890625" style="color: rgb(0, 0, 0);" class="" id="svg_8"/></g><rect fill="#ffffff" stroke-dashoffset="" fill-rule="nonzero" id="svg_10" x="134.64759826660156" y="346.458740234375" width="95.96826171875" height="47.074100494384766" style="color: rgb(0, 0, 0);" class="" transform="rotate(-179.9131622314453 182.63174438476562,369.9957885742188) "/><rect fill="#ffffff" stroke-dashoffset="" fill-rule="nonzero" x="115.25270080566406" y="284.9971618652344" width="49.6966438293457" height="91.85133361816406" style="color: rgb(0, 0, 0);" class="" id="svg_11" transform="rotate(-179.9131622314453 140.1010284423828,330.9228210449219) "/><path d="M387.8460718815167,133.1987744975917 C384.9891492046343,126.21518573187919 378.11137238991745,121.77108379006214 370.5987238692267,121.77108379006214 l-76.60785252084634,0 l0,35.976063338519 l31.63777334769759,0 l-172.36766817190426,172.57929207389554 l0,-38.198114309427524 l-38.09230235843188,0 l0,83.59144128655885 l0.0063487170597387775,0.025394868238954968 c0.10581195099564411,2.116239019912882 0.52905975497822,4.3382899908214085 1.3755553629433734,6.2429051087430025 C119.40711999960374,388.9716231787172 127.5486724322322,393.70779784886753 135.06132095292293,393.70779784886753 l88.0355432283759,0 l0,-37.03418284847544 l-43.1712760062228,0 l171.20373671095217,-170.67467695597395 l0,26.77042360189796 l38.224567297176435,0.13226493874455514 l-0.2083648939006254,-66.29920784465651 C389.3151544279452,142.03031608146765 389.6448750484427,137.64287643940875 387.8460718815167,133.1987744975917 z" style="" inkscape:connector-curvature="0" sodipodi:nodetypes="cscccccccccscccccccc" fill="#ffffff" fill-opacity="1" class="" id="svg_4"/><rect fill="#ffffff" stroke-dashoffset="" fill-rule="nonzero" id="svg_12" x="224.42953491210938" y="136.48703002929688" width="47.142845153808594" height="252.56236267089844" style="color: rgb(0, 0, 0);" class="" fill-opacity="1" transform="rotate(44.96338653564453 248.00096130371097,262.7682189941406) "/><path d="M 380.7,139.8 C 378,133.2 371.5,129 364.4,129 l -72.4,0 0,34 29.9,0 -162.9,163.1 0,-36.1 -36,0 0,79 0.006,0.024 c 0.1,2 0.5,4.1 1.3,5.9 C 127.00564,381.52397 134.7,386 141.8,386 l 83.2,0 0,-35 -40.8,0 161.8,-161.3 0,25.3 36.125,0.125 -0.19692,-62.65758 C 382.08839,148.14645 382.4,144 380.7,139.8 Z" id="path4193" style="" inkscape:connector-curvature="0" sodipodi:nodetypes="cscccccccccscccccccc" fill="#242424" fill-opacity="1" class=""/><path d="M288.3500008771887,464.7000159329581 c-7.079034039990717,0 -14.033874500332473,-2.8564523319260786 -19.00161768629087,-7.948389097533436 c-4.967743185958398,-4.967743185958398 -7.948389097533436,-11.922583646300154 -7.948389097533436,-19.00161768629087 c0,-7.079034039990717 2.8564523319260786,-14.033874500332473 7.948389097533436,-19.00161768629087 c4.967743185958398,-4.967743185958398 11.922583646300154,-7.948389097533436 19.00161768629087,-7.948389097533436 s14.033874500332473,2.8564523319260786 19.00161768629087,7.948389097533436 c4.967743185958398,4.967743185958398 7.948389097533436,11.922583646300154 7.948389097533436,19.00161768629087 c0,7.079034039990717 -2.8564523319260786,14.033874500332473 -7.948389097533436,19.00161768629087 C302.3838753775211,461.84356360103203 295.55322849682835,464.7000159329581 288.3500008771887,464.7000159329581 z" style="" fill="#ffffff" fill-opacity="1" class="" id="svg_3"/><path d="M145.35000087718868,464.7000159329581 c-7.079034039990717,0 -14.033874500332473,-2.8564523319260786 -19.00161768629087,-7.948389097533436 c-4.967743185958398,-4.967743185958398 -7.948389097533436,-11.922583646300154 -7.948389097533436,-19.00161768629087 c0,-7.079034039990717 2.8564523319260786,-14.033874500332473 7.948389097533436,-19.00161768629087 c4.967743185958398,-4.967743185958398 11.922583646300154,-7.948389097533436 19.00161768629087,-7.948389097533436 s14.033874500332473,2.8564523319260786 19.00161768629087,7.948389097533436 c4.967743185958398,4.967743185958398 7.948389097533436,11.922583646300154 7.948389097533436,19.00161768629087 c0,7.079034039990717 -2.8564523319260786,14.033874500332473 -7.948389097533436,19.00161768629087 C159.38387537752112,461.84356360103203 152.55322849682835,464.7000159329581 145.35000087718868,464.7000159329581 z" style="" fill="#ffffff" fill-opacity="1" class="" id="svg_6"/><path d="M73.85000087718868,464.7000159329581 c-7.079034039990717,0 -14.033874500332473,-2.8564523319260786 -19.00161768629087,-7.948389097533436 c-4.967743185958398,-4.967743185958398 -7.948389097533436,-11.922583646300154 -7.948389097533436,-19.00161768629087 c0,-7.079034039990717 2.8564523319260786,-14.033874500332473 7.948389097533436,-19.00161768629087 c4.967743185958398,-4.967743185958398 11.922583646300154,-7.948389097533436 19.00161768629087,-7.948389097533436 s14.033874500332473,2.8564523319260786 19.00161768629087,7.948389097533436 c4.967743185958398,4.967743185958398 7.948389097533436,11.922583646300154 7.948389097533436,19.00161768629087 c0,7.079034039990717 -2.8564523319260786,14.033874500332473 -7.948389097533436,19.00161768629087 C87.88387537752112,461.84356360103203 81.05322849682835,464.7000159329581 73.85000087718868,464.7000159329581 z" style="" fill="#ffffff" fill-opacity="1" class="" id="svg_7"/><path d="M74.35000087718868,178.20001593295808 c-7.079034039990717,0 -14.033874500332473,-2.8564523319260786 -19.00161768629087,-7.948389097533436 c-4.967743185958398,-4.967743185958398 -7.948389097533436,-11.922583646300154 -7.948389097533436,-19.00161768629087 c0,-7.079034039990717 2.8564523319260786,-14.033874500332473 7.948389097533436,-19.00161768629087 c4.967743185958398,-4.967743185958398 11.922583646300154,-7.948389097533436 19.00161768629087,-7.948389097533436 s14.033874500332473,2.8564523319260786 19.00161768629087,7.948389097533436 c4.967743185958398,4.967743185958398 7.948389097533436,11.922583646300154 7.948389097533436,19.00161768629087 c0,7.079034039990717 -2.8564523319260786,14.033874500332473 -7.948389097533436,19.00161768629087 C88.38387537752112,175.34356360103203 81.55322849682835,178.20001593295808 74.35000087718868,178.20001593295808 z" style="" fill="#ffffff" fill-opacity="1" class="" id="svg_14"/><path d="M431.3500008771887,178.70001593295808 c-7.079034039990717,0 -14.033874500332473,-2.8564523319260786 -19.00161768629087,-7.948389097533436 c-4.967743185958398,-4.967743185958398 -7.948389097533436,-11.922583646300154 -7.948389097533436,-19.00161768629087 c0,-7.079034039990717 2.8564523319260786,-14.033874500332473 7.948389097533436,-19.00161768629087 c4.967743185958398,-4.967743185958398 11.922583646300154,-7.948389097533436 19.00161768629087,-7.948389097533436 s14.033874500332473,2.8564523319260786 19.00161768629087,7.948389097533436 c4.967743185958398,4.967743185958398 7.948389097533436,11.922583646300154 7.948389097533436,19.00161768629087 c0,7.079034039990717 -2.8564523319260786,14.033874500332473 -7.948389097533436,19.00161768629087 C445.3838753775211,175.84356360103203 438.55322849682835,178.70001593295808 431.3500008771887,178.70001593295808 z" style="" fill="#ffffff" fill-opacity="1" class="" id="svg_23"/><path d="M431.8500008771887,321.7000159329581 c-7.079034039990717,0 -14.033874500332473,-2.8564523319260786 -19.00161768629087,-7.948389097533436 c-4.967743185958398,-4.967743185958398 -7.948389097533436,-11.922583646300154 -7.948389097533436,-19.00161768629087 c0,-7.079034039990717 2.8564523319260786,-14.033874500332473 7.948389097533436,-19.00161768629087 c4.967743185958398,-4.967743185958398 11.922583646300154,-7.948389097533436 19.00161768629087,-7.948389097533436 s14.033874500332473,2.8564523319260786 19.00161768629087,7.948389097533436 c4.967743185958398,4.967743185958398 7.948389097533436,11.922583646300154 7.948389097533436,19.00161768629087 c0,7.079034039990717 -2.8564523319260786,14.033874500332473 -7.948389097533436,19.00161768629087 C445.8838753775211,318.84356360103203 439.05322849682835,321.7000159329581 431.8500008771887,321.7000159329581 z" style="" fill="#ffffff" fill-opacity="1" class="" id="svg_24"/><path d="M431.8500008771887,393.2000159329581 c-7.079034039990717,0 -14.033874500332473,-2.8564523319260786 -19.00161768629087,-7.948389097533436 c-4.967743185958398,-4.967743185958398 -7.948389097533436,-11.922583646300154 -7.948389097533436,-19.00161768629087 c0,-7.079034039990717 2.8564523319260786,-14.033874500332473 7.948389097533436,-19.00161768629087 c4.967743185958398,-4.967743185958398 11.922583646300154,-7.948389097533436 19.00161768629087,-7.948389097533436 s14.033874500332473,2.8564523319260786 19.00161768629087,7.948389097533436 c4.967743185958398,4.967743185958398 7.948389097533436,11.922583646300154 7.948389097533436,19.00161768629087 c0,7.079034039990717 -2.8564523319260786,14.033874500332473 -7.948389097533436,19.00161768629087 C445.8838753775211,390.34356360103203 439.05322849682835,393.2000159329581 431.8500008771887,393.2000159329581 z" style="" fill="#ffffff" fill-opacity="1" class="" id="svg_25"/><path d="M431.8500008771887,250.20001593295808 c-7.079034039990717,0 -14.033874500332473,-2.8564523319260786 -19.00161768629087,-7.948389097533436 c-4.967743185958398,-4.967743185958398 -7.948389097533436,-11.922583646300154 -7.948389097533436,-19.00161768629087 c0,-7.079034039990717 2.8564523319260786,-14.033874500332473 7.948389097533436,-19.00161768629087 c4.967743185958398,-4.967743185958398 11.922583646300154,-7.948389097533436 19.00161768629087,-7.948389097533436 s14.033874500332473,2.8564523319260786 19.00161768629087,7.948389097533436 c4.967743185958398,4.967743185958398 7.948389097533436,11.922583646300154 7.948389097533436,19.00161768629087 c0,7.079034039990717 -2.8564523319260786,14.033874500332473 -7.948389097533436,19.00161768629087 C445.8838753775211,247.34356360103203 439.05322849682835,250.20001593295808 431.8500008771887,250.20001593295808 z" style="" fill="#ffffff" fill-opacity="1" class="" id="svg_26"/><path d="M74.35000087718868,321.2000159329581 c-7.079034039990717,0 -14.033874500332473,-2.8564523319260786 -19.00161768629087,-7.948389097533436 c-4.967743185958398,-4.967743185958398 -7.948389097533436,-11.922583646300154 -7.948389097533436,-19.00161768629087 c0,-7.079034039990717 2.8564523319260786,-14.033874500332473 7.948389097533436,-19.00161768629087 c4.967743185958398,-4.967743185958398 11.922583646300154,-7.948389097533436 19.00161768629087,-7.948389097533436 s14.033874500332473,2.8564523319260786 19.00161768629087,7.948389097533436 c4.967743185958398,4.967743185958398 7.948389097533436,11.922583646300154 7.948389097533436,19.00161768629087 c0,7.079034039990717 -2.8564523319260786,14.033874500332473 -7.948389097533436,19.00161768629087 C88.38387537752112,318.34356360103203 81.55322849682835,321.2000159329581 74.35000087718868,321.2000159329581 z" style="" fill="#ffffff" fill-opacity="1" class="" id="svg_21"/><path d="M74.35000087718868,393.2000159329581 c-7.079034039990717,0 -14.033874500332473,-2.8564523319260786 -19.00161768629087,-7.948389097533436 c-4.967743185958398,-4.967743185958398 -7.948389097533436,-11.922583646300154 -7.948389097533436,-19.00161768629087 c0,-7.079034039990717 2.8564523319260786,-14.033874500332473 7.948389097533436,-19.00161768629087 c4.967743185958398,-4.967743185958398 11.922583646300154,-7.948389097533436 19.00161768629087,-7.948389097533436 s14.033874500332473,2.8564523319260786 19.00161768629087,7.948389097533436 c4.967743185958398,4.967743185958398 7.948389097533436,11.922583646300154 7.948389097533436,19.00161768629087 c0,7.079034039990717 -2.8564523319260786,14.033874500332473 -7.948389097533436,19.00161768629087 C88.38387537752112,390.34356360103203 81.55322849682835,393.2000159329581 74.35000087718868,393.2000159329581 z" style="" fill="#ffffff" fill-opacity="1" class="" id="svg_22"/><path d="M74.35000087718868,250.20001593295808 c-7.079034039990717,0 -14.033874500332473,-2.8564523319260786 -19.00161768629087,-7.948389097533436 c-4.967743185958398,-4.967743185958398 -7.948389097533436,-11.922583646300154 -7.948389097533436,-19.00161768629087 c0,-7.079034039990717 2.8564523319260786,-14.033874500332473 7.948389097533436,-19.00161768629087 c4.967743185958398,-4.967743185958398 11.922583646300154,-7.948389097533436 19.00161768629087,-7.948389097533436 s14.033874500332473,2.8564523319260786 19.00161768629087,7.948389097533436 c4.967743185958398,4.967743185958398 7.948389097533436,11.922583646300154 7.948389097533436,19.00161768629087 c0,7.079034039990717 -2.8564523319260786,14.033874500332473 -7.948389097533436,19.00161768629087 C88.38387537752112,247.34356360103203 81.55322849682835,250.20001593295808 74.35000087718868,250.20001593295808 z" style="" fill="#ffffff" fill-opacity="1" class="" id="svg_20"/><path d="M216.85000087718868,464.7000159329581 c-7.079034039990717,0 -14.033874500332473,-2.8564523319260786 -19.00161768629087,-7.948389097533436 c-4.967743185958398,-4.967743185958398 -7.948389097533436,-11.922583646300154 -7.948389097533436,-19.00161768629087 c0,-7.079034039990717 2.8564523319260786,-14.033874500332473 7.948389097533436,-19.00161768629087 c4.967743185958398,-4.967743185958398 11.922583646300154,-7.948389097533436 19.00161768629087,-7.948389097533436 s14.033874500332473,2.8564523319260786 19.00161768629087,7.948389097533436 c4.967743185958398,4.967743185958398 7.948389097533436,11.922583646300154 7.948389097533436,19.00161768629087 c0,7.079034039990717 -2.8564523319260786,14.033874500332473 -7.948389097533436,19.00161768629087 C230.88387537752112,461.84356360103203 224.05322849682835,464.7000159329581 216.85000087718868,464.7000159329581 z" style="" fill="#ffffff" fill-opacity="1" class="" id="svg_9"/><path d="M359.8500008771887,464.7000159329581 c-7.079034039990717,0 -14.033874500332473,-2.8564523319260786 -19.00161768629087,-7.948389097533436 c-4.967743185958398,-4.967743185958398 -7.948389097533436,-11.922583646300154 -7.948389097533436,-19.00161768629087 c0,-7.079034039990717 2.8564523319260786,-14.033874500332473 7.948389097533436,-19.00161768629087 c4.967743185958398,-4.967743185958398 11.922583646300154,-7.948389097533436 19.00161768629087,-7.948389097533436 s14.033874500332473,2.8564523319260786 19.00161768629087,7.948389097533436 c4.967743185958398,4.967743185958398 7.948389097533436,11.922583646300154 7.948389097533436,19.00161768629087 c0,7.079034039990717 -2.8564523319260786,14.033874500332473 -7.948389097533436,19.00161768629087 C373.8838753775211,461.84356360103203 367.0532284968283,464.7000159329581 359.8500008771887,464.7000159329581 z" style="" fill="#ffffff" fill-opacity="1" class="" id="svg_13"/><path d="M338.4,437.6c0-12,9.7-21.7,21.7-21.7l0,0c12,0,21.7,9.7,21.7,21.7l0,0c0,12-9.7,21.7-21.7,21.7l0,0   C348.1,459.3,338.4,449.6,338.4,437.6z M266.9,437.6c0-12,9.7-21.7,21.7-21.7l0,0c12,0,21.7,9.7,21.7,21.7l0,0   c0,12-9.7,21.7-21.7,21.7l0,0C276.6,459.3,266.9,449.6,266.9,437.6z M195.4,437.6c0-12,9.7-21.7,21.7-21.7l0,0   c12,0,21.7,9.7,21.7,21.7l0,0c0,12-9.7,21.7-21.7,21.7l0,0C205.1,459.3,195.4,449.6,195.4,437.6z M123.9,437.6   c0-12,9.7-21.7,21.7-21.7l0,0c12,0,21.7,9.7,21.7,21.7l0,0c0,12-9.7,21.7-21.7,21.7l0,0C133.6,459.3,123.9,449.6,123.9,437.6z" id="path4195" style="" fill="#242424" fill-opacity="1" class=""/><path d="M74.1,459.3c-5.7,0-11.3-2.3-15.4-6.4c-4-4-6.4-9.6-6.4-15.3c0-5.7,2.3-11.3,6.4-15.3c4-4,9.6-6.4,15.4-6.4   c5.7,0,11.3,2.3,15.3,6.4c4,4,6.4,9.6,6.4,15.3c0,5.7-2.3,11.3-6.4,15.3C85.4,457,79.8,459.3,74.1,459.3z" id="path4197" style="" fill="#242424" fill-opacity="1" class=""/><path d="M52.4,366.1c0-12,9.7-21.7,21.7-21.7l0,0c12,0,21.7,9.7,21.7,21.7l0,0c0,12-9.7,21.7-21.7,21.7l0,0   C62.1,387.8,52.4,378,52.4,366.1z M52.4,294.6c0-12,9.7-21.7,21.7-21.7l0,0c12,0,21.7,9.7,21.7,21.7l0,0c0,12-9.7,21.7-21.7,21.7   l0,0C62.1,316.3,52.4,306.5,52.4,294.6z M52.4,223.1c0-12,9.7-21.7,21.7-21.7l0,0c12,0,21.7,9.7,21.7,21.7l0,0   c0,12-9.7,21.7-21.7,21.7l0,0C62.1,244.8,52.4,235,52.4,223.1z M52.4,151.5c0-12,9.7-21.7,21.7-21.7l0,0c12,0,21.7,9.7,21.7,21.7   l0,0c0,12-9.7,21.7-21.7,21.7l0,0C62.1,173.2,52.4,163.5,52.4,151.5z" id="path4199" style="" fill="#242424" fill-opacity="1" class=""/><path d="M360.3500008771887,107.20001593295811 c-7.079034039990717,0 -14.033874500332473,-2.8564523319260786 -19.00161768629087,-7.948389097533436 c-4.967743185958398,-4.967743185958398 -7.948389097533436,-11.922583646300154 -7.948389097533436,-19.00161768629087 c0,-7.079034039990717 2.8564523319260786,-14.033874500332473 7.948389097533436,-19.00161768629087 c4.967743185958398,-4.967743185958398 11.922583646300154,-7.948389097533436 19.00161768629087,-7.948389097533436 s14.033874500332473,2.8564523319260786 19.00161768629087,7.948389097533436 c4.967743185958398,4.967743185958398 7.948389097533436,11.922583646300154 7.948389097533436,19.00161768629087 c0,7.079034039990717 -2.8564523319260786,14.033874500332473 -7.948389097533436,19.00161768629087 C374.3838753775211,104.34356360103203 367.55322849682835,107.20001593295811 360.3500008771887,107.20001593295811 z" style="" fill="#ffffff" fill-opacity="1" class="" id="svg_16"/><path d="M217.35000087718868,107.20001593295811 c-7.079034039990717,0 -14.033874500332473,-2.8564523319260786 -19.00161768629087,-7.948389097533436 c-4.967743185958398,-4.967743185958398 -7.948389097533436,-11.922583646300154 -7.948389097533436,-19.00161768629087 c0,-7.079034039990717 2.8564523319260786,-14.033874500332473 7.948389097533436,-19.00161768629087 c4.967743185958398,-4.967743185958398 11.922583646300154,-7.948389097533436 19.00161768629087,-7.948389097533436 s14.033874500332473,2.8564523319260786 19.00161768629087,7.948389097533436 c4.967743185958398,4.967743185958398 7.948389097533436,11.922583646300154 7.948389097533436,19.00161768629087 c0,7.079034039990717 -2.8564523319260786,14.033874500332473 -7.948389097533436,19.00161768629087 C231.38387537752112,104.34356360103203 224.55322849682835,107.20001593295811 217.35000087718868,107.20001593295811 z" style="" fill="#ffffff" fill-opacity="1" class="" id="svg_17"/><path d="M145.85000087718868,107.20001593295811 c-7.079034039990717,0 -14.033874500332473,-2.8564523319260786 -19.00161768629087,-7.948389097533436 c-4.967743185958398,-4.967743185958398 -7.948389097533436,-11.922583646300154 -7.948389097533436,-19.00161768629087 c0,-7.079034039990717 2.8564523319260786,-14.033874500332473 7.948389097533436,-19.00161768629087 c4.967743185958398,-4.967743185958398 11.922583646300154,-7.948389097533436 19.00161768629087,-7.948389097533436 s14.033874500332473,2.8564523319260786 19.00161768629087,7.948389097533436 c4.967743185958398,4.967743185958398 7.948389097533436,11.922583646300154 7.948389097533436,19.00161768629087 c0,7.079034039990717 -2.8564523319260786,14.033874500332473 -7.948389097533436,19.00161768629087 C159.88387537752112,104.34356360103203 153.05322849682835,107.20001593295811 145.85000087718868,107.20001593295811 z" style="" fill="#ffffff" fill-opacity="1" class="" id="svg_19"/><path d="M288.8500008771887,107.20001593295811 c-7.079034039990717,0 -14.033874500332473,-2.8564523319260786 -19.00161768629087,-7.948389097533436 c-4.967743185958398,-4.967743185958398 -7.948389097533436,-11.922583646300154 -7.948389097533436,-19.00161768629087 c0,-7.079034039990717 2.8564523319260786,-14.033874500332473 7.948389097533436,-19.00161768629087 c4.967743185958398,-4.967743185958398 11.922583646300154,-7.948389097533436 19.00161768629087,-7.948389097533436 s14.033874500332473,2.8564523319260786 19.00161768629087,7.948389097533436 c4.967743185958398,4.967743185958398 7.948389097533436,11.922583646300154 7.948389097533436,19.00161768629087 c0,7.079034039990717 -2.8564523319260786,14.033874500332473 -7.948389097533436,19.00161768629087 C302.8838753775211,104.34356360103203 296.05322849682835,107.20001593295811 288.8500008771887,107.20001593295811 z" style="" fill="#ffffff" fill-opacity="1" class="" id="svg_18"/><path d="M338.4,80c0-12,9.7-21.7,21.7-21.7l0,0c12,0,21.7,9.7,21.7,21.7l0,0c0,12-9.7,21.7-21.7,21.7l0,0   C348.1,101.7,338.4,92,338.4,80z M266.9,80c0-12,9.7-21.7,21.7-21.7l0,0c12,0,21.7,9.7,21.7,21.7l0,0c0,12-9.7,21.7-21.7,21.7l0,0   C276.6,101.7,266.9,92,266.9,80z M195.4,80c0-12,9.7-21.7,21.7-21.7l0,0c12,0,21.7,9.7,21.7,21.7l0,0c0,12-9.7,21.7-21.7,21.7l0,0   C205.1,101.7,195.4,92,195.4,80z M123.9,80c0-12,9.7-21.7,21.7-21.7l0,0c12,0,21.7,9.7,21.7,21.7l0,0c0,12-9.7,21.7-21.7,21.7l0,0   C133.6,101.7,123.9,92,123.9,80z" id="path4201" style="" fill="#242424" fill-opacity="1" class=""/><path d="M431.8500008771887,107.20001593295811 c-7.079034039990717,0 -14.033874500332473,-2.8564523319260786 -19.00161768629087,-7.948389097533436 c-4.967743185958398,-4.967743185958398 -7.948389097533436,-11.922583646300154 -7.948389097533436,-19.00161768629087 c0,-7.079034039990717 2.8564523319260786,-14.033874500332473 7.948389097533436,-19.00161768629087 c4.967743185958398,-4.967743185958398 11.922583646300154,-7.948389097533436 19.00161768629087,-7.948389097533436 s14.033874500332473,2.8564523319260786 19.00161768629087,7.948389097533436 c4.967743185958398,4.967743185958398 7.948389097533436,11.922583646300154 7.948389097533436,19.00161768629087 c0,7.079034039990717 -2.8564523319260786,14.033874500332473 -7.948389097533436,19.00161768629087 C445.8838753775211,104.34356360103203 439.05322849682835,107.20001593295811 431.8500008771887,107.20001593295811 z" style="" fill="#ffffff" fill-opacity="1" class="" id="svg_15"/><path d="M431.6,101.7c-5.7,0-11.3-2.3-15.3-6.4c-4-4-6.4-9.6-6.4-15.3c0-5.7,2.3-11.3,6.4-15.3c4-4,9.6-6.4,15.3-6.4   s11.3,2.3,15.3,6.4c4,4,6.4,9.6,6.4,15.3c0,5.7-2.3,11.3-6.4,15.3C442.9,99.4,437.4,101.7,431.6,101.7z" id="path4203" style="" fill="#242424" fill-opacity="1" class=""/><path d="M409.9,366.1c0-12,9.7-21.7,21.7-21.7l0,0c12,0,21.7,9.7,21.7,21.7l0,0c0,12-9.7,21.7-21.7,21.7l0,0   C419.7,387.8,409.9,378.1,409.9,366.1z M409.9,294.6c0-12,9.7-21.7,21.7-21.7l0,0c12,0,21.7,9.7,21.7,21.7l0,0   c0,12-9.7,21.7-21.7,21.7l0,0C419.7,316.3,409.9,306.5,409.9,294.6z M409.9,223.1c0-12,9.7-21.7,21.7-21.7l0,0   c12,0,21.7,9.7,21.7,21.7l0,0c0,12-9.7,21.7-21.7,21.7l0,0C419.7,244.7,409.9,235,409.9,223.1z M409.9,151.5   c0-12,9.7-21.7,21.7-21.7l0,0c12,0,21.7,9.7,21.7,21.7l0,0c0,12-9.7,21.7-21.7,21.7l0,0C419.7,173.2,409.9,163.5,409.9,151.5z" id="path4205" style="" fill="#242424" fill-opacity="1" class=""/></g></svg>