<?xml version="1.0" encoding="UTF-8"?>
<svg width="30.941" height="22.781" fill="none" version="1.1" viewBox="0 0 30.941 22.781" xmlns="http://www.w3.org/2000/svg" xmlns:cc="http://creativecommons.org/ns#" xmlns:dc="http://purl.org/dc/elements/1.1/" xmlns:rdf="http://www.w3.org/1999/02/22-rdf-syntax-ns#">
 <metadata>
  <rdf:RDF>
   <cc:Work rdf:about="">
    <dc:format>image/svg+xml</dc:format>
    <dc:type rdf:resource="http://purl.org/dc/dcmitype/StillImage"/>
    <dc:title/>
   </cc:Work>
  </rdf:RDF>
 </metadata>
 <path d="m29.57 1.4006c0.441 0.44032 0.7894 0.96444 1.0247 1.5415 0.2353 0.57705 0.3527 1.1954 0.3453 1.8185v9.06c0.0066 0.629-0.111 1.2531-0.3461 1.8366-0.2351 0.5834-0.583 1.1147-1.0239 1.5634-0.4179 0.4646-0.9304 0.8343-1.503 1.0844-0.5727 0.2501-1.1922 0.3747-1.817 0.3656h-9.69v2.11h6.33c0.2652 0 0.5196 0.1054 0.7071 0.2929 0.1876 0.1876 0.2929 0.4419 0.2929 0.7071s-0.1053 0.5196-0.2929 0.7071c-0.1875 0.1876-0.4419 0.2929-0.7071 0.2929h-14.53c-0.73 0-1.09-0.34-1.09-1s0.36001-1 1.09-1h6.25v-2.11h-9.92c-0.62489 0.0098-1.2446-0.1146-1.8173-0.3647-0.57272-0.2502-1.0851-0.6202-1.5027-1.0853-0.44084-0.4487-0.78878-0.98-1.0239-1.5634-0.23509-0.5835-0.35272-1.2076-0.34613-1.8366v-9.06c-0.007379-0.62314 0.11003-1.2414 0.34532-1.8185 0.23529-0.57706 0.58369-1.1012 1.0247-1.5415 0.42558-0.45144 0.94066-0.80913 1.5123-1.0502 0.57167-0.24106 1.1873-0.36021 1.8077-0.34981h21.56c0.6202-0.0091691 1.2355 0.11053 1.807 0.35152 0.5715 0.24099 1.0867 0.59802 1.513 1.0485zm-0.82 3.36c0.0079-0.33937-0.0536-0.67677-0.1809-0.99147-0.1272-0.3147-0.3175-0.60005-0.5591-0.83853-0.2262-0.23901-0.4992-0.42893-0.802-0.55795-0.3028-0.12903-0.6289-0.1944-0.958-0.19205h-21.56c-0.32929-0.00355-0.65573 0.06127-0.95868 0.19037-0.30295 0.12909-0.57581 0.31965-0.80132 0.55963-0.24352 0.23703-0.43506 0.52212-0.56246 0.83717-0.12739 0.31505-0.18785 0.65315-0.17754 0.99283v9.06c-0.01049 0.3412 0.04985 0.6809 0.17722 0.9976 0.12736 0.3167 0.31899 0.6035 0.56278 0.8424 0.22601 0.2387 0.49919 0.4277 0.80218 0.5551 0.303 0.1274 0.62918 0.1904 0.95782 0.1849h21.56c0.3285 0.0043 0.6543-0.0593 0.9571-0.1866s0.5762-0.3157 0.8029-0.5534c0.2419-0.2403 0.4322-0.5274 0.5595-0.8438 0.1272-0.3163 0.1886-0.6553 0.1805-0.9962z" fill="#000"/>
</svg>
