<?xml version="1.0" encoding="utf-8"?>
<!-- Generator: Adobe Illustrator 23.0.3, SVG Export Plug-In . SVG Version: 6.00 Build 0)  -->
<svg version="1.1" id="Layer_1" xmlns="http://www.w3.org/2000/svg" xmlns:xlink="http://www.w3.org/1999/xlink" x="0px" y="0px"
	 viewBox="0 0 25 22" style="enable-background:new 0 0 25 22;" xml:space="preserve">
<path d="M1.23,15.44h0.95l9.04-8.98V3.22c0-1.03-1.32-1.55-2.1-0.82L5.15,6.22C4.92,6.43,4.61,6.55,4.28,6.55H1.23
	C0.55,6.55,0,7.07,0,7.71v6.57C0,14.92,0.55,15.44,1.23,15.44z M21.53,2.57l0.3-0.3c0.52-0.52,0.52-1.36,0-1.88s-1.37-0.52-1.9,0
	L0.47,19.72c-0.52,0.52-0.52,1.36,0,1.88C0.73,21.87,1.07,22,1.41,22c0.34,0,0.69-0.13,0.95-0.39l4.35-4.32l2.41,2.31
	c0.77,0.73,2.1,0.21,2.1-0.82v-5.97l3.79-3.76c0.47,0.53,0.75,1.22,0.75,1.94c0,1.04-0.56,2.01-1.47,2.53
	c-0.37,0.22-0.5,0.69-0.29,1.06c0.15,0.25,0.41,0.39,0.68,0.39c0.13,0,0.27-0.03,0.39-0.1c1.39-0.8,2.25-2.28,2.25-3.88
	c0-1.14-0.45-2.23-1.21-3.04l1.65-1.64C18.94,7.58,19.6,9.23,19.6,11c0,2.46-1.34,4.76-3.49,6c-0.37,0.22-0.5,0.69-0.29,1.06
	c0.15,0.25,0.41,0.39,0.68,0.39c0.13,0,0.27-0.03,0.39-0.1c2.63-1.51,4.27-4.33,4.27-7.35c0-2.18-0.82-4.22-2.29-5.78l1.55-1.54
	c1.92,1.95,3.01,4.57,3.01,7.32c0,3.73-2.02,7.2-5.27,9.07c-0.37,0.22-0.5,0.69-0.29,1.06c0.15,0.25,0.41,0.39,0.68,0.39
	c0.13,0,0.27-0.03,0.39-0.1C22.68,19.27,25,15.28,25,11C25,7.83,23.75,4.82,21.53,2.57z"/>
</svg>
