<?xml version="1.0" encoding="utf-8"?>
<!-- Generator: Adobe Illustrator 23.0.3, SVG Export Plug-In . SVG Version: 6.00 Build 0)  -->
<svg version="1.1" id="Layer_1" xmlns="http://www.w3.org/2000/svg" xmlns:xlink="http://www.w3.org/1999/xlink" x="0px" y="0px"
	 viewBox="0 0 26 22" style="enable-background:new 0 0 26 22;" xml:space="preserve">
<path d="M9.49,1.96L5.36,5.95C5.12,6.17,4.79,6.3,4.46,6.3H1.28C0.57,6.3,0,6.84,0,7.51v6.87c0,0.67,0.57,1.21,1.28,1.21h3.17
	c0.34,0,0.66,0.13,0.9,0.36l4.13,3.99c0.81,0.76,2.18,0.22,2.18-0.85V2.81C11.67,1.73,10.29,1.19,9.49,1.96z M18.02,11
	c0-1.66-0.9-3.22-2.34-4.05c-0.39-0.23-0.89-0.09-1.11,0.3c-0.23,0.39-0.09,0.89,0.3,1.11C15.8,8.9,16.39,9.91,16.39,11
	s-0.59,2.1-1.53,2.64c-0.39,0.23-0.52,0.72-0.3,1.11c0.15,0.26,0.42,0.41,0.71,0.41c0.14,0,0.28-0.03,0.41-0.11
	C17.12,14.22,18.02,12.66,18.02,11z M19.71,0.11c-0.39-0.23-0.89-0.09-1.11,0.3c-0.23,0.39-0.09,0.89,0.3,1.11
	c3.38,1.95,5.48,5.59,5.48,9.48c0,3.9-2.1,7.53-5.48,9.49c-0.39,0.23-0.52,0.72-0.3,1.11C18.74,21.85,19.01,22,19.3,22
	c0.14,0,0.28-0.03,0.41-0.11C23.59,19.65,26,15.47,26,11C26,6.53,23.59,2.35,19.71,0.11z M22.01,11c0-3.15-1.7-6.1-4.44-7.68
	c-0.39-0.23-0.89-0.09-1.11,0.3C16.23,4,16.37,4.5,16.75,4.73c2.24,1.29,3.63,3.7,3.63,6.27s-1.39,4.98-3.63,6.27
	c-0.39,0.23-0.52,0.72-0.3,1.11c0.15,0.26,0.42,0.41,0.71,0.41c0.14,0,0.28-0.03,0.41-0.11C20.31,17.1,22.01,14.16,22.01,11z"/>
</svg>
