<?xml version="1.0" encoding="UTF-8"?>
<svg width="15.629" height="26.476" fill="none" version="1.1" viewBox="0 0 15.629 26.476" xmlns="http://www.w3.org/2000/svg" xmlns:cc="http://creativecommons.org/ns#" xmlns:dc="http://purl.org/dc/elements/1.1/" xmlns:rdf="http://www.w3.org/1999/02/22-rdf-syntax-ns#">
 <metadata>
  <rdf:RDF>
   <cc:Work rdf:about="">
    <dc:format>image/svg+xml</dc:format>
    <dc:type rdf:resource="http://purl.org/dc/dcmitype/StillImage"/>
    <dc:title/>
   </cc:Work>
  </rdf:RDF>
 </metadata>
 <path d="m10.341 1.0357c0.3782-0.48138 0.9083-0.82052 1.5039-0.96216 0.5956-0.14164 1.2216-0.07743 1.7761 0.18216 0.6142 0.17933 1.1481 0.56434 1.5122 1.0905 0.3641 0.52616 0.5363 1.1615 0.4878 1.7995v0.55001 1.41c0 0.58-0.05 1.18-0.08 1.83s0 1.3 0 2v14.34c0.0746 0.634-0.0599 1.2749-0.383 1.8255-0.3231 0.5505-0.8172 0.9805-1.407 1.2245-0.3071 0.0833-0.6223 0.1336-0.94 0.15-0.4473 0.0083-0.8906-0.0856-1.2961-0.2745-0.4055-0.1888-0.7625-0.4678-1.0439-0.8155-2-2.19-3.39-3.7-4.22-4.53-0.07888-0.0913-0.17528-0.1657-0.28351-0.219-0.10822-0.0532-0.22607-0.0842-0.34649-0.091h-1.33c-0.5977 0.0074-1.1954-0.0194-1.79-0.08-0.33315-0.0238-0.6578-0.116-0.95373-0.2708-0.29594-0.1549-0.55679-0.3691-0.76624-0.6292-0.45471-0.5112-0.72881-1.1577-0.78003-1.84v-8.82c-0.010075-0.39268 0.068268-0.7826 0.22925-1.1409 0.16098-0.35831 0.40047-0.67584 0.70074-0.92909 0.627-0.54844 1.4373-0.84114 2.27-0.82001h2.42c0.12092-0.00919 0.23886-0.04218 0.34698-0.09709 0.10812-0.05492 0.20428-0.13068 0.28302-0.2229 0.97334-1.12 2.3367-2.6733 4.09-4.66zm-1.1 5.86c-0.36 0.37-0.91001 1-1.64 1.8-0.21506 0.26203-0.52331 0.4305-0.85999 0.47h-3.83v8.28h3.91c0.11347-5e-3 0.22682 0.0127 0.33331 0.0522s0.20395 0.1 0.28668 0.1778l2.11 2.35c0.21717 0.2771 0.45449 0.5378 0.70999 0.78l1 1.09c0.1508 0.1381 0.2821 0.2962 0.39 0.47l0.47 0.47 0.31 0.55v-20.24l-1.17 1.41c-0.92 1.04-1.55 1.78-2.02 2.34z" fill="#000"/>
</svg>
