<?xml version="1.0" encoding="utf-8"?>
<!-- Generator: Adobe Illustrator 23.0.3, SVG Export Plug-In . SVG Version: 6.00 Build 0)  -->
<svg version="1.1" id="Layer_1" xmlns="http://www.w3.org/2000/svg" xmlns:xlink="http://www.w3.org/1999/xlink" x="0px" y="0px"
	 viewBox="0 0 111.71 99" style="enable-background:new 0 0 111.71 99;" xml:space="preserve">
<path d="M5.49,69.49h4.25L50.13,29.1V14.48c0-4.64-5.91-6.97-9.37-3.68L23.02,27.97c-1.03,0.97-2.43,1.52-3.88,1.52H5.49
	C2.46,29.49,0,31.83,0,34.7v29.58C0.01,67.15,2.46,69.49,5.49,69.49z M96.21,11.58l1.35-1.35c2.34-2.34,2.34-6.14,0-8.48
	s-6.14-2.34-8.48,0l-87,87c-2.34,2.34-2.34,6.14,0,8.48C3.25,98.4,4.79,99,6.32,99c1.54,0,3.07-0.59,4.24-1.76l19.45-19.45
	l10.75,10.4c3.46,3.28,9.37,0.96,9.37-3.68V57.66l16.92-16.92c2.12,2.38,3.35,5.49,3.35,8.75c0,4.67-2.52,9.04-6.57,11.38
	c-1.67,0.97-2.24,3.11-1.28,4.78c0.65,1.12,1.82,1.75,3.03,1.75c0.6,0,1.2-0.15,1.75-0.47c6.21-3.59,10.07-10.28,10.07-17.44
	c0-5.14-1.99-10.02-5.4-13.7l7.37-7.37c5.25,5.7,8.19,13.13,8.19,21.07c0,11.09-5.97,21.44-15.58,27c-1.67,0.97-2.24,3.11-1.28,4.78
	c0.65,1.12,1.82,1.75,3.03,1.75c0.6,0,1.2-0.15,1.75-0.47c11.77-6.81,19.08-19.48,19.08-33.06c0-9.82-3.67-19.01-10.23-26.02
	l6.94-6.94c8.59,8.78,13.45,20.55,13.45,32.96c0,16.77-9.03,32.41-23.56,40.83c-1.67,0.97-2.24,3.11-1.28,4.78
	c0.65,1.12,1.82,1.75,3.03,1.75c0.6,0,1.2-0.15,1.75-0.47c16.69-9.66,27.05-27.63,27.05-46.89
	C111.71,35.22,106.11,21.67,96.21,11.58z"/>
</svg>
