<?xml version="1.0" encoding="utf-8"?>
<!-- Generator: Adobe Illustrator 23.0.3, SVG Export Plug-In . SVG Version: 6.00 Build 0)  -->
<svg version="1.1" id="Layer_1" xmlns="http://www.w3.org/2000/svg" xmlns:xlink="http://www.w3.org/1999/xlink" x="0px" y="0px"
	 viewBox="0 0 57 99" style="enable-background:new 0 0 57 99;" xml:space="preserve">
<g>
	<path d="M18.4,63.8c0-10.7,7.1-17.3,13.6-23.7c5-5,9.4-7.5,9.4-15.3c0-6.9-4.8-10.9-12-10.6c-7.3,0.3-12.6,4.1-14.5,11.3
		c-0.5,1.9-2.1,3.3-4.1,3.3H4.3c-2.7,0-4.7-2.5-4.2-5.2C2.9,9,14,0,30.2,0C49.4,0,57,12,57,25.1c0,9.6-4.3,14.4-10.4,20.3
		c-6.3,6.1-12.8,11.6-13.2,19.2l0,0c0,2.4-1.9,4.3-4.3,4.3h-6.5c-2.4,0-4.3-1.9-4.3-4.3V63.8z M14.7,88.6c0-6.3,5.6-11.1,12.2-10.5
		c4.8,0.5,8.9,4.3,9.5,9.1C37.3,93.7,32.1,99,25.8,99C19.7,99,14.7,94.4,14.7,88.6z"/>
</g>
</svg>
