<?xml version="1.0" encoding="utf-8"?>
<!-- Generator: Adobe Illustrator 23.0.3, SVG Export Plug-In . SVG Version: 6.00 Build 0)  -->
<svg version="1.1" id="Layer_1" xmlns="http://www.w3.org/2000/svg" xmlns:xlink="http://www.w3.org/1999/xlink" x="0px" y="0px"
	 viewBox="0 0 98.97 98.97" style="enable-background:new 0 0 98.97 98.97;" xml:space="preserve">
<path id="settings_filled_1_" d="M98.97,49.48L98.97,49.48c0-3.41-2.55-6.27-5.93-6.67L81.6,41.46c-0.01,0-0.02-0.01-0.03-0.02
	c-0.78-3.12-2.02-6.14-3.72-8.97c-0.01-0.01-0.01-0.02,0-0.03l7.14-9.04c2.11-2.67,1.89-6.5-0.52-8.91l0,0
	c-2.41-2.41-6.24-2.63-8.91-0.52l-9.04,7.14c-0.01,0.01-0.02,0.01-0.03,0c-2.83-1.7-5.85-2.94-8.97-3.71
	c-0.01,0-0.02-0.01-0.02-0.03L56.15,5.93C55.75,2.55,52.88,0,49.48,0l0,0c-3.41,0-6.27,2.55-6.67,5.93l-1.35,11.44
	c0,0.01-0.01,0.02-0.02,0.03c-3.12,0.78-6.14,2.02-8.97,3.72c-0.01,0.01-0.02,0.01-0.03,0l-9.04-7.14c-2.67-2.11-6.5-1.89-8.91,0.52
	l0,0c-2.41,2.41-2.63,6.24-0.52,8.91l7.14,9.04c0.01,0.01,0.01,0.02,0,0.03c-1.7,2.83-2.94,5.85-3.71,8.97
	c0,0.01-0.01,0.02-0.03,0.02L5.93,42.82C2.55,43.22,0,46.09,0,49.49l0,0c0,3.41,2.55,6.27,5.93,6.67l11.44,1.35
	c0.01,0,0.02,0.01,0.03,0.02c0.78,3.12,2.02,6.14,3.72,8.97c0.01,0.01,0.01,0.02,0,0.03l-7.14,9.04c-2.11,2.67-1.89,6.5,0.52,8.91
	l0,0c2.41,2.41,6.24,2.63,8.91,0.52l9.04-7.14c0.01-0.01,0.02-0.01,0.03,0c2.83,1.7,5.85,2.94,8.97,3.71c0.01,0,0.02,0.01,0.02,0.03
	l1.35,11.44c0.4,3.38,3.27,5.93,6.67,5.93l0,0c3.41,0,6.27-2.55,6.67-5.93l1.35-11.44c0-0.01,0.01-0.02,0.02-0.03
	c3.12-0.78,6.14-2.02,8.97-3.72c0.01-0.01,0.02-0.01,0.03,0l9.04,7.14c2.67,2.11,6.5,1.89,8.91-0.52l0,0
	c2.41-2.41,2.63-6.24,0.52-8.91l-7.14-9.04c-0.01-0.01-0.01-0.02,0-0.03c1.7-2.83,2.94-5.85,3.71-8.97c0-0.01,0.01-0.02,0.03-0.02
	l11.44-1.35C96.42,55.75,98.97,52.88,98.97,49.48z M62.89,59.79c-6.84,8.81-20,8.81-26.84,0c-4.66-6-4.66-14.61,0-20.62
	c6.84-8.81,20-8.81,26.84,0C67.55,45.17,67.55,53.78,62.89,59.79z"/>
</svg>
