<?xml version="1.0" encoding="utf-8"?>
<!-- Generator: Adobe Illustrator 23.0.3, SVG Export Plug-In . SVG Version: 6.00 Build 0)  -->
<svg version="1.1" id="Layer_1" xmlns="http://www.w3.org/2000/svg" xmlns:xlink="http://www.w3.org/1999/xlink" x="0px" y="0px"
	 viewBox="0 0 22 22" style="enable-background:new 0 0 22 22;" xml:space="preserve">
<path id="settings_filled_1_" d="M22,11L22,11c0-0.76-0.57-1.39-1.32-1.48l-2.54-0.3c0,0,0,0-0.01,0c-0.17-0.69-0.45-1.36-0.83-1.99
	c0,0,0,0,0-0.01l1.59-2.01c0.47-0.59,0.42-1.44-0.12-1.98l0,0c-0.54-0.54-1.39-0.58-1.98-0.12l-2.01,1.59c0,0,0,0-0.01,0
	c-0.63-0.38-1.3-0.65-1.99-0.82c0,0,0,0,0-0.01l-0.3-2.54C12.39,0.57,11.75,0,11,0l0,0c-0.76,0-1.39,0.57-1.48,1.32l-0.3,2.54
	c0,0,0,0,0,0.01C8.52,4.04,7.85,4.32,7.22,4.69c0,0,0,0-0.01,0L5.2,3.11C4.61,2.64,3.76,2.69,3.22,3.22l0,0
	C2.69,3.76,2.64,4.61,3.11,5.2l1.59,2.01c0,0,0,0,0,0.01c-0.38,0.63-0.65,1.3-0.82,1.99c0,0,0,0-0.01,0l-2.54,0.3
	C0.57,9.61,0,10.25,0,11l0,0c0,0.76,0.57,1.39,1.32,1.48l2.54,0.3c0,0,0,0,0.01,0c0.17,0.69,0.45,1.36,0.83,1.99c0,0,0,0,0,0.01
	L3.11,16.8c-0.47,0.59-0.42,1.44,0.12,1.98l0,0c0.54,0.54,1.39,0.58,1.98,0.12l2.01-1.59c0,0,0,0,0.01,0
	c0.63,0.38,1.3,0.65,1.99,0.82c0,0,0,0,0,0.01l0.3,2.54C9.61,21.43,10.25,22,11,22l0,0c0.76,0,1.39-0.57,1.48-1.32l0.3-2.54
	c0,0,0,0,0-0.01c0.69-0.17,1.36-0.45,1.99-0.83c0,0,0,0,0.01,0l2.01,1.59c0.59,0.47,1.44,0.42,1.98-0.12l0,0
	c0.54-0.54,0.58-1.39,0.12-1.98l-1.59-2.01c0,0,0,0,0-0.01c0.38-0.63,0.65-1.3,0.82-1.99c0,0,0,0,0.01,0l2.54-0.3
	C21.43,12.39,22,11.75,22,11z M13.98,13.29c-1.52,1.96-4.45,1.96-5.97,0c-1.04-1.33-1.04-3.25,0-4.58c1.52-1.96,4.45-1.96,5.97,0
	C15.02,10.04,15.02,11.95,13.98,13.29z"/>
</svg>
