<?xml version="1.0" encoding="UTF-8"?>
<svg width="26.34" height="26.48" fill="none" version="1.1" viewBox="0 0 26.34 26.48" xmlns="http://www.w3.org/2000/svg" xmlns:cc="http://creativecommons.org/ns#" xmlns:dc="http://purl.org/dc/elements/1.1/" xmlns:rdf="http://www.w3.org/1999/02/22-rdf-syntax-ns#">
 <metadata>
  <rdf:RDF>
   <cc:Work rdf:about="">
    <dc:format>image/svg+xml</dc:format>
    <dc:type rdf:resource="http://purl.org/dc/dcmitype/StillImage"/>
    <dc:title/>
   </cc:Work>
  </rdf:RDF>
 </metadata>
 <path d="m25.675 11.57c0.4076 0.4141 0.6449 0.966 0.6651 1.5466v0.1238c0.0042 0.3038-0.0527 0.6053-0.167 0.8868s-0.2839 0.5372-0.4987 0.752c-0.2149 0.2149-0.4706 0.3844-0.752 0.4988-0.2815 0.1143-0.5831 0.1711-0.8869 0.1669-0.3355 8e-4 -0.6656-0.0844-0.9589-0.2474-0.3766-0.0257-0.747-0.1092-1.0982-0.2475-0.2256 1.0915-0.6334 2.1373-1.2063 3.0934 0.3383 0.1098 0.6351 0.3202 0.8506 0.6032h0.1237c0.2959 0.1271 0.5763 0.2879 0.8353 0.4794 0.2297 0.2182 0.4127 0.4809 0.5378 0.7721 0.125 0.2911 0.1894 0.6047 0.1894 0.9216 0 0.3168-0.0644 0.6304-0.1894 0.9216-0.1251 0.2911-0.3081 0.5538-0.5378 0.772-0.4755 0.3895-1.0713 0.6024-1.686 0.6024s-1.2103-0.2129-1.6858-0.6024c-0.1975-0.2634-0.3636-0.5489-0.495-0.8507 0 0 0-0.1237-0.1082-0.1237-0.1366-0.0967-0.2512-0.221-0.3365-0.3649s-0.1393-0.3042-0.1585-0.4703c-0.9266 0.5763-1.9476 0.9847-3.016 1.2064 0.1319 0.3478 0.2153 0.7121 0.2475 1.0827 0.1498 0.3031 0.229 0.6362 0.2319 0.9744 0.0075 0.6273-0.2313 1.2326-0.665 1.6859-0.1939 0.2211-0.4312 0.3999-0.6974 0.525-0.2661 0.1251-0.5553 0.1938-0.8493 0.2019-0.3179-7e-4 -0.6324-0.0654-0.9247-0.1903s-0.5564-0.3074-0.7766-0.5366c-0.2267-0.2181-0.4068-0.4801-0.5291-0.7699s-0.1843-0.6015-0.1824-0.916c0.0028-0.3382 0.0822-0.6713 0.232-0.9744 0.0245-0.3718 0.108-0.7372 0.2474-1.0827-1.0935-0.2189-2.1404-0.6272-3.0934-1.2064-0.13354 0.2927-0.29406 0.5723-0.47946 0.8352l-0.12377 0.1237c-0.04312 0.3351-0.2151 0.6403-0.47946 0.8507-0.22555 0.2094-0.4912 0.3709-0.78099 0.4745-0.28979 0.1037-0.59764 0.1475-0.90485 0.1287-0.30958 0.0191-0.61986-0.0244-0.91221-0.1281-0.29234-0.1036-0.5608-0.2652-0.7892-0.4751-0.22782-0.2193-0.40902-0.4824-0.5328-0.7734-0.12379-0.291-0.18758-0.604-0.18758-0.9202 0-0.3163 0.06379-0.6293 0.18758-0.9203 0.12378-0.291 0.30498-0.554 0.5328-0.7734 0.2904-0.2218 0.62143-0.3847 0.97442-0.4794 0-0.1702 0.35581-0.3712 0.85075-0.6032-0.58522-0.9517-0.99885-1.9987-1.2219-3.0934-0.30719 0.2451-0.68976 0.3762-1.0827 0.3712v-0.1237c-0.27587 0.2028-0.61935 0.2915-0.95893 0.2474-0.63061 3e-4 -1.2381-0.2371-1.7013-0.665-0.23125-0.2055-0.41581-0.4582-0.54121-0.741-0.1254-0.2828-0.18876-0.5892-0.18578-0.8985 9.9624e-4 -0.3156 0.06594-0.6276 0.19088-0.9174 0.12494-0.2897 0.30734-0.5512 0.53611-0.7685 0.22023-0.2292 0.48434-0.4117 0.77665-0.5366s0.60679-0.1897 0.92467-0.1904c0.33503 0.0032 0.66421 0.0882 0.95893 0.2475 0.37013 0.0252 0.73475 0.1034 1.0827 0.232 0.21231-1.0978 0.62669-2.1467 1.2219-3.0933-0.33511-0.04313-0.64032-0.21512-0.85075-0.47948h-0.12367c-0.30979-0.16124-0.59609-0.3642-0.85075-0.60321-0.43277-0.44917-0.6693-1.0519-0.6577-1.6755 0.01161-0.62362 0.27045-1.2171 0.71963-1.6499 0.44918-0.43277 1.0518-0.66938 1.6754-0.65777 0.62363 0.0116 1.2171 0.27046 1.6499 0.71964 0.23692 0.22641 0.40342 0.51644 0.47946 0.83521 0.30048 0.25161 0.512 0.59327 0.60323 0.97442 0.92503-0.65792 1.9796-1.1114 3.0934-1.3302-0.1612-0.29958-0.2461-0.63423-0.2474-0.97442v-0.10827c-0.2062-0.42346-0.2768-0.90022-0.202-1.3652 0.0747-0.46502 0.2911-0.89566 0.6195-1.2332 0.2128-0.21772 0.4683-0.38917 0.7504-0.50361 0.2821-0.11444 0.5848-0.16941 0.8891-0.16146 0.3109-0.0053511 0.6199 0.050637 0.9092 0.16476 0.2893 0.11412 0.5532 0.28413 0.7767 0.50032 0.2242 0.1913 0.405 0.42822 0.5304 0.69493s0.1923 0.55708 0.1965 0.85175c-0.0028 0.33814-0.0821 0.67126-0.2319 0.97442v0.10827c-0.0087 0.3392-0.0934 0.67214-0.2475 0.97441 1.056 0.3181 2.069 0.76483 3.016 1.3302 0.0142-0.18703 0.0653-0.36939 0.1502-0.53662 0.085-0.16723 0.2021-0.31601 0.3448-0.43779 0.1377-0.31908 0.3436-0.60415 0.6032-0.83521 0.1944-0.24043 0.4428-0.43159 0.725-0.55791 0.2822-0.12631 0.5902-0.18423 0.899-0.16904 0.2997-0.01337 0.599 0.03308 0.8805 0.13665s0.5395 0.26217 0.759 0.46656c0.2598 0.1993 0.4703 0.45571 0.6152 0.74939s0.2203 0.61676 0.2203 0.94423-0.0754 0.65054-0.2203 0.94422c-0.1449 0.29369-0.3554 0.55011-0.6152 0.7494-0.2362 0.26068-0.5265 0.46656-0.8507 0.60321-0.2883 0.22513-0.6201 0.38835-0.9744 0.47947 0.5779 0.96792 1.0252 2.0081 1.3301 3.0934 0.3032-0.1498 0.6363-0.2291 0.9745-0.232h0.1237c0.2933-0.1631 0.6234-0.2482 0.959-0.2475 0.3033 0.0194 0.5991 0.1024 0.8683 0.2436 0.2691 0.1412 0.5056 0.3375 0.6938 0.5762zm-9.0017 5.1968c0.5809-0.5759 1.0105-1.2864 1.2506-2.0684 0.2402-0.782 0.2833-1.6112 0.1257-2.4139-0.1576-0.8026-0.511-1.5539-1.029-2.1871-0.5179-0.63313-1.1843-1.1285-1.9399-1.442-0.7555-0.31354-1.5767-0.43555-2.3908-0.35517-0.814 0.08038-1.5956 0.36066-2.2753 0.81591-0.67959 0.45525-1.2362 1.0714-1.6203 1.7936-0.38412 0.7222-0.58387 1.5281-0.58143 2.3461 0.04947 1.2984 0.58636 2.5304 1.5036 3.4505 0.91727 0.9202 2.1476 1.4609 3.4458 1.5144 0.6529 0.0061 1.3004-0.1195 1.9036-0.3693 0.6033-0.2498 1.15-0.6187 1.6074-1.0846z" fill="#000"/>
</svg>
