<svg width="37" height="30" viewBox="0 0 37 30" fill="none" xmlns="http://www.w3.org/2000/svg">
<path d="M10.3409 3.26221C10.7191 2.78082 11.2492 2.44169 11.8448 2.30005C12.4404 2.15841 13.0664 2.22262 13.6209 2.48221C14.2351 2.66154 14.769 3.04655 15.1331 3.57271C15.4972 4.09887 15.6694 4.73419 15.6209 5.37221V5.92221C15.6209 6.28221 15.6209 6.75222 15.6209 7.33222C15.6209 7.91222 15.5709 8.51222 15.5409 9.16222C15.5109 9.81222 15.5409 10.4622 15.5409 11.1622V25.5022C15.6155 26.1362 15.481 26.7772 15.1579 27.3277C14.8348 27.8783 14.3407 28.3082 13.7509 28.5522C13.4438 28.6355 13.1286 28.6858 12.8109 28.7022C12.3636 28.7105 11.9203 28.6167 11.5148 28.4278C11.1093 28.2389 10.7523 27.96 10.4709 27.6122C8.47089 25.4222 7.08086 23.9122 6.25086 23.0822C6.17198 22.991 6.07558 22.9165 5.96735 22.8632C5.85913 22.81 5.74128 22.779 5.62086 22.7722H4.2909C3.6932 22.7796 3.09552 22.7529 2.50086 22.6922C2.16771 22.6685 1.84306 22.5763 1.54713 22.4214C1.25119 22.2666 0.990343 22.0524 0.780891 21.7922C0.326177 21.281 0.052082 20.6345 0.000862083 19.9522V11.1322C-0.0092129 10.7395 0.0691302 10.3496 0.23011 9.99131C0.39109 9.633 0.630579 9.31546 0.930855 9.06221C1.55785 8.51378 2.36813 8.22108 3.20087 8.24221H5.62086C5.74178 8.23302 5.85972 8.20003 5.96784 8.14511C6.07596 8.0902 6.17212 8.01444 6.25086 7.92221C7.2242 6.80221 8.58756 5.24888 10.3409 3.26221ZM9.24091 9.12221C8.88091 9.49221 8.3309 10.1222 7.6009 10.9222C7.38584 11.1843 7.07759 11.3527 6.74091 11.3922H2.9109V19.6722H6.82087C6.93434 19.6672 7.04769 19.6849 7.15418 19.7244C7.26067 19.7639 7.35813 19.8244 7.44086 19.9022L9.55091 22.2522C9.76808 22.5293 10.0054 22.79 10.2609 23.0322L11.2609 24.1222C11.4117 24.2603 11.543 24.4185 11.6509 24.5922L12.1209 25.0622L12.4309 25.6122V5.37221L11.2609 6.78221C10.3409 7.82221 9.71091 8.56221 9.24091 9.12221ZM15.5709 19.9022C15.1686 19.8681 14.7831 19.7255 14.4555 19.4895C14.1279 19.2535 13.8706 18.933 13.7109 18.5622C13.2004 17.571 12.9341 16.4722 12.9341 15.3572C12.9341 14.2423 13.2004 13.1434 13.7109 12.1522C13.853 11.7695 14.1087 11.4394 14.4439 11.2062C14.7791 10.9731 15.1776 10.8482 15.5859 10.8482C15.9942 10.8482 16.3927 10.9731 16.7279 11.2062C17.063 11.4394 17.3188 11.7695 17.4609 12.1522C17.9795 13.1409 18.2504 14.2407 18.2504 15.3572C18.2504 16.4737 17.9795 17.5735 17.4609 18.5622C17.3007 18.9386 17.0393 19.2631 16.7056 19.4997C16.3719 19.7363 15.9791 19.8756 15.5709 19.9022V19.9022ZM20.1809 9.67221C20.0232 9.34642 19.9922 8.97366 20.0938 8.62628C20.1954 8.2789 20.4225 7.98166 20.7309 7.79221C20.9097 7.6647 21.116 7.58107 21.3332 7.54807C21.5503 7.51506 21.7723 7.5336 21.9809 7.60221C22.201 7.65794 22.4027 7.77035 22.5659 7.92826C22.729 8.08616 22.848 8.28405 22.9109 8.50222C23.5341 10.0827 23.9541 11.7359 24.1609 13.4222C24.4946 16.4726 24.0934 19.5585 22.9909 22.4222C22.9088 22.6526 22.7764 22.8618 22.6035 23.0348C22.4305 23.2077 22.2213 23.3401 21.9909 23.4222C21.7492 23.4972 21.4921 23.508 21.2449 23.4537C20.9977 23.3993 20.7689 23.2817 20.5809 23.1122C20.3488 22.8991 20.1871 22.6204 20.1174 22.3131C20.0477 22.0058 20.0733 21.6846 20.1909 21.3922C20.5106 20.4732 20.7711 19.5346 20.9709 18.5822C20.9709 18.2122 21.0909 17.6922 21.1709 17.0122C21.2509 16.3322 21.3109 15.8422 21.3609 15.5322C21.2593 13.5313 20.8616 11.5565 20.1809 9.67221V9.67221ZM28.3809 25.2222C28.2965 25.5742 28.0975 25.8881 27.815 26.1144C27.5326 26.3408 27.1828 26.4666 26.8209 26.4722C26.6016 26.4666 26.3863 26.4119 26.1909 26.3122C25.9795 26.2513 25.7853 26.1419 25.6238 25.9925C25.4624 25.8432 25.3381 25.6582 25.2609 25.4522C25.1546 25.2324 25.0994 24.9914 25.0994 24.7472C25.0994 24.503 25.1546 24.262 25.2609 24.0422C26.4984 21.187 27.0859 18.0923 26.9809 14.9822C26.9255 12.238 26.3697 9.52691 25.3409 6.98221C25.2351 6.82532 25.1612 6.6491 25.1235 6.46364C25.0859 6.27818 25.0851 6.08712 25.1213 5.90137C25.1576 5.71562 25.23 5.53884 25.3346 5.38112C25.4392 5.2234 25.5739 5.08785 25.7309 4.98221C25.9286 4.805 26.1694 4.68303 26.4293 4.6286C26.6891 4.57418 26.9587 4.58922 27.2109 4.67221C27.4619 4.71235 27.6968 4.82153 27.8893 4.98754C28.0818 5.15354 28.2243 5.36984 28.3009 5.61222C29.0763 7.5246 29.6526 9.51174 30.0209 11.5422C30.1309 12.7922 30.2009 13.7122 30.2609 14.2822C30.3208 14.4841 30.3577 14.6921 30.3709 14.9022C30.3828 15.112 30.3828 15.3224 30.3709 15.5322C30.3318 18.8596 29.6563 22.1487 28.3809 25.2222ZM33.0709 29.1222C34.4616 26.5692 35.4499 23.8168 36.0009 20.9622C36.6094 17.6609 36.6635 14.2813 36.1609 10.9622C35.6869 7.39499 34.5145 3.95616 32.7109 0.842212C32.6296 0.647428 32.5043 0.474075 32.345 0.335666C32.1856 0.197256 31.9964 0.0975397 31.7922 0.0442991C31.5879 -0.0089415 31.3741 -0.0142696 31.1675 0.0287351C30.9608 0.0717399 30.767 0.161905 30.6009 0.292209C30.2413 0.497258 29.9758 0.83449 29.8609 1.23221C29.7942 1.42785 29.7766 1.63691 29.8097 1.84095C29.8428 2.04498 29.9257 2.23774 30.0509 2.40221C31.6624 5.19518 32.712 8.27635 33.1409 11.4722C33.5858 14.4122 33.5453 17.4053 33.0209 20.3322C32.5565 22.8758 31.6602 25.321 30.3709 27.5622C30.2678 27.7371 30.2038 27.9322 30.1831 28.1341C30.1623 28.336 30.1855 28.54 30.2509 28.7322C30.3063 28.9299 30.4002 29.1147 30.5272 29.276C30.6542 29.4373 30.8118 29.5719 30.9909 29.6722C31.2239 29.8212 31.4943 29.901 31.7709 29.9022C32.0352 29.8898 32.2922 29.8121 32.5191 29.676C32.746 29.5398 32.9356 29.3496 33.0709 29.1222Z" fill="black"/>
</svg>
