<?xml version="1.0" encoding="utf-8"?>
<!-- Generator: Adobe Illustrator 23.0.3, SVG Export Plug-In . SVG Version: 6.00 Build 0)  -->
<svg version="1.1" id="Layer_1" xmlns="http://www.w3.org/2000/svg" xmlns:xlink="http://www.w3.org/1999/xlink" x="0px" y="0px"
	 viewBox="0 0 123.76 64.27" style="enable-background:new 0 0 123.76 64.27;" xml:space="preserve">
<path d="M100.1,0H23.64C10.58,0,0,10.59,0,23.64v14.91c0,14.21,11.52,25.72,25.72,25.72h18.52c4.65,0,9.1-1.85,12.39-5.13l3.42-3.42
	c1.01-1.01,2.64-1.01,3.65,0l3.42,3.41c3.29,3.29,7.74,5.13,12.39,5.13h20.6c13.06,0,23.65-10.59,23.65-23.65V23.65
	C123.74,10.59,113.15,0,100.1,0z M51.31,39.11c-1.55,3.47-4.35,6.28-7.83,7.83c-15.3,6.81-30.12-8.01-23.31-23.31
	c1.54-3.47,4.35-6.28,7.83-7.83C43.3,8.99,58.12,23.81,51.31,39.11z M103.57,39.11c-1.55,3.47-4.35,6.28-7.83,7.83
	c-15.3,6.81-30.12-8-23.31-23.31c1.54-3.47,4.35-6.28,7.83-7.83C95.56,8.99,110.38,23.81,103.57,39.11z"/>
</svg>
