<?xml version="1.0" encoding="UTF-8"?>
<svg width="34.613" height="18.502" fill="none" version="1.1" viewBox="0 0 34.613 18.502" xmlns="http://www.w3.org/2000/svg" xmlns:cc="http://creativecommons.org/ns#" xmlns:dc="http://purl.org/dc/elements/1.1/" xmlns:rdf="http://www.w3.org/1999/02/22-rdf-syntax-ns#">
 <metadata>
  <rdf:RDF>
   <cc:Work rdf:about="">
    <dc:format>image/svg+xml</dc:format>
    <dc:type rdf:resource="http://purl.org/dc/dcmitype/StillImage"/>
    <dc:title/>
   </cc:Work>
  </rdf:RDF>
 </metadata>
 <path d="m27.112 18.501h-5.47c-1 0-2-0.86-3.13-2.57-0.3008-0.5432-0.6971-1.0276-1.17-1.43l-1.17 1.41c-1.25 1.68-2.37 2.59-3.36 2.59h-5.23c-0.99178 0.0181-1.9771-0.1628-2.8978-0.5321s-1.7579-0.9194-2.4622-1.6179c-0.72014-0.6727-1.2901-1.4898-1.6727-2.3979-0.38256-0.9082-0.56906-1.8869-0.54731-2.8721v-3.58c-0.017013-0.99193 0.17144-1.9767 0.5535-2.8922s0.94946-1.7422 1.6665-2.4278c0.70151-0.70433 1.5376-1.2603 2.4584-1.6348 0.92084-0.37452 1.9076-0.55993 2.9016-0.54519h19.53c0.9864-0.0053033 1.9641 0.18507 2.8764 0.5601s1.7412 0.92727 2.4387 1.6248 1.2498 1.5264 1.6248 2.4387c0.375 0.91233 0.5654 1.89 0.5601 2.8764v3.51c0.0183 0.9778-0.1639 1.949-0.5354 2.8536-0.3715 0.9047-0.9244 1.7237-1.6246 2.4064-0.6896 0.718-1.5196 1.2864-2.4382 1.6701-0.9186 0.3836-1.9064 0.5742-2.9018 0.5599zm-9.77-6c0.83 0 1.77 0.78 2.81 2.34 0.84 1.09 1.3 1.66 1.49 1.66h5.47c0.7244 0.0102 1.4433-0.1263 2.1136-0.4013 0.6702-0.275 1.2779-0.6827 1.7864-1.1987 0.5281-0.495 0.9469-1.0951 1.2293-1.7615 0.2824-0.6665 0.4223-1.3847 0.4107-2.1085v-3.53c0.0116-0.72376-0.1283-1.442-0.4107-2.1084-0.2824-0.66649-0.7012-1.2665-1.2293-1.7616-0.5085-0.51598-1.1162-0.92372-1.7864-1.1987-0.6703-0.27497-1.3892-0.41148-2.1136-0.40132h-19.53c-0.72598-0.01094-1.4466 0.12518-2.1186 0.40015-0.67198 0.27498-1.2813 0.68312-1.7914 1.1999-0.52617 0.49655-0.94359 1.0969-1.2259 1.763s-0.4233 1.3836-0.41412 2.107v3.51c-0.00918 0.7234 0.13183 1.4409 0.41412 2.107s0.69971 1.2665 1.2259 1.763c0.50835 0.5204 1.117 0.9322 1.789 1.2106 0.67205 0.2785 1.3936 0.4178 2.121 0.4094h5.23c0.36 0 0.94-0.6 1.72-1.8 1.09-1.51 2-2.26 2.73-2.26z" fill="#000"/>
</svg>
