<?xml version="1.0" encoding="utf-8"?>
<!-- Generator: Adobe Illustrator 23.0.3, SVG Export Plug-In . SVG Version: 6.00 Build 0)  -->
<svg version="1.1" id="Layer_1" xmlns="http://www.w3.org/2000/svg" xmlns:xlink="http://www.w3.org/1999/xlink" x="0px" y="0px"
	 viewBox="0 0 42 22" style="enable-background:new 0 0 42 22;" xml:space="preserve">
<path d="M33.97,0H8.02C3.59,0,0,3.63,0,8.09v5.1C0,18.06,3.91,22,8.73,22h6.29c1.58,0,3.09-0.63,4.2-1.76l1.16-1.17
	c0.34-0.35,0.9-0.35,1.24,0l1.16,1.17c1.12,1.13,2.63,1.76,4.2,1.76h6.99c4.43,0,8.03-3.63,8.03-8.1V8.1C41.99,3.63,38.4,0,33.97,0z
	 M17.41,13.39c-0.53,1.19-1.48,2.15-2.66,2.68C9.56,18.4,4.53,13.33,6.85,8.09C7.37,6.9,8.32,5.94,9.5,5.41
	C14.69,3.08,19.72,8.15,17.41,13.39z M35.15,13.39c-0.53,1.19-1.48,2.15-2.66,2.68c-5.19,2.33-10.22-2.74-7.91-7.98
	c0.52-1.19,1.48-2.15,2.66-2.68C32.43,3.08,37.46,8.15,35.15,13.39z"/>
</svg>
