<?xml version="1.0" encoding="utf-8"?>
<!-- Generator: Adobe Illustrator 23.0.4, SVG Export Plug-In . SVG Version: 6.00 Build 0)  -->
<svg version="1.1" id="Layer_1" xmlns="http://www.w3.org/2000/svg" xmlns:xlink="http://www.w3.org/1999/xlink" x="0px" y="0px"
	 viewBox="0 0 94 128" style="enable-background:new 0 0 94 128;" xml:space="preserve">
<path d="M47,74.3c25.3,0,45.9-16.6,45.9-37.2S72.3,0,47,0S1.1,16.6,1.1,37.2S21.6,74.3,47,74.3z M65.3,24.7c2.7,0,4.9,1.8,4.9,4
	s-2.2,4-4.9,4c-2.7,0-4.9-1.8-4.9-4S62.6,24.7,65.3,24.7z M36.4,43.5c2.6,2.6,6.5,4,10.6,4c4.1,0,8-1.5,10.6-4
	c0.9-0.9,2.6-1,3.7-0.3c1.1,0.7,1.3,2.1,0.3,3c-3.6,3.5-8.9,5.5-14.6,5.5c-5.7,0-11-2-14.6-5.5c-0.9-0.9-0.8-2.2,0.3-3
	C33.8,42.5,35.4,42.6,36.4,43.5z M28.6,24.7c2.7,0,4.9,1.8,4.9,4c0,2.2-2.2,4-4.9,4c-2.7,0-4.9-1.8-4.9-4
	C23.7,26.5,25.9,24.7,28.6,24.7z M47,101.1c21.2,0,39.4-10.9,46.8-26.4C83.2,87.1,66.2,95.1,47,95.1S10.7,87.1,0.2,74.7
	C7.6,90.2,25.7,101.1,47,101.1z M47,108.6c-19.2,0-36.3-8.1-46.8-20.4c7.4,15.5,25.5,26.4,46.8,26.4s39.4-10.9,46.8-26.4
	C83.2,100.5,66.2,108.6,47,108.6z M47,122c-19.2,0-36.3-8.1-46.8-20.4c1.8,3.9,4.4,7.4,7.4,10.6c0,0,0,0,0,0
	c0.4,0.4,0.7,0.7,1.1,1.1c0.1,0.1,0.1,0.1,0.2,0.2c1.1,1.1,2.3,2.1,3.5,3.1c0.1,0.1,0.1,0.1,0.2,0.2c0.4,0.3,0.7,0.6,1.1,0.8
	c0.2,0.1,0.3,0.2,0.5,0.3c0.4,0.3,0.7,0.5,1.1,0.8c0.1,0.1,0.3,0.2,0.5,0.3c0.7,0.4,1.4,0.9,2,1.3c0.2,0.1,0.4,0.2,0.6,0.4
	c0.3,0.2,0.7,0.4,1,0.6c0.3,0.1,0.5,0.3,0.8,0.4c0.3,0.2,0.7,0.3,1,0.5c0.3,0.2,0.6,0.3,1,0.5c0.3,0.2,0.7,0.3,1,0.5
	c0.5,0.2,1.1,0.5,1.6,0.7c0.3,0.1,0.6,0.2,0.9,0.3c0.4,0.1,0.8,0.3,1.2,0.4c0.3,0.1,0.6,0.2,0.9,0.3c0.4,0.1,0.9,0.3,1.3,0.4
	c0.2,0.1,0.5,0.2,0.7,0.2c0.7,0.2,1.3,0.4,2,0.6c0.2,0.1,0.4,0.1,0.6,0.2c0.5,0.1,1,0.2,1.5,0.4c0.3,0.1,0.5,0.1,0.8,0.2
	c0.5,0.1,1,0.2,1.5,0.3c0.2,0,0.5,0.1,0.7,0.1c0.7,0.1,1.5,0.2,2.2,0.3c0.1,0,0.3,0,0.4,0c0.6,0.1,1.3,0.1,1.9,0.2
	c0.2,0,0.5,0,0.7,0.1c0.6,0,1.1,0.1,1.7,0.1c0.2,0,0.5,0,0.7,0c0.8,0,1.6,0,2.3,0c0.8,0,1.6,0,2.3,0c0.2,0,0.5,0,0.7,0
	c0.6,0,1.1-0.1,1.7-0.1c0.2,0,0.5,0,0.7-0.1c0.6-0.1,1.3-0.1,1.9-0.2c0.1,0,0.3,0,0.4,0c0.7-0.1,1.5-0.2,2.2-0.3
	c0.2,0,0.5-0.1,0.7-0.1c0.5-0.1,1-0.2,1.5-0.3c0.3-0.1,0.5-0.1,0.8-0.2c0.5-0.1,1-0.2,1.5-0.4c0.2-0.1,0.4-0.1,0.6-0.2
	c0.7-0.2,1.3-0.4,2-0.6c0.2-0.1,0.5-0.2,0.7-0.2c0.4-0.1,0.9-0.3,1.3-0.4c0.3-0.1,0.6-0.2,0.9-0.3c0.4-0.1,0.8-0.3,1.2-0.4
	c0.3-0.1,0.6-0.2,0.9-0.3c0.6-0.2,1.1-0.5,1.6-0.7c0.3-0.2,0.7-0.3,1-0.5c0.3-0.2,0.6-0.3,1-0.5c0.3-0.2,0.7-0.3,1-0.5
	c0.3-0.1,0.5-0.3,0.8-0.4c0.3-0.2,0.7-0.4,1-0.6c0.2-0.1,0.4-0.2,0.6-0.4c0.7-0.4,1.4-0.8,2.1-1.3c0.1-0.1,0.3-0.2,0.4-0.3
	c0.4-0.2,0.7-0.5,1.1-0.8c0.2-0.1,0.3-0.2,0.5-0.3c0.4-0.3,0.7-0.5,1.1-0.8c0.1-0.1,0.1-0.1,0.2-0.2c1.2-1,2.4-2,3.5-3.1
	c0.1-0.1,0.1-0.1,0.2-0.2c0.4-0.4,0.7-0.7,1.1-1.1c0,0,0,0,0,0c3.1-3.2,5.6-6.8,7.4-10.6c0,0,0,0,0,0C83.2,113.9,66.2,122,47,122z
	 M62,80c-0.3,0.1-0.7,0.2-1,0.2c-4.5,1-9.2,1.6-14,1.6c-4.8,0-9.5-0.5-14-1.5c-0.4-0.1-0.8-0.2-1.2-0.3c0,0-0.1,0-0.1,0
	c-11-2.6-20.8-7.9-28.1-15c-0.3,0.4-0.5,0.7-0.8,1.1c8.6,13,25.1,21.7,44.1,21.7s35.6-8.8,44.1-21.7c-0.2-0.4-0.5-0.7-0.8-1.1
	c-7.3,7.1-17,12.4-28,15C62.2,79.9,62.1,80,62,80z"/>
</svg>
