<?xml version="1.0" encoding="utf-8"?>
<!-- Generator: Adobe Illustrator 21.1.0, SVG Export Plug-In . SVG Version: 6.00 Build 0)  -->
<svg version="1.1" id="Layer_1" xmlns="http://www.w3.org/2000/svg" xmlns:xlink="http://www.w3.org/1999/xlink" x="0px" y="0px"
	 viewBox="0 0 50 50" style="enable-background:new 0 0 50 50;" xml:space="preserve">
<path d="M45.7,29.4c-1.1-1.9-2.9-2.7-4.8-2.4c0-0.2,0.1-0.4,0.1-0.6V15c0-0.8-0.4-1.5-1.1-1.9l-10.1-6c-0.9-0.5-1.9-0.5-2.8,0
	l-9.9,6C16.4,13.5,16,14.2,16,15v9.8c-0.3,0,0.2,0-0.2,0c-3.8-0.1-7,1.3-9.8,3.9c-2.3,2.2-2.2,2-2.3,2.2c-0.5,0.5-0.5,1.3-0.1,1.7
	c0.4,0.4,1,0.5,1.6,0c0.2-0.1,0,0,2.3-2.2c1.9-1.8,4-3.1,6.6-3.2c4.7-0.2,5.5-0.1,10.2-0.1c0.9,0,1.7,0.6,2.1,1
	c0.6,0.7,0.7,2.1,0.3,3c-0.5,1.1-1.4,1.5-2.6,1.5c-0.2,0-7.3,0-8,0c-0.8,0-1.1,0.6-1.1,1.1c0,0.6,0.4,1.2,1.1,1.2c2.9,0,5.7,0,8.6,0
	c2.6,0,5.1-0.3,7.5-1.4c2.8-1.2,5.3-2.9,8.1-4.2c0.4-0.2,0.9-0.3,1.3-0.3c1.2,0.1,2,1,2.3,2.2c0.2,1.2-0.3,2.3-1.5,2.9
	c-4.1,2-7.9,4.1-12,6c-2.5,1.2-5.2,1.5-8,1.5c-4.2,0-12.7,0-12.8,0c-1.7,0.1-1.4,2.4,0,2.4c0.6,0,8.7-0.1,12.6,0
	c3.8,0,6.8-0.6,9.9-2.1c2.6-1.3,5.1-2.6,7.7-3.9c1.5-0.7,2.9-1.4,4.3-2.3C46.5,34.5,47,31.6,45.7,29.4z M20.8,13.4l6.6-4
	c0.6-0.4,1.4-0.4,2,0l9,5.3c0.3,0.2,0.5,0.6,0.5,1v10.6c0,0.8-0.4,1.4-1,1.8c0,0-4.5,2.6-4.9,2.8c-0.6,0.3-2.1,1-2.1,1
	c-0.7,0.3-1.6-0.1-1.6-1l0-8.5c0-0.4,0.2-0.8,0.6-1l6.5-3.8c0.5-0.3,0.7-0.9,0.4-1.4c-0.3-0.5-0.9-0.7-1.4-0.4L29,19.3
	c-0.2,0.1-0.4,0.2-0.6,0.2c-0.2,0-0.5-0.1-0.7-0.2l-7-4C20,14.9,20,13.8,20.8,13.4z"/>
</svg>
