<?xml version="1.0" encoding="utf-8"?>
<!-- Generator: Adobe Illustrator 19.2.0, SVG Export Plug-In . SVG Version: 6.00 Build 0)  -->
<svg version="1.1" id="Layer_1" xmlns="http://www.w3.org/2000/svg" xmlns:xlink="http://www.w3.org/1999/xlink" x="0px" y="0px"
	 viewBox="0 0 293 225.4" style="enable-background:new 0 0 293 225.4;" xml:space="preserve">
<style type="text/css">
	.st0{fill:#EF3B4E;}
	.st1{fill:#FFFFFF;}
</style>
<polygon points="121.5,121.9 152,219 177.7,121.9 "/>
<polygon class="st0" points="119.2,119 149.7,216.1 175.4,119 "/>
<path d="M16.2,23.2H283c3.9,0,7.1,3.2,7.1,7.1V88c0,3.9-3.2,7.1-7.1,7.1H16.2c-3.9,0-7.1-3.2-7.1-7.1V30.3
	C9.1,26.4,12.3,23.2,16.2,23.2z"/>
<path class="st0" d="M13.9,20.3h266.8c3.9,0,7.1,3.2,7.1,7.1v57.7c0,3.9-3.2,7.1-7.1,7.1H13.9c-3.9,0-7.1-3.2-7.1-7.1V27.4
	C6.8,23.5,10,20.3,13.9,20.3z"/>
<path d="M40,79.8v-41h8v41H40z"/>
<path d="M85.6,75.2c-2.8,3.1-6.7,4.9-10.9,4.9c-2.6-0.1-5.2-0.8-7.5-2c-2.1-1.1-4-2.6-5.6-4.3c-1.7-2-3.1-4.3-4-6.7
	c-1.2-2.6-1.8-5.4-1.9-8.2c0-2.6,0.6-5.3,1.5-7.7c1-2.5,2.5-4.7,4.4-6.6c1.6-1.8,3.6-3.3,5.8-4.4c5.6-2.5,12-2.2,17.4,0.8
	c2.5,1.6,4.5,3.9,5.8,6.6l-6,4.4c-0.8-1.9-2-3.5-3.7-4.7c-1.7-1.1-3.7-1.6-5.8-1.6c-1.6,0-3.2,0.3-4.6,1.1c-1.4,0.7-2.5,1.8-3.5,3
	c-1,1.3-1.7,2.8-2.2,4.4c-0.5,1.7-0.8,3.5-0.8,5.3c0,1.8,0.3,3.7,0.9,5.4c0.5,1.6,1.3,3.1,2.4,4.3c1,1.2,2.3,2.2,3.7,2.9
	c1.4,0.7,3,1.1,4.6,1.1c4-0.2,7.7-2.2,10-5.5v-2.9h-8.3v-5.8h14.8v21h-6.6V75.2z"/>
<path d="M108.4,53.5v26.3h-8.3V38.7h6.2l21.4,27V38.8h8v41h-6.2L108.4,53.5z"/>
<path d="M163.1,80.1c-2.8-0.1-5.5-0.7-7.9-2c-2.4-1.1-4.5-2.7-6.2-4.7c-1.7-2-3.1-4.2-4-6.7c-0.9-2.5-1.4-5.1-1.3-7.7
	c0-5.4,2-10.6,5.6-14.6c1.7-1.9,3.8-3.5,6.2-4.6c2.4-1.2,5.1-1.8,7.8-1.7c2.7,0,5.5,0.6,7.9,1.8c2.4,1.2,4.5,2.8,6.2,4.8
	c3.4,4,5.3,9.1,5.3,14.4c0,2.7-0.5,5.3-1.4,7.8c-0.9,2.4-2.3,4.6-4,6.6c-1.7,1.9-3.8,3.4-6.2,4.5C168.5,79.3,165.8,80,163.1,80.1z
	 M151.7,59.3c0,1.7,0.3,3.5,0.8,5.1c0.5,1.6,1.2,3.1,2.2,4.4c1,1.3,2.2,2.3,3.7,3.1c1.5,0.8,3.1,1.2,4.8,1.2
	c1.7,0.1,3.4-0.3,4.9-1.2c1.4-0.9,2.7-2.1,3.6-3.5c1-1.3,1.7-2.8,2.2-4.4c0.5-1.6,0.8-3.3,0.8-5c0-1.7-0.2-3.5-0.8-5.1
	c-0.5-1.6-1.3-3.1-2.3-4.4c-1.1-1.2-2.5-2.1-4-2.7c-3-1.5-6.6-1.5-9.6,0c-1.4,0.8-2.6,1.8-3.6,3.1c-1,1.3-1.7,2.8-2.2,4.4
	C151.8,55.9,151.6,57.6,151.7,59.3z"/>
<path d="M190.3,79.8V38.7h18.1c1.8,0,3.6,0.4,5.2,1.2c1.6,0.8,3,1.8,4.1,3.1c1.2,1.3,2.1,2.8,2.7,4.4c0.6,1.6,1,3.2,1,4.9
	c0,2.6-0.7,5.1-2,7.2c-1.2,2.1-3.1,3.8-5.4,4.7l9.6,15.4h-8.9L206.2,66h-7.9v13.8H190.3z M198.3,58.8h9.6c0.8,0.2,1.6,0.2,2.4,0
	c0.6-0.4,1.2-0.9,1.6-1.4c0.5-0.6,0.8-1.4,1.1-2.1c0.1-0.9,0.1-1.7,0-2.6c0.2-0.9,0.2-1.8,0-2.7c-0.3-0.8-0.7-1.5-1.3-2.1
	c-0.5-0.6-1.1-1-1.8-1.3c-0.6-0.3-1.3-0.5-2-0.5h-9.6L198.3,58.8z"/>
<path d="M259.2,72.8v6.9h-28.9V38.7h28v7h-19.6v9.6h17.3v6.7h-17.3v10.7H259.2z"/>
<path class="st1" d="M38.1,78.1V37.2h8v40.9H38.1z"/>
<path class="st1" d="M83.7,73.5c-2.9,3-6.9,4.6-11,4.5c-2.5,0.1-5-0.3-7.3-1.3c-2.3-1.1-4.4-2.7-6.1-4.6c-1.7-2-3.1-4.3-4-6.7
	c-1-2.5-1.5-5.2-1.4-7.9c-0.1-2.8,0.4-5.6,1.4-8.3c1-2.4,2.4-4.7,4.1-6.6c1.8-1.9,3.8-3.4,6.2-4.4c5.6-2.3,12-1.8,17.3,1.3
	c2.6,1.6,4.7,3.8,6,6.6l-6,4.4c-0.9-1.9-2.3-3.6-4.1-4.7c-1.7-1.1-3.7-1.6-5.8-1.6c-1.6,0-3.2,0.3-4.6,1.1c-1.4,0.7-2.5,1.8-3.5,3
	c-1,1.3-1.7,2.8-2.2,4.4c-0.6,1.6-1,3.3-1.1,5c0,1.8,0.3,3.7,0.9,5.4c0.5,1.6,1.3,3.1,2.4,4.3c1,1.2,2.3,2.2,3.7,2.9
	c1.4,0.7,3,1.1,4.6,1.1c4.2,0,8.2-2.1,10.6-5.5v-2.9h-8.3V57h15v21h-6.7V73.5z"/>
<path class="st1" d="M106.6,51.8v26.2h-8v-41h6.2l21.4,27V37.2h8v40.9h-6.5L106.6,51.8z"/>
<path class="st1" d="M161.2,78.1c-2.7,0-5.4-0.6-7.9-1.7c-2.4-1.1-4.5-2.7-6.2-4.7c-1.7-2-3.1-4.2-4-6.7c-0.9-2.5-1.4-5.1-1.3-7.7
	c0-5.4,2-10.6,5.6-14.6c1.7-1.9,3.8-3.5,6.2-4.6c2.4-1.2,5.1-1.8,7.8-1.7c2.7,0,5.5,0.6,7.9,1.8c2.4,1.2,4.5,2.8,6.2,4.8
	c3.4,4,5.3,9.1,5.3,14.4c0,2.7-0.5,5.3-1.4,7.8c-0.9,2.4-2.3,4.6-4,6.6c-1.7,1.9-3.8,3.4-6.2,4.5C166.7,77.4,164,78.1,161.2,78.1z
	 M149.9,57.6c0,1.7,0.3,3.5,0.8,5.1c0.5,1.6,1.2,3.1,2.2,4.4c1,1.3,2.2,2.3,3.7,3.1c1.5,0.8,3.1,1.2,4.8,1.2
	c1.7,0.1,3.4-0.3,4.9-1.2c1.4-0.8,2.6-1.9,3.6-3.2c1-1.3,1.7-2.8,2.2-4.4c0.5-1.6,0.8-3.3,0.8-5c0-1.7-0.2-3.5-0.8-5.1
	c-0.5-1.6-1.3-3.1-2.3-4.4c-1-1.2-2.2-2.3-3.6-3c-3-1.5-6.6-1.5-9.6,0c-1.4,0.8-2.6,1.8-3.6,3.1c-1,1.3-1.7,2.8-2.2,4.4
	C150.2,54.2,149.9,55.9,149.9,57.6z"/>
<path class="st1" d="M188.4,78.1v-41h17.7c1.8,0,3.6,0.4,5.2,1.2c1.7,0.7,3.2,1.8,4.4,3.2c1.2,1.3,2.1,2.8,2.7,4.4
	c0.6,1.6,1,3.2,1,4.9c0,2.6-0.7,5.1-2,7.2c-1.2,2.1-3.1,3.8-5.4,4.7l9.6,15.4h-8.8l-8.6-13.8h-7.8v13.7H188.4z M196.5,57.4h9.6
	c0.7,0,1.4-0.2,2-0.5c0.6-0.4,1.2-0.9,1.6-1.4c0.5-0.6,0.8-1.4,1.1-2.1c0.1-0.9,0.1-1.7,0-2.6c0.2-0.9,0.2-1.8,0-2.7
	c-0.3-0.8-0.7-1.5-1.3-2.1c-0.5-0.6-1.1-1-1.8-1.3c-0.5-0.3-1.1-0.4-1.6-0.5h-9.6V57.4z"/>
<path class="st1" d="M257.4,71.1v6.9h-28.9v-41h28v7h-19.6v9.6h17.5v6.7h-17.5v10.7H257.4z"/>
</svg>
