<?xml version="1.0" encoding="UTF-8" standalone="no"?>
<!-- Generator: Adobe Illustrator 21.1.0, SVG Export Plug-In . SVG Version: 6.00 Build 0)  -->

<svg
   xmlns:dc="http://purl.org/dc/elements/1.1/"
   xmlns:cc="http://creativecommons.org/ns#"
   xmlns:rdf="http://www.w3.org/1999/02/22-rdf-syntax-ns#"
   xmlns:svg="http://www.w3.org/2000/svg"
   xmlns="http://www.w3.org/2000/svg"
   xmlns:sodipodi="http://sodipodi.sourceforge.net/DTD/sodipodi-0.dtd"
   xmlns:inkscape="http://www.inkscape.org/namespaces/inkscape"
   version="1.1"
   id="Layer_1"
   x="0px"
   y="0px"
   viewBox="0 0 50 50"
   style="enable-background:new 0 0 50 50;"
   xml:space="preserve"
   inkscape:version="0.91 r13725"
   sodipodi:docname="lod-a.svg"><metadata
     id="metadata4241"><rdf:RDF><cc:Work
         rdf:about=""><dc:format>image/svg+xml</dc:format><dc:type
           rdf:resource="http://purl.org/dc/dcmitype/StillImage" /><dc:title></dc:title></cc:Work></rdf:RDF></metadata><defs
     id="defs4239" /><sodipodi:namedview
     pagecolor="#ffffff"
     bordercolor="#666666"
     borderopacity="1"
     objecttolerance="10"
     gridtolerance="10"
     guidetolerance="10"
     inkscape:pageopacity="0"
     inkscape:pageshadow="2"
     inkscape:window-width="2880"
     inkscape:window-height="1724"
     id="namedview4237"
     showgrid="false"
     inkscape:zoom="14.66"
     inkscape:cx="22.9339"
     inkscape:cy="22.463149"
     inkscape:window-x="0"
     inkscape:window-y="33"
     inkscape:window-maximized="1"
     inkscape:current-layer="Layer_1" /><path
     style="font-style:normal;font-variant:normal;font-weight:normal;font-stretch:normal;font-size:44.7959404px;line-height:125%;font-family:Sans;-inkscape-font-specification:'Sans, Normal';text-align:start;letter-spacing:0px;word-spacing:0px;writing-mode:lr-tb;text-anchor:start;fill:#000000;fill-opacity:1;stroke:none;stroke-width:1px;stroke-linecap:butt;stroke-linejoin:miter;stroke-opacity:1"
     d="M 0.17382812 0.10351562 L 0.17382812 26.466797 L 12.335938 26.466797 C 12.295785 25.916449 12.273438 25.352399 12.273438 24.773438 C 12.273438 24.325519 12.298233 23.895635 12.322266 23.464844 L 5.6464844 23.464844 L 5.6464844 0.10351562 L 0.17382812 0.10351562 z M 12.322266 23.464844 L 16.9375 23.464844 C 17.131223 20.269693 18.048402 17.696004 19.695312 15.748047 C 21.57624 13.54041 24.107908 12.4375 27.291016 12.4375 C 30.474123 12.4375 32.99176 13.54041 34.84375 15.748047 C 36.522116 17.733209 37.438284 20.371891 37.607422 23.652344 C 39.352093 23.851854 40.904899 24.187106 42.263672 24.662109 C 42.242096 19.950324 40.88586 16.190967 38.1875 13.386719 C 35.46739 10.546406 31.834178 9.125 27.291016 9.125 C 22.733385 9.125 19.088094 10.546406 16.353516 13.386719 C 13.889087 15.947857 12.553913 19.312575 12.322266 23.464844 z M 42.263672 24.662109 C 42.263846 24.700089 42.267578 24.735334 42.267578 24.773438 C 42.267578 25.968111 42.179749 27.101932 42.007812 28.175781 C 42.345297 28.39193 42.664811 28.621521 42.951172 28.876953 C 44.826172 30.525965 45.763672 33.130435 45.763672 36.689453 C 45.763672 40.272198 44.826172 42.893812 42.951172 44.554688 C 41.089193 46.215563 38.146485 47.046875 34.123047 47.046875 L 29.357422 47.046875 L 29.357422 40.285156 C 28.688843 40.354889 28.004565 40.402344 27.291016 40.402344 C 26.644531 40.402344 26.021914 40.365471 25.412109 40.308594 L 25.412109 50 L 33.517578 50 C 39.142578 50 43.283203 48.926571 45.939453 46.779297 C 48.595703 44.632023 49.923828 41.268723 49.923828 36.689453 C 49.923828 32.13391 48.602214 28.787755 45.958984 26.652344 C 44.948178 25.831197 43.714341 25.169238 42.263672 24.662109 z M 25.412109 40.308594 L 25.412109 36.939453 C 23.099 36.57794 21.188155 35.53144 19.695312 33.779297 C 18.116681 31.9121 17.214144 29.470287 16.970703 26.466797 L 12.335938 26.466797 C 12.626268 30.446204 13.963889 33.678709 16.353516 36.162109 C 18.700203 38.587982 21.722877 39.964492 25.412109 40.308594 z M 16.970703 26.466797 L 25.34375 26.466797 L 25.34375 23.464844 L 16.9375 23.464844 C 16.911675 23.890786 16.896484 24.325331 16.896484 24.773438 C 16.896484 25.358829 16.926317 25.91918 16.970703 26.466797 z M 25.412109 36.939453 C 26.013434 37.033433 26.634257 37.091797 27.291016 37.091797 C 28.01543 37.091797 28.701951 37.02645 29.357422 36.912109 L 29.357422 26.386719 L 34.123047 26.386719 C 35.374898 26.386719 36.510129 26.475933 37.552734 26.636719 C 37.606917 26.036054 37.644531 25.420213 37.644531 24.773438 C 37.644531 24.389533 37.626377 24.01998 37.607422 23.652344 C 36.34394 23.507859 34.983448 23.431641 33.517578 23.431641 L 25.412109 23.431641 L 25.412109 36.939453 z M 37.552734 26.636719 C 37.288908 29.561476 36.3922 31.947799 34.84375 33.779297 C 33.413238 35.484518 31.582121 36.524034 29.357422 36.912109 L 29.357422 40.285156 C 32.945677 39.910903 35.894611 38.544976 38.1875 36.162109 C 40.223734 34.035893 41.495873 31.373159 42.007812 28.175781 C 40.833664 27.423776 39.345701 26.913222 37.552734 26.636719 z "
     id="text4243" /></svg>