<?xml version="1.0" encoding="utf-8"?>
<!-- Generator: Adobe Illustrator 17.1.0, SVG Export Plug-In . SVG Version: 6.00 Build 0)  -->
<!DOCTYPE svg PUBLIC "-//W3C//DTD SVG 1.1//EN" "http://www.w3.org/Graphics/SVG/1.1/DTD/svg11.dtd">
<svg version="1.1" id="Layer_1" xmlns="http://www.w3.org/2000/svg" xmlns:xlink="http://www.w3.org/1999/xlink" x="0px" y="0px"
	 viewBox="0 0 20.6 25.5" enable-background="new 0 0 20.6 25.5" xml:space="preserve">
<g>
	<path fill="#0E7077" d="M18,11.8c0.3-1.1,0.1-2.1-0.3-2.2c-0.4-0.1-0.9,0.8-1.2,1.9c-0.1-1-0.1-1.8,0-2.4l0,0
		c-1.3-0.4-2.4-1.5-3.1-2.7c-0.6,1.1-2,2.3-3.8,3.4c-0.1,0-0.2,0.1-0.2,0.1c1,0.9,0.6,1.6-0.6,0.3c-0.3,0.2-0.6,0.3-0.9,0.4
		c0.2,0,0.4,0.1,0.7,0.1c0.9,0.3,1.1,0.7,1.3,1.4c-0.2-0.3-0.5-0.6-0.9-0.8c0,0.1,0.1,0.2,0.1,0.3c0,0.3-0.3,0.6-0.6,0.6
		c-0.3,0-0.6-0.3-0.6-0.6c0-0.2,0.1-0.4,0.3-0.5c-0.3,0-0.6,0-1.1,0c0.2,0.3,0.3,0.8,0.7,1.1c-0.5-0.2-0.9-0.7-1.2-1.2
		c-0.3,0.1-0.6,0.2-0.9,0.2c-0.6,0.1-1.1,0.1-1.5,0c0,0.1,0,0.3,0.1,0.4c0.3,1.1,0.8,2,1.2,1.9c0.2,0,0.3-0.3,0.4-0.7
		c0.1,0.7,0.2,1.5,0.3,2.4c0.2,1.8,4.2,4.8,4.2,4.8h1.5c0,0,4-3.1,4.2-4.8c0.1-0.9,0.2-1.8,0.3-2.4c0.1,0.4,0.2,0.6,0.4,0.7
		C17.2,13.8,17.7,12.9,18,11.8L18,11.8z M8.4,11.6c0,0.1,0.1,0.2,0.2,0.2c0.1,0,0.2-0.1,0.2-0.2c0-0.1-0.1-0.2-0.2-0.2
		C8.5,11.4,8.4,11.5,8.4,11.6L8.4,11.6z M7.8,1.1c3.4-1.7,6.4-1.4,6.9,0.7c0.7-0.5,1.3-0.6,2-0.3c2.6,1.4,3.8,9.8,3.9,18.8
		c0,1.8,0,3.3,0,4.7c-1.8-0.5-4.2-1.3-4.7-1.6c-1.3-0.6-1.6-3.1-1.6-5c-0.9,0.9-1.9,1.7-2.4,2h-1.7c0,0-1.1-0.8-2.1-1.8
		c-0.1-0.1-0.2-0.2-0.3-0.3c0,1.9-0.2,4.4-1.5,5.1c-0.7,0.3-4.7,1.6-6.2,2C0.3,13.9,1.7,4.2,7.8,1.1L7.8,1.1z M12,18
		C12.1,17.9,12.1,17.9,12,18c0-0.1,0-0.2,0-0.2c0,0-0.1,0.1-0.1,0.1C11.9,17.9,12,18,12,18L12,18z M11.8,18c0,0,0.1-0.1,0.1-0.1
		c0,0-0.1-0.1-0.1-0.1l-0.1,0c0,0-0.1,0.1-0.1,0.1C11.7,18.1,11.7,18.1,11.8,18L11.8,18L11.8,18z M11,17.4L11,17.4
		c0.5,0,1-0.3,0.6-0.3H11h-0.6C10,17.1,10.5,17.4,11,17.4L11,17.4z M12.6,16.6c0.4,0.1,0.8,0,0.7,0c-0.1,0.1-0.6,0.5-0.6,0.5l0,0.1
		c0,0.6-0.7,1.2-1.7,1.2c-0.9,0-1.7-0.5-1.7-1.2l0-0.1c0,0-0.5-0.4-0.6-0.5c0,0,0.3,0.2,0.7,0c1-0.3,1.4-0.1,1.6,0.1
		C11.2,16.5,11.6,16.3,12.6,16.6L12.6,16.6z M13.5,10.9c1-0.3,1.4,0.1,2.3-0.4c0,0-0.5,1.6-1.5,1.9c0.4-0.3,0.6-0.8,0.7-1.1
		c-0.4,0-0.7-0.1-1.1,0c0.2,0.1,0.3,0.3,0.3,0.5c0,0.3-0.3,0.6-0.6,0.6c-0.3,0-0.6-0.3-0.6-0.6c0-0.1,0-0.2,0.1-0.3
		c-0.4,0.2-0.7,0.5-0.9,0.8C12.5,11.6,12.7,11.2,13.5,10.9L13.5,10.9z M14.1,11.6c0-0.1-0.1-0.2-0.2-0.2c-0.1,0-0.2,0.1-0.2,0.2
		c0,0.1,0.1,0.2,0.2,0.2C14,11.8,14.1,11.7,14.1,11.6L14.1,11.6z M14,9c1.2-0.6,1.8,0.4,1.8,0.4s-1.2-0.8-2.1,0.3
		C11.8,12.2,11.3,10.5,14,9L14,9z"/>
</g>
</svg>
