<?xml version="1.0" encoding="utf-8"?>
<!-- Generator: Adobe Illustrator 17.0.2, SVG Export Plug-In . SVG Version: 6.00 Build 0)  -->
<!DOCTYPE svg PUBLIC "-//W3C//DTD SVG 1.1//EN" "http://www.w3.org/Graphics/SVG/1.1/DTD/svg11.dtd">
<svg version="1.1" id="Layer_1" xmlns="http://www.w3.org/2000/svg" xmlns:xlink="http://www.w3.org/1999/xlink" x="0px" y="0px"
	 width="17.186px" height="14px" viewBox="0 0 17.186 14" enable-background="new 0 0 17.186 14" xml:space="preserve">
<g>
	<path fill="#666666" d="M12,9.446v1.989C12,11.747,11.987,12,11.675,12H2.806C2.494,12,2,11.747,2,11.435V2.565
		C2,2.253,2.494,2,2.806,2H11V0H2.806C1.392,0,0,1.151,0,2.565v8.869C0,12.849,1.392,14,2.806,14h8.869
		C13.09,14,14,12.849,14,11.435V8.435L12,9.446z"/>
	<path fill="#333333" d="M9.568,10.138c-0.3,0.299-0.769,0.299-1.069,0L4.466,6.105c-0.3-0.301-0.3-0.768,0-1.069l1.032-1.032
		c0.3-0.299,0.769-0.299,1.069,0L9.033,6.47l6.068-6.068c0.3-0.299,0.769-0.299,1.069,0l1.032,1.032c0.3,0.301,0.3,0.768,0,1.069
		L9.568,10.138z"/>
</g>
</svg>
