<?xml version="1.0" encoding="utf-8"?>
<!-- Generator: Adobe Illustrator 17.1.0, SVG Export Plug-In . SVG Version: 6.00 Build 0)  -->
<!DOCTYPE svg PUBLIC "-//W3C//DTD SVG 1.1//EN" "http://www.w3.org/Graphics/SVG/1.1/DTD/svg11.dtd">
<svg version="1.1" id="Layer_1" xmlns="http://www.w3.org/2000/svg" xmlns:xlink="http://www.w3.org/1999/xlink" x="0px" y="0px"
	 viewBox="0 0 13.9 8.8" enable-background="new 0 0 13.9 8.8" xml:space="preserve">
<path fill="#666666" d="M13.6,2.6L7.8,8.4C7.6,8.6,7.3,8.8,7,8.8S6.4,8.6,6.2,8.4L0.3,2.6C0.1,2.4,0,2.1,0,1.8S0.1,1.2,0.3,1L1,0.3
	C1.2,0.1,1.5,0,1.8,0s0.6,0.1,0.8,0.3L7,4.7l4.3-4.3C11.5,0.1,11.8,0,12.1,0s0.6,0.1,0.8,0.3L13.6,1c0.2,0.2,0.3,0.5,0.3,0.8
	S13.8,2.4,13.6,2.6z"/>
</svg>
