<?xml version="1.0" encoding="utf-8"?>
<!-- Generator: Adobe Illustrator 17.0.2, SVG Export Plug-In . SVG Version: 6.00 Build 0)  -->
<!DOCTYPE svg PUBLIC "-//W3C//DTD SVG 1.1//EN" "http://www.w3.org/Graphics/SVG/1.1/DTD/svg11.dtd">
<svg version="1.1" id="Layer_1" xmlns="http://www.w3.org/2000/svg" xmlns:xlink="http://www.w3.org/1999/xlink" x="0px" y="0px"
	 width="12px" height="12px" viewBox="0 0 12 12" enable-background="new 0 0 12 12" xml:space="preserve">
<g>
	<path d="M10.716,11.573c-0.228,0-0.449-0.094-0.603-0.254L7.815,9.028C7.032,9.57,6.094,9.858,5.143,9.858
		c-2.606,0-4.716-2.11-4.716-4.716s2.11-4.716,4.716-4.716s4.716,2.11,4.716,4.716c0,0.951-0.288,1.889-0.831,2.673l2.297,2.297
		c0.154,0.154,0.248,0.375,0.248,0.603C11.573,11.185,11.185,11.573,10.716,11.573z M5.143,2.142c-1.655,0-3.001,1.346-3.001,3.001
		s1.346,3.001,3.001,3.001s3.001-1.346,3.001-3.001S6.797,2.142,5.143,2.142z"/>
</g>
</svg>
