<?xml version="1.0" encoding="utf-8"?>
<!-- Generator: Adobe Illustrator 17.0.2, SVG Export Plug-In . SVG Version: 6.00 Build 0)  -->
<!DOCTYPE svg PUBLIC "-//W3C//DTD SVG 1.1//EN" "http://www.w3.org/Graphics/SVG/1.1/DTD/svg11.dtd">
<svg version="1.1" id="Layer_1" xmlns="http://www.w3.org/2000/svg" xmlns:xlink="http://www.w3.org/1999/xlink" x="0px" y="0px"
	 width="17.186px" height="14px" viewBox="0 0 17.186 14" enable-background="new 0 0 17.186 14" xml:space="preserve">
<g>
	<path fill="#666666" d="M14,11.435C14,12.851,12.851,14,11.435,14H2.565C1.149,14,0,12.851,0,11.435V2.565C0,1.149,1.149,0,2.565,0
		h8.869C12.851,0,14,1.149,14,2.565V11.435z M12,2.565C12,2.253,11.747,2,11.435,2H2.565C2.253,2,2,2.253,2,2.565v8.869
		C2,11.747,2.253,12,2.565,12h8.869C11.747,12,12,11.747,12,11.435V2.565z"/>
</g>
</svg>
