<?xml version="1.0" encoding="utf-8"?>
<!-- Generator: Adobe Illustrator 17.1.0, SVG Export Plug-In . SVG Version: 6.00 Build 0)  -->
<!DOCTYPE svg PUBLIC "-//W3C//DTD SVG 1.1//EN" "http://www.w3.org/Graphics/SVG/1.1/DTD/svg11.dtd">
<svg version="1.1" id="Layer_1" xmlns="http://www.w3.org/2000/svg" xmlns:xlink="http://www.w3.org/1999/xlink" x="0px" y="0px"
	 viewBox="0 0 13.9 8.8" enable-background="new 0 0 13.9 8.8" xml:space="preserve">
<path fill="#666666" d="M13.6,7.8l-0.7,0.7c-0.2,0.2-0.5,0.3-0.8,0.3s-0.6-0.1-0.8-0.3L7,4.1L2.6,8.4C2.4,8.6,2.1,8.8,1.8,8.8
	S1.2,8.6,1,8.4L0.3,7.8C0.1,7.6,0,7.3,0,7s0.1-0.6,0.3-0.8l5.8-5.8C6.4,0.1,6.6,0,7,0s0.6,0.1,0.8,0.3l5.8,5.8
	c0.2,0.2,0.3,0.5,0.3,0.8S13.8,7.6,13.6,7.8z"/>
</svg>
