<?xml version="1.0" encoding="utf-8"?>
<!-- Generator: Adobe Illustrator 17.1.0, SVG Export Plug-In . SVG Version: 6.00 Build 0)  -->
<!DOCTYPE svg PUBLIC "-//W3C//DTD SVG 1.1//EN" "http://www.w3.org/Graphics/SVG/1.1/DTD/svg11.dtd">
<svg version="1.1" id="Layer_1" xmlns="http://www.w3.org/2000/svg" xmlns:xlink="http://www.w3.org/1999/xlink" x="0px" y="0px"
	 viewBox="0 0 19.2 19.9" enable-background="new 0 0 19.2 19.9" xml:space="preserve">
<path fill="#0E7077" d="M1.3,7.7C2.6,9,4.5,9.3,6.1,8.6l10.4,10.8c0.6,0.6,1.6,0.6,2.2,0c0.6-0.6,0.6-1.7,0-2.3L8.3,6.3
	c0.7-1.6,0.4-3.6-0.9-5c-1.1-1.1-2.6-1.5-4-1.2L4,0.8l0.7,0.7L6,2.8L5.3,5.5L4,5.9L2.7,6.2l-1-1L1.4,4.9L0.1,3.5
	C-0.2,5,0.2,6.5,1.3,7.7z M16.6,18.2c0-0.6,0.4-1,0.9-1c0.5,0,0.9,0.5,0.9,1c0,0.6-0.4,1-0.9,1C17,19.2,16.6,18.7,16.6,18.2z"/>
</svg>
