<?xml version="1.0" encoding="utf-8"?>
<!-- Generator: Adobe Illustrator 22.0.1, SVG Export Plug-In . SVG Version: 6.00 Build 0)  -->
<svg version="1.1" id="Layer_1" xmlns="http://www.w3.org/2000/svg" xmlns:xlink="http://www.w3.org/1999/xlink" x="0px" y="0px"
	 viewBox="0 0 96 96" style="enable-background:new 0 0 96 96;" xml:space="preserve">
<g>
	<path d="M78.3,31.3l-0.4-0.4c-0.8-0.8-2-1.2-3.1-1c-0.2,0-18.6,2.7-26.2,2.8c-0.2,0-0.3,0-0.4,0c-7.8,0-26.6-3-26.8-3.1
		c-1.5-0.2-3,0.4-3.7,1.7l-0.5,0.8c-0.6,0.9-0.7,2-0.4,3c0.3,1,1.1,1.8,2,2.3c3.4,1.5,14.9,6.3,18.2,6.7c0.6,0.1,1.7,0.2,1.8,2.2
		c0.2,2.4-0.8,14.1-2.2,19.7c-1.4,5.4-3.8,12.5-3.9,12.6c-0.7,1.9,0.3,4,2.2,4.7l2.3,0.8c0.9,0.3,2,0.3,2.8-0.2
		c0.9-0.4,1.6-1.2,1.9-2.2l6.4-19.7l6,20.3c0.3,1,1,1.8,1.9,2.3c0.5,0.2,1.1,0.4,1.6,0.4c0.5,0,0.9-0.1,1.3-0.2l2.1-0.8
		c1.7-0.7,2.7-2.5,2.2-4.3c0-0.1-1.8-7.4-3.3-13.5c-0.9-3.7-1.3-9.2-1.6-13.6c-0.2-2.7-0.3-5-0.6-6.8c-0.1-0.3-0.2-1.1,1.3-1.4
		c0.3,0,0.4-0.1,0.6-0.2l16.9-6.7c1.2-0.5,2-1.5,2.3-2.7C79.5,33.5,79.2,32.2,78.3,31.3z"/>
	<ellipse cx="48.7" cy="20" rx="9" ry="9"/>
</g>
</svg>
