<?xml version="1.0" encoding="utf-8"?>
<!-- Generator: Adobe Illustrator 22.0.1, SVG Export Plug-In . SVG Version: 6.00 Build 0)  -->
<svg version="1.1" id="Layer_1" xmlns="http://www.w3.org/2000/svg" xmlns:xlink="http://www.w3.org/1999/xlink" x="0px" y="0px"
	 viewBox="0 0 50 50" style="enable-background:new 0 0 50 50;" xml:space="preserve">
<style type="text/css">
	.st0{fill:#FFFFFF;}
</style>
<g>
	<ellipse class="st0" cx="26.1" cy="18.8" rx="4.6" ry="4.5"/>
	<path class="st0" d="M29.6,25.8h-6.7c-2.8,0-5,2.3-5,5v2c2,2.9,7.4,6.8,8.5,6.8c1.3,0,6.3-4,8.1-6.9v-1.9
		C34.5,28,32.4,25.8,29.6,25.8z"/>
	<path class="st0" d="M25.8,5.4C32.5,8,35.9,8.6,38.9,9.3C40,9.5,41,9.7,42.1,9.9c-0.3,4.9-0.3,9.8-0.3,12.5
		c0,8.7-3.6,15.3-11.3,20.4c-1.2,0.8-2.7,1.5-4.2,2.3c-0.1,0.1-0.2,0.1-0.3,0.2c-3.7-1.7-6.8-3.8-9.2-6.3c-2.7-2.8-4.6-6.1-5.7-10.1
		c-0.5-1.7-0.7-3.6-0.8-6.3c-0.1-3.6-0.3-7.8-0.7-12.9C11,9.5,12.2,9.3,13.5,9C16.6,8.3,20.1,7.6,25.8,5.4 M25.8,1.5
		c-0.2,0-0.4,0-0.6,0.1C15.7,5.4,12.6,4.9,6.6,6.8C6,7,5.8,7.3,5.8,7.9c0.4,5,0.7,10.2,0.8,14.9c0.1,2.4,0.3,4.9,0.9,7.2
		c2.6,9.4,9,15.4,17.9,19.2c0.2,0.1,0.4,0.1,0.6,0.1c0.2,0,0.5,0,0.7-0.1c2-1,4-1.9,5.8-3.1c8.4-5.7,13-13.4,12.9-23.6
		c0-3.8,0.1-9.8,0.5-15.2c-0.2-0.1-0.3-0.2-0.5-0.2c-6.2-2-8.1-1.1-19.3-5.5C26.1,1.5,26,1.5,25.8,1.5L25.8,1.5z"/>
</g>
</svg>
