<?xml version="1.0" encoding="utf-8"?>
<!-- Generator: Adobe Illustrator 19.2.0, SVG Export Plug-In . SVG Version: 6.00 Build 0)  -->
<svg version="1.1" xmlns="http://www.w3.org/2000/svg" xmlns:xlink="http://www.w3.org/1999/xlink" x="0px" y="0px"
	 viewBox="0 0 50 50" style="enable-background:new 0 0 50 50;" xml:space="preserve">
<style type="text/css">
	.st0{fill:#FFFFFF;}
</style>
<g id="Layer_2">
</g>
<g id="Layer_1">
	<g>
		<path class="st0" d="M23.2,24.1c-0.8,0.9-1.5,1.8-2.2,2.6c-0.1,0.2-0.1,0.5-0.1,0.7c0.1,1.7,0.2,3.4,0.2,5.1
			c0,0.8-0.4,1.2-1.1,1.3c-0.7,0.1-1.3-0.4-1.4-1.1c-0.2-2.2-0.3-4.3-0.5-6.5c0-0.3,0.1-0.7,0.4-1c1.1-1.5,2.3-3,3.4-4.5
			c0.6-0.7,1.6-1.6,2.6-1.6c0.3,0,1.1,0,1.4,0c0.8-0.1,1.3,0.1,1.9,0.9c1,1.2,1.5,2.3,2.4,3.6c0.7,1.1,1.4,1.6,2.9,1.9
			c1.1,0.2,2.2,0.5,3.3,0.8c0.3,0.1,0.6,0.2,0.8,0.3c0.5,0.3,0.7,0.8,0.6,1.3c-0.1,0.5-0.5,0.7-1,0.8c-0.4,0-0.9,0-1.3-0.1
			c-1.4-0.3-2.7-0.6-4.1-0.9c-0.8-0.2-1.5-0.6-2.1-1.1c-0.3-0.3-0.6-0.5-0.9-0.8c0,0.3,0,0.5,0,0.7c0,1.2,0,2.4,0,3.6
			c0,0.4-0.3,12.6-0.1,16.8c0,0.5-0.1,1-0.2,1.5c-0.2,0.7-0.6,1-1.4,1.1c-0.8,0-1.4-0.3-1.7-1c-0.2-0.5-0.3-1.1-0.4-1.6
			c-0.4-4.6-0.9-12.9-1.1-13.8c-0.1-0.8-0.2-1.1-0.3-2.1c-0.1-0.5-0.1-0.9-0.1-1.3C23.3,27.9,23.2,26.1,23.2,24.1z"/>
		<path class="st0" d="M28.2,14.6c0,1.4-1.1,2.6-2.6,2.6l0,0c-1.4,0-2.6-1.1-2.6-2.6v-1.6c0-1.4,1.1-2.6,2.6-2.6l0,0
			c1.4,0,2.6,1.1,2.6,2.6V14.6z"/>
	</g>
	<path class="st0" d="M8.4,38.9c2.8,3.2,6.4,5.5,10.5,6.7c0.6,0.2,1.3,0.1,1.7-0.3c0.4-0.3,0.6-0.6,0.7-1c0.2-0.5,0.1-1.1-0.2-1.5
		c-0.3-0.5-0.7-0.8-1.2-1c-1.6-0.5-3.2-1.2-4.6-2.1c-1.5-0.9-2.8-2.1-4-3.4c-0.4-0.4-0.9-0.7-1.5-0.7c-0.5,0-1,0.2-1.3,0.5
		c-0.4,0.4-0.6,0.8-0.7,1.4C7.8,38,8,38.5,8.4,38.9z"/>
	<path class="st0" d="M43.7,36.8c0.3-0.4,0.4-1,0.3-1.5c-0.1-0.5-0.4-1-0.8-1.3c-0.3-0.2-0.7-0.3-1.1-0.3c-0.7,0-1.3,0.3-1.7,0.9
		c-1.1,1.6-2.4,3-4,4.2c-1.2,0.9-2.5,1.7-3.9,2.3c-0.5,0.2-0.9,0.6-1.1,1.1c-0.2,0.5-0.2,1,0,1.5c0.4,1,1.6,1.5,2.6,1
		c1.7-0.7,3.3-1.7,4.8-2.8C40.7,40.4,42.4,38.7,43.7,36.8z"/>
	<path class="st0" d="M5.1,33.2c0.5,0.4,1.2,0.4,1.8,0.2c0.5-0.2,0.9-0.6,1.1-1.1c0.2-0.5,0.2-1,0-1.5c-0.1-0.4-0.4-0.7-0.7-0.9
		c-0.3-0.2-0.7-0.3-1.1-0.3c-0.2,0-0.5,0-0.7,0.1c-1,0.4-1.5,1.6-1.1,2.6C4.5,32.7,4.7,33,5.1,33.2z"/>
	<path class="st0" d="M45.4,27.3c-0.2,0-0.3-0.1-0.5-0.1c-0.9,0-1.7,0.6-1.9,1.5c-0.1,0.5-0.1,1.1,0.2,1.5c0.3,0.5,0.7,0.8,1.2,0.9
		c0.2,0,0.3,0.1,0.5,0.1c0.9,0,1.7-0.6,1.9-1.5c0.1-0.5,0.1-1.1-0.2-1.5C46.4,27.8,45.9,27.5,45.4,27.3z"/>
	<path class="st0" d="M8.6,12c-0.3-0.2-0.7-0.3-1-0.3c-0.3,0-0.7,0.1-1,0.3c-0.3,0.2-0.6,0.4-0.7,0.7c-2,3.5-3.1,7.4-3.1,11.4
		c0,0.2,0,0.4,0,0.6c0,0.5,0.2,1,0.6,1.4c0.4,0.4,0.9,0.6,1.4,0.6v0.4l0.1-0.4c0.5,0,1-0.2,1.4-0.6c0.4-0.4,0.6-0.9,0.5-1.4
		c0-0.2,0-0.4,0-0.5c0-3.3,0.9-6.6,2.6-9.4C9.9,13.8,9.6,12.6,8.6,12z"/>
	<path class="st0" d="M39.3,11.4c-0.1,0.5,0.1,1.1,0.4,1.5c1.1,1.4,2,3,2.6,4.6c0.6,1.6,1,3.2,1.2,4.9c0,0.5,0.3,1,0.6,1.3
		c0.4,0.4,1,0.6,1.5,0.5c0.5,0,1-0.3,1.4-0.7c0.3-0.4,0.5-0.9,0.5-1.5c-0.4-4.2-2-8.2-4.6-11.6c-0.4-0.5-1-0.8-1.6-0.8
		c-0.4,0-0.9,0.1-1.2,0.4C39.7,10.4,39.4,10.8,39.3,11.4z"/>
	<path class="st0" d="M12.2,6.3c-0.5,0-0.9,0.2-1.3,0.5c-0.4,0.3-0.7,0.8-0.7,1.4c-0.1,0.5,0.1,1.1,0.4,1.5c0.7,0.8,2,1,2.8,0.3
		c0.4-0.3,0.7-0.8,0.7-1.3c0.1-0.5-0.1-1.1-0.4-1.5C13.4,6.6,12.8,6.3,12.2,6.3z"/>
	<path class="st0" d="M37.2,5.2c-0.3-0.2-0.7-0.3-1.1-0.3c-0.7,0-1.3,0.3-1.7,0.9c-0.3,0.4-0.4,1-0.3,1.5c0.1,0.5,0.4,1,0.9,1.3
		C36,9.2,37.3,8.9,37.9,8C38.4,7.1,38.2,5.8,37.2,5.2z"/>
	<path class="st0" d="M16.5,4c-0.2,0.5-0.3,1-0.1,1.5c0.4,1,1.5,1.6,2.6,1.2c3.3-1.2,6.8-1.4,10.2-0.6c0.6,0.1,1.2,0,1.7-0.4
		c0.4-0.3,0.6-0.7,0.7-1.1c0.1-0.5,0-1.1-0.3-1.5c-0.3-0.5-0.7-0.8-1.3-0.9c-1.6-0.4-3.3-0.5-4.9-0.5c-2.6,0-5.1,0.4-7.5,1.3
		C17.1,3.2,16.7,3.6,16.5,4z"/>
</g>
</svg>
