<?xml version="1.0" encoding="utf-8"?>
<!-- Generator: Adobe Illustrator 19.2.0, SVG Export Plug-In . SVG Version: 6.00 Build 0)  -->
<svg version="1.1" id="Layer_1" xmlns="http://www.w3.org/2000/svg" xmlns:xlink="http://www.w3.org/1999/xlink" x="0px" y="0px"
	 viewBox="0 0 50 50" style="enable-background:new 0 0 50 50;" xml:space="preserve" opacity="0.33">
<style type="text/css">
	.st0{fill:#FFFFFF;}
</style>
<g id="Layer_2">
</g>
<g>
	<path class="st0" d="M20.7,29.7c-2.2,2.2-4.4,4.4-6.7,6.7c-0.5-0.5-1.1-1.1-1.6-1.6c2.2-2.2,4.4-4.4,6.7-6.7l-1.8-1.8
		c-2.6,2.5-5.1,5.1-7.7,7.6c-0.5,0.5-0.9,1.1-1,1.8C8.3,37.8,8,39.8,7.7,42c0.2,0,0.4,0,0.5,0c2-0.4,4-0.8,5.9-1.2
		c0.4-0.1,0.8-0.3,1.1-0.6c2.7-2.6,5.3-5.3,8-8L20.7,29.7z"/>
	<path class="st0" d="M31.1,11c0.8-0.8,1.8-1.8,2.7-2.7C34.2,8,34.6,8,34.9,8.4c1.6,1.6,3.1,3.1,4.7,4.7c0.4,0.4,0.4,0.8,0,1.2
		c-0.9,0.9-1.8,1.8-2.7,2.7C35,15,33.1,13,31.1,11z"/>
	<path class="st0" d="M33,25.9c-0.4,0.1-0.6,0-0.9-0.2c-0.6-0.6-1.3-1.3-1.9-1.9c1.5-1.5,3.1-3.1,4.6-4.6c0.1-0.1,0.3-0.3,0.3-0.3
		c-2-2-3.9-4-5.9-6.1c-0.1,0.2-0.2,0.3-0.4,0.5c-1.5,1.5-3,3-4.6,4.6c-2.8-2.8-5.6-5.6-8.4-8.4c-0.2-0.2-0.4-0.4-0.6-0.6
		c-1.5-1.2-3.5-1-4.8,0.4c-1.2,1.4-1.1,3.5,0.2,4.8c4.2,4.2,8.3,8.3,12.5,12.5c1.4,1.4,2.7,2.7,4.1,4.1c0.2,0.2,0.2,0.4,0.2,0.7
		c-0.2,0.6-0.3,1.2-0.3,1.9c-0.3,4,2.3,7.5,6.1,8.5c1.6,0.4,3.2,0.3,4.8-0.3c-0.1-0.2-0.3-0.2-0.4-0.4c-1.2-1.2-2.3-2.3-3.5-3.5
		c-0.8-0.9-0.9-2.1-0.1-3c0.6-0.7,1.3-1.3,2-2c0.9-0.8,2-0.8,2.9,0c0.2,0.2,0.3,0.3,0.5,0.5c1.2,1.2,2.3,2.3,3.5,3.5
		c0.1,0,0.1,0,0.2,0c0.1-0.7,0.3-1.3,0.3-2C43.9,28.7,38.5,24.3,33,25.9z M12.9,12.6c-0.6,0-1.2-0.5-1.2-1.2s0.5-1.2,1.2-1.2
		c0.6,0,1.2,0.6,1.2,1.2C14.1,12,13.6,12.6,12.9,12.6z M29.3,16.3c0.5,0.5,1,1.1,1.6,1.6c-1.1,1.1-2.2,2.2-3.3,3.3
		c-0.5-0.5-1.1-1.1-1.6-1.6C27.1,18.5,28.2,17.4,29.3,16.3z"/>
</g>
</svg>
