<?xml version="1.0" encoding="utf-8"?>
<!-- Generator: Adobe Illustrator 22.0.0, SVG Export Plug-In . SVG Version: 6.00 Build 0)  -->
<svg version="1.1" id="Layer_1" xmlns="http://www.w3.org/2000/svg" xmlns:xlink="http://www.w3.org/1999/xlink" x="0px" y="0px"
	 viewBox="0 0 100 100.8" style="enable-background:new 0 0 100 100.8;" xml:space="preserve">
<style type="text/css">
	.st0{fill:#FFFFFF;}
</style>
<path class="st0" d="M26.7,83.9c7.3,1.2,14.8,1.8,22.1,1.8c0.4,0,0.8,0,1.2,0c7.8-0.1,15.6-0.8,23.4-2.2l0,0
	c5.7-1.1,11.3-6.6,12.5-12.3C87.3,64.2,88,57,88,50s-0.7-14.2-2.1-21.2c-1.2-5.6-6.8-11.1-12.5-12.2c-7.7-1.4-15.6-2.2-23.4-2.2
	c-7.7-0.1-15.6,0.5-23.4,1.8c-5.7,1-11.4,6.5-12.6,12.3c-1.4,7.2-2.1,14.4-2.1,21.6s0.7,14.4,2.1,21.7
	C15.3,77.4,20.9,82.9,26.7,83.9z M20.9,29.8c0.6-2.9,4-6.3,6.9-6.8c7-1.1,14-1.7,21-1.7c0.4,0,0.8,0,1.2,0
	c7.4,0.1,14.8,0.8,22.1,2.1c2.9,0.6,6.4,3.9,6.9,6.7c1.3,6.6,1.9,13.3,1.9,19.9c0,6.6-0.6,13.3-1.9,19.8c-0.6,2.8-4,6.2-6.9,6.8
	c-7.3,1.3-14.8,2.1-22.1,2.1c-7.4,0.1-14.8-0.5-22.1-1.7c-2.9-0.5-6.3-3.9-6.9-6.7c-1.3-6.7-2-13.5-2-20.3
	C19,43.3,19.6,36.4,20.9,29.8z"/>
<path class="st0" d="M32.3,61.4c-0.5,1.3-0.1,2.8,0.9,3.8c0.3,0.3,7.2,6.6,15.9,6.6c0.8,0,1.7-0.1,2.6-0.2
	c9.8-1.5,15.5-11.1,15.8-11.5c0.7-1.2,0.6-2.8-0.2-3.9c-0.9-1.1-2.3-1.6-3.7-1.3c-9.2,2.5-18.6,3.9-28.1,4.2
	C34,59.1,32.8,60,32.3,61.4z"/>
<circle class="st0" cx="36.5" cy="42.8" r="9"/>
<path class="st0" d="M61.4,44.1h6.1c1.9,0,3.3-1.5,3.3-3.3c0-1.9-1.5-3.3-3.3-3.3h-6.1c-1.9,0-3.3,1.5-3.3,3.3
	C58.1,42.7,59.6,44.1,61.4,44.1z"/>
</svg>
