<?xml version="1.0" encoding="utf-8"?>
<!-- Generator: Adobe Illustrator 22.0.1, SVG Export Plug-In . SVG Version: 6.00 Build 0)  -->
<svg version="1.1" id="Layer_1" xmlns="http://www.w3.org/2000/svg" xmlns:xlink="http://www.w3.org/1999/xlink" x="0px" y="0px"
	 viewBox="0 0 100 100.8" style="enable-background:new 0 0 100 100.8;" xml:space="preserve">
<style type="text/css">
	.st0{fill:#FFFFFF;}
</style>
<path class="st0" d="M97.4,47.7c-3-2.7-7.3-2.6-10.4,0.2c-2,1.8-4.1,3.7-6.2,5.4c-1.5,1.2-3.1,1.4-4.8,0.6c-1.3-0.6-2-1.7-2.1-3.7
	c-0.2-2.7-0.4-5.2-0.5-7.9c-0.2-2.7-0.3-5.3-0.5-8l-0.1-1.7c-0.3-4.9-0.6-9.7-0.9-14.5c-0.2-1.9-1.1-3.7-2.8-5
	c-2.2-1.7-5-2.1-7.6-1.1c-2.3,0.9-4.1,3.1-4.5,5.6c-0.3,1.8-0.4,3.8-0.5,5.7c-0.1,0.5-0.1,0.9-0.1,1.4c-0.1,0.3-0.1,0.7-0.1,1
	c-0.2-0.9-0.4-1.7-0.6-2.6c-0.7-2.7-1.3-5.3-1.9-8.1c-0.8-3.5-3.4-5.9-6.5-6.2c-2.2-0.2-4.5,0.5-6.1,2c-1.5,1.5-2.3,3.7-2.1,6
	c0.3,3.5,0.7,6.8,1.2,10.2c0.1,1.1,0.3,2.2,0.4,3.3c-1-2.2-1.9-4.6-3.1-6.8c-1.3-3.1-4.6-4.7-8-4.1c-3.5,0.7-5.9,3.4-6,6.8
	c0,1.4,0.4,2.9,0.8,4.5c0.8,2.5,1.5,4.9,2.2,7.4c0,0.1,0.1,0.2,0.1,0.3c-2.6-2.8-6.1-3.3-9.3-1.4c-3.7,2-4.7,6.1-2.8,10.1
	c2.8,5.4,5.4,10.8,8.2,16.3c2.8,5.4,5.4,10.9,8.2,16.3c4.4,8.9,13,14.7,22.8,15.6c0.8,0.1,1.7,0.1,2.6,0.1c8.9,0,17.2-4.1,22.5-11.1
	C82.8,79,87,73.4,91,67.9c2.3-3.3,4.8-6.5,7.1-9.8C100.7,54.6,100.4,50.4,97.4,47.7z M36.4,59.3c1.5-0.7,2.1-2.2,1.5-4
	c-0.8-2.8-1.6-5.5-2.5-8.3c-0.8-2.8-1.6-5.5-2.5-8.3c-0.5-1.7-1-3.4-1.5-5.1c-0.5-1.7-1-3.5-1.5-5.2c-0.7-2.2,0.1-2.7,0.4-2.8
	c0.5-0.1,1.5-0.5,2.5,1.7c1.6,3.7,3.3,7.4,4.8,11c1.5,3.6,3.1,7.3,4.7,10.9c0.1,0.2,0.2,0.4,0.3,0.6c0.1,0.3,0.2,0.5,0.3,0.7
	c0.4,0.9,1.3,3,3.8,2.3c2.7-0.6,2.5-3.2,2.3-4.1l-2.9-23.1c-0.1-1.5-0.3-3-0.5-4.5l-0.5-4.2c-0.1-0.8,0-1.8,1.1-2
	c0.4-0.1,1.3-0.3,1.8,1.5c1.1,4.9,2.3,9.9,3.5,14.8c1.1,4.9,2.2,9.8,3.4,14.7l0.1,0.3c0.2,1,0.7,3.6,3.4,3.4
	c2.7-0.2,2.8-2.6,2.9-3.7v-0.4c0.3-4.4,0.6-8.7,0.8-13.4l0.7-12.8c0.1-1.3,0.2-1.7,0.8-2c0.5-0.2,0.9-0.2,1.3,0
	c0.5,0.3,0.8,0.9,0.9,1.7c0.1,1,0.2,2.1,0.2,3.3c0,0.6,0.1,1.2,0.1,1.7c0.5,7.9,0.9,15.9,1.4,23.9c0,1.4,0.1,2.8,0.4,4.2
	c0.7,3.4,3,6,6,7.3c3.2,1.2,6.7,0.8,9.6-1.1c1.4-1,2.8-2.1,4-3.3c0.5-0.4,0.9-0.8,1.5-1.3c0.6-0.7,1.3-1.2,2.1-1.8
	c0.6-0.4,1.5-0.5,1.9,0c0.5,0.5,0.7,1,0.2,1.8c-0.5,0.8-1.1,1.5-1.6,2.2c-0.5,0.7-1.1,1.5-1.6,2.2c-1.9,2.7-3.8,5.3-5.7,8
	c-3.5,4.8-7,9.8-10.7,14.6c-4.4,5.7-10.3,8.7-18.2,8.9c-8.9-0.6-15.3-4.8-19.1-12.3C33.3,71.3,30.1,65,27,58.8
	c-2.2-4.5-4.4-9-6.7-13.6c-0.2-0.4-0.4-0.9-0.5-1.4c0-0.7,0.2-1.1,0.8-1.3c0.8-0.3,1.3-0.2,1.8,0.5c1.1,1.5,2.2,3.2,3.3,4.8l6.2,9.4
	l0.2,0.2c0.1,0.1,0.1,0.1,0.2,0.2c0.1,0.1,0.2,0.3,0.3,0.4C34,59.9,35.4,59.7,36.4,59.3z"/>
<path class="st0" d="M78.3,22.7c1.4,0.2,2.8,1.1,3.3,2.6c0.6,1.3,0.4,2.9-0.3,4c-0.4,0.5-0.5,1.1-0.4,1.7c0.1,0.5,0.4,1,0.9,1.4
	l0.2,0.2c0.4,0.2,0.7,0.2,1.1,0.2c0.6,0,1.2-0.3,1.4-0.4l0.1-0.2l0.2-0.3c1.6-2.5,1.9-5.5,0.8-8.4c-1.1-2.9-3.6-4.8-6.6-5.3
	c-0.5-0.1-1.1,0-1.6,0.3c-0.4,0.4-0.8,0.9-0.9,1.5c-0.1,0.5,0,1.1,0.3,1.6C77.1,22.2,77.6,22.6,78.3,22.7z"/>
<path class="st0" d="M85.5,17.8c2.2,0.4,4.1,1.8,5,4c0.8,2.1,0.6,4.4-0.5,6.1c-0.7,1-0.5,2.3,0.5,3.2l0.2,0.1
	c0.4,0.2,0.7,0.2,1.1,0.2c0.9,0,1.6-0.5,1.8-1c2-3.1,2.5-6.9,1-10.3c-1.5-3.5-4.7-6-8.4-6.6c-0.6-0.2-1.2,0-1.7,0.3
	c-0.5,0.3-0.8,0.8-0.9,1.4c-0.1,0.5,0,1.1,0.3,1.6C84.3,17.3,84.9,17.7,85.5,17.8z"/>
<path class="st0" d="M15.3,33.3c0.1-0.6,0-1.2-0.4-1.8c-0.9-1.1-1.1-2.8-0.5-4.1c0.6-1.3,1.7-2.3,3.1-2.6c1.2-0.2,2-1.2,1.8-2.6
	v-0.2c-0.2-0.6-0.4-0.8-0.6-1c-0.4-0.4-1-0.6-1.2-0.7l-0.3-0.1l-0.3,0.1c-3,0.5-5.3,2.6-6.5,5.3c-1.2,2.9-0.8,5.9,0.9,8.5
	c0.3,0.6,0.8,0.9,1.4,1c0.1,0,0.2,0,0.3,0c0.5,0,0.9-0.2,1.4-0.4C14.9,34.4,15.2,34,15.3,33.3z"/>
<path class="st0" d="M9.8,20.5c0.6-0.1,1.2-0.4,1.5-0.9c0.4-0.4,0.5-1,0.4-1.6l-0.1-0.2c-0.1-0.5-0.3-0.7-0.6-1
	c-0.6-0.7-1.4-0.9-2.1-0.6c-3.6,0.6-6.5,3.1-8,6.5c-1.4,3.5-0.9,7.6,1.2,10.6c0.4,0.5,0.8,0.8,1.4,0.9c0.1,0,0.3,0,0.4,0
	c0.5,0,0.9-0.1,1.2-0.2c0.6-0.3,0.9-0.8,1-1.4c0.1-0.6-0.1-1.2-0.4-1.7c-1.3-1.9-1.5-4.2-0.7-6.3C6,22.3,7.7,20.9,9.8,20.5z"/>
</svg>
