<?xml version="1.0" encoding="utf-8"?>
<!-- Generator: Adobe Illustrator 22.1.0, SVG Export Plug-In . SVG Version: 6.00 Build 0)  -->
<svg version="1.1" id="Layer_1" xmlns="http://www.w3.org/2000/svg" xmlns:xlink="http://www.w3.org/1999/xlink" x="0px" y="0px"
	 viewBox="0 0 100 100.8" style="enable-background:new 0 0 100 100.8;" xml:space="preserve">
<style type="text/css">
	.st0{fill:#FFFFFF;}
</style>
<g>
	<g>
		<g>
			<path class="st0" d="M32.6,42.4c-1.3-4.2-2.5-8.4-3.8-12.6c-0.3-1.1-0.6-2.2-0.6-3.3c0.1-2.5,1.9-4.3,4.3-4.8
				c2.3-0.4,4.6,0.7,5.6,2.9c1.5,3.1,2.8,6.3,4.2,9.4c0.3,0.6,0.5,1.3,1.1,1.8c-0.2-2-0.5-4-0.7-5.9c-0.5-3.8-1.1-7.6-1.4-11.4
				c-0.3-3.5,2.5-6.1,5.9-5.7c2.2,0.2,4,1.9,4.6,4.5c1.1,4.6,2.1,9.1,3.2,13.7c0.1,0.4,0.2,0.8,0.6,1.2c0.1-2.3,0.3-4.7,0.4-7
				c0.1-2,0.1-4,0.5-5.9c0.7-4.1,5.3-5.7,8.6-3.2c1.1,0.9,1.8,2.1,1.9,3.5c0.3,4.5,0.6,9.1,0.9,13.7c0.3,4.5,0.5,8.9,0.8,13.4
				c0.1,1.8,0.8,3.3,2.5,4c1.8,0.8,3.5,0.6,5.1-0.7c1.8-1.5,3.5-3,5.3-4.6c2.3-2,5.3-2.1,7.4-0.2c2.1,1.9,2.3,4.8,0.5,7.3
				c-5.5,7.5-10.9,15-16.4,22.4C62.9,88.5,42,86.7,34.3,71.3c-4.6-9.2-9.2-18.5-13.8-27.7c-1.4-2.8-0.7-5.7,1.9-7.2
				c2.5-1.5,5.4-0.8,7.3,1.8c1,1.4,1.8,2.8,2.8,4.2C32.5,42.4,32.6,42.4,32.6,42.4z M54.4,81.2c6.8-0.2,12.2-2.7,16.2-7.9
				c4.8-6.3,9.3-12.7,14-19.1c0.9-1.3,1.9-2.5,2.8-3.8c0.6-1,0.6-2-0.3-2.9c-0.7-0.8-2.1-0.8-3-0.1c-0.7,0.5-1.3,1-1.9,1.6
				c-1.5,1.3-2.9,2.7-4.5,3.8c-4.5,3.1-10.5,0.7-11.6-4.5c-0.2-1.1-0.3-2.2-0.3-3.3c-0.4-6.8-0.8-13.6-1.2-20.3
				c-0.1-1.4-0.1-2.9-0.3-4.3c-0.2-2-1.8-3-3.4-2.2c-1.1,0.5-1.2,1.5-1.3,2.6c-0.2,3.6-0.4,7.2-0.6,10.8c-0.2,3.8-0.4,7.5-0.7,11.3
				c-0.1,1.1,0,2.4-1.5,2.5c-1.5,0.1-1.6-1.3-1.8-2.3c-1.9-8.3-3.9-16.7-5.8-25c-0.4-1.6-1.4-2.4-2.8-2.1c-1.3,0.2-2,1.3-1.8,2.9
				c0.3,2.4,0.6,4.9,0.9,7.3c0.8,6.5,1.6,13,2.4,19.5c0.1,1,0.1,2-1.2,2.3c-1.2,0.3-1.6-0.5-2-1.4c-0.2-0.4-0.3-0.7-0.5-1.1
				c-2.7-6.2-5.3-12.3-8-18.5c-0.8-1.9-2-2.5-3.4-2c-1.2,0.5-1.6,1.7-1,3.6c0.9,2.9,1.7,5.8,2.6,8.7c1.4,4.7,2.7,9.3,4.1,14
				c0.3,0.9,0.2,1.7-0.7,2.1c-0.9,0.4-1.5-0.1-2-0.8c-0.2-0.2-0.3-0.4-0.5-0.6c-1.8-2.7-3.6-5.4-5.4-8.1c-0.9-1.4-1.8-2.8-2.8-4.1
				c-0.7-0.9-1.6-1.2-2.7-0.8c-1,0.4-1.5,1.2-1.4,2.3c0.1,0.5,0.3,1.1,0.6,1.6c4.6,9.1,9,18.3,13.7,27.4
				C40.8,77.3,46.9,80.7,54.4,81.2z"/>
		</g>
	</g>
	<g>
		<path class="st0" d="M15.3,33.1c-0.3,0-0.7-0.2-0.8-0.5c-0.9-2.1-0.7-4.4,0.6-6.2c1.2-1.8,3.2-2.9,5.4-2.9l0,0
			c0.5,0,0.9,0.4,0.9,0.9s-0.4,0.9-0.9,0.9c-1.6,0-3,0.8-3.9,2.1c-0.9,1.4-1.1,3.1-0.4,4.5c0.2,0.4,0,1-0.5,1.2
			C15.6,33.1,15.4,33.1,15.3,33.1z"/>
	</g>
	<g>
		<path class="st0" d="M10.7,32c-0.3,0-0.7-0.2-0.8-0.5c-1.2-2.6-0.9-5.6,0.7-8c1.6-2.3,4.1-3.7,6.9-3.7l0,0c0.5,0,0.9,0.4,0.9,0.9
			s-0.4,0.9-0.9,0.9c-2.2,0-4.2,1.1-5.5,2.9c-1.3,1.9-1.5,4.3-0.6,6.3c0.2,0.4,0,1-0.5,1.2C11,31.9,10.9,32,10.7,32z"/>
	</g>
	<g>
		<path class="st0" d="M78.5,30.8c-0.2,0-0.3,0-0.5-0.1c-0.4-0.3-0.5-0.8-0.2-1.2c0.9-1.3,1-3,0.4-4.4c-0.6-1.5-2-2.6-3.6-2.8
			c-0.5-0.1-0.8-0.5-0.7-1c0.1-0.5,0.5-0.8,1-0.7c2.2,0.4,4,1.8,4.9,3.9c0.8,2,0.6,4.3-0.6,6.1C79,30.7,78.7,30.8,78.5,30.8z"/>
	</g>
	<g>
		<path class="st0" d="M83.2,30.5c-0.2,0-0.3,0-0.5-0.1c-0.4-0.3-0.5-0.8-0.2-1.2c1.2-1.8,1.4-4.1,0.6-6.2c-0.9-2.1-2.7-3.6-5-4
			c-0.5-0.1-0.8-0.5-0.7-1c0.1-0.5,0.5-0.8,1-0.7c2.8,0.5,5.2,2.4,6.3,5c1.1,2.6,0.8,5.5-0.8,7.8C83.8,30.4,83.5,30.5,83.2,30.5z"/>
	</g>
</g>
</svg>
