<?xml version="1.0" encoding="utf-8"?>
<!-- Generator: Adobe Illustrator 22.0.1, SVG Export Plug-In . SVG Version: 6.00 Build 0)  -->
<svg version="1.1" id="Layer_1" xmlns="http://www.w3.org/2000/svg" xmlns:xlink="http://www.w3.org/1999/xlink" x="0px" y="0px"
	 viewBox="0 0 100 100.8" style="enable-background:new 0 0 100 100.8;" xml:space="preserve">
<style type="text/css">
	.st0{fill:#FFFFFF;}
</style>
<g>
	<g>
		<g>
			<g>
				<g>
					<path class="st0" d="M30.3,45.6c-1.5-4.9-2.9-9.7-4.4-14.6c-0.3-1.3-0.7-2.5-0.7-3.8c0.1-2.9,2.2-5,5-5.6
						c2.7-0.5,5.3,0.8,6.5,3.4c1.7,3.6,3.2,7.3,4.9,10.9c0.3,0.7,0.6,1.5,1.3,2.1c-0.2-2.3-0.6-4.6-0.8-6.8
						c-0.6-4.4-1.3-8.8-1.6-13.2c-0.3-4.1,2.9-7.1,6.8-6.6c2.5,0.2,4.6,2.2,5.3,5.2c1.3,5.3,2.4,10.5,3.7,15.9
						c0.1,0.5,0.2,0.9,0.7,1.4c0.1-2.7,0.3-5.4,0.5-8.1c0.1-2.3,0.1-4.6,0.6-6.8c0.8-4.7,6.1-6.6,10-3.7c1.3,1,2.1,2.4,2.2,4.1
						c0.3,5.2,0.7,10.5,1,15.9c0.3,5.2,0.6,10.3,0.9,15.5c0.1,2.1,0.9,3.8,2.9,4.6c2.1,0.9,4.1,0.7,5.9-0.8C83,52.6,85,50.9,87,49
						c2.7-2.3,6.1-2.4,8.6-0.2c2.4,2.2,2.7,5.6,0.6,8.4c-6.4,8.7-12.6,17.4-19,25.9c-11.8,15.7-36,13.7-44.9-4.2
						C27,68.4,21.7,57.6,16.3,47c-1.6-3.2-0.8-6.6,2.2-8.3c2.9-1.7,6.2-0.9,8.4,2.1c1.2,1.6,2.1,3.2,3.2,4.9H30.3z M55.6,90.5
						c7.9-0.2,14.1-3.1,18.7-9.1c5.6-7.3,10.8-14.7,16.2-22.1c1-1.5,2.2-2.9,3.2-4.4c0.7-1.2,0.7-2.3-0.3-3.4
						c-0.8-0.9-2.4-0.9-3.5-0.1c-0.8,0.6-1.5,1.2-2.2,1.9c-1.7,1.5-3.4,3.1-5.2,4.4c-5.2,3.6-12.2,0.8-13.4-5.2
						c-0.2-1.3-0.3-2.5-0.3-3.8c-0.5-7.9-0.9-15.7-1.4-23.5c-0.1-1.6-0.1-3.4-0.3-5c-0.2-2.3-2.1-3.5-3.9-2.5
						c-1.3,0.6-1.4,1.7-1.5,3c-0.2,4.2-0.5,8.3-0.7,12.5c-0.2,4.4-0.5,8.7-0.8,13.1c-0.1,1.3,0,2.8-1.7,2.9
						c-1.7,0.1-1.9-1.5-2.1-2.7c-2.2-9.6-4.5-19.3-6.7-28.9c-0.5-1.9-1.6-2.8-3.2-2.4c-1.5,0.2-2.3,1.5-2.1,3.4
						c0.3,2.8,0.7,5.7,1,8.4c0.9,7.5,1.9,15,2.8,22.6c0.1,1.2,0.1,2.3-1.4,2.7c-1.4,0.3-1.9-0.6-2.3-1.6c-0.2-0.5-0.3-0.8-0.6-1.3
						c-3.1-7.2-6.1-14.2-9.3-21.4c-0.9-2.2-2.3-2.9-3.9-2.3c-1.4,0.6-1.9,2-1.2,4.2c1,3.4,2,6.7,3,10.1c1.6,5.4,3.1,10.8,4.7,16.2
						c0.3,1,0.2,2-0.8,2.4c-1,0.5-1.7-0.1-2.3-0.9c-0.2-0.2-0.3-0.5-0.6-0.7c-2.1-3.1-4.2-6.2-6.2-9.4c-1-1.6-2.1-3.2-3.2-4.7
						c-0.8-1-1.9-1.4-3.1-0.9c-1.2,0.5-1.7,1.4-1.6,2.7c0.1,0.6,0.3,1.3,0.7,1.9c5.3,10.5,10.4,21.2,15.9,31.7
						C39.8,86,46.9,89.9,55.6,90.5z"/>
					<path class="st0" d="M56.1,95c-0.8,0-1.7,0-2.5-0.1c-9.6-0.9-18-6.6-22.3-15.3c-2.7-5.3-5.3-10.7-8-16c-2.7-5.4-5.3-10.7-8-16
						c-1.9-3.9-0.9-7.9,2.7-9.9c3.1-1.8,6.6-1.3,9.1,1.4c0-0.1-0.1-0.2-0.1-0.3c-0.7-2.4-1.4-4.8-2.2-7.2C24.4,30,24,28.6,24,27.2
						c0.1-3.4,2.5-6,5.9-6.7c3.3-0.6,6.5,1,7.8,4c1.1,2.2,2,4.5,3,6.7c-0.1-1-0.3-2.1-0.4-3.2c-0.5-3.3-0.9-6.6-1.2-10
						c-0.2-2.3,0.6-4.4,2.1-5.9c1.6-1.5,3.8-2.2,6-2c3.1,0.3,5.6,2.7,6.4,6.1c0.6,2.7,1.2,5.3,1.9,7.9c0.2,0.8,0.4,1.6,0.6,2.5
						c0-0.3,0-0.7,0.1-1c0-0.5,0-0.9,0.1-1.4c0.1-1.9,0.2-3.8,0.5-5.6c0.4-2.5,2.1-4.6,4.4-5.5c2.5-1,5.2-0.6,7.4,1.1
						c1.6,1.3,2.5,3,2.7,4.9c0.3,4.7,0.6,9.4,0.9,14.2l0.1,1.7c0.2,2.6,0.3,5.2,0.5,7.8c0.1,2.6,0.3,5.1,0.5,7.7
						c0.1,1.9,0.8,3,2.1,3.6c1.7,0.8,3.2,0.6,4.7-0.6c2.1-1.7,4.1-3.5,6.1-5.3c3.1-2.7,7.3-2.8,10.2-0.2c2.9,2.6,3.2,6.7,0.7,10.1
						c-2.3,3.2-4.7,6.4-7,9.6c-3.9,5.4-8,10.9-12,16.4C72.9,91,64.8,95,56.1,95z M21.6,38.9c-0.8,0-1.7,0.2-2.5,0.7
						c-2.4,1.4-3.1,4-1.7,6.8c2.7,5.3,5.3,10.7,8,16c2.7,5.4,5.3,10.7,8,16c4,8,11.6,13.2,20.4,14c8.8,0.8,17.2-3,22.5-10
						c4-5.4,8.1-11,12-16.3c2.3-3.2,4.6-6.4,7-9.6c1.7-2.4,1.5-5.1-0.4-6.8c-2-1.8-4.8-1.7-7,0.2c-2,1.8-4,3.6-6.2,5.3
						c-2.2,1.8-4.6,2.1-7.2,1c-1.5-0.6-3.4-2.1-3.6-5.7c-0.2-2.6-0.3-5.2-0.5-7.8c-0.1-2.6-0.3-5.1-0.5-7.7l-0.1-1.7
						c-0.3-4.8-0.6-9.5-0.9-14.2c-0.1-1.2-0.7-2.3-1.8-3.2c-1.5-1.1-3.4-1.4-5-0.8c-1.6,0.6-2.6,2-2.9,3.7c-0.4,1.7-0.4,3.4-0.5,5.3
						c0,0.5,0,0.9-0.1,1.4c-0.1,1.3-0.1,2.7-0.2,4c-0.1,1.4-0.2,2.7-0.2,4L58,36.6l-1.9-1.9c-0.7-0.7-0.9-1.4-1-1.9
						c-0.6-2.7-1.2-5.3-1.9-7.9c-0.6-2.6-1.2-5.3-1.9-7.9c-0.6-2.5-2.2-4.1-4.3-4.3c-1.6-0.2-3.1,0.3-4.1,1.3c-1,1-1.5,2.4-1.4,4
						c0.3,3.3,0.7,6.6,1.2,9.8c0.2,1.1,0.3,2.2,0.5,3.3c0.1,1,0.2,2.1,0.4,3.1c0.2,1.2,0.3,2.5,0.4,3.7l0.3,2.9l-2.3-1.9
						c-0.8-0.6-1.1-1.4-1.4-2c-0.1-0.2-0.1-0.3-0.2-0.4c-0.6-1.4-1.2-2.7-1.8-4.1c-1-2.2-2-4.6-3.1-6.8c-0.9-2-3-3.1-5.2-2.7
						c-2.3,0.5-3.9,2.2-4,4.4c0,1.1,0.3,2.2,0.7,3.5c0.7,2.4,1.5,4.8,2.2,7.2c0.7,2.4,1.5,4.9,2.2,7.3l0.5,1.6h-2.4l-0.4-0.5
						c-0.6-0.8-1.1-1.7-1.6-2.5c-0.5-0.8-1-1.6-1.6-2.4C24.8,39.8,23.2,38.9,21.6,38.9z M55.5,91.7L55.5,91.7
						c-9.6-0.6-16.8-5.2-20.8-13.3c-3.2-6.1-6.3-12.4-9.3-18.5c-2.2-4.4-4.4-8.8-6.6-13.2c-0.5-0.8-0.7-1.7-0.8-2.2l0-0.1
						c-0.2-1.8,0.7-3.2,2.4-3.9c1.8-0.6,3.4-0.2,4.5,1.3c1.2,1.6,2.3,3.2,3.3,4.8l6.2,9.3c0.1,0.1,0.2,0.3,0.3,0.4
						c0.1,0.1,0.1,0.1,0.2,0.2l0.1,0.2c0.5,0.7,0.6,0.6,0.8,0.5c0.2-0.1,0.4-0.2,0.2-0.9c-0.8-2.8-1.6-5.5-2.4-8.2
						c-0.8-2.7-1.6-5.4-2.4-8.1c-0.5-1.7-1-3.4-1.5-5c-0.5-1.7-1-3.3-1.5-5c-1.2-3.9,0.9-5.2,1.8-5.6c1.2-0.4,3.9-0.9,5.5,3
						c1.6,3.6,3.1,7.2,4.7,10.8c1.5,3.5,3,7.1,4.6,10.6c0.1,0.2,0.2,0.4,0.3,0.6c0.1,0.2,0.2,0.4,0.3,0.6c0.5,1.1,0.6,1.1,0.9,1
						c0.4-0.1,0.6-0.1,0.5-1.4L44.1,27c-0.2-1.4-0.4-2.9-0.5-4.4L43,18.5c-0.3-2.5,0.9-4.4,3.1-4.7c2.2-0.5,4,0.8,4.6,3.3
						c1.1,4.8,2.2,9.7,3.4,14.5c1.1,4.8,2.3,9.7,3.4,14.5l0.1,0.4c0.3,1.4,0.4,1.4,0.7,1.3c0.4,0,0.5,0,0.6-1.3l0-0.5
						c0.3-4.3,0.6-8.4,0.8-13l0.7-12.5c0.1-1.4,0.3-3.2,2.2-4c1.1-0.6,2.4-0.6,3.5,0c1.2,0.7,2,1.9,2.1,3.5c0.2,1.1,0.2,2.2,0.3,3.4
						c0,0.6,0.1,1.1,0.1,1.6c0.5,7.8,0.9,15.6,1.4,23.5c0,1.3,0.1,2.5,0.3,3.7c0.5,2.4,2.1,4.4,4.4,5.3c2.4,0.9,4.9,0.6,7.1-0.9
						c1.3-0.9,2.4-1.9,3.6-3c0.5-0.4,1-0.9,1.5-1.3c0.7-0.7,1.4-1.3,2.3-1.9c1.5-1.2,3.9-1.1,5.1,0.3c1.3,1.3,1.5,3.1,0.5,4.8
						c-0.6,0.8-1.1,1.6-1.7,2.3c-0.5,0.7-1.1,1.4-1.6,2.2c-1.9,2.6-3.8,5.2-5.7,7.8c-3.4,4.7-7,9.6-10.6,14.4
						C70.5,88.3,64,91.4,55.5,91.7L55.5,91.7z M20.4,44.1c0.1,0.5,0.3,1,0.5,1.4c2.3,4.5,4.4,8.9,6.6,13.3c3,6.1,6.1,12.3,9.3,18.5
						c3.7,7.3,10,11.4,18.7,12c7.7-0.2,13.5-3.1,17.8-8.7c3.6-4.7,7.1-9.6,10.5-14.3c1.9-2.6,3.7-5.2,5.6-7.8
						c0.5-0.7,1.1-1.5,1.6-2.2c0.5-0.7,1.1-1.4,1.6-2.2c0.5-0.8,0.3-1.3-0.2-1.8c-0.4-0.5-1.3-0.4-1.9,0c-0.8,0.6-1.5,1.1-2.1,1.8
						c-0.6,0.5-1,0.9-1.5,1.3c-1.2,1.1-2.5,2.2-3.9,3.2c-2.8,1.9-6.3,2.3-9.4,1.1c-3-1.2-5.2-3.8-5.9-7.1c-0.3-1.4-0.4-2.7-0.4-4.1
						c-0.5-7.8-0.9-15.7-1.4-23.4c0-0.5-0.1-1.1-0.1-1.7c0-1.1-0.1-2.2-0.2-3.2c-0.1-0.8-0.4-1.4-0.9-1.7c-0.4-0.2-0.8-0.2-1.3,0
						c-0.6,0.3-0.7,0.7-0.8,2l-0.7,12.5c-0.2,4.6-0.5,8.8-0.8,13.1l0,0.4c-0.1,1.1-0.2,3.4-2.8,3.6c-2.6,0.2-3.1-2.3-3.3-3.3
						l-0.1-0.3c-1.1-4.8-2.2-9.6-3.3-14.4c-1.1-4.8-2.3-9.7-3.4-14.5c-0.5-1.8-1.4-1.6-1.8-1.5c-1.1,0.2-1.2,1.2-1.1,2l0.5,4.1
						c0.2,1.5,0.4,2.9,0.5,4.4l2.8,22.6c0.1,0.9,0.3,3.4-2.3,4c-2.4,0.6-3.3-1.4-3.7-2.3c-0.1-0.2-0.2-0.4-0.3-0.7
						c-0.1-0.2-0.2-0.4-0.3-0.6c-1.6-3.6-3.1-7.2-4.6-10.7c-1.5-3.6-3.1-7.2-4.7-10.8c-0.9-2.2-1.9-1.8-2.4-1.7
						c-0.3,0.1-1.1,0.5-0.4,2.7c0.5,1.7,1,3.4,1.5,5.1c0.5,1.7,1,3.3,1.5,5c0.8,2.7,1.6,5.4,2.4,8.1c0.8,2.7,1.6,5.4,2.4,8.1
						c0.6,1.7,0,3.2-1.5,3.9c-1,0.4-2.4,0.6-3.7-1.3c-0.1-0.1-0.2-0.3-0.3-0.4c-0.1-0.1-0.1-0.1-0.2-0.2l-0.2-0.2L26.2,48
						c-1-1.6-2.1-3.2-3.2-4.7c-0.5-0.7-1-0.8-1.8-0.5C20.6,43,20.4,43.4,20.4,44.1z"/>
				</g>
			</g>
		</g>
		<g>
			<g>
				<path class="st0" d="M83.4,32.1c-0.2,0-0.3,0-0.6-0.1c-0.5-0.3-0.6-0.9-0.2-1.4c1-1.5,1.2-3.5,0.5-5.1c-0.7-1.7-2.3-3-4.2-3.2
					c-0.6-0.1-0.9-0.6-0.8-1.2c0.1-0.6,0.6-0.9,1.2-0.8c2.5,0.5,4.6,2.1,5.7,4.5c0.9,2.3,0.7,5-0.7,7.1C84,32,83.7,32.1,83.4,32.1z"
					/>
				<path class="st0" d="M83.4,33.4c-0.4,0-0.7,0-1.1-0.2L82.1,33c-0.5-0.4-0.8-0.9-0.9-1.4c-0.1-0.6,0-1.2,0.4-1.7
					c0.7-1.1,0.9-2.6,0.3-3.9c-0.5-1.4-1.8-2.3-3.2-2.5c-0.7-0.1-1.2-0.5-1.5-1c-0.3-0.5-0.4-1.1-0.3-1.6c0.1-0.6,0.5-1.1,0.9-1.5
					c0.5-0.3,1.1-0.4,1.6-0.3c3,0.5,5.4,2.4,6.5,5.2c1.1,2.8,0.8,5.8-0.8,8.2l-0.2,0.3L84.8,33C84.6,33.1,84,33.4,83.4,33.4z
					 M79.1,21.5C79.1,21.5,79.1,21.5,79.1,21.5C79.1,21.5,79.1,21.5,79.1,21.5z"/>
			</g>
		</g>
		<g>
			<g>
				<path class="st0" d="M91,30.7c-0.2,0-0.3,0-0.6-0.1c-0.5-0.3-0.6-0.9-0.2-1.4c1.4-2.1,1.6-4.7,0.7-7.2c-1-2.4-3.1-4.2-5.8-4.6
					c-0.6-0.1-0.9-0.6-0.8-1.2c0.1-0.6,0.6-0.9,1.2-0.8c3.2,0.6,6,2.8,7.3,5.8c1.3,3,0.9,6.4-0.9,9C91.7,30.6,91.3,30.7,91,30.7z"/>
				<path class="st0" d="M91,32c-0.4,0-0.7,0-1.1-0.2l-0.2-0.1c-1-0.8-1.2-2.1-0.5-3.1c1.1-1.7,1.3-3.9,0.5-6
					c-0.9-2.1-2.7-3.5-4.9-3.9c-0.6-0.1-1.2-0.5-1.5-1c-0.3-0.5-0.4-1.1-0.3-1.6c0.1-0.6,0.4-1.1,0.9-1.4c0.5-0.3,1.1-0.5,1.7-0.3
					c3.6,0.6,6.7,3.1,8.2,6.5c1.4,3.3,1,7.1-1,10.1C92.6,31.5,91.9,32,91,32z M91.2,29.9C91.2,29.9,91.2,29.9,91.2,29.9
					C91.2,29.9,91.2,29.9,91.2,29.9z M85.2,16.7C85.2,16.7,85.2,16.7,85.2,16.7C85.2,16.7,85.2,16.7,85.2,16.7z"/>
			</g>
		</g>
	</g>
	<g>
		<g>
			<path class="st0" d="M17.4,22.7c0.2,0.2,0.2,0.2,0.3,0.5c0.1,0.6-0.2,1.1-0.8,1.1c-1.8,0.3-3.3,1.6-3.9,3.3
				c-0.7,1.7-0.5,3.8,0.7,5.2c0.3,0.5,0.2,1.1-0.2,1.4c-0.5,0.3-1.1,0.2-1.4-0.2c-1.5-2.1-1.8-4.7-0.8-7.2c1-2.3,3-4,5.5-4.5
				C16.9,22.4,17.2,22.5,17.4,22.7z"/>
			<path class="st0" d="M12.7,35.7c-0.1,0-0.2,0-0.3,0c-0.6-0.1-1.1-0.4-1.4-1c-1.7-2.5-2.1-5.5-0.9-8.3c1.2-2.7,3.5-4.7,6.4-5.2
				l0.3-0.1l0.3,0.1c0.2,0.1,0.8,0.3,1.2,0.7l0,0l-0.9,0.9l0.9-0.9c0.2,0.2,0.4,0.4,0.6,1l0,0.2c0.2,1.3-0.6,2.3-1.8,2.5
				c-1.3,0.2-2.4,1.2-3,2.5c-0.6,1.3-0.4,2.9,0.5,4c0.4,0.6,0.5,1.2,0.4,1.8c-0.1,0.6-0.4,1-0.9,1.4C13.6,35.5,13.2,35.7,12.7,35.7z
				 M13,33.3C13,33.3,13,33.3,13,33.3C13,33.3,13,33.3,13,33.3z M16.8,23.3L16.8,23.3l0.5-0.5L16.8,23.3z"/>
		</g>
	</g>
	<g>
		<g>
			<path class="st0" d="M11,18.4c0.2,0.2,0.2,0.2,0.3,0.5c0.1,0.6-0.2,1.1-0.8,1.1C8.1,20.5,6,22.2,5,24.6c-1,2.5-0.7,5.2,0.8,7.4
				C6.1,32.4,6,33,5.6,33.3c-0.5,0.3-1.1,0.2-1.4-0.2c-1.9-2.7-2.3-6.2-1.1-9.2c1.2-3,3.8-5.2,7-5.7C10.5,18,10.8,18.1,11,18.4z"/>
			<path class="st0" d="M4.9,34.7c-0.1,0-0.3,0-0.4,0c-0.6-0.1-1-0.4-1.4-0.9c-2.1-3-2.6-7-1.2-10.4c1.4-3.4,4.3-5.8,7.8-6.4
				c0.7-0.3,1.5-0.1,2.1,0.6l0,0c0.3,0.3,0.5,0.5,0.6,1l0.1,0.2c0.1,0.6,0,1.2-0.4,1.6c-0.3,0.5-0.9,0.8-1.5,0.9
				c-2,0.4-3.7,1.8-4.6,3.9c-0.8,2.1-0.6,4.3,0.7,6.2c0.3,0.5,0.5,1.1,0.4,1.7c-0.1,0.6-0.4,1.1-1,1.4C5.8,34.6,5.4,34.7,4.9,34.7z
				 M5.2,32.4C5.2,32.4,5.2,32.4,5.2,32.4C5.2,32.4,5.2,32.4,5.2,32.4z M10.3,18.8C10.3,18.8,10.3,18.8,10.3,18.8
				C10.3,18.8,10.3,18.8,10.3,18.8z"/>
		</g>
	</g>
</g>
</svg>
