<?xml version="1.0" encoding="UTF-8" standalone="no"?>
<!-- Generator: Adobe Illustrator 19.2.0, SVG Export Plug-In . SVG Version: 6.00 Build 0)  -->

<svg
   xmlns:dc="http://purl.org/dc/elements/1.1/"
   xmlns:cc="http://creativecommons.org/ns#"
   xmlns:rdf="http://www.w3.org/1999/02/22-rdf-syntax-ns#"
   xmlns:svg="http://www.w3.org/2000/svg"
   xmlns="http://www.w3.org/2000/svg"
   xmlns:sodipodi="http://sodipodi.sourceforge.net/DTD/sodipodi-0.dtd"
   xmlns:inkscape="http://www.inkscape.org/namespaces/inkscape"
   version="1.1"
   id="Layer_1"
   x="0px"
   y="0px"
   viewBox="0 0 50 200.1"
   style="enable-background:new 0 0 50 200.1;"
   xml:space="preserve"
   inkscape:version="0.91 r13725"
   sodipodi:docname="empty-toolbar-button.svg"><metadata
     id="metadata116"><rdf:RDF><cc:Work
         rdf:about=""><dc:format>image/svg+xml</dc:format><dc:type
           rdf:resource="http://purl.org/dc/dcmitype/StillImage" /><dc:title /></cc:Work></rdf:RDF></metadata><defs
     id="defs114" /><sodipodi:namedview
     pagecolor="#ffffff"
     bordercolor="#666666"
     borderopacity="1"
     objecttolerance="10"
     gridtolerance="10"
     guidetolerance="10"
     inkscape:pageopacity="0"
     inkscape:pageshadow="2"
     inkscape:window-width="1574"
     inkscape:window-height="1234"
     id="namedview112"
     showgrid="false"
     inkscape:zoom="4.717641"
     inkscape:cx="-13.634838"
     inkscape:cy="131.18797"
     inkscape:window-x="152"
     inkscape:window-y="117"
     inkscape:window-maximized="0"
     inkscape:current-layer="Layer_1" /><style
     type="text/css"
     id="style3">
	.st0{fill:#414042;}
	.st1{fill:#FFFFFF;}
	.st2{fill:#1E1E1E;}
	.st3{fill:#333333;}
</style><g
     id="g6"
     style="fill:#ffffff;fill-opacity:1"><g
       id="g8"
       style="fill:#ffffff;fill-opacity:1"><path
         style="fill:#ffffff;fill-opacity:1"
         inkscape:connector-curvature="0"
         id="path10"
         d="m 50.1,146.1 c 0,2.2 -1.8,4 -4,4 l -42,0 c -2.2,0 -4,-1.8 -4,-4 l 0,-42 c 0,-2.2 1.8,-4 4,-4 l 42,0 c 2.2,0 4,1.8 4,4 l 0,42 z"
         class="st0" /></g></g><g
     id="g12"><g
       id="g14"><path
         style="fill:#414042"
         inkscape:connector-curvature="0"
         id="path16"
         d="m 50,196.1 c 0,2.2 -1.8,4 -4,4 l -42,0 c -2.2,0 -4,-1.8 -4,-4 l 0,-42 c 0,-2.2 1.8,-4 4,-4 l 42,0 c 2.2,0 4,1.8 4,4 l 0,42 z"
         class="st0" /></g></g><g
     id="g18"
     style="fill:#f0f0f0;fill-opacity:1"><g
       id="g20"
       style="fill:#f0f0f0;fill-opacity:1"><path
         style="fill:#f0f0f0;fill-opacity:1"
         inkscape:connector-curvature="0"
         id="path22"
         d="m 50,46 c 0,2.2 -1.8,4 -4,4 L 4,50 C 1.8,50 0,48.2 0,46 L 0,4 C 0,1.8 1.8,0 4,0 l 42,0 c 2.2,0 4,1.8 4,4 l 0,42 z"
         class="st1" /></g></g><g
     id="g24"><path
       style="fill:#1e1e1e"
       inkscape:connector-curvature="0"
       id="path26"
       d="m 50,96.1 c 0,2.2 -1.8,4 -4,4 l -42,0 c -2.2,0 -4,-1.8 -4,-4 l 0,-42 c 0,-2.2 1.8,-4 4,-4 l 42,0 c 2.2,0 4,1.8 4,4 l 0,42 z"
       class="st2" /></g></svg>