<?xml version="1.0" encoding="UTF-8" standalone="no"?>
<!-- Generator: Adobe Illustrator 19.2.0, SVG Export Plug-In . SVG Version: 6.00 Build 0)  -->

<svg
   xmlns:dc="http://purl.org/dc/elements/1.1/"
   xmlns:cc="http://creativecommons.org/ns#"
   xmlns:rdf="http://www.w3.org/1999/02/22-rdf-syntax-ns#"
   xmlns:svg="http://www.w3.org/2000/svg"
   xmlns="http://www.w3.org/2000/svg"
   xmlns:sodipodi="http://sodipodi.sourceforge.net/DTD/sodipodi-0.dtd"
   xmlns:inkscape="http://www.inkscape.org/namespaces/inkscape"
   version="1.1"
   id="Layer_1"
   x="0px"
   y="0px"
   viewBox="0 0 50 50"
   style="enable-background:new 0 0 50 50;"
   xml:space="preserve"
   sodipodi:docname="finger-paint-a.svg"
   inkscape:version="0.92.0 r15299"><metadata
     id="metadata28"><rdf:RDF><cc:Work
         rdf:about=""><dc:format>image/svg+xml</dc:format><dc:type
           rdf:resource="http://purl.org/dc/dcmitype/StillImage" /><dc:title></dc:title></cc:Work></rdf:RDF></metadata><defs
     id="defs26" /><sodipodi:namedview
     pagecolor="#ff0000"
     bordercolor="#666666"
     borderopacity="1"
     objecttolerance="10"
     gridtolerance="10"
     guidetolerance="10"
     inkscape:pageopacity="0"
     inkscape:pageshadow="2"
     inkscape:window-width="1054"
     inkscape:window-height="851"
     id="namedview24"
     showgrid="false"
     inkscape:zoom="8.88"
     inkscape:cx="6.7004505"
     inkscape:cy="25"
     inkscape:window-x="120"
     inkscape:window-y="0"
     inkscape:window-maximized="0"
     inkscape:current-layer="Layer_1" /><style
     type="text/css"
     id="style10">
	.st0{fill:#FFFFFF;}
</style><g
     id="Layer_2" /><g
     id="g15"
     style="fill:#000000;fill-opacity:1"><path
       class="st0"
       d="M18.3,19.6c0.7,0.1,1.2,0.5,1.4,1.1c0.4,1.3,2,5.6,2.4,6.9c2.2,0,7.9,0.1,9.9,0.1c0.2,0,0.6,0,0.8,0.1   c0.5,0.1,0.8,0.4,1.1,0.9c0.1,0.2,0.2,0.4,0.2,0.6c0.8,2.9,0.7,2,1.5,4.9c0.8,3,0.1,5.7-2.3,7.7c-1.9,1.6-3.6,2.3-5.7,1.9   c-0.6-0.1-1.2-0.3-1.8-0.5c-3.6-1.5-7.3-2.9-10.9-4.3c-0.9-0.4-1.4-1.2-1.3-2c0.1-0.9,0.9-1.5,1.8-1.6c0.1,0,0.3,0,0.4,0   c0.2,0,0.4,0.1,0.7,0.2c1.6,0.6,2.6,1.4,4.2,2c0,0,0,0,0,0c0,0,0.1,0,0.2,0c-0.1-0.2-0.1-0.4-0.2-0.6c-1.4-4.9-2.9-9.8-4.3-14.7   c-0.2-0.7-0.3-1.4,0.2-2c0.4-0.6,1-0.8,1.7-0.8C18.2,19.5,18.2,19.5,18.3,19.6 M18.9,16.3c-0.1,0-0.3,0-0.4-0.1   c-1.9-0.2-3.6,0.6-4.7,2.1c-1.5,2-0.9,4.1-0.7,4.8c0.9,3,1.8,6,2.6,9c-0.1,0-0.3,0-0.4,0c-2.5,0-4.6,1.9-5,4.3   c-0.2,1.2,0.1,2.4,0.7,3.4c0.6,1,1.5,1.7,2.7,2.2c1.2,0.5,2.4,0.9,3.6,1.4c2.4,0.9,4.9,1.9,7.3,2.9c0.9,0.4,1.7,0.6,2.5,0.7   c3.9,0.7,6.7-1.2,8.5-2.7c3.4-2.8,4.6-6.7,3.4-11.1c-0.5-1.7-0.6-2.1-0.8-2.7c-0.1-0.4-0.3-1-0.7-2.2c-0.1-0.4-0.2-0.7-0.4-1.1   c-0.7-1.5-1.8-2.5-3.4-2.7c-0.6-0.1-1.2-0.1-1.8-0.1c-1.2,0-3.4,0-5.4,0c-0.6,0-1.3-0.1-1.9-0.1c-0.2-0.6-0.5-1.3-0.7-2   c-0.4-1.1-0.7-2.1-0.9-2.6C22.3,17.9,20.8,16.7,18.9,16.3L18.9,16.3z"
       id="path13"
       style="fill:#000000;fill-opacity:1" /></g><path
     class="st0"
     d="M35.1,4.3c0.5,0,1,0,1.5,0c0.6,0,1.3-0.4,1.3-1.1c0-0.6-0.5-1.2-1.2-1.2c-0.5,0-1,0-1.5,0  c-0.6,0-1.3,0.4-1.3,1.1C33.9,3.6,34.4,4.3,35.1,4.3L35.1,4.3z"
     id="path17"
     style="fill:#000000;fill-opacity:1" /><path
     class="st0"
     d="M32,7.7c-1.2-0.8-0.9-2.1,0.1-3c1.2-1-0.6-2.6-1.7-1.6c-1,0.8-1.6,2-1.6,3.2c0,1.4,0.8,2.5,2,3.2  c0.5,0.3,1.4,0.1,1.7-0.4C32.8,8.7,32.5,8.1,32,7.7L32,7.7z"
     id="path19"
     style="fill:#000000;fill-opacity:1" /><path
     class="st0"
     d="M35.4,9.6c-1.4-0.7-2.6,1.3-1.2,1.9c1,0.5,1.8,1.2,2,2.1c0,0,0,0.2,0,0.2c0,0.1,0,0.2,0,0.3c0,0,0,0.2-0.1,0.2  c0,0,0,0,0,0.1c0,0-0.1,0.1-0.1,0.1c-0.2,0.3-0.6,0.6-1,0.8c-1.3,0.5-2.8,0.2-4.1-0.2c-1.4-0.5-2.7-1.1-4.1-1.7  c-3.2-1.3-6.6-2.6-10.1-2.5c-2.8,0.1-6.1,1.1-7.4,3.5c-1.1,2.1-0.4,4.5,1.4,5.8c0-0.8,0.4-1.7,0.9-2.3c-0.7-0.9-0.7-2.2,0.3-3.1  c1.9-1.9,5.3-1.9,7.8-1.4c3.1,0.6,5.9,2,8.8,3.2c2.8,1.1,6.5,2.1,9-0.2C39.9,14.2,38,10.8,35.4,9.6z"
     id="path21"
     style="fill:#000000;fill-opacity:1" /></svg>