<?xml version="1.0" encoding="utf-8"?>
<!-- Generator: Adobe Illustrator 19.2.0, SVG Export Plug-In . SVG Version: 6.00 Build 0)  -->
<svg version="1.1" xmlns="http://www.w3.org/2000/svg" xmlns:xlink="http://www.w3.org/1999/xlink" x="0px" y="0px"
	 viewBox="0 0 50 50" style="enable-background:new 0 0 50 50;" xml:space="preserve">
<style type="text/css">
	.st0{fill:#FFFFFF;}
</style>
<g id="Layer_2">
</g>
<g id="Layer_1">
	<path class="st0" d="M47.2,41.3l-9.1-9.1c-0.8-0.8-1.9-1.1-3-1l-2.4-2.4c1.8-2.6,2.8-5.7,2.8-9c0-8.9-7.2-16.1-16.1-16.1
		S3.3,11,3.3,19.8c0,8.9,7.2,16.1,16.1,16.1c4.1,0,7.8-1.5,10.6-4l2.2,2.2c-0.2,1.1,0.1,2.2,1,3l9.1,9.1c1.4,1.4,3.6,1.4,4.9,0
		C48.5,44.9,48.5,42.7,47.2,41.3z M19.4,32.2c-6.8,0-12.3-5.5-12.3-12.3c0-6.8,5.5-12.3,12.3-12.3s12.3,5.5,12.3,12.3
		C31.8,26.6,26.2,32.2,19.4,32.2z"/>
</g>
</svg>
