<?xml version="1.0" encoding="utf-8"?>
<!-- Generator: Adobe Illustrator 19.2.0, SVG Export Plug-In . SVG Version: 6.00 Build 0)  -->
<svg version="1.1" xmlns="http://www.w3.org/2000/svg" xmlns:xlink="http://www.w3.org/1999/xlink" x="0px" y="0px"
	 viewBox="0 0 50 50" style="enable-background:new 0 0 50 50;" xml:space="preserve">
<style type="text/css">
	.st0{fill:#FFFFFF;}
	.st1{fill:#FFFFFF;stroke:#FFFFFF;stroke-width:0.25;stroke-linecap:round;stroke-linejoin:round;stroke-miterlimit:10;}
</style>
<g id="Layer_2">
</g>
<g id="Layer_1">
	<path class="st0" d="M11.3,36.7c-0.2-0.3-0.4-0.6-0.6-0.8C6.3,29,5.8,21.8,10,14.8c4.3-7.2,11-10.4,19.3-9.3
		c7.9,1.1,13.4,5.8,15.8,13.4c2.4,7.8,0.4,14.6-5.5,20.1c-3.8,3.6-8.4,5.1-13.5,5.1c-7.3,0-14.6-0.1-21.9-0.1c-0.2,0-0.5,0-1,0
		C6,41.5,8.6,39.1,11.3,36.7z M10.9,41c0.3,0,0.6,0.1,0.8,0.1c4.9,0,9.9,0,14.8,0C35.6,41,42.8,34,43,25.1
		c0.2-9.3-7.3-16.9-16.6-16.7c-6.9,0.1-12,3.5-14.9,9.7c-2.9,6.4-1.8,12.5,2.8,17.8c0.3,0.4,0.7,0.7,1,1.1
		C13.9,38.3,12.5,39.6,10.9,41z"/>
	<path class="st1" d="M22.5,20.9c0-0.7,0.1-1.4,0.3-2c0.2-0.6,0.6-1.1,1-1.6c0.4-0.4,0.9-0.8,1.6-1c0.6-0.2,1.3-0.4,2-0.4
		c0.6,0,1.2,0.1,1.7,0.3c0.5,0.2,1,0.4,1.4,0.8c0.4,0.3,0.7,0.8,1,1.3c0.2,0.5,0.3,1.1,0.3,1.8c0,0.5-0.1,0.9-0.2,1.2
		c-0.1,0.3-0.2,0.6-0.4,0.9c-0.2,0.3-0.4,0.5-0.6,0.7c-0.2,0.2-0.4,0.4-0.7,0.6c-0.3,0.2-0.5,0.4-0.7,0.6c-0.2,0.2-0.4,0.4-0.6,0.7
		c-0.2,0.3-0.3,0.5-0.4,0.9c-0.1,0.3-0.1,0.8-0.1,1.2H26c0-0.6,0-1.1,0.1-1.5c0.1-0.4,0.2-0.8,0.3-1.1c0.1-0.3,0.3-0.6,0.5-0.8
		c0.2-0.2,0.4-0.5,0.7-0.7c0.2-0.2,0.4-0.4,0.6-0.5c0.2-0.2,0.4-0.3,0.5-0.5c0.2-0.2,0.3-0.4,0.4-0.7c0.1-0.2,0.1-0.5,0.1-0.9
		c0-0.4-0.1-0.8-0.2-1.1c-0.1-0.3-0.3-0.5-0.5-0.7c-0.2-0.2-0.4-0.3-0.7-0.4c-0.2-0.1-0.4-0.1-0.6-0.1c-0.8,0-1.5,0.3-1.9,0.8
		c-0.4,0.6-0.6,1.3-0.6,2.2H22.5z"/>
	<path class="st0" d="M27.6,29.8c-0.1,0-0.3-0.1-0.4-0.1c-0.8,0-1.4,0.5-1.6,1.2c-0.1,0.4,0,0.9,0.2,1.3c0.2,0.4,0.6,0.7,1,0.8
		c0.1,0,0.3,0.1,0.4,0.1c0.8,0,1.4-0.5,1.6-1.2c0.1-0.4,0.1-0.9-0.2-1.3C28.4,30.1,28,29.9,27.6,29.8z"/>
</g>
</svg>
