<?xml version="1.0" encoding="UTF-8" standalone="no"?>
<!-- Generator: Adobe Illustrator 19.2.0, SVG Export Plug-In . SVG Version: 6.00 Build 0)  -->

<svg
   xmlns:dc="http://purl.org/dc/elements/1.1/"
   xmlns:cc="http://creativecommons.org/ns#"
   xmlns:rdf="http://www.w3.org/1999/02/22-rdf-syntax-ns#"
   xmlns:svg="http://www.w3.org/2000/svg"
   xmlns="http://www.w3.org/2000/svg"
   xmlns:sodipodi="http://sodipodi.sourceforge.net/DTD/sodipodi-0.dtd"
   xmlns:inkscape="http://www.inkscape.org/namespaces/inkscape"
   version="1.1"
   x="0px"
   y="0px"
   viewBox="0 0 50 50"
   style="enable-background:new 0 0 50 50;"
   xml:space="preserve"
   id="svg2"
   inkscape:version="0.91 r13725"
   sodipodi:docname="help-a.svg"><metadata
     id="metadata18"><rdf:RDF><cc:Work
         rdf:about=""><dc:format>image/svg+xml</dc:format><dc:type
           rdf:resource="http://purl.org/dc/dcmitype/StillImage" /><dc:title></dc:title></cc:Work></rdf:RDF></metadata><defs
     id="defs16" /><sodipodi:namedview
     pagecolor="#ff0000"
     bordercolor="#666666"
     borderopacity="1"
     objecttolerance="10"
     gridtolerance="10"
     guidetolerance="10"
     inkscape:pageopacity="0"
     inkscape:pageshadow="2"
     inkscape:window-width="852"
     inkscape:window-height="480"
     id="namedview14"
     showgrid="false"
     inkscape:zoom="4.72"
     inkscape:cx="25"
     inkscape:cy="25"
     inkscape:window-x="0"
     inkscape:window-y="0"
     inkscape:window-maximized="0"
     inkscape:current-layer="svg2" /><style
     type="text/css"
     id="style4">
	.st0{fill:#FFFFFF;}
	.st1{fill:#FFFFFF;stroke:#FFFFFF;stroke-width:0.25;stroke-linecap:round;stroke-linejoin:round;stroke-miterlimit:10;}
</style><g
     id="Layer_2" /><g
     id="g4149"><path
       class="st0"
       d="M 11.3,36.7 C 11.1,36.4 10.9,36.1 10.7,35.9 6.3,29 5.8,21.8 10,14.8 14.3,7.6 21,4.4 29.3,5.5 c 7.9,1.1 13.4,5.8 15.8,13.4 2.4,7.8 0.4,14.6 -5.5,20.1 -3.8,3.6 -8.4,5.1 -13.5,5.1 C 18.8,44.1 11.5,44 4.2,44 4,44 3.7,44 3.2,44 6,41.5 8.6,39.1 11.3,36.7 Z M 10.9,41 c 0.3,0 0.6,0.1 0.8,0.1 4.9,0 9.9,0 14.8,0 C 35.6,41 42.8,34 43,25.1 43.2,15.8 35.7,8.2 26.4,8.4 c -6.9,0.1 -12,3.5 -14.9,9.7 -2.9,6.4 -1.8,12.5 2.8,17.8 0.3,0.4 0.7,0.7 1,1.1 -1.4,1.3 -2.8,2.6 -4.4,4 z"
       id="path8"
       style="fill:#000000;fill-opacity:1;stroke:none"
       inkscape:connector-curvature="0" /><path
       class="st1"
       d="m 22.5,20.9 c 0,-0.7 0.1,-1.4 0.3,-2 0.2,-0.6 0.6,-1.1 1,-1.6 0.4,-0.4 0.9,-0.8 1.6,-1 0.6,-0.2 1.3,-0.4 2,-0.4 0.6,0 1.2,0.1 1.7,0.3 0.5,0.2 1,0.4 1.4,0.8 0.4,0.3 0.7,0.8 1,1.3 0.2,0.5 0.3,1.1 0.3,1.8 0,0.5 -0.1,0.9 -0.2,1.2 -0.1,0.3 -0.2,0.6 -0.4,0.9 -0.2,0.3 -0.4,0.5 -0.6,0.7 -0.2,0.2 -0.4,0.4 -0.7,0.6 -0.3,0.2 -0.5,0.4 -0.7,0.6 -0.2,0.2 -0.4,0.4 -0.6,0.7 -0.2,0.3 -0.3,0.5 -0.4,0.9 -0.1,0.3 -0.1,0.8 -0.1,1.2 l -2.1,0 c 0,-0.6 0,-1.1 0.1,-1.5 0.1,-0.4 0.2,-0.8 0.3,-1.1 0.1,-0.3 0.3,-0.6 0.5,-0.8 0.2,-0.2 0.4,-0.5 0.7,-0.7 0.2,-0.2 0.4,-0.4 0.6,-0.5 0.2,-0.2 0.4,-0.3 0.5,-0.5 0.2,-0.2 0.3,-0.4 0.4,-0.7 0.1,-0.2 0.1,-0.5 0.1,-0.9 0,-0.4 -0.1,-0.8 -0.2,-1.1 -0.1,-0.3 -0.3,-0.5 -0.5,-0.7 -0.2,-0.2 -0.4,-0.3 -0.7,-0.4 -0.2,-0.1 -0.4,-0.1 -0.6,-0.1 -0.8,0 -1.5,0.3 -1.9,0.8 -0.4,0.6 -0.6,1.3 -0.6,2.2 l -2.2,0 z"
       id="path10"
       style="fill:#000000;fill-opacity:1;stroke:none;stroke-width:0.25;stroke-linecap:round;stroke-linejoin:round;stroke-miterlimit:10"
       inkscape:connector-curvature="0" /><path
       class="st0"
       d="m 27.6,29.8 c -0.1,0 -0.3,-0.1 -0.4,-0.1 -0.8,0 -1.4,0.5 -1.6,1.2 -0.1,0.4 0,0.9 0.2,1.3 0.2,0.4 0.6,0.7 1,0.8 0.1,0 0.3,0.1 0.4,0.1 0.8,0 1.4,-0.5 1.6,-1.2 0.1,-0.4 0.1,-0.9 -0.2,-1.3 -0.2,-0.5 -0.6,-0.7 -1,-0.8 z"
       id="path12"
       style="fill:#000000;fill-opacity:1;stroke:none"
       inkscape:connector-curvature="0" /></g></svg>