<?xml version="1.0" encoding="utf-8"?>
<!-- Generator: Adobe Illustrator 19.2.0, SVG Export Plug-In . SVG Version: 6.00 Build 0)  -->
<svg version="1.1" id="Layer_1" xmlns="http://www.w3.org/2000/svg" xmlns:xlink="http://www.w3.org/1999/xlink" x="0px" y="0px"
	 viewBox="0 0 50 200.1" style="enable-background:new 0 0 50 200.1;" xml:space="preserve">
<style type="text/css">
	.st0{fill:#414042;}
	.st1{fill:#FFFFFF;}
	.st2{fill:#1E1E1E;}
	.st3{fill:#333333;}
</style>
<g id="Layer_2">
	<g>
		<g>
			<path class="st0" d="M50.1,146.1c0,2.2-1.8,4-4,4h-42c-2.2,0-4-1.8-4-4v-42c0-2.2,1.8-4,4-4h42c2.2,0,4,1.8,4,4V146.1z"/>
		</g>
	</g>
	<g>
		<g>
			<path class="st0" d="M50,196.1c0,2.2-1.8,4-4,4H4c-2.2,0-4-1.8-4-4v-42c0-2.2,1.8-4,4-4h42c2.2,0,4,1.8,4,4V196.1z"/>
		</g>
	</g>
	<g>
		<g>
			<path class="st1" d="M50,46c0,2.2-1.8,4-4,4H4c-2.2,0-4-1.8-4-4V4c0-2.2,1.8-4,4-4h42c2.2,0,4,1.8,4,4V46z"/>
		</g>
	</g>
	<g>
		<path class="st2" d="M50,96.1c0,2.2-1.8,4-4,4H4c-2.2,0-4-1.8-4-4v-42c0-2.2,1.8-4,4-4h42c2.2,0,4,1.8,4,4V96.1z"/>
	</g>
</g>
<path class="st1" d="M24.7,81.2c-6.2,0-11.2-5-11.2-11.2c0-6.2,5-11.2,11.2-11.2c6.2,0,11.2,5,11.2,11.2
	C35.9,76.2,30.9,81.2,24.7,81.2z M24.7,60.3c-5.4,0-9.8,4.4-9.8,9.8c0,5.4,4.4,9.8,9.8,9.8c5.4,0,9.8-4.4,9.8-9.8
	C34.5,64.6,30.1,60.3,24.7,60.3z"/>
<g>
	<path class="st3" d="M7.7,42.5v-6.4h1.2v6.4H7.7z"/>
	<path class="st3" d="M14.7,41.8c-0.5,0.5-1.1,0.8-1.7,0.8c-0.4,0-0.8-0.1-1.2-0.3c-0.4-0.2-0.7-0.4-0.9-0.7c-0.3-0.3-0.5-0.7-0.6-1
		s-0.2-0.8-0.2-1.2c0-0.4,0.1-0.9,0.2-1.2c0.2-0.4,0.4-0.7,0.6-1c0.3-0.3,0.6-0.5,1-0.7c0.4-0.2,0.8-0.3,1.2-0.3
		c0.6,0,1.1,0.1,1.5,0.4s0.7,0.6,0.9,1l-0.9,0.7c-0.2-0.3-0.4-0.6-0.6-0.7s-0.6-0.3-0.9-0.3c-0.3,0-0.5,0.1-0.7,0.2
		c-0.2,0.1-0.4,0.3-0.5,0.5c-0.2,0.2-0.3,0.4-0.4,0.7c-0.1,0.3-0.1,0.5-0.1,0.8c0,0.3,0,0.6,0.1,0.8c0.1,0.3,0.2,0.5,0.4,0.7
		c0.2,0.2,0.4,0.3,0.6,0.5c0.2,0.1,0.5,0.2,0.7,0.2c0.6,0,1.1-0.3,1.6-0.9v-0.5h-1.3v-0.9h2.3v3.3h-1V41.8z"/>
	<path class="st3" d="M18.3,38.4v4.1h-1.2v-6.4h1l3.3,4.2v-4.2h1.2v6.4h-1L18.3,38.4z"/>
	<path class="st3" d="M26.8,42.5c-0.5,0-0.9-0.1-1.2-0.3s-0.7-0.4-1-0.7c-0.3-0.3-0.5-0.6-0.6-1c-0.1-0.4-0.2-0.8-0.2-1.2
		c0-0.4,0.1-0.8,0.2-1.2s0.4-0.7,0.6-1c0.3-0.3,0.6-0.5,1-0.7s0.8-0.3,1.2-0.3c0.5,0,0.9,0.1,1.2,0.3s0.7,0.4,1,0.7
		c0.3,0.3,0.5,0.7,0.6,1c0.1,0.4,0.2,0.8,0.2,1.2c0,0.4-0.1,0.8-0.2,1.2c-0.2,0.4-0.4,0.7-0.6,1c-0.3,0.3-0.6,0.5-1,0.7
		C27.7,42.4,27.2,42.5,26.8,42.5z M25,39.3c0,0.3,0,0.5,0.1,0.8c0.1,0.3,0.2,0.5,0.4,0.7c0.2,0.2,0.3,0.4,0.6,0.5s0.5,0.2,0.8,0.2
		c0.3,0,0.5-0.1,0.8-0.2s0.4-0.3,0.6-0.5c0.1-0.2,0.3-0.4,0.3-0.7s0.1-0.5,0.1-0.8c0-0.3,0-0.5-0.1-0.8c-0.1-0.3-0.2-0.5-0.4-0.7
		c-0.2-0.2-0.3-0.4-0.6-0.5c-0.2-0.1-0.5-0.2-0.7-0.2c-0.3,0-0.5,0.1-0.8,0.2s-0.4,0.3-0.6,0.5c-0.2,0.2-0.3,0.4-0.3,0.7
		C25.1,38.8,25,39,25,39.3z"/>
	<path class="st3" d="M31,42.5v-6.4h2.8c0.3,0,0.6,0.1,0.8,0.2s0.5,0.3,0.6,0.5c0.2,0.2,0.3,0.4,0.4,0.7c0.1,0.3,0.2,0.5,0.2,0.8
		c0,0.4-0.1,0.8-0.3,1.1c-0.2,0.3-0.5,0.6-0.8,0.7l1.5,2.4h-1.4l-1.3-2.1h-1.2v2.1H31z M32.3,39.3h1.6c0.1,0,0.2,0,0.3-0.1
		c0.1-0.1,0.2-0.1,0.3-0.2c0.1-0.1,0.1-0.2,0.2-0.3s0.1-0.3,0.1-0.4c0-0.1,0-0.3-0.1-0.4s-0.1-0.2-0.2-0.3c-0.1-0.1-0.2-0.2-0.3-0.2
		c-0.1-0.1-0.2-0.1-0.3-0.1h-1.5V39.3z"/>
	<path class="st3" d="M41.8,41.4v1.1h-4.4v-6.4h4.4v1.1h-3.1v1.5h2.7v1h-2.7v1.7H41.8z"/>
</g>
<path class="st1" d="M27.1,79.5c-0.8,0.2-1.6,0.3-2.4,0.3c-5.4,0-9.8-4.4-9.8-9.8c0-5.4,4.4-9.8,9.8-9.8c5.4,0,9.8,4.4,9.8,9.8
	c0,0.1,0,0.2,0,0.3c0.4-0.4,0.8-0.6,1.4-0.9c-0.3-5.9-5.2-10.6-11.2-10.6c-6.2,0-11.2,5-11.2,11.2c0,6.2,5,11.2,11.2,11.2
	c1,0,2-0.2,3-0.4C27.5,80.4,27.3,80,27.1,79.5z"/>
<path class="st1" d="M31.2,66.5L31.2,66.5c-0.3-0.3-0.5-0.3-0.8-0.2c0,0-4,0.5-5.7,0.5c0,0-0.1,0-0.1,0c-1.7,0-5.8-0.6-5.8-0.6
	c-0.3-0.1-0.6,0-0.8,0.3l-0.1,0.2c-0.1,0.2-0.1,0.4-0.1,0.7c0.1,0.2,0.2,0.4,0.4,0.5c0.7,0.3,3.3,1.2,4,1.4c0.1,0,0.4,0.1,0.4,0.6
	c0,0.6-0.2,3.1-0.5,4.3c-0.3,1.2-0.8,2.7-0.8,2.7c-0.1,0.4,0.1,0.9,0.5,1l0.5,0.2c0.2,0.1,0.4,0.1,0.6,0c0.2-0.1,0.3-0.3,0.4-0.5
	l1.4-4.3l1.3,4.4c0.1,0.2,0.2,0.4,0.4,0.5c0.1,0.1,0.2,0.1,0.3,0.1c0.1,0,0.2,0,0.3-0.1l0.5-0.2c0.4-0.1,0.6-0.5,0.5-0.9
	c0,0-0.4-1.6-0.7-2.9c-0.2-0.8-0.3-2-0.3-2.9c0-0.6-0.1-1.1-0.1-1.5c0-0.2,0.1-0.4,0.4-0.5c0.1,0,3.7-1.3,3.7-1.3
	c0.3-0.1,0.4-0.3,0.5-0.6C31.4,66.9,31.4,66.7,31.2,66.5z"/>
<circle class="st1" cx="24.7" cy="64" r="1.7"/>
<g>
	<path class="st1" d="M7.7,92.3V86h1.2v6.4H7.7z"/>
	<path class="st1" d="M14.7,91.6c-0.5,0.5-1.1,0.8-1.7,0.8c-0.4,0-0.8-0.1-1.2-0.3c-0.4-0.2-0.7-0.4-0.9-0.7c-0.3-0.3-0.5-0.7-0.6-1
		s-0.2-0.8-0.2-1.2c0-0.4,0.1-0.9,0.2-1.2c0.2-0.4,0.4-0.7,0.6-1c0.3-0.3,0.6-0.5,1-0.7c0.4-0.2,0.8-0.3,1.2-0.3
		c0.6,0,1.1,0.1,1.5,0.4s0.7,0.6,0.9,1L14.6,88c-0.2-0.3-0.4-0.6-0.6-0.7S13.4,87,13.1,87c-0.3,0-0.5,0.1-0.7,0.2
		c-0.2,0.1-0.4,0.3-0.5,0.5c-0.2,0.2-0.3,0.4-0.4,0.7c-0.1,0.3-0.1,0.5-0.1,0.8c0,0.3,0,0.6,0.1,0.8c0.1,0.3,0.2,0.5,0.4,0.7
		c0.2,0.2,0.4,0.3,0.6,0.5c0.2,0.1,0.5,0.2,0.7,0.2c0.6,0,1.1-0.3,1.6-0.9V90h-1.3v-0.9h2.3v3.3h-1V91.6z"/>
	<path class="st1" d="M18.3,88.2v4.1h-1.2V86h1l3.3,4.2V86h1.2v6.4h-1L18.3,88.2z"/>
	<path class="st1" d="M26.8,92.4c-0.5,0-0.9-0.1-1.2-0.3s-0.7-0.4-1-0.7c-0.3-0.3-0.5-0.6-0.6-1c-0.1-0.4-0.2-0.8-0.2-1.2
		c0-0.4,0.1-0.8,0.2-1.2s0.4-0.7,0.6-1c0.3-0.3,0.6-0.5,1-0.7s0.8-0.3,1.2-0.3c0.5,0,0.9,0.1,1.2,0.3s0.7,0.4,1,0.7
		c0.3,0.3,0.5,0.7,0.6,1c0.1,0.4,0.2,0.8,0.2,1.2c0,0.4-0.1,0.8-0.2,1.2c-0.2,0.4-0.4,0.7-0.6,1c-0.3,0.3-0.6,0.5-1,0.7
		C27.7,92.3,27.2,92.4,26.8,92.4z M25,89.1c0,0.3,0,0.5,0.1,0.8c0.1,0.3,0.2,0.5,0.4,0.7c0.2,0.2,0.3,0.4,0.6,0.5s0.5,0.2,0.8,0.2
		c0.3,0,0.5-0.1,0.8-0.2s0.4-0.3,0.6-0.5c0.1-0.2,0.3-0.4,0.3-0.7s0.1-0.5,0.1-0.8c0-0.3,0-0.5-0.1-0.8c-0.1-0.3-0.2-0.5-0.4-0.7
		c-0.2-0.2-0.3-0.4-0.6-0.5c-0.2-0.1-0.5-0.2-0.7-0.2c-0.3,0-0.5,0.1-0.8,0.2s-0.4,0.3-0.6,0.5c-0.2,0.2-0.3,0.4-0.3,0.7
		C25.1,88.6,25,88.9,25,89.1z"/>
	<path class="st1" d="M31,92.3V86h2.8c0.3,0,0.6,0.1,0.8,0.2s0.5,0.3,0.6,0.5c0.2,0.2,0.3,0.4,0.4,0.7c0.1,0.3,0.2,0.5,0.2,0.8
		c0,0.4-0.1,0.8-0.3,1.1c-0.2,0.3-0.5,0.6-0.8,0.7l1.5,2.4h-1.4l-1.3-2.1h-1.2v2.1H31z M32.3,89.1h1.6c0.1,0,0.2,0,0.3-0.1
		c0.1-0.1,0.2-0.1,0.3-0.2c0.1-0.1,0.1-0.2,0.2-0.3s0.1-0.3,0.1-0.4c0-0.1,0-0.3-0.1-0.4s-0.1-0.2-0.2-0.3c-0.1-0.1-0.2-0.2-0.3-0.2
		C34,87.1,33.9,87,33.8,87h-1.5V89.1z"/>
	<path class="st1" d="M41.8,91.3v1.1h-4.4V86h4.4V87h-3.1v1.5h2.7v1h-2.7v1.7H41.8z"/>
</g>
<path class="st3" d="M27.1,29.7c-0.8,0.2-1.6,0.3-2.4,0.3c-5.4,0-9.8-4.4-9.8-9.8c0-5.4,4.4-9.8,9.8-9.8c5.4,0,9.8,4.4,9.8,9.8
	c0,0.1,0,0.2,0,0.3c0.4-0.4,0.8-0.6,1.4-0.9C35.6,13.7,30.7,9,24.7,9c-6.2,0-11.2,5-11.2,11.2c0,6.2,5,11.2,11.2,11.2
	c1,0,2-0.2,3-0.4C27.5,30.5,27.3,30.1,27.1,29.7z"/>
<path class="st3" d="M31.2,16.6L31.2,16.6c-0.3-0.3-0.5-0.3-0.8-0.2c0,0-4,0.5-5.7,0.5c0,0-0.1,0-0.1,0c-1.7,0-5.8-0.6-5.8-0.6
	c-0.3-0.1-0.6,0-0.8,0.3l-0.1,0.2c-0.1,0.2-0.1,0.4-0.1,0.7c0.1,0.2,0.2,0.4,0.4,0.5c0.7,0.3,3.3,1.2,4,1.4c0.1,0,0.4,0.1,0.4,0.6
	c0,0.6-0.2,3.1-0.5,4.3c-0.3,1.2-0.8,2.7-0.8,2.7c-0.1,0.4,0.1,0.9,0.5,1l0.5,0.2c0.2,0.1,0.4,0.1,0.6,0c0.2-0.1,0.3-0.3,0.4-0.5
	l1.4-4.3l1.3,4.4c0.1,0.2,0.2,0.4,0.4,0.5c0.1,0.1,0.2,0.1,0.3,0.1c0.1,0,0.2,0,0.3-0.1l0.5-0.2c0.4-0.1,0.6-0.5,0.5-0.9
	c0,0-0.4-1.6-0.7-2.9c-0.2-0.8-0.3-2-0.3-2.9c0-0.6-0.1-1.1-0.1-1.5c0-0.2,0.1-0.4,0.4-0.5c0.1,0,3.7-1.3,3.7-1.3
	c0.3-0.1,0.4-0.3,0.5-0.6C31.4,17.1,31.4,16.8,31.2,16.6z"/>
<circle class="st3" cx="24.7" cy="14.1" r="1.7"/>
<g>
	<polygon class="st3" points="36.4,30.1 36.4,30.1 36.4,30.1 	"/>
	<path class="st3" d="M35.2,25.8l2.7-2.7c0.4-0.4,0.4-1.1,0-1.5c-0.4-0.4-1.1-0.4-1.5,0l-2.7,2.7l-2.7-2.7c-0.4-0.4-1.1-0.4-1.5,0
		c-0.4,0.4-0.4,1.1,0,1.5l2.7,2.7l-2.7,2.7c-0.4,0.4-0.4,1.1,0,1.5c0.4,0.4,1.1,0.4,1.5,0l2.7-2.7l2.7,2.7c0.4,0.4,1.1,0.4,1.5,0
		c0.4-0.4,0.4-1.1,0-1.5L35.2,25.8z"/>
</g>
<path class="st1" d="M27.3,129.6c-0.8,0.2-1.6,0.3-2.4,0.3c-5.4,0-9.8-4.4-9.8-9.8c0-5.4,4.4-9.8,9.8-9.8c5.4,0,9.8,4.4,9.8,9.8
	c0,0.1,0,0.2,0,0.3c0.4-0.4,0.8-0.6,1.4-0.9c-0.3-5.9-5.2-10.6-11.2-10.6c-6.2,0-11.2,5-11.2,11.2c0,6.2,5,11.2,11.2,11.2
	c1,0,2-0.2,3-0.4C27.6,130.5,27.4,130.1,27.3,129.6z"/>
<path class="st1" d="M31.3,116.6L31.3,116.6c-0.3-0.3-0.5-0.3-0.8-0.2c0,0-4,0.5-5.7,0.5c0,0-0.1,0-0.1,0c-1.7,0-5.8-0.6-5.8-0.6
	c-0.3-0.1-0.6,0-0.8,0.3l-0.1,0.2c-0.1,0.2-0.1,0.4-0.1,0.7c0.1,0.2,0.2,0.4,0.4,0.5c0.7,0.3,3.3,1.2,4,1.4c0.1,0,0.4,0.1,0.4,0.6
	c0,0.6-0.2,3.1-0.5,4.3c-0.3,1.2-0.8,2.7-0.8,2.7c-0.1,0.4,0.1,0.9,0.5,1l0.5,0.2c0.2,0.1,0.4,0.1,0.6,0c0.2-0.1,0.3-0.3,0.4-0.5
	l1.4-4.3l1.3,4.4c0.1,0.2,0.2,0.4,0.4,0.5c0.1,0.1,0.2,0.1,0.3,0.1c0.1,0,0.2,0,0.3-0.1l0.5-0.2c0.4-0.1,0.6-0.5,0.5-0.9
	c0,0-0.4-1.6-0.7-2.9c-0.2-0.8-0.3-2-0.3-2.9c0-0.6-0.1-1.1-0.1-1.5c0-0.2,0.1-0.4,0.4-0.5c0.1,0,3.7-1.3,3.7-1.3
	c0.3-0.1,0.4-0.3,0.5-0.6C31.6,117,31.5,116.8,31.3,116.6z"/>
<circle class="st1" cx="24.9" cy="114.1" r="1.7"/>
<g>
	<path class="st1" d="M7.8,142.5v-6.4H9v6.4H7.8z"/>
	<path class="st1" d="M14.9,141.7c-0.5,0.5-1.1,0.8-1.7,0.8c-0.4,0-0.8-0.1-1.2-0.3c-0.4-0.2-0.7-0.4-0.9-0.7
		c-0.3-0.3-0.5-0.7-0.6-1s-0.2-0.8-0.2-1.2c0-0.4,0.1-0.9,0.2-1.2c0.2-0.4,0.4-0.7,0.6-1c0.3-0.3,0.6-0.5,1-0.7
		c0.4-0.2,0.8-0.3,1.2-0.3c0.6,0,1.1,0.1,1.5,0.4s0.7,0.6,0.9,1l-0.9,0.7c-0.2-0.3-0.4-0.6-0.6-0.7s-0.6-0.3-0.9-0.3
		c-0.3,0-0.5,0.1-0.7,0.2c-0.2,0.1-0.4,0.3-0.5,0.5c-0.2,0.2-0.3,0.4-0.4,0.7c-0.1,0.3-0.1,0.5-0.1,0.8c0,0.3,0,0.6,0.1,0.8
		c0.1,0.3,0.2,0.5,0.4,0.7c0.2,0.2,0.4,0.3,0.6,0.5c0.2,0.1,0.5,0.2,0.7,0.2c0.6,0,1.1-0.3,1.6-0.9v-0.5h-1.3v-0.9h2.3v3.3h-1V141.7
		z"/>
	<path class="st1" d="M18.4,138.4v4.1h-1.2v-6.4h1l3.3,4.2v-4.2h1.2v6.4h-1L18.4,138.4z"/>
	<path class="st1" d="M26.9,142.5c-0.5,0-0.9-0.1-1.2-0.3s-0.7-0.4-1-0.7c-0.3-0.3-0.5-0.6-0.6-1c-0.1-0.4-0.2-0.8-0.2-1.2
		c0-0.4,0.1-0.8,0.2-1.2s0.4-0.7,0.6-1c0.3-0.3,0.6-0.5,1-0.7s0.8-0.3,1.2-0.3c0.5,0,0.9,0.1,1.2,0.3s0.7,0.4,1,0.7
		c0.3,0.3,0.5,0.7,0.6,1c0.1,0.4,0.2,0.8,0.2,1.2c0,0.4-0.1,0.8-0.2,1.2c-0.2,0.4-0.4,0.7-0.6,1c-0.3,0.3-0.6,0.5-1,0.7
		C27.8,142.4,27.4,142.5,26.9,142.5z M25.2,139.3c0,0.3,0,0.5,0.1,0.8c0.1,0.3,0.2,0.5,0.4,0.7c0.2,0.2,0.3,0.4,0.6,0.5
		s0.5,0.2,0.8,0.2c0.3,0,0.5-0.1,0.8-0.2s0.4-0.3,0.6-0.5c0.1-0.2,0.3-0.4,0.3-0.7s0.1-0.5,0.1-0.8c0-0.3,0-0.5-0.1-0.8
		c-0.1-0.3-0.2-0.5-0.4-0.7c-0.2-0.2-0.3-0.4-0.6-0.5c-0.2-0.1-0.5-0.2-0.7-0.2c-0.3,0-0.5,0.1-0.8,0.2s-0.4,0.3-0.6,0.5
		c-0.2,0.2-0.3,0.4-0.3,0.7C25.2,138.7,25.2,139,25.2,139.3z"/>
	<path class="st1" d="M31.2,142.5v-6.4H34c0.3,0,0.6,0.1,0.8,0.2s0.5,0.3,0.6,0.5c0.2,0.2,0.3,0.4,0.4,0.7c0.1,0.3,0.2,0.5,0.2,0.8
		c0,0.4-0.1,0.8-0.3,1.1c-0.2,0.3-0.5,0.6-0.8,0.7l1.5,2.4H35l-1.3-2.1h-1.2v2.1H31.2z M32.4,139.2H34c0.1,0,0.2,0,0.3-0.1
		c0.1-0.1,0.2-0.1,0.3-0.2c0.1-0.1,0.1-0.2,0.2-0.3s0.1-0.3,0.1-0.4c0-0.1,0-0.3-0.1-0.4s-0.1-0.2-0.2-0.3c-0.1-0.1-0.2-0.2-0.3-0.2
		c-0.1-0.1-0.2-0.1-0.3-0.1h-1.5V139.2z"/>
	<path class="st1" d="M41.9,141.4v1.1h-4.4v-6.4h4.4v1.1h-3.1v1.5h2.7v1h-2.7v1.7H41.9z"/>
</g>
<g>
	<polygon class="st1" points="36.5,130.1 36.5,130.1 36.5,130.1 	"/>
	<path class="st1" d="M35.3,125.8l2.7-2.7c0.4-0.4,0.4-1.1,0-1.5c-0.4-0.4-1.1-0.4-1.5,0l-2.7,2.7l-2.7-2.7c-0.4-0.4-1.1-0.4-1.5,0
		c-0.4,0.4-0.4,1.1,0,1.5l2.7,2.7l-2.7,2.7c-0.4,0.4-0.4,1.1,0,1.5c0.4,0.4,1.1,0.4,1.5,0l2.7-2.7l2.7,2.7c0.4,0.4,1.1,0.4,1.5,0
		c0.4-0.4,0.4-1.1,0-1.5L35.3,125.8z"/>
</g>
<g>
	<path class="st1" d="M7.7,192.7v-6.4h1.2v6.4H7.7z"/>
	<path class="st1" d="M14.7,192c-0.5,0.5-1.1,0.8-1.7,0.8c-0.4,0-0.8-0.1-1.2-0.3c-0.4-0.2-0.7-0.4-0.9-0.7c-0.3-0.3-0.5-0.7-0.6-1
		s-0.2-0.8-0.2-1.2c0-0.4,0.1-0.9,0.2-1.2c0.2-0.4,0.4-0.7,0.6-1c0.3-0.3,0.6-0.5,1-0.7c0.4-0.2,0.8-0.3,1.2-0.3
		c0.6,0,1.1,0.1,1.5,0.4s0.7,0.6,0.9,1l-0.9,0.7c-0.2-0.3-0.4-0.6-0.6-0.7s-0.6-0.3-0.9-0.3c-0.3,0-0.5,0.1-0.7,0.2
		c-0.2,0.1-0.4,0.3-0.5,0.5c-0.2,0.2-0.3,0.4-0.4,0.7c-0.1,0.3-0.1,0.5-0.1,0.8c0,0.3,0,0.6,0.1,0.8c0.1,0.3,0.2,0.5,0.4,0.7
		c0.2,0.2,0.4,0.3,0.6,0.5c0.2,0.1,0.5,0.2,0.7,0.2c0.6,0,1.1-0.3,1.6-0.9v-0.5h-1.3v-0.9h2.3v3.3h-1V192z"/>
	<path class="st1" d="M18.3,188.6v4.1h-1.2v-6.4h1l3.3,4.2v-4.2h1.2v6.4h-1L18.3,188.6z"/>
	<path class="st1" d="M26.8,192.7c-0.5,0-0.9-0.1-1.2-0.3s-0.7-0.4-1-0.7c-0.3-0.3-0.5-0.6-0.6-1c-0.1-0.4-0.2-0.8-0.2-1.2
		c0-0.4,0.1-0.8,0.2-1.2s0.4-0.7,0.6-1c0.3-0.3,0.6-0.5,1-0.7s0.8-0.3,1.2-0.3c0.5,0,0.9,0.1,1.2,0.3s0.7,0.4,1,0.7
		c0.3,0.3,0.5,0.7,0.6,1c0.1,0.4,0.2,0.8,0.2,1.2c0,0.4-0.1,0.8-0.2,1.2c-0.2,0.4-0.4,0.7-0.6,1c-0.3,0.3-0.6,0.5-1,0.7
		C27.7,192.6,27.2,192.7,26.8,192.7z M25,189.5c0,0.3,0,0.5,0.1,0.8c0.1,0.3,0.2,0.5,0.4,0.7c0.2,0.2,0.3,0.4,0.6,0.5
		s0.5,0.2,0.8,0.2c0.3,0,0.5-0.1,0.8-0.2s0.4-0.3,0.6-0.5c0.1-0.2,0.3-0.4,0.3-0.7s0.1-0.5,0.1-0.8c0-0.3,0-0.5-0.1-0.8
		c-0.1-0.3-0.2-0.5-0.4-0.7c-0.2-0.2-0.3-0.4-0.6-0.5c-0.2-0.1-0.5-0.2-0.7-0.2c-0.3,0-0.5,0.1-0.8,0.2s-0.4,0.3-0.6,0.5
		c-0.2,0.2-0.3,0.4-0.3,0.7C25.1,189,25,189.2,25,189.5z"/>
	<path class="st1" d="M31,192.7v-6.4h2.8c0.3,0,0.6,0.1,0.8,0.2s0.5,0.3,0.6,0.5c0.2,0.2,0.3,0.4,0.4,0.7c0.1,0.3,0.2,0.5,0.2,0.8
		c0,0.4-0.1,0.8-0.3,1.1c-0.2,0.3-0.5,0.6-0.8,0.7l1.5,2.4h-1.4l-1.3-2.1h-1.2v2.1H31z M32.3,189.5h1.6c0.1,0,0.2,0,0.3-0.1
		c0.1-0.1,0.2-0.1,0.3-0.2c0.1-0.1,0.1-0.2,0.2-0.3s0.1-0.3,0.1-0.4c0-0.1,0-0.3-0.1-0.4s-0.1-0.2-0.2-0.3c-0.1-0.1-0.2-0.2-0.3-0.2
		c-0.1-0.1-0.2-0.1-0.3-0.1h-1.5V189.5z"/>
	<path class="st1" d="M41.8,191.6v1.1h-4.4v-6.4h4.4v1.1h-3.1v1.5h2.7v1h-2.7v1.7H41.8z"/>
</g>
<path class="st1" d="M27.1,179.9c-0.8,0.2-1.6,0.3-2.4,0.3c-5.4,0-9.8-4.4-9.8-9.8c0-5.4,4.4-9.8,9.8-9.8c5.4,0,9.8,4.4,9.8,9.8
	c0,0.1,0,0.2,0,0.3c0.4-0.4,0.8-0.6,1.4-0.9c-0.3-5.9-5.2-10.6-11.2-10.6c-6.2,0-11.2,5-11.2,11.2c0,6.2,5,11.2,11.2,11.2
	c1,0,2-0.2,3-0.4C27.5,180.7,27.3,180.3,27.1,179.9z"/>
<path class="st1" d="M31.2,166.8L31.2,166.8c-0.3-0.3-0.5-0.3-0.8-0.2c0,0-4,0.5-5.7,0.5c0,0-0.1,0-0.1,0c-1.7,0-5.8-0.6-5.8-0.6
	c-0.3-0.1-0.6,0-0.8,0.3l-0.1,0.2c-0.1,0.2-0.1,0.4-0.1,0.7c0.1,0.2,0.2,0.4,0.4,0.5c0.7,0.3,3.3,1.2,4,1.4c0.1,0,0.4,0.1,0.4,0.6
	c0,0.6-0.2,3.1-0.5,4.3c-0.3,1.2-0.8,2.7-0.8,2.7c-0.1,0.4,0.1,0.9,0.5,1l0.5,0.2c0.2,0.1,0.4,0.1,0.6,0c0.2-0.1,0.3-0.3,0.4-0.5
	l1.4-4.3l1.3,4.4c0.1,0.2,0.2,0.4,0.4,0.5c0.1,0.1,0.2,0.1,0.3,0.1c0.1,0,0.2,0,0.3-0.1l0.5-0.2c0.4-0.1,0.6-0.5,0.5-0.9
	c0,0-0.4-1.6-0.7-2.9c-0.2-0.8-0.3-2-0.3-2.9c0-0.6-0.1-1.1-0.1-1.5c0-0.2,0.1-0.4,0.4-0.5c0.1,0,3.7-1.3,3.7-1.3
	c0.3-0.1,0.4-0.3,0.5-0.6C31.4,167.3,31.4,167,31.2,166.8z"/>
<circle class="st1" cx="24.7" cy="164.3" r="1.7"/>
<g>
	<polygon class="st1" points="36.4,180.3 36.4,180.3 36.4,180.3 	"/>
	<path class="st1" d="M35.2,176l2.7-2.7c0.4-0.4,0.4-1.1,0-1.5c-0.4-0.4-1.1-0.4-1.5,0l-2.7,2.7l-2.7-2.7c-0.4-0.4-1.1-0.4-1.5,0
		c-0.4,0.4-0.4,1.1,0,1.5l2.7,2.7l-2.7,2.7c-0.4,0.4-0.4,1.1,0,1.5c0.4,0.4,1.1,0.4,1.5,0l2.7-2.7l2.7,2.7c0.4,0.4,1.1,0.4,1.5,0
		c0.4-0.4,0.4-1.1,0-1.5L35.2,176z"/>
</g>
</svg>
