<?xml version="1.0" encoding="UTF-8" standalone="no"?>
<!-- Generator: Adobe Illustrator 19.2.0, SVG Export Plug-In . SVG Version: 6.00 Build 0)  -->

<svg
   xmlns:dc="http://purl.org/dc/elements/1.1/"
   xmlns:cc="http://creativecommons.org/ns#"
   xmlns:rdf="http://www.w3.org/1999/02/22-rdf-syntax-ns#"
   xmlns:svg="http://www.w3.org/2000/svg"
   xmlns="http://www.w3.org/2000/svg"
   xmlns:sodipodi="http://sodipodi.sourceforge.net/DTD/sodipodi-0.dtd"
   xmlns:inkscape="http://www.inkscape.org/namespaces/inkscape"
   version="1.1"
   x="0px"
   y="0px"
   viewBox="0 0 50 50"
   style="enable-background:new 0 0 50 50;"
   xml:space="preserve"
   id="svg2"
   inkscape:version="0.91 r13725"
   sodipodi:docname="ignore-a.svg"><metadata
     id="metadata24"><rdf:RDF><cc:Work
         rdf:about=""><dc:format>image/svg+xml</dc:format><dc:type
           rdf:resource="http://purl.org/dc/dcmitype/StillImage" /><dc:title></dc:title></cc:Work></rdf:RDF></metadata><defs
     id="defs22" /><sodipodi:namedview
     pagecolor="#ff0000"
     bordercolor="#666666"
     borderopacity="1"
     objecttolerance="10"
     gridtolerance="10"
     guidetolerance="10"
     inkscape:pageopacity="0"
     inkscape:pageshadow="2"
     inkscape:window-width="852"
     inkscape:window-height="480"
     id="namedview20"
     showgrid="false"
     inkscape:zoom="4.72"
     inkscape:cx="25"
     inkscape:cy="25"
     inkscape:window-x="0"
     inkscape:window-y="0"
     inkscape:window-maximized="0"
     inkscape:current-layer="svg2" /><style
     type="text/css"
     id="style4">
	.st0{fill:#FFFFFF;}
</style><g
     id="Layer_2" /><g
     id="Layer_1"
     style="fill:#000000;fill-opacity:1"><path
       class="st0"
       d="M27.1,42.3c-1.4,0.3-2.7,0.5-4.1,0.5c-9.3,0-16.8-7.5-16.8-16.8S13.8,9.2,23,9.2S39.8,16.7,39.8,26   c0,0.2,0,0.3,0,0.5c0.7-0.7,1.4-1,2.4-1.5C41.7,14.9,33.3,6.8,23,6.8C12.4,6.8,3.8,15.4,3.8,26S12.4,45.2,23,45.2   c1.7,0,3.4-0.3,5.1-0.7C27.8,43.6,27.5,43,27.1,42.3z"
       id="path8"
       style="fill:#000000;fill-opacity:1" /><path
       class="st0"
       d="M32.6,20.7L32.6,20.7c-0.4-0.4-0.7-0.4-1.2-0.3c0,0-5.9,0.7-8.4,0.7h-0.1c-2.5,0-8.6-0.9-8.6-0.9   c-0.4-0.1-0.9,0-1.2,0.4L13,21c-0.1,0.3-0.1,0.6-0.1,1c0.1,0.3,0.3,0.6,0.6,0.7c1,0.4,4.9,1.8,5.9,2.1c0.1,0,0.6,0.1,0.6,0.9   c0,0.9-0.3,4.6-0.7,6.4c-0.4,1.8-1.2,4-1.2,4c-0.1,0.6,0.1,1.3,0.7,1.5l0.7,0.3c0.3,0.1,0.6,0.1,0.9,0c0.3-0.1,0.4-0.4,0.6-0.7   l2.1-6.4l1.9,6.5c0.1,0.3,0.3,0.6,0.6,0.7c0.1,0.1,0.3,0.1,0.4,0.1c0.1,0,0.3,0,0.4-0.1l0.7-0.3c0.6-0.1,0.9-0.7,0.7-1.3   c0,0-0.6-2.4-1-4.3c-0.3-1.2-0.4-3-0.4-4.3c0-0.9-0.1-1.6-0.1-2.2c0-0.3,0.1-0.6,0.6-0.7c0.1,0,5.5-1.9,5.5-1.9   c0.4-0.1,0.6-0.4,0.7-0.9C32.9,21.5,32.9,21,32.6,20.7z"
       id="path10"
       style="fill:#000000;fill-opacity:1" /><circle
       class="st0"
       cx="23"
       cy="17"
       r="2.5"
       id="circle12"
       style="fill:#000000;fill-opacity:1" /><g
       id="g14"
       style="fill:#000000;fill-opacity:1"><path
         class="st0"
         d="M43.1,43L43.1,43L43.1,43z"
         id="path16"
         style="fill:#000000;fill-opacity:1" /><path
         class="st0"
         d="M41,35.6l4.6-4.6c0.7-0.7,0.7-1.9,0-2.6c-0.7-0.7-1.9-0.7-2.6,0L38.5,33l-4.6-4.6c-0.7-0.7-1.9-0.7-2.6,0    s-0.7,1.9,0,2.6l4.6,4.6l-4.6,4.6c-0.7,0.7-0.7,1.9,0,2.6s1.9,0.7,2.6,0l4.6-4.6l4.6,4.6c0.7,0.7,1.9,0.7,2.6,0    c0.7-0.7,0.7-1.9,0-2.6L41,35.6z"
         id="path18"
         style="fill:#000000;fill-opacity:1" /></g></g></svg>