<?xml version="1.0" encoding="utf-8"?>
<!-- Generator: Adobe Illustrator 22.0.1, SVG Export Plug-In . SVG Version: 6.00 Build 0)  -->
<svg version="1.1" id="Layer_1" xmlns="http://www.w3.org/2000/svg" xmlns:xlink="http://www.w3.org/1999/xlink" x="0px" y="0px"
	 viewBox="0 0 50 50" style="enable-background:new 0 0 50 50;" xml:space="preserve">
<style type="text/css">
	.st0{fill:#FFFFFF;}
	.st1{fill:#EF3B4E;}
</style>
<g>
	<circle class="st0" cx="27.8" cy="13.3" r="2.4"/>
	<circle class="st0" cx="19.7" cy="7.2" r="2.3"/>
	<circle class="st0" cx="9.4" cy="6.9" r="2.2"/>
	<path class="st0" d="M41.8,17.5l-8.9-5.2c0.1,0.3,0.1,0.7,0.1,1c0,1-0.3,1.8-0.8,2.6l5.1,2.9L25,26l-12.3-7.1l3.1-1.8
		c-0.4-0.7-0.7-1.6-0.7-2.5c0-0.4,0.1-0.8,0.2-1.2l-7.1,4.1c-0.5,0.3-0.9,0.9-0.9,1.5v16.5c0,0.6,0.3,1.2,0.9,1.5l16,9.2
		c0.3,0.2,0.6,0.2,0.9,0.2s0.6-0.1,0.9-0.2l16-9.2c0.5-0.3,0.9-0.9,0.9-1.5V19C42.7,18.4,42.3,17.8,41.8,17.5z M10.7,21.7L23.3,29
		v12.8l-12.5-7.2V21.7z M39.2,34.5l-12.5,7.2V28.9l12.5-7.2V34.5z"/>
	<circle class="st0" cx="25" cy="20.3" r="2.8"/>
	<circle class="st0" cx="20" cy="14.6" r="2.4"/>
</g>
<circle class="st1" cx="44.1" cy="6" r="5.6"/>
</svg>
