<?xml version="1.0" encoding="utf-8"?>
<!-- Generator: Adobe Illustrator 22.0.1, SVG Export Plug-In . SVG Version: 6.00 Build 0)  -->
<svg version="1.1" id="Layer_1" xmlns="http://www.w3.org/2000/svg" xmlns:xlink="http://www.w3.org/1999/xlink" x="0px" y="0px"
	 viewBox="0 0 50 50" style="enable-background:new 0 0 50 50;" xml:space="preserve">
<g>
	<path d="M17.6,33.4c0.4,0,0.6,0,0.9,0c6.5,0,13,0,19.5,0c1.3,0,2,0.5,2.2,1.5c0.2,1.1-0.5,2.2-1.6,2.3c-0.2,0-0.5,0-0.7,0
		c-7.4,0-14.8,0-22.3,0c-2,0-2.7-0.9-2.2-2.9c0.3-1.1,0.5-2.3,0.8-3.4c0.3-0.9,0.2-1.8,0-2.8C12.7,22,11.1,15.9,9.6,9.8
		C9.4,9.3,9.2,9.1,8.7,9.1c-1.3,0-2.6,0-3.9,0c-1.2,0-2-0.8-2-1.9c0-1.1,0.8-1.9,2-1.9c2,0,3.9,0,5.9,0c1.1,0,1.7,0.5,2,1.5
		c0.4,1.3,1.6,4.8,1.9,6.2c2.2,0.1,4.3,0.2,6.5,0.3c6.7,0.3,11.4,0.4,18.1,0.7c1.2,0.1,2.3,0.1,3.5,0.2c1.4,0.1,2.2,1.4,1.6,2.6
		c-0.9,2.5-3.5,8.5-4.4,10.4c-0.4,0.8-1,1.1-1.9,1.2c-5.9,0.3-12.5,0.5-18.4,0.7c-0.8,0-1.2,0.3-1.3,1.1
		C18.4,30.7,17.7,32.9,17.6,33.4z"/>
	<path d="M39.2,42c0,1.9-1.6,3.6-3.5,3.6c-2,0-3.6-1.6-3.6-3.6c0-1.9,1.6-3.6,3.6-3.6C37.6,38.5,39.2,40.1,39.2,42z"/>
	<path d="M17.8,41.9c0,1.9-1.7,3.5-3.6,3.5c-1.9,0-3.5-1.7-3.5-3.6c0-2,1.6-3.6,3.6-3.6C16.2,38.3,17.8,39.9,17.8,41.9z"/>
</g>
</svg>
