<?xml version="1.0" encoding="UTF-8" standalone="no"?>
<!-- Generator: Adobe Illustrator 19.2.0, SVG Export Plug-In . SVG Version: 6.00 Build 0)  -->

<svg
   xmlns:dc="http://purl.org/dc/elements/1.1/"
   xmlns:cc="http://creativecommons.org/ns#"
   xmlns:rdf="http://www.w3.org/1999/02/22-rdf-syntax-ns#"
   xmlns:svg="http://www.w3.org/2000/svg"
   xmlns="http://www.w3.org/2000/svg"
   xmlns:sodipodi="http://sodipodi.sourceforge.net/DTD/sodipodi-0.dtd"
   xmlns:inkscape="http://www.inkscape.org/namespaces/inkscape"
   version="1.1"
   x="0px"
   y="0px"
   viewBox="0 0 50 50"
   style="enable-background:new 0 0 50 50;"
   xml:space="preserve"
   id="svg2"
   inkscape:version="0.91 r13725"
   sodipodi:docname="market-a.svg"><metadata
     id="metadata20"><rdf:RDF><cc:Work
         rdf:about=""><dc:format>image/svg+xml</dc:format><dc:type
           rdf:resource="http://purl.org/dc/dcmitype/StillImage" /><dc:title></dc:title></cc:Work></rdf:RDF></metadata><defs
     id="defs18" /><sodipodi:namedview
     pagecolor="#ff0000"
     bordercolor="#666666"
     borderopacity="1"
     objecttolerance="10"
     gridtolerance="10"
     guidetolerance="10"
     inkscape:pageopacity="0"
     inkscape:pageshadow="2"
     inkscape:window-width="852"
     inkscape:window-height="480"
     id="namedview16"
     showgrid="false"
     inkscape:zoom="4.72"
     inkscape:cx="25"
     inkscape:cy="25"
     inkscape:window-x="0"
     inkscape:window-y="0"
     inkscape:window-maximized="0"
     inkscape:current-layer="svg2" /><style
     type="text/css"
     id="style4">
	.st0{fill:#FFFFFF;}
</style><g
     id="Layer_2" /><g
     id="Layer_1"
     style="fill:#000000;fill-opacity:1"><g
       id="g8"
       style="fill:#000000;fill-opacity:1"><path
         class="st0"
         d="M45.4,13.7c-1.6-0.1-3.2,0-4.8,0c-7.5,0-18,0-25.7,0c-0.6-1.8-1-3.5-1.7-5.2C13,7.9,12.2,7.1,11.5,7    C9.4,6.7,7.3,6.7,5.2,6.7c-1.1,0-1.9,0.5-1.9,1.7c0,1.2,0.8,1.7,1.9,1.7c1.3,0,2.7,0,4,0.1c0.5,0.1,1.2,0.6,1.4,1.1    c0.9,2.6,1.7,5.2,2.5,7.8c1.3,4.3,1.8,5.5,3.1,10.2c0.6,2.3,1.2,2.8,2.2,3.3c1.1,0.4,2.1,0.4,2.1,0.4h1.8c4.6,0,12.2,0,16.8,0    c1.1,0,2.1-0.1,2.6-1.4c1.9-5.1,3.8-10.2,5.7-15.3C47.8,14.7,47.1,13.8,45.4,13.7z M38.9,28.7c-0.1,0.3-0.8,0.7-1.2,0.7    c-4.6,0-12.2,0-16.8,0c-0.4,0-1.1-0.3-1.2-0.7c-1.3-3.8-2.4-7.6-3.7-11.5h27.1C41.8,21.2,40.4,24.9,38.9,28.7z"
         id="path10"
         style="fill:#000000;fill-opacity:1" /><path
         class="st0"
         d="M17.2,37.3L17.2,37.3c-1,0-1.7,0.2-2.2,0.7c-0.6,0.6-0.9,1.3-0.9,2.3c0,1,0.3,1.8,0.8,2.4    c0.6,0.6,1.4,0.9,2.2,0.9c1.8,0,3.2-1.4,3.2-3.2c0-0.9-0.3-1.7-0.9-2.3C18.8,37.6,18,37.3,17.2,37.3z"
         id="path12"
         style="fill:#000000;fill-opacity:1" /><path
         class="st0"
         d="M35.1,37.3L35.1,37.3c-1,0-1.7,0.2-2.2,0.7c-0.6,0.6-0.9,1.4-0.9,2.4c0,1,0.3,1.8,0.8,2.4    c0.6,0.6,1.3,0.9,2.2,0.9c1.8,0,3.2-1.5,3.2-3.3c0-0.9-0.3-1.6-0.9-2.2C36.8,37.6,36,37.3,35.1,37.3z"
         id="path14"
         style="fill:#000000;fill-opacity:1" /></g></g></svg>