<?xml version="1.0" encoding="utf-8"?>
<!-- Generator: Adobe Illustrator 19.2.0, SVG Export Plug-In . SVG Version: 6.00 Build 0)  -->
<svg version="1.1" xmlns="http://www.w3.org/2000/svg" xmlns:xlink="http://www.w3.org/1999/xlink" x="0px" y="0px"
	 viewBox="0 0 50 50" style="enable-background:new 0 0 50 50;" xml:space="preserve">
<style type="text/css">
	.st0{fill:#FFFFFF;}
</style>
<g id="Layer_2">
</g>
<g id="Layer_1">
	<path class="st0" d="M37,18.5H14.1c-0.9,0-1.7-0.7-1.7-1.7c0-0.9,0.8-1.7,1.7-1.7H37c0.9,0,1.7,0.7,1.7,1.7
		C38.6,17.8,37.9,18.5,37,18.5z"/>
	<path class="st0" d="M37,28H14.1c-0.9,0-1.7-0.8-1.7-1.7c0-0.9,0.8-1.7,1.7-1.7H37c0.9,0,1.7,0.8,1.7,1.7C38.6,27.3,37.9,28,37,28z
		"/>
	<path class="st0" d="M37,37.4H14.1c-0.9,0-1.7-0.8-1.7-1.7s0.8-1.7,1.7-1.7H37c0.9,0,1.7,0.8,1.7,1.7S37.9,37.4,37,37.4z"/>
</g>
</svg>
