<svg width="32" height="32" viewBox="0 0 32 32" fill="none" xmlns="http://www.w3.org/2000/svg">
<path fill-rule="evenodd" clip-rule="evenodd" d="M16.1999 4.72587C17.5049 4.72587 18.5628 3.66795 18.5628 2.36294C18.5628 1.05792 17.5049 0 16.1999 0C14.8948 0 13.8369 1.05792 13.8369 2.36294C13.8369 3.66795 14.8948 4.72587 16.1999 4.72587ZM18.6667 11.8004V14.7337H13.7334V11.8004C13.7334 10.467 14.8667 9.40039 16.2 9.40039C17.6 9.40039 18.6667 10.467 18.6667 11.8004ZM13.7334 20.1332V17.2666H18.6667V20.1332C18.6667 21.4665 17.5333 22.5332 16.2 22.5332C14.8667 22.5332 13.7334 21.4665 13.7334 20.1332ZM23.6665 20.6V17.0667C23.6665 16.4 23.0665 15.9334 22.4665 15.9334C21.7998 15.9334 21.3332 16.4667 21.3332 17.1333V20.6C21.3332 23.0666 19.0665 25.0666 16.3332 25.0666C13.5999 25.0666 11.3333 23.0666 11.3333 20.6V17.0667C11.3333 16.4 10.8666 15.8667 10.2666 15.8667C9.59999 15.8 9 16.2667 9 16.9333V20.6C9 23.9999 11.6666 26.7999 15.1333 27.3332V29.5998H12.2666C11.6 29.5998 11.0666 30.1332 11.0666 30.7998C11.0666 31.4665 11.6 31.9998 12.2666 31.9998H20.4665C21.1332 31.9998 21.6665 31.4665 21.6665 30.7998C21.6665 30.1332 21.1332 29.5998 20.4665 29.5998H17.5332V27.3332C20.9998 26.7332 23.6665 23.9999 23.6665 20.6Z" fill="#00B4EF" fill-opacity="0.7"/>
</svg>
