<svg width="32" height="32" viewBox="0 0 32 32" fill="none" xmlns="http://www.w3.org/2000/svg">
<path fill-rule="evenodd" clip-rule="evenodd" d="M25.6441 4.13328L24.1775 5.59992C22.2442 3.46662 19.5109 2.06664 16.3776 2.06664C13.3776 2.06664 10.711 3.39995 8.77768 5.39993L7.31104 3.93328C9.57767 1.53331 12.8443 0 16.3776 0C20.0442 0 23.3775 1.59998 25.6441 4.13328ZM20.7777 9.00072L22.2444 7.53408C20.8444 5.86743 18.7111 4.80078 16.3778 4.80078C14.1111 4.80078 12.1112 5.80077 10.7112 7.33408L12.1778 8.80073C13.2445 7.66741 14.7111 6.86742 16.3778 6.86742C18.1777 6.86742 19.7777 7.66741 20.7777 9.00072ZM18.8803 12.0758V11.7496C18.8803 10.4445 17.7763 9.40039 16.4775 9.40039C15.1787 9.40039 14.0747 10.4445 14.0747 11.7496V16.2521L18.8803 12.0758ZM14.543 21.5129L12.6113 23.2103C13.4959 24.2599 14.9141 24.9311 16.4774 24.9311C19.14 24.9311 21.348 22.9735 21.348 20.559V17.1658C21.348 16.5132 21.8026 15.9912 22.452 15.9912C23.0364 15.9912 23.6209 16.448 23.6209 17.1005V20.559C23.6209 23.887 21.0233 26.6277 17.6464 27.1498V29.3684H20.5038C21.1532 29.3684 21.6727 29.8905 21.6727 30.543C21.6727 31.1956 21.1532 31.7176 20.5038 31.7176H12.5161C11.8667 31.7176 11.3471 31.1956 11.3471 30.543C11.3471 29.8905 11.8667 29.3684 12.5161 29.3684H15.3085V27.1498C13.5328 26.915 11.9589 26.0045 10.8771 24.7343L8.9443 26.4327C8.48972 26.8242 7.77537 26.759 7.38573 26.3022L7.25585 26.1717C6.8662 25.7149 6.93114 24.9971 7.38573 24.6056L23.8806 9.98853C24.3352 9.597 25.0495 9.66226 25.4392 10.119L25.5691 10.2495C25.9587 10.7716 25.8938 11.4241 25.5041 11.8809L18.8803 17.7015V20.1017C18.8803 21.4068 17.7763 22.4509 16.4775 22.4509C15.6689 22.4509 14.9744 22.0838 14.543 21.5129ZM10.5679 15.9919C11.1523 15.9919 11.6069 16.5139 11.6069 17.1664V18.4715L9.33398 20.4944V17.0359C9.39892 16.4486 9.91845 15.9266 10.5679 15.9919Z" fill="#EA4C5F"/>
</svg>
