<svg width="32" height="32" viewBox="0 0 32 32" fill="none" xmlns="http://www.w3.org/2000/svg">
<g clip-path="url(#clip0)">
<path fill-rule="evenodd" clip-rule="evenodd" d="M24.6171 4.13055L23.1501 5.59762C21.2162 3.4637 18.4821 2.06332 15.3479 2.06332C12.3471 2.06332 9.67973 3.39702 7.74587 5.39756L6.27881 3.9305C8.54609 1.52984 11.8136 -0.00390625 15.3479 -0.00390625C19.0156 -0.00390625 22.3499 1.59653 24.6171 4.13055ZM21.2164 7.53196L19.7494 8.99903C18.7491 7.66533 17.1487 6.86511 15.3482 6.86511C13.6811 6.86511 12.214 7.66533 11.147 8.79897L9.67998 7.33191C11.0804 5.79815 13.0809 4.79788 15.3482 4.79788C17.6822 4.79788 19.8161 5.86484 21.2164 7.53196ZM17.2364 30.1533C17.2364 31.1732 16.4096 32 15.3898 32C14.3699 32 13.5431 31.1732 13.5431 30.1533C13.5431 29.1335 14.3699 28.3067 15.3898 28.3067C16.4096 28.3067 17.2364 29.1335 17.2364 30.1533ZM17.642 11.076H13.4385L14.2904 25.8499H16.7656L17.642 11.076Z" fill="#EA4C5F" fill-opacity="0.5"/>
</g>
<defs>
<clipPath id="clip0">
<rect width="32" height="32" fill="white"/>
</clipPath>
</defs>
</svg>
