<?xml version="1.0" encoding="utf-8"?>
<!-- Generator: Adobe Illustrator 19.2.0, SVG Export Plug-In . SVG Version: 6.00 Build 0)  -->
<svg version="1.1"
	 id="svg2" inkscape:version="0.91 r13725" sodipodi:docname="mic-mute-a.svg" xmlns:cc="http://creativecommons.org/ns#" xmlns:dc="http://purl.org/dc/elements/1.1/" xmlns:inkscape="http://www.inkscape.org/namespaces/inkscape" xmlns:rdf="http://www.w3.org/1999/02/22-rdf-syntax-ns#" xmlns:sodipodi="http://sodipodi.sourceforge.net/DTD/sodipodi-0.dtd" xmlns:svg="http://www.w3.org/2000/svg"
	 xmlns="http://www.w3.org/2000/svg" xmlns:xlink="http://www.w3.org/1999/xlink" x="0px" y="0px" viewBox="0 0 50 50"
	 style="enable-background:new 0 0 50 50;" xml:space="preserve">
<style type="text/css">
	.st0{fill:#EA4C5F;}
</style>
<sodipodi:namedview  bordercolor="#666666" borderopacity="1" gridtolerance="10" guidetolerance="10" id="namedview18" inkscape:current-layer="svg2" inkscape:cx="25" inkscape:cy="25" inkscape:pageopacity="0" inkscape:pageshadow="2" inkscape:window-height="480" inkscape:window-maximized="0" inkscape:window-width="852" inkscape:window-x="0" inkscape:window-y="0" inkscape:zoom="4.72" objecttolerance="10" pagecolor="#ff0000" showgrid="false">
	</sodipodi:namedview>
<g id="Layer_2">
</g>
<g id="Layer_1">
	<path id="path8" class="st0" d="M28.9,17.1v-0.5c0-2-1.7-3.6-3.7-3.6l0,0c-2,0-3.7,1.6-3.7,3.6v6.9L28.9,17.1z"/>
	<path id="path10" class="st0" d="M21.5,29.2v0.2c0,2,1.6,3.6,3.7,3.6l0,0c2,0,3.7-1.6,3.7-3.6v-6.6L21.5,29.2z"/>
	<path id="path12" class="st0" d="M39.1,16.8L13.6,39.1c-0.7,0.6-1.8,0.5-2.4-0.2L11,38.7c-0.6-0.7-0.5-1.8,0.2-2.4l25.4-22.4
		c0.7-0.6,1.8-0.5,2.4,0.2l0.2,0.2C39.8,15.1,39.7,16.1,39.1,16.8z"/>
	<path id="path14" class="st0" d="M23.4,40.2v3.4h-4.3c-1,0-1.8,0.8-1.8,1.8s0.8,1.8,1.8,1.8h12.3c1,0,1.8-0.8,1.8-1.8
		s-0.8-1.8-1.8-1.8H27v-3.4c5.2-0.8,9.2-5,9.2-10.1c0-0.1,0-5.1,0-5.3c0-1-0.9-1.7-1.8-1.7c-1,0-1.7,0.8-1.7,1.8c0,0.3,0,4.8,0,5.2
		c0,3.7-3.4,6.7-7.5,6.7c-3.6,0-6.7-2.3-7.3-5.4L15,34C16.4,37.2,19.6,39.7,23.4,40.2z"/>
	<path id="path16" class="st0" d="M17.7,24.9c0-1-0.7-1.8-1.6-1.8c-1-0.1-1.8,0.7-1.9,1.6c0,0.2,0,4.2,0,5.3l3.5-3.1
		C17.7,25.9,17.7,25,17.7,24.9z"/>
</g>
</svg>
