<svg width="32" height="32" viewBox="0 0 32 32" fill="none" xmlns="http://www.w3.org/2000/svg">
<g clip-path="url(#clip0)">
<path d="M20.4705 9.0029L21.9376 7.53584C20.5372 5.86871 18.4033 4.80176 16.0693 4.80176C13.802 4.80176 11.8015 5.80203 10.4011 7.33578C10.8679 7.80258 11.4014 8.33605 11.8682 8.80285C12.9351 7.66921 14.4022 6.86899 16.0693 6.86899C17.8698 6.86899 19.4703 7.66921 20.4705 9.0029Z" fill="#EA4C5F"/>
<path d="M23.8713 5.60152L25.3383 4.13446C23.071 1.60044 19.7368 0 16.0691 0C12.5348 0 9.26728 1.53375 7 3.9344C7.46679 4.4012 8.00027 4.93468 8.46707 5.40147C10.4009 3.40093 13.0683 2.06723 16.0691 2.06723C19.2033 2.06723 21.9374 3.46761 23.8713 5.60152Z" fill="#EA4C5F"/>
<circle cx="16.1108" cy="30.1572" r="1.84666" fill="#EA4C5F"/>
<path d="M14.1597 11.0801H18.3632L17.4867 25.8539H15.0116L14.1597 11.0801Z" fill="#EA4C5F"/>
</g>
<defs>
<clipPath id="clip0">
<rect width="32" height="32" fill="white"/>
</clipPath>
</defs>
</svg>
