<svg width="32" height="32" viewBox="0 0 32 32" fill="none" xmlns="http://www.w3.org/2000/svg">
<path fill-rule="evenodd" clip-rule="evenodd" d="M22.8958 6.35833L21.7042 7.55C20.1333 5.81667 17.9125 4.67917 15.3667 4.67917C12.9292 4.67917 10.7625 5.7625 9.19167 7.3875L8 6.19583C9.84167 4.24583 12.4958 3 15.3667 3C18.3458 3 21.0542 4.3 22.8958 6.35833ZM20.1335 9.12086L18.9419 10.3125C18.1294 9.22919 16.8294 8.57919 15.3669 8.57919C14.0127 8.57919 12.821 9.22919 11.9544 10.15L10.7627 8.95836C11.9002 7.71252 13.5252 6.90002 15.3669 6.90002C17.2627 6.90002 18.996 7.76669 20.1335 9.12086ZM16.9006 27.4961C16.9006 28.3245 16.2291 28.9961 15.4006 28.9961C14.5722 28.9961 13.9006 28.3245 13.9006 27.4961C13.9006 26.6677 14.5722 25.9961 15.4006 25.9961C16.2291 25.9961 16.9006 26.6677 16.9006 27.4961ZM17.2301 12H13.8157L14.5077 24.0005H16.5182L17.2301 12Z" fill="#EA4C5F" fill-opacity="0.5"/>
</svg>
