<svg width="32" height="32" viewBox="0 0 32 32" fill="none" xmlns="http://www.w3.org/2000/svg">
<path fill-rule="evenodd" clip-rule="evenodd" d="M23.8664 5.59992L25.3331 4.13328C23.0664 1.59998 19.7332 0 16.0665 0C12.5333 0 9.26664 1.53331 7 3.93328L8.46665 5.39993C10.4 3.39995 13.0666 2.06664 16.0665 2.06664C19.1998 2.06664 21.9331 3.46662 23.8664 5.59992ZM20.4664 8.99975L21.9331 7.5331C20.5331 5.86646 18.3998 4.7998 16.0665 4.7998C13.7999 4.7998 11.7999 5.79979 10.3999 7.3331L11.8665 8.79975C12.9332 7.66643 14.3998 6.86644 16.0665 6.86644C17.8665 6.86644 19.4664 7.66643 20.4664 8.99975ZM18.5334 11.8004V14.7337H13.6001V11.8004C13.6001 10.467 14.7334 9.40039 16.0667 9.40039C17.4667 9.40039 18.5334 10.467 18.5334 11.8004ZM13.6001 17.2666V20.1332C13.6001 21.4665 14.7334 22.5332 16.0667 22.5332C17.4 22.5332 18.5334 21.4665 18.5334 20.1332V17.2666H13.6001ZM23.5332 17.0667V20.6C23.5332 23.9999 20.8665 26.7332 17.3999 27.3332V29.5998H20.3332C20.9999 29.5998 21.5332 30.1332 21.5332 30.7998C21.5332 31.4665 20.9999 31.9998 20.3332 31.9998H12.1333C11.4667 31.9998 10.9333 31.4665 10.9333 30.7998C10.9333 30.1332 11.4667 29.5998 12.1333 29.5998H14.9999V27.3332C11.5333 26.7999 8.8667 23.9999 8.8667 20.6V16.9333C8.8667 16.2667 9.46669 15.8 10.1333 15.8667C10.7333 15.8667 11.2 16.4 11.2 17.0667V20.6C11.2 23.0666 13.4666 25.0666 16.1999 25.0666C18.9332 25.0666 21.1999 23.0666 21.1999 20.6V17.1333C21.1999 16.4667 21.6665 15.9334 22.3332 15.9334C22.9332 15.9334 23.5332 16.4 23.5332 17.0667Z" fill="white"/>
</svg>
