<?xml version="1.0" encoding="UTF-8" standalone="no"?>
<!-- Generator: Adobe Illustrator 19.2.0, SVG Export Plug-In . SVG Version: 6.00 Build 0)  -->

<svg
   xmlns:dc="http://purl.org/dc/elements/1.1/"
   xmlns:cc="http://creativecommons.org/ns#"
   xmlns:rdf="http://www.w3.org/1999/02/22-rdf-syntax-ns#"
   xmlns:svg="http://www.w3.org/2000/svg"
   xmlns="http://www.w3.org/2000/svg"
   xmlns:sodipodi="http://sodipodi.sourceforge.net/DTD/sodipodi-0.dtd"
   xmlns:inkscape="http://www.inkscape.org/namespaces/inkscape"
   version="1.1"
   x="0px"
   y="0px"
   viewBox="0 0 50 50"
   style="enable-background:new 0 0 50 50;"
   xml:space="preserve"
   id="svg2"
   inkscape:version="0.91 r13725"
   sodipodi:docname="mic-unmute-a.svg"><metadata
     id="metadata22"><rdf:RDF><cc:Work
         rdf:about=""><dc:format>image/svg+xml</dc:format><dc:type
           rdf:resource="http://purl.org/dc/dcmitype/StillImage" /><dc:title></dc:title></cc:Work></rdf:RDF></metadata><defs
     id="defs20" /><sodipodi:namedview
     pagecolor="#ff0000"
     bordercolor="#666666"
     borderopacity="1"
     objecttolerance="10"
     gridtolerance="10"
     guidetolerance="10"
     inkscape:pageopacity="0"
     inkscape:pageshadow="2"
     inkscape:window-width="852"
     inkscape:window-height="480"
     id="namedview18"
     showgrid="false"
     inkscape:zoom="4.72"
     inkscape:cx="25"
     inkscape:cy="25"
     inkscape:window-x="0"
     inkscape:window-y="0"
     inkscape:window-maximized="0"
     inkscape:current-layer="svg2" /><style
     type="text/css"
     id="style4">
	.st0{fill:#FFFFFF;}
</style><g
     id="Layer_2" /><g
     id="Layer_1"
     style="fill:#000000;fill-opacity:1"><path
       class="st0"
       d="M31.4,14.1l2.2-2.2c-2.1-2.5-5.3-4.1-8.8-4.1c-3.4,0-6.4,1.5-8.5,3.8c0.7,0.7,1.5,1.5,2.2,2.2   c1.6-1.7,3.8-2.9,6.3-2.9C27.5,10.9,29.9,12.1,31.4,14.1z"
       id="path8"
       style="fill:#000000;fill-opacity:1" /><path
       class="st0"
       d="M36.5,9l2.2-2.2C35.3,3,30.3,0.6,24.8,0.6c-5.3,0-10.2,2.3-13.6,5.9c0.7,0.7,1.5,1.5,2.2,2.2   c2.9-3,6.9-5,11.4-5C29.5,3.7,33.6,5.8,36.5,9z"
       id="path10"
       style="fill:#000000;fill-opacity:1" /><path
       class="st0"
       d="M28.5,22.7v-4.4c0-2-1.6-3.6-3.7-3.6h0c-2,0-3.7,1.6-3.7,3.6v4.4H28.5z"
       id="path12"
       style="fill:#000000;fill-opacity:1" /><path
       class="st0"
       d="M21.1,26.5v4.3c0,2,1.7,3.6,3.7,3.6h0c2,0,3.7-1.6,3.7-3.6v-4.3H21.1z"
       id="path14"
       style="fill:#000000;fill-opacity:1" /><path
       class="st0"
       d="M36,31.5c0-0.1,0-5.1,0-5.3c0-1-0.9-1.7-1.8-1.7c-1,0-1.7,0.8-1.7,1.8c0,0.3,0,4.8,0,5.2   c0,3.7-3.4,6.7-7.5,6.7c-4.1,0-7.5-3-7.5-6.7c0-0.4,0-4.9,0-5.3c0-1-0.7-1.8-1.6-1.8C14.9,24.3,14,25,14,26c0,0.3,0,5.4,0,5.5   c0,5.1,4,9.3,9.2,10.1l0,3.4h-4.3c-1,0-1.8,0.8-1.8,1.8c0,1,0.8,1.8,1.8,1.8h12.3c1,0,1.8-0.8,1.8-1.8c0-1-0.8-1.8-1.8-1.8h-4.4   l0-3.4C32,40.7,36,36.6,36,31.5z"
       id="path16"
       style="fill:#000000;fill-opacity:1" /></g></svg>