<?xml version="1.0" encoding="UTF-8" standalone="no"?>
<!-- Generator: Adobe Illustrator 19.2.0, SVG Export Plug-In . SVG Version: 6.00 Build 0)  -->

<svg
   xmlns:dc="http://purl.org/dc/elements/1.1/"
   xmlns:cc="http://creativecommons.org/ns#"
   xmlns:rdf="http://www.w3.org/1999/02/22-rdf-syntax-ns#"
   xmlns:svg="http://www.w3.org/2000/svg"
   xmlns="http://www.w3.org/2000/svg"
   xmlns:sodipodi="http://sodipodi.sourceforge.net/DTD/sodipodi-0.dtd"
   xmlns:inkscape="http://www.inkscape.org/namespaces/inkscape"
   version="1.1"
   x="0px"
   y="0px"
   viewBox="0 0 50 50"
   style="enable-background:new 0 0 50 50;"
   xml:space="preserve"
   id="svg2"
   inkscape:version="0.91 r13725"
   sodipodi:docname="mic-mute-a.svg"><metadata
     id="metadata22"><rdf:RDF><cc:Work
         rdf:about=""><dc:format>image/svg+xml</dc:format><dc:type
           rdf:resource="http://purl.org/dc/dcmitype/StillImage" /><dc:title></dc:title></cc:Work></rdf:RDF></metadata><defs
     id="defs20" /><sodipodi:namedview
     pagecolor="#ff0000"
     bordercolor="#666666"
     borderopacity="1"
     objecttolerance="10"
     gridtolerance="10"
     guidetolerance="10"
     inkscape:pageopacity="0"
     inkscape:pageshadow="2"
     inkscape:window-width="852"
     inkscape:window-height="480"
     id="namedview18"
     showgrid="false"
     inkscape:zoom="4.72"
     inkscape:cx="25"
     inkscape:cy="25"
     inkscape:window-x="0"
     inkscape:window-y="0"
     inkscape:window-maximized="0"
     inkscape:current-layer="svg2" /><style
     type="text/css"
     id="style4">
	.st0{fill:#FFFFFF;}
</style><g
     id="Layer_2" /><g
     id="Layer_1"
     style="fill:#000000;fill-opacity:1"><path
       class="st0"
       d="M28.9,17.1v-0.5c0-2-1.7-3.6-3.7-3.6h0c-2,0-3.7,1.6-3.7,3.6v6.9L28.9,17.1z"
       id="path8"
       style="fill:#000000;fill-opacity:1" /><path
       class="st0"
       d="M21.5,29.2v0.2c0,2,1.6,3.6,3.7,3.6h0c2,0,3.7-1.6,3.7-3.6v-6.6L21.5,29.2z"
       id="path10"
       style="fill:#000000;fill-opacity:1" /><path
       class="st0"
       d="M39.1,16.8L13.6,39.1c-0.7,0.6-1.8,0.5-2.4-0.2l-0.2-0.2c-0.6-0.7-0.5-1.8,0.2-2.4l25.4-22.4   c0.7-0.6,1.8-0.5,2.4,0.2l0.2,0.2C39.8,15.1,39.7,16.1,39.1,16.8z"
       id="path12"
       style="fill:#000000;fill-opacity:1" /><path
       class="st0"
       d="M23.4,40.2l0,3.4h-4.3c-1,0-1.8,0.8-1.8,1.8c0,1,0.8,1.8,1.8,1.8h12.3c1,0,1.8-0.8,1.8-1.8   c0-1-0.8-1.8-1.8-1.8h-4.4l0-3.4c5.2-0.8,9.2-5,9.2-10.1c0-0.1,0-5.1,0-5.3c0-1-0.9-1.7-1.8-1.7c-1,0-1.7,0.8-1.7,1.8   c0,0.3,0,4.8,0,5.2c0,3.7-3.4,6.7-7.5,6.7c-3.6,0-6.7-2.3-7.3-5.4L15,34C16.4,37.2,19.6,39.7,23.4,40.2z"
       id="path14"
       style="fill:#000000;fill-opacity:1" /><path
       class="st0"
       d="M17.7,24.9c0-1-0.7-1.8-1.6-1.8c-1-0.1-1.8,0.7-1.9,1.6c0,0.2,0,4.2,0,5.3l3.5-3.1   C17.7,25.9,17.7,25,17.7,24.9z"
       id="path16"
       style="fill:#000000;fill-opacity:1" /></g></svg>