<svg width="32" height="32" viewBox="0 0 32 32" fill="none" xmlns="http://www.w3.org/2000/svg">
<path fill-rule="evenodd" clip-rule="evenodd" d="M23.1477 5.60011L24.6143 4.13346C22.3477 1.60016 19.0144 0.000183105 15.3478 0.000183105C11.8145 0.000183105 8.54789 1.5335 6.28125 3.93346L7.7479 5.40011C9.6812 3.40014 12.3478 2.06682 15.3478 2.06682C18.4811 2.06682 21.2144 3.4668 23.1477 5.60011ZM19.7477 9.00007L21.2144 7.53342C19.8144 5.86677 17.6811 4.80012 15.3478 4.80012C13.0812 4.80012 11.0812 5.80011 9.68121 7.33342L11.1479 8.80007C12.2145 7.66675 13.6812 6.86676 15.3478 6.86676C17.1478 6.86676 18.7478 7.66675 19.7477 9.00007ZM17.8144 11.8V14.7333H12.8812V11.8C12.8812 10.4667 14.0145 9.40007 15.3478 9.40007C16.7478 9.40007 17.8144 10.4667 17.8144 11.8ZM12.8812 17.2666V20.1333C12.8812 21.4666 14.0145 22.5332 15.3478 22.5332C16.6811 22.5332 17.8144 21.4666 17.8144 20.1333V17.2666H12.8812ZM22.8145 17.0667V20.6C22.8145 24 20.1479 26.7333 16.6812 27.3332V29.5999H19.6145C20.2812 29.5999 20.8145 30.1332 20.8145 30.7999C20.8145 31.4665 20.2812 31.9998 19.6145 31.9998H11.4146C10.748 31.9998 10.2147 31.4665 10.2147 30.7999C10.2147 30.1332 10.748 29.5999 11.4146 29.5999H14.2813V27.3332C10.8147 26.7999 8.14802 24 8.14802 20.6V16.9334C8.14802 16.2667 8.74801 15.8001 9.41467 15.8667C10.0147 15.8667 10.4813 16.4001 10.4813 17.0667V20.6C10.4813 23.0666 12.748 25.0666 15.4813 25.0666C18.2146 25.0666 20.4812 23.0666 20.4812 20.6V17.1334C20.4812 16.4667 20.9478 15.9334 21.6145 15.9334C22.2145 15.9334 22.8145 16.4001 22.8145 17.0667Z" fill="white" fill-opacity="0.5"/>
</svg>
