<?xml version="1.0" encoding="utf-8"?>
<!-- Generator: Adobe Illustrator 23.0.2, SVG Export Plug-In . SVG Version: 6.00 Build 0)  -->
<svg version="1.1" id="Art" xmlns="http://www.w3.org/2000/svg" xmlns:xlink="http://www.w3.org/1999/xlink" x="0px" y="0px"
	 viewBox="0 0 50 50" style="enable-background:new 0 0 50 50;" xml:space="preserve">
<style type="text/css">
	.st0{fill:#FFFFFF;}
</style>
<path class="st0" d="M16.7,13.2c-0.3,0.3-0.7,0.6-1,0.9l1.8,1.9c1.4-1.5,3.3-2.4,5.3-2.4c2.2,0,4.2,0.9,5.5,2.7l1.8-1.8
	C26.8,10.3,20.8,9.8,16.7,13.2z M32.7,11.9l1.9-1.9c-0.3-0.3-0.6-0.7-1-1c-6.3-5.9-16.2-5.6-22.1,0.7l1.9,1.8
	c2.5-2.6,5.9-4.2,9.6-4.2C26.6,7.5,30.2,9.1,32.7,11.9z M38.3,29.1c-0.2-0.4-0.4-0.8-0.7-1.1c-0.3-0.3-0.7-0.6-1.1-0.8
	C36,27.1,35.6,27,35.1,27c-0.3,0-0.6,0-0.8,0.1c-0.6-0.9-1.7-1.4-2.8-1.4c-0.5,0-1,0.1-1.5,0.3c-0.7-0.7-1.6-1-2.6-1.1
	c-0.2,0-0.3,0-0.5,0.1V20c0-0.5-0.1-1-0.3-1.5c-0.2-0.5-0.5-0.9-0.8-1.3c-0.4-0.4-0.8-0.7-1.3-0.9C24,16.1,23.5,16,23,16
	c-0.5,0-1,0.1-1.4,0.3c-0.5,0.2-0.9,0.5-1.3,0.8c-0.7,0.7-1.1,1.7-1.1,2.8v10.1c-0.6-0.3-1.3-0.5-2-0.5c-1,0-2,0.4-2.8,1.2
	c-0.4,0.4-0.6,0.8-0.8,1.3c-0.2,0.5-0.3,1-0.3,1.5c0,0.9,0.3,1.7,0.8,2.4l5.8,7.8c0.4,0.5,0.8,0.9,1.4,1.1c0.6,0.3,1.2,0.4,1.8,0.4
	h11c0.6,0,1.2-0.2,1.8-0.6c0.5-0.4,0.9-0.9,1-1.6l1.4-5.6c0.3-1.1,0.4-2.3,0.4-3.4v-3.3C38.6,30,38.5,29.6,38.3,29.1z M36.7,33.7
	c0,1-0.1,2-0.4,3L35,42.3c0,0.1-0.1,0.2-0.1,0.3c-0.1,0.1-0.1,0.2-0.2,0.2C34.4,42.9,34.2,43,34,43H23c-0.3,0-0.6,0-0.8-0.2
	c-0.3-0.1-0.5-0.3-0.7-0.6l-5.9-7.8c-0.2-0.3-0.4-0.7-0.4-1.2c0-0.3,0-0.5,0.1-0.7c0.1-0.2,0.2-0.4,0.4-0.6c0.2-0.2,0.4-0.3,0.6-0.4
	c0.2-0.1,0.5-0.2,0.7-0.2c0.3,0,0.6,0.1,0.9,0.2c0.3,0.1,0.5,0.3,0.7,0.6l2.3,3.1V19.9c0-0.3,0.1-0.5,0.2-0.7c0.2-0.5,0.6-0.8,1.1-1
	C22.5,18,22.7,18,23,18c0.3,0,0.5,0,0.8,0.1c0.2,0.1,0.5,0.2,0.6,0.4c0.4,0.4,0.6,0.9,0.5,1.4v10.4h0.6v-1.5c0-0.5,0.2-1,0.5-1.4
	c0.2-0.2,0.4-0.3,0.6-0.4c0.2-0.1,0.5-0.1,0.7-0.1c0.3,0,0.5,0,0.8,0.1c0.2,0.1,0.4,0.2,0.6,0.4c0.4,0.4,0.6,0.9,0.6,1.4v1.3h0.5v-1
	c0-0.2,0-0.4,0.1-0.6c0.1-0.2,0.2-0.4,0.4-0.5c0.3-0.3,0.8-0.5,1.2-0.5c0.5,0,0.9,0.2,1.2,0.5c0.2,0.2,0.3,0.3,0.4,0.6
	c0.1,0.2,0.1,0.4,0.1,0.7v1h0.5c0-0.4,0.2-0.8,0.4-1.1c0.1-0.1,0.3-0.3,0.5-0.3c0.2-0.1,0.4-0.1,0.6-0.1c0.2,0,0.4,0,0.6,0.1
	c0.2,0.1,0.3,0.2,0.5,0.4c0.3,0.3,0.4,0.7,0.4,1.1V33.7z"/>
</svg>
