<?xml version="1.0" encoding="utf-8"?>
<!-- Generator: Adobe Illustrator 19.2.0, SVG Export Plug-In . SVG Version: 6.00 Build 0)  -->
<svg version="1.1" xmlns="http://www.w3.org/2000/svg" xmlns:xlink="http://www.w3.org/1999/xlink" x="0px" y="0px"
	 viewBox="0 0 50 50" style="enable-background:new 0 0 50 50;" xml:space="preserve">
<style type="text/css">
	.st0{fill:#FFFFFF;}
</style>
<g id="Layer_2">
</g>
<g id="Layer_1">
	<path class="st0" d="M28.9,17.1v-0.5c0-2-1.7-3.6-3.7-3.6h0c-2,0-3.7,1.6-3.7,3.6v6.9L28.9,17.1z"/>
	<path class="st0" d="M21.5,29.2v0.2c0,2,1.6,3.6,3.7,3.6h0c2,0,3.7-1.6,3.7-3.6v-6.6L21.5,29.2z"/>
	<path class="st0" d="M39.1,16.8L13.6,39.1c-0.7,0.6-1.8,0.5-2.4-0.2l-0.2-0.2c-0.6-0.7-0.5-1.8,0.2-2.4l25.4-22.4
		c0.7-0.6,1.8-0.5,2.4,0.2l0.2,0.2C39.8,15.1,39.7,16.1,39.1,16.8z"/>
	<path class="st0" d="M23.4,40.2l0,3.4h-4.3c-1,0-1.8,0.8-1.8,1.8c0,1,0.8,1.8,1.8,1.8h12.3c1,0,1.8-0.8,1.8-1.8
		c0-1-0.8-1.8-1.8-1.8h-4.4l0-3.4c5.2-0.8,9.2-5,9.2-10.1c0-0.1,0-5.1,0-5.3c0-1-0.9-1.7-1.8-1.7c-1,0-1.7,0.8-1.7,1.8
		c0,0.3,0,4.8,0,5.2c0,3.7-3.4,6.7-7.5,6.7c-3.6,0-6.7-2.3-7.3-5.4L15,34C16.4,37.2,19.6,39.7,23.4,40.2z"/>
	<path class="st0" d="M17.7,24.9c0-1-0.7-1.8-1.6-1.8c-1-0.1-1.8,0.7-1.9,1.6c0,0.2,0,4.2,0,5.3l3.5-3.1
		C17.7,25.9,17.7,25,17.7,24.9z"/>
</g>
</svg>
