<svg width="32" height="32" viewBox="0 0 32 32" fill="none" xmlns="http://www.w3.org/2000/svg">
<path d="M18.8803 12.0758V11.7496C18.8803 10.4445 17.7763 9.40039 16.4775 9.40039C15.1787 9.40039 14.0747 10.4445 14.0747 11.7496V16.2521L18.8803 12.0758Z" fill="#EA4C5F"/>
<path d="M14.0747 19.9712V20.1017C14.0747 21.4068 15.1138 22.4509 16.4775 22.4509C17.7763 22.4509 18.8803 21.4068 18.8803 20.1017V15.7949L14.0747 19.9712Z" fill="#EA4C5F"/>
<path d="M25.5041 11.8809L8.9443 26.4327C8.48972 26.8242 7.77537 26.759 7.38573 26.3022L7.25585 26.1717C6.8662 25.7149 6.93114 24.9971 7.38573 24.6056L23.8806 9.98853C24.3352 9.597 25.0495 9.66226 25.4392 10.119L25.5691 10.2495C25.9587 10.7716 25.8938 11.4241 25.5041 11.8809Z" fill="#EA4C5F"/>
<path d="M15.3085 27.1498V29.3684H12.5161C11.8667 29.3684 11.3471 29.8905 11.3471 30.543C11.3471 31.1956 11.8667 31.7176 12.5161 31.7176H20.5038C21.1532 31.7176 21.6727 31.1956 21.6727 30.543C21.6727 29.8905 21.1532 29.3684 20.5038 29.3684H17.6464V27.1498C21.0233 26.6277 23.6209 23.887 23.6209 20.559C23.6209 20.4938 23.6209 17.231 23.6209 17.1005C23.6209 16.448 23.0364 15.9912 22.452 15.9912C21.8026 15.9912 21.348 16.5132 21.348 17.1658C21.348 17.3616 21.348 20.298 21.348 20.559C21.348 22.9735 19.14 24.9311 16.4774 24.9311C14.1396 24.9311 12.1264 23.4302 11.7368 21.4074L9.85352 23.104C10.7627 25.1921 12.8408 26.8235 15.3085 27.1498Z" fill="#EA4C5F"/>
<path d="M11.6069 17.1664C11.6069 16.5139 11.1523 15.9919 10.5679 15.9919C9.91845 15.9266 9.39892 16.4486 9.33398 17.0359C9.33398 17.1664 9.33398 19.7766 9.33398 20.4944L11.6069 18.4715C11.6069 17.819 11.6069 17.2317 11.6069 17.1664Z" fill="#EA4C5F"/>
<path d="M20.7777 9.00072L22.2444 7.53408C20.8444 5.86743 18.7111 4.80078 16.3778 4.80078C14.1111 4.80078 12.1112 5.80077 10.7112 7.33408C11.1778 7.80074 11.7112 8.33407 12.1778 8.80073C13.2445 7.66741 14.7111 6.86742 16.3778 6.86742C18.1777 6.86742 19.7777 7.66741 20.7777 9.00072Z" fill="#EA4C5F"/>
<path d="M24.1775 5.59992L25.6441 4.13328C23.3775 1.59998 20.0442 0 16.3776 0C12.8443 0 9.57767 1.53331 7.31104 3.93328C7.7777 4.39994 8.31102 4.93327 8.77768 5.39993C10.711 3.39995 13.3776 2.06664 16.3776 2.06664C19.5109 2.06664 22.2442 3.46662 24.1775 5.59992Z" fill="#EA4C5F"/>
</svg>
