<?xml version="1.0" encoding="UTF-8" standalone="no"?>
<!-- Generator: Adobe Illustrator 19.2.0, SVG Export Plug-In . SVG Version: 6.00 Build 0)  -->

<svg
   xmlns:dc="http://purl.org/dc/elements/1.1/"
   xmlns:cc="http://creativecommons.org/ns#"
   xmlns:rdf="http://www.w3.org/1999/02/22-rdf-syntax-ns#"
   xmlns:svg="http://www.w3.org/2000/svg"
   xmlns="http://www.w3.org/2000/svg"
   xmlns:sodipodi="http://sodipodi.sourceforge.net/DTD/sodipodi-0.dtd"
   xmlns:inkscape="http://www.inkscape.org/namespaces/inkscape"
   version="1.1"
   id="Layer_1"
   x="0px"
   y="0px"
   viewBox="0 0 40 40"
   style="enable-background:new 0 0 40 40;"
   xml:space="preserve"
   inkscape:version="0.91 r13725"
   sodipodi:docname="tablet-mic.svg"><metadata
     id="metadata6958"><rdf:RDF><cc:Work
         rdf:about=""><dc:format>image/svg+xml</dc:format><dc:type
           rdf:resource="http://purl.org/dc/dcmitype/StillImage" /></cc:Work></rdf:RDF></metadata><defs
     id="defs6956" /><sodipodi:namedview
     pagecolor="#ffffff"
     bordercolor="#666666"
     borderopacity="1"
     objecttolerance="10"
     gridtolerance="10"
     guidetolerance="10"
     inkscape:pageopacity="0"
     inkscape:pageshadow="2"
     inkscape:window-width="1824"
     inkscape:window-height="1057"
     id="namedview6954"
     showgrid="false"
     inkscape:zoom="5.9"
     inkscape:cx="20"
     inkscape:cy="20"
     inkscape:window-x="88"
     inkscape:window-y="-8"
     inkscape:window-maximized="1"
     inkscape:current-layer="Layer_1" /><style
     type="text/css"
     id="style6942">
	.st0{fill:#FFFFFF;}
</style><path
     class="st0"
     d="m 22.5,14.7 0,-3.1 C 22.5,10.1 21.3,9 19.9,9 l 0,0 c -1.5,0 -2.6,1.1 -2.6,2.6 l 0,3.1 5.2,0 z"
     id="path6948"
     inkscape:connector-curvature="0"
     style="fill:#ffffff" /><path
     class="st0"
     d="m 17.3,17.4 0,3 c 0,1.5 1.2,2.6 2.7,2.6 l 0,0 c 1.5,0 2.6,-1.2 2.6,-2.6 l 0,-3 -5.3,0 z"
     id="path6950"
     inkscape:connector-curvature="0"
     style="fill:#ffffff" /><path
     class="st0"
     d="m 27.9,20.9 c 0,0 0,-3.6 0,-3.8 0,-0.7 -0.6,-1.2 -1.3,-1.2 -0.7,0 -1.2,0.6 -1.2,1.3 0,0.2 0,3.4 0,3.7 0,2.6 -2.4,4.8 -5.3,4.8 -2.9,0 -5.3,-2.1 -5.3,-4.8 0,-0.3 0,-3.5 0,-3.8 0,-0.7 -0.5,-1.3 -1.2,-1.3 -0.7,0 -1.3,0.5 -1.3,1.2 0,0.2 0,3.9 0,3.9 0,3.6 2.9,6.6 6.6,7.2 l 0,2.4 -3.1,0 c -0.7,0 -1.3,0.6 -1.3,1.3 0,0.7 0.6,1.3 1.3,1.3 l 8.8,0 c 0.7,0 1.3,-0.6 1.3,-1.3 0,-0.7 -0.6,-1.3 -1.3,-1.3 l -3.2,0 0,-2.4 c 3.6,-0.5 6.5,-3.5 6.5,-7.2 z"
     id="path6952"
     inkscape:connector-curvature="0"
     style="fill:#ffffff" /></svg>