<?xml version="1.0" encoding="UTF-8" standalone="no"?>
<!-- Generator: Adobe Illustrator 19.2.0, SVG Export Plug-In . SVG Version: 6.00 Build 0)  -->

<svg
   xmlns:dc="http://purl.org/dc/elements/1.1/"
   xmlns:cc="http://creativecommons.org/ns#"
   xmlns:rdf="http://www.w3.org/1999/02/22-rdf-syntax-ns#"
   xmlns:svg="http://www.w3.org/2000/svg"
   xmlns="http://www.w3.org/2000/svg"
   xmlns:sodipodi="http://sodipodi.sourceforge.net/DTD/sodipodi-0.dtd"
   xmlns:inkscape="http://www.inkscape.org/namespaces/inkscape"
   version="1.1"
   x="0px"
   y="0px"
   viewBox="0 0 50 50"
   style="enable-background:new 0 0 50 50;"
   xml:space="preserve"
   id="svg2"
   inkscape:version="0.91 r13725"
   sodipodi:docname="people-a.svg"><metadata
     id="metadata24"><rdf:RDF><cc:Work
         rdf:about=""><dc:format>image/svg+xml</dc:format><dc:type
           rdf:resource="http://purl.org/dc/dcmitype/StillImage" /><dc:title></dc:title></cc:Work></rdf:RDF></metadata><defs
     id="defs22" /><sodipodi:namedview
     pagecolor="#ff0000"
     bordercolor="#666666"
     borderopacity="1"
     objecttolerance="10"
     gridtolerance="10"
     guidetolerance="10"
     inkscape:pageopacity="0"
     inkscape:pageshadow="2"
     inkscape:window-width="852"
     inkscape:window-height="480"
     id="namedview20"
     showgrid="false"
     inkscape:zoom="4.72"
     inkscape:cx="25"
     inkscape:cy="25"
     inkscape:window-x="0"
     inkscape:window-y="0"
     inkscape:window-maximized="0"
     inkscape:current-layer="svg2" /><style
     type="text/css"
     id="style4">
	.st0{fill:#FFFFFF;}
</style><g
     id="Layer_2" /><g
     id="Layer_1"
     style="fill:#000000;fill-opacity:1"><circle
       class="st0"
       cx="25.6"
       cy="14.8"
       r="8.1"
       id="circle8"
       style="fill:#000000;fill-opacity:1" /><path
       class="st0"
       d="M31.4,27h-11c-4.6,0-8.2,3.9-8.2,8.5v4.3c3.8,2.8,8.1,4.5,13.1,4.5c5.6,0,10.6-2.1,14.4-5.6v-3.2   C39.6,30.9,35.9,27,31.4,27z"
       id="path10"
       style="fill:#000000;fill-opacity:1" /><circle
       class="st0"
       cx="41.6"
       cy="17.1"
       r="3.5"
       id="circle12"
       style="fill:#000000;fill-opacity:1" /><path
       class="st0"
       d="M43.9,23.9h-4.1c-0.9,0-1.7,0.4-2.3,1c1.2,0.6,2.3,1.6,3.1,2.5c1,1.2,1.5,2.7,1.7,4.3c0.3,0.9,0.4,1.8,0.2,2.8   v0.6c1.6-2.2,3.3-6,4-8.1v-0.3C46.5,25.7,45.3,23.9,43.9,23.9z"
       id="path14"
       style="fill:#000000;fill-opacity:1" /><circle
       class="st0"
       cx="9.4"
       cy="18"
       r="3.5"
       id="circle16"
       style="fill:#000000;fill-opacity:1" /><path
       class="st0"
       d="M8.5,35.7c-0.1-0.7-0.1-1.4,0-2.1l0.1-0.2c0-0.2,0-0.4,0-0.6c0-0.2,0-0.3,0.1-0.5c0-0.2,0-0.3,0-0.5   c0.2-2.1,1.6-4.4,3.2-5.7c0.4-0.4,0.9-0.6,1.4-0.9c-0.5-0.5-1.3-0.7-2-0.7H7c-1.4,0-2.6,1.8-2.4,2.7v0.3   C5.1,29.8,6.8,33.5,8.5,35.7z"
       id="path18"
       style="fill:#000000;fill-opacity:1" /></g></svg>