<?xml version="1.0" encoding="utf-8"?>
<!-- Generator: Adobe Illustrator 19.2.0, SVG Export Plug-In . SVG Version: 6.00 Build 0)  -->
<svg version="1.1" xmlns="http://www.w3.org/2000/svg" xmlns:xlink="http://www.w3.org/1999/xlink" x="0px" y="0px"
	 viewBox="0 0 50 50" style="enable-background:new 0 0 50 50;" xml:space="preserve">
<style type="text/css">
	.st0{fill:#FFFFFF;}
</style>
<g id="Layer_2">
</g>
<g id="Layer_1">
	<circle class="st0" cx="25.6" cy="14.8" r="8.1"/>
	<path class="st0" d="M31.4,27h-11c-4.6,0-8.2,3.9-8.2,8.5v4.3c3.8,2.8,8.1,4.5,13.1,4.5c5.6,0,10.6-2.1,14.4-5.6v-3.2
		C39.6,30.9,35.9,27,31.4,27z"/>
	<circle class="st0" cx="41.6" cy="17.1" r="3.5"/>
	<path class="st0" d="M43.9,23.9h-4.1c-0.9,0-1.7,0.4-2.3,1c1.2,0.6,2.3,1.6,3.1,2.5c1,1.2,1.5,2.7,1.7,4.3c0.3,0.9,0.4,1.8,0.2,2.8
		v0.6c1.6-2.2,3.3-6,4-8.1v-0.3C46.5,25.7,45.3,23.9,43.9,23.9z"/>
	<circle class="st0" cx="9.4" cy="18" r="3.5"/>
	<path class="st0" d="M8.5,35.7c-0.1-0.7-0.1-1.4,0-2.1l0.1-0.2c0-0.2,0-0.4,0-0.6c0-0.2,0-0.3,0.1-0.5c0-0.2,0-0.3,0-0.5
		c0.2-2.1,1.6-4.4,3.2-5.7c0.4-0.4,0.9-0.6,1.4-0.9c-0.5-0.5-1.3-0.7-2-0.7H7c-1.4,0-2.6,1.8-2.4,2.7v0.3
		C5.1,29.8,6.8,33.5,8.5,35.7z"/>
</g>
</svg>
