<?xml version="1.0" encoding="utf-8"?>
<!-- Generator: Adobe Illustrator 19.2.0, SVG Export Plug-In . SVG Version: 6.00 Build 0)  -->
<svg version="1.1" id="Layer_1" xmlns="http://www.w3.org/2000/svg" xmlns:xlink="http://www.w3.org/1999/xlink" x="0px" y="0px"
	 viewBox="0 0 50 50" style="enable-background:new 0 0 50 50;" xml:space="preserve">
<style type="text/css">
	.st0{fill:#FFFFFF;}
</style>
<g id="Layer_2">
</g>
<g>
	<path class="st0" d="M25.3,23.7c-0.6,0-1.2,0.2-1.6,0.7S23,25.4,23,26c0,0.6,0.2,1.1,0.7,1.6c0.5,0.5,1,0.7,1.6,0.7
		c0.6,0,1.2-0.2,1.6-0.7c0.5-0.5,0.7-1,0.7-1.6c0-0.6-0.2-1.2-0.7-1.6C26.5,23.9,26,23.7,25.3,23.7z"/>
	<path class="st0" d="M25.3,17.2c-5,0-9,4-9,9c0,5,4,9,9,9s9-4,9-9C34.4,21.2,30.3,17.2,25.3,17.2z M31.5,26c0,0.3-0.1,0.6-0.3,0.8
		c-0.2,0.2-0.5,0.3-0.8,0.3c-0.2,0-0.3,0-0.5-0.1c-0.1,0-0.3,0-0.5-0.1c-0.2,0.6-0.3,1.1-0.6,1.4c0.2,0.1,0.3,0.2,0.4,0.3h0.1
		c0.2,0.1,0.4,0.2,0.4,0.2c0.5,0.5,0.5,1.1,0,1.6c-0.2,0.2-0.5,0.3-0.8,0.3c-0.3,0-0.6-0.1-0.8-0.3c0,0-0.1-0.2-0.2-0.4
		c0,0,0-0.1-0.1-0.1c-0.1-0.1-0.2-0.2-0.2-0.4c-0.4,0.3-0.9,0.5-1.4,0.6c0.1,0.2,0.1,0.4,0.1,0.5c0.1,0.2,0.1,0.3,0.1,0.5
		c0,0.3-0.1,0.6-0.3,0.8c-0.2,0.2-0.5,0.3-0.8,0.3c-0.3,0-0.6-0.1-0.8-0.3c-0.2-0.2-0.3-0.5-0.3-0.8c0-0.2,0-0.3,0.1-0.5
		c0-0.1,0-0.3,0.1-0.5c-0.5-0.1-1-0.3-1.4-0.6c-0.1,0.2-0.2,0.3-0.2,0.4L22.8,30c0,0.1-0.1,0.2-0.2,0.4c-0.2,0.2-0.5,0.3-0.8,0.3
		c-0.3,0-0.6-0.1-0.8-0.3c-0.5-0.5-0.5-1.1,0-1.6c0.1-0.1,0.2-0.2,0.5-0.2c0-0.1,0.2-0.2,0.4-0.3c-0.2-0.3-0.4-0.8-0.6-1.4
		C21.1,27,20.9,27,20.7,27V27c-0.1,0.1-0.2,0.1-0.5,0.1c-0.3,0-0.6-0.1-0.8-0.3c-0.2-0.2-0.3-0.5-0.3-0.8c0-0.3,0.1-0.6,0.3-0.8
		c0.2-0.2,0.5-0.3,0.8-0.3c0.2,0,0.3,0,0.5,0.1c0.1,0,0.3,0,0.5,0.1c0.1-0.5,0.3-1,0.6-1.4c-0.1,0-0.2-0.1-0.4-0.2h-0.1
		c-0.2-0.1-0.3-0.2-0.4-0.3c-0.5-0.5-0.5-1,0-1.5c0.5-0.5,1.1-0.5,1.6,0c0.1,0.1,0.2,0.2,0.2,0.4c0.1,0.1,0.2,0.2,0.3,0.5
		c0.4-0.3,0.9-0.5,1.4-0.6c-0.1-0.2-0.1-0.3-0.1-0.5v-0.1c-0.1-0.2-0.1-0.3-0.1-0.5c0-0.3,0.1-0.6,0.3-0.8c0.2-0.2,0.5-0.3,0.8-0.3
		c0.3,0,0.6,0.1,0.8,0.3c0.2,0.2,0.3,0.5,0.3,0.8c0,0.2,0,0.3-0.1,0.5v0.1c0,0.2,0,0.3-0.1,0.5c0.4,0.1,0.9,0.3,1.4,0.6
		c0-0.2,0.1-0.3,0.2-0.5c0-0.1,0.1-0.2,0.3-0.4c0.2-0.2,0.4-0.3,0.8-0.3c0.3,0,0.6,0.1,0.8,0.3c0.5,0.5,0.5,1.1,0,1.6
		c-0.2,0.2-0.3,0.2-0.4,0.3c-0.1,0.1-0.2,0.2-0.5,0.2c0.3,0.5,0.5,1,0.6,1.4c0.2-0.1,0.3-0.1,0.5-0.1H30c0.2-0.1,0.3-0.1,0.5-0.1
		c0.3,0,0.6,0.1,0.8,0.3C31.4,25.5,31.5,25.7,31.5,26L31.5,26z"/>
</g>
<path class="st0" d="M22.3,15.4v-2.6c0-0.6-0.5-1.2-1.2-1.2c-0.6,0-1.2,0.5-1.2,1.2v3.5C20.7,15.9,21.5,15.6,22.3,15.4z"/>
<path class="st0" d="M25.3,15c0.4,0,0.8,0,1.1,0.1V8.6c0-0.6-0.5-1.2-1.2-1.2S24.1,8,24.1,8.6V15C24.5,15,24.9,15,25.3,15z"/>
<path class="st0" d="M30.6,16.3V3.6c0-0.6-0.5-1.2-1.2-1.2S28.3,3,28.3,3.6v11.7C29.1,15.6,29.9,15.9,30.6,16.3z"/>
<path class="st0" d="M48,24.9h-0.6v-2.1c0-0.6-0.5-1.2-1.2-1.2S45,22.2,45,22.9v2.1h-1.8V12c0-0.6-0.5-1.2-1.2-1.2s-1.2,0.5-1.2,1.2
	v12.9H39v-9.6c0-0.6-0.5-1.2-1.2-1.2c-0.6,0-1.2,0.5-1.2,1.2V36c0,0.6,0.5,1.2,1.2,1.2c0.6,0,1.2-0.5,1.2-1.2v-8.7h1.8v12.9
	c0,0.6,0.5,1.2,1.2,1.2s1.2-0.5,1.2-1.2V27.3H45v2.9c0,0.6,0.5,1.2,1.2,1.2s1.2-0.5,1.2-1.2v-2.9H48c0.6,0,1.2-0.5,1.2-1.2
	S48.6,24.9,48,24.9z"/>
<path class="st0" d="M13.9,12c0-0.6-0.5-1.2-1.2-1.2c-0.6,0-1.2,0.5-1.2,1.2v12.9H9.7v-4.6c0-0.6-0.5-1.2-1.2-1.2
	c-0.6,0-1.2,0.5-1.2,1.2v4.6H5.5v-2.1c0-0.6-0.5-1.2-1.2-1.2s-1.2,0.5-1.2,1.2v2.1H2.6c-0.6,0-1.2,0.5-1.2,1.2s0.5,1.2,1.2,1.2h0.6
	v2.1c0,0.6,0.5,1.2,1.2,1.2s1.2-0.5,1.2-1.2v-2.1h1.8v6.2c0,0.6,0.5,1.2,1.2,1.2c0.6,0,1.2-0.5,1.2-1.2v-6.2h1.8v12.1
	c0,0.6,0.5,1.2,1.2,1.2c0.6,0,1.2-0.5,1.2-1.2V12z"/>
<path class="st0" d="M28.3,37v9.8c0,0.6,0.5,1.2,1.2,1.2s1.2-0.5,1.2-1.2V36.1C29.9,36.5,29.1,36.8,28.3,37z"/>
<path class="st0" d="M25.3,37.5c-0.4,0-0.8,0-1.2-0.1v4.5c0,0.6,0.5,1.2,1.2,1.2s1.2-0.5,1.2-1.2v-4.5
	C26.1,37.4,25.7,37.5,25.3,37.5z"/>
<path class="st0" d="M19.9,36.1v3.3c0,0.6,0.5,1.2,1.2,1.2c0.6,0,1.2-0.5,1.2-1.2V37C21.5,36.8,20.7,36.5,19.9,36.1z"/>
<rect x="12" y="24.6" class="st0" width="6.9" height="3"/>
<rect x="32.9" y="24.6" class="st0" width="5.1" height="3"/>
</svg>
