<?xml version="1.0" encoding="utf-8"?>
<!-- Generator: Adobe Illustrator 19.2.0, SVG Export Plug-In . SVG Version: 6.00 Build 0)  -->
<svg version="1.1" id="Layer_1" xmlns="http://www.w3.org/2000/svg" xmlns:xlink="http://www.w3.org/1999/xlink" x="0px" y="0px"
	 viewBox="0 0 50 50" style="enable-background:new 0 0 50 50;" xml:space="preserve">
<style type="text/css">
	.st0{fill:#FFFFFF;}
</style>
<g id="Layer_2">
</g>
<path class="st0" d="M22.3,15.4v-2.6c0-0.6-0.5-1.2-1.2-1.2c-0.6,0-1.2,0.5-1.2,1.2v3.5C20.7,15.9,21.5,15.6,22.3,15.4z"/>
<path class="st0" d="M25.3,15c0.4,0,0.8,0,1.1,0.1V8.6c0-0.6-0.5-1.2-1.2-1.2S24.1,8,24.1,8.6V15C24.5,15,24.9,15,25.3,15z"/>
<path class="st0" d="M30.6,16.3V3.6c0-0.6-0.5-1.2-1.2-1.2S28.3,3,28.3,3.6v11.7C29.1,15.6,29.9,15.9,30.6,16.3z"/>
<path class="st0" d="M48,24.9h-0.6v-2.1c0-0.6-0.5-1.2-1.2-1.2S45,22.2,45,22.9v2.1h-1.8V12c0-0.6-0.5-1.2-1.2-1.2s-1.2,0.5-1.2,1.2
	v12.9H39v-9.6c0-0.6-0.5-1.2-1.2-1.2c-0.6,0-1.2,0.5-1.2,1.2V36c0,0.6,0.5,1.2,1.2,1.2c0.6,0,1.2-0.5,1.2-1.2v-8.7h1.8v12.9
	c0,0.6,0.5,1.2,1.2,1.2s1.2-0.5,1.2-1.2V27.3H45v2.9c0,0.6,0.5,1.2,1.2,1.2s1.2-0.5,1.2-1.2v-2.9H48c0.6,0,1.2-0.5,1.2-1.2
	S48.6,24.9,48,24.9z"/>
<path class="st0" d="M13.9,12c0-0.6-0.5-1.2-1.2-1.2c-0.6,0-1.2,0.5-1.2,1.2v12.9H9.7v-4.6c0-0.6-0.5-1.2-1.2-1.2
	c-0.6,0-1.2,0.5-1.2,1.2v4.6H5.5v-2.1c0-0.6-0.5-1.2-1.2-1.2s-1.2,0.5-1.2,1.2v2.1H2.6c-0.6,0-1.2,0.5-1.2,1.2s0.5,1.2,1.2,1.2h0.6
	v2.1c0,0.6,0.5,1.2,1.2,1.2s1.2-0.5,1.2-1.2v-2.1h1.8v6.2c0,0.6,0.5,1.2,1.2,1.2c0.6,0,1.2-0.5,1.2-1.2v-6.2h1.8v12.1
	c0,0.6,0.5,1.2,1.2,1.2c0.6,0,1.2-0.5,1.2-1.2V12z"/>
<path class="st0" d="M28.3,37v9.8c0,0.6,0.5,1.2,1.2,1.2s1.2-0.5,1.2-1.2V36.1C29.9,36.5,29.1,36.8,28.3,37z"/>
<path class="st0" d="M25.3,37.5c-0.4,0-0.8,0-1.2-0.1v4.5c0,0.6,0.5,1.2,1.2,1.2s1.2-0.5,1.2-1.2v-4.5
	C26.1,37.4,25.7,37.5,25.3,37.5z"/>
<path class="st0" d="M19.9,36.1v3.3c0,0.6,0.5,1.2,1.2,1.2c0.6,0,1.2-0.5,1.2-1.2V37C21.5,36.8,20.7,36.5,19.9,36.1z"/>
<path class="st0" d="M25.3,17.2c-5,0-9,4-9,9c0,5,4,9,9,9s9-4,9-9C34.4,21.2,30.3,17.2,25.3,17.2z M30.3,26.1l-6,5.4
	c-0.1,0.1-0.2,0.1-0.4,0.1c-0.1,0-0.3,0-0.3-0.1c-0.3-0.1-0.5-0.4-0.5-0.5V20.9c0-0.1,0.2-0.4,0.4-0.5c0.1,0,0.2-0.1,0.3-0.1
	c0.2,0,0.3,0,0.4,0.1l6,4.8c0.1,0.1,0.2,0.3,0.2,0.4C30.5,25.8,30.4,26,30.3,26.1z"/>
<rect x="12" y="24.6" class="st0" width="7.3" height="3"/>
<rect x="32.9" y="24.6" class="st0" width="7.3" height="3"/>
</svg>
