<?xml version="1.0" encoding="utf-8"?>
<!-- Generator: Adobe Illustrator 19.2.0, SVG Export Plug-In . SVG Version: 6.00 Build 0)  -->
<svg version="1.1" xmlns="http://www.w3.org/2000/svg" xmlns:xlink="http://www.w3.org/1999/xlink" x="0px" y="0px"
	 viewBox="0 0 50 50" style="enable-background:new 0 0 50 50;" xml:space="preserve">
<style type="text/css">
	.st0{fill:#FFFFFF;}
</style>
<g id="Layer_2">
</g>
<g id="Layer_1">
	<g>
		<path class="st0" d="M29.1,45H12c-3.5,0-6.4-1.8-8.4-5.1c-1.4-2.4-1.9-4.7-1.9-4.8l-0.3-1.6h10.4V4.8h35.8v27
			c0.1,0.8,0.5,6.6-2.4,10c-1.4,1.6-3.3,2.4-5.6,2.4c-4.8,0-7.2-2.6-8.3-4.7c-0.6-1.2-1-2.3-1.1-3.2H5c0.3,0.7,0.6,1.5,1.1,2.3
			c1.5,2.4,3.5,3.6,5.9,3.6h17.1c0.8,0,1.4,0.6,1.4,1.4C30.5,44.3,29.9,45,29.1,45z M14.6,33.5h18l0.1,1.3c0,0,0.1,1.7,1,3.4
			c1.2,2.1,3.1,3.2,5.8,3.2c1.5,0,2.7-0.5,3.5-1.4c1.2-1.3,1.6-3.3,1.7-4.8c0.2-1.7,0-3.1,0-3.1l0-0.1l0-0.1V7.6H14.6V33.5z"/>
		<path class="st0" d="M39.6,14.3H19.7c-0.8,0-1.5-0.7-1.5-1.5s0.7-1.5,1.5-1.5h19.9c0.8,0,1.5,0.7,1.5,1.5S40.4,14.3,39.6,14.3z"/>
		<path class="st0" d="M39.6,21.3H19.7c-0.8,0-1.5-0.7-1.5-1.6s0.7-1.6,1.5-1.6h19.9c0.8,0,1.5,0.7,1.5,1.6S40.4,21.3,39.6,21.3z"/>
		<path class="st0" d="M39.6,28.1H19.7c-0.8,0-1.5-0.7-1.5-1.6s0.7-1.6,1.5-1.6h19.9c0.8,0,1.5,0.7,1.5,1.6S40.4,28.1,39.6,28.1z"/>
	</g>
</g>
</svg>
