<?xml version="1.0" encoding="UTF-8" standalone="no"?>
<!-- Generator: Adobe Illustrator 19.2.0, SVG Export Plug-In . SVG Version: 6.00 Build 0)  -->

<svg
   xmlns:dc="http://purl.org/dc/elements/1.1/"
   xmlns:cc="http://creativecommons.org/ns#"
   xmlns:rdf="http://www.w3.org/1999/02/22-rdf-syntax-ns#"
   xmlns:svg="http://www.w3.org/2000/svg"
   xmlns="http://www.w3.org/2000/svg"
   xmlns:sodipodi="http://sodipodi.sourceforge.net/DTD/sodipodi-0.dtd"
   xmlns:inkscape="http://www.inkscape.org/namespaces/inkscape"
   version="1.1"
   x="0px"
   y="0px"
   viewBox="0 0 50 50"
   style="enable-background:new 0 0 50 50;"
   xml:space="preserve"
   id="svg2"
   inkscape:version="0.91 r13725"
   sodipodi:docname="scripts-a.svg"><metadata
     id="metadata22"><rdf:RDF><cc:Work
         rdf:about=""><dc:format>image/svg+xml</dc:format><dc:type
           rdf:resource="http://purl.org/dc/dcmitype/StillImage" /><dc:title></dc:title></cc:Work></rdf:RDF></metadata><defs
     id="defs20" /><sodipodi:namedview
     pagecolor="#ff0000"
     bordercolor="#666666"
     borderopacity="1"
     objecttolerance="10"
     gridtolerance="10"
     guidetolerance="10"
     inkscape:pageopacity="0"
     inkscape:pageshadow="2"
     inkscape:window-width="852"
     inkscape:window-height="480"
     id="namedview18"
     showgrid="false"
     inkscape:zoom="4.72"
     inkscape:cx="25"
     inkscape:cy="25"
     inkscape:window-x="0"
     inkscape:window-y="0"
     inkscape:window-maximized="0"
     inkscape:current-layer="svg2" /><style
     type="text/css"
     id="style4">
	.st0{fill:#FFFFFF;}
</style><g
     id="Layer_2" /><g
     id="Layer_1"
     style="fill:#000000;fill-opacity:1"><g
       id="g8"
       style="fill:#000000;fill-opacity:1"><path
         class="st0"
         d="M29.1,45H12c-3.5,0-6.4-1.8-8.4-5.1c-1.4-2.4-1.9-4.7-1.9-4.8l-0.3-1.6h10.4V4.8h35.8v27    c0.1,0.8,0.5,6.6-2.4,10c-1.4,1.6-3.3,2.4-5.6,2.4c-4.8,0-7.2-2.6-8.3-4.7c-0.6-1.2-1-2.3-1.1-3.2H5c0.3,0.7,0.6,1.5,1.1,2.3    c1.5,2.4,3.5,3.6,5.9,3.6h17.1c0.8,0,1.4,0.6,1.4,1.4C30.5,44.3,29.9,45,29.1,45z M14.6,33.5h18l0.1,1.3c0,0,0.1,1.7,1,3.4    c1.2,2.1,3.1,3.2,5.8,3.2c1.5,0,2.7-0.5,3.5-1.4c1.2-1.3,1.6-3.3,1.7-4.8c0.2-1.7,0-3.1,0-3.1l0-0.1l0-0.1V7.6H14.6V33.5z"
         id="path10"
         style="fill:#000000;fill-opacity:1" /><path
         class="st0"
         d="M39.6,14.3H19.7c-0.8,0-1.5-0.7-1.5-1.5s0.7-1.5,1.5-1.5h19.9c0.8,0,1.5,0.7,1.5,1.5S40.4,14.3,39.6,14.3z"
         id="path12"
         style="fill:#000000;fill-opacity:1" /><path
         class="st0"
         d="M39.6,21.3H19.7c-0.8,0-1.5-0.7-1.5-1.6s0.7-1.6,1.5-1.6h19.9c0.8,0,1.5,0.7,1.5,1.6S40.4,21.3,39.6,21.3z"
         id="path14"
         style="fill:#000000;fill-opacity:1" /><path
         class="st0"
         d="M39.6,28.1H19.7c-0.8,0-1.5-0.7-1.5-1.6s0.7-1.6,1.5-1.6h19.9c0.8,0,1.5,0.7,1.5,1.6S40.4,28.1,39.6,28.1z"
         id="path16"
         style="fill:#000000;fill-opacity:1" /></g></g></svg>