<?xml version="1.0" encoding="utf-8"?>
<!-- Generator: Adobe Illustrator 19.2.0, SVG Export Plug-In . SVG Version: 6.00 Build 0)  -->
<svg version="1.1" xmlns="http://www.w3.org/2000/svg" xmlns:xlink="http://www.w3.org/1999/xlink" x="0px" y="0px"
	 viewBox="0 0 50 50" style="enable-background:new 0 0 50 50;" xml:space="preserve">
<style type="text/css">
	.st0{fill:#FFFFFF;}
</style>
<g id="Layer_2">
</g>
<g id="Layer_1">
	<g>
		<path class="st0" d="M38.5,16.3h-3.7v-1.6c0-2.4-1.6-3-4-3H18.7c-2.4,0-3.6,0.5-3.6,3v1.6h-3.6c-2.4,0-4.5,1-4.5,3.5V36
			c0,2.4,1.9,4.6,4.5,4.6h27.1c2.4,0,4.2-2.7,4.2-5.2V19.7C42.8,17.3,41,16.3,38.5,16.3z M25.2,37c-5.5,0-9.9-4.5-9.9-9.9
			c0-5.5,4.5-9.9,9.9-9.9c5.5,0,9.9,4.5,9.9,9.9S30.8,37,25.2,37z"/>
		<circle class="st0" cx="25.2" cy="27" r="5.9"/>
	</g>
</g>
</svg>
