<?xml version="1.0" encoding="utf-8"?>
<!-- Generator: Adobe Illustrator 21.1.0, SVG Export Plug-In . SVG Version: 6.00 Build 0)  -->
<svg version="1.1" id="Layer_1" xmlns="http://www.w3.org/2000/svg" xmlns:xlink="http://www.w3.org/1999/xlink" x="0px" y="0px"
	 viewBox="0 0 50 50" style="enable-background:new 0 0 50 50;" xml:space="preserve">
<path d="M43.9,13.3c-1.3-0.6-2.4-0.3-3.5,0.4c-1.6,1.2-3.3,2.4-5,3.5c-1.4-3.4-3.3-5-6.3-5c-5.9-0.1-11.9-0.1-17.9,0
	c-3.8,0.1-6.4,3.1-6.4,7.3c0,3.7-0.1,7.6,0,11.4c0,1.1,0.2,2.1,0.6,3.1c1.2,2.7,3.3,3.8,6,3.8c5.6,0,11-0.1,16.5,0
	c3.5,0.1,6-1.5,7.4-5.1c1.7,1.2,3.4,2.4,5.1,3.5c1.1,0.7,2.2,1.1,3.5,0.3c1.2-0.7,1.6-1.9,1.6-3.3c0-5.6,0-11,0-16.6
	C45.5,15.3,45.2,14.1,43.9,13.3z M32.2,30.5c0,2.5-1,3.6-3.4,3.6c-2.9,0-5.8,0-8.7,0s-5.6,0-8.5,0.1c-2.4-0.1-3.4-1.2-3.4-3.7
	c0-3.7,0-7.5,0-11.2c0-2.2,1.1-3.4,3.1-3.4c5.9,0,11.9,0,17.8,0c2,0,3.1,1.2,3.1,3.4C32.2,23,32.2,26.8,32.2,30.5z M41.9,32.8
	c-2.1-1.4-4.2-2.9-6.3-4.3c-0.1-0.1-0.2-0.4-0.2-0.7c0-1.9,0-3.7,0-5.5c0-0.3,0.1-0.7,0.3-0.8c2-1.4,4-2.8,6.2-4.3
	C41.9,22.3,41.9,27.4,41.9,32.8z"/>
<path d="M27.4,25C27.4,24.7,27.4,25.2,27.4,25c0-1.1-0.1-2-0.2-2.7c-0.2-1.4-0.7-2.7-1.6-4c-0.2-0.3-0.5-0.5-1-0.6
	c-0.4-0.1-0.9,0-1.3,0.2c-0.5,0.3-0.7,1.3-0.3,1.8c1.2,1.6,1.4,3,1.4,4.8c0.1,2.1-0.2,3.4-1.5,5.2c-0.2,0.3-0.2,1.1,0.1,1.6
	c0.1,0.2,0.3,0.4,0.6,0.6c0.2,0.1,0.3,0.1,0.5,0.1c0.5,0,1-0.3,1.3-0.9C27,29.3,27.3,27.3,27.4,25L27.4,25z"/>
<ellipse cx="15.2" cy="24.7" rx="2.1" ry="2.4"/>
<path d="M22.3,24.8C22.3,24.7,22.3,25,22.3,24.8c0-0.7-0.1-1.5-0.1-1.9c-0.2-1-0.6-2.1-1.3-3c-0.1-0.2-0.4-0.5-0.9-0.5
	c-0.7,0-0.9,0.2-1.2,0.4c-0.4,0.2-0.5,0.9-0.2,1.3c0.9,1.2,1,2.1,1.1,3.5c0,1.6-0.2,2.5-1.1,3.8c-0.1,0.2-0.1,0.7,0,1.2
	c0.1,0.2,0.2,0.3,0.5,0.4c0.1,0,0.2,0.1,0.3,0.1c0.5,0.2,1.2,0.1,1.5-0.5C21.7,28,22.2,26.5,22.3,24.8L22.3,24.8z"/>
</svg>
