<?xml version="1.0" encoding="utf-8"?>
<!-- Generator: Adobe Illustrator 19.2.0, SVG Export Plug-In . SVG Version: 6.00 Build 0)  -->
<svg version="1.1" xmlns="http://www.w3.org/2000/svg" xmlns:xlink="http://www.w3.org/1999/xlink" x="0px" y="0px"
	 viewBox="0 0 50 50" style="enable-background:new 0 0 50 50;" xml:space="preserve">
<style type="text/css">
	.st0{fill:#FFFFFF;}
</style>
<g id="Layer_2">
</g>
<g id="Layer_1">
	<path class="st0" d="M42.2,6.2H8.1c-3.5,0-6.4,3.1-6.4,6.8v18c0,3.8,2.9,6.8,6.4,6.8h15.3v3.5h-8.9c-0.8,0-1.5,0.9-1.5,1.8
		c0,0.9,0.7,1.8,1.5,1.8h21.9c0.8,0,1.5-0.9,1.5-1.8c0-0.9-0.7-1.8-1.5-1.8h-9.6v-3.4c-0.3,0-0.6,0-0.9,0h16.3
		c3.5,0,6.4-3.1,6.4-6.8V13C48.6,9.2,45.7,6.2,42.2,6.2z M45.2,31c0,1.7-1.3,3.1-2.9,3.1H8.1c-1.6,0-2.9-1.4-2.9-3.1V13
		c0-1.7,1.3-3.1,2.9-3.1h34.2c1.6,0,2.9,1.4,2.9,3.1V31z"/>
</g>
</svg>
