<?xml version="1.0" encoding="utf-8"?>
<!-- Generator: Adobe Illustrator 19.2.0, SVG Export Plug-In . SVG Version: 6.00 Build 0)  -->
<svg version="1.1" xmlns="http://www.w3.org/2000/svg" xmlns:xlink="http://www.w3.org/1999/xlink" x="0px" y="0px"
	 viewBox="0 0 50 50" style="enable-background:new 0 0 50 50;" xml:space="preserve">
<style type="text/css">
	.st0{fill:#FFFFFF;}
</style>
<g id="Layer_2">
</g>
<g id="Layer_1">
	<path class="st0" d="M25.4,28.7c1.7,0,2.8,1.8,3.8,3.6c0.5,0.8,1.6,2.6,2,2.6h7.5c4.2,0,7.6-3.8,7.6-8.4v-5.4
		c0-4.6-3.4-8.4-7.6-8.4H11.9c-4.2,0-7.6,3.8-7.6,8.4v5.4c0,4.6,3.4,8.4,7.6,8.4h7.3c0.6,0,1.7-1.6,2.4-2.7
		C22.6,30.5,23.7,28.7,25.4,28.7C25.3,28.7,25.4,28.7,25.4,28.7z"/>
</g>
</svg>
