<svg xmlns="http://www.w3.org/2000/svg" xmlns:xlink="http://www.w3.org/1999/xlink" version="1.1" x="0px" y="0px" viewBox="0 0 96 96" style="enable-background:new 0 0 96 96;" xml:space="preserve"><g><path d="M2.4,70.5c0,6.1,4.9,11,11,11H76c6.1,0,11-4.9,11-11V59.6c3.7-0.7,6.6-3.9,6.6-7.9v-7.5c0-3.9-2.8-7.2-6.6-7.9V25.5   c0-6.1-4.9-11-11-11H13.4c-6.1,0-11,4.9-11,11V70.5z M87.6,51.8c0,1.1-0.9,2-2,2H72.2c-2.8,0-5-2.2-5-5v-1.5c0-2.8,2.2-5,5-5h13.3   c1.1,0,2,0.9,2,2V51.8z M8.4,25.5c0-2.8,2.2-5,5-5H76c2.8,0,5,2.2,5,5v10.7h-8.7c-6.1,0-11,4.9-11,11v1.5c0,6.1,4.9,11,11,11H81   v10.7c0,2.8-2.2,5-5,5H13.4c-2.8,0-5-2.2-5-5V25.5z"></path></g></svg>