<?xml version="1.0" encoding="UTF-8" standalone="no"?>
<svg
   xmlns:dc="http://purl.org/dc/elements/1.1/"
   xmlns:cc="http://creativecommons.org/ns#"
   xmlns:rdf="http://www.w3.org/1999/02/22-rdf-syntax-ns#"
   xmlns:svg="http://www.w3.org/2000/svg"
   xmlns="http://www.w3.org/2000/svg"
   id="svg8"
   version="1.1"
   viewBox="0 0 67.733332 67.733335"
   height="256"
   width="256">
  <defs
     id="defs2">
    <filter
       id="filter3737"
       style="color-interpolation-filters:sRGB;">
      <feColorMatrix
         id="feColorMatrix3735"
         result="fbSourceGraphic"
         values="1 0 0 0 0 0 1 0 0 0 0 0 1 0 0 -0.21 -0.72 -0.07 2 0 " />
      <feColorMatrix
         id="feColorMatrix3755"
         values="0 0 0 -1 0 0 0 0 -1 0 0 0 0 -1 0 0 0 0 1 0"
         in="fbSourceGraphic"
         result="fbSourceGraphicAlpha" />
      <feColorMatrix
         in="fbSourceGraphic"
         result="color1"
         values="180"
         type="hueRotate"
         id="feColorMatrix3757" />
      <feColorMatrix
         result="color2"
         values="1 0 0 0 0 0 1 0 0 0 0 0 1 0 0 -0.21 -0.72 -0.07 2 0 "
         id="feColorMatrix3759" />
    </filter>
    <filter
       id="filter3741"
       style="color-interpolation-filters:sRGB;">
      <feColorMatrix
         id="feColorMatrix3739"
         result="fbSourceGraphic"
         values="1 0 0 0 0 0 1 0 0 0 0 0 1 0 0 -0.21 -0.72 -0.07 2 0 " />
      <feColorMatrix
         id="feColorMatrix3761"
         values="0 0 0 -1 0 0 0 0 -1 0 0 0 0 -1 0 0 0 0 1 0"
         in="fbSourceGraphic"
         result="fbSourceGraphicAlpha" />
      <feColorMatrix
         in="fbSourceGraphic"
         result="color1"
         values="180"
         type="hueRotate"
         id="feColorMatrix3763" />
      <feColorMatrix
         result="color2"
         values="1 0 0 0 0 0 1 0 0 0 0 0 1 0 0 -0.21 -0.72 -0.07 2 0 "
         id="feColorMatrix3765" />
    </filter>
    <filter
       id="filter3745"
       style="color-interpolation-filters:sRGB;">
      <feColorMatrix
         id="feColorMatrix3743"
         result="fbSourceGraphic"
         values="1 0 0 0 0 0 1 0 0 0 0 0 1 0 0 -0.21 -0.72 -0.07 2 0 " />
      <feColorMatrix
         id="feColorMatrix3767"
         values="0 0 0 -1 0 0 0 0 -1 0 0 0 0 -1 0 0 0 0 1 0"
         in="fbSourceGraphic"
         result="fbSourceGraphicAlpha" />
      <feColorMatrix
         in="fbSourceGraphic"
         result="color1"
         values="180"
         type="hueRotate"
         id="feColorMatrix3769" />
      <feColorMatrix
         result="color2"
         values="1 0 0 0 0 0 1 0 0 0 0 0 1 0 0 -0.21 -0.72 -0.07 2 0 "
         id="feColorMatrix3771" />
    </filter>
    <filter
       id="filter3749"
       style="color-interpolation-filters:sRGB;">
      <feColorMatrix
         id="feColorMatrix3747"
         result="fbSourceGraphic"
         values="1 0 0 0 0 0 1 0 0 0 0 0 1 0 0 -0.21 -0.72 -0.07 2 0 " />
      <feColorMatrix
         id="feColorMatrix3773"
         values="0 0 0 -1 0 0 0 0 -1 0 0 0 0 -1 0 0 0 0 1 0"
         in="fbSourceGraphic"
         result="fbSourceGraphicAlpha" />
      <feColorMatrix
         in="fbSourceGraphic"
         result="color1"
         values="180"
         type="hueRotate"
         id="feColorMatrix3775" />
      <feColorMatrix
         result="color2"
         values="1 0 0 0 0 0 1 0 0 0 0 0 1 0 0 -0.21 -0.72 -0.07 2 0 "
         id="feColorMatrix3777" />
    </filter>
    <filter
       id="filter3753"
       style="color-interpolation-filters:sRGB;">
      <feColorMatrix
         id="feColorMatrix3751"
         result="fbSourceGraphic"
         values="1 0 0 0 0 0 1 0 0 0 0 0 1 0 0 -0.21 -0.72 -0.07 2 0 " />
      <feColorMatrix
         id="feColorMatrix3779"
         values="0 0 0 -1 0 0 0 0 -1 0 0 0 0 -1 0 0 0 0 1 0"
         in="fbSourceGraphic"
         result="fbSourceGraphicAlpha" />
      <feColorMatrix
         in="fbSourceGraphic"
         result="color1"
         values="180"
         type="hueRotate"
         id="feColorMatrix3781" />
      <feColorMatrix
         result="color2"
         values="1 0 0 0 0 0 1 0 0 0 0 0 1 0 0 -0.21 -0.72 -0.07 2 0 "
         id="feColorMatrix3783" />
    </filter>
  </defs>
  <metadata
     id="metadata5">
    <rdf:RDF>
      <cc:Work
         rdf:about="">
        <dc:format>image/svg+xml</dc:format>
        <dc:type
           rdf:resource="http://purl.org/dc/dcmitype/StillImage" />
        <dc:title></dc:title>
      </cc:Work>
    </rdf:RDF>
  </metadata>
  <g
     transform="translate(0,-229.26665)"
     id="layer1">
    <path
       id="path3719"
       d="m 47.58248,232.15716 c -0.05338,0 -0.381483,-0.0141 -0.408329,0 -0.04304,0.0227 -0.05904,0.0848 -0.102078,0.10745 -0.03043,0.0161 -0.07164,-0.0161 -0.102078,0 -0.04304,0.0228 -0.05642,0.0914 -0.102077,0.10746 -0.153124,0.0537 -0.178644,-0.0269 -0.306247,0 -0.137574,0.0288 -0.269938,0.0831 -0.408328,0.10734 -0.06713,0.0122 -0.138141,-0.0174 -0.204164,0 -0.177773,0.0467 -0.305415,0.23951 -0.51041,0.2148 -0.06673,0.014 -0.137436,-0.014 -0.204165,0 -0.105513,0.0223 -0.202781,0.0763 -0.306247,0.10746 -0.134899,0.0406 -0.273428,0.0669 -0.408328,0.10746 -0.421124,0.12657 -0.191369,0.0882 -0.612493,0.2148 -0.1349,0.0405 -0.269938,0.0831 -0.408328,0.10734 -0.06713,0.0122 -0.139598,-0.0226 -0.204165,0 -0.144366,0.0506 -0.263961,0.16418 -0.408327,0.2148 -0.228263,0.0799 -0.518349,-0.2182 -0.714575,0.10734 -0.114882,0.0453 -0.189855,0.17403 -0.306247,0.2148 -0.09684,0.034 -0.206147,-0.0211 -0.306247,0 -0.07461,0.0157 -0.133512,0.0776 -0.204163,0.10734 -0.0999,0.0421 -0.204169,0.0717 -0.306247,0.10745 -0.102077,0.0358 -0.200733,0.0852 -0.306246,0.10734 -0.06673,0.014 -0.147544,-0.0397 -0.204164,0 -0.0633,0.0444 -0.04828,0.15822 -0.102077,0.2148 -0.193482,0.20348 -0.264908,0.0427 -0.510412,0.10734 -0.04668,0.0123 -0.06203,0.0793 -0.102077,0.10746 -0.06331,0.0443 -0.140858,0.0629 -0.204164,0.10733 -0.04003,0.028 -0.05539,0.0951 -0.102077,0.10734 -0.09904,0.026 -0.207212,-0.026 -0.306247,0 -0.09337,0.0246 -0.112858,0.1828 -0.204165,0.2148 -0.06457,0.0226 -0.139597,-0.0226 -0.204163,0 -0.04564,0.0161 -0.05904,0.0848 -0.102078,0.10746 -0.03043,0.0161 -0.07164,-0.0161 -0.102077,0 -0.04304,0.0228 -0.05904,0.0848 -0.102078,0.10746 -0.03043,0.0161 -0.06979,-0.011 -0.102078,0 -0.07218,0.0253 -0.131975,0.082 -0.204164,0.10733 -0.03228,0.011 -0.07165,-0.0159 -0.102078,0 -0.04304,0.0226 -0.05904,0.0848 -0.102077,0.10746 -0.03043,0.0159 -0.06979,-0.011 -0.102078,0 -0.07218,0.0252 -0.131987,0.082 -0.204164,0.10733 -0.0719,0.0252 -0.380938,-0.0288 -0.408328,0 -0.02406,0.0253 0.02406,0.082 0,0.10734 -0.04812,0.0506 -0.1433,-0.032 -0.204165,0 -0.04304,0.0228 -0.05904,0.0848 -0.102077,0.10746 -0.06086,0.032 -0.156047,-0.0506 -0.204165,0 -0.02406,0.0252 0.02406,0.082 0,0.10733 -0.04812,0.0506 -0.143298,-0.032 -0.204163,0 -0.04304,0.0228 -0.05904,0.0848 -0.102078,0.10746 -0.03043,0.0161 -0.07164,-0.0161 -0.102078,0 -0.04304,0.0228 -0.05904,0.0848 -0.102077,0.10746 -0.03043,0.0161 -0.07164,-0.0161 -0.102078,0 -0.04304,0.0226 -0.05904,0.0847 -0.102077,0.10733 -0.03043,0.0161 -0.06979,-0.011 -0.102078,0 -0.07219,0.0253 -0.131986,0.0821 -0.204163,0.10746 -0.03228,0.0109 -0.07165,-0.0161 -0.102078,0 -0.04304,0.0226 -0.06203,0.0792 -0.102078,0.10733 -0.0633,0.0444 -0.140859,0.063 -0.204164,0.10746 -0.186783,0.13107 -0.01018,0.13691 -0.306247,0.21479 -0.06602,0.0174 -0.13814,-0.0174 -0.204163,0 -0.07382,0.0195 -0.130345,0.088 -0.204165,0.10746 -0.06602,0.0174 -0.143299,-0.032 -0.204164,0 -0.08608,0.0453 -0.118084,0.16953 -0.204165,0.2148 -0.06086,0.032 -0.136104,0 -0.204163,0 -0.102078,0 -0.207211,-0.026 -0.306247,0 -0.04668,0.0123 -0.06805,0.0717 -0.102078,0.10746 -0.103766,0.10916 -0.141442,0.17148 -0.306245,0.21481 -0.06602,0.0174 -0.136105,0 -0.204165,0 -0.03402,0.0359 -0.05642,0.0914 -0.102077,0.10745 -0.06457,0.0226 -0.139599,-0.0226 -0.204165,0 -0.09131,0.032 -0.112858,0.1828 -0.204164,0.21481 -0.06457,0.0226 -0.13814,-0.0174 -0.204164,0 -0.152792,0.0402 -0.40063,0.26452 -0.510411,0.3222 -0.03043,0.0161 -0.07165,-0.0161 -0.102078,0 -0.04304,0.0226 -0.06203,0.0792 -0.102077,0.10733 -0.06331,0.0444 -0.136105,0.0717 -0.204165,0.10746 -0.03402,0 -0.07165,-0.0161 -0.102077,0 -0.04304,0.0228 -0.06203,0.0794 -0.102078,0.10746 -0.06331,0.0444 -0.136105,0.0717 -0.204165,0.10746 -0.03402,0 -0.07165,-0.0161 -0.102077,0 -0.04304,0.0226 -0.05904,0.0848 -0.102078,0.10745 -0.03043,0.0161 -0.06979,-0.011 -0.102078,0 -0.07219,0.0252 -0.136105,0.0716 -0.204164,0.10734 -0.03402,0 -0.06979,-0.011 -0.102078,0 -0.07219,0.0253 -0.130344,0.088 -0.204164,0.10746 -0.06602,0.0174 -0.139597,-0.0226 -0.204164,0 -0.04565,0.0161 -0.05904,0.0848 -0.102077,0.10745 -0.04047,0.0213 -0.28538,-0.0219 -0.306247,0 -0.02406,0.0253 0.02406,0.082 0,0.10734 -0.02406,0.0253 -0.07164,-0.0159 -0.102078,0 -0.04304,0.0226 -0.05904,0.0848 -0.102077,0.10745 -0.06086,0.032 -0.143299,-0.032 -0.204164,0 -0.04304,0.0226 -0.05904,0.0847 -0.102077,0.10734 -0.03043,0.0161 -0.07164,-0.0159 -0.102078,0 -0.311336,0.16381 0.186702,0.0852 -0.306247,0.21481 -0.06602,0.0174 -0.143299,-0.032 -0.204164,0 -0.03043,0.0159 0.03043,0.0914 0,0.10733 -0.06087,0.032 -0.139597,-0.0226 -0.204163,0 -0.04565,0.0161 -0.06203,0.0794 -0.102078,0.10746 -0.06331,0.0444 -0.131987,0.0821 -0.204165,0.10745 -0.312322,0.1099 0.254757,-0.35763 -0.408327,0.10746 -0.02832,0.02 0.02406,0.0822 0,0.10746 -0.0538,0.0566 -0.140859,0.0629 -0.204165,0.10733 -0.289055,0.20271 0.193468,0.0689 -0.408329,0.32222 -0.06319,0.0266 -0.139597,-0.0226 -0.204163,0 -0.09131,0.032 -0.124087,0.15857 -0.204165,0.21479 -0.5157,0.36176 -0.0023,8.5e-4 -0.306247,0.10746 -0.144366,0.0506 -0.263963,0.16416 -0.408327,0.21479 -0.03228,0.011 -0.07165,-0.0159 -0.102078,0 -0.08608,0.0453 -0.118084,0.16953 -0.204165,0.2148 -0.03043,0.0161 -0.07802,-0.0253 -0.102077,0 -0.02406,0.0253 0.02406,0.0822 0,0.10746 -0.04812,0.0506 -0.156047,-0.0506 -0.204165,0 -0.02406,0.0253 0.02406,0.0822 0,0.10746 -0.02406,0.0253 -0.07165,-0.0161 -0.102077,0 -0.467191,0.24571 0.433175,-0.0445 -0.306247,0.2148 -0.03227,0.011 -0.07165,-0.0161 -0.102078,0 -0.424836,0.22333 0.109134,-0.007 -0.102077,0.21481 -0.0538,0.0566 -0.131976,0.082 -0.204165,0.10733 -0.03228,0.011 -0.07802,-0.0253 -0.102078,0 -0.02406,0.0253 0.02406,0.0821 0,0.10746 -0.02406,0.0253 -0.06979,-0.0109 -0.102077,0 -0.07219,0.0253 -0.140859,0.063 -0.204165,0.10746 -0.04003,0.0281 -0.06805,0.0717 -0.102077,0.10745 -0.03402,0 -0.07165,-0.0161 -0.102078,0 -0.04304,0.0226 -0.05642,0.0914 -0.102078,0.10734 -0.06457,0.0226 -0.143298,-0.032 -0.204163,0 -0.03043,0.0161 0.02406,0.0821 0,0.10746 -0.02406,0.0253 -0.06979,-0.011 -0.102078,0 -0.07219,0.0253 -0.131987,0.0821 -0.204164,0.10745 -0.06457,0.0226 -0.143288,-0.032 -0.204165,0 -0.04304,0.0228 -0.05904,0.0848 -0.102077,0.10746 -0.06086,0.032 -0.156045,-0.0506 -0.204164,0 -0.211211,0.2221 0.322763,-0.009 -0.102077,0.21479 -0.03043,0.0161 -0.07165,-0.0159 -0.102078,0 -0.46719,0.24572 0.433177,-0.0445 -0.306247,0.21481 -0.225308,0.0791 0.02819,-0.13701 -0.204164,0.10746 -0.03043,0.0159 -0.07165,-0.0161 -0.102078,0 -0.04304,0.0226 -0.05904,0.0847 -0.102077,0.10733 -0.03043,0.0161 -0.07165,-0.0161 -0.102078,0 -0.04304,0.0228 -0.05904,0.0848 -0.102078,0.10746 -0.03043,0.0161 -0.07165,-0.0159 -0.102077,0 -0.04304,0.0228 -0.05904,0.0848 -0.102078,0.10745 -0.06086,0.032 -0.156046,-0.0506 -0.204164,0 -0.02406,0.0253 0,0.0717 0,0.10746 -0.06805,0.0716 -0.136104,0.14325 -0.204164,0.21481 -0.05662,0.0397 -0.143299,-0.032 -0.204164,0 -0.08608,0.0453 -0.112858,0.1828 -0.204165,0.2148 -0.06457,0.0226 -0.139598,-0.0226 -0.204164,0 -0.04565,0.0159 -0.06203,0.0792 -0.102078,0.10734 -0.0633,0.0444 -0.150367,0.0509 -0.204165,0.10745 -0.02406,0.0253 0.02406,0.0821 0,0.10746 -0.02406,0.0253 -0.07165,-0.0161 -0.102077,0 -0.04304,0.0226 -0.05904,0.0848 -0.102078,0.10746 -0.03043,0.0161 -0.07802,-0.0253 -0.102077,0 -0.02406,0.0253 0.02406,0.0821 0,0.10745 -0.02406,0.0253 -0.07165,-0.0161 -0.102078,0 -0.08608,0.0453 -0.118083,0.16953 -0.204163,0.2148 -0.06088,0.032 -0.1433,-0.032 -0.204165,0 -0.04304,0.0228 -0.05642,0.0914 -0.102078,0.10745 -4.62e-4,1.6e-4 -0.306148,-1.1e-4 -0.306246,0 -0.02406,0.0253 0.02406,0.0821 0,0.10746 -0.02406,0.0253 -0.07165,-0.0161 -0.102078,0 -0.04304,0.0228 -0.05904,0.0848 -0.102078,0.10746 -0.03043,0.0159 -0.07165,-0.0161 -0.102077,0 -0.04304,0.0226 -0.05904,0.0847 -0.102078,0.10733 -0.03043,0.0161 -0.07802,-0.0253 -0.102077,0 -0.02406,0.0253 0.03043,0.0915 0,0.10746 -0.06086,0.032 -0.143289,-0.032 -0.204165,0 -0.03043,0.0161 0.02406,0.0821 0,0.10746 -0.04812,0.0506 -0.1433,-0.032 -0.204164,0 -0.04304,0.0226 -0.05904,0.0847 -0.102078,0.10733 -0.03043,0.0161 -0.07165,-0.0159 -0.102078,0 -0.04304,0.0228 -0.05904,0.0848 -0.102077,0.10746 -0.03043,0.0159 -0.07802,-0.0253 -0.102078,0 -0.02704,0.0285 0.06232,0.2653 -0.102078,0.21479 -0.0633,0.0444 -0.140859,0.063 -0.204164,0.10746 -0.04003,0.028 -0.05904,0.0847 -0.102078,0.10734 -0.03043,0.0161 -0.06979,-0.011 -0.102077,0 -0.09012,0.0316 -0.531711,0.26561 -0.612494,0.3222 -0.135022,0.0947 -0.199238,0.34435 -0.408328,0.3222 -0.241271,0.15231 -0.438872,0.17717 -0.714574,0.32221 -0.04304,0.0226 -0.06203,0.0792 -0.102078,0.10734 -0.06331,0.0444 -0.150367,0.0509 -0.204165,0.10745 -0.0538,0.0566 -0.04828,0.15822 -0.102077,0.21481 -0.0538,0.0567 -0.140859,0.063 -0.204165,0.10745 -0.04003,0.0281 -0.06203,0.0794 -0.102077,0.10746 -0.01902,0.0134 -0.401736,0.2075 -0.408329,0.21481 -0.0538,0.0566 -0.04828,0.1582 -0.102078,0.21479 -0.02406,0.0253 -0.0698,-0.0109 -0.102078,0 -0.07219,0.0253 -0.140858,0.063 -0.204163,0.10746 -0.234516,0.16449 0.04377,0.0613 -0.204165,0.3222 -0.0538,0.0566 -0.140859,0.0629 -0.204164,0.10733 -0.08008,0.0562 -0.118084,0.16954 -0.204165,0.21481 -0.03043,0.0161 -0.07164,-0.0159 -0.102077,0 -0.46719,0.24571 0.433177,-0.0445 -0.306246,0.2148 -0.03227,0.011 -0.07165,-0.0161 -0.102077,0 -0.04304,0.0226 -0.06805,0.0716 -0.102078,0.10734 -0.07973,0.0838 -0.218165,0.26038 -0.306247,0.3222 -0.06331,0.0444 -0.136104,0.0717 -0.204163,0.10746 -0.03402,0 -0.07165,-0.0161 -0.102078,0 -0.08608,0.0453 -0.118084,0.16953 -0.204164,0.2148 -0.03043,0.0159 -0.07802,-0.0253 -0.102078,0 -0.211211,0.22209 0.322764,-0.009 -0.102078,0.21479 -0.06086,0.032 -0.156045,-0.0506 -0.204163,0 -0.02406,0.0253 0.02406,0.0821 0,0.10746 -0.04812,0.0506 -0.143295,-0.032 -0.204165,0 -0.04304,0.0226 -0.05904,0.0847 -0.102082,0.10733 -0.03044,0.0161 -0.07802,-0.0253 -0.102082,0 -0.02406,0.0253 0.02406,0.0821 0,0.10746 -0.02406,0.0253 -0.07165,-0.0161 -0.102083,0 -0.08608,0.0453 -0.118081,0.16952 -0.204164,0.21479 -0.03044,0.0161 -0.07802,-0.0253 -0.102082,0 -0.02406,0.0253 0.02406,0.0821 0,0.10746 -0.02406,0.0253 -0.07802,-0.0253 -0.102082,0 -0.02406,0.0253 0.01522,0.0754 0,0.10746 -0.212424,0.44691 0.007,-0.11488 -0.204165,0.10733 -0.02406,0.0254 0.02406,0.0822 0,0.10746 -0.04812,0.0506 -0.1432936,-0.032 -0.2041642,0 -0.086083,0.0453 -0.1180812,0.16954 -0.2041642,0.21481 -0.060871,0.032 -0.1560426,-0.0506 -0.2041643,0 -0.024061,0.0253 0.024061,0.0821 0,0.10745 -0.068009,0.0716 -0.1361556,-0.0716 -0.2041641,0 -0.024061,0.0253 0.024061,0.0821 0,0.10746 -0.024061,0.0253 -0.078021,-0.0253 -0.1020823,0 -0.024061,0.0253 0.024061,0.0821 0,0.10746 -0.024061,0.0253 -0.078021,-0.0253 -0.1020822,0 -0.024061,0.0253 0.024061,0.0821 0,0.10745 -0.024061,0.0253 -0.07377,-0.0198 -0.1020823,0 -0.08008,0.0562 -0.1361093,0.14325 -0.2041642,0.21481 -0.034027,0.0359 -0.059041,0.0848 -0.1020822,0.10746 -0.060869,0.032 -0.1432947,-0.032 -0.2041642,0 -0.086083,0.0453 -0.1180813,0.16953 -0.2041643,0.2148 -0.030435,0.0161 -0.071648,-0.0159 -0.1020822,0 -0.2257093,0.11878 -0.031678,0.0667 -0.1020823,0.21481 -0.212423,0.44703 0.00704,-0.11476 -0.2041643,0.10745 -0.024061,0.0253 0.024061,0.0821 0,0.10746 -0.024061,0.0253 -0.078021,-0.0253 -0.1020822,0 -0.024061,0.0253 0.024061,0.082 0,0.10733 -0.024061,0.0253 -0.078021,-0.0253 -0.1020823,0 -0.048122,0.0506 0.048122,0.16418 0,0.21481 -0.024061,0.0253 -0.078021,-0.0253 -0.1020822,0 -0.048122,0.0506 0.048122,0.16418 0,0.2148 -0.024061,0.0253 -0.071647,-0.0161 -0.1020823,0 -0.043042,0.0226 -0.068055,0.0717 -0.1020823,0.10746 -0.034027,0.0359 -0.080561,0.0622 -0.1020822,0.10746 -0.015217,0.0321 0.024061,0.0821 0,0.10746 -0.024061,0.0253 -0.078021,-0.0253 -0.1020823,0 -0.024061,0.0253 0.024061,0.082 0,0.10733 -0.048122,0.0506 -0.1560425,-0.0506 -0.2041641,0 -0.024061,0.0253 0.024061,0.0822 0,0.10746 -0.024061,0.0253 -0.078021,-0.0253 -0.1020823,0 -0.048122,0.0506 0.048122,0.16417 0,0.21479 -0.024061,0.0253 -0.078021,-0.0253 -0.1020822,0 -0.048122,0.0506 0.030435,0.15079 0,0.21481 -0.021521,0.0454 -0.080561,0.0622 -0.1020823,0.10745 -0.015217,0.0321 0.015217,0.0755 0,0.10746 -0.021521,0.0454 -0.080562,0.0622 -0.1020823,0.10746 -0.035256,0.0742 0.035833,0.49928 0,0.537 -0.024061,0.0253 -0.078021,-0.0253 -0.1020822,0 -0.024061,0.0253 0,0.0717 0,0.10746 0,0.0359 -0.024061,0.0821 0,0.10746 0.024061,0.0253 0.078021,-0.0253 0.1020822,0 0.020869,0.0219 -0.020237,0.2796 0,0.3222 0.021521,0.0453 0.080562,0.0622 0.1020823,0.10745 0.030435,0.064 -0.048122,0.16417 0,0.2148 0.024061,0.0253 0.078021,-0.0253 0.1020823,0 0.024061,0.0253 -0.024061,0.0821 0,0.10745 0.024061,0.0253 0.078021,-0.0253 0.1020822,0 0.024061,0.0253 -0.024061,0.0822 0,0.10746 0.024061,0.0253 0.071648,-0.0161 0.1020823,0 0.1224984,0.0645 0.1837477,0.25782 0.3062463,0.3222 0.068055,0.0359 0.317871,-0.096 0.3062463,0.10746 0.08008,0.0561 0.1128591,0.18279 0.2041641,0.21479 0.064563,0.0226 0.1396015,-0.0226 0.2041643,0 0.069125,0.0242 0.2282671,0.2812 0.3062463,0.32221 0.030435,0.016 0.069802,-0.0109 0.1020823,0 0.072183,0.0253 0.1319811,0.0822 0.2041642,0.10746 0.032282,0.011 0.071647,-0.0161 0.1020822,0 0.1224986,0.0645 0.1837479,0.25783 0.3062463,0.3222 0.040475,0.0213 0.2853775,-0.0219 0.3062465,0 0.024061,0.0253 -0.030435,0.0914 0,0.10746 0.060869,0.032 0.1381416,-0.0174 0.2041641,0 0.4929489,0.12961 -0.00505,0.051 0.3062463,0.21479 0.030435,0.0161 0.068055,0 0.1020823,0 0.034027,0 0.068055,0 0.1020827,0 0.412544,0 0.659468,0.006 1.122902,0.21481 l 53.082699,0.3222 c -0.721835,-0.0998 0.144367,0.49252 10e-7,0.64441 -0.02406,0.0253 -0.07802,-0.0253 -0.102078,0 -0.0032,0.004 0,0.29615 0,0.3222 0,0.53701 0,1.07401 0,1.61102 0,0.25059 0,0.5012 0,0.7518 0,0.10745 0,0.2148 0,0.3222 0,0.0716 0.01651,0.14534 0,0.2148 -0.01845,0.0776 -0.08363,0.13714 -0.102077,0.21481 -0.01651,0.0695 0,0.1432 0,0.2148 0,0.179 0,0.35801 0,0.53701 0,0.4654 0,0.9308 0,1.39621 0,0.25059 0,0.5012 0,0.7518 0,0.0358 -0.02406,0.0821 0,0.10745 0.02406,0.0253 0.07802,-0.0253 0.102077,0 0.02406,0.0253 0,0.0716 0,0.10746 0,0.0358 0,0.0716 0,0.10746 0,0.0761 -0.0132,0.61663 0,0.6444 0.02153,0.0453 0.08056,0.0621 0.102078,0.10746 0.01846,0.0388 0,0.46231 0,0.537 0,0.42961 0,0.85921 0,1.28882 0,0.39381 0,0.7876 0,1.18141 0,0.0747 0.01846,0.49817 0,0.537 -0.02153,0.0453 -0.08056,0.0621 -0.102078,0.10746 -0.01846,0.0388 0,0.46231 0,0.537 0,0.35801 0,0.71601 0,1.07402 0,0.0912 0.01876,0.58519 0,0.64441 -0.01522,0.0481 -0.08056,0.0621 -0.102077,0.10734 -0.01522,0.032 0,0.0716 0,0.10745 0,0.12687 0.02023,0.58055 0,0.64442 -0.01522,0.0481 -0.08687,0.0594 -0.102078,0.10733 -0.03616,0.11415 0.03616,0.31549 0,0.42961 -0.02406,0.0759 -0.07802,0.13886 -0.102078,0.21479 -0.01076,0.034 0,0.0716 0,0.10746 0,0.10405 0.02029,0.58037 0,0.6444 -0.02406,0.0759 -0.07802,0.13886 -0.102077,0.21481 -0.01876,0.0593 0.02183,0.40664 0,0.42959 -0.02406,0.0253 -0.07802,-0.0253 -0.102078,0 -0.02183,0.023 0.01876,0.3704 0,0.42961 -0.02406,0.0759 -0.07802,0.13886 -0.102078,0.21481 -0.02739,0.0864 0.03262,0.36097 0,0.4296 -0.02151,0.0453 -0.08056,0.0621 -0.102077,0.10745 -0.01846,0.0388 0,0.4623 0,0.53701 0,0.179 0,0.358 0,0.537 0,0.10746 0.03228,0.22031 0,0.3222 -0.01522,0.0481 -0.08056,0.0621 -0.102078,0.10746 -0.03207,0.0675 0.03207,0.36211 0,0.42961 -0.02153,0.0453 -0.08056,0.0621 -0.102077,0.10746 -0.02948,0.0621 0.02504,0.53904 0,0.6444 -0.01845,0.0776 -0.07802,0.13887 -0.102078,0.2148 -0.02865,0.0904 0.03039,0.47307 0,0.53701 -0.03649,0.0768 -0.167668,0.138 -0.204165,0.2148 -0.03208,0.0676 0.03207,0.3621 0,0.4296 -0.02153,0.0453 -0.08056,0.0622 -0.102077,0.10746 -0.0322,0.0678 0.0322,0.46924 0,0.537 -0.02153,0.0453 -0.08056,0.0621 -0.102078,0.10746 -0.02769,0.0583 0.02793,0.40022 0,0.42961 -0.02406,0.0253 -0.07802,-0.0253 -0.102078,0 -0.0046,0.005 0,0.48636 0,0.53701 0,0.0358 0.02406,0.0821 0,0.10733 -0.02406,0.0253 -0.07802,-0.0253 -0.102077,0 -0.06801,0.0716 0.06801,0.14325 0,0.21481 -0.02406,0.0253 -0.07802,-0.0253 -0.102078,0 -0.03583,0.0377 0.03526,0.46282 0,0.537 -0.02153,0.0453 -0.102077,0.0567 -0.102077,0.10746 0,0.0358 0.102077,-0.0358 0.102077,0 0,0.0358 -0.08687,-0.032 -0.102077,0 -0.01201,0.0252 0,0.35905 0,0.42961 0,0.0483 0.01553,0.28951 0,0.3222 -0.02153,0.0453 -0.08056,0.0621 -0.102078,0.10746 -0.01514,0.0319 0,0.54052 0,0.64441 0,0.10113 0.01935,0.4759 0,0.53699 -0.01522,0.0481 -0.08687,0.0594 -0.102078,0.10746 -0.02314,0.073 0.02707,0.48005 0,0.53701 -0.02153,0.0453 -0.08056,0.0621 -0.102077,0.10733 -0.01553,0.0327 0,0.27384 0,0.3222 0,0.28641 0,0.57281 0,0.85921 0,0.11245 0.02075,0.55707 0,0.64441 -0.01845,0.0777 -0.07802,0.13886 -0.102078,0.21481 -0.02221,0.0701 0,0.51599 0,0.6444 0,0.2148 0,0.4296 0,0.6444 0,0.0358 0,0.0716 0,0.10746 0,0.0358 0.01522,0.0753 0,0.10746 -0.02153,0.0453 -0.08056,0.0621 -0.102078,0.10733 -0.01553,0.0327 0,0.27384 0,0.32221 0,0.0358 -0.02406,0.0822 0,0.10746 0.02406,0.0253 0.07802,-0.0253 0.102078,0 0.0042,0.005 0,0.39016 0,0.4296 0,0.0394 0.0042,0.42529 0,0.42961 -0.02406,0.0253 -0.06805,0 -0.102078,0"
       style="fill:none;stroke:#000000;stroke-width:3;stroke-linecap:round;stroke-linejoin:round;stroke-miterlimit:4;stroke-dasharray:none;stroke-opacity:1;filter:url(#filter3753)" />
    <path
       id="path3721"
       d="m 6.1375282,254.49902 c 0,0.21479 0,0.4296 0,0.6444 0,0.0358 0.015216,0.0753 0,0.10746 -0.040806,0.0859 -0.163359,0.12895 -0.2041643,0.2148 -0.015534,0.0327 0,0.27384 0,0.32221 0,0.2148 0,0.4296 0,0.6444 0,0.10745 0.032281,0.22031 0,0.32221 -0.015216,0.0481 -0.086865,0.0594 -0.1020822,0.10746 -0.021521,0.0679 0,0.1432 0,0.2148 0,0.21481 0,0.4296 0,0.6444 0,0.10746 0.024759,0.21801 0,0.3222 -0.011672,0.0492 -0.090411,0.0583 -0.1020823,0.10746 -0.018342,0.0772 0,0.52598 0,0.6444 0,0.35801 0,0.71601 0,1.07401 0,0.17901 0,0.35801 0,0.53701 0,0.0716 0,0.1432 0,0.2148 0,0.0358 -0.015216,0.0753 0,0.10746 0.02152,0.0453 0.086865,0.0594 0.1020823,0.10734 0.018292,0.0578 0,0.33868 0,0.42961 0,0.3222 0,0.6444 0,0.9666 0,0.0976 0.02209,0.68209 0,0.75181 -0.030436,0.096 -0.1611228,0.12424 -0.2041643,0.2148 -0.02699,0.0568 0.012434,0.37728 0,0.42961 -0.018454,0.0777 -0.078021,0.13886 -0.1020823,0.2148 -0.010757,0.034 0,0.0716 0,0.10745 0,0.0716 0,0.1432 0,0.21481 0,0.21479 0,0.42959 0,0.6444 0,0.10746 0.020021,0.21689 0,0.3222 -0.014922,0.0785 -0.073824,0.14047 -0.1020822,0.21481 -0.039962,0.10514 -0.08098,0.21119 -0.1020823,0.3222 -0.013346,0.0702 0,0.1432 0,0.2148 0,0.10746 0,0.21479 0,0.3222 0,0.2506 0,0.5012 0,0.7518 0,1.00242 0,2.00482 0,3.00724 0,1.86161 0,3.72322 0,5.58485 0,0.537 0,1.074 0,1.611 0,0.17901 0,0.35801 0,0.53701 0,0.0358 0,0.0716 0,0.10746 0,0.0358 -0.015216,0.0753 0,0.10745 0.02152,0.0453 0.080561,0.0621 0.1020823,0.10746 0.015534,0.0327 0,0.27384 0,0.32221 0,0.2506 0,0.50121 0,0.7518 0,0.0256 -0.01144,0.40554 0,0.42961 0.02152,0.0453 0.080561,0.0621 0.1020822,0.10734 0.015534,0.0327 0,0.27384 0,0.32221 0,0.2864 0,0.5728 0,0.85921 0,0.0561 -0.01342,0.40135 0,0.42959 0.02152,0.0453 0.080561,0.0621 0.1020823,0.10746 0.030993,0.0652 -0.030993,0.57919 0,0.6444 0.126143,0.26543 0.1020823,-0.0371 0.1020823,0.21481 0,0.0716 0,0.1432 0,0.21479 0,0.0358 -0.015216,0.0754 0,0.10746 0.02152,0.0453 0.080561,0.0621 0.1020822,0.10745 0.015216,0.032 0,0.0716 0,0.10746 0,0.0716 0,0.14321 0,0.2148 0,0.17901 0,0.35801 0,0.53701 0,0.0716 0,0.1432 0,0.2148 0,0.0358 -0.015216,0.0753 0,0.10746 0.02152,0.0453 0.080561,0.0621 0.1020823,0.10746 0.030993,0.0652 -0.030994,0.57918 0,0.6444 0.021521,0.0453 0.080561,0.0621 0.1020822,0.10746 0.0322,0.0678 -0.0322,0.46926 0,0.537 0.02152,0.0453 0.09041,0.0583 0.1020823,0.10746 0.033012,0.13893 -0.033011,0.29068 0,0.4296 0.026099,0.10977 0.075984,0.21238 0.1020822,0.32221 0.00826,0.0347 0,0.0716 0,0.10734 0,0.17321 -0.021875,0.48329 0,0.6444 0.024538,0.18072 0.077544,0.3563 0.1020823,0.537 0.014435,0.10637 -0.024759,0.21801 0,0.3222 0.026099,0.10977 0.075984,0.21239 0.1020823,0.32221 0.051041,0.2148 -0.1020823,0 0,0.32221 0.015216,0.0481 0.080561,0.0621 0.1020822,0.10746 0.013197,0.0277 0,0.56828 0,0.6444 0,0.0358 -0.015216,0.0753 0,0.10745 0.02152,0.0453 0.080561,0.0621 0.1020823,0.10746 0.022711,0.0478 -0.015562,0.38048 0,0.42961 0.015216,0.0481 0.080561,0.0621 0.1020822,0.10734 0.015216,0.032 0,0.0716 0,0.10745 0,0.0716 -0.00962,0.14393 0,0.21481 0.034027,0.179 0.068055,0.358 0.1020823,0.537 0.034027,0.0358 0.086865,0.0594 0.1020822,0.10746 0.036724,0.11585 -0.043361,0.55316 0,0.6444 0.015216,0.032 0.1020823,-0.0358 0.1020823,0 0,0.0358 -0.1020823,0.0358 -0.1020823,0 0,-0.0506 0.068055,-0.0716 0.1020823,-0.10745 0.7471377,-0.031 1.4992461,0.0405 2.2458048,-8.7e-4 0.3414982,-0.0189 0.6791234,-0.093 1.0208212,-0.10746 0.510003,-0.0214 1.021348,0.0243 1.531232,0 0.240362,-0.0109 0.476383,-0.0716 0.714575,-0.10745 0.884712,-0.0358 1.769032,-0.0847 2.654135,-0.10746 0.510259,-0.0131 1.021171,0.0198 1.531232,0 0.409462,-0.0159 0.815376,-0.0964 1.224984,-0.10746 0.918438,-0.0248 1.837479,0 2.756218,0 1.837478,0 3.674955,0 5.512434,0 1.29304,0 2.58608,0 3.879119,0 0.544439,0 1.088877,0 1.633314,0 0.306247,0 0.61281,-0.0146 0.918739,0 4.200347,0.20087 -0.896048,0.009 2.245808,0.21481 0.781843,0.0513 1.566419,0.05 2.347888,0.10745 0.682282,0.0501 1.361095,0.1432 2.041642,0.21481 0.340274,0.0358 0.679323,0.0885 1.020821,0.10733 0.305824,0.0169 0.613021,-0.0189 0.918739,0 0.273865,0.0169 0.542578,0.0949 0.816657,0.10746 0.509929,0.0234 1.020821,0 1.531232,0 0.306245,0 0.612492,0 0.918739,0 0.102078,0 0.204788,-0.0122 0.306246,0 1.019432,0.11914 0.293783,0.10734 0.816657,0.10734 0.374301,0 0.748602,0 1.122903,0 0.05454,0 0.481195,0.0153 0.51041,0 0.04304,-0.0226 0.05539,-0.0952 0.102078,-0.10734 0.17724,-0.0466 0.435253,0.0466 0.612492,0 0.07382,-0.0195 0.13035,-0.088 0.204165,-0.10746 0.06602,-0.0174 0.13611,0 0.204164,0 0.170137,0 0.343578,0.0352 0.510411,0 0.07461,-0.0157 0.130349,-0.088 0.204164,-0.10733 0.06602,-0.0174 0.13611,0 0.204165,0 0.06806,0 0.136109,0 0.204164,0 0.340273,0 0.680547,0 1.02082,0 0.646521,0 1.293041,0 1.939561,0 0.204164,0 0.408328,0 0.612492,0 0.03403,0 0.06806,0 0.102078,0 0.03403,0 0.07164,-0.0161 0.102078,0 0.04304,0.0226 0.0549,0.0975 0.102077,0.10733 0.133467,0.0281 0.272218,0 0.408328,0 0.306247,0 0.612494,0 0.918739,0 0.06806,0 0.13611,0 0.204165,0 0.06806,0 0.13814,-0.0174 0.204164,0 0.07382,0.0195 0.131982,0.0822 0.204164,0.10746 0.03228,0.011 0.06806,0 0.102077,0 0.06806,0 0.13611,0 0.204165,0 0.272219,0 0.544437,0 0.816657,0 0.340274,0 0.680547,0 1.020821,0 0.122607,0 0.39237,0.0207 0.51041,0 0.13839,-0.0242 0.270755,-0.0785 0.408329,-0.10746 0.1001,-0.0211 0.204164,0 0.306246,0 0.204164,0 0.408329,0 0.612493,0 0.04597,0 0.27518,0.0163 0.306246,0 0.04304,-0.0226 0.05904,-0.0847 0.102078,-0.10733 0.03107,-0.0163 0.260273,0 0.306246,0 0.51041,0 1.020821,0 1.531232,0 0.03749,0 0.40422,-0.005 0.408328,0 0.02406,0.0253 -0.02406,0.0821 0,0.10733 0.02406,0.0253 0.112846,0.034 0.102077,0 -0.07215,-0.22759 -0.204098,-0.42913 -0.306147,-0.64369"
       style="fill:none;stroke:#000000;stroke-width:3;stroke-linecap:round;stroke-linejoin:round;stroke-miterlimit:4;stroke-dasharray:none;stroke-opacity:1;filter:url(#filter3749)" />
    <path
       transform="matrix(-2.4283402,0,0,0.88801913,162.77281,27.425939)"
       id="path3723"
       d="m 47.317718,232.06891 c -0.0339,0.25142 -0.07196,0.50226 -0.101696,0.75427 -0.0038,0.0327 -0.0098,0.30162 0,0.3222 0.02151,0.0453 0.08056,0.0621 0.102089,0.10733 0.01555,0.0327 0,0.27384 0,0.3222 0,0.21481 0,0.42961 0,0.64442 0,0.3938 0,0.7876 0,1.1814 0,0.0931 0.01971,0.36739 0,0.42961 -0.02406,0.0759 -0.07802,0.13886 -0.102089,0.2148 -0.01076,0.034 0,0.0716 0,0.10745 0,0.0716 0,0.1432 0,0.21481 0,0.21479 0,0.4296 0,0.6444 0,0.76176 0.07218,0.0629 -0.102078,0.4296 -0.03046,0.064 0.02151,0.14688 0,0.2148 -0.02406,0.0759 -0.07802,0.13886 -0.102078,0.21481 -0.02151,0.0679 0.03042,0.15075 0,0.2148 -0.02151,0.0453 -0.08056,0.0621 -0.102077,0.10746 -0.01341,0.0282 0,0.37345 0,0.42961 0,0.2864 0,0.57279 0,0.8592 0,0.026 0.0032,0.31875 0,0.3222 -0.02406,0.0253 -0.07802,-0.0253 -0.102078,0 -0.02406,0.0253 0,0.0716 0,0.10734 0,0.0358 0,0.0716 0,0.10746 0,0.0716 -0.02151,0.14687 0,0.21479 0.01521,0.0481 0.08056,0.0622 0.102078,0.10746 0.0146,0.0308 0,0.47962 0,0.537 0,0.39381 0,0.7876 0,1.18141 0,0.42961 0,0.85921 0,1.28882 0,0.0562 -0.01341,0.40136 0,0.42959 0.02151,0.0453 0.08056,0.0622 0.102077,0.10746 0.01341,0.0282 0,0.37343 0,0.4296 0,0.0394 -0.004,0.42529 0,0.42961 0.02406,0.0253 0.07802,-0.0253 0.102078,0 0.05105,0.0537 -0.05105,0.26849 0,0.3222 0.02406,0.0253 0.07802,-0.0253 0.102078,0 0.02406,0.0253 0,0.0716 0,0.10745 0,0.0358 0,0.0716 0,0.10746 0,0.3938 0,0.7876 0,1.18141 0,0.5012 0,1.0024 0,1.50361 0,0.0358 0,0.0716 0,0.10745 0,0.0358 0.02406,0.0822 0,0.10734 -0.02406,0.0253 -0.07802,-0.0253 -0.102078,0 -0.02406,0.0253 0,0.0716 0,0.10746 0,0.0358 0,0.0716 0,0.10733 0,0.2506 0,0.50121 0,0.75181 0,0.0483 -0.01555,0.28952 0,0.3222 0.02151,0.0453 0.08056,0.0621 0.102078,0.10734 0.01552,0.0327 0,0.27384 0,0.3222 0,0.25061 0,0.5012 0,0.75181 0,0.0561 0.01341,0.40136 0,0.42961 -0.02152,0.0453 -0.08056,0.0621 -0.102078,0.10746 -0.04083,0.0859 0.04083,0.23628 0,0.3222 -0.02151,0.0453 -0.08056,0.0621 -0.102078,0.10733 -0.01319,0.0277 0,0.5683 0,0.64442 0,0.4654 0,0.93081 0,1.39621 0,0.0562 0.01341,0.40136 0,0.42961 -0.02151,0.0453 -0.08056,0.0621 -0.102077,0.10746 -0.0146,0.0308 0,0.47962 0,0.537 0,0.0483 -0.01551,0.28951 0,0.3222 0.02151,0.0453 0.08056,0.0621 0.102077,0.10746 0.01341,0.0282 0,0.37345 0,0.42961 0,0.2864 0,0.57281 0,0.8592 0,0.0394 -0.004,0.42528 0,0.4296 0.136112,0.14321 0.102078,-0.179 0.102078,0.10746 0,0.026 0.0032,0.31874 0,0.3222 -0.136108,0.1432 -0.102078,-0.179 -0.102078,0.10746 0,0.026 0.0032,0.31875 0,0.32221 -0.02406,0.0253 -0.102077,0.0358 -0.102077,0 0,-0.0358 0.06806,0 0.102077,0"
       style="fill:none;stroke:#000000;stroke-width:3;stroke-linecap:round;stroke-linejoin:round;stroke-miterlimit:4;stroke-dasharray:none;stroke-opacity:1;filter:url(#filter3745)" />
    <path
       id="path3731"
       d="m 47.480784,237.20746 c 0.224052,1.08173 -0.370112,0.17459 -0.51041,0.3222 -0.02406,0.0253 0.02406,0.0821 0,0.10746 -0.02406,0.0253 -0.07802,-0.0253 -0.102089,0 -0.02406,0.0253 0.02406,0.082 0,0.10733 -0.04812,0.0506 -0.143294,-0.032 -0.204165,0 -0.04304,0.0226 -0.05904,0.0847 -0.102078,0.10746 -0.03042,0.0159 -0.07802,-0.0253 -0.102089,0 -0.136111,0.1432 0.216548,0.10308 -0.102077,0.21479 -6.12e-4,1.7e-4 -0.306151,-1e-4 -0.306246,0 -0.02406,0.0253 0.02406,0.0821 0,0.10746 -0.3984,0.41915 -0.05483,-0.0248 -0.306248,0.10746 -0.04304,0.0226 -0.05904,0.0847 -0.102078,0.10745 -0.03042,0.0159 -0.07165,-0.0161 -0.102077,0 -0.04304,0.0226 -0.05904,0.0847 -0.102078,0.10746 -0.03042,0.0159 -0.07165,-0.0161 -0.102089,0 -0.04304,0.0226 -0.05904,0.0847 -0.102078,0.10734 -0.03045,0.0161 -0.07164,-0.016 -0.102077,0 -0.216625,0.1139 0.01246,0.10088 -0.204163,0.2148 -0.140809,0.0741 -0.09131,-0.13007 -0.204165,0.10734 -0.01521,0.032 0.02406,0.0821 0,0.10745 -0.04812,0.0506 -0.143294,-0.032 -0.204162,0 -0.04304,0.0226 -0.05904,0.0847 -0.102078,0.10734 -0.03042,0.0161 -0.07164,-0.0159 -0.102078,0 -0.04304,0.0226 -0.08056,0.0622 -0.102077,0.10745 -0.01521,0.032 0.03045,0.0914 0,0.10746 -0.06087,0.032 -0.143294,-0.032 -0.204162,0 -0.03046,0.0161 0.02406,0.082 0,0.10734 -0.02406,0.0253 -0.07165,-0.0159 -0.10209,0 -0.08608,0.0453 -0.118082,0.16952 -0.204165,0.2148 -0.03042,0.0161 -0.07165,-0.0159 -0.102078,0 -0.04304,0.0226 -0.05904,0.0847 -0.102089,0.10746 -0.03042,0.0159 -0.07165,-0.0161 -0.102078,0 -0.04304,0.0226 -0.05904,0.0847 -0.102077,0.10746 -0.03042,0.0159 -0.07802,-0.0253 -0.102078,0 -0.02406,0.0253 0.02406,0.082 0,0.10733 -0.02406,0.0253 -0.06806,0 -0.102078,0 -0.06806,0 -0.143297,-0.032 -0.204165,0 -0.06086,0.032 0.04812,0.16418 0,0.21481 -0.06801,0.0716 -0.136154,-0.0716 -0.204165,0 -0.02406,0.0253 0.02406,0.082 0,0.10733 -0.02406,0.0253 -0.07164,-0.0159 -0.102078,0 -0.04304,0.0226 -0.05904,0.0847 -0.102077,0.10746 -0.06088,0.032 -0.143294,-0.032 -0.204165,0 -0.08608,0.0453 -0.124084,0.15863 -0.204163,0.2148 -0.740155,0.38936 0.161406,-0.11317 -0.306248,0.2148 -0.0633,0.0444 -0.143294,0.0594 -0.204162,0.10745 -0.077,0.0607 -0.124087,0.15863 -0.204166,0.21481 -0.0283,0.0198 -0.06981,-0.011 -0.102077,0 -0.07219,0.0253 -0.131981,0.0821 -0.204163,0.10745 -0.18857,0.0661 -0.0484,-0.16388 -0.306249,0.10734 -0.0538,0.0566 -0.03877,0.1704 -0.102077,0.2148 -0.05662,0.0397 -0.138141,-0.0174 -0.204163,0 -0.492948,0.12966 0.0051,0.051 -0.306249,0.21481 -0.09625,0.0506 -0.200731,0.0852 -0.306244,0.10746 -0.06673,0.014 -0.147539,-0.0397 -0.204166,0 -0.0633,0.0444 -0.04828,0.1582 -0.102077,0.2148 -0.02406,0.0253 -0.06981,-0.0109 -0.102078,0 -0.144365,0.0506 -0.260698,0.17597 -0.408328,0.21481 -0.06602,0.0174 -0.138143,-0.0174 -0.204166,0 -0.07382,0.0195 -0.136108,0.0716 -0.204162,0.10745 -0.204165,0.10746 -0.408331,0.21481 -0.612493,0.3222 -0.06806,0.0358 -0.131004,0.0854 -0.204166,0.10746 -0.166829,0.0501 -0.350933,0.0355 -0.51041,0.10746 -0.08846,0.0399 -0.121636,0.1627 -0.204163,0.2148 -0.09227,0.0583 -0.210005,0.0567 -0.306248,0.10746 -0.04304,0.0226 -0.05904,0.0847 -0.102078,0.10746 -0.09625,0.0506 -0.210002,0.0567 -0.306246,0.10745 -0.04304,0.0226 -0.05904,0.0847 -0.102077,0.10746 -0.09625,0.0506 -0.206339,0.0653 -0.306246,0.10734 -0.07065,0.0297 -0.133519,0.0776 -0.204166,0.10745 -0.0999,0.042 -0.210001,0.0567 -0.306244,0.10746 -0.129124,0.0679 -0.177121,0.25427 -0.306246,0.3222 -0.06086,0.032 -0.138143,-0.0174 -0.204165,0 -0.07382,0.0195 -0.133519,0.0776 -0.204165,0.10746 -0.0999,0.042 -0.210002,0.0567 -0.306245,0.10746 -0.04304,0.0226 -0.05741,0.0886 -0.10209,0.10733 -0.130262,0.0549 -0.270752,0.0785 -0.408327,0.10746 -0.03337,0.007 -0.07377,-0.0198 -0.102078,0 -0.08008,0.0562 -0.136109,0.14321 -0.204162,0.2148 -0.03403,0.0358 -0.05644,0.0914 -0.10209,0.10746 -0.06457,0.0226 -0.138143,-0.0174 -0.204164,0 -0.07382,0.0195 -0.136109,0.0716 -0.204163,0.10734 -0.136111,0.0716 -0.27222,0.14319 -0.408331,0.2148 -0.06806,0.0358 -0.13198,0.0821 -0.204162,0.10734 -0.03228,0.011 -0.06981,-0.011 -0.102089,0 -0.07218,0.0253 -0.130348,0.088 -0.204166,0.10745 -0.06602,0.0174 -0.138139,-0.0174 -0.204162,0 -0.07382,0.0195 -0.136111,0.0716 -0.204166,0.10746 -0.06805,0.0358 -0.15036,0.0507 -0.204162,0.10746 -0.02406,0.0253 0.02406,0.082 0,0.10745 -0.115102,0.12109 -0.525966,0.18446 -0.612493,0.2148 -0.213019,0.0747 -0.297395,0.2475 -0.51041,0.32221 -0.06457,0.0226 -0.143294,-0.032 -0.204166,0 -0.04304,0.0226 -0.05904,0.0847 -0.102078,0.10733 -0.03043,0.016 -0.07165,-0.0161 -0.102089,0 -0.04304,0.0226 -0.05904,0.0847 -0.102078,0.10746 -0.03043,0.0161 -0.07165,-0.0161 -0.102077,0 -0.04304,0.0226 -0.05904,0.0847 -0.102078,0.10746 -0.03043,0.0159 -0.07165,-0.0161 -0.102077,0 -0.04304,0.0226 -0.05904,0.0847 -0.102078,0.10733 -0.03043,0.0161 -0.06806,0 -0.102078,0 -0.06806,0 -0.139601,-0.0226 -0.204164,0 -0.04565,0.0161 -0.05904,0.0848 -0.102078,0.10746 -0.03043,0.0159 -0.07165,-0.0161 -0.102077,0 -0.04304,0.0226 -0.05904,0.0847 -0.102078,0.10734 -0.06023,0.0316 -0.236031,-0.0246 -0.306247,0 -0.07218,0.0253 -0.131981,0.0821 -0.204164,0.10745 -0.03228,0.011 -0.07802,-0.0253 -0.102078,0 -0.02406,0.0253 0.02406,0.0822 0,0.10746 -0.02406,0.0253 -0.07802,-0.0253 -0.102078,0 -0.02406,0.0253 0.02406,0.0821 0,0.10734 -0.0032,0.004 -0.281487,0 -0.306245,0 -0.03403,0 -0.06806,0 -0.102078,0 -0.03403,0 -0.07802,-0.0253 -0.102077,0 -0.02406,0.0253 0.02406,0.0821 0,0.10745 -0.02087,0.0219 -0.265772,-0.0213 -0.306246,0 -0.04304,0.0226 -0.05904,0.0847 -0.102078,0.10746 -0.06088,0.032 -0.156043,-0.0506 -0.204164,0 -0.02406,0.0253 0.02406,0.0822 0,0.10734 -0.02406,0.0253 -0.06806,0 -0.102078,0 -0.06806,0 -0.143294,-0.032 -0.204164,0 -0.03043,0.0161 0.02406,0.0821 0,0.10745 -0.02406,0.0253 -0.07165,-0.0161 -0.102078,0 -0.04304,0.0226 -0.05904,0.0847 -0.102078,0.10734 -0.06086,0.032 -0.143293,-0.032 -0.204163,0 -0.467191,0.24576 0.433177,-0.0445 -0.306247,0.2148 -0.07021,0.0246 -0.246016,-0.0316 -0.306245,0 -0.08608,0.0453 -0.118082,0.16951 -0.204165,0.21481 -0.06086,0.032 -0.143295,-0.032 -0.204164,0 -0.04304,0.0226 -0.05904,0.0847 -0.102078,0.10733 -0.03043,0.016 -0.07165,-0.0161 -0.102078,0 -0.04304,0.0226 -0.05904,0.0847 -0.102077,0.10734 -0.03043,0.0161 -0.07165,-0.0159 -0.102078,0 -0.04304,0.0226 -0.05904,0.0848 -0.102078,0.10746 -0.04047,0.0213 -0.285377,-0.0219 -0.306246,0 -0.0538,0.0566 -0.03877,0.17039 -0.102078,0.21479 -0.01272,0.009 -0.396405,-0.0125 -0.408328,0 -0.02406,0.0253 0.02406,0.0821 0,0.10746 -0.02406,0.0253 -0.06981,-0.011 -0.102077,0 -0.07219,0.0253 -0.131982,0.0821 -0.204165,0.10733 -0.03228,0.011 -0.07165,-0.0159 -0.102078,0 -0.04304,0.0226 -0.05904,0.0848 -0.102077,0.10746 -0.03043,0.0159 -0.07165,-0.0161 -0.102078,0 -0.04304,0.0226 -0.05644,0.0914 -0.102077,0.10733 -0.06457,0.0226 -0.143296,-0.032 -0.204165,0 -0.03043,0.0161 0.02406,0.0821 0,0.10746 -0.02406,0.0253 -0.07802,-0.0253 -0.102078,0 -0.02406,0.0253 0.02406,0.0821 0,0.10746 -0.04812,0.0506 -0.156041,-0.0506 -0.204164,0 -0.02406,0.0253 0.02406,0.0821 0,0.10733 -0.04812,0.0506 -0.156042,-0.0506 -0.204165,0 -0.02406,0.0253 0.02406,0.0821 0,0.10746 -0.04812,0.0506 -0.143294,-0.032 -0.204163,0 -0.08608,0.0453 -0.118082,0.16951 -0.204165,0.21479 -0.03043,0.0161 -0.06981,-0.011 -0.102077,0 -0.739424,0.25932 0.160944,-0.0309 -0.306247,0.21481 -0.251423,0.13226 0.09215,-0.31176 -0.306246,0.10745 -0.02406,0.0253 0.03043,0.0914 0,0.10746 -0.06086,0.032 -0.143295,-0.032 -0.204164,0 -0.03043,0.0159 0.01521,0.0753 0,0.10746 -0.02153,0.0453 -0.06204,0.0793 -0.102078,0.10746 0.01162,0.20346 -0.23819,0.0715 -0.306245,0.10745 -0.04304,0.0226 -0.05904,0.0847 -0.102078,0.10734 -0.03043,0.0159 -0.07165,-0.0159 -0.102078,0 -0.08608,0.0453 -0.118081,0.16952 -0.204164,0.2148 -0.03043,0.0159 -0.07165,-0.0159 -0.102078,0 -0.04304,0.0226 -0.05904,0.0848 -0.102077,0.10746 -0.03043,0.0159 -0.07165,-0.0159 -0.102078,0 -0.04304,0.0226 -0.05642,0.0914 -0.102078,0.10746 -0.06457,0.0226 -0.139601,-0.0226 -0.204164,0 -0.09131,0.032 -0.118082,0.16952 -0.204165,0.2148 -0.03043,0.0159 -0.06806,0 -0.102077,0 -0.06806,0 -0.139602,-0.0226 -0.204164,0 -0.09131,0.032 -0.118081,0.16951 -0.204164,0.21479 -0.06086,0.032 -0.143295,-0.032 -0.204165,0 -0.08608,0.0453 -0.11808,0.16953 -0.204164,0.21481 -0.03043,0.0159 -0.07165,-0.0159 -0.102078,0 -0.04304,0.0226 -0.05904,0.0848 -0.102077,0.10746 -0.10881,0.0572 -0.09535,-0.0572 -0.204164,0 -0.122499,0.0645 -0.183748,0.25776 -0.306247,0.3222 -0.08166,0.043 -0.22458,-0.043 -0.306246,0 -0.424841,0.22349 0.109133,-0.007 -0.102078,0.2148 -0.04812,0.0506 -0.143295,-0.032 -0.204164,0 -0.04304,0.0226 -0.05904,0.0847 -0.102078,0.10734 -0.08166,0.043 -0.224581,-0.043 -0.306247,0 -0.04304,0.0226 -0.05904,0.0848 -0.102077,0.10745 -0.06088,0.032 -0.156043,-0.0506 -0.204165,0 -0.02406,0.0253 0.02406,0.0821 0,0.10746 -0.02406,0.0253 -0.07802,-0.0253 -0.102078,0 -0.02406,0.0253 0.02406,0.0821 0,0.10746 -0.04812,0.0506 -0.143293,-0.032 -0.204164,0 -0.04304,0.0226 -0.05904,0.0848 -0.102078,0.10746 -0.03043,0.0159 -0.07165,-0.016 -0.102077,0 -0.04304,0.0226 -0.05904,0.0848 -0.102078,0.10745 -0.03043,0.0159 -0.07165,-0.0159 -0.102078,0 -0.04304,0.0226 -0.05904,0.0847 -0.102077,0.10746 -0.03043,0.0159 -0.07802,-0.0253 -0.102078,0 -0.02406,0.0253 0.01522,0.0753 0,0.10746 -0.02153,0.0453 -0.06806,0.0716 -0.102078,0.10733 -0.03403,0.0358 -0.05904,0.0848 -0.102077,0.10746 -0.03043,0.0159 -0.07164,-0.0159 -0.102078,0 -0.122498,0.0644 -0.183748,0.25776 -0.306245,0.3222 -0.03043,0.0159 -0.07165,-0.0159 -0.102078,0 -0.09048,0.0476 -0.21332,0.25702 -0.306247,0.3222 -0.0633,0.0444 -0.140855,0.063 -0.204164,0.10746 -0.04004,0.0281 -0.05904,0.0847 -0.102078,0.10745 -0.03043,0.016 -0.07802,-0.0253 -0.102078,0 -0.02406,0.0253 0.02406,0.0821 0,0.10734 -0.02406,0.0253 -0.07802,-0.0253 -0.102077,0 -0.02406,0.0253 0.02406,0.0821 0,0.10746 -0.02406,0.0253 -0.07802,-0.0253 -0.102078,0 -0.04812,0.0506 0.04812,0.16418 0,0.2148 -0.04812,0.0506 -0.156043,-0.0506 -0.204164,0 -0.02406,0.0253 0.02406,0.0822 0,0.10746 -0.02406,0.0253 -0.07802,-0.0253 -0.102078,0 -0.02406,0.0253 0.02406,0.0821 0,0.10746 -0.211211,0.22221 0.0082,-0.33958 -0.204165,0.10745 -0.01521,0.032 0.02406,0.082 0,0.10746 -0.04812,0.0506 -0.156041,-0.0506 -0.204163,0 -0.02406,0.0253 0.02406,0.0821 0,0.10734 -0.02406,0.0253 -0.07165,-0.016 -0.102077,0 -0.424842,0.22349 0.109133,-0.007 -0.102078,0.2148 -0.02406,0.0253 -0.07802,-0.0253 -0.102078,0 -0.02406,0.0253 0.02406,0.0821 0,0.10746 -0.02406,0.0253 -0.07802,-0.0253 -0.102077,0 -0.02406,0.0253 0,0.0716 0,0.10745 -0.03403,0 -0.07165,-0.0159 -0.102078,0 -0.424842,0.22349 0.109133,-0.007 -0.102078,0.2148 -0.02406,0.0253 -0.07802,-0.0253 -0.102077,0 -0.02406,0.0253 0.02406,0.0821 0,0.10745 -0.02406,0.0253 -0.07802,-0.0253 -0.102078,0 -0.02406,0.0253 0.02406,0.0822 0,0.10734 -0.02406,0.0253 -0.07802,-0.0253 -0.102078,0 -0.02406,0.0253 0.02406,0.0821 0,0.10746 -0.04812,0.0506 -0.156041,-0.0506 -0.204164,0 -0.02406,0.0253 0.02406,0.0821 0,0.10745 -0.02406,0.0253 -0.07802,-0.0253 -0.102078,0 -0.02406,0.0253 0.02406,0.0822 0,0.10746 -0.02406,0.0253 -0.07802,-0.0253 -0.102077,0 -0.02406,0.0253 0.02406,0.0822 0,0.10746 -0.04812,0.0506 -0.156042,-0.0506 -0.204164,0 -0.02406,0.0253 0.02406,0.0821 0,0.10746 -0.06801,0.0716 -0.136156,-0.0716 -0.204164,0 -0.02406,0.0253 0.02406,0.0821 0,0.10745 -0.02406,0.0253 -0.07802,-0.0253 -0.102078,0 -0.02406,0.0253 0.02406,0.0821 0,0.10746 -0.04812,0.0506 -0.156042,-0.0506 -0.204164,0 -0.02406,0.0253 0.02406,0.0821 0,0.10733 -0.04812,0.0506 -0.156042,-0.0506 -0.204165,0 -0.02406,0.0253 0.03403,0.10746 0,0.10746 -0.03403,0 0.03403,-0.10746 0,-0.10746 -0.169281,0 -0.07158,0.15063 -0.102081,0.21481 -0.212421,0.44697 0.007,-0.11476 -0.204164,0.10746 -0.02406,0.0253 0.01522,0.0754 0,0.10745 -0.212421,0.44698 0.007,-0.11476 -0.204164,0.10746 -0.02406,0.0253 0.01522,0.0753 0,0.10746 -0.02152,0.0453 -0.05904,0.0847 -0.102083,0.10745 -0.03044,0.016 -0.136109,0 -0.102082,0 0.238191,0 0.476383,0 0.714574,0"
       style="fill:none;stroke:#000000;stroke-width:3;stroke-linecap:round;stroke-linejoin:round;stroke-miterlimit:4;stroke-dasharray:none;stroke-opacity:1;filter:url(#filter3741)" />
    <path
       id="path3733"
       d="m 46.970374,244.72552 c -0.03403,0.14322 -0.06806,0.28641 -0.102089,0.42961 -0.03403,0 -0.07802,-0.0253 -0.102078,0 -0.02406,0.0253 0.02406,0.0822 0,0.10746 -0.21121,0.22222 0.0082,-0.33957 -0.204162,0.10746 -0.01521,0.032 0.02406,0.0821 0,0.10733 -0.02406,0.0253 -0.07802,-0.0253 -0.10209,0 -0.02406,0.0253 0.02406,0.0822 0,0.10746 -0.02406,0.0253 -0.07802,-0.0253 -0.102077,0 -0.02406,0.0253 0.02406,0.0821 0,0.10746 -0.04812,0.0506 -0.143294,-0.032 -0.204166,0 -0.424838,0.22348 0.109134,-0.007 -0.102077,0.2148 -0.02406,0.0253 -0.07802,-0.0253 -0.102078,0 -0.02406,0.0253 0.02406,0.0822 0,0.10734 -0.02406,0.0253 -0.07802,-0.0253 -0.102078,0 -0.02406,0.0253 0.02406,0.0821 0,0.10745 -0.04812,0.0506 -0.156044,-0.0506 -0.204165,0 -0.02406,0.0253 0.02406,0.0822 0,0.10746 -0.02406,0.0253 -0.07802,-0.0253 -0.102078,0 -0.02406,0.0253 0.02406,0.0822 0,0.10734 -0.04812,0.0506 -0.156044,-0.0506 -0.204166,0 -0.02406,0.0253 0.02406,0.0821 0,0.10745 -0.02406,0.0253 -0.07802,-0.0253 -0.102077,0 -0.02406,0.0253 0.02406,0.082 0,0.10734 -0.04812,0.0506 -0.156041,-0.0506 -0.204162,0 -0.02406,0.0253 0.02406,0.0821 0,0.10746 -0.02406,0.0253 -0.06806,0 -0.10209,0 0,0.0358 0.02406,0.0821 0,0.10745 -0.04812,0.0506 -0.143294,-0.032 -0.204165,0 -0.04304,0.0226 -0.05904,0.0847 -0.102078,0.10734 -0.03042,0.0161 -0.07802,-0.0253 -0.102078,0 -0.02406,0.0253 0.02406,0.0821 0,0.10746 -0.05104,0.0537 -0.255206,-0.0537 -0.306248,0 -0.02406,0.0253 0.02406,0.082 0,0.10733 -0.05104,0.0537 -0.255204,-0.0537 -0.306245,0 -0.02406,0.0253 0.01521,0.0753 0,0.10746 -0.112858,0.23748 -0.06335,0.0333 -0.204166,0.10746 -0.04304,0.0226 -0.05904,0.0847 -0.102077,0.10733 -0.08166,0.043 -0.224582,-0.043 -0.30625,0 -0.06086,0.032 0.04812,0.16418 0,0.21481 -0.04812,0.0506 -0.143293,-0.032 -0.204162,0 -0.04304,0.0226 -0.05904,0.0847 -0.102077,0.10733 -0.03042,0.0161 -0.07165,-0.0159 -0.102078,0 -0.04304,0.0226 -0.05644,0.0914 -0.102078,0.10746 -0.06457,0.0226 -0.143293,-0.032 -0.204162,0 -0.03042,0.0159 0.02406,0.082 0,0.10733 -0.04813,0.0506 -0.143294,-0.032 -0.204166,0 -0.04304,0.0226 -0.05904,0.0847 -0.102077,0.10746 -0.03046,0.0161 -0.07165,-0.0161 -0.102078,0 -0.04304,0.0226 -0.05904,0.0847 -0.102077,0.10746 -0.03042,0.0159 -0.06806,0 -0.102078,0 -0.03403,0.0358 -0.06205,0.0793 -0.102078,0.10733 -0.0633,0.0444 -0.13198,0.0821 -0.204165,0.10746 -0.03228,0.011 -0.07802,-0.0253 -0.102078,0 -0.02406,0.0253 0.02406,0.082 0,0.10734 -0.02406,0.0253 -0.07802,-0.0253 -0.102078,0 -0.02406,0.0253 0.02406,0.0821 0,0.10733 -0.02406,0.0253 -0.07165,-0.0159 -0.102077,0 -0.04304,0.0226 -0.06806,0.0716 -0.102078,0.10746 -0.03403,0.0358 -0.05904,0.0847 -0.102089,0.10733 -0.06087,0.032 -0.139599,-0.0226 -0.204162,0 -0.144365,0.0506 -0.263963,0.16418 -0.408328,0.21481 -0.06457,0.0226 -0.143294,-0.032 -0.204166,0 -0.04304,0.0226 -0.05904,0.0847 -0.102077,0.10733 -0.03042,0.0161 -0.07165,-0.0159 -0.10209,0 -0.04304,0.0226 -0.05904,0.0848 -0.102077,0.10746 -0.04047,0.0213 -0.28538,-0.022 -0.306249,0 -0.02406,0.0253 0.02406,0.082 0,0.10734 -0.02406,0.0253 -0.07165,-0.016 -0.102078,0 -0.04304,0.0226 -0.05904,0.0847 -0.102078,0.10745 -0.03042,0.0161 -0.07802,-0.0253 -0.102077,0 -0.02406,0.0253 0.03045,0.0914 0,0.10746 -0.06605,0.0347 -0.371659,-0.0386 -0.408328,0 -0.136112,0.1432 0.170137,0.10734 -0.102078,0.10734 -0.02475,0 -0.302964,-0.004 -0.306244,0 -0.02406,0.0253 0.02406,0.0821 0,0.10745 -0.04813,0.0506 -0.143294,-0.032 -0.204166,0 -0.04304,0.0226 -0.05904,0.0847 -0.102077,0.10734 -0.03046,0.0159 -0.07165,-0.0161 -0.10209,0 -0.04304,0.0226 -0.05904,0.0847 -0.102077,0.10733 -0.06086,0.032 -0.139603,-0.0226 -0.204165,0 -0.07218,0.0253 -0.131984,0.0821 -0.204165,0.10746 -0.06457,0.0226 -0.143295,-0.032 -0.204163,0 -0.07255,0.0382 -0.131621,0.17664 -0.204165,0.21481 -0.08166,0.0429 -0.224583,-0.043 -0.306246,0 -0.04304,0.0226 -0.05904,0.0847 -0.102078,0.10745 -0.06088,0.032 -0.15604,-0.0506 -0.204165,0 -0.02406,0.0253 0.02406,0.0821 0,0.10746 -0.0032,0.004 -0.281487,0 -0.306246,0 -0.239399,0 0.04812,-0.0253 -0.204166,0.10746 -0.06416,0.0337 -0.344166,-0.0337 -0.408327,0 -0.04304,0.0226 -0.06806,0.0716 -0.102078,0.10745 -0.06805,0 -0.139601,-0.0226 -0.204162,0 -0.04566,0.016 -0.05904,0.0847 -0.102089,0.10734 -0.04047,0.0213 -0.285376,-0.0219 -0.306245,0 -0.02406,0.0253 0.02406,0.0821 0,0.10746 -0.02181,0.023 -0.35205,-0.0197 -0.408328,0 -0.07219,0.0253 -0.131982,0.0821 -0.204165,0.10745 -0.06457,0.0226 -0.143294,-0.032 -0.204166,0 -0.04304,0.0226 -0.05904,0.0848 -0.102078,0.10746 -0.08166,0.043 -0.224581,-0.043 -0.306248,0 -0.04304,0.0226 -0.05904,0.0847 -0.102077,0.10746 -0.06086,0.032 -0.143295,-0.032 -0.204164,0 -0.04304,0.0226 -0.05904,0.0848 -0.102077,0.10745 -0.06088,0.032 -0.143294,-0.032 -0.204166,0 -0.08608,0.0453 -0.112858,0.18279 -0.204162,0.21481 -0.0467,0.0164 -0.362906,-0.0238 -0.408328,0 -0.04304,0.0226 -0.05904,0.0847 -0.102078,0.10733 -0.03045,0.0159 -0.07802,-0.0253 -0.102089,0 -0.02406,0.0253 0.03046,0.0914 0,0.10746 -0.06086,0.032 -0.143294,-0.032 -0.204166,0 -0.03042,0.0159 0.02406,0.0821 0,0.10746 -0.02458,0.0259 -0.383762,-0.0258 -0.408327,0 -0.02406,0.0253 0.02406,0.0821 0,0.10746 -0.02406,0.0253 -0.06979,-0.011 -0.102078,0 -0.07219,0.0253 -0.13198,0.0821 -0.204162,0.10745 -0.03228,0.011 -0.06981,-0.0109 -0.102089,0 -0.07218,0.0253 -0.13198,0.0822 -0.204166,0.10746 -0.06457,0.0226 -0.143294,-0.032 -0.204162,0 -0.04304,0.0226 -0.05904,0.0847 -0.102078,0.10746 -0.03042,0.0159 -0.06806,0 -0.102089,0 -0.03403,0.0358 -0.05904,0.0847 -0.102078,0.10745 -0.03045,0.016 -0.06806,0 -0.102089,0 -0.06805,0 -0.138143,-0.0174 -0.204166,0 -0.07381,0.0195 -0.131979,0.0822 -0.204162,0.10746 -0.03228,0.011 -0.07802,-0.0253 -0.102089,0 -0.02406,0.0253 0.03043,0.0914 0,0.10734 -0.06086,0.032 -0.139602,-0.0226 -0.204163,0 -0.04565,0.0161 -0.05644,0.0914 -0.102078,0.10745 -0.06457,0.0226 -0.139603,-0.0226 -0.204165,0 -0.09131,0.032 -0.112857,0.18279 -0.204164,0.21481 -0.06457,0.0226 -0.139602,-0.0226 -0.204165,0 -0.04565,0.0159 -0.05904,0.0848 -0.102077,0.10746 -0.03043,0.0159 -0.07165,-0.016 -0.102078,0 -0.04304,0.0226 -0.05644,0.0914 -0.102077,0.10745 -0.06457,0.0226 -0.143295,-0.032 -0.204165,0 -0.03043,0.0159 0.02406,0.0822 0,0.10746 -9.7e-5,1.1e-4 -0.305784,-1.6e-4 -0.306247,0 -0.09131,0.032 -0.112858,0.18279 -0.204164,0.2148 -0.06457,0.0226 -0.136109,0 -0.204164,0 -0.03403,0 -0.07165,-0.0159 -0.102077,0 -0.04304,0.0226 -0.05904,0.0848 -0.102078,0.10746 -0.06086,0.032 -0.143294,-0.032 -0.204164,0 -0.04304,0.0226 -0.05904,0.0847 -0.102078,0.10734 -0.03043,0.0159 -0.07165,-0.016 -0.102078,0 -0.04304,0.0226 -0.05904,0.0848 -0.102077,0.10745 -0.03043,0.016 -0.07802,-0.0253 -0.102078,0 -0.02406,0.0253 0.02406,0.0822 0,0.10746 -0.06801,0.0716 -0.136156,-0.0716 -0.204164,0 -0.02406,0.0253 0.02406,0.0822 0,0.10746 -0.04812,0.0506 -0.143294,-0.032 -0.204165,0 -0.04304,0.0226 -0.05904,0.0848 -0.102078,0.10746 -0.06086,0.032 -0.156041,-0.0506 -0.204163,0 -0.02406,0.0253 0.02406,0.0821 0,0.10745 -0.04812,0.0506 -0.156043,-0.0506 -0.204164,0 -0.02406,0.0253 0.02406,0.0821 0,0.10746 -0.04812,0.0506 -0.156043,-0.0506 -0.204165,0 -0.02406,0.0253 0.02406,0.082 0,0.10746 -0.03667,0.0386 -0.342286,-0.0347 -0.408328,0 -0.03043,0.0159 0.02406,0.0821 0,0.10733 -0.05104,0.0537 -0.255205,-0.0537 -0.306247,0 -0.02406,0.0253 0.02406,0.0821 0,0.10746 -0.02406,0.0253 -0.07165,-0.0159 -0.102077,0 -0.04304,0.0226 -0.05904,0.0848 -0.102078,0.10746 -0.03043,0.0159 -0.07802,-0.0253 -0.102077,0 -0.02406,0.0253 0.02406,0.0821 0,0.10745 -0.04812,0.0506 -0.143295,-0.032 -0.204165,0 -0.04304,0.0226 -0.05904,0.0848 -0.102078,0.10746 -0.03043,0.0159 -0.07165,-0.0159 -0.102077,0 -0.04304,0.0226 -0.05904,0.0847 -0.102078,0.10746 -0.03043,0.0159 -0.07802,-0.0253 -0.102077,0 -0.02406,0.0253 0.02406,0.0821 0,0.10745 -0.02087,0.0219 -0.265772,-0.0213 -0.306246,0 -0.04304,0.0226 -0.05904,0.0847 -0.102078,0.10746 -0.06088,0.032 -0.143295,-0.032 -0.204164,0 -0.04304,0.0226 -0.05904,0.0847 -0.102078,0.10734 -0.06086,0.032 -0.143294,-0.032 -0.204163,0 -0.04304,0.0226 -0.05904,0.0848 -0.102078,0.10745 -0.03043,0.0159 -0.07802,-0.0253 -0.102077,0 -0.02406,0.0253 0.02406,0.0821 0,0.10746 -0.02087,0.0219 -0.265772,-0.0213 -0.306247,0 -0.04304,0.0226 -0.05904,0.0848 -0.102078,0.10746 -0.03043,0.0159 -0.07164,-0.0159 -0.102078,0 -0.04304,0.0226 -0.05904,0.0848 -0.102077,0.10746 -0.08166,0.043 -0.22458,-0.043 -0.306246,0 -0.04304,0.0226 -0.05904,0.0847 -0.102077,0.10745 -0.03043,0.0159 -0.07165,-0.0159 -0.102078,0 -0.04304,0.0226 -0.05904,0.0847 -0.102078,0.10746 -0.03043,0.0159 -0.07165,-0.0161 -0.102077,0 -0.04304,0.0226 -0.05904,0.0847 -0.102078,0.10746 -0.04542,0.0239 -0.361637,-0.0164 -0.408328,0 -0.04565,0.0159 -0.05904,0.0847 -0.102077,0.10733 -0.03043,0.0161 -0.07165,-0.0159 -0.102078,0 -0.04304,0.0226 -0.05904,0.0848 -0.102078,0.10746 -0.03043,0.0159 -0.07165,-0.0159 -0.102077,0 -0.04304,0.0226 -0.05904,0.0848 -0.102078,0.10746 -0.06088,0.032 -0.143295,-0.032 -0.204164,0 -0.08608,0.0453 -0.118082,0.16952 -0.204165,0.2148 -0.03043,0.0159 -0.06981,-0.0109 -0.102078,0 -0.07218,0.0253 -0.130348,0.088 -0.204164,0.10746 -0.06602,0.0174 -0.143294,-0.032 -0.204163,0 -0.03043,0.0159 0.02406,0.0821 0,0.10746 -0.02406,0.0253 -0.07165,-0.016 -0.102078,0 -0.04304,0.0226 -0.05904,0.0847 -0.102078,0.10745 -0.108809,0.0572 -0.09534,-0.0572 -0.204164,0 -0.04304,0.0226 -0.05904,0.0847 -0.102078,0.10734 -0.03043,0.0161 -0.07165,-0.0159 -0.102077,0 -0.04304,0.0226 -0.05904,0.0848 -0.102078,0.10745 -0.03043,0.016 -0.07165,-0.0159 -0.102078,0 -0.04304,0.0226 -0.05904,0.0847 -0.102077,0.10734 -0.06088,0.032 -0.156043,-0.0506 -0.204165,0 -0.02406,0.0253 0.03043,0.0914 0,0.10746 -0.06086,0.032 -0.143294,-0.032 -0.204164,0 -0.03043,0.0159 0.02406,0.0821 0,0.10745 -0.04812,0.0506 -0.143294,-0.032 -0.204164,0 -0.424842,0.2235 0.109134,-0.007 -0.102077,0.21481 -0.04812,0.0506 -0.156043,-0.0506 -0.204165,0 -0.02406,0.0253 0.02406,0.0821 0,0.10746 -0.02406,0.0253 -0.07802,-0.0253 -0.102078,0 -0.136109,0.1432 0.170138,0.10733 -0.102077,0.10733"
       style="fill:none;stroke:#000000;stroke-width:3;stroke-linecap:round;stroke-linejoin:round;stroke-miterlimit:4;stroke-dasharray:none;stroke-opacity:1;filter:url(#filter3737)" />
    <flowRoot
       transform="matrix(0.26458333,0,0,0.26458333,0,229.26665)"
       style="font-style:normal;font-weight:normal;font-size:40px;line-height:1.25;font-family:sans-serif;letter-spacing:0px;word-spacing:0px;fill:#000000;fill-opacity:1;stroke:none"
       id="flowRoot4620"
       xml:space="preserve"><flowRegion
         id="flowRegion4622"><rect
           y="120.24191"
           x="35.357143"
           height="100.40094"
           width="185.79178"
           id="rect4624" /></flowRegion><flowPara
         style="font-size:85.33333441px;text-anchor:middle;text-align:center"
         id="flowPara4626">HFC</flowPara></flowRoot>  </g>
</svg>
