<?xml version="1.0" encoding="utf-8"?>
<!DOCTYPE svg PUBLIC "-//W3C//DTD SVG 1.1//EN" "http://www.w3.org/Graphics/SVG/1.1/DTD/svg11.dtd">
<svg xmlns="http://www.w3.org/2000/svg" xmlns:xlink="http://www.w3.org/1999/xlink" version="1.1" baseProfile="full" width="1416" height="320" viewBox="0 0 1416.00 320.00" enable-background="new 0 0 1416.00 320.00" xml:space="preserve">
	<g>
		<path fill="#FFFFFF" fill-opacity="1" stroke-width="0.2" stroke-linejoin="round" d="M 5.82151,17.2876L 18.8269,41.4828L 31.9461,17.2876L 36.2024,17.2876L 20.7886,45.5302L 20.7886,62.2542L 16.8651,62.2542L 16.8651,45.4115L 1.50391,17.2876L 5.82151,17.2876 Z "/>
		<path fill="#FFFFFF" fill-opacity="1" stroke-width="0.2" stroke-linejoin="round" d="M 53.6917,62.8875C 51.5606,62.8875 49.6164,62.434 47.859,61.5269C 46.1016,60.6198 44.5792,59.3844 43.2918,57.8209C 42.0044,56.2574 41.006,54.4414 40.2966,52.3732C 39.5873,50.305 39.2326,48.1295 39.2326,45.8469C 39.2326,43.5247 39.596,41.3295 40.3229,39.2613C 41.0498,37.193 42.0584,35.3788 43.3487,33.8185C 44.6391,32.2583 46.1615,31.0131 47.9159,30.0829C 49.6704,29.1526 51.5957,28.6875 53.6917,28.6875C 55.7819,28.6875 57.7145,29.1526 59.4894,30.0829C 61.2643,31.0131 62.7969,32.2583 64.0872,33.8185C 65.3776,35.3788 66.3862,37.193 67.1131,39.2613C 67.84,41.3295 68.2034,43.5247 68.2034,45.8469C 68.2034,48.1295 67.8487,50.305 67.1393,52.3732C 66.4299,54.4414 65.4316,56.2574 64.1442,57.8209C 62.8568,59.3844 61.3256,60.6198 59.5507,61.5269C 57.7758,62.434 55.8228,62.8875 53.6917,62.8875 Z M 43.0948,45.9162C 43.0948,47.77 43.375,49.4886 43.9355,51.0719C 44.496,52.6552 45.2536,54.0489 46.2082,55.2529C 47.1628,56.4569 48.2838,57.397 49.5712,58.0732C 50.8586,58.7494 52.2321,59.0876 53.6917,59.0876C 55.1455,59.0876 56.5176,58.7395 57.8079,58.0435C 59.0982,57.3475 60.2294,56.3975 61.2015,55.1935C 62.1736,53.9895 62.94,52.586 63.5005,50.9828C 64.061,49.3797 64.3412,47.648 64.3412,45.7875C 64.3412,43.9733 64.061,42.2531 63.5005,40.6269C 62.94,39.0006 62.1736,37.5855 61.2015,36.3816C 60.2294,35.1776 59.0982,34.2276 57.8079,33.5316C 56.5176,32.8355 55.1455,32.4875 53.6917,32.4875C 52.2321,32.4875 50.8673,32.8355 49.5974,33.5316C 48.3275,34.2276 47.2066,35.1875 46.2344,36.4113C 45.2623,37.635 44.496,39.06 43.9355,40.6862C 43.375,42.3125 43.0948,44.0558 43.0948,45.9162 Z "/>
		<path fill="#FFFFFF" fill-opacity="1" stroke-width="0.2" stroke-linejoin="round" d="M 84.0113,62.8875C 80.8351,62.8875 78.4719,61.6951 76.9218,59.3102C 75.3717,56.9253 74.5966,53.3678 74.5966,48.6375L 74.5966,29.2615L 78.4063,29.2615L 78.4063,47.8756C 78.4063,55.3502 80.6687,59.0876 85.1936,59.0876C 86.3146,59.0876 87.4166,58.8764 88.4996,58.4542C 89.5827,58.032 90.5811,57.4201 91.4948,56.6185C 92.4085,55.817 93.2303,54.867 93.9601,53.7685C 94.6899,52.6701 95.2796,51.4249 95.7292,50.0329L 95.7292,29.2615L 99.5388,29.2615L 99.5388,56.6829C 99.5388,57.8638 99.9884,58.4542 100.888,58.4542L 100.888,62.2542C 100.438,62.34 100.073,62.3828 99.7928,62.3828C 99.5126,62.3828 99.317,62.3828 99.2061,62.3828C 98.3069,62.3367 97.5771,61.9771 97.0166,61.3042C 96.4561,60.6313 96.1758,59.7242 96.1758,58.5829L 96.1758,54.7829C 94.903,57.3558 93.1748,59.3498 90.9912,60.7649C 88.8076,62.18 86.481,62.8875 84.0113,62.8875 Z "/>
		<path fill="#FFFFFF" fill-opacity="1" stroke-width="0.2" stroke-linejoin="round" d="M 120.505,45.6589C 120.505,43.3367 120.86,41.1414 121.569,39.0732C 122.279,37.005 123.277,35.2007 124.564,33.6602C 125.852,32.1198 127.393,30.9059 129.188,30.0185C 130.984,29.1312 132.965,28.6875 135.131,28.6875C 137.898,28.6875 140.309,29.3951 142.365,30.8102C 144.42,32.2253 145.97,34.1368 147.015,36.5448L 143.31,37.8709C 142.493,36.182 141.346,34.8625 139.869,33.9126C 138.391,32.9626 136.757,32.4875 134.964,32.4875C 133.47,32.4875 132.077,32.8257 130.787,33.5019C 129.496,34.1781 128.375,35.0967 127.424,36.2578C 126.472,37.419 125.725,38.8011 125.182,40.4042C 124.639,42.0074 124.367,43.7589 124.367,45.6589C 124.367,47.5193 124.647,49.2725 125.208,50.9185C 125.769,52.5645 126.535,53.9895 127.507,55.1935C 128.479,56.3975 129.61,57.3475 130.901,58.0435C 132.191,58.7395 133.563,59.0876 135.017,59.0876C 135.951,59.0876 136.876,58.9391 137.793,58.6422C 138.71,58.3454 139.561,57.933 140.346,57.4052C 141.131,56.8775 141.804,56.2771 142.365,55.6042C 142.925,54.9313 143.316,54.2122 143.538,53.4469L 147.295,54.7136C 146.881,55.9011 146.282,56.9896 145.5,57.9792C 144.717,58.9688 143.794,59.833 142.728,60.5719C 141.662,61.3108 140.485,61.8815 139.194,62.2839C 137.904,62.6863 136.567,62.8875 135.183,62.8875C 133.058,62.8875 131.098,62.434 129.302,61.5269C 127.507,60.6198 125.955,59.3745 124.647,57.7912C 123.34,56.2079 122.322,54.3821 121.595,52.3138C 120.869,50.2456 120.505,48.0273 120.505,45.6589 Z "/>
		<path fill="#FFFFFF" fill-opacity="1" stroke-width="0.2" stroke-linejoin="round" d="M 160.686,62.8875C 159.308,62.8875 158.029,62.6237 156.85,62.0959C 155.671,61.5681 154.643,60.8391 153.767,59.9089C 152.891,58.9787 152.21,57.8918 151.722,56.6482C 151.235,55.4046 150.991,54.0638 150.991,52.6256C 150.991,51.194 151.29,49.8646 151.889,48.6375C 152.487,47.4105 153.328,46.3549 154.411,45.4709C 155.494,44.5869 156.783,43.9007 158.277,43.4125C 159.772,42.9243 161.416,42.6803 163.208,42.6803C 164.703,42.6803 166.216,42.8287 167.749,43.1256C 169.282,43.4225 170.646,43.8447 171.843,44.3922L 171.843,41.4136C 171.843,38.5042 171.115,36.1935 169.658,34.4816C 168.202,32.7696 166.183,31.9136 163.602,31.9136C 162.108,31.9136 160.576,32.2517 159.009,32.9279C 157.441,33.6041 155.852,34.5756 154.24,35.8423L 152.9,32.9922C 156.672,30.1224 160.333,28.6875 163.882,28.6875C 167.543,28.6875 170.42,29.8487 172.513,32.1709C 174.606,34.4931 175.653,37.7027 175.653,41.7995L 175.653,56.6829C 175.653,57.8638 176.12,58.4542 177.054,58.4542L 177.054,62.2542C 176.418,62.3795 175.933,62.4422 175.6,62.4422C 174.625,62.4422 173.868,62.1685 173.328,61.6209C 172.788,61.0733 172.497,60.3146 172.456,59.3448L 172.351,56.7422C 171.003,58.728 169.311,60.2487 167.276,61.3042C 165.241,62.3598 163.045,62.8875 160.686,62.8875 Z M 161.588,59.5922C 163.567,59.5922 165.389,59.17 167.053,58.3256C 168.717,57.4811 169.978,56.3629 170.836,54.9709C 171.169,54.5882 171.42,54.1759 171.589,53.7339C 171.759,53.2919 171.843,52.8795 171.843,52.4969L 171.843,47.1136C 170.571,46.566 169.252,46.1454 167.889,45.8519C 166.526,45.5583 165.135,45.4115 163.716,45.4115C 161.025,45.4115 158.838,46.0448 157.156,47.3115C 155.475,48.5782 154.634,50.244 154.634,52.3089C 154.634,53.3249 154.812,54.2765 155.168,55.1638C 155.525,56.0512 156.011,56.8214 156.627,57.4745C 157.243,58.1277 157.98,58.6439 158.838,59.0232C 159.696,59.4026 160.613,59.5922 161.588,59.5922 Z "/>
		<path fill="#FFFFFF" fill-opacity="1" stroke-width="0.2" stroke-linejoin="round" d="M 208.722,62.2542L 204.913,62.2542L 204.913,43.8282C 204.913,39.8962 204.399,37.0446 203.371,35.2732C 202.344,33.5019 200.765,32.6162 198.633,32.6162C 197.512,32.6162 196.391,32.8487 195.27,33.3138C 194.149,33.779 193.113,34.4337 192.161,35.2782C 191.21,36.1226 190.36,37.1254 189.613,38.2865C 188.866,39.4476 188.323,40.7011 187.984,42.0469L 187.984,62.2542L 184.174,62.2542L 184.174,29.2615L 187.651,29.2615L 187.651,36.7329C 188.848,34.3249 190.557,32.382 192.779,30.9042C 195,29.4264 197.419,28.6875 200.035,28.6875C 201.64,28.6875 203.004,29.0257 204.125,29.7019C 205.246,30.3781 206.143,31.3281 206.818,32.5519C 207.492,33.7757 207.978,35.2749 208.276,37.0495C 208.574,38.8242 208.722,40.7868 208.722,42.9375L 208.722,62.2542 Z "/>
		<path fill="#FFFFFF" fill-opacity="1" stroke-width="0.2" stroke-linejoin="round" d="M 238.595,62.8875C 237.217,62.8875 235.939,62.6237 234.759,62.0959C 233.58,61.5681 232.552,60.8391 231.677,59.9089C 230.801,58.9787 230.119,57.8918 229.632,56.6482C 229.144,55.4046 228.9,54.0638 228.9,52.6256C 228.9,51.194 229.2,49.8646 229.798,48.6375C 230.397,47.4105 231.237,46.3549 232.32,45.4709C 233.403,44.5869 234.692,43.9007 236.187,43.4125C 237.682,42.9243 239.325,42.6803 241.118,42.6803C 242.612,42.6803 244.126,42.8287 245.659,43.1256C 247.191,43.4225 248.556,43.8447 249.753,44.3922L 249.753,41.4136C 249.753,38.5042 249.024,36.1935 247.568,34.4816C 246.111,32.7696 244.092,31.9136 241.512,31.9136C 240.017,31.9136 238.486,32.2517 236.918,32.9279C 235.351,33.6041 233.761,34.5756 232.15,35.8423L 230.81,32.9922C 234.581,30.1224 238.242,28.6875 241.792,28.6875C 245.453,28.6875 248.33,29.8487 250.423,32.1709C 252.516,34.4931 253.563,37.7027 253.563,41.7995L 253.563,56.6829C 253.563,57.8638 254.03,58.4542 254.964,58.4542L 254.964,62.2542C 254.327,62.3795 253.843,62.4422 253.51,62.4422C 252.535,62.4422 251.777,62.1685 251.237,61.6209C 250.697,61.0733 250.407,60.3146 250.366,59.3448L 250.261,56.7422C 248.912,58.728 247.22,60.2487 245.186,61.3042C 243.151,62.3598 240.954,62.8875 238.595,62.8875 Z M 239.497,59.5922C 241.477,59.5922 243.298,59.17 244.962,58.3256C 246.626,57.4811 247.887,56.3629 248.746,54.9709C 249.078,54.5882 249.33,54.1759 249.499,53.7339C 249.668,53.2919 249.753,52.8795 249.753,52.4969L 249.753,47.1136C 248.48,46.566 247.162,46.1454 245.799,45.8519C 244.435,45.5583 243.044,45.4115 241.626,45.4115C 238.934,45.4115 236.747,46.0448 235.066,47.3115C 233.385,48.5782 232.544,50.244 232.544,52.3089C 232.544,53.3249 232.722,54.2765 233.078,55.1638C 233.434,56.0512 233.92,56.8214 234.536,57.4745C 235.152,58.1277 235.889,58.6439 236.747,59.0232C 237.606,59.4026 238.522,59.5922 239.497,59.5922 Z "/>
		<path fill="#FFFFFF" fill-opacity="1" stroke-width="0.2" stroke-linejoin="round" d="M 262.25,16.0209L 266.06,16.0209L 266.06,54.7829C 266.06,56.0033 266.359,56.9632 266.958,57.6625C 267.556,58.3618 268.398,58.7115 269.484,58.7115C 269.893,58.7115 270.377,58.6472 270.938,58.5185C 271.499,58.3899 272.021,58.22 272.506,58.0089L 273.18,61.4922C 272.474,61.8287 271.607,62.1025 270.579,62.3136C 269.551,62.5247 268.664,62.6302 267.917,62.6302C 266.159,62.6302 264.775,62.0711 263.765,60.9529C 262.755,59.8347 262.25,58.2629 262.25,56.2375L 262.25,16.0209 Z "/>
		<path fill="#FFFFFF" fill-opacity="1" stroke-width="0.2" stroke-linejoin="round" d="M 286.912,62.8875C 284.635,62.8875 282.412,62.4653 280.243,61.6209C 278.074,60.7764 276.207,59.5526 274.643,57.9495L 276.377,55.0302C 278.023,56.5542 279.696,57.6955 281.395,58.4542C 283.094,59.2129 284.915,59.5922 286.86,59.5922C 289.213,59.5922 291.09,59.0546 292.491,57.9792C 293.892,56.9039 294.593,55.3733 294.593,53.3875C 294.593,52.4573 294.406,51.6871 294.032,51.0769C 293.659,50.4666 293.107,49.929 292.377,49.4638C 291.647,48.9987 290.732,48.5864 289.632,48.2269C 288.531,47.8673 287.251,47.4962 285.791,47.1136C 284.11,46.6518 282.653,46.1883 281.421,45.7232C 280.189,45.2581 279.172,44.7303 278.369,44.1399C 277.566,43.5494 276.968,42.8221 276.574,41.9579C 276.18,41.0936 275.983,40.0051 275.983,38.6922C 275.983,37.0495 276.273,35.5948 276.854,34.3282C 277.435,33.0615 278.22,32.0158 279.21,31.1912C 280.199,30.3665 281.357,29.7431 282.682,29.3209C 284.008,28.8987 285.418,28.6875 286.912,28.6875C 289.154,28.6875 291.19,29.0999 293.021,29.9245C 294.851,30.7492 296.327,31.8344 297.448,33.1803L 295.6,35.7136C 294.52,34.4469 293.203,33.4969 291.65,32.8636C 290.097,32.2303 288.48,31.9136 286.798,31.9136C 285.794,31.9136 284.861,32.0307 284,32.2649C 283.139,32.4991 282.382,32.8685 281.728,33.3732C 281.074,33.8779 280.56,34.5211 280.186,35.3029C 279.813,36.0847 279.626,37.0033 279.626,38.0589C 279.626,38.9495 279.757,39.6686 280.02,40.2162C 280.283,40.7638 280.713,41.2388 281.312,41.6412C 281.91,42.0436 282.666,42.4032 283.58,42.7198C 284.494,43.0365 285.604,43.3631 286.912,43.6995C 288.781,44.2075 290.426,44.7138 291.847,45.2185C 293.269,45.7232 294.456,46.3137 295.407,46.9899C 296.359,47.6661 297.077,48.4891 297.562,49.4589C 298.046,50.4287 298.289,51.6129 298.289,53.0115C 298.289,56.0462 297.261,58.4509 295.206,60.2256C 293.151,62.0002 290.386,62.8875 286.912,62.8875 Z "/>
		<path fill="#FFFFFF" fill-opacity="1" stroke-width="0.2" stroke-linejoin="round" d="M 317.127,62.8875C 314.996,62.8875 313.051,62.434 311.294,61.5269C 309.537,60.6198 308.014,59.3844 306.727,57.8209C 305.439,56.2574 304.441,54.4414 303.732,52.3732C 303.022,50.305 302.668,48.1295 302.668,45.8469C 302.668,43.5247 303.031,41.3295 303.758,39.2613C 304.485,37.193 305.493,35.3788 306.784,33.8185C 308.074,32.2583 309.596,31.0131 311.351,30.0829C 313.105,29.1526 315.031,28.6875 317.127,28.6875C 319.217,28.6875 321.149,29.1526 322.924,30.0829C 324.699,31.0131 326.232,32.2583 327.522,33.8185C 328.813,35.3788 329.821,37.193 330.548,39.2613C 331.275,41.3295 331.638,43.5247 331.638,45.8469C 331.638,48.1295 331.284,50.305 330.574,52.3732C 329.865,54.4414 328.867,56.2574 327.579,57.8209C 326.292,59.3844 324.761,60.6198 322.986,61.5269C 321.211,62.434 319.258,62.8875 317.127,62.8875 Z M 306.53,45.9162C 306.53,47.77 306.81,49.4886 307.37,51.0719C 307.931,52.6552 308.689,54.0489 309.643,55.2529C 310.598,56.4569 311.719,57.397 313.006,58.0732C 314.294,58.7494 315.667,59.0876 317.127,59.0876C 318.58,59.0876 319.953,58.7395 321.243,58.0435C 322.533,57.3475 323.664,56.3975 324.637,55.1935C 325.609,53.9895 326.375,52.586 326.935,50.9828C 327.496,49.3797 327.776,47.648 327.776,45.7875C 327.776,43.9733 327.496,42.2531 326.935,40.6269C 326.375,39.0006 325.609,37.5855 324.637,36.3816C 323.664,35.1776 322.533,34.2276 321.243,33.5316C 319.953,32.8355 318.58,32.4875 317.127,32.4875C 315.667,32.4875 314.302,32.8355 313.032,33.5316C 311.763,34.2276 310.642,35.1875 309.669,36.4113C 308.697,37.635 307.931,39.06 307.37,40.6862C 306.81,42.3125 306.53,44.0558 306.53,45.9162 Z "/>
		<path fill="#FFFFFF" fill-opacity="1" stroke-width="0.2" stroke-linejoin="round" d="M 364.883,62.8875C 362.863,62.8875 360.993,62.4125 359.274,61.4626C 357.554,60.5125 356.078,59.2558 354.847,57.6922C 353.615,56.1287 352.653,54.3243 351.961,52.2792C 351.269,50.2341 350.923,48.09 350.923,45.8469C 350.923,43.5247 351.259,41.3196 351.93,39.2316C 352.602,37.1435 353.527,35.3177 354.706,33.7542C 355.886,32.1907 357.287,30.9554 358.91,30.0482C 360.533,29.1411 362.317,28.6875 364.261,28.6875C 366.731,28.6875 368.917,29.4165 370.821,30.8745C 372.724,32.3325 374.219,34.094 375.305,36.1589L 375.305,16.0209L 379.114,16.0209L 379.114,56.6829C 379.114,57.8638 379.564,58.4542 380.463,58.4542L 380.463,62.2542C 379.903,62.3795 379.453,62.4422 379.114,62.4422C 378.221,62.4422 377.437,62.1157 376.763,61.4626C 376.089,60.8094 375.751,60.0178 375.751,59.0876L 375.751,55.8615C 374.595,58.0122 373.026,59.7209 371.044,60.9875C 369.062,62.2542 367.008,62.8875 364.883,62.8875 Z M 365.724,59.0876C 366.658,59.0876 367.656,58.8764 368.719,58.4542C 369.782,58.032 370.78,57.4514 371.714,56.7126C 372.648,55.9737 373.442,55.1078 374.096,54.1149C 374.75,53.122 375.153,52.0549 375.305,50.9136L 375.305,40.7209C 374.931,39.5796 374.39,38.5125 373.68,37.5196C 372.971,36.5267 372.158,35.6509 371.241,34.8922C 370.324,34.1335 369.344,33.5431 368.299,33.1209C 367.253,32.6986 366.226,32.4875 365.216,32.4875C 363.645,32.4875 362.225,32.8669 360.955,33.6256C 359.685,34.3842 358.592,35.387 357.675,36.6339C 356.759,37.8808 356.058,39.3058 355.573,40.9089C 355.089,42.512 354.847,44.1581 354.847,45.8469C 354.847,47.6216 355.127,49.3121 355.687,50.9185C 356.248,52.525 357.014,53.9285 357.986,55.1292C 358.958,56.3299 360.107,57.2898 361.432,58.0089C 362.758,58.728 364.188,59.0876 365.724,59.0876 Z "/>
		<path fill="#FFFFFF" fill-opacity="1" stroke-width="0.2" stroke-linejoin="round" d="M 400.247,62.8875C 398.116,62.8875 396.163,62.434 394.388,61.5269C 392.613,60.6198 391.072,59.3745 389.764,57.7912C 388.456,56.2079 387.439,54.3821 386.712,52.3138C 385.985,50.2456 385.621,48.0273 385.621,45.6589C 385.621,43.3367 385.985,41.1513 386.712,39.1029C 387.439,37.0545 388.447,35.26 389.738,33.7196C 391.028,32.1791 392.569,30.9554 394.362,30.0482C 396.154,29.1411 398.098,28.6875 400.194,28.6875C 402.32,28.6875 404.27,29.1411 406.045,30.0482C 407.82,30.9554 409.343,32.1907 410.616,33.7542C 411.889,35.3177 412.88,37.1122 413.59,39.1375C 414.299,41.1629 414.654,43.3169 414.654,45.5995C 414.654,45.936 414.654,46.2724 414.654,46.6089C 414.654,46.9453 414.633,47.1796 414.592,47.3115L 389.598,47.3115C 389.708,49.0796 390.072,50.714 390.688,52.2149C 391.304,53.7158 392.098,55.0154 393.07,56.1139C 394.042,57.2123 395.154,58.0666 396.407,58.6768C 397.659,59.2871 398.995,59.5922 400.413,59.5922C 401.348,59.5922 402.282,59.4454 403.216,59.1519C 404.15,58.8583 405.01,58.4575 405.795,57.9495C 406.58,57.4415 407.291,56.8181 407.928,56.0792C 408.564,55.3403 409.049,54.5289 409.381,53.6448L 412.692,54.6542C 412.242,55.8813 411.606,56.9896 410.783,57.9792C 409.959,58.9688 409.006,59.833 407.923,60.5719C 406.84,61.3108 405.645,61.8815 404.337,62.2839C 403.029,62.6863 401.666,62.8875 400.247,62.8875 Z M 411.01,44.0162C 410.899,42.2415 410.535,40.6252 409.916,39.1672C 409.297,37.7093 408.511,36.4525 407.56,35.3969C 406.608,34.3414 405.506,33.5183 404.254,32.9279C 403.001,32.3375 401.666,32.0422 400.247,32.0422C 398.828,32.0422 397.484,32.3375 396.214,32.9279C 394.944,33.5183 393.832,34.3414 392.877,35.3969C 391.923,36.4525 391.156,37.7191 390.578,39.1969C 390,40.6747 389.656,42.2811 389.545,44.0162L 411.01,44.0162 Z "/>
		<path fill="#FFFFFF" fill-opacity="1" stroke-width="0.2" stroke-linejoin="round" d="M 420.872,16.0209L 424.681,16.0209L 424.681,54.7829C 424.681,56.0033 424.981,56.9632 425.579,57.6625C 426.177,58.3618 427.02,58.7115 428.106,58.7115C 428.514,58.7115 428.999,58.6472 429.559,58.5185C 430.12,58.3899 430.642,58.22 431.127,58.0089L 431.801,61.4922C 431.095,61.8287 430.228,62.1025 429.2,62.3136C 428.173,62.5247 427.285,62.6302 426.538,62.6302C 424.781,62.6302 423.397,62.0711 422.387,60.9529C 421.377,59.8347 420.872,58.2629 420.872,56.2375L 420.872,16.0209 Z "/>
		<path fill="#FFFFFF" fill-opacity="1" stroke-width="0.2" stroke-linejoin="round" d="M 448.45,62.8875C 446.319,62.8875 444.366,62.434 442.591,61.5269C 440.816,60.6198 439.275,59.3745 437.967,57.7912C 436.659,56.2079 435.642,54.3821 434.915,52.3138C 434.188,50.2456 433.824,48.0273 433.824,45.6589C 433.824,43.3367 434.188,41.1513 434.915,39.1029C 435.642,37.0545 436.65,35.26 437.941,33.7196C 439.231,32.1791 440.772,30.9554 442.565,30.0482C 444.357,29.1411 446.301,28.6875 448.397,28.6875C 450.523,28.6875 452.473,29.1411 454.248,30.0482C 456.023,30.9554 457.546,32.1907 458.819,33.7542C 460.092,35.3177 461.083,37.1122 461.793,39.1375C 462.502,41.1629 462.857,43.3169 462.857,45.5995C 462.857,45.936 462.857,46.2724 462.857,46.6089C 462.857,46.9453 462.836,47.1796 462.795,47.3115L 437.801,47.3115C 437.911,49.0796 438.275,50.714 438.891,52.2149C 439.507,53.7158 440.301,55.0154 441.273,56.1139C 442.245,57.2123 443.357,58.0666 444.61,58.6768C 445.862,59.2871 447.198,59.5922 448.616,59.5922C 449.551,59.5922 450.485,59.4454 451.419,59.1519C 452.353,58.8583 453.213,58.4575 453.998,57.9495C 454.783,57.4415 455.494,56.8181 456.131,56.0792C 456.767,55.3403 457.252,54.5289 457.584,53.6448L 460.895,54.6542C 460.445,55.8813 459.809,56.9896 458.986,57.9792C 458.162,58.9688 457.209,59.833 456.126,60.5719C 455.043,61.3108 453.848,61.8815 452.54,62.2839C 451.232,62.6863 449.869,62.8875 448.45,62.8875 Z M 459.213,44.0162C 459.102,42.2415 458.738,40.6252 458.119,39.1672C 457.5,37.7093 456.714,36.4525 455.763,35.3969C 454.811,34.3414 453.709,33.5183 452.457,32.9279C 451.204,32.3375 449.869,32.0422 448.45,32.0422C 447.031,32.0422 445.687,32.3375 444.417,32.9279C 443.147,33.5183 442.035,34.3414 441.08,35.3969C 440.126,36.4525 439.359,37.7191 438.781,39.1969C 438.203,40.6747 437.859,42.2811 437.748,44.0162L 459.213,44.0162 Z "/>
		<path fill="#FFFFFF" fill-opacity="1" stroke-width="0.2" stroke-linejoin="round" d="M 482.921,60.6709C 482.699,60.7962 482.372,60.9644 481.94,61.1756C 481.508,61.3867 481.012,61.5978 480.451,61.8089C 479.891,62.02 479.256,62.2097 478.546,62.3779C 477.837,62.5461 477.091,62.6302 476.309,62.6302C 475.485,62.6302 474.7,62.5049 473.953,62.2542C 473.205,62.0035 472.552,61.6143 471.991,61.0865C 471.431,60.5587 470.982,59.8924 470.647,59.0876C 470.311,58.2827 470.143,57.3525 470.143,56.2969L 470.143,32.6756L 466.106,32.6756L 466.106,29.2615L 470.143,29.2615L 470.143,18.1089L 473.953,18.1089L 473.953,29.2615L 480.679,29.2615L 480.679,32.6756L 473.953,32.6756L 473.953,55.0995C 474.029,56.32 474.413,57.2156 475.104,57.7862C 475.796,58.3569 476.589,58.6422 477.482,58.6422C 478.568,58.6422 479.521,58.4427 480.342,58.0435C 481.162,57.6444 481.686,57.3591 481.914,57.1875L 482.921,60.6709 Z "/>
		<path fill="#FFFFFF" fill-opacity="1" stroke-width="0.2" stroke-linejoin="round" d="M 500.577,62.8875C 498.445,62.8875 496.492,62.434 494.718,61.5269C 492.943,60.6198 491.401,59.3745 490.093,57.7912C 488.786,56.2079 487.768,54.3821 487.041,52.3138C 486.314,50.2456 485.951,48.0273 485.951,45.6589C 485.951,43.3367 486.314,41.1513 487.041,39.1029C 487.768,37.0545 488.777,35.26 490.067,33.7196C 491.357,32.1791 492.899,30.9554 494.691,30.0482C 496.484,29.1411 498.428,28.6875 500.524,28.6875C 502.649,28.6875 504.599,29.1411 506.374,30.0482C 508.149,30.9554 509.673,32.1907 510.946,33.7542C 512.219,35.3177 513.21,37.1122 513.919,39.1375C 514.628,41.1629 514.983,43.3169 514.983,45.5995C 514.983,45.936 514.983,46.2724 514.983,46.6089C 514.983,46.9453 514.963,47.1796 514.922,47.3115L 489.927,47.3115C 490.038,49.0796 490.401,50.714 491.017,52.2149C 491.633,53.7158 492.427,55.0154 493.4,56.1139C 494.372,57.2123 495.484,58.0666 496.736,58.6768C 497.989,59.2871 499.324,59.5922 500.743,59.5922C 501.677,59.5922 502.611,59.4454 503.545,59.1519C 504.48,58.8583 505.339,58.4575 506.125,57.9495C 506.91,57.4415 507.621,56.8181 508.257,56.0792C 508.894,55.3403 509.378,54.5289 509.711,53.6448L 513.021,54.6542C 512.572,55.8813 511.935,56.9896 511.112,57.9792C 510.289,58.9688 509.336,59.833 508.253,60.5719C 507.17,61.3108 505.974,61.8815 504.666,62.2839C 503.359,62.6863 501.995,62.8875 500.577,62.8875 Z M 511.34,44.0162C 511.229,42.2415 510.864,40.6252 510.245,39.1672C 509.626,37.7093 508.841,36.4525 507.889,35.3969C 506.938,34.3414 505.836,33.5183 504.583,32.9279C 503.331,32.3375 501.995,32.0422 500.577,32.0422C 499.158,32.0422 497.813,32.3375 496.544,32.9279C 495.274,33.5183 494.161,34.3414 493.207,35.3969C 492.252,36.4525 491.486,37.7191 490.908,39.1969C 490.33,40.6747 489.985,42.2811 489.875,44.0162L 511.34,44.0162 Z "/>
		<path fill="#FFFFFF" fill-opacity="1" stroke-width="0.2" stroke-linejoin="round" d="M 548.219,62.8875C 546.088,62.8875 544.135,62.434 542.36,61.5269C 540.585,60.6198 539.044,59.3745 537.736,57.7912C 536.428,56.2079 535.411,54.3821 534.684,52.3138C 533.957,50.2456 533.594,48.0273 533.594,45.6589C 533.594,43.3367 533.957,41.1513 534.684,39.1029C 535.411,37.0545 536.419,35.26 537.71,33.7196C 539,32.1791 540.541,30.9554 542.334,30.0482C 544.126,29.1411 546.07,28.6875 548.167,28.6875C 550.292,28.6875 552.242,29.1411 554.017,30.0482C 555.792,30.9554 557.315,32.1907 558.588,33.7542C 559.861,35.3177 560.852,37.1122 561.562,39.1375C 562.271,41.1629 562.626,43.3169 562.626,45.5995C 562.626,45.936 562.626,46.2724 562.626,46.6089C 562.626,46.9453 562.605,47.1796 562.564,47.3115L 537.57,47.3115C 537.68,49.0796 538.044,50.714 538.66,52.2149C 539.276,53.7158 540.07,55.0154 541.042,56.1139C 542.014,57.2123 543.126,58.0666 544.379,58.6768C 545.631,59.2871 546.967,59.5922 548.385,59.5922C 549.32,59.5922 550.254,59.4454 551.188,59.1519C 552.122,58.8583 552.982,58.4575 553.767,57.9495C 554.552,57.4415 555.263,56.8181 555.9,56.0792C 556.536,55.3403 557.021,54.5289 557.353,53.6448L 560.664,54.6542C 560.214,55.8813 559.578,56.9896 558.755,57.9792C 557.931,58.9688 556.978,59.833 555.895,60.5719C 554.812,61.3108 553.617,61.8815 552.309,62.2839C 551.001,62.6863 549.638,62.8875 548.219,62.8875 Z M 558.982,44.0162C 558.871,42.2415 558.507,40.6252 557.888,39.1672C 557.269,37.7093 556.483,36.4525 555.532,35.3969C 554.58,34.3414 553.478,33.5183 552.226,32.9279C 550.973,32.3375 549.638,32.0422 548.219,32.0422C 546.8,32.0422 545.456,32.3375 544.186,32.9279C 542.916,33.5183 541.804,34.3414 540.849,35.3969C 539.895,36.4525 539.128,37.7191 538.55,39.1969C 537.972,40.6747 537.628,42.2811 537.517,44.0162L 558.982,44.0162 Z "/>
		<path fill="#FFFFFF" fill-opacity="1" stroke-width="0.2" stroke-linejoin="round" d="M 593.225,62.2542L 589.416,62.2542L 589.416,43.8282C 589.416,39.8962 588.902,37.0446 587.874,35.2732C 586.847,33.5019 585.268,32.6162 583.136,32.6162C 582.015,32.6162 580.894,32.8487 579.773,33.3138C 578.652,33.779 577.616,34.4337 576.664,35.2782C 575.713,36.1226 574.863,37.1254 574.116,38.2865C 573.369,39.4476 572.826,40.7011 572.487,42.0469L 572.487,62.2542L 568.677,62.2542L 568.677,29.2615L 572.154,29.2615L 572.154,36.7329C 573.351,34.3249 575.06,32.382 577.282,30.9042C 579.503,29.4264 581.922,28.6875 584.538,28.6875C 586.143,28.6875 587.507,29.0257 588.628,29.7019C 589.749,30.3781 590.646,31.3281 591.321,32.5519C 591.995,33.7757 592.481,35.2749 592.779,37.0495C 593.077,38.8242 593.225,40.7868 593.225,42.9375L 593.225,62.2542 Z "/>
		<path fill="#FFFFFF" fill-opacity="1" stroke-width="0.2" stroke-linejoin="round" d="M 615.199,60.6709C 614.977,60.7962 614.65,60.9644 614.218,61.1756C 613.786,61.3867 613.29,61.5978 612.729,61.8089C 612.169,62.02 611.534,62.2097 610.824,62.3779C 610.115,62.5461 609.369,62.6302 608.587,62.6302C 607.763,62.6302 606.978,62.5049 606.231,62.2542C 605.483,62.0035 604.83,61.6143 604.269,61.0865C 603.709,60.5587 603.26,59.8924 602.925,59.0876C 602.589,58.2827 602.421,57.3525 602.421,56.2969L 602.421,32.6756L 598.384,32.6756L 598.384,29.2615L 602.421,29.2615L 602.421,18.1089L 606.231,18.1089L 606.231,29.2615L 612.957,29.2615L 612.957,32.6756L 606.231,32.6756L 606.231,55.0995C 606.307,56.32 606.691,57.2156 607.382,57.7862C 608.074,58.3569 608.867,58.6422 609.76,58.6422C 610.846,58.6422 611.799,58.4427 612.62,58.0435C 613.44,57.6444 613.964,57.3591 614.192,57.1875L 615.199,60.6709 Z "/>
		<path fill="#FFFFFF" fill-opacity="1" stroke-width="0.2" stroke-linejoin="round" d="M 620.243,62.2542L 620.243,29.2615L 624.053,29.2615L 624.053,62.2542L 620.243,62.2542 Z M 620.243,22.3542L 620.243,16.0209L 624.053,16.0209L 624.053,22.3542L 620.243,22.3542 Z "/>
		<path fill="#FFFFFF" fill-opacity="1" stroke-width="0.2" stroke-linejoin="round" d="M 646.587,60.6709C 646.365,60.7962 646.038,60.9644 645.606,61.1756C 645.174,61.3867 644.678,61.5978 644.117,61.8089C 643.557,62.02 642.922,62.2097 642.212,62.3779C 641.503,62.5461 640.757,62.6302 639.975,62.6302C 639.151,62.6302 638.366,62.5049 637.619,62.2542C 636.872,62.0035 636.218,61.6143 635.657,61.0865C 635.097,60.5587 634.648,59.8924 634.313,59.0876C 633.977,58.2827 633.809,57.3525 633.809,56.2969L 633.809,32.6756L 629.772,32.6756L 629.772,29.2615L 633.809,29.2615L 633.809,18.1089L 637.619,18.1089L 637.619,29.2615L 644.345,29.2615L 644.345,32.6756L 637.619,32.6756L 637.619,55.0995C 637.695,56.32 638.079,57.2156 638.77,57.7862C 639.462,58.3569 640.255,58.6422 641.148,58.6422C 642.234,58.6422 643.187,58.4427 644.008,58.0435C 644.828,57.6444 645.352,57.3591 645.58,57.1875L 646.587,60.6709 Z "/>
		<path fill="#FFFFFF" fill-opacity="1" stroke-width="0.2" stroke-linejoin="round" d="M 651.631,62.2542L 651.631,29.2615L 655.441,29.2615L 655.441,62.2542L 651.631,62.2542 Z M 651.631,22.3542L 651.631,16.0209L 655.441,16.0209L 655.441,22.3542L 651.631,22.3542 Z "/>
		<path fill="#FFFFFF" fill-opacity="1" stroke-width="0.2" stroke-linejoin="round" d="M 676.574,62.8875C 674.443,62.8875 672.49,62.434 670.715,61.5269C 668.94,60.6198 667.398,59.3745 666.09,57.7912C 664.783,56.2079 663.765,54.3821 663.038,52.3138C 662.311,50.2456 661.948,48.0273 661.948,45.6589C 661.948,43.3367 662.311,41.1513 663.038,39.1029C 663.765,37.0545 664.774,35.26 666.064,33.7196C 667.354,32.1791 668.896,30.9554 670.688,30.0482C 672.481,29.1411 674.425,28.6875 676.521,28.6875C 678.646,28.6875 680.596,29.1411 682.371,30.0482C 684.146,30.9554 685.67,32.1907 686.943,33.7542C 688.216,35.3177 689.207,37.1122 689.916,39.1375C 690.625,41.1629 690.98,43.3169 690.98,45.5995C 690.98,45.936 690.98,46.2724 690.98,46.6089C 690.98,46.9453 690.96,47.1796 690.919,47.3115L 665.924,47.3115C 666.035,49.0796 666.398,50.714 667.014,52.2149C 667.63,53.7158 668.424,55.0154 669.397,56.1139C 670.369,57.2123 671.481,58.0666 672.733,58.6768C 673.986,59.2871 675.321,59.5922 676.74,59.5922C 677.674,59.5922 678.608,59.4454 679.542,59.1519C 680.477,58.8583 681.336,58.4575 682.122,57.9495C 682.907,57.4415 683.618,56.8181 684.254,56.0792C 684.891,55.3403 685.375,54.5289 685.708,53.6448L 689.018,54.6542C 688.569,55.8813 687.932,56.9896 687.109,57.9792C 686.286,58.9688 685.333,59.833 684.25,60.5719C 683.167,61.3108 681.971,61.8815 680.663,62.2839C 679.356,62.6863 677.992,62.8875 676.574,62.8875 Z M 687.337,44.0162C 687.226,42.2415 686.861,40.6252 686.242,39.1672C 685.623,37.7093 684.838,36.4525 683.886,35.3969C 682.935,34.3414 681.833,33.5183 680.58,32.9279C 679.328,32.3375 677.992,32.0422 676.574,32.0422C 675.155,32.0422 673.81,32.3375 672.541,32.9279C 671.271,33.5183 670.159,34.3414 669.204,35.3969C 668.249,36.4525 667.483,37.7191 666.905,39.1969C 666.327,40.6747 665.982,42.2811 665.872,44.0162L 687.337,44.0162 Z "/>
		<path fill="#FFFFFF" fill-opacity="1" stroke-width="0.2" stroke-linejoin="round" d="M 706.727,62.8875C 704.45,62.8875 702.227,62.4653 700.058,61.6209C 697.889,60.7764 696.022,59.5526 694.457,57.9495L 696.191,55.0302C 697.837,56.5542 699.51,57.6955 701.209,58.4542C 702.908,59.2129 704.73,59.5922 706.674,59.5922C 709.027,59.5922 710.904,59.0546 712.305,57.9792C 713.707,56.9039 714.407,55.3733 714.407,53.3875C 714.407,52.4573 714.22,51.6871 713.847,51.0769C 713.473,50.4666 712.921,49.929 712.192,49.4638C 711.462,48.9987 710.547,48.5864 709.446,48.2269C 708.345,47.8673 707.065,47.4962 705.606,47.1136C 703.924,46.6518 702.467,46.1883 701.236,45.7232C 700.004,45.2581 698.986,44.7303 698.183,44.1399C 697.381,43.5494 696.782,42.8221 696.388,41.9579C 695.994,41.0936 695.797,40.0051 695.797,38.6922C 695.797,37.0495 696.087,35.5948 696.668,34.3282C 697.249,33.0615 698.035,32.0158 699.024,31.1912C 700.014,30.3665 701.171,29.7431 702.497,29.3209C 703.822,28.8987 705.232,28.6875 706.727,28.6875C 708.969,28.6875 711.005,29.0999 712.835,29.9245C 714.666,30.7492 716.141,31.8344 717.262,33.1803L 715.414,35.7136C 714.334,34.4469 713.018,33.4969 711.465,32.8636C 709.912,32.2303 708.294,31.9136 706.613,31.9136C 705.609,31.9136 704.676,32.0307 703.815,32.2649C 702.954,32.4991 702.196,32.8685 701.542,33.3732C 700.888,33.8779 700.374,34.5211 700.001,35.3029C 699.627,36.0847 699.44,37.0033 699.44,38.0589C 699.44,38.9495 699.572,39.6686 699.834,40.2162C 700.097,40.7638 700.528,41.2388 701.126,41.6412C 701.725,42.0436 702.481,42.4032 703.394,42.7198C 704.308,43.0365 705.419,43.3631 706.727,43.6995C 708.595,44.2075 710.24,44.7138 711.662,45.2185C 713.083,45.7232 714.27,46.3137 715.222,46.9899C 716.173,47.6661 716.892,48.4891 717.376,49.4589C 717.861,50.4287 718.103,51.6129 718.103,53.0115C 718.103,56.0462 717.076,58.4509 715.02,60.2256C 712.965,62.0002 710.201,62.8875 706.727,62.8875 Z "/>
		<path fill="#FFFFFF" fill-opacity="1" stroke-width="0.2" stroke-linejoin="round" d="M 753.362,62.8875C 751.044,62.8875 748.923,62.2328 747,60.9232C 745.076,59.6137 743.571,57.9264 742.485,55.8615L 742.485,62.2542L 739.069,62.2542L 739.069,16.0209L 742.879,16.0209L 742.879,36.1589C 744.187,33.9225 745.756,32.1181 747.586,30.7459C 749.417,29.3737 751.546,28.6875 753.975,28.6875C 756.03,28.6875 757.871,29.1725 759.497,30.1422C 761.123,31.112 762.507,32.41 763.648,34.0363C 764.79,35.6624 765.668,37.4998 766.284,39.5482C 766.9,41.5966 767.208,43.6962 767.208,45.8469C 767.208,48.1692 766.853,50.366 766.144,52.4375C 765.435,54.5091 764.463,56.3151 763.228,57.8555C 761.993,59.396 760.526,60.6198 758.827,61.5269C 757.128,62.434 755.306,62.8875 753.362,62.8875 Z M 752.469,59.0876C 754.074,59.0876 755.54,58.7181 756.865,57.9792C 758.19,57.2403 759.331,56.2474 760.285,55.0006C 761.24,53.7537 761.987,52.3386 762.527,50.7552C 763.067,49.1719 763.337,47.5358 763.337,45.8469C 763.337,44.1184 763.085,42.4527 762.58,40.8495C 762.075,39.2464 761.365,37.8214 760.451,36.5745C 759.538,35.3277 758.436,34.3347 757.145,33.5959C 755.855,32.857 754.445,32.4875 752.915,32.4875C 751.753,32.4875 750.669,32.7086 749.662,33.1506C 748.655,33.5926 747.721,34.1946 746.859,34.9566C 745.998,35.7185 745.232,36.596 744.56,37.5888C 743.889,38.5817 743.329,39.6257 742.879,40.7209L 742.879,50.9828C 743.031,52.1242 743.434,53.1896 744.087,54.1792C 744.741,55.1688 745.525,56.0231 746.439,56.7422C 747.353,57.4613 748.342,58.032 749.408,58.4542C 750.473,58.8764 751.494,59.0876 752.469,59.0876 Z "/>
		<path fill="#FFFFFF" fill-opacity="1" stroke-width="0.2" stroke-linejoin="round" d="M 775.502,72.3876C 775.8,72.4271 776.089,72.4585 776.369,72.4816C 776.649,72.5046 776.921,72.5162 777.183,72.5162C 777.855,72.5162 778.388,72.4106 778.782,72.1995C 779.176,71.9884 779.56,71.5233 779.933,70.8042C 780.307,70.0851 780.727,69.051 781.194,67.7019C 781.661,66.3527 782.324,64.5368 783.182,62.2542L 770.457,29.2615L 774.381,29.2615L 785.197,58.2662L 795.233,29.2615L 798.876,29.2615L 783.743,71.8136C 783.328,73.0407 782.645,74.1078 781.694,75.0149C 780.742,75.922 779.443,76.3756 777.796,76.3756C 777.423,76.3756 777.068,76.3657 776.732,76.3459C 776.397,76.3261 775.986,76.2733 775.502,76.1875L 775.502,72.3876 Z "/>
		<path fill="#FFFFFF" fill-opacity="1" stroke-width="0.2" stroke-linejoin="round" d="M 830.378,62.6995C 828.358,62.6995 826.516,62.2245 824.852,61.2745C 823.188,60.3245 821.749,59.0677 820.534,57.5042C 819.32,55.9407 818.377,54.1462 817.706,52.1209C 817.034,50.0956 816.698,48.0042 816.698,45.8469C 816.698,43.5709 817.025,41.3872 817.679,39.2959C 818.333,37.2046 819.259,35.3788 820.456,33.8185C 821.653,32.2583 823.082,31.0131 824.743,30.0829C 826.404,29.1526 828.244,28.6875 830.264,28.6875C 832.769,28.6875 834.937,29.3951 836.767,30.8102C 838.597,32.2253 840.167,34.0082 841.474,36.1589L 841.474,29.2615L 844.89,29.2615L 844.89,62.3828C 844.89,64.6589 844.508,66.6744 843.743,68.4292C 842.978,70.1841 841.95,71.652 840.66,72.8329C 839.37,74.0137 837.856,74.8994 836.119,75.4899C 834.382,76.0803 832.541,76.3756 830.597,76.3756C 827.234,76.3756 824.525,75.701 822.47,74.3519C 820.415,73.0027 818.754,71.1868 817.487,68.9042L 819.834,66.8162C 820.996,68.9273 822.53,70.4793 824.436,71.4722C 826.342,72.4651 828.396,72.9615 830.597,72.9615C 832.016,72.9615 833.362,72.7388 834.635,72.2935C 835.907,71.8482 837.02,71.1934 837.971,70.3292C 838.923,69.465 839.679,68.3682 840.24,67.0388C 840.8,65.7095 841.08,64.1575 841.08,62.3828L 841.08,55.8615C 839.959,57.9726 838.427,59.64 836.482,60.8639C 834.538,62.0876 832.503,62.6995 830.378,62.6995 Z M 831.438,59.0876C 832.559,59.0876 833.661,58.855 834.744,58.3899C 835.827,57.9248 836.808,57.3014 837.687,56.5196C 838.565,55.7378 839.304,54.862 839.902,53.8922C 840.501,52.9225 840.893,51.9296 841.08,50.9136L 841.08,40.7209C 840.672,39.54 840.111,38.4432 839.399,37.4305C 838.686,36.4178 837.882,35.552 836.986,34.8329C 836.09,34.1138 835.128,33.5431 834.1,33.1209C 833.073,32.6986 832.036,32.4875 830.991,32.4875C 829.345,32.4875 827.878,32.8784 826.591,33.6602C 825.303,34.442 824.211,35.4662 823.315,36.7329C 822.419,37.9995 821.737,39.4344 821.27,41.0375C 820.803,42.6407 820.57,44.2669 820.57,45.9162C 820.57,47.6908 820.85,49.3797 821.41,50.9828C 821.971,52.586 822.746,53.9895 823.735,55.1935C 824.725,56.3975 825.874,57.3475 827.182,58.0435C 828.489,58.7395 829.908,59.0876 831.438,59.0876 Z "/>
		<path fill="#FFFFFF" fill-opacity="1" stroke-width="0.2" stroke-linejoin="round" d="M 867.984,33.0615C 865.404,33.1407 863.162,33.9406 861.258,35.4612C 859.355,36.9819 858.009,39.0716 857.221,41.7303L 857.221,62.2542L 853.411,62.2542L 853.411,29.2615L 857.002,29.2615L 857.002,37.1782C 858.082,34.6448 859.537,32.6591 861.368,31.2209C 863.198,29.7827 865.161,29.0636 867.257,29.0636C 867.555,29.0636 867.797,29.0867 867.984,29.1328L 867.984,33.0615 Z "/>
		<path fill="#FFFFFF" fill-opacity="1" stroke-width="0.2" stroke-linejoin="round" d="M 880.368,62.8875C 878.99,62.8875 877.711,62.6237 876.532,62.0959C 875.353,61.5681 874.325,60.8391 873.449,59.9089C 872.573,58.9787 871.892,57.8918 871.404,56.6482C 870.917,55.4046 870.673,54.0638 870.673,52.6256C 870.673,51.194 870.972,49.8646 871.571,48.6375C 872.169,47.4105 873.01,46.3549 874.093,45.4709C 875.176,44.5869 876.465,43.9007 877.959,43.4125C 879.454,42.9243 881.098,42.6803 882.89,42.6803C 884.385,42.6803 885.898,42.8287 887.431,43.1256C 888.964,43.4225 890.328,43.8447 891.525,44.3922L 891.525,41.4136C 891.525,38.5042 890.797,36.1935 889.34,34.4816C 887.884,32.7696 885.865,31.9136 883.284,31.9136C 881.79,31.9136 880.258,32.2517 878.691,32.9279C 877.123,33.6041 875.534,34.5756 873.922,35.8423L 872.582,32.9922C 876.354,30.1224 880.015,28.6875 883.564,28.6875C 887.225,28.6875 890.102,29.8487 892.195,32.1709C 894.288,34.4931 895.335,37.7027 895.335,41.7995L 895.335,56.6829C 895.335,57.8638 895.802,58.4542 896.736,58.4542L 896.736,62.2542C 896.1,62.3795 895.615,62.4422 895.282,62.4422C 894.307,62.4422 893.55,62.1685 893.01,61.6209C 892.47,61.0733 892.179,60.3146 892.138,59.3448L 892.033,56.7422C 890.685,58.728 888.993,60.2487 886.958,61.3042C 884.923,62.3598 882.727,62.8875 880.368,62.8875 Z M 881.27,59.5922C 883.249,59.5922 885.071,59.17 886.735,58.3256C 888.399,57.4811 889.66,56.3629 890.518,54.9709C 890.851,54.5882 891.102,54.1759 891.271,53.7339C 891.441,53.2919 891.525,52.8795 891.525,52.4969L 891.525,47.1136C 890.253,46.566 888.935,46.1454 887.571,45.8519C 886.208,45.5583 884.817,45.4115 883.398,45.4115C 880.706,45.4115 878.52,46.0448 876.838,47.3115C 875.157,48.5782 874.316,50.244 874.316,52.3089C 874.316,53.3249 874.494,54.2765 874.85,55.1638C 875.207,56.0512 875.693,56.8214 876.309,57.4745C 876.925,58.1277 877.662,58.6439 878.52,59.0232C 879.378,59.4026 880.295,59.5922 881.27,59.5922 Z "/>
		<path fill="#FFFFFF" fill-opacity="1" stroke-width="0.2" stroke-linejoin="round" d="M 918.149,62.8875C 915.831,62.8875 913.71,62.2328 911.786,60.9232C 909.863,59.6137 908.358,57.9264 907.272,55.8615L 907.272,62.2542L 903.856,62.2542L 903.856,16.0209L 907.666,16.0209L 907.666,36.1589C 908.974,33.9225 910.543,32.1181 912.373,30.7459C 914.204,29.3737 916.333,28.6875 918.762,28.6875C 920.817,28.6875 922.658,29.1725 924.284,30.1422C 925.91,31.112 927.294,32.41 928.435,34.0363C 929.576,35.6624 930.455,37.4998 931.071,39.5482C 931.687,41.5966 931.995,43.6962 931.995,45.8469C 931.995,48.1692 931.64,50.366 930.931,52.4375C 930.222,54.5091 929.25,56.3151 928.015,57.8555C 926.78,59.396 925.313,60.6198 923.614,61.5269C 921.915,62.434 920.093,62.8875 918.149,62.8875 Z M 917.256,59.0876C 918.861,59.0876 920.327,58.7181 921.652,57.9792C 922.977,57.2403 924.117,56.2474 925.072,55.0006C 926.027,53.7537 926.774,52.3386 927.314,50.7552C 927.854,49.1719 928.124,47.5358 928.124,45.8469C 928.124,44.1184 927.872,42.4527 927.367,40.8495C 926.862,39.2464 926.152,37.8214 925.238,36.5745C 924.325,35.3277 923.223,34.3347 921.932,33.5959C 920.642,32.857 919.232,32.4875 917.702,32.4875C 916.54,32.4875 915.456,32.7086 914.449,33.1506C 913.442,33.5926 912.508,34.1946 911.646,34.9566C 910.785,35.7185 910.019,36.596 909.347,37.5888C 908.676,38.5817 908.115,39.6257 907.666,40.7209L 907.666,50.9828C 907.818,52.1242 908.221,53.1896 908.874,54.1792C 909.528,55.1688 910.312,56.0231 911.226,56.7422C 912.14,57.4613 913.129,58.032 914.195,58.4542C 915.26,58.8764 916.281,59.0876 917.256,59.0876 Z "/>
		<path fill="#FFFFFF" fill-opacity="1" stroke-width="0.2" stroke-linejoin="round" d="M 952.9,62.8875C 950.582,62.8875 948.461,62.2328 946.537,60.9232C 944.614,59.6137 943.109,57.9264 942.023,55.8615L 942.023,62.2542L 938.607,62.2542L 938.607,16.0209L 942.417,16.0209L 942.417,36.1589C 943.725,33.9225 945.294,32.1181 947.124,30.7459C 948.955,29.3737 951.084,28.6875 953.513,28.6875C 955.568,28.6875 957.409,29.1725 959.035,30.1422C 960.661,31.112 962.045,32.41 963.186,34.0363C 964.327,35.6624 965.206,37.4998 965.822,39.5482C 966.438,41.5966 966.746,43.6962 966.746,45.8469C 966.746,48.1692 966.391,50.366 965.682,52.4375C 964.973,54.5091 964,56.3151 962.766,57.8555C 961.531,59.396 960.064,60.6198 958.365,61.5269C 956.666,62.434 954.844,62.8875 952.9,62.8875 Z M 952.007,59.0876C 953.612,59.0876 955.078,58.7181 956.403,57.9792C 957.728,57.2403 958.868,56.2474 959.823,55.0006C 960.778,53.7537 961.525,52.3386 962.065,50.7552C 962.605,49.1719 962.875,47.5358 962.875,45.8469C 962.875,44.1184 962.623,42.4527 962.118,40.8495C 961.613,39.2464 960.903,37.8214 959.989,36.5745C 959.076,35.3277 957.974,34.3347 956.683,33.5959C 955.393,32.857 953.983,32.4875 952.453,32.4875C 951.291,32.4875 950.207,32.7086 949.2,33.1506C 948.193,33.5926 947.258,34.1946 946.397,34.9566C 945.536,35.7185 944.77,36.596 944.098,37.5888C 943.427,38.5817 942.866,39.6257 942.417,40.7209L 942.417,50.9828C 942.569,52.1242 942.971,53.1896 943.625,54.1792C 944.279,55.1688 945.063,56.0231 945.977,56.7422C 946.891,57.4613 947.88,58.032 948.946,58.4542C 950.011,58.8764 951.032,59.0876 952.007,59.0876 Z "/>
		<path fill="#FFFFFF" fill-opacity="1" stroke-width="0.2" stroke-linejoin="round" d="M 973.358,62.2542L 973.358,29.2615L 977.168,29.2615L 977.168,62.2542L 973.358,62.2542 Z M 973.358,22.3542L 973.358,16.0209L 977.168,16.0209L 977.168,22.3542L 973.358,22.3542 Z "/>
		<path fill="#FFFFFF" fill-opacity="1" stroke-width="0.2" stroke-linejoin="round" d="M 1010.24,62.2542L 1006.43,62.2542L 1006.43,43.8282C 1006.43,39.8962 1005.91,37.0446 1004.89,35.2732C 1003.86,33.5019 1002.28,32.6162 1000.15,32.6162C 999.027,32.6162 997.906,32.8487 996.785,33.3138C 995.664,33.779 994.628,34.4337 993.676,35.2782C 992.725,36.1226 991.875,37.1254 991.128,38.2865C 990.38,39.4476 989.837,40.7011 989.499,42.0469L 989.499,62.2542L 985.689,62.2542L 985.689,29.2615L 989.166,29.2615L 989.166,36.7329C 990.363,34.3249 992.072,32.382 994.294,30.9042C 996.515,29.4264 998.934,28.6875 1001.55,28.6875C 1003.16,28.6875 1004.52,29.0257 1005.64,29.7019C 1006.76,30.3781 1007.66,31.3281 1008.33,32.5519C 1009.01,33.7757 1009.49,35.2749 1009.79,37.0495C 1010.09,38.8242 1010.24,40.7868 1010.24,42.9375L 1010.24,62.2542 Z "/>
		<path fill="#FFFFFF" fill-opacity="1" stroke-width="0.2" stroke-linejoin="round" d="M 1029.92,62.6995C 1027.9,62.6995 1026.05,62.2245 1024.39,61.2745C 1022.73,60.3245 1021.29,59.0677 1020.07,57.5042C 1018.86,55.9407 1017.92,54.1462 1017.24,52.1209C 1016.57,50.0956 1016.24,48.0042 1016.24,45.8469C 1016.24,43.5709 1016.56,41.3872 1017.22,39.2959C 1017.87,37.2046 1018.8,35.3788 1019.99,33.8185C 1021.19,32.2583 1022.62,31.0131 1024.28,30.0829C 1025.94,29.1526 1027.78,28.6875 1029.8,28.6875C 1032.31,28.6875 1034.47,29.3951 1036.3,30.8102C 1038.14,32.2253 1039.7,34.0082 1041.01,36.1589L 1041.01,29.2615L 1044.43,29.2615L 1044.43,62.3828C 1044.43,64.6589 1044.05,66.6744 1043.28,68.4292C 1042.52,70.1841 1041.49,71.652 1040.2,72.8329C 1038.91,74.0137 1037.39,74.8994 1035.66,75.4899C 1033.92,76.0803 1032.08,76.3756 1030.14,76.3756C 1026.77,76.3756 1024.06,75.701 1022.01,74.3519C 1019.95,73.0027 1018.29,71.1868 1017.02,68.9042L 1019.37,66.8162C 1020.53,68.9273 1022.07,70.4793 1023.97,71.4722C 1025.88,72.4651 1027.93,72.9615 1030.14,72.9615C 1031.55,72.9615 1032.9,72.7388 1034.17,72.2935C 1035.45,71.8482 1036.56,71.1934 1037.51,70.3292C 1038.46,69.465 1039.22,68.3682 1039.78,67.0388C 1040.34,65.7095 1040.62,64.1575 1040.62,62.3828L 1040.62,55.8615C 1039.5,57.9726 1037.96,59.64 1036.02,60.8639C 1034.08,62.0876 1032.04,62.6995 1029.92,62.6995 Z M 1030.98,59.0876C 1032.1,59.0876 1033.2,58.855 1034.28,58.3899C 1035.36,57.9248 1036.35,57.3014 1037.22,56.5196C 1038.1,55.7378 1038.84,54.862 1039.44,53.8922C 1040.04,52.9225 1040.43,51.9296 1040.62,50.9136L 1040.62,40.7209C 1040.21,39.54 1039.65,38.4432 1038.94,37.4305C 1038.22,36.4178 1037.42,35.552 1036.52,34.8329C 1035.63,34.1138 1034.67,33.5431 1033.64,33.1209C 1032.61,32.6986 1031.57,32.4875 1030.53,32.4875C 1028.88,32.4875 1027.42,32.8784 1026.13,33.6602C 1024.84,34.442 1023.75,35.4662 1022.85,36.7329C 1021.96,37.9995 1021.28,39.4344 1020.81,41.0375C 1020.34,42.6407 1020.11,44.2669 1020.11,45.9162C 1020.11,47.6908 1020.39,49.3797 1020.95,50.9828C 1021.51,52.586 1022.28,53.9895 1023.27,55.1935C 1024.26,56.3975 1025.41,57.3475 1026.72,58.0435C 1028.03,58.7395 1029.45,59.0876 1030.98,59.0876 Z "/>
		<path fill="#FFFFFF" fill-opacity="1" stroke-width="0.2" stroke-linejoin="round" d="M 1081.53,60.6709C 1081.31,60.7962 1080.99,60.9644 1080.55,61.1756C 1080.12,61.3867 1079.63,61.5978 1079.07,61.8089C 1078.5,62.02 1077.87,62.2097 1077.16,62.3779C 1076.45,62.5461 1075.7,62.6302 1074.92,62.6302C 1074.1,62.6302 1073.31,62.5049 1072.57,62.2542C 1071.82,62.0035 1071.17,61.6143 1070.6,61.0865C 1070.04,60.5587 1069.6,59.8924 1069.26,59.0876C 1068.92,58.2827 1068.76,57.3525 1068.76,56.2969L 1068.76,32.6756L 1064.72,32.6756L 1064.72,29.2615L 1068.76,29.2615L 1068.76,18.1089L 1072.57,18.1089L 1072.57,29.2615L 1079.29,29.2615L 1079.29,32.6756L 1072.57,32.6756L 1072.57,55.0995C 1072.64,56.32 1073.03,57.2156 1073.72,57.7862C 1074.41,58.3569 1075.2,58.6422 1076.1,58.6422C 1077.18,58.6422 1078.14,58.4427 1078.96,58.0435C 1079.78,57.6444 1080.3,57.3591 1080.53,57.1875L 1081.53,60.6709 Z "/>
		<path fill="#FFFFFF" fill-opacity="1" stroke-width="0.2" stroke-linejoin="round" d="M 1111.13,62.2542L 1107.32,62.2542L 1107.32,43.8282C 1107.32,40.0677 1106.75,37.259 1105.61,35.4019C 1104.47,33.5448 1102.8,32.6162 1100.59,32.6162C 1099.51,32.6162 1098.43,32.8586 1097.37,33.3435C 1096.31,33.8284 1095.31,34.4931 1094.37,35.3376C 1093.44,36.182 1092.63,37.1749 1091.93,38.3162C 1091.24,39.4575 1090.73,40.7011 1090.39,42.0469L 1090.39,62.2542L 1086.58,62.2542L 1086.58,16.0209L 1090.39,16.0209L 1090.39,36.7329C 1091.55,34.2391 1093.16,32.2748 1095.21,30.8399C 1097.27,29.405 1099.49,28.6875 1101.88,28.6875C 1103.56,28.6875 1104.98,29.0356 1106.14,29.7316C 1107.3,30.4276 1108.25,31.399 1109,32.6459C 1109.75,33.8928 1110.29,35.392 1110.62,37.1435C 1110.96,38.8951 1111.13,40.8264 1111.13,42.9375L 1111.13,62.2542 Z "/>
		<path fill="#FFFFFF" fill-opacity="1" stroke-width="0.2" stroke-linejoin="round" d="M 1131.7,62.8875C 1129.57,62.8875 1127.62,62.434 1125.84,61.5269C 1124.07,60.6198 1122.52,59.3745 1121.22,57.7912C 1119.91,56.2079 1118.89,54.3821 1118.16,52.3138C 1117.44,50.2456 1117.07,48.0273 1117.07,45.6589C 1117.07,43.3367 1117.44,41.1513 1118.16,39.1029C 1118.89,37.0545 1119.9,35.26 1121.19,33.7196C 1122.48,32.1791 1124.02,30.9554 1125.81,30.0482C 1127.61,29.1411 1129.55,28.6875 1131.65,28.6875C 1133.77,28.6875 1135.72,29.1411 1137.5,30.0482C 1139.27,30.9554 1140.8,32.1907 1142.07,33.7542C 1143.34,35.3177 1144.33,37.1122 1145.04,39.1375C 1145.75,41.1629 1146.11,43.3169 1146.11,45.5995C 1146.11,45.936 1146.11,46.2724 1146.11,46.6089C 1146.11,46.9453 1146.09,47.1796 1146.04,47.3115L 1121.05,47.3115C 1121.16,49.0796 1121.52,50.714 1122.14,52.2149C 1122.76,53.7158 1123.55,55.0154 1124.52,56.1139C 1125.49,57.2123 1126.61,58.0666 1127.86,58.6768C 1129.11,59.2871 1130.45,59.5922 1131.87,59.5922C 1132.8,59.5922 1133.73,59.4454 1134.67,59.1519C 1135.6,58.8583 1136.46,58.4575 1137.25,57.9495C 1138.03,57.4415 1138.74,56.8181 1139.38,56.0792C 1140.02,55.3403 1140.5,54.5289 1140.83,53.6448L 1144.14,54.6542C 1143.69,55.8813 1143.06,56.9896 1142.24,57.9792C 1141.41,58.9688 1140.46,59.833 1139.38,60.5719C 1138.29,61.3108 1137.1,61.8815 1135.79,62.2839C 1134.48,62.6863 1133.12,62.8875 1131.7,62.8875 Z M 1142.46,44.0162C 1142.35,42.2415 1141.99,40.6252 1141.37,39.1672C 1140.75,37.7093 1139.96,36.4525 1139.01,35.3969C 1138.06,34.3414 1136.96,33.5183 1135.71,32.9279C 1134.45,32.3375 1133.12,32.0422 1131.7,32.0422C 1130.28,32.0422 1128.94,32.3375 1127.67,32.9279C 1126.4,33.5183 1125.28,34.3414 1124.33,35.3969C 1123.38,36.4525 1122.61,37.7191 1122.03,39.1969C 1121.45,40.6747 1121.11,42.2811 1121,44.0162L 1142.46,44.0162 Z "/>
		<path fill="#FFFFFF" fill-opacity="1" stroke-width="0.2" stroke-linejoin="round" d="M 1195.6,62.2542L 1191.79,62.2542L 1191.79,43.8282C 1191.79,39.982 1191.25,37.1518 1190.16,35.3376C 1189.08,33.5233 1187.47,32.6162 1185.34,32.6162C 1184.22,32.6162 1183.16,32.8487 1182.18,33.3138C 1181.19,33.779 1180.27,34.4337 1179.43,35.2782C 1178.59,36.1226 1177.85,37.1254 1177.21,38.2865C 1176.58,39.4476 1176.09,40.7242 1175.75,42.1162L 1175.75,62.2542L 1171.94,62.2542L 1171.94,43.8282C 1171.94,39.8962 1171.42,37.0446 1170.37,35.2732C 1169.33,33.5019 1167.72,32.6162 1165.56,32.6162C 1163.35,32.6162 1161.39,33.4821 1159.67,35.2138C 1157.95,36.9456 1156.71,39.2233 1155.97,42.0469L 1155.97,62.2542L 1152.16,62.2542L 1152.16,29.2615L 1155.63,29.2615L 1155.63,36.7329C 1156.83,34.1995 1158.4,32.2253 1160.34,30.8102C 1162.28,29.3951 1164.43,28.6875 1166.78,28.6875C 1169.25,28.6875 1171.22,29.4693 1172.7,31.0329C 1174.17,32.5964 1175.08,34.6448 1175.42,37.1782C 1178.15,31.5178 1181.9,28.6875 1186.68,28.6875C 1188.33,28.6875 1189.72,29.0257 1190.86,29.7019C 1192,30.3781 1192.91,31.338 1193.6,32.5816C 1194.3,33.8251 1194.8,35.3243 1195.12,37.0792C 1195.44,38.8341 1195.6,40.7868 1195.6,42.9375L 1195.6,62.2542 Z "/>
	</g>
	<g>
		<path fill="#FFFFFF" fill-opacity="1" stroke-width="0.2" stroke-linejoin="round" d="M 11.5428,143.93C 10.1649,143.93 8.88626,143.666 7.70687,143.138C 6.52749,142.61 5.49991,141.881 4.62412,140.951C 3.74834,140.021 3.06669,138.934 2.57917,137.691C 2.09166,136.447 1.8479,135.106 1.8479,133.668C 1.8479,132.236 2.14712,130.907 2.74557,129.68C 3.34402,128.453 4.18477,127.397 5.26782,126.513C 6.35087,125.629 7.63973,124.943 9.1344,124.455C 10.6291,123.967 12.2726,123.723 14.065,123.723C 15.5597,123.723 17.0734,123.871 18.606,124.168C 20.1386,124.465 21.5033,124.887 22.7002,125.435L 22.7002,122.456C 22.7002,119.547 21.9719,117.236 20.5152,115.524C 19.0585,113.812 17.0398,112.956 14.4591,112.956C 12.9645,112.956 11.4333,113.294 9.86567,113.97C 8.29803,114.646 6.70848,115.618 5.09705,116.885L 3.7571,114.035C 7.5288,111.165 11.1896,109.73 14.7394,109.73C 18.4002,109.73 21.2771,110.891 23.3702,113.213C 25.4633,115.535 26.5099,118.745 26.5099,122.842L 26.5099,137.725C 26.5099,138.906 26.977,139.497 27.9111,139.497L 27.9111,143.297C 27.2747,143.422 26.7901,143.485 26.4573,143.485C 25.4823,143.485 24.7248,143.211 24.1847,142.663C 23.6446,142.116 23.3542,141.357 23.3133,140.387L 23.2082,137.785C 21.8595,139.77 20.1678,141.291 18.133,142.347C 16.0983,143.402 13.9016,143.93 11.5428,143.93 Z M 12.4448,140.635C 14.4241,140.635 16.2457,140.212 17.9097,139.368C 19.5737,138.523 20.8348,137.405 21.6931,136.013C 22.0259,135.631 22.277,135.218 22.4463,134.776C 22.6156,134.334 22.7002,133.922 22.7002,133.539L 22.7002,128.156C 21.4274,127.608 20.1094,127.188 18.7461,126.894C 17.3828,126.601 15.9918,126.454 14.573,126.454C 11.8814,126.454 9.6949,127.087 8.0134,128.354C 6.3319,129.62 5.49115,131.286 5.49115,133.351C 5.49115,134.367 5.66922,135.319 6.02537,136.206C 6.38153,137.093 6.86758,137.864 7.48355,138.517C 8.09952,139.17 8.83663,139.686 9.6949,140.066C 10.5532,140.445 11.4698,140.635 12.4448,140.635 Z "/>
		<path fill="#FFFFFF" fill-opacity="1" stroke-width="0.2" stroke-linejoin="round" d="M 59.5794,143.297L 55.7697,143.297L 55.7697,124.87C 55.7697,120.939 55.256,118.087 54.2284,116.316C 53.2008,114.544 51.6215,113.658 49.4904,113.658C 48.3694,113.658 47.2484,113.891 46.1274,114.356C 45.0064,114.821 43.9701,115.476 43.0184,116.32C 42.0667,117.165 41.2172,118.168 40.4698,119.329C 39.7225,120.49 39.1795,121.743 38.8409,123.089L 38.8409,143.297L 35.0312,143.297L 35.0312,110.304L 38.5081,110.304L 38.5081,117.775C 39.705,115.367 41.4142,113.424 43.6358,111.947C 45.8574,110.469 48.276,109.73 50.8916,109.73C 52.4972,109.73 53.8605,110.068 54.9815,110.744C 56.1025,111.42 57.0002,112.37 57.6746,113.594C 58.3489,114.818 58.835,116.317 59.1327,118.092C 59.4305,119.866 59.5794,121.829 59.5794,123.98L 59.5794,143.297 Z "/>
		<path fill="#FFFFFF" fill-opacity="1" stroke-width="0.2" stroke-linejoin="round" d="M 79.5384,143.93C 77.5183,143.93 75.6485,143.455 73.9291,142.505C 72.2096,141.555 70.7339,140.298 69.502,138.735C 68.2701,137.171 67.3082,135.367 66.6163,133.322C 65.9244,131.276 65.5785,129.132 65.5785,126.889C 65.5785,124.567 65.9142,122.362 66.5856,120.274C 67.2571,118.186 68.1825,116.36 69.3619,114.797C 70.5413,113.233 71.9425,111.998 73.5656,111.091C 75.1887,110.183 76.9724,109.73 78.9166,109.73C 81.3863,109.73 83.5729,110.459 85.4762,111.917C 87.3796,113.375 88.8743,115.136 89.9602,117.201L 89.9602,97.0632L 93.7699,97.0632L 93.7699,137.725C 93.7699,138.906 94.2195,139.497 95.1186,139.497L 95.1186,143.297C 94.5581,143.422 94.1085,143.485 93.7699,143.485C 92.8766,143.485 92.0928,143.158 91.4184,142.505C 90.7441,141.852 90.4069,141.06 90.4069,140.13L 90.4069,136.904C 89.2509,139.055 87.6818,140.763 85.6996,142.03C 83.7174,143.297 81.6637,143.93 79.5384,143.93 Z M 80.3792,140.13C 81.3134,140.13 82.3118,139.919 83.3744,139.497C 84.437,139.074 85.4354,138.494 86.3695,137.755C 87.3037,137.016 88.0977,136.15 88.7517,135.157C 89.4056,134.164 89.8084,133.097 89.9602,131.956L 89.9602,121.763C 89.5866,120.622 89.0451,119.555 88.3357,118.562C 87.6263,117.569 86.8133,116.693 85.8966,115.935C 84.98,115.176 83.9991,114.585 82.954,114.163C 81.9089,113.741 80.8813,113.53 79.8712,113.53C 78.3007,113.53 76.8805,113.909 75.6106,114.668C 74.3407,115.427 73.2474,116.429 72.3308,117.676C 71.4141,118.923 70.7135,120.348 70.2289,121.951C 69.7443,123.554 69.502,125.2 69.502,126.889C 69.502,128.664 69.7822,130.354 70.3427,131.961C 70.9032,133.567 71.6695,134.971 72.6417,136.172C 73.6138,137.372 74.7625,138.332 76.0879,139.051C 77.4132,139.77 78.8437,140.13 80.3792,140.13 Z "/>
		<path fill="#FFFFFF" fill-opacity="1" stroke-width="0.2" stroke-linejoin="round" d="M 131.77,143.93C 129.306,143.93 127.131,143.222 125.245,141.807C 123.36,140.392 121.836,138.609 120.674,136.458L 120.674,156.785L 116.864,156.785L 116.864,110.304L 120.28,110.304L 120.28,116.697C 121.477,114.625 123.028,112.946 124.935,111.66C 126.841,110.373 128.915,109.73 131.157,109.73C 133.177,109.73 135.028,110.205 136.709,111.155C 138.391,112.105 139.848,113.372 141.08,114.955C 142.312,116.538 143.273,118.364 143.965,120.432C 144.657,122.5 145.003,124.633 145.003,126.83C 145.003,129.152 144.685,131.347 144.048,133.416C 143.412,135.484 142.506,137.3 141.329,138.863C 140.153,140.427 138.751,141.662 137.125,142.569C 135.499,143.476 133.714,143.93 131.77,143.93 Z M 130.71,140.13C 132.281,140.13 133.71,139.751 134.997,138.992C 136.285,138.233 137.387,137.23 138.303,135.983C 139.22,134.737 139.921,133.322 140.405,131.738C 140.89,130.155 141.132,128.519 141.132,126.83C 141.132,125.055 140.852,123.366 140.291,121.763C 139.731,120.16 138.965,118.747 137.992,117.523C 137.02,116.299 135.872,115.328 134.546,114.609C 133.221,113.889 131.793,113.53 130.264,113.53C 129.289,113.53 128.268,113.751 127.203,114.193C 126.137,114.635 125.148,115.225 124.234,115.964C 123.32,116.703 122.536,117.569 121.882,118.562C 121.229,119.555 120.826,120.602 120.674,121.704L 120.674,131.837C 121.123,133.018 121.694,134.115 122.386,135.128C 123.078,136.14 123.863,137.016 124.742,137.755C 125.621,138.494 126.564,139.074 127.571,139.497C 128.578,139.919 129.624,140.13 130.71,140.13 Z "/>
		<path fill="#FFFFFF" fill-opacity="1" stroke-width="0.2" stroke-linejoin="round" d="M 166.188,114.104C 163.608,114.183 161.366,114.983 159.462,116.504C 157.559,118.024 156.213,120.114 155.425,122.773L 155.425,143.297L 151.615,143.297L 151.615,110.304L 155.206,110.304L 155.206,118.22C 156.286,115.687 157.741,113.701 159.572,112.263C 161.402,110.825 163.365,110.106 165.461,110.106C 165.759,110.106 166.001,110.129 166.188,110.175L 166.188,114.104 Z "/>
		<path fill="#FFFFFF" fill-opacity="1" stroke-width="0.2" stroke-linejoin="round" d="M 183.844,143.93C 181.713,143.93 179.76,143.476 177.985,142.569C 176.21,141.662 174.669,140.417 173.361,138.833C 172.053,137.25 171.036,135.424 170.309,133.356C 169.582,131.288 169.218,129.07 169.218,126.701C 169.218,124.379 169.582,122.194 170.309,120.145C 171.036,118.097 172.044,116.302 173.335,114.762C 174.625,113.221 176.166,111.998 177.959,111.091C 179.751,110.183 181.695,109.73 183.791,109.73C 185.917,109.73 187.867,110.183 189.642,111.091C 191.417,111.998 192.94,113.233 194.213,114.797C 195.486,116.36 196.477,118.154 197.187,120.18C 197.896,122.205 198.251,124.359 198.251,126.642C 198.251,126.978 198.251,127.315 198.251,127.651C 198.251,127.988 198.23,128.222 198.189,128.354L 173.194,128.354C 173.305,130.122 173.669,131.756 174.285,133.257C 174.901,134.758 175.695,136.058 176.667,137.156C 177.639,138.255 178.751,139.109 180.004,139.719C 181.256,140.329 182.592,140.635 184.01,140.635C 184.945,140.635 185.879,140.488 186.813,140.194C 187.747,139.901 188.607,139.5 189.392,138.992C 190.177,138.484 190.888,137.86 191.525,137.122C 192.161,136.383 192.646,135.571 192.978,134.687L 196.289,135.697C 195.839,136.924 195.203,138.032 194.38,139.021C 193.556,140.011 192.603,140.875 191.52,141.614C 190.437,142.353 189.242,142.924 187.934,143.326C 186.626,143.729 185.263,143.93 183.844,143.93 Z M 194.607,125.058C 194.496,123.284 194.131,121.668 193.513,120.21C 192.894,118.752 192.108,117.495 191.157,116.439C 190.205,115.384 189.103,114.561 187.851,113.97C 186.598,113.38 185.263,113.085 183.844,113.085C 182.425,113.085 181.081,113.38 179.811,113.97C 178.541,114.561 177.429,115.384 176.474,116.439C 175.52,117.495 174.753,118.761 174.175,120.239C 173.597,121.717 173.253,123.323 173.142,125.058L 194.607,125.058 Z "/>
		<path fill="#FFFFFF" fill-opacity="1" stroke-width="0.2" stroke-linejoin="round" d="M 213.997,143.93C 211.72,143.93 209.497,143.508 207.328,142.663C 205.159,141.819 203.292,140.595 201.727,138.992L 203.461,136.073C 205.108,137.597 206.781,138.738 208.48,139.497C 210.179,140.255 212,140.635 213.945,140.635C 216.298,140.635 218.175,140.097 219.576,139.021C 220.977,137.946 221.678,136.416 221.678,134.43C 221.678,133.5 221.491,132.729 221.117,132.119C 220.744,131.509 220.192,130.971 219.462,130.506C 218.732,130.041 217.817,129.629 216.716,129.269C 215.616,128.91 214.336,128.539 212.876,128.156C 211.195,127.694 209.738,127.231 208.506,126.766C 207.274,126.3 206.257,125.773 205.454,125.182C 204.651,124.592 204.053,123.864 203.659,123C 203.264,122.136 203.067,121.047 203.067,119.735C 203.067,118.092 203.358,116.637 203.939,115.37C 204.52,114.104 205.305,113.058 206.295,112.234C 207.284,111.409 208.442,110.785 209.767,110.363C 211.092,109.941 212.502,109.73 213.997,109.73C 216.239,109.73 218.275,110.142 220.106,110.967C 221.936,111.791 223.412,112.877 224.533,114.223L 222.685,116.756C 221.605,115.489 220.288,114.539 218.735,113.906C 217.182,113.273 215.565,112.956 213.883,112.956C 212.879,112.956 211.946,113.073 211.085,113.307C 210.224,113.541 209.466,113.911 208.813,114.416C 208.159,114.92 207.645,115.563 207.271,116.345C 206.897,117.127 206.711,118.046 206.711,119.101C 206.711,119.992 206.842,120.711 207.105,121.258C 207.367,121.806 207.798,122.281 208.396,122.683C 208.995,123.086 209.751,123.445 210.665,123.762C 211.579,124.079 212.689,124.405 213.997,124.742C 215.865,125.25 217.51,125.756 218.932,126.261C 220.354,126.766 221.541,127.356 222.492,128.032C 223.444,128.708 224.162,129.531 224.647,130.501C 225.131,131.471 225.374,132.655 225.374,134.054C 225.374,137.089 224.346,139.493 222.291,141.268C 220.236,143.043 217.471,143.93 213.997,143.93 Z "/>
		<path fill="#FFFFFF" fill-opacity="1" stroke-width="0.2" stroke-linejoin="round" d="M 241.462,143.93C 239.185,143.93 236.962,143.508 234.793,142.663C 232.624,141.819 230.757,140.595 229.192,138.992L 230.926,136.073C 232.572,137.597 234.245,138.738 235.944,139.497C 237.643,140.255 239.465,140.635 241.409,140.635C 243.762,140.635 245.639,140.097 247.04,139.021C 248.442,137.946 249.142,136.416 249.142,134.43C 249.142,133.5 248.955,132.729 248.582,132.119C 248.208,131.509 247.656,130.971 246.926,130.506C 246.197,130.041 245.281,129.629 244.181,129.269C 243.08,128.91 241.8,128.539 240.341,128.156C 238.659,127.694 237.202,127.231 235.97,126.766C 234.739,126.3 233.721,125.773 232.918,125.182C 232.116,124.592 231.517,123.864 231.123,123C 230.729,122.136 230.532,121.047 230.532,119.735C 230.532,118.092 230.822,116.637 231.403,115.37C 231.984,114.104 232.769,113.058 233.759,112.234C 234.749,111.409 235.906,110.785 237.232,110.363C 238.557,109.941 239.967,109.73 241.462,109.73C 243.704,109.73 245.74,110.142 247.57,110.967C 249.401,111.791 250.876,112.877 251.997,114.223L 250.149,116.756C 249.069,115.489 247.753,114.539 246.2,113.906C 244.647,113.273 243.029,112.956 241.348,112.956C 240.344,112.956 239.411,113.073 238.55,113.307C 237.688,113.541 236.931,113.911 236.277,114.416C 235.623,114.92 235.109,115.563 234.736,116.345C 234.362,117.127 234.175,118.046 234.175,119.101C 234.175,119.992 234.307,120.711 234.569,121.258C 234.832,121.806 235.263,122.281 235.861,122.683C 236.459,123.086 237.216,123.445 238.129,123.762C 239.043,124.079 240.154,124.405 241.462,124.742C 243.33,125.25 244.975,125.756 246.397,126.261C 247.818,126.766 249.005,127.356 249.957,128.032C 250.908,128.708 251.627,129.531 252.111,130.501C 252.596,131.471 252.838,132.655 252.838,134.054C 252.838,137.089 251.81,139.493 249.755,141.268C 247.7,143.043 244.936,143.93 241.462,143.93 Z "/>
		<path fill="#FFFFFF" fill-opacity="1" stroke-width="0.2" stroke-linejoin="round" d="M 259.231,143.297L 259.231,110.304L 263.041,110.304L 263.041,143.297L 259.231,143.297 Z M 259.231,103.396L 259.231,97.0632L 263.041,97.0632L 263.041,103.396L 259.231,103.396 Z "/>
		<path fill="#FFFFFF" fill-opacity="1" stroke-width="0.2" stroke-linejoin="round" d="M 296.11,143.297L 292.301,143.297L 292.301,124.87C 292.301,120.939 291.787,118.087 290.759,116.316C 289.732,114.544 288.152,113.658 286.021,113.658C 284.9,113.658 283.779,113.891 282.658,114.356C 281.537,114.821 280.501,115.476 279.549,116.32C 278.598,117.165 277.748,118.168 277.001,119.329C 276.253,120.49 275.71,121.743 275.372,123.089L 275.372,143.297L 271.562,143.297L 271.562,110.304L 275.039,110.304L 275.039,117.775C 276.236,115.367 277.945,113.424 280.167,111.947C 282.388,110.469 284.807,109.73 287.423,109.73C 289.028,109.73 290.392,110.068 291.512,110.744C 292.634,111.42 293.531,112.37 294.206,113.594C 294.88,114.818 295.366,116.317 295.664,118.092C 295.961,119.866 296.11,121.829 296.11,123.98L 296.11,143.297 Z "/>
		<path fill="#FFFFFF" fill-opacity="1" stroke-width="0.2" stroke-linejoin="round" d="M 315.789,143.742C 313.769,143.742 311.927,143.267 310.263,142.317C 308.599,141.367 307.16,140.11 305.945,138.547C 304.731,136.983 303.788,135.189 303.117,133.163C 302.445,131.138 302.109,129.047 302.109,126.889C 302.109,124.613 302.436,122.43 303.09,120.338C 303.744,118.247 304.67,116.421 305.867,114.861C 307.063,113.301 308.492,112.055 310.154,111.125C 311.815,110.195 313.655,109.73 315.675,109.73C 318.18,109.73 320.348,110.437 322.178,111.852C 324.008,113.268 325.577,115.05 326.885,117.201L 326.885,110.304L 330.301,110.304L 330.301,143.425C 330.301,145.701 329.918,147.717 329.154,149.472C 328.389,151.226 327.361,152.694 326.071,153.875C 324.78,155.056 323.267,155.942 321.53,156.532C 319.793,157.123 317.952,157.418 316.008,157.418C 312.645,157.418 309.936,156.743 307.881,155.394C 305.826,154.045 304.165,152.229 302.898,149.947L 305.245,147.858C 306.407,149.97 307.941,151.522 309.847,152.514C 311.753,153.507 313.807,154.004 316.008,154.004C 317.427,154.004 318.773,153.781 320.045,153.336C 321.318,152.891 322.431,152.236 323.382,151.372C 324.334,150.507 325.09,149.41 325.65,148.081C 326.211,146.752 326.491,145.2 326.491,143.425L 326.491,136.904C 325.37,139.015 323.838,140.682 321.893,141.906C 319.949,143.13 317.914,143.742 315.789,143.742 Z M 316.849,140.13C 317.97,140.13 319.072,139.897 320.155,139.432C 321.238,138.967 322.219,138.344 323.098,137.562C 323.976,136.78 324.715,135.904 325.313,134.935C 325.912,133.965 326.304,132.972 326.491,131.956L 326.491,121.763C 326.082,120.582 325.522,119.485 324.81,118.473C 324.097,117.46 323.293,116.594 322.397,115.875C 321.501,115.156 320.539,114.585 319.511,114.163C 318.484,113.741 317.447,113.53 316.402,113.53C 314.756,113.53 313.289,113.921 312.001,114.702C 310.714,115.484 309.622,116.508 308.726,117.775C 307.83,119.042 307.148,120.477 306.681,122.08C 306.214,123.683 305.98,125.309 305.98,126.958C 305.98,128.733 306.261,130.422 306.821,132.025C 307.382,133.628 308.157,135.032 309.146,136.236C 310.136,137.44 311.285,138.39 312.593,139.086C 313.9,139.782 315.319,140.13 316.849,140.13 Z "/>
		<path fill="#FFFFFF" fill-opacity="1" stroke-width="0.2" stroke-linejoin="round" d="M 367.408,141.713C 367.186,141.839 366.859,142.007 366.427,142.218C 365.995,142.429 365.499,142.64 364.938,142.851C 364.377,143.062 363.743,143.252 363.033,143.42C 362.324,143.588 361.578,143.673 360.796,143.673C 359.972,143.673 359.187,143.547 358.44,143.297C 357.692,143.046 357.038,142.657 356.478,142.129C 355.917,141.601 355.469,140.935 355.134,140.13C 354.798,139.325 354.63,138.395 354.63,137.339L 354.63,113.718L 350.593,113.718L 350.593,110.304L 354.63,110.304L 354.63,99.1512L 358.44,99.1512L 358.44,110.304L 365.166,110.304L 365.166,113.718L 358.44,113.718L 358.44,136.142C 358.516,137.362 358.9,138.258 359.591,138.829C 360.283,139.399 361.076,139.685 361.969,139.685C 363.055,139.685 364.008,139.485 364.829,139.086C 365.649,138.687 366.173,138.401 366.401,138.23L 367.408,141.713 Z "/>
		<path fill="#FFFFFF" fill-opacity="1" stroke-width="0.2" stroke-linejoin="round" d="M 397,143.297L 393.191,143.297L 393.191,124.87C 393.191,121.11 392.621,118.301 391.483,116.444C 390.344,114.587 388.672,113.658 386.465,113.658C 385.379,113.658 384.304,113.901 383.242,114.386C 382.179,114.871 381.181,115.535 380.247,116.38C 379.313,117.224 378.499,118.217 377.808,119.359C 377.116,120.5 376.6,121.743 376.262,123.089L 376.262,143.297L 372.452,143.297L 372.452,97.0632L 376.262,97.0632L 376.262,117.775C 377.424,115.281 379.032,113.317 381.087,111.882C 383.143,110.447 385.364,109.73 387.752,109.73C 389.434,109.73 390.854,110.078 392.013,110.774C 393.172,111.47 394.125,112.441 394.872,113.688C 395.62,114.935 396.161,116.434 396.497,118.186C 396.833,119.937 397,121.869 397,123.98L 397,143.297 Z "/>
		<path fill="#FFFFFF" fill-opacity="1" stroke-width="0.2" stroke-linejoin="round" d="M 417.572,143.93C 415.441,143.93 413.488,143.476 411.713,142.569C 409.939,141.662 408.397,140.417 407.089,138.833C 405.781,137.25 404.764,135.424 404.037,133.356C 403.31,131.288 402.947,129.07 402.947,126.701C 402.947,124.379 403.31,122.194 404.037,120.145C 404.764,118.097 405.773,116.302 407.063,114.762C 408.353,113.221 409.895,111.998 411.687,111.091C 413.48,110.183 415.424,109.73 417.52,109.73C 419.645,109.73 421.595,110.183 423.37,111.091C 425.145,111.998 426.669,113.233 427.942,114.797C 429.214,116.36 430.206,118.154 430.915,120.18C 431.624,122.205 431.979,124.359 431.979,126.642C 431.979,126.978 431.979,127.315 431.979,127.651C 431.979,127.988 431.959,128.222 431.918,128.354L 406.923,128.354C 407.034,130.122 407.397,131.756 408.013,133.257C 408.629,134.758 409.423,136.058 410.395,137.156C 411.368,138.255 412.48,139.109 413.732,139.719C 414.984,140.329 416.32,140.635 417.739,140.635C 418.673,140.635 419.607,140.488 420.541,140.194C 421.475,139.901 422.335,139.5 423.12,138.992C 423.906,138.484 424.617,137.86 425.253,137.122C 425.889,136.383 426.374,135.571 426.707,134.687L 430.017,135.697C 429.568,136.924 428.931,138.032 428.108,139.021C 427.285,140.011 426.332,140.875 425.249,141.614C 424.166,142.353 422.97,142.924 421.662,143.326C 420.354,143.729 418.991,143.93 417.572,143.93 Z M 428.336,125.058C 428.225,123.284 427.86,121.668 427.241,120.21C 426.622,118.752 425.837,117.495 424.885,116.439C 423.934,115.384 422.832,114.561 421.579,113.97C 420.327,113.38 418.991,113.085 417.572,113.085C 416.154,113.085 414.809,113.38 413.539,113.97C 412.27,114.561 411.157,115.384 410.203,116.439C 409.248,117.495 408.482,118.761 407.904,120.239C 407.326,121.717 406.981,123.323 406.87,125.058L 428.336,125.058 Z "/>
		<path fill="#FFFFFF" fill-opacity="1" stroke-width="0.2" stroke-linejoin="round" d="M 464.322,143.742C 462.302,143.742 460.459,143.267 458.796,142.317C 457.132,141.367 455.692,140.11 454.478,138.547C 453.263,136.983 452.321,135.189 451.649,133.163C 450.978,131.138 450.642,129.047 450.642,126.889C 450.642,124.613 450.969,122.43 451.623,120.338C 452.277,118.247 453.202,116.421 454.399,114.861C 455.596,113.301 457.025,112.055 458.686,111.125C 460.347,110.195 462.188,109.73 464.208,109.73C 466.713,109.73 468.88,110.437 470.71,111.852C 472.541,113.268 474.11,115.05 475.418,117.201L 475.418,110.304L 478.833,110.304L 478.833,143.425C 478.833,145.701 478.451,147.717 477.686,149.472C 476.921,151.226 475.894,152.694 474.603,153.875C 473.313,155.056 471.799,155.942 470.062,156.532C 468.325,157.123 466.485,157.418 464.541,157.418C 461.178,157.418 458.469,156.743 456.413,155.394C 454.358,154.045 452.697,152.229 451.43,149.947L 453.777,147.858C 454.939,149.97 456.473,151.522 458.379,152.514C 460.286,153.507 462.339,154.004 464.541,154.004C 465.959,154.004 467.305,153.781 468.578,153.336C 469.851,152.891 470.963,152.236 471.915,151.372C 472.866,150.507 473.622,149.41 474.183,148.081C 474.743,146.752 475.024,145.2 475.024,143.425L 475.024,136.904C 473.903,139.015 472.37,140.682 470.426,141.906C 468.482,143.13 466.447,143.742 464.322,143.742 Z M 465.381,140.13C 466.502,140.13 467.604,139.897 468.687,139.432C 469.77,138.967 470.751,138.344 471.63,137.562C 472.509,136.78 473.247,135.904 473.846,134.935C 474.444,133.965 474.837,132.972 475.024,131.956L 475.024,121.763C 474.615,120.582 474.055,119.485 473.342,118.473C 472.63,117.46 471.826,116.594 470.929,115.875C 470.033,115.156 469.071,114.585 468.044,114.163C 467.016,113.741 465.98,113.53 464.935,113.53C 463.288,113.53 461.821,113.921 460.534,114.702C 459.246,115.484 458.155,116.508 457.259,117.775C 456.362,119.042 455.681,120.477 455.214,122.08C 454.746,123.683 454.513,125.309 454.513,126.958C 454.513,128.733 454.793,130.422 455.354,132.025C 455.914,133.628 456.689,135.032 457.679,136.236C 458.668,137.44 459.817,138.39 461.125,139.086C 462.433,139.782 463.852,140.13 465.381,140.13 Z "/>
		<path fill="#FFFFFF" fill-opacity="1" stroke-width="0.2" stroke-linejoin="round" d="M 501.928,114.104C 499.347,114.183 497.105,114.983 495.202,116.504C 493.298,118.024 491.953,120.114 491.164,122.773L 491.164,143.297L 487.355,143.297L 487.355,110.304L 490.945,110.304L 490.945,118.22C 492.026,115.687 493.481,113.701 495.311,112.263C 497.142,110.825 499.105,110.106 501.201,110.106C 501.499,110.106 501.741,110.129 501.928,110.175L 501.928,114.104 Z "/>
		<path fill="#FFFFFF" fill-opacity="1" stroke-width="0.2" stroke-linejoin="round" d="M 506.972,143.297L 506.972,110.304L 510.782,110.304L 510.782,143.297L 506.972,143.297 Z M 506.972,103.396L 506.972,97.0632L 510.782,97.0632L 510.782,103.396L 506.972,103.396 Z "/>
		<path fill="#FFFFFF" fill-opacity="1" stroke-width="0.2" stroke-linejoin="round" d="M 534.209,143.93C 531.745,143.93 529.57,143.222 527.685,141.807C 525.799,140.392 524.275,138.609 523.113,136.458L 523.113,156.785L 519.303,156.785L 519.303,110.304L 522.719,110.304L 522.719,116.697C 523.916,114.625 525.467,112.946 527.374,111.66C 529.28,110.373 531.354,109.73 533.596,109.73C 535.616,109.73 537.467,110.205 539.148,111.155C 540.83,112.105 542.287,113.372 543.519,114.955C 544.751,116.538 545.712,118.364 546.404,120.432C 547.096,122.5 547.442,124.633 547.442,126.83C 547.442,129.152 547.124,131.347 546.487,133.416C 545.851,135.484 544.945,137.3 543.768,138.863C 542.592,140.427 541.19,141.662 539.564,142.569C 537.938,143.476 536.153,143.93 534.209,143.93 Z M 533.149,140.13C 534.72,140.13 536.149,139.751 537.436,138.992C 538.724,138.233 539.826,137.23 540.742,135.983C 541.659,134.737 542.36,133.322 542.844,131.738C 543.329,130.155 543.571,128.519 543.571,126.83C 543.571,125.055 543.291,123.366 542.73,121.763C 542.17,120.16 541.404,118.747 540.431,117.523C 539.459,116.299 538.311,115.328 536.985,114.609C 535.66,113.889 534.232,113.53 532.703,113.53C 531.728,113.53 530.707,113.751 529.642,114.193C 528.576,114.635 527.587,115.225 526.673,115.964C 525.759,116.703 524.975,117.569 524.321,118.562C 523.668,119.555 523.265,120.602 523.113,121.704L 523.113,131.837C 523.562,133.018 524.133,134.115 524.825,135.128C 525.517,136.14 526.302,137.016 527.181,137.755C 528.06,138.494 529.003,139.074 530.01,139.497C 531.017,139.919 532.063,140.13 533.149,140.13 Z "/>
		<path fill="#FFFFFF" fill-opacity="1" stroke-width="0.2" stroke-linejoin="round" d="M 582.64,141.713C 582.418,141.839 582.091,142.007 581.659,142.218C 581.227,142.429 580.731,142.64 580.17,142.851C 579.61,143.062 578.975,143.252 578.265,143.42C 577.556,143.588 576.81,143.673 576.028,143.673C 575.204,143.673 574.419,143.547 573.672,143.297C 572.924,143.046 572.271,142.657 571.71,142.129C 571.149,141.601 570.701,140.935 570.366,140.13C 570.03,139.325 569.862,138.395 569.862,137.339L 569.862,113.718L 565.825,113.718L 565.825,110.304L 569.862,110.304L 569.862,99.1512L 573.672,99.1512L 573.672,110.304L 580.398,110.304L 580.398,113.718L 573.672,113.718L 573.672,136.142C 573.748,137.362 574.132,138.258 574.823,138.829C 575.515,139.399 576.308,139.685 577.201,139.685C 578.287,139.685 579.24,139.485 580.061,139.086C 580.881,138.687 581.405,138.401 581.633,138.23L 582.64,141.713 Z "/>
		<path fill="#FFFFFF" fill-opacity="1" stroke-width="0.2" stroke-linejoin="round" d="M 602.257,114.104C 599.677,114.183 597.435,114.983 595.531,116.504C 593.628,118.024 592.282,120.114 591.494,122.773L 591.494,143.297L 587.684,143.297L 587.684,110.304L 591.275,110.304L 591.275,118.22C 592.355,115.687 593.81,113.701 595.641,112.263C 597.471,110.825 599.434,110.106 601.53,110.106C 601.828,110.106 602.07,110.129 602.257,110.175L 602.257,114.104 Z "/>
		<path fill="#FFFFFF" fill-opacity="1" stroke-width="0.2" stroke-linejoin="round" d="M 607.302,143.297L 607.302,110.304L 611.111,110.304L 611.111,143.297L 607.302,143.297 Z M 607.302,103.396L 607.302,97.0632L 611.111,97.0632L 611.111,103.396L 607.302,103.396 Z "/>
		<path fill="#FFFFFF" fill-opacity="1" stroke-width="0.2" stroke-linejoin="round" d="M 631.351,143.742C 629.331,143.742 627.489,143.267 625.825,142.317C 624.161,141.367 622.721,140.11 621.507,138.547C 620.293,136.983 619.35,135.189 618.678,133.163C 618.007,131.138 617.671,129.047 617.671,126.889C 617.671,124.613 617.998,122.43 618.652,120.338C 619.306,118.247 620.231,116.421 621.428,114.861C 622.625,113.301 624.054,112.055 625.715,111.125C 627.376,110.195 629.217,109.73 631.237,109.73C 633.742,109.73 635.909,110.437 637.74,111.852C 639.57,113.268 641.139,115.05 642.447,117.201L 642.447,110.304L 645.862,110.304L 645.862,143.425C 645.862,145.701 645.48,147.717 644.715,149.472C 643.95,151.226 642.923,152.694 641.632,153.875C 640.342,155.056 638.828,155.942 637.091,156.532C 635.355,157.123 633.514,157.418 631.57,157.418C 628.207,157.418 625.498,156.743 623.442,155.394C 621.387,154.045 619.726,152.229 618.459,149.947L 620.806,147.858C 621.968,149.97 623.502,151.522 625.409,152.514C 627.315,153.507 629.369,154.004 631.57,154.004C 632.988,154.004 634.334,153.781 635.607,153.336C 636.88,152.891 637.992,152.236 638.944,151.372C 639.895,150.507 640.652,149.41 641.212,148.081C 641.773,146.752 642.053,145.2 642.053,143.425L 642.053,136.904C 640.932,139.015 639.399,140.682 637.455,141.906C 635.511,143.13 633.476,143.742 631.351,143.742 Z M 632.41,140.13C 633.531,140.13 634.633,139.897 635.716,139.432C 636.8,138.967 637.78,138.344 638.659,137.562C 639.538,136.78 640.276,135.904 640.875,134.935C 641.473,133.965 641.866,132.972 642.053,131.956L 642.053,121.763C 641.644,120.582 641.084,119.485 640.371,118.473C 639.659,117.46 638.855,116.594 637.959,115.875C 637.062,115.156 636.1,114.585 635.073,114.163C 634.045,113.741 633.009,113.53 631.964,113.53C 630.317,113.53 628.85,113.921 627.563,114.702C 626.276,115.484 625.184,116.508 624.288,117.775C 623.391,119.042 622.71,120.477 622.243,122.08C 621.776,123.683 621.542,125.309 621.542,126.958C 621.542,128.733 621.822,130.422 622.383,132.025C 622.943,133.628 623.718,135.032 624.708,136.236C 625.698,137.44 626.846,138.39 628.154,139.086C 629.462,139.782 630.881,140.13 632.41,140.13 Z "/>
		<path fill="#FFFFFF" fill-opacity="1" stroke-width="0.2" stroke-linejoin="round" d="M 666.102,143.742C 664.082,143.742 662.24,143.267 660.576,142.317C 658.912,141.367 657.472,140.11 656.258,138.547C 655.044,136.983 654.101,135.189 653.429,133.163C 652.758,131.138 652.422,129.047 652.422,126.889C 652.422,124.613 652.749,122.43 653.403,120.338C 654.057,118.247 654.982,116.421 656.179,114.861C 657.376,113.301 658.805,112.055 660.466,111.125C 662.127,110.195 663.968,109.73 665.988,109.73C 668.493,109.73 670.66,110.437 672.491,111.852C 674.321,113.268 675.89,115.05 677.198,117.201L 677.198,110.304L 680.613,110.304L 680.613,143.425C 680.613,145.701 680.231,147.717 679.466,149.472C 678.701,151.226 677.674,152.694 676.383,153.875C 675.093,155.056 673.579,155.942 671.843,156.532C 670.106,157.123 668.265,157.418 666.321,157.418C 662.958,157.418 660.249,156.743 658.193,155.394C 656.138,154.045 654.477,152.229 653.21,149.947L 655.557,147.858C 656.719,149.97 658.253,151.522 660.16,152.514C 662.066,153.507 664.12,154.004 666.321,154.004C 667.74,154.004 669.085,153.781 670.358,153.336C 671.631,152.891 672.743,152.236 673.695,151.372C 674.646,150.507 675.403,149.41 675.963,148.081C 676.524,146.752 676.804,145.2 676.804,143.425L 676.804,136.904C 675.683,139.015 674.15,140.682 672.206,141.906C 670.262,143.13 668.227,143.742 666.102,143.742 Z M 667.161,140.13C 668.282,140.13 669.384,139.897 670.468,139.432C 671.551,138.967 672.531,138.344 673.41,137.562C 674.289,136.78 675.027,135.904 675.626,134.935C 676.224,133.965 676.617,132.972 676.804,131.956L 676.804,121.763C 676.395,120.582 675.835,119.485 675.122,118.473C 674.41,117.46 673.606,116.594 672.71,115.875C 671.813,115.156 670.851,114.585 669.824,114.163C 668.796,113.741 667.76,113.53 666.715,113.53C 665.068,113.53 663.601,113.921 662.314,114.702C 661.027,115.484 659.935,116.508 659.039,117.775C 658.142,119.042 657.461,120.477 656.994,122.08C 656.527,123.683 656.293,125.309 656.293,126.958C 656.293,128.733 656.573,130.422 657.134,132.025C 657.694,133.628 658.469,135.032 659.459,136.236C 660.449,137.44 661.597,138.39 662.905,139.086C 664.213,139.782 665.632,140.13 667.161,140.13 Z "/>
		<path fill="#FFFFFF" fill-opacity="1" stroke-width="0.2" stroke-linejoin="round" d="M 701.746,143.93C 699.615,143.93 697.662,143.476 695.887,142.569C 694.112,141.662 692.571,140.417 691.263,138.833C 689.955,137.25 688.938,135.424 688.211,133.356C 687.484,131.288 687.12,129.07 687.12,126.701C 687.12,124.379 687.484,122.194 688.211,120.145C 688.938,118.097 689.946,116.302 691.237,114.762C 692.527,113.221 694.068,111.998 695.861,111.091C 697.653,110.183 699.597,109.73 701.693,109.73C 703.819,109.73 705.769,110.183 707.544,111.091C 709.319,111.998 710.842,113.233 712.115,114.797C 713.388,116.36 714.379,118.154 715.089,120.18C 715.798,122.205 716.153,124.359 716.153,126.642C 716.153,126.978 716.153,127.315 716.153,127.651C 716.153,127.988 716.132,128.222 716.091,128.354L 691.096,128.354C 691.207,130.122 691.571,131.756 692.187,133.257C 692.803,134.758 693.597,136.058 694.569,137.156C 695.541,138.255 696.653,139.109 697.906,139.719C 699.158,140.329 700.494,140.635 701.912,140.635C 702.847,140.635 703.781,140.488 704.715,140.194C 705.649,139.901 706.509,139.5 707.294,138.992C 708.079,138.484 708.79,137.86 709.427,137.122C 710.063,136.383 710.548,135.571 710.88,134.687L 714.191,135.697C 713.741,136.924 713.105,138.032 712.282,139.021C 711.458,140.011 710.505,140.875 709.422,141.614C 708.339,142.353 707.144,142.924 705.836,143.326C 704.528,143.729 703.165,143.93 701.746,143.93 Z M 712.509,125.058C 712.398,123.284 712.034,121.668 711.415,120.21C 710.796,118.752 710.01,117.495 709.059,116.439C 708.107,115.384 707.005,114.561 705.753,113.97C 704.5,113.38 703.165,113.085 701.746,113.085C 700.327,113.085 698.983,113.38 697.713,113.97C 696.443,114.561 695.331,115.384 694.376,116.439C 693.422,117.495 692.655,118.761 692.077,120.239C 691.499,121.717 691.155,123.323 691.044,125.058L 712.509,125.058 Z "/>
		<path fill="#FFFFFF" fill-opacity="1" stroke-width="0.2" stroke-linejoin="round" d="M 736.777,114.104C 734.197,114.183 731.955,114.983 730.051,116.504C 728.148,118.024 726.802,120.114 726.014,122.773L 726.014,143.297L 722.204,143.297L 722.204,110.304L 725.795,110.304L 725.795,118.22C 726.875,115.687 728.33,113.701 730.161,112.263C 731.991,110.825 733.954,110.106 736.05,110.106C 736.348,110.106 736.59,110.129 736.777,110.175L 736.777,114.104 Z "/>
		<rect x="741.261" y="137.092" fill="#FFFFFF" fill-opacity="1" stroke-width="0.2" stroke-linejoin="round" width="3.31049" height="6.2047"/>
	</g>
	<g>
		<path fill="#FFFFFF" fill-opacity="1" stroke-width="0.2" stroke-linejoin="round" d="M 35.2359,181.755L 21.057,181.755L 21.057,222.793L 17.1335,222.793L 17.1335,181.755L 2.9546,181.755L 2.9546,177.826L 35.2359,177.826L 35.2359,181.755 Z "/>
		<path fill="#FFFFFF" fill-opacity="1" stroke-width="0.2" stroke-linejoin="round" d="M 54.9672,193.6C 52.3866,193.679 50.1446,194.479 48.2412,196C 46.3379,197.52 44.9921,199.61 44.2039,202.269L 44.2039,222.793L 40.3942,222.793L 40.3942,189.8L 43.9849,189.8L 43.9849,197.716C 45.0651,195.183 46.5203,193.197 48.3507,191.759C 50.1811,190.321 52.1443,189.602 54.2403,189.602C 54.5381,189.602 54.7804,189.625 54.9672,189.671L 54.9672,193.6 Z "/>
		<path fill="#FFFFFF" fill-opacity="1" stroke-width="0.2" stroke-linejoin="round" d="M 61.6932,232.926C 61.991,232.965 62.28,232.997 62.5603,233.02C 62.8405,233.043 63.112,233.055 63.3747,233.055C 64.0462,233.055 64.5789,232.949 64.973,232.738C 65.3671,232.527 65.751,232.062 66.1247,231.342C 66.4984,230.623 66.9187,229.589 67.3858,228.24C 67.8529,226.891 68.5156,225.075 69.3738,222.793L 56.6487,189.8L 60.5722,189.8L 71.3881,218.805L 81.4246,189.8L 85.0678,189.8L 69.9343,232.352C 69.5198,233.579 68.8367,234.646 67.885,235.553C 66.9333,236.46 65.6343,236.914 63.9878,236.914C 63.6141,236.914 63.2594,236.904 62.9237,236.884C 62.588,236.864 62.1778,236.812 61.6932,236.726L 61.6932,232.926 Z "/>
		<path fill="#FFFFFF" fill-opacity="1" stroke-width="0.2" stroke-linejoin="round" d="M 104.852,222.793L 104.852,189.8L 108.661,189.8L 108.661,222.793L 104.852,222.793 Z M 104.852,182.893L 104.852,176.559L 108.661,176.559L 108.661,182.893L 104.852,182.893 Z "/>
		<path fill="#FFFFFF" fill-opacity="1" stroke-width="0.2" stroke-linejoin="round" d="M 131.195,221.209C 130.973,221.335 130.646,221.503 130.214,221.714C 129.782,221.925 129.286,222.136 128.726,222.347C 128.165,222.558 127.53,222.748 126.821,222.916C 126.111,223.084 125.365,223.169 124.583,223.169C 123.76,223.169 122.975,223.043 122.227,222.793C 121.48,222.542 120.826,222.153 120.265,221.625C 119.705,221.097 119.257,220.431 118.921,219.626C 118.585,218.821 118.418,217.891 118.418,216.835L 118.418,193.214L 114.38,193.214L 114.38,189.8L 118.418,189.8L 118.418,178.647L 122.227,178.647L 122.227,189.8L 128.953,189.8L 128.953,193.214L 122.227,193.214L 122.227,215.638C 122.303,216.858 122.687,217.754 123.379,218.325C 124.071,218.895 124.863,219.181 125.757,219.181C 126.843,219.181 127.796,218.981 128.616,218.582C 129.436,218.183 129.96,217.897 130.188,217.726L 131.195,221.209 Z "/>
		<path fill="#FFFFFF" fill-opacity="1" stroke-width="0.2" stroke-linejoin="round" d="M 163.258,223.426C 161.127,223.426 159.182,222.972 157.425,222.065C 155.667,221.158 154.145,219.923 152.858,218.359C 151.57,216.796 150.572,214.98 149.863,212.912C 149.153,210.843 148.798,208.668 148.798,206.385C 148.798,204.063 149.162,201.868 149.889,199.8C 150.616,197.731 151.624,195.917 152.915,194.357C 154.205,192.797 155.727,191.551 157.482,190.621C 159.236,189.691 161.162,189.226 163.258,189.226C 165.348,189.226 167.28,189.691 169.055,190.621C 170.83,191.551 172.363,192.797 173.653,194.357C 174.943,195.917 175.952,197.731 176.679,199.8C 177.406,201.868 177.769,204.063 177.769,206.385C 177.769,208.668 177.415,210.843 176.705,212.912C 175.996,214.98 174.997,216.796 173.71,218.359C 172.423,219.923 170.891,221.158 169.117,222.065C 167.342,222.972 165.389,223.426 163.258,223.426 Z M 152.661,206.454C 152.661,208.308 152.941,210.027 153.501,211.61C 154.062,213.194 154.819,214.587 155.774,215.791C 156.729,216.995 157.85,217.935 159.137,218.612C 160.424,219.288 161.798,219.626 163.258,219.626C 164.711,219.626 166.083,219.278 167.374,218.582C 168.664,217.886 169.795,216.936 170.767,215.732C 171.74,214.528 172.506,213.124 173.066,211.521C 173.627,209.918 173.907,208.186 173.907,206.326C 173.907,204.512 173.627,202.791 173.066,201.165C 172.506,199.539 171.74,198.124 170.767,196.92C 169.795,195.716 168.664,194.766 167.374,194.07C 166.083,193.374 164.711,193.026 163.258,193.026C 161.798,193.026 160.433,193.374 159.163,194.07C 157.893,194.766 156.772,195.726 155.8,196.95C 154.828,198.173 154.062,199.598 153.501,201.225C 152.941,202.851 152.661,204.594 152.661,206.454 Z "/>
		<path fill="#FFFFFF" fill-opacity="1" stroke-width="0.2" stroke-linejoin="round" d="M 193.577,223.426C 190.401,223.426 188.038,222.233 186.488,219.849C 184.938,217.464 184.162,213.906 184.162,209.176L 184.162,189.8L 187.972,189.8L 187.972,208.414C 187.972,215.889 190.235,219.626 194.759,219.626C 195.88,219.626 196.982,219.415 198.066,218.993C 199.149,218.57 200.147,217.958 201.061,217.157C 201.974,216.355 202.796,215.405 203.526,214.307C 204.256,213.208 204.846,211.963 205.295,210.571L 205.295,189.8L 209.105,189.8L 209.105,217.221C 209.105,218.402 209.554,218.993 210.453,218.993L 210.453,222.793C 210.004,222.878 209.639,222.921 209.359,222.921C 209.078,222.921 208.883,222.921 208.772,222.921C 207.873,222.875 207.143,222.515 206.582,221.842C 206.022,221.17 205.742,220.262 205.742,219.121L 205.742,215.321C 204.469,217.894 202.741,219.888 200.557,221.303C 198.373,222.718 196.047,223.426 193.577,223.426 Z "/>
		<path fill="#FFFFFF" fill-opacity="1" stroke-width="0.2" stroke-linejoin="round" d="M 231.525,221.209C 231.303,221.335 230.976,221.503 230.544,221.714C 230.112,221.925 229.616,222.136 229.055,222.347C 228.495,222.558 227.86,222.748 227.15,222.916C 226.441,223.084 225.695,223.169 224.913,223.169C 224.089,223.169 223.304,223.043 222.557,222.793C 221.809,222.542 221.155,222.153 220.595,221.625C 220.034,221.097 219.586,220.431 219.251,219.626C 218.915,218.821 218.747,217.891 218.747,216.835L 218.747,193.214L 214.71,193.214L 214.71,189.8L 218.747,189.8L 218.747,178.647L 222.557,178.647L 222.557,189.8L 229.283,189.8L 229.283,193.214L 222.557,193.214L 222.557,215.638C 222.633,216.858 223.017,217.754 223.708,218.325C 224.4,218.895 225.193,219.181 226.086,219.181C 227.172,219.181 228.125,218.981 228.946,218.582C 229.766,218.183 230.29,217.897 230.518,217.726L 231.525,221.209 Z "/>
		<path fill="#FFFFFF" fill-opacity="1" stroke-width="0.2" stroke-linejoin="round" d="M 237.524,208.354L 237.524,177.381L 241.333,177.381L 241.333,208.354L 237.524,208.354 Z M 237.524,222.793L 237.524,215.697L 241.333,215.697L 241.333,222.793L 237.524,222.793 Z "/>
	</g>
</svg>
