<?xml version="1.0" encoding="utf-8"?>
<!-- Generator: Adobe Illustrator 19.2.0, SVG Export Plug-In . SVG Version: 6.00 Build 0)  -->
<svg version="1.1" id="Layer_1" xmlns="http://www.w3.org/2000/svg" xmlns:xlink="http://www.w3.org/1999/xlink" x="0px" y="0px"
	 viewBox="0 0 50 50" style="enable-background:new 0 0 50 50;" xml:space="preserve">
<style type="text/css">
	.st0{fill:#FFFFFF;}
</style>
<g id="Layer_2">
</g>
<g>
	<path class="st0" d="M23.2,20.5c-1,0.8-1.8,1.4-2.7,2.1c-0.2,0.1-0.2,0.4-0.2,0.7c-0.3,1.7-0.6,3.4-0.9,5.1
		c-0.1,0.8-0.6,1.2-1.3,1.1c-0.7-0.1-1.2-0.7-1.1-1.4c0.3-2.2,0.6-4.4,1-6.6c0.1-0.3,0.3-0.7,0.6-0.9c1.4-1.3,2.8-2.5,4.2-3.7
		c0.7-0.6,1.5-1,2.4-0.9c0.3,0,0.7,0,1,0c1-0.1,1.7,0.4,2.1,1.3c0.7,1.4,1.4,2.8,1.9,4.3c0.5,1.3,1.2,2.1,2.4,2.6c1,0.4,2,1,3,1.5
		c0.2,0.1,0.5,0.3,0.7,0.5c0.4,0.4,0.5,1,0.3,1.4C36.4,28,36,28.1,35.5,28c-0.4-0.1-0.8-0.2-1.2-0.4c-1.3-0.6-2.5-1.2-3.7-1.8
		c-0.8-0.3-1.4-0.8-1.8-1.6c-0.2-0.3-0.4-0.6-0.7-1c-0.1,0.3-0.1,0.5-0.2,0.7c-0.3,1.2-0.5,2.4-0.8,3.6c-0.1,0.4,0,0.7,0.2,1
		c2.2,3.7,4.4,7.4,6.6,11.1c0.3,0.4,0.4,1,0.5,1.5c0.1,0.7-0.1,1.3-0.7,1.6c-0.7,0.4-1.4,0.4-1.9-0.1c-0.4-0.4-0.8-0.8-1.1-1.3
		c-2.5-3.9-5-7.9-7.5-11.8c-0.4-0.7-0.8-1.5-1.1-2.2c-0.1-0.4-0.1-0.9,0-1.3C22.5,24.2,22.8,22.4,23.2,20.5z"/>
	<path class="st0" d="M23.2,33.9c-0.1-0.1-0.2-0.2-0.2-0.3c0,0,0,0,0,0c-0.2-0.2-0.3-0.5-0.5-0.7c-0.3-0.4-0.6-0.8-0.9-1.1
		c-0.3,1-0.5,2-0.8,3c-0.1,0.3-0.3,0.7-0.4,1c-1,1.5-2,3.1-3,4.6c-0.2,0.4-0.4,0.8-0.6,1.3c-0.2,0.9,0.7,1.9,1.6,1.5
		c0.5-0.2,1-0.7,1.3-1.1c0.9-1.1,1.6-2.3,2.5-3.3c0.8-1,1.4-2.2,1.8-3.4C23.8,34.7,23.5,34.3,23.2,33.9z"/>
	<path class="st0" d="M29,11.6c0,1.3-1.1,2.4-2.4,2.4h-0.2c-1.3,0-2.4-1.1-2.4-2.4v-1.2C24,9.1,25.1,8,26.4,8h0.2
		c1.3,0,2.4,1.1,2.4,2.4V11.6z"/>
	<path class="st0" d="M43.4,24.1c-0.5,0.3-0.9,0.5-1.4,0.8v6.3h2.3v-7.6C44,23.8,43.7,23.9,43.4,24.1z"/>
	<path class="st0" d="M42,38.6v0.4c0,1.2-1,2.1-2.1,2.1h-0.8v2.3h0.8c2.5,0,4.5-2,4.5-4.5v-0.4H42z"/>
	<path class="st0" d="M9.7,12.2v-0.4c0-1.2,1-2.1,2.1-2.1h2V7.3h-2c-2.5,0-4.5,2-4.5,4.5v0.4H9.7z"/>
	<rect x="7.4" y="18.3" class="st0" width="2.3" height="12.9"/>
	<path class="st0" d="M9.7,38.9v-0.4H7.4v0.4c0,2.5,2,4.5,4.5,4.5h2v-2.3h-2C10.7,41.1,9.7,40.1,9.7,38.9z"/>
	<g>
		<circle class="st0" cx="38.6" cy="13.3" r="2.2"/>
		<path class="st0" d="M38.6,15.5c-1.2,0-2.2-1-2.2-2.2s1-2.2,2.2-2.2c1.2,0,2.2,1,2.2,2.2S39.8,15.5,38.6,15.5z M38.6,11.2
			c-1.1,0-2.1,0.9-2.1,2.1s0.9,2.1,2.1,2.1c1.1,0,2.1-0.9,2.1-2.1S39.7,11.2,38.6,11.2z"/>
	</g>
	<path class="st0" d="M38.6,19.7c-3.6,0-6.4-2.9-6.4-6.4s2.9-6.4,6.4-6.4c3.6,0,6.4,2.9,6.4,6.4S42.1,19.7,38.6,19.7z M38.6,9.1
		c-2.3,0-4.2,1.9-4.2,4.2s1.9,4.2,4.2,4.2c2.3,0,4.2-1.9,4.2-4.2S40.9,9.1,38.6,9.1z"/>
</g>
</svg>
