<?xml version="1.0" encoding="UTF-8" standalone="no"?>
<svg width="459px" height="82px" viewBox="0 0 459 82" version="1.1" xmlns="http://www.w3.org/2000/svg" xmlns:xlink="http://www.w3.org/1999/xlink">
    <!-- Generator: Sketch 45.2 (43514) - http://www.bohemiancoding.com/sketch -->
    <title>BALLOON</title>
    <desc>Created with Sketch.</desc>
    <defs></defs>
    <g id="Physics-Tool" stroke="none" stroke-width="1" fill="none" fill-rule="evenodd">
        <g id="Just-Text" transform="translate(-1554.000000, -1340.000000)" fill="#FFFFFF">
            <path d="M1593.824,1379.008 C1602.56,1380.688 1611.408,1384.832 1611.408,1397.488 C1611.408,1414.848 1597.408,1420 1578.368,1420 L1554.176,1420 L1554.176,1342.496 L1575.344,1342.496 C1595.616,1342.496 1608.048,1347.984 1608.048,1362.32 C1608.048,1372.064 1600.992,1377.328 1593.824,1379.008 Z M1570.64,1354.368 L1570.64,1373.968 L1578.704,1373.968 C1586.544,1373.968 1591.248,1370.72 1591.248,1363.776 C1591.248,1356.608 1586.432,1354.368 1576.912,1354.368 L1570.64,1354.368 Z M1578.48,1407.792 C1587.664,1407.792 1594.272,1406 1594.272,1396.816 C1594.272,1388.192 1588.224,1385.168 1579.936,1385.168 L1570.64,1385.168 L1570.64,1407.792 L1578.48,1407.792 Z M1657.44,1402.64 L1633.136,1402.64 L1628.768,1420 L1611.632,1420 L1635.488,1342.496 L1655.536,1342.496 L1679.28,1420 L1661.808,1420 L1657.44,1402.64 Z M1654.304,1390.432 L1645.232,1354.704 L1636.272,1390.432 L1654.304,1390.432 Z M1702.912,1406.784 L1702.912,1342.496 L1686.448,1342.496 L1686.448,1420 L1731.808,1420 L1733.6,1406.784 L1702.912,1406.784 Z M1759.92,1406.784 L1759.92,1342.496 L1743.456,1342.496 L1743.456,1420 L1788.816,1420 L1790.608,1406.784 L1759.92,1406.784 Z M1829.92,1340.704 C1851.2,1340.704 1864.304,1355.264 1864.304,1381.248 C1864.304,1406.672 1851.2,1421.792 1829.92,1421.792 C1808.64,1421.792 1795.424,1407.12 1795.424,1381.248 C1795.424,1355.936 1808.64,1340.704 1829.92,1340.704 Z M1829.92,1353.024 C1818.944,1353.024 1812.784,1360.976 1812.784,1381.248 C1812.784,1401.52 1819.168,1409.472 1829.92,1409.472 C1841.008,1409.472 1846.944,1401.52 1846.944,1381.248 C1846.944,1360.976 1841.008,1353.024 1829.92,1353.024 Z M1907.312,1340.704 C1928.592,1340.704 1941.696,1355.264 1941.696,1381.248 C1941.696,1406.672 1928.592,1421.792 1907.312,1421.792 C1886.032,1421.792 1872.816,1407.12 1872.816,1381.248 C1872.816,1355.936 1886.032,1340.704 1907.312,1340.704 Z M1907.312,1353.024 C1896.336,1353.024 1890.176,1360.976 1890.176,1381.248 C1890.176,1401.52 1896.56,1409.472 1907.312,1409.472 C1918.4,1409.472 1924.336,1401.52 1924.336,1381.248 C1924.336,1360.976 1918.4,1353.024 1907.312,1353.024 Z M2012.592,1420 L2012.592,1342.496 L1997.696,1342.496 L1997.696,1376.544 C1997.696,1388.08 1999.152,1398.832 1999.936,1404.096 L1974.848,1342.496 L1954.128,1342.496 L1954.128,1420 L1969.024,1420 L1969.024,1389.872 C1969.024,1375.536 1967.68,1365.456 1966.784,1358.512 L1991.424,1420 L2012.592,1420 Z" id="BALLOON"></path>
        </g>
    </g>
</svg>