<?xml version="1.0" encoding="UTF-8" standalone="no"?>
<svg width="393px" height="82px" viewBox="0 0 393 82" version="1.1" xmlns="http://www.w3.org/2000/svg" xmlns:xlink="http://www.w3.org/1999/xlink">
    <!-- Generator: Sketch 45.2 (43514) - http://www.bohemiancoding.com/sketch -->
    <title>COTTON</title>
    <desc>Created with Sketch.</desc>
    <defs></defs>
    <g id="Physics-Tool" stroke="none" stroke-width="1" fill="none" fill-rule="evenodd">
        <g id="Just-Text" transform="translate(-1550.000000, -500.000000)" fill="#FFFFFF">
            <path d="M1584.528,500.704 C1565.152,500.704 1550.256,515.04 1550.256,541.136 C1550.256,567.568 1564.368,581.792 1584.976,581.792 C1595.728,581.792 1603.904,577.088 1608.832,572.048 L1601.216,562.304 C1596.736,565.776 1592.256,568.8 1585.76,568.8 C1575.12,568.8 1567.616,560.624 1567.616,541.136 C1567.616,520.976 1575.232,513.136 1585.536,513.136 C1590.912,513.136 1595.392,515.04 1599.648,518.736 L1607.936,509.104 C1601.552,503.728 1594.832,500.704 1584.528,500.704 Z M1646.464,500.704 C1667.744,500.704 1680.848,515.264 1680.848,541.248 C1680.848,566.672 1667.744,581.792 1646.464,581.792 C1625.184,581.792 1611.968,567.12 1611.968,541.248 C1611.968,515.936 1625.184,500.704 1646.464,500.704 Z M1646.464,513.024 C1635.488,513.024 1629.328,520.976 1629.328,541.248 C1629.328,561.52 1635.712,569.472 1646.464,569.472 C1657.552,569.472 1663.488,561.52 1663.488,541.248 C1663.488,520.976 1657.552,513.024 1646.464,513.024 Z M1740.656,515.376 L1742.448,502.496 L1683.984,502.496 L1683.984,515.376 L1704.592,515.376 L1704.592,580 L1721.056,580 L1721.056,515.376 L1740.656,515.376 Z M1800.464,515.376 L1802.256,502.496 L1743.792,502.496 L1743.792,515.376 L1764.4,515.376 L1764.4,580 L1780.864,580 L1780.864,515.376 L1800.464,515.376 Z M1837.312,500.704 C1858.592,500.704 1871.696,515.264 1871.696,541.248 C1871.696,566.672 1858.592,581.792 1837.312,581.792 C1816.032,581.792 1802.816,567.12 1802.816,541.248 C1802.816,515.936 1816.032,500.704 1837.312,500.704 Z M1837.312,513.024 C1826.336,513.024 1820.176,520.976 1820.176,541.248 C1820.176,561.52 1826.56,569.472 1837.312,569.472 C1848.4,569.472 1854.336,561.52 1854.336,541.248 C1854.336,520.976 1848.4,513.024 1837.312,513.024 Z M1942.592,580 L1942.592,502.496 L1927.696,502.496 L1927.696,536.544 C1927.696,548.08 1929.152,558.832 1929.936,564.096 L1904.848,502.496 L1884.128,502.496 L1884.128,580 L1899.024,580 L1899.024,549.872 C1899.024,535.536 1897.68,525.456 1896.784,518.512 L1921.424,580 L1942.592,580 Z" id="COTTON"></path>
        </g>
    </g>
</svg>