<?xml version="1.0" encoding="UTF-8" standalone="no"?>
<svg width="522px" height="82px" viewBox="0 0 522 82" version="1.1" xmlns="http://www.w3.org/2000/svg" xmlns:xlink="http://www.w3.org/1999/xlink">
    <!-- Generator: Sketch 45.2 (43514) - http://www.bohemiancoding.com/sketch -->
    <title>CUSTOM …</title>
    <desc>Created with Sketch.</desc>
    <defs></defs>
    <g id="Physics-Tool" stroke="none" stroke-width="1" fill="none" fill-rule="evenodd">
        <g id="Just-Text" transform="translate(-603.000000, -1620.000000)" fill="#FFFFFF">
            <path d="M637.528,1620.704 C618.152,1620.704 603.256,1635.04 603.256,1661.136 C603.256,1687.568 617.368,1701.792 637.976,1701.792 C648.728,1701.792 656.904,1697.088 661.832,1692.048 L654.216,1682.304 C649.736,1685.776 645.256,1688.8 638.76,1688.8 C628.12,1688.8 620.616,1680.624 620.616,1661.136 C620.616,1640.976 628.232,1633.136 638.536,1633.136 C643.912,1633.136 648.392,1635.04 652.648,1638.736 L660.936,1629.104 C654.552,1623.728 647.832,1620.704 637.528,1620.704 Z M729.032,1674.464 L729.032,1622.496 L712.568,1622.496 L712.568,1673.68 C712.568,1684.096 708.536,1689.248 699.464,1689.248 C690.504,1689.248 686.472,1684.096 686.472,1673.68 L686.472,1622.496 L670.008,1622.496 L670.008,1674.464 C670.008,1690.592 679.864,1701.792 699.464,1701.792 C719.064,1701.792 729.032,1690.032 729.032,1674.464 Z M768.008,1620.704 C752.328,1620.704 740.904,1629.328 740.904,1642.544 C740.904,1654.304 747.624,1661.024 764.424,1666.288 C776.184,1669.872 779.208,1672.56 779.208,1678.72 C779.208,1685.552 773.832,1689.36 765.88,1689.36 C757.928,1689.36 751.656,1686.448 746.28,1681.52 L737.656,1690.928 C744.04,1697.2 753.448,1701.792 766.328,1701.792 C785.144,1701.792 796.344,1691.824 796.344,1677.6 C796.344,1663.264 787.384,1657.44 773.384,1652.96 C760.728,1649.04 757.816,1646.8 757.816,1641.424 C757.816,1635.936 762.408,1633.024 769.128,1633.024 C775.4,1633.024 780.776,1635.04 786.152,1639.632 L794.104,1630.448 C787.384,1624.176 779.544,1620.704 768.008,1620.704 Z M856.152,1635.376 L857.944,1622.496 L799.48,1622.496 L799.48,1635.376 L820.088,1635.376 L820.088,1700 L836.552,1700 L836.552,1635.376 L856.152,1635.376 Z M893,1620.704 C914.28,1620.704 927.384,1635.264 927.384,1661.248 C927.384,1686.672 914.28,1701.792 893,1701.792 C871.72,1701.792 858.504,1687.12 858.504,1661.248 C858.504,1635.936 871.72,1620.704 893,1620.704 Z M893,1633.024 C882.024,1633.024 875.864,1640.976 875.864,1661.248 C875.864,1681.52 882.248,1689.472 893,1689.472 C904.088,1689.472 910.024,1681.52 910.024,1661.248 C910.024,1640.976 904.088,1633.024 893,1633.024 Z M1013.848,1700 L1007.912,1622.496 L986.744,1622.496 L974.76,1675.92 L961.992,1622.496 L941.048,1622.496 L935,1700 L951.016,1700 L952.696,1668.864 C953.256,1658 953.368,1647.696 952.696,1636.832 L966.696,1691.712 L982.264,1691.712 L995.368,1636.944 C995.032,1645.792 995.368,1657.44 996.04,1668.528 L997.72,1700 L1013.848,1700 Z M1060.104,1682.64 C1054.84,1682.64 1050.584,1687.008 1050.584,1692.16 C1050.584,1697.424 1054.84,1701.792 1060.104,1701.792 C1065.48,1701.792 1069.736,1697.424 1069.736,1692.16 C1069.736,1687.008 1065.48,1682.64 1060.104,1682.64 Z M1087.544,1682.64 C1082.28,1682.64 1078.024,1687.008 1078.024,1692.16 C1078.024,1697.424 1082.28,1701.792 1087.544,1701.792 C1092.92,1701.792 1097.176,1697.424 1097.176,1692.16 C1097.176,1687.008 1092.92,1682.64 1087.544,1682.64 Z M1114.984,1682.64 C1109.608,1682.64 1105.464,1687.008 1105.464,1692.16 C1105.464,1697.424 1109.608,1701.792 1114.984,1701.792 C1120.36,1701.792 1124.616,1697.424 1124.616,1692.16 C1124.616,1687.008 1120.36,1682.64 1114.984,1682.64 Z" id="CUSTOM-…"></path>
        </g>
    </g>
</svg>