<?xml version="1.0" encoding="utf-8"?>
<!DOCTYPE svg PUBLIC "-//W3C//DTD SVG 1.1//EN" "http://www.w3.org/Graphics/SVG/1.1/DTD/svg11.dtd">
<svg xmlns="http://www.w3.org/2000/svg" xmlns:xlink="http://www.w3.org/1999/xlink" version="1.1" baseProfile="full" width="436" height="80" viewBox="0 0 436.00 80.00" enable-background="new 0 0 436.00 80.00" xml:space="preserve">
	<g>
		<path fill="#FFFFFF" fill-opacity="1" stroke-width="0.2" stroke-linejoin="round" d="M 21.7221,2.04751C 33.7849,2.04751 43.4492,4.80959 50.7149,10.3338C 57.9806,15.8579 61.6134,25.9875 61.6134,40.7225C 61.6134,55.1542 58.0562,65.3217 50.9419,71.225C 43.8276,77.1283 34.7164,80.08 23.6083,80.08L 1.47947,80.08L 1.47947,2.04751L 21.7221,2.04751 Z M 17.9146,14L 17.9146,68.1275L 24.6213,68.1275C 30.9555,68.1275 35.8546,66.1383 39.3186,62.16C 42.7826,58.1817 44.5146,51.0358 44.5146,40.7225C 44.5146,33.5942 43.6384,28.0583 41.886,24.115C 40.1337,20.1717 37.8049,17.5 34.8998,16.1C 31.9947,14.7 28.4579,14 24.2895,14L 17.9146,14 Z "/>
		<path fill="#FFFFFF" fill-opacity="1" stroke-width="0.2" stroke-linejoin="round" d="M 118.516,14L 90.5713,14L 90.5713,34.5275L 114.936,34.5275L 114.936,46.48L 90.5713,46.48L 90.5713,68.1275L 120.525,68.1275L 120.525,80.08L 74.1362,80.08L 74.1362,2.04751L 120.298,2.04751L 118.516,14 Z "/>
		<path fill="#FFFFFF" fill-opacity="1" stroke-width="0.2" stroke-linejoin="round" d="M 176.537,14.7525L 149.814,14.7525L 149.814,36.7675L 173.061,36.7675L 173.061,48.72L 149.814,48.72L 149.814,80.6225L 133.379,80.6225L 133.379,2.80001L 178.318,2.80001L 176.537,14.7525 Z "/>
		<path fill="#FFFFFF" fill-opacity="1" stroke-width="0.2" stroke-linejoin="round" d="M 224.707,62.16L 200.447,62.16L 196.098,79.5025L 178.982,79.5025L 202.805,1.68001L 222.803,1.68001L 246.504,79.5025L 229.073,79.5025L 224.707,62.16 Z M 221.58,50.2075L 212.516,14.2275L 203.469,50.2075L 221.58,50.2075 Z "/>
		<path fill="#FFFFFF" fill-opacity="1" stroke-width="0.2" stroke-linejoin="round" d="M 311.895,54.7225C 311.895,60.0775 310.777,64.8288 308.542,68.9762C 306.306,73.1237 302.97,76.3846 298.534,78.7588C 294.097,81.1329 288.712,82.32 282.378,82.32C 272.842,82.32 265.559,79.8117 260.529,74.795C 255.499,69.7783 252.984,63.0875 252.984,54.7225L 252.984,2.24001L 269.419,2.24001L 269.419,54.4775C 269.419,59.8092 270.461,63.7904 272.545,66.4212C 274.629,69.0521 277.907,70.3675 282.378,70.3675C 286.849,70.3675 290.147,69.0521 292.272,66.4212C 294.397,63.7904 295.46,59.8092 295.46,54.4775L 295.46,2.24001L 311.895,2.24001L 311.895,54.7225 Z "/>
		<path fill="#FFFFFF" fill-opacity="1" stroke-width="0.2" stroke-linejoin="round" d="M 343.193,66.64L 373.828,66.64L 372.029,80.08L 326.758,80.08L 326.758,2.24001L 343.193,2.24001L 343.193,66.64 Z "/>
		<path fill="#FFFFFF" fill-opacity="1" stroke-width="0.2" stroke-linejoin="round" d="M 433.281,15.12L 413.719,15.12L 413.719,80.0625L 397.301,80.0625L 397.301,15.12L 376.727,15.12L 376.727,1.68001L 435.079,1.68001L 433.281,15.12 Z "/>
	</g>
</svg>
