<?xml version="1.0" encoding="UTF-8" standalone="no"?>
<svg width="318px" height="82px" viewBox="0 0 318 82" version="1.1" xmlns="http://www.w3.org/2000/svg" xmlns:xlink="http://www.w3.org/1999/xlink">
    <!-- Generator: Sketch 45.2 (43514) - http://www.bohemiancoding.com/sketch -->
    <title>FINISH</title>
    <desc>Created with Sketch.</desc>
    <defs></defs>
    <g id="Stretch-Tool" stroke="none" stroke-width="1" fill="none" fill-rule="evenodd">
        <g id="Stretch---Default" transform="translate(-1041.000000, -1260.000000)" fill="#FFFFFF">
            <path d="M1084.64,1274.48 L1086.432,1262.496 L1041.408,1262.496 L1041.408,1340 L1057.872,1340 L1057.872,1308.416 L1081.168,1308.416 L1081.168,1296.432 L1057.872,1296.432 L1057.872,1274.48 L1084.64,1274.48 Z M1112.64,1340 L1112.64,1262.496 L1096.064,1262.496 L1096.064,1340 L1112.64,1340 Z M1187.456,1340 L1187.456,1262.496 L1172.56,1262.496 L1172.56,1296.544 C1172.56,1308.08 1174.016,1318.832 1174.8,1324.096 L1149.712,1262.496 L1128.992,1262.496 L1128.992,1340 L1143.888,1340 L1143.888,1309.872 C1143.888,1295.536 1142.544,1285.456 1141.648,1278.512 L1166.288,1340 L1187.456,1340 Z M1220.384,1340 L1220.384,1262.496 L1203.808,1262.496 L1203.808,1340 L1220.384,1340 Z M1260.368,1260.704 C1244.688,1260.704 1233.264,1269.328 1233.264,1282.544 C1233.264,1294.304 1239.984,1301.024 1256.784,1306.288 C1268.544,1309.872 1271.568,1312.56 1271.568,1318.72 C1271.568,1325.552 1266.192,1329.36 1258.24,1329.36 C1250.288,1329.36 1244.016,1326.448 1238.64,1321.52 L1230.016,1330.928 C1236.4,1337.2 1245.808,1341.792 1258.688,1341.792 C1277.504,1341.792 1288.704,1331.824 1288.704,1317.6 C1288.704,1303.264 1279.744,1297.44 1265.744,1292.96 C1253.088,1289.04 1250.176,1286.8 1250.176,1281.424 C1250.176,1275.936 1254.768,1273.024 1261.488,1273.024 C1267.76,1273.024 1273.136,1275.04 1278.512,1279.632 L1286.464,1270.448 C1279.744,1264.176 1271.904,1260.704 1260.368,1260.704 Z M1342.128,1306.064 L1342.128,1340 L1358.592,1340 L1358.592,1262.496 L1342.128,1262.496 L1342.128,1293.072 L1316.48,1293.072 L1316.48,1262.496 L1300.016,1262.496 L1300.016,1340 L1316.48,1340 L1316.48,1306.064 L1342.128,1306.064 Z" id="FINISH"></path>
        </g>
    </g>
</svg>