<?xml version="1.0" encoding="utf-8"?>
<!DOCTYPE svg PUBLIC "-//W3C//DTD SVG 1.1//EN" "http://www.w3.org/Graphics/SVG/1.1/DTD/svg11.dtd">
<svg version="1.1" id="Layer_1" xmlns="http://www.w3.org/2000/svg" xmlns:xlink="http://www.w3.org/1999/xlink" x="0px" y="0px"
	 viewBox="0 -270 2622 1198" enable-background="new 0 0 2622 1198" xml:space="preserve">
<g transform="scale(1,.4546)">
	<path d="M2591,599c0,0-573.0756,558.7166-1280,558.7166S31,599,31,599S604.0755,40.2834,1311,40.2834S2591,599,2591,599z"/>
	<g>
		<path fill="#FFFFFF" d="M1507.3644,831.6261c8.1908-85.9868,6.8108-166.8081,5.306-206.6722l-92.7485,160.6452l0.1365,0.2027
			c-0.0315,0.0212-0.1725,0.1157-0.4128,0.2759l-0.3179,0.5509h-0.5111c-11.4204,7.5681-99.7214,65.3458-204.2842,113.1478
			c-65.7413,30.0543-125.0349,50.3848-176.2341,60.427c-33.0687,6.4862-62.8685,8.665-89.223,6.5692
			c93.1363,91.6643,220.923,148.226,361.9247,148.226c38.7316,0,76.463-4.2765,112.7566-12.3666
			c19.0804-22.5304,35.3513-53.2766,48.5972-91.9321C1488.853,962.5517,1500.6323,902.3027,1507.3644,831.6261z"/>
		<path fill="#FFFFFF" d="M1202.6725,411.3712h0.5111c11.4207-7.5681,99.7214-65.3457,204.2842-113.1477
			c65.7412-30.0542,125.0348-50.3848,176.234-60.4269c33.0687-6.4863,62.8685-8.6651,89.223-6.5692
			C1579.7885,139.563,1452.0017,83.0015,1311,83.0015c-38.7316,0-76.463,4.2764-112.7566,12.3666
			c-19.0803,22.5305-35.3513,53.2766-48.5973,91.932c-16.499,48.1481-28.2784,108.3973-35.0105,179.0738
			c-8.1908,85.9868-6.8108,166.8082-5.306,206.6722l92.7484-160.6451l-0.1364-0.2027c0.0314-0.0211,0.1724-0.1157,0.4127-0.2759
			L1202.6725,411.3712z"/>
		<path fill="#FFFFFF" d="M1586.8657,253.4136c-49.9471,9.7853-108.0142,29.7088-172.5878,59.2168
			c-78.5621,35.9-147.8654,77.5058-181.6364,98.741h185.4969l0.1073-0.2195c0.0342,0.0167,0.1865,0.0915,0.4454,0.2195h0.6364
			l0.2554,0.4426c12.2645,6.1064,106.4518,53.6884,200.1307,120.3414c58.8986,41.9065,106.1522,83.091,140.4484,122.4097
			c22.2083,25.4601,39.0232,50.2394,50.3865,74.1677c10.7344-41.452,16.45-84.9244,16.45-129.7325
			c0-134.8296-51.7194-257.5746-136.3927-349.4958C1661.5886,244.2816,1626.8857,245.5726,1586.8657,253.4136z"/>
		<path fill="#FFFFFF" d="M1748.2195,665.1135c-33.4479-38.3628-79.7356-78.6885-137.5773-119.857
			c-70.3712-50.0869-141.0546-89.3023-176.3302-107.9312l92.7485,160.6452l0.2438-0.0168c0.0027,0.0379,0.014,0.2072,0.0326,0.4955
			l0.318,0.551l-0.2555,0.4425c0.844,13.6745,6.7305,119.0341-4.1532,233.4891c-6.8429,71.9608-18.8829,133.4758-35.7858,182.8367
			c-10.9449,31.963-23.9971,58.9147-39.0378,80.7199c168.875-46.5455,303.0535-176.7669,355.1321-343.2732
			C1793.5869,725.4113,1775.0889,695.9305,1748.2195,665.1135z"/>
		<path fill="#FFFFFF" d="M1035.1344,944.5864c49.947-9.7854,108.014-29.7087,172.5876-59.2168
			c78.5623-35.9,147.8655-77.5058,181.6365-98.741h-185.4971l-0.1073,0.2195c-0.0342-0.0167-0.1865-0.0915-0.4454-0.2195h-0.6364
			l-0.2554-0.4426c-12.2645-6.1064-106.4518-53.6884-200.1309-120.3412c-58.8984-41.9065-106.152-83.091-140.4482-122.4097
			c-22.2083-25.46-39.0232-50.2393-50.3865-74.1676C800.7169,510.7194,795.0015,554.192,795.0015,599
			c0,134.8295,51.7193,257.5745,136.3928,349.4958C960.4114,953.7184,995.1143,952.4273,1035.1344,944.5864z"/>
		<path fill="#FFFFFF" d="M873.7805,532.8865c33.4479,38.3627,79.7355,78.6885,137.5771,119.857
			c70.3715,50.0868,141.0547,89.3022,176.3304,107.9312l-92.7487-160.645l-0.2438,0.0167c-0.0026-0.0378-0.014-0.2072-0.0326-0.4954
			l-0.318-0.551l0.2555-0.4426c-0.8439-13.6744-6.7303-119.034,4.1532-233.4892c6.8429-71.9607,18.8829-133.4758,35.7858-182.8366
			c10.9451-31.963,23.9971-58.9148,39.0378-80.7198c-168.8749,46.5456-303.0535,176.7669-355.132,343.2733
			C828.413,472.5887,846.9111,502.0695,873.7805,532.8865z"/>
	</g>
</g>
</svg>
