<?xml version="1.0" encoding="UTF-8" standalone="no"?>
<!-- Created with Inkscape (http://www.inkscape.org/) -->

<svg
   xmlns:dc="http://purl.org/dc/elements/1.1/"
   xmlns:cc="http://creativecommons.org/ns#"
   xmlns:rdf="http://www.w3.org/1999/02/22-rdf-syntax-ns#"
   xmlns:svg="http://www.w3.org/2000/svg"
   xmlns="http://www.w3.org/2000/svg"
   xmlns:sodipodi="http://sodipodi.sourceforge.net/DTD/sodipodi-0.dtd"
   xmlns:inkscape="http://www.inkscape.org/namespaces/inkscape"
   viewBox="0 0 103.5589 96.356271"
   id="svg2"
   version="1.1"
   inkscape:version="0.91 r13725"
   sodipodi:docname="Pullover-lineart.svg"
   width="103.55891"
   height="96.35627">
  <title
     id="title4776">Pullover</title>
  <defs
     id="defs4" />
  <sodipodi:namedview
     id="base"
     pagecolor="#ffffff"
     bordercolor="#666666"
     borderopacity="1.0"
     inkscape:pageopacity="0.0"
     inkscape:pageshadow="2"
     inkscape:zoom="2.8"
     inkscape:cx="-26.446604"
     inkscape:cy="71.594555"
     inkscape:document-units="mm"
     inkscape:current-layer="g4743"
     showgrid="false"
     inkscape:snap-global="false"
     inkscape:window-width="1353"
     inkscape:window-height="864"
     inkscape:window-x="565"
     inkscape:window-y="163"
     inkscape:window-maximized="0"
     fit-margin-top="1"
     fit-margin-right="1"
     fit-margin-bottom="1"
     fit-margin-left="1" />
  <metadata
     id="metadata7">
    <rdf:RDF>
      <cc:Work
         rdf:about="">
        <dc:format>image/svg+xml</dc:format>
        <dc:type
           rdf:resource="http://purl.org/dc/dcmitype/StillImage" />
        <dc:title>Pullover</dc:title>
        <cc:license
           rdf:resource="http://creativecommons.org/publicdomain/zero/1.0/" />
        <dc:date>2014-02-03</dc:date>
        <dc:creator>
          <cc:Agent>
            <dc:title>Frank Tremmel</dc:title>
          </cc:Agent>
        </dc:creator>
        <dc:subject>
          <rdf:Bag>
            <rdf:li>pulli</rdf:li>
            <rdf:li>pullover</rdf:li>
            <rdf:li>sweater</rdf:li>
            <rdf:li>shirt</rdf:li>
            <rdf:li>clothes</rdf:li>
            <rdf:li>clothings</rdf:li>
            <rdf:li>kleidung</rdf:li>
            <rdf:li />
          </rdf:Bag>
        </dc:subject>
        <dc:description>outline pullover</dc:description>
      </cc:Work>
      <cc:License
         rdf:about="http://creativecommons.org/publicdomain/zero/1.0/">
        <cc:permits
           rdf:resource="http://creativecommons.org/ns#Reproduction" />
        <cc:permits
           rdf:resource="http://creativecommons.org/ns#Distribution" />
        <cc:permits
           rdf:resource="http://creativecommons.org/ns#DerivativeWorks" />
      </cc:License>
    </rdf:RDF>
  </metadata>
  <g
     inkscape:label="Ebene 1"
     inkscape:groupmode="layer"
     id="layer1"
     transform="translate(-75.776925,-142.31587)">
    <path
       style="fill:#000000;fill-opacity:1;fill-rule:evenodd;stroke:#ffffff;stroke-width:1.0629921;stroke-linecap:butt;stroke-linejoin:miter;stroke-miterlimit:4;stroke-dasharray:none;stroke-opacity:1"
       d="m 94.322994,173.65576 c -3.339979,2.60605 -5.07038,4.29233 -6.060915,5.55584 -5.790263,6.51567 -4.212643,9.6823 -6.313454,14.52094 -0.727454,3.65617 -1.858434,5.69825 -2.904188,8.08122 0.08418,2.90438 0.168359,5.83182 0.252538,8.08122 -1.16103,7.34338 -1.205307,5.19435 -1.767767,7.44988 -0.53418,2.84697 -0.210162,5.31253 2.272843,6.81853 11.032231,-3.34583 10.758395,-0.23105 12.879445,1.51522 2.863932,-0.4337 3.295511,-2.48898 3.156727,-4.92449 l -0.883884,-5.05076 c 0.632535,-0.96806 1.308017,-1.93613 2.272844,-2.90419 0.776226,-3.04463 1.23083,-6.57169 3.282997,-7.70241 3.74653,4.20624 4.59546,4.47516 6.69226,6.43972 0.9301,2.317 1.71302,4.5604 3.28299,7.19734 1.32721,0.86422 2.95185,2.02587 3.66181,2.27284 -0.38756,2.80553 0.74024,4.47454 1.6415,6.31345 1.84927,2.82783 5.58497,1.74348 5.6821,2.14658 -0.55086,-2.32807 1.24204,-2.99598 2.14658,-4.29315 3.19527,-1.17851 7.48007,-2.35703 9.47018,-3.53554 3.38552,-0.39337 5.22173,-3.11072 7.3236,-5.42957 2.68536,-1.12804 5.18237,-2.06773 7.19734,-2.52538 2.52933,-3.81865 5.59526,-7.50315 9.47018,-10.98541 l 2.77792,-0.63134 c 1.36353,-1.13642 0.73214,-2.27285 0.12627,-3.40927 -2.31949,-1.68504 -3.45256,-4.80539 -5.80838,-3.53553 -0.0117,-2.03825 0.65585,-3.85005 -0.25254,-6.18718 l -4.67195,-6.43973 -1.51523,-5.3033 c 1.78476,0.017 2.76691,-0.76862 3.91434,-1.38896 3.96387,-2.39045 5.07889,-4.06869 6.43972,-5.80838 4.4315,-0.20527 5.68887,-1.77088 7.95495,-2.90418 1.8776,-1.59327 3.77804,-3.15608 4.67196,-6.06092 0.54857,-3.33518 -0.54688,-4.69755 -1.6415,-6.06091 -2.17095,-2.83106 -4.73215,-4.49136 -7.57614,-5.30331 -2.32931,-0.54768 -3.57095,0.53613 -5.3033,0.88389 -1.1701,1.64145 -2.53397,2.31409 -4.04061,2.27284 -1.93613,-0.49705 -3.87225,-0.12058 -5.80838,0.37881 -1.05224,0.28118 -2.10449,0.93964 -3.15673,1.89403 -5.18875,-2.20233 -13.7261,-1.53316 -15.02602,-1.64149 -2.5351,0.41604 -4.10911,1.31262 -5.3033,2.39911 0.5414,2.38758 0.36057,3.3307 0.25254,4.41942 l -2.0203,4.54568 c -0.96806,2.34111 -1.93613,3.96815 -2.90419,5.3033 -1.44866,1.71881 -2.38707,2.41711 -3.53554,3.53554 -4.06484,1.0684 -6.25025,0.88384 -8.33375,0.63134 l -9.343915,0.25254 z"
       id="path4147"
       inkscape:connector-curvature="0"
       sodipodi:nodetypes="ccccccccccccccccccccccccccccccccccccccccccccccc" />
    <path
       style="fill:#ffffff;fill-opacity:1;fill-rule:evenodd;stroke:#000000;stroke-width:1.0629921;stroke-linecap:butt;stroke-linejoin:miter;stroke-miterlimit:4;stroke-dasharray:none;stroke-opacity:1"
       d="m 95.017474,173.71889 c -1.115817,-0.27627 -1.753892,-1.4628 0.568211,-3.15672 0.625331,-1.12273 1.348515,-2.20197 0.505076,-3.97748 0.533765,-0.81214 -0.03782,-1.34794 1.704633,-2.46225 4.572276,-2.81889 9.219066,-5.33967 13.637056,-8.7757 1.39758,-0.32353 2.29844,-2.01306 4.29315,-0.69448 0.94713,0.16825 1.59398,0.63677 2.20971,1.13642 l 2.71479,-0.2525 c 1.02605,-0.10162 2.64696,-0.0481 2.52538,1.32582 -0.0222,1.811 0.53574,3.18467 -1.13643,6.25032 l -4.16687,7.63928 c -1.94639,3.56839 -4.87531,3.80302 -7.13421,3.78807 l -9.53331,-0.0631 c -2.070014,-0.0137 -3.824623,0.39538 -6.187186,-0.75768 z"
       id="path4315"
       inkscape:connector-curvature="0"
       sodipodi:nodetypes="cccccccccssssc" />
    <path
       style="fill:none;fill-rule:evenodd;stroke:#000000;stroke-width:1.0629921;stroke-linecap:round;stroke-linejoin:miter;stroke-miterlimit:4;stroke-dasharray:none;stroke-opacity:1"
       d="m 92.302689,182.11579 c 0.558331,1.40012 0.833816,2.5174 3.661803,6.18718 2.293971,2.75713 4.599508,5.54894 6.565988,7.32361 1.26682,1.68313 2.10554,3.41382 0.37881,5.42957 l -2.52538,4.16688"
       id="path4168"
       inkscape:connector-curvature="0"
       sodipodi:nodetypes="ccccc" />
    <path
       style="fill:none;fill-rule:evenodd;stroke:#000000;stroke-width:1.0629921;stroke-linecap:round;stroke-linejoin:miter;stroke-miterlimit:4;stroke-dasharray:none;stroke-opacity:1"
       d="m 138.3909,165.95334 c 3.03228,2.19104 7.12656,6.24714 9.21764,11.49049"
       id="path4170"
       inkscape:connector-curvature="0"
       sodipodi:nodetypes="cc" />
    <path
       style="fill:none;fill-rule:evenodd;stroke:#000000;stroke-width:1.0629921;stroke-linecap:round;stroke-linejoin:miter;stroke-miterlimit:4;stroke-dasharray:none;stroke-opacity:1"
       d="m 127.7843,153.70525 c 2.64195,0.97313 4.59672,2.73162 6.06091,5.05076"
       id="path4172"
       inkscape:connector-curvature="0"
       sodipodi:nodetypes="cc" />
    <path
       style="fill:none;fill-rule:evenodd;stroke:#000000;stroke-width:1.0629921;stroke-linecap:round;stroke-linejoin:miter;stroke-miterlimit:4;stroke-dasharray:none;stroke-opacity:1"
       d="m 142.93659,154.96794 c 1.98951,0.40395 3.34184,1.76367 4.67195,3.15672"
       id="path4174"
       inkscape:connector-curvature="0"
       sodipodi:nodetypes="cc" />
    <path
       style="fill:none;fill-rule:evenodd;stroke:#000000;stroke-width:1.0629921;stroke-linecap:round;stroke-linejoin:miter;stroke-miterlimit:4;stroke-dasharray:none;stroke-opacity:1"
       d="m 94.82807,215.82963 c -0.424762,0.61975 -0.92218,1.02153 -1.515228,1.13642"
       id="path4176"
       inkscape:connector-curvature="0"
       sodipodi:nodetypes="cc" />
    <path
       style="fill:none;fill-rule:evenodd;stroke:#000000;stroke-width:1.0629921;stroke-linecap:round;stroke-linejoin:miter;stroke-miterlimit:4;stroke-dasharray:none;stroke-opacity:1"
       d="m 113.8947,220.88039 c 0.79145,0.26079 1.45836,0.64612 2.39911,0.75761"
       id="path4178"
       inkscape:connector-curvature="0"
       sodipodi:nodetypes="cc" />
    <g
       id="g4743"
       style="fill:#000000">
      <path
         inkscape:connector-curvature="0"
         id="path4323"
         d="m 96.91151,165.57454 1.704632,-0.12627 1.073288,0.94702"
         style="fill:#ffffff;fill-rule:evenodd;stroke:#000000;stroke-width:0.70866144;stroke-linecap:round;stroke-linejoin:miter;stroke-miterlimit:4;stroke-dasharray:none;stroke-opacity:1;fill-opacity:1" />
      <path
         inkscape:connector-curvature="0"
         id="path4325"
         d="m 100.0051,163.55423 1.19956,0.94702 -0.0631,1.8309"
         style="fill:#ffffff;fill-rule:evenodd;stroke:#000000;stroke-width:0.70866144;stroke-linecap:round;stroke-linejoin:miter;stroke-miterlimit:4;stroke-dasharray:none;stroke-opacity:1;fill-opacity:1" />
      <path
         sodipodi:nodetypes="ccccc"
         inkscape:connector-curvature="0"
         id="path4184"
         d="m 98.947134,166.79959 c -0.766734,1.18366 -0.562485,1.0057 -0.709799,1.36346 -0.182793,1.20518 -0.179527,1.97622 -0.189403,2.77792 l -0.820749,1.38896 c -0.06035,0.83694 -0.01671,1.22059 0.177914,1.79009"
         style="fill:#ffffff;fill-rule:evenodd;stroke:#000000;stroke-width:0.70866144;stroke-linecap:butt;stroke-linejoin:round;stroke-miterlimit:4;stroke-dasharray:none;stroke-opacity:1;fill-opacity:1" />
      <path
         inkscape:connector-curvature="0"
         id="path4327"
         d="m 101.26779,162.54408 1.51523,1.32582 0,1.70464"
         style="fill:#ffffff;fill-rule:evenodd;stroke:#000000;stroke-width:0.70866144;stroke-linecap:round;stroke-linejoin:miter;stroke-miterlimit:4;stroke-dasharray:none;stroke-opacity:1;fill-opacity:1" />
      <path
         sodipodi:nodetypes="ccccc"
         inkscape:connector-curvature="0"
         id="path4184-7"
         d="m 99.73943,167.40173 c -0.766735,1.18366 -0.227665,1.65302 -0.241046,2.18935 -0.182797,1.20518 -0.179531,0.86015 -0.189407,1.66185 -0.705828,0.55904 -0.591683,0.93587 -0.820749,1.38896 -0.06035,0.83694 0.29579,1.15363 0.490414,1.72313"
         style="fill:#ffffff;fill-rule:evenodd;stroke:#000000;stroke-width:0.70866144;stroke-linecap:butt;stroke-linejoin:round;stroke-miterlimit:4;stroke-dasharray:none;stroke-opacity:1;fill-opacity:1" />
      <path
         sodipodi:nodetypes="ccccc"
         inkscape:connector-curvature="0"
         id="path4184-6"
         d="m 100.63229,167.62495 c -0.76674,1.18366 0.10715,1.87623 0.18306,2.27863 0.4422,0.95965 0.35618,0.94944 0.3463,1.75114 -0.32852,0.36626 -0.56771,0.73252 -0.84306,1.09878 -0.0603,0.83694 -0.0167,1.22059 0.17791,1.79009"
         style="fill:#ffffff;fill-rule:evenodd;stroke:#000000;stroke-width:0.70866144;stroke-linecap:butt;stroke-linejoin:round;stroke-miterlimit:4;stroke-dasharray:none;stroke-opacity:1;fill-opacity:1" />
      <path
         sodipodi:nodetypes="ccccc"
         inkscape:connector-curvature="0"
         id="path4184-78"
         d="m 101.97158,167.71423 c -0.27567,1.2283 0.62055,1.76463 0.47324,2.12239 0.42668,1.39271 0.12925,1.33291 -0.0778,1.84042 l -0.12879,1.23271 c -0.0603,0.83694 0.22884,0.93041 0.42346,1.49991"
         style="fill:#ffffff;fill-rule:evenodd;stroke:#000000;stroke-width:0.70866144;stroke-linecap:butt;stroke-linejoin:round;stroke-miterlimit:4;stroke-dasharray:none;stroke-opacity:1;fill-opacity:1" />
      <path
         sodipodi:nodetypes="ccccc"
         inkscape:connector-curvature="0"
         id="path4184-3"
         d="m 102.99836,167.5803 c -0.008,1.09438 1.49108,2.23338 1.34377,2.59114 -0.25737,1.05602 -0.52808,1.18982 -0.43494,2.19756 l 0.25068,1.09878 c 0.2522,0.4798 0.4074,0.46167 0.60202,1.03117"
         style="fill:#ffffff;fill-rule:evenodd;stroke:#000000;stroke-width:0.70866144;stroke-linecap:butt;stroke-linejoin:round;stroke-miterlimit:4;stroke-dasharray:none;stroke-opacity:1;fill-opacity:1" />
      <path
         sodipodi:nodetypes="ccccc"
         inkscape:connector-curvature="0"
         id="path4184-5"
         d="m 104.82872,167.04459 c 0.17076,0.87116 0.37501,1.02802 0.45091,1.38578 0.39756,0.78107 1.11512,1.15033 1.10524,1.95203 l -0.6645,1.85771 c -0.0603,0.83694 0.54133,1.4438 0.73595,2.0133"
         style="fill:#ffffff;fill-rule:evenodd;stroke:#000000;stroke-width:0.70866144;stroke-linecap:butt;stroke-linejoin:round;stroke-miterlimit:4;stroke-dasharray:none;stroke-opacity:1;fill-opacity:1" />
      <path
         sodipodi:nodetypes="ccccc"
         inkscape:connector-curvature="0"
         id="path4184-74"
         d="m 106.65907,166.50887 c -0.23101,1.29527 1.33483,2.70213 1.38842,3.55096 -0.18279,1.20518 0.13297,1.753 0.1231,2.5547 0.0902,0.31364 0.2721,0.68843 0.54085,1.12111 -0.0603,0.83694 0.20652,0.35005 0.22256,0.94187"
         style="fill:#ffffff;fill-rule:evenodd;stroke:#000000;stroke-width:0.70866144;stroke-linecap:butt;stroke-linejoin:round;stroke-miterlimit:4;stroke-dasharray:none;stroke-opacity:1;fill-opacity:1" />
      <path
         inkscape:connector-curvature="0"
         id="path4329"
         d="m 103.03556,161.59706 2.39911,3.34613 0,0 0,0"
         style="fill:#ffffff;fill-rule:evenodd;stroke:#000000;stroke-width:0.70866144;stroke-linecap:round;stroke-linejoin:miter;stroke-miterlimit:4;stroke-dasharray:none;stroke-opacity:1;fill-opacity:1" />
      <path
         sodipodi:nodetypes="ccccc"
         inkscape:connector-curvature="0"
         id="path4184-35"
         d="m 108.02068,165.81691 c 0.19309,0.42473 0.97769,2.38963 1.29912,3.03757 0.59846,1.02661 1.04816,1.753 1.03828,2.5547 0.05,0.55849 0.13887,1.10405 0.54086,1.54521 0.6369,0.55807 0.78345,0.73089 0.86988,1.34367"
         style="fill:#ffffff;fill-rule:evenodd;stroke:#000000;stroke-width:0.70866144;stroke-linecap:butt;stroke-linejoin:round;stroke-miterlimit:4;stroke-dasharray:none;stroke-opacity:1;fill-opacity:1" />
      <path
         inkscape:connector-curvature="0"
         id="path4331"
         d="m 104.67706,160.71318 2.90419,3.91434"
         style="fill:#ffffff;fill-rule:evenodd;stroke:#000000;stroke-width:0.70866144;stroke-linecap:round;stroke-linejoin:miter;stroke-miterlimit:4;stroke-dasharray:none;stroke-opacity:1;fill-opacity:1" />
      <path
         sodipodi:nodetypes="csssc"
         inkscape:connector-curvature="0"
         id="path4184-4"
         d="m 109.17587,164.92068 c 0.36969,1.18366 1.32527,2.24228 1.37364,2.62615 0.19005,1.50832 1.46494,2.58699 1.95717,3.21986 l 0.88389,1.13642 c 0.51516,0.66235 0.1727,1.66253 0.36731,2.23203"
         style="fill:#ffffff;fill-rule:evenodd;stroke:#000000;stroke-width:0.70866144;stroke-linecap:butt;stroke-linejoin:round;stroke-miterlimit:4;stroke-dasharray:none;stroke-opacity:1;fill-opacity:1" />
      <path
         inkscape:connector-curvature="0"
         id="path4333"
         d="m 106.06602,159.76616 c -0.0631,0.25254 2.77792,3.72494 2.77792,3.72494"
         style="fill:#ffffff;fill-rule:evenodd;stroke:#000000;stroke-width:0.70866144;stroke-linecap:round;stroke-linejoin:miter;stroke-miterlimit:4;stroke-dasharray:none;stroke-opacity:1;fill-opacity:1" />
      <path
         sodipodi:nodetypes="csssc"
         inkscape:connector-curvature="0"
         id="path4184-4-5"
         d="m 110.91067,163.9933 c 0.36969,1.18366 1.32527,2.24228 1.37364,2.62615 0.19005,1.50832 0.9483,2.02159 1.51523,2.58851 l 1.4521,1.4521 c 0.59334,0.59333 0.93031,1.28372 1.12492,1.85322"
         style="fill:#ffffff;fill-rule:evenodd;stroke:#000000;stroke-width:0.70866144;stroke-linecap:butt;stroke-linejoin:round;stroke-miterlimit:4;stroke-dasharray:none;stroke-opacity:1;fill-opacity:1" />
      <path
         inkscape:connector-curvature="0"
         id="path4335"
         d="m 107.58125,158.44033 0.82075,1.57837 1.64149,1.57836"
         style="fill:#ffffff;fill-rule:evenodd;stroke:#000000;stroke-width:0.70866144;stroke-linecap:round;stroke-linejoin:miter;stroke-miterlimit:4;stroke-dasharray:none;stroke-opacity:1;fill-opacity:1" />
      <path
         sodipodi:nodetypes="csssc"
         inkscape:connector-curvature="0"
         id="path4184-4-8"
         d="m 111.73142,163.10941 c 0.5043,0.51062 1.97229,2.22707 2.51006,3.19437 0.73871,1.3287 1.34124,1.57016 1.95717,2.08343 l 1.13643,0.94702 c 0.64462,0.53718 -0.14297,1.40999 0.0516,1.97949"
         style="fill:#ffffff;fill-rule:evenodd;stroke:#000000;stroke-width:0.70866144;stroke-linecap:butt;stroke-linejoin:round;stroke-miterlimit:4;stroke-dasharray:none;stroke-opacity:1;fill-opacity:1" />
      <path
         inkscape:connector-curvature="0"
         id="path4337"
         d="m 109.28588,157.43018 0.37881,1.8309 1.89403,1.4521"
         style="fill:#ffffff;fill-rule:evenodd;stroke:#000000;stroke-width:0.70866144;stroke-linecap:round;stroke-linejoin:miter;stroke-miterlimit:4;stroke-dasharray:none;stroke-opacity:1;fill-opacity:1" />
      <path
         sodipodi:nodetypes="csssc"
         inkscape:connector-curvature="0"
         id="path4184-4-54"
         d="m 112.74158,162.22553 c 1.00104,0.74172 1.51467,1.23213 2.19439,2.18421 0.88333,1.23728 0.34909,1.67949 1.13642,1.8309 l 1.6415,0.31567 c 0.82401,0.15846 0.93032,2.23074 1.12493,2.80024"
         style="fill:#ffffff;fill-rule:evenodd;stroke:#000000;stroke-width:0.70866144;stroke-linecap:butt;stroke-linejoin:round;stroke-miterlimit:4;stroke-dasharray:none;stroke-opacity:1;fill-opacity:1" />
      <path
         inkscape:connector-curvature="0"
         id="path4339"
         d="m 110.54857,156.60943 1.38896,1.89404 1.32582,1.19956"
         style="fill:#ffffff;fill-rule:evenodd;stroke:#000000;stroke-width:0.70866144;stroke-linecap:round;stroke-linejoin:miter;stroke-miterlimit:4;stroke-dasharray:none;stroke-opacity:1;fill-opacity:1" />
      <path
         sodipodi:nodetypes="csssc"
         inkscape:connector-curvature="0"
         id="path4184-4-6"
         d="m 114.13054,161.21538 c 0.36969,1.18366 1.07273,0.60078 1.49991,1.48973 0.65846,1.37024 0.15332,1.40184 0.94702,1.51522 l 1.76777,0.25254 c 0.83067,0.11867 1.56166,2.10448 1.75627,2.67398"
         style="fill:#ffffff;fill-rule:evenodd;stroke:#000000;stroke-width:0.70866144;stroke-linecap:butt;stroke-linejoin:round;stroke-miterlimit:4;stroke-dasharray:none;stroke-opacity:1;fill-opacity:1" />
      <path
         inkscape:connector-curvature="0"
         id="path4341"
         d="m 113.32649,155.22047 -0.56821,1.95717 1.26269,1.38896"
         style="fill:#ffffff;fill-rule:evenodd;stroke:#000000;stroke-width:0.70866144;stroke-linecap:round;stroke-linejoin:miter;stroke-miterlimit:4;stroke-dasharray:none;stroke-opacity:1;fill-opacity:1" />
      <path
         sodipodi:nodetypes="csssc"
         inkscape:connector-curvature="0"
         id="path4184-4-88"
         d="m 115.26695,159.76328 c 0.36969,1.18366 1.69298,1.30443 1.87872,1.99481 0.27702,1.02962 1.65691,0.56002 2.27284,1.07329 l 0.75762,0.63134 c 0.64463,0.53718 0.36211,1.9782 0.55672,2.5477"
         style="fill:#ffffff;fill-rule:evenodd;stroke:#000000;stroke-width:0.70866144;stroke-linecap:butt;stroke-linejoin:round;stroke-miterlimit:4;stroke-dasharray:none;stroke-opacity:1;fill-opacity:1" />
      <path
         inkscape:connector-curvature="0"
         id="path4343"
         d="m 115.22052,154.7154 -0.56821,1.51523"
         style="fill:#ffffff;fill-rule:evenodd;stroke:#000000;stroke-width:0.70866144;stroke-linecap:round;stroke-linejoin:miter;stroke-miterlimit:4;stroke-dasharray:none;stroke-opacity:1;fill-opacity:1" />
      <path
         sodipodi:nodetypes="csssc"
         inkscape:connector-curvature="0"
         id="path4184-4-0"
         d="m 115.64576,159.0688 c 0.81164,0.48918 1.51468,0.15884 1.94186,0.92152 0.7429,1.32636 1.30189,0.97031 1.76776,0.94701 l 1.2627,-0.0631 c 0.83806,-0.0419 1.24599,1.40999 1.4406,1.97949"
         style="fill:#ffffff;fill-rule:evenodd;stroke:#000000;stroke-width:0.70866144;stroke-linecap:butt;stroke-linejoin:round;stroke-miterlimit:4;stroke-dasharray:none;stroke-opacity:1;fill-opacity:1" />
      <path
         inkscape:connector-curvature="0"
         id="path4345"
         d="m 111.49559,155.34674 0.56821,1.6415"
         style="fill:#ffffff;fill-rule:evenodd;stroke:#000000;stroke-width:0.70866144;stroke-linecap:round;stroke-linejoin:miter;stroke-miterlimit:4;stroke-dasharray:none;stroke-opacity:1;fill-opacity:1" />
      <path
         sodipodi:nodetypes="csssc"
         inkscape:connector-curvature="0"
         id="path4184-4-0-3"
         d="m 115.6628,157.21053 c 0.81164,0.48918 1.51468,0.15884 1.94186,0.92152 0.7429,1.32636 1.36913,0.69729 1.83089,0.63134 l 1.32584,-0.18937 c 0.83068,-0.11865 1.68793,1.72566 1.88254,2.29516"
         style="fill:#ffffff;fill-rule:evenodd;stroke:#000000;stroke-width:0.70866144;stroke-linecap:butt;stroke-linejoin:round;stroke-miterlimit:4;stroke-dasharray:none;stroke-opacity:1;fill-opacity:1" />
      <path
         sodipodi:nodetypes="csssc"
         inkscape:connector-curvature="0"
         id="path4184-4-0-4"
         d="m 114.77893,156.38979 c 0.81164,0.48918 1.57959,-0.93981 2.06813,-0.2149 0.5535,0.82128 1.87546,1.27381 2.33597,1.19954 l 1.95718,-0.31563 c 0.8284,-0.13359 1.75106,1.09431 1.94567,1.66381"
         style="fill:#ffffff;fill-rule:evenodd;stroke:#000000;stroke-width:0.70866144;stroke-linecap:butt;stroke-linejoin:round;stroke-miterlimit:4;stroke-dasharray:none;stroke-opacity:1;fill-opacity:1" />
      <path
         inkscape:transform-center-y="0.24831244"
         inkscape:transform-center-x="-0.10847483"
         sodipodi:nodetypes="csssc"
         inkscape:connector-curvature="0"
         id="path4184-4-0-1"
         d="m 98.857792,166.41228 c -0.802357,-0.33456 -2.182959,-0.57897 -1.675457,1.80284 0.316809,1.48685 -0.826097,1.96817 -1.071901,2.3646 l -0.729501,1.17653 c -0.442182,0.71314 -0.321717,1.28573 -0.188838,1.87271"
         style="fill:#ffffff;fill-rule:evenodd;stroke:#000000;stroke-width:0.70866144;stroke-linecap:butt;stroke-linejoin:round;stroke-miterlimit:4;stroke-dasharray:none;stroke-opacity:1;fill-opacity:1" />
      <path
         sodipodi:nodetypes="cccccc"
         inkscape:connector-curvature="0"
         id="path4182"
         d="m 101.42857,164.68363 -1.785713,1.07143 c -0.698494,0.81722 -0.741801,1.45972 1.071433,1.60714 1.73952,0.02 6.24189,0.20676 14.54722,-7.66774 1.18661,-1.66032 0.21506,-2.91664 -1.51151,-3.04654 -1.29546,0.23809 -1.85161,0.47619 -2.5,0.71428"
         style="fill:#ffffff;fill-rule:evenodd;stroke:#000000;stroke-width:1.0629921;stroke-linecap:round;stroke-linejoin:miter;stroke-miterlimit:4;stroke-dasharray:none;stroke-opacity:1;fill-opacity:1" />
    </g>
    <path
       style="fill:#ffffff;fill-opacity:1;fill-rule:evenodd;stroke:#000000;stroke-width:0.99921262;stroke-linecap:butt;stroke-linejoin:miter;stroke-miterlimit:4;stroke-dasharray:none;stroke-opacity:1"
       d="m 80.054589,223.97398 -1.578363,5.49271 c -0.45395,1.7858 -0.76167,3.52285 1.262691,4.48255 l 7.197337,1.57836 c 4.801792,0.0738 3.933165,-1.37903 4.671955,-2.39911 0.637552,-2.69995 0.954651,-5.07944 1.262691,-7.44988 -1.494622,-1.64281 -2.797845,-2.71142 -3.788072,-2.84105 -4.694901,-0.74485 -6.124279,0.68731 -9.028239,1.13642 z"
       id="path4347"
       inkscape:connector-curvature="0"
       sodipodi:nodetypes="cccccccc" />
    <g
       id="g4715"
       style="stroke:#000000;stroke-opacity:1">
      <path
         sodipodi:nodetypes="cccc"
         inkscape:connector-curvature="0"
         id="path4349"
         d="m 80.180858,231.73953 c 0.29692,-0.45521 -0.10307,-1.14272 1.578364,-1.13642 1.964204,0.96093 4.200014,0.0206 6.313453,-0.0631 1.591304,0.30218 1.917647,1.80766 0.315673,2.46225"
         style="fill:none;fill-rule:evenodd;stroke:#000000;stroke-width:1px;stroke-linecap:round;stroke-linejoin:miter;stroke-opacity:1" />
      <path
         sodipodi:nodetypes="ccccc"
         inkscape:connector-curvature="0"
         id="path4351"
         d="m 82.390567,223.65831 c -0.28679,0.5418 -0.662346,0.90606 -0.631345,2.08344 -0.04209,0.75761 0.168164,1.76757 -0.126269,2.27284 -0.455972,0.43844 -1.477815,0.7354 -1.325825,1.32583 l 0.189403,1.19955"
         style="fill:none;fill-rule:evenodd;stroke:#000000;stroke-width:0.70866144;stroke-linecap:round;stroke-linejoin:miter;stroke-miterlimit:4;stroke-dasharray:none;stroke-opacity:1" />
      <path
         sodipodi:nodetypes="ccccc"
         inkscape:connector-curvature="0"
         id="path4351-8"
         d="m 83.626804,223.46865 c -0.28679,0.5418 -0.378241,0.84292 -0.34724,2.0203 -0.04209,0.75761 0.294433,1.70444 0,2.20971 -0.36127,0.84881 -0.941171,1.20891 -0.789181,1.79934 l -10e-7,0.82074"
         style="fill:none;fill-rule:evenodd;stroke:#000000;stroke-width:0.70866144;stroke-linecap:round;stroke-linejoin:miter;stroke-miterlimit:4;stroke-dasharray:none;stroke-opacity:1" />
      <path
         sodipodi:nodetypes="ccccc"
         inkscape:connector-curvature="0"
         id="path4351-86"
         d="m 85.426138,223.27924 c -0.28679,0.5418 -0.220404,1.12703 -0.189403,2.30441 -0.04209,0.75761 0.168164,1.76757 -0.126269,2.27284 -0.455972,0.43844 -0.909604,1.17734 -0.757614,1.76777 l -0.06314,1.10485"
         style="fill:none;fill-rule:evenodd;stroke:#000000;stroke-width:0.70866144;stroke-linecap:round;stroke-linejoin:miter;stroke-miterlimit:4;stroke-dasharray:none;stroke-opacity:1" />
      <path
         sodipodi:nodetypes="ccccc"
         inkscape:connector-curvature="0"
         id="path4351-7"
         d="m 86.941366,223.05827 c -0.28679,0.5418 -0.315106,1.56897 -0.284105,2.74635 -0.04209,0.75761 0.357568,1.73601 0.06313,2.24128 -0.455972,0.43844 -0.593932,0.70383 -0.441942,1.29426 l 0.189403,1.19955"
         style="fill:none;fill-rule:evenodd;stroke:#000000;stroke-width:0.70866144;stroke-linecap:round;stroke-linejoin:miter;stroke-miterlimit:4;stroke-dasharray:none;stroke-opacity:1" />
      <path
         sodipodi:nodetypes="ccccc"
         inkscape:connector-curvature="0"
         id="path4351-6"
         d="m 80.880451,224.00529 c -0.28679,0.5418 -0.662346,0.90606 -0.631345,2.08344 -0.04209,0.75761 -0.336912,1.51503 -0.631345,2.0203 -0.455972,0.43844 -0.84647,1.55615 -0.69448,2.14658 0.09163,0.51867 0.568268,0.65233 1.073287,0.75761"
         style="fill:none;fill-rule:evenodd;stroke:#000000;stroke-width:0.70866144;stroke-linecap:round;stroke-linejoin:miter;stroke-miterlimit:4;stroke-dasharray:none;stroke-opacity:1" />
      <path
         sodipodi:nodetypes="ccccc"
         inkscape:connector-curvature="0"
         id="path4351-2"
         d="m 88.582865,223.15298 c -0.28679,0.5418 -0.125703,1.03233 -0.0947,2.20971 -0.04209,0.75761 0.168164,1.13622 -0.126269,1.64149 -0.455972,0.43844 -0.688633,1.14577 -0.536643,1.7362 l 0.189403,1.8309"
         style="fill:none;fill-rule:evenodd;stroke:#000000;stroke-width:0.70866144;stroke-linecap:round;stroke-linejoin:miter;stroke-miterlimit:4;stroke-dasharray:none;stroke-opacity:1" />
      <path
         sodipodi:nodetypes="ccccc"
         inkscape:connector-curvature="0"
         id="path4351-3"
         d="m 90.098093,223.59491 c -0.03425,0.73121 0.09527,1.50584 -0.22097,2.49382 -0.04209,0.75761 0.294433,0.94682 0,1.45209 -0.455972,0.43844 0.0058,1.33518 -0.189404,1.89404 l -0.662913,1.23112"
         style="fill:none;fill-rule:evenodd;stroke:#000000;stroke-width:0.70866144;stroke-linecap:round;stroke-linejoin:miter;stroke-miterlimit:4;stroke-dasharray:none;stroke-opacity:1" />
      <path
         sodipodi:nodetypes="ccccc"
         inkscape:connector-curvature="0"
         id="path4351-9"
         d="m 92.023697,225.14172 c -0.28679,0.5418 -0.725481,0.84292 -0.69448,2.0203 -0.04209,0.75761 -0.273777,0.97839 -0.315672,1.70463 0.01754,0.75412 -0.120423,1.65085 -0.34724,2.17815 l -1.04172,0.75761"
         style="fill:none;fill-rule:evenodd;stroke:#000000;stroke-width:0.70866144;stroke-linecap:round;stroke-linejoin:miter;stroke-miterlimit:4;stroke-dasharray:none;stroke-opacity:1" />
      <path
         sodipodi:nodetypes="ccccc"
         inkscape:connector-curvature="0"
         id="path4351-91"
         d="m 92.465639,226.49911 c -0.28679,0.5418 -0.409808,1.41114 -0.378807,2.58852 -0.04209,0.75761 -0.242211,1.86227 -0.220971,2.84105 -0.266568,0.69892 -0.657066,1.10484 -1.199556,1.10486 l -1.767768,0.0947"
         style="fill:none;fill-rule:evenodd;stroke:#000000;stroke-width:0.70866144;stroke-linecap:round;stroke-linejoin:miter;stroke-miterlimit:4;stroke-dasharray:none;stroke-opacity:1" />
      <path
         sodipodi:nodetypes="cc"
         inkscape:connector-curvature="0"
         id="path4410"
         d="m 78.286822,231.73953 c 1.749771,0.36812 3.584665,0.8676 3.535534,2.46224"
         style="fill:none;fill-rule:evenodd;stroke:#000000;stroke-width:0.70866144;stroke-linecap:butt;stroke-linejoin:miter;stroke-miterlimit:4;stroke-dasharray:none;stroke-opacity:1" />
      <path
         inkscape:connector-curvature="0"
         id="path4412"
         d="m 80.370262,232.21304 -0.0947,1.67306"
         style="fill:none;fill-rule:evenodd;stroke:#000000;stroke-width:0.70866144;stroke-linecap:butt;stroke-linejoin:miter;stroke-miterlimit:4;stroke-dasharray:none;stroke-opacity:1" />
      <path
         inkscape:connector-curvature="0"
         id="path4412-7"
         d="m 83.069263,233.018 -0.0947,1.67306"
         style="fill:none;fill-rule:evenodd;stroke:#000000;stroke-width:0.70866144;stroke-linecap:butt;stroke-linejoin:miter;stroke-miterlimit:4;stroke-dasharray:none;stroke-opacity:1" />
      <path
         inkscape:connector-curvature="0"
         id="path4412-4"
         d="m 84.331953,232.98644 -0.0947,1.67306"
         style="fill:none;fill-rule:evenodd;stroke:#000000;stroke-width:0.70866144;stroke-linecap:butt;stroke-linejoin:miter;stroke-miterlimit:4;stroke-dasharray:none;stroke-opacity:1" />
      <path
         inkscape:connector-curvature="0"
         id="path4412-6"
         d="m 85.941884,233.42838 -0.0947,1.67306"
         style="fill:none;fill-rule:evenodd;stroke:#000000;stroke-width:0.70866144;stroke-linecap:butt;stroke-linejoin:miter;stroke-miterlimit:4;stroke-dasharray:none;stroke-opacity:1" />
      <path
         inkscape:connector-curvature="0"
         id="path4412-1"
         d="m 87.204575,233.49152 -0.0947,1.67306"
         style="fill:none;fill-rule:evenodd;stroke:#000000;stroke-width:0.70866144;stroke-linecap:butt;stroke-linejoin:miter;stroke-miterlimit:4;stroke-dasharray:none;stroke-opacity:1" />
      <path
         sodipodi:nodetypes="cc"
         inkscape:connector-curvature="0"
         id="path4412-73"
         d="m 88.435698,233.17584 c -0.212252,0.94803 1.002047,1.47046 2.115009,1.67306"
         style="fill:none;fill-rule:evenodd;stroke:#000000;stroke-width:0.70866144;stroke-linecap:butt;stroke-linejoin:miter;stroke-miterlimit:4;stroke-dasharray:none;stroke-opacity:1" />
    </g>
    <path
       style="fill:#ffffff;fill-opacity:1;fill-rule:evenodd;stroke:#000000;stroke-width:1.0629921;stroke-linecap:butt;stroke-linejoin:bevel;stroke-miterlimit:4;stroke-dasharray:none;stroke-opacity:1"
       d="m 162.57143,149.98031 4.54568,-4.48255 c 0.43065,-1.53264 3.23167,-2.21834 4.23002,-1.07329 2.33191,2.13688 4.45406,4.39361 5.61897,7.19734 2.06952,2.96564 -0.20323,3.10881 -1.26269,4.04061 l -4.92449,4.48255 c 0.45571,-5.96157 -6.63569,-9.69835 -8.20749,-10.16466 z"
       id="path4459"
       inkscape:connector-curvature="0"
       sodipodi:nodetypes="ccccccc" />
    <g
       id="g4734"
       style="stroke:#000000;stroke-opacity:1">
      <path
         sodipodi:nodetypes="cccc"
         inkscape:connector-curvature="0"
         id="path4461"
         d="m 170.71578,144.17193 -1.8309,1.89404 -0.94702,2.58851 c -2.03505,1.88522 -2.40004,1.43234 -3.59867,2.14658"
         style="fill:none;fill-rule:evenodd;stroke:#000000;stroke-width:0.99921262;stroke-linecap:butt;stroke-linejoin:miter;stroke-miterlimit:4;stroke-dasharray:none;stroke-opacity:1" />
      <path
         sodipodi:nodetypes="cccc"
         inkscape:connector-curvature="0"
         id="path4461-2"
         d="m 172.21084,145.61461 c -0.58925,0.0499 -1.17851,0.47642 -1.76776,1.19956 l -1.57837,2.52538 c -2.03505,1.88522 -1.32675,2.12682 -2.52538,2.84106"
         style="fill:none;fill-rule:evenodd;stroke:#000000;stroke-width:0.99921262;stroke-linecap:butt;stroke-linejoin:miter;stroke-miterlimit:4;stroke-dasharray:none;stroke-opacity:1" />
      <path
         sodipodi:nodetypes="cccc"
         inkscape:connector-curvature="0"
         id="path4461-1"
         d="m 173.85234,147.00357 c -0.72789,0.28161 -1.17971,0.14912 -2.20971,0.88389 l -1.51523,2.46224 c -2.03505,1.88522 -1.83183,1.55861 -3.03046,2.27285"
         style="fill:none;fill-rule:evenodd;stroke:#000000;stroke-width:0.99921262;stroke-linecap:butt;stroke-linejoin:miter;stroke-miterlimit:4;stroke-dasharray:none;stroke-opacity:1" />
      <path
         sodipodi:nodetypes="cccc"
         inkscape:connector-curvature="0"
         id="path4461-3"
         d="m 174.8625,148.26627 -1.57836,1.38896 -2.08344,1.8309 c -2.03505,1.88522 -1.83183,1.49547 -3.03046,2.20971"
         style="fill:none;fill-rule:evenodd;stroke:#000000;stroke-width:0.99921262;stroke-linecap:butt;stroke-linejoin:miter;stroke-miterlimit:4;stroke-dasharray:none;stroke-opacity:1" />
      <path
         sodipodi:nodetypes="cccc"
         inkscape:connector-curvature="0"
         id="path4461-8"
         d="m 175.93578,149.46581 -1.45209,1.57837 -2.84106,1.8309 c -2.03505,1.88522 -0.88481,1.74801 -2.08344,2.46225"
         style="fill:none;fill-rule:evenodd;stroke:#000000;stroke-width:0.99921262;stroke-linecap:butt;stroke-linejoin:miter;stroke-miterlimit:4;stroke-dasharray:none;stroke-opacity:1" />
      <path
         sodipodi:nodetypes="cccc"
         inkscape:connector-curvature="0"
         id="path4461-0"
         d="m 176.81967,151.54926 -1.26269,0.88389 -1.95717,1.38895 c -2.68088,1.73584 -2.25881,2.38589 -3.40927,2.71479"
         style="fill:none;fill-rule:evenodd;stroke:#000000;stroke-width:0.99921262;stroke-linecap:butt;stroke-linejoin:miter;stroke-miterlimit:4;stroke-dasharray:none;stroke-opacity:1" />
      <path
         sodipodi:nodetypes="cccc"
         inkscape:connector-curvature="0"
         id="path4461-4"
         d="m 177.45101,152.93822 c -0.25909,0.85629 -1.01626,1.2145 -1.76776,1.57837 l -2.20972,1.32582 c -2.03505,1.88522 -1.76869,1.74801 -2.96732,2.46225"
         style="fill:none;fill-rule:evenodd;stroke:#000000;stroke-width:0.99921262;stroke-linecap:butt;stroke-linejoin:miter;stroke-miterlimit:4;stroke-dasharray:none;stroke-opacity:1" />
    </g>
    <g
       id="g4686"
       style="stroke:#ffffff;stroke-opacity:1;fill:#000000">
      <path
         sodipodi:nodetypes="ccccccccccccccc"
         inkscape:connector-curvature="0"
         id="path4514"
         d="m 121.47085,229.65609 2.46224,5.42957 c 1.0771,2.33797 2.66154,2.13918 4.23001,2.0203 5.09589,-1.58761 10.41501,-4.62617 15.84677,-8.39689 4.01131,-2.60444 7.87092,-5.26957 11.04855,-8.20749 3.48117,-2.06619 6.30242,-4.90228 8.7757,-8.14435 1.78613,-2.10259 1.53884,-4.0425 -0.88389,-5.80838 -1.13098,-0.98022 -1.59316,-1.18627 -3.03045,-3.85121 -0.67705,-0.92897 -2.1473,-0.29101 -3.15673,0.44194 -3.03046,2.59469 -6.06092,5.83193 -9.09138,10.60661 -2.32465,0.66212 -4.91267,1.58759 -7.38673,2.39911 l -5.42957,5.17703 -1.76777,0.31567 c -3.7945,1.8871 -8.84499,3.03217 -9.84899,3.59867 -1.10938,1.31019 -2.2519,2.79053 -1.76776,4.41942 z"
         style="fill:#000000;fill-opacity:1;fill-rule:evenodd;stroke:#ffffff;stroke-width:1px;stroke-linecap:butt;stroke-linejoin:miter;stroke-opacity:1" />
      <path
         sodipodi:nodetypes="ccc"
         inkscape:connector-curvature="0"
         id="path4516"
         d="m 121.78652,228.70907 c 1.52996,1.88001 3.38323,3.40078 3.4724,6.88167 1.28181,1.71691 1.61318,1.1561 1.76777,1.26268"
         style="fill:#000000;fill-rule:evenodd;stroke:#ffffff;stroke-width:0.70866144;stroke-linecap:butt;stroke-linejoin:miter;stroke-miterlimit:4;stroke-dasharray:none;stroke-opacity:1" />
      <path
         sodipodi:nodetypes="ccc"
         inkscape:connector-curvature="0"
         id="path4516-8"
         d="m 122.86509,227.22047 c 1.52996,1.88001 3.38323,3.40078 3.4724,6.88167 1.01559,2.64869 1.95629,2.35434 2.14658,2.33597"
         style="fill:#000000;fill-rule:evenodd;stroke:#ffffff;stroke-width:0.70866144;stroke-linecap:butt;stroke-linejoin:miter;stroke-miterlimit:4;stroke-dasharray:none;stroke-opacity:1" />
      <path
         sodipodi:nodetypes="csc"
         inkscape:connector-curvature="0"
         id="path4516-2"
         d="m 123.68583,225.83152 c 1.52996,1.88001 3.08942,3.95673 3.97748,7.32361 0.54645,2.07177 2.37079,3.1764 2.52538,3.28298"
         style="fill:#000000;fill-rule:evenodd;stroke:#ffffff;stroke-width:0.70866144;stroke-linecap:butt;stroke-linejoin:miter;stroke-miterlimit:4;stroke-dasharray:none;stroke-opacity:1" />
      <path
         sodipodi:nodetypes="csc"
         inkscape:connector-curvature="0"
         id="path4516-2-9"
         d="m 125.42203,224.79227 c 1.52996,1.88001 3.08942,3.95673 3.97748,7.32361 0.54645,2.07177 2.24452,3.36581 2.39911,3.47239"
         style="fill:#000000;fill-rule:evenodd;stroke:#ffffff;stroke-width:0.70866144;stroke-linecap:butt;stroke-linejoin:miter;stroke-miterlimit:4;stroke-dasharray:none;stroke-opacity:1" />
      <path
         sodipodi:nodetypes="csc"
         inkscape:connector-curvature="0"
         id="path4516-2-1"
         d="m 127.31607,224.4766 c 1.52996,1.88001 3.08942,3.95673 3.97748,7.32361 0.54645,2.07177 2.81273,2.54506 2.96732,2.65164"
         style="fill:#000000;fill-rule:evenodd;stroke:#ffffff;stroke-width:0.70866144;stroke-linecap:butt;stroke-linejoin:miter;stroke-miterlimit:4;stroke-dasharray:none;stroke-opacity:1" />
      <path
         sodipodi:nodetypes="csc"
         inkscape:connector-curvature="0"
         id="path4516-2-6"
         d="m 129.21011,223.40331 c 1.47302,1.91164 1.30521,5.17231 3.97748,7.32361 2.05559,1.65484 1.95166,3.23954 1.8309,3.34612"
         style="fill:#000000;fill-rule:evenodd;stroke:#ffffff;stroke-width:0.70866144;stroke-linecap:butt;stroke-linejoin:miter;stroke-miterlimit:4;stroke-dasharray:none;stroke-opacity:1" />
      <path
         sodipodi:nodetypes="csc"
         inkscape:connector-curvature="0"
         id="path4516-2-0"
         d="m 130.40967,223.27704 c 1.52996,1.88001 2.58434,5.03002 3.72494,5.87152 1.72417,1.27203 2.68647,3.55521 2.84106,3.66179"
         style="fill:#000000;fill-rule:evenodd;stroke:#ffffff;stroke-width:0.70866144;stroke-linecap:butt;stroke-linejoin:miter;stroke-miterlimit:4;stroke-dasharray:none;stroke-opacity:1" />
      <path
         sodipodi:nodetypes="csc"
         inkscape:connector-curvature="0"
         id="path4516-2-97"
         d="m 131.98802,222.45629 c 1.52996,1.88001 3.02629,5.97704 4.48256,7.26048 1.60744,1.41667 1.4869,2.48192 1.57836,3.03044"
         style="fill:#000000;fill-rule:evenodd;stroke:#ffffff;stroke-width:0.70866144;stroke-linecap:butt;stroke-linejoin:miter;stroke-miterlimit:4;stroke-dasharray:none;stroke-opacity:1" />
      <path
         sodipodi:nodetypes="csc"
         inkscape:connector-curvature="0"
         id="path4516-2-66"
         d="m 133.31386,222.01435 c 1.52996,1.88001 1.29993,3.57165 3.91435,5.87152 1.49038,1.31107 2.09329,1.88875 2.27283,3.47238"
         style="fill:#000000;fill-rule:evenodd;stroke:#ffffff;stroke-width:0.70866144;stroke-linecap:butt;stroke-linejoin:miter;stroke-miterlimit:4;stroke-dasharray:none;stroke-opacity:1" />
      <path
         sodipodi:nodetypes="csc"
         inkscape:connector-curvature="0"
         id="path4516-2-3"
         d="m 135.01848,221.13046 c 0.70122,1.16966 1.59678,3.70551 3.97748,5.80838 1.60587,1.41846 1.42377,3.74461 1.57836,3.85119"
         style="fill:#000000;fill-rule:evenodd;stroke:#ffffff;stroke-width:0.70866144;stroke-linecap:butt;stroke-linejoin:miter;stroke-miterlimit:4;stroke-dasharray:none;stroke-opacity:1" />
      <path
         sodipodi:nodetypes="csc"
         inkscape:connector-curvature="0"
         id="path4516-2-8"
         d="m 136.34431,219.93091 c 1.52996,1.88001 1.60148,4.39431 4.41942,6.43973 1.11466,0.80908 1.55004,2.92386 1.70463,3.03044"
         style="fill:#000000;fill-rule:evenodd;stroke:#ffffff;stroke-width:0.70866144;stroke-linecap:butt;stroke-linejoin:miter;stroke-miterlimit:4;stroke-dasharray:none;stroke-opacity:1" />
      <path
         sodipodi:nodetypes="csc"
         inkscape:connector-curvature="0"
         id="path4516-2-2"
         d="m 138.04894,218.73135 c 0.64608,2.06941 1.19538,3.43743 4.41942,6.37659 1.5834,1.4435 1.42378,2.92387 1.6415,3.40926"
         style="fill:#000000;fill-rule:evenodd;stroke:#ffffff;stroke-width:0.70866144;stroke-linecap:butt;stroke-linejoin:miter;stroke-miterlimit:4;stroke-dasharray:none;stroke-opacity:1" />
      <path
         sodipodi:nodetypes="csc"
         inkscape:connector-curvature="0"
         id="path4516-2-4"
         d="m 138.93283,217.84747 c 1.52996,1.88001 2.02776,3.402 4.48256,5.87152 1.68287,1.69296 2.43392,3.05013 2.58851,3.15671"
         style="fill:#000000;fill-rule:evenodd;stroke:#ffffff;stroke-width:0.70866144;stroke-linecap:butt;stroke-linejoin:miter;stroke-miterlimit:4;stroke-dasharray:none;stroke-opacity:1" />
      <path
         sodipodi:nodetypes="csc"
         inkscape:connector-curvature="0"
         id="path4516-2-93"
         d="m 140.70059,216.52165 c 1.52996,1.88001 2.07906,4.12492 4.73509,6.37659 1.1778,0.99848 2.62333,2.67133 2.77792,2.77791"
         style="fill:#000000;fill-rule:evenodd;stroke:#ffffff;stroke-width:0.70866144;stroke-linecap:butt;stroke-linejoin:miter;stroke-miterlimit:4;stroke-dasharray:none;stroke-opacity:1" />
      <path
         sodipodi:nodetypes="csc"
         inkscape:connector-curvature="0"
         id="path4516-2-31"
         d="m 142.15269,215.63776 c 1.52996,1.88001 1.55802,3.54673 4.35629,5.61898 1.17779,0.87221 2.56019,3.55521 2.71478,3.66179"
         style="fill:#000000;fill-rule:evenodd;stroke:#ffffff;stroke-width:0.70866144;stroke-linecap:butt;stroke-linejoin:miter;stroke-miterlimit:4;stroke-dasharray:none;stroke-opacity:1" />
      <path
         sodipodi:nodetypes="csc"
         inkscape:connector-curvature="0"
         id="path4516-2-29"
         d="m 143.92045,214.69074 c 1.52996,1.88001 1.35468,4.16014 4.23002,6.12405 1.60864,1.09874 2.52895,2.84479 2.52538,3.03045"
         style="fill:#000000;fill-rule:evenodd;stroke:#ffffff;stroke-width:0.70866144;stroke-linecap:butt;stroke-linejoin:miter;stroke-miterlimit:4;stroke-dasharray:none;stroke-opacity:1" />
      <path
         sodipodi:nodetypes="csc"
         inkscape:connector-curvature="0"
         id="path4516-2-94"
         d="m 145.62509,214.31194 c 1.52996,1.88001 2.13854,3.103 4.54569,5.61898 1.61974,1.69296 1.55004,2.987 1.70463,3.09358"
         style="fill:#000000;fill-rule:evenodd;stroke:#ffffff;stroke-width:0.70866144;stroke-linecap:butt;stroke-linejoin:miter;stroke-miterlimit:4;stroke-dasharray:none;stroke-opacity:1" />
      <path
         sodipodi:nodetypes="csc"
         inkscape:connector-curvature="0"
         id="path4516-2-83"
         d="m 147.51912,213.55433 c 1.52996,1.88001 0.88388,2.82505 3.66181,4.9245 1.31954,0.99726 2.00368,2.7181 2.27284,3.28298"
         style="fill:#000000;fill-rule:evenodd;stroke:#ffffff;stroke-width:0.70866144;stroke-linecap:butt;stroke-linejoin:miter;stroke-miterlimit:4;stroke-dasharray:none;stroke-opacity:1" />
      <path
         sodipodi:nodetypes="csc"
         inkscape:connector-curvature="0"
         id="path4516-2-22"
         d="m 148.71868,212.10223 c 1.52996,1.88001 0.89718,2.82853 3.85121,4.67196 1.37345,0.85709 3.2871,2.93615 2.84106,3.28298"
         style="fill:#000000;fill-rule:evenodd;stroke:#ffffff;stroke-width:0.70866144;stroke-linecap:butt;stroke-linejoin:miter;stroke-miterlimit:4;stroke-dasharray:none;stroke-opacity:1" />
      <path
         sodipodi:nodetypes="csc"
         inkscape:connector-curvature="0"
         id="path4516-2-65"
         d="m 149.91823,210.71327 c 1.52996,1.88001 0.94539,3.06911 3.85121,4.98763 1.33951,0.88439 3.18767,2.375 3.21986,3.09358"
         style="fill:#000000;fill-rule:evenodd;stroke:#ffffff;stroke-width:0.70866144;stroke-linecap:butt;stroke-linejoin:miter;stroke-miterlimit:4;stroke-dasharray:none;stroke-opacity:1" />
      <path
         sodipodi:nodetypes="csc"
         inkscape:connector-curvature="0"
         id="path4516-2-16"
         d="m 151.24405,209.19804 c 1.52996,1.88001 0.50747,3.06915 3.59867,4.67196 2.08543,1.08131 3.96749,3.45134 3.78808,3.72492"
         style="fill:#000000;fill-rule:evenodd;stroke:#ffffff;stroke-width:0.70866144;stroke-linecap:butt;stroke-linejoin:miter;stroke-miterlimit:4;stroke-dasharray:none;stroke-opacity:1" />
      <path
         sodipodi:nodetypes="csc"
         inkscape:connector-curvature="0"
         id="path4516-2-11"
         d="m 152.50675,207.55654 c 0.74121,3.11947 2.20786,4.63906 5.05077,5.80838 1.72498,0.70951 2.78243,3.00215 2.84105,3.15671"
         style="fill:#000000;fill-rule:evenodd;stroke:#ffffff;stroke-width:0.70866144;stroke-linecap:butt;stroke-linejoin:miter;stroke-miterlimit:4;stroke-dasharray:none;stroke-opacity:1" />
      <path
         sodipodi:nodetypes="csc"
         inkscape:connector-curvature="0"
         id="path4516-2-90"
         d="m 153.70631,206.54639 c 1.52996,1.88001 2.26465,4.95155 5.68211,5.61898 1.5566,0.304 1.55004,2.98699 1.70463,3.09357"
         style="fill:#000000;fill-rule:evenodd;stroke:#ffffff;stroke-width:0.70866144;stroke-linecap:butt;stroke-linejoin:miter;stroke-miterlimit:4;stroke-dasharray:none;stroke-opacity:1" />
      <path
         sodipodi:nodetypes="csc"
         inkscape:connector-curvature="0"
         id="path4516-2-35"
         d="m 154.77959,205.34683 c 1.52996,1.88001 2.60239,4.59453 4.10375,4.98763 2.79656,0.73223 4.18814,2.92838 3.97748,3.15672"
         style="fill:#000000;fill-rule:evenodd;stroke:#ffffff;stroke-width:0.70866144;stroke-linecap:butt;stroke-linejoin:miter;stroke-miterlimit:4;stroke-dasharray:none;stroke-opacity:1" />
      <path
         sodipodi:nodetypes="csc"
         inkscape:connector-curvature="0"
         id="path4516-2-02"
         d="m 155.66348,204.39981 c 1.52996,1.88001 3.46669,4.60061 4.9245,4.54569 2.98344,-0.11239 3.37301,2.51365 3.4724,2.84104"
         style="fill:#000000;fill-rule:evenodd;stroke:#ffffff;stroke-width:0.70866144;stroke-linecap:butt;stroke-linejoin:miter;stroke-miterlimit:4;stroke-dasharray:none;stroke-opacity:1" />
      <path
         sodipodi:nodetypes="csc"
         inkscape:connector-curvature="0"
         id="path4516-2-49"
         d="m 157.68378,202.82145 c 1.52996,1.88001 2.31469,4.32802 4.23002,4.67196 1.79839,0.32294 2.88568,2.66151 2.96732,2.84104"
         style="fill:#000000;fill-rule:evenodd;stroke:#ffffff;stroke-width:0.70866144;stroke-linecap:butt;stroke-linejoin:miter;stroke-miterlimit:4;stroke-dasharray:none;stroke-opacity:1" />
    </g>
  </g>
</svg>
