<?xml version="1.0" encoding="utf-8"?>
<!-- Generator: Adobe Illustrator 17.1.0, SVG Export Plug-In . SVG Version: 6.00 Build 0)  -->
<!DOCTYPE svg PUBLIC "-//W3C//DTD SVG 1.1//EN" "http://www.w3.org/Graphics/SVG/1.1/DTD/svg11.dtd">
<svg version="1.1" id="Layer_1" xmlns="http://www.w3.org/2000/svg" xmlns:xlink="http://www.w3.org/1999/xlink" x="0px" y="0px"
	 viewBox="0 0 1000 2000" enable-background="new 0 0 1000 2000" xml:space="preserve">
<g>
	<path fill="#666666" d="M11,15.5c0-0.4,0.1-0.7,0.4-0.9l6.8-6.8c0.3-0.3,0.6-0.4,1-0.4c0.4,0,0.7,0.1,0.9,0.4L21,8.5
		c0.3,0.2,0.4,0.6,0.4,0.9s-0.1,0.7-0.4,0.9l-3.1,3.1h10c0.8,0,1.2,0.6,1.2,1.3v1.3c0,0.7-0.5,1.3-1.2,1.3h-10l3.1,3.1
		c0.3,0.3,0.4,0.6,0.4,1c0,0.4-0.1,0.7-0.4,1l-0.8,0.8c-0.3,0.2-0.6,0.4-0.9,0.4c-0.4,0-0.7-0.1-1-0.4l-6.8-6.8
		C11.2,16.2,11,15.9,11,15.5z"/>
</g>
<g>
	<g>
		<path fill="#CCCCCC" d="M41,27.5c0,2.5-2,4.5-4.5,4.5h-32C2,32,0,30,0,27.5v-23C0,2,2,0,4.5,0h32C39,0,41,2,41,4.5V27.5z M40,4.5
			C40,2.6,38.4,1,36.5,1h-32C2.6,1,1,2.6,1,4.5v23C1,29.4,2.6,31,4.5,31h32c1.9,0,3.5-1.6,3.5-3.5V4.5z"/>
	</g>
</g>
</svg>
