<svg width="149" height="150" viewBox="0 0 149 150" fill="none" xmlns="http://www.w3.org/2000/svg">
<path fill-rule="evenodd" clip-rule="evenodd" d="M74.3055 0C115.543 0 149 33.5916 149 74.6047C149 116.008 115.543 149.6 74.3055 149.6C33.4569 149.6 0 116.008 0 74.6047C0 33.5916 33.4569 0 74.3055 0ZM74.3055 139.054C109.708 139.054 138.496 110.149 138.496 74.6047C138.496 39.4507 109.708 10.5462 74.3055 10.5462C39.2924 10.5462 10.5039 39.4507 10.5039 74.6047C10.5039 110.149 39.2924 139.054 74.3055 139.054Z" fill="#1FC6A6"/>
<path fill-rule="evenodd" clip-rule="evenodd" d="M65.3575 89.8376L106.595 43.3562C110.874 38.2784 119.044 45.3092 114.376 50.387L70.0259 100.384C68.0807 102.727 64.9684 102.727 63.0233 101.165L35.0128 78.9008C29.9554 74.6042 36.569 66.4016 41.6264 70.6982L65.3575 89.8376Z" fill="#1FC6A6"/>
</svg>
