<?xml version="1.0" encoding="utf-8"?>
<!-- Generator: Adobe Illustrator 17.0.2, SVG Export Plug-In . SVG Version: 6.00 Build 0)  -->
<!DOCTYPE svg PUBLIC "-//W3C//DTD SVG 1.1//EN" "http://www.w3.org/Graphics/SVG/1.1/DTD/svg11.dtd">
<svg version="1.1" id="Layer_1" xmlns="http://www.w3.org/2000/svg" xmlns:xlink="http://www.w3.org/1999/xlink" xml:space="preserve">
<g>
	<path fill="#666666" d="M18.223,11.845c0,0.835-0.683,1.519-1.519,1.519h-5.163c0,0.807,0.607,1.49,0.607,1.822
		s-0.275,0.607-0.607,0.607H6.682c-0.332,0-0.607-0.275-0.607-0.607c0-0.351,0.607-0.997,0.607-1.822H1.519
		C0.683,13.363,0,12.68,0,11.845V1.519C0,0.684,0.683,0,1.519,0h15.186c0.835,0,1.519,0.684,1.519,1.519V11.845z M17.008,1.519
		c0-0.161-0.143-0.304-0.304-0.304H1.519c-0.161,0-0.304,0.143-0.304,0.304v7.896c0,0.161,0.143,0.304,0.304,0.304h15.186
		c0.161,0,0.304-0.143,0.304-0.304V1.519z"/>
</g>
</svg>
