<?xml version="1.0" encoding="utf-8"?>
<!-- Generator: Adobe Illustrator 19.2.0, SVG Export Plug-In . SVG Version: 6.00 Build 0)  -->
<svg version="1.1" id="Layer_1" xmlns="http://www.w3.org/2000/svg" xmlns:xlink="http://www.w3.org/1999/xlink" x="0px" y="0px"
	 viewBox="0 0 576 576" style="enable-background:new 0 0 576 576;" xml:space="preserve">
<style type="text/css">
	.st0{fill:#6D6E71;}
	.st1{fill:#1398BB;}
</style>
<path class="st0" d="M498.5,272.1c0-1.8,0.2-3.6,0.4-5.4c-15.5,3.9-31,8-46.4,12.5c-3.9,1.1-7.8,3.5-10.6,6.4
	c-10.1,10.2-19.7,21-29.6,31.6c-2.5-1.6-4.8-3-7-4.5c-35.4-23-70.9-45.8-106.2-69c-8.9-5.8-17.2-6.3-26.5-1.3
	c-15.8,8.5-31.7,16.8-47.8,24.9c-2.3,1.1-5.7,0.1-8.5,0.1c0.3-2.8-0.3-6.3,1.1-8.3c7.6-10.6,15.5-21,23.8-31c3-3.7,7.3-7.6,11.6-8.7
	c20.4-5.2,41.1-10.8,62.4-8.9c16.2,1.4,32.3,5,48.4,8c8.1,1.5,15.1,0.7,22.1-4.6c17.5-13.3,35.6-25.9,53.4-38.8
	c1.6-1.2,3.9-2.2,4.5-3.9c1-2.7,2.1-6.8,0.8-8.4c-1.6-2-5.6-2.7-8.6-2.7c-1.9,0-3.8,2.2-5.6,3.5c-16.6,12-33.3,23.7-49.6,36.1
	c-5.7,4.4-10.9,5.4-17.8,3.7c-27.4-7-55.1-11.2-83.2-4.6c-12.4,2.9-25.4,4.7-36.8,9.8c-7.4,3.3-13.6,4.7-21.4,3.7
	c-10.3-1.4-19-4.9-27-11.9c-14.5-12.7-29.9-24.5-44.9-36.7c-1.6-1.3-3.3-3.3-4.9-3.3c-3,0-7,0.4-8.7,2.2c-1.4,1.5-0.6,5.6,0.2,8.3
	c0.5,1.7,2.8,2.8,4.3,4.1c14.6,11.9,29.6,23.4,43.9,35.8c9.8,8.5,20,15.1,33.4,15.3c1.6,0,3.2,0.8,5.5,1.4
	c-6.1,7.9-11.7,15.1-17.2,22.5c-7.3,9.7-7.7,18.5-1.1,26.4c6.6,8.1,16.2,9.6,26.7,4.1c15.3-7.9,30.8-15.7,45.9-24.1
	c5.7-3.1,10-3,15.4,0.6c35.1,23,70.4,45.8,105.7,68.6c1.9,1.2,3.8,2.4,5.5,3.9c3.9,3.6,4.9,7.9,2.6,12.8c-2.3,4.9-6.3,7.1-11.5,6.2
	c-2.8-0.5-5.5-1.9-8-3.3c-18-10.6-35.9-21.4-53.8-32.1c-2.1-1.3-4.4-3.3-6.5-3.2c-2.7,0.1-6.3,1.3-7.8,3.3c-1.2,1.6-0.3,5.5,0.9,7.7
	c1,1.9,3.7,3.1,5.8,4.4c16.3,9.9,32.8,19.5,49,29.6c2.6,1.6,5.6,5.9,5.1,8.2c-0.7,3.1-4.3,6.9-7.2,7.6c-3.9,0.9-9,0.1-12.7-1.8
	c-14-7.1-27.7-14.8-41.5-22.3c-1.8-1-3.7-2.7-5.4-2.5c-3.2,0.4-7.3,1-9,3.1c-1.2,1.5,0.5,5.9,1.9,8.6c0.7,1.5,3.2,2.3,5,3.2
	c12.3,6.9,24.8,13.5,37,20.8c2.4,1.4,5.4,5.6,4.9,7.6c-0.8,3.1-4,7-7,7.8c-3.6,1-8.5,0.2-12.1-1.5c-10.4-4.7-20.5-10.2-30.7-15.4
	c-7.4-3.7-12-3.4-13.9,1.4c-2.9,6.9,2.4,9.1,7,11.5c7.4,3.8,14.8,7.5,22.2,11.3c1.4,0.7,2.6,1.8,4.5,3.1c-16.9,8.5-32.4,0.9-48.5,0
	c8.7-19.4,6.1-27.4-9-35.7c-2.5-8.3-3-15.8-6.7-20.9c-3.9-5.3-11-8.1-17.7-12.8c-0.2-9.3-5.8-16.9-16.1-20.6
	c-10.6-3.9-19.5,0.2-27,7.7c-12.5-11.7-19.9-12.4-36.3-3.8c-4.3-5.7-9.3-11-12.9-17.2c-8.6-14.6-20.8-23.1-37.5-26.5
	c-10.7-2.2-21-6.5-31.5-9.7c-0.4-0.1-0.9-0.3-1.3-0.4c0.3,0.8,0.5,1.7,0.6,2.5c0.2,2.3-0.6,5.7-2.3,7.4c-1.2,1.2-2.3,2.5-3.8,3.3
	c0,0,0,0,0,0c0.7,0.3,1.4,0.6,2.2,0.8c1.3,0.4,2.6,0.8,3.8,1.2c13.9,4.4,27.8,8.8,41.7,13.3c2.1,0.7,4.5,1.5,5.8,3
	c9,11.5,17.7,23.1,26.6,34.9c-2.9,4.2-5.7,8-8.1,12c-6,9.9-5.3,20.9,2.9,28.3c4.3,3.8,11.5,4.4,15.4,8.5c4.1,4.2,4.8,11.5,8.6,16.1
	c6.1,7.6,15.2,7.6,23.9,6.2c9.1,13.6,17,16.6,32.2,12.8c10.4,11.1,21.4,14.3,30.7,7.1c5.3-4.1,10.1-4.4,16-3.3
	c7.1,1.3,14.2,2.3,21.3,3.5c15.1,2.4,29,0,41.2-10c1.3-1.1,3.1-2,4.7-2.1c15.2-1.3,24.3-9.3,26.9-24.6c14.2-1.6,24.1-8.3,26.9-22.8
	c1-0.2,1.6-0.5,2.3-0.5c17.2-1.8,26.5-13.8,24.5-31.1c-0.2-2,1-4.7,2.5-6.3c8.1-9,16.2-18.1,24.9-26.6c3.5-3.4,8.1-6.2,12.8-7.6
	c13.9-4.2,28.1-7.6,42.1-11.7C500.9,278.6,498.4,275.6,498.5,272.1z M170.8,362.9c-3,4-7.6,4-11.5,1.3c-3.9-2.7-5.8-6.9-3.1-11.2
	c4.6-7.4,9.8-14.5,15.1-21.5c1.3-1.8,4.1-2.5,5.2-3.2c7.9,0,12.5,6.9,9,12.8C181.2,348.7,176.1,355.9,170.8,362.9z M195.9,384.7
	c-3.5,5.1-9.1,6.4-13.4,3.5c-4.5-3.1-5.3-8.3-1.7-13.6c9.1-13.6,18.5-27.1,27.6-40.6c2.9-4.3,7-6.3,11.5-4.2c2.8,1.3,4.6,4.6,6.9,7
	c-1.6,3.5-2.4,5.9-3.7,7.8C214.1,358,205,371.4,195.9,384.7z M224.8,399.7c-1.4,2-4.3,2.9-5.6,3.7c-8.2,0.3-13.1-7.1-9.3-13.1
	c7.2-11.3,14.8-22.4,22.7-33.3c2.9-4,7.7-4.8,12-1.7c4.1,3,5.6,7.3,2.7,11.8C240,378.1,232.5,389,224.8,399.7z M263.2,394.1
	c-3.5,5.2-6.6,10.8-10.9,15.2c-1.8,1.8-6.7,2.3-9.2,1.2c-1.6-0.7-2.6-6.2-1.6-8.4c2.9-5.7,6.8-11.1,11-16c1.4-1.7,5.3-2.3,7.6-1.7
	c2,0.5,3.5,3.4,5,5.1C264.2,391.6,263.9,393,263.2,394.1z"/>
<path class="st1" d="M288.4,507.4c-58.8,0-114-22.9-155.6-64.4c-41.5-41.5-64.4-96.8-64.4-155.6s22.9-114,64.4-155.6
	c41.5-41.5,96.8-64.4,155.6-64.4s114,22.9,155.6,64.4c41.5,41.5,64.4,96.8,64.4,155.6s-22.9,114-64.4,155.6S347.1,507.4,288.4,507.4
	z M288.4,80.8c-55.2,0-107,21.5-146.1,60.5s-60.5,90.9-60.5,146.1c0,55.2,21.5,107,60.5,146.1c39,39,90.9,60.5,146.1,60.5
	c55.2,0,107-21.5,146.1-60.5c39-39,60.5-90.9,60.5-146.1c0-55.2-21.5-107-60.5-146.1C395.4,102.3,343.5,80.8,288.4,80.8z"/>
<path class="st1" d="M288.4,541.5c-67.9,0-131.7-26.4-179.7-74.4c-48-48-74.4-111.8-74.4-179.7s26.4-131.7,74.4-179.7
	c48-48,111.8-74.4,179.7-74.4s131.7,26.4,179.7,74.4s74.4,111.8,74.4,179.7s-26.4,131.7-74.4,179.7S356.3,541.5,288.4,541.5z
	 M288.4,41.1c-65.8,0-127.6,25.6-174.1,72.1c-46.5,46.5-72.1,108.3-72.1,174.1S67.7,415,114.3,461.5
	c46.5,46.5,108.3,72.1,174.1,72.1S416,508,462.5,461.5c46.5-46.5,72.1-108.3,72.1-174.1S509,159.8,462.5,113.3
	C416,66.8,354.1,41.1,288.4,41.1z"/>
</svg>
