<?xml version="1.0" encoding="utf-8"?>
<!-- Generator: Adobe Illustrator 17.0.2, SVG Export Plug-In . SVG Version: 6.00 Build 0)  -->
<!DOCTYPE svg PUBLIC "-//W3C//DTD SVG 1.1//EN" "http://www.w3.org/Graphics/SVG/1.1/DTD/svg11.dtd">
<svg version="1.1" id="Layer_1" xmlns="http://www.w3.org/2000/svg" xmlns:xlink="http://www.w3.org/1999/xlink" xml:space="preserve">
<g>
	<g>
		<path fill="#666666" d="M17.615,4.556v11.541c0,0.503-0.408,0.911-0.911,0.911H7.593c-0.503,0-0.911-0.408-0.911-0.911v-2.733
			H1.519c-0.503,0-0.911-0.408-0.911-0.911V6.074c0-0.503,0.295-1.206,0.646-1.557l3.872-3.872C5.477,0.294,6.179,0,6.682,0h3.948
			c0.503,0,0.911,0.408,0.911,0.911v3.113c0.37-0.219,0.845-0.38,1.215-0.38h3.948C17.207,3.645,17.615,4.053,17.615,4.556z
			 M10.326,5.163V1.215H6.682v3.948c0,0.503-0.408,0.911-0.911,0.911H1.822v6.074h4.859v-2.43c0-0.503,0.295-1.206,0.646-1.557
			L10.326,5.163z M2.629,4.859h2.838V2.021L2.629,4.859z M16.4,4.859h-3.645v3.948c0,0.503-0.408,0.911-0.911,0.911H7.896v6.074
			H16.4V4.859z M8.703,8.504h2.838V5.666L8.703,8.504z"/>
	</g>
</g>
</svg>
