<?xml version="1.0" encoding="utf-8"?>
<!-- Generator: Adobe Illustrator 17.0.2, SVG Export Plug-In . SVG Version: 6.00 Build 0)  -->
<!DOCTYPE svg PUBLIC "-//W3C//DTD SVG 1.1//EN" "http://www.w3.org/Graphics/SVG/1.1/DTD/svg11.dtd">
<svg version="1.1" id="Layer_1" xmlns="http://www.w3.org/2000/svg" xmlns:xlink="http://www.w3.org/1999/xlink" xml:space="preserve">
<g>
	<path fill="#666666" d="M12.148,13.667c0,0.503-0.408,0.911-0.911,0.911H0.911C0.408,14.578,0,14.17,0,13.667V0.911
		C0,0.408,0.408,0,0.911,0h6.074c0.503,0,1.206,0.294,1.557,0.646l2.961,2.961c0.351,0.351,0.646,1.054,0.646,1.557V13.667z
		 M10.934,13.363V6.074H6.985c-0.503,0-0.911-0.408-0.911-0.911V1.215H1.215v12.148H10.934z M9.719,8.2
		c0,0.171-0.133,0.304-0.304,0.304H2.733C2.562,8.504,2.43,8.371,2.43,8.2V7.593c0-0.171,0.133-0.304,0.304-0.304h6.682
		c0.171,0,0.304,0.133,0.304,0.304V8.2z M9.719,10.63c0,0.171-0.133,0.304-0.304,0.304H2.733c-0.171,0-0.304-0.133-0.304-0.304
		v-0.607c0-0.171,0.133-0.304,0.304-0.304h6.682c0.171,0,0.304,0.133,0.304,0.304V10.63z M10.857,4.859
		c-0.057-0.161-0.142-0.323-0.208-0.389L7.678,1.5C7.612,1.433,7.45,1.348,7.289,1.291v3.568H10.857z"/>
</g>
</svg>
