<?xml version="1.0" encoding="utf-8"?>
<!-- Generator: Adobe Illustrator 17.0.2, SVG Export Plug-In . SVG Version: 6.00 Build 0)  -->
<!DOCTYPE svg PUBLIC "-//W3C//DTD SVG 1.1//EN" "http://www.w3.org/Graphics/SVG/1.1/DTD/svg11.dtd">
<svg version="1.1" id="Layer_1" xmlns="http://www.w3.org/2000/svg" xmlns:xlink="http://www.w3.org/1999/xlink" xml:space="preserve">
<g>
	<path fill="#666666" d="M14.854,10.569c0,1.098-0.901,2-2,2H2c-1.098,0-2-0.901-2-2V2c0-1.098,0.901-2,2-2h2.856
		c1.098,0,2,0.901,2,2v0.286h5.999c1.098,0,2,0.901,2,2V10.569z M13.711,4.285c0-0.473-0.384-0.857-0.857-0.857H6.57
		c-0.473,0-0.857-0.384-0.857-0.857V2c0-0.473-0.384-0.857-0.857-0.857H2C1.526,1.143,1.143,1.526,1.143,2v8.569
		c0,0.473,0.384,0.857,0.857,0.857h10.854c0.473,0,0.857-0.384,0.857-0.857V4.285z"/>
</g>
</svg>
