<?xml version="1.0" encoding="utf-8"?>
<!-- Generator: Adobe Illustrator 17.1.0, SVG Export Plug-In . SVG Version: 6.00 Build 0)  -->
<!DOCTYPE svg PUBLIC "-//W3C//DTD SVG 1.1//EN" "http://www.w3.org/Graphics/SVG/1.1/DTD/svg11.dtd">
<svg version="1.1" id="Layer_1" xmlns="http://www.w3.org/2000/svg" xmlns:xlink="http://www.w3.org/1999/xlink" x="0px" y="0px"
	 viewBox="0.6 -2 48.7 34.1" enable-background="new 0.6 -2 48.7 34.1" xml:space="preserve">
<g>
	<g>
		<path fill="#666666" d="M30.7,14.8l-6.8,6.8c-0.3,0.2-0.6,0.4-1,0.4c-0.4,0-0.7-0.1-0.9-0.4l-0.8-0.8c-0.3-0.3-0.4-0.6-0.4-1
			c0-0.4,0.1-0.7,0.4-1l3.1-3.1h-10c-0.8,0-1.2-0.6-1.2-1.3v-1.3c0-0.7,0.5-1.3,1.2-1.3h10l-3.1-3.1c-0.3-0.2-0.4-0.6-0.4-0.9
			s0.1-0.7,0.4-0.9l0.8-0.8c0.3-0.3,0.6-0.4,0.9-0.4c0.4,0,0.7,0.1,1,0.4l6.8,6.8c0.3,0.2,0.4,0.6,0.4,0.9S30.9,14.6,30.7,14.8z"/>
	</g>
	<g>
		<g>
			<path fill="#CCCCCC" d="M42,25.5c0,2.5-2,4.5-4.5,4.5h-32C3,30,1,28,1,25.5v-23C1,0,3-2,5.5-2h32C40-2,42,0,42,2.5V25.5z M41,2.5
				C41,0.6,39.4-1,37.5-1h-32C3.6-1,2,0.6,2,2.5v23C2,27.4,3.6,29,5.5,29h32c1.9,0,3.5-1.6,3.5-3.5V2.5z"/>
		</g>
	</g>
</g>
</svg>
