<?xml version="1.0" encoding="utf-8"?>
<!-- Generator: Adobe Illustrator 17.0.2, SVG Export Plug-In . SVG Version: 6.00 Build 0)  -->
<!DOCTYPE svg PUBLIC "-//W3C//DTD SVG 1.1//EN" "http://www.w3.org/Graphics/SVG/1.1/DTD/svg11.dtd">
<svg version="1.1" id="Layer_1" xmlns="http://www.w3.org/2000/svg" xmlns:xlink="http://www.w3.org/1999/xlink" xml:space="preserve">
<g>
	<g>
		<path fill="#666666" d="M16.191,7.893c-0.054,0.063-0.139,0.106-0.223,0.116c-0.011,0-0.021,0-0.032,0
			c-0.085,0-0.159-0.021-0.223-0.074L8.375,1.816L1.037,7.935C0.963,7.988,0.878,8.02,0.782,8.009
			c-0.085-0.01-0.17-0.053-0.223-0.116l-0.657-0.785c-0.117-0.138-0.096-0.36,0.042-0.477l7.625-6.352
			c0.445-0.372,1.166-0.372,1.612,0l2.587,2.163V0.374c0-0.191,0.148-0.339,0.34-0.339h2.036c0.19,0,0.339,0.148,0.339,0.339v4.327
			l2.322,1.93c0.139,0.117,0.159,0.339,0.043,0.477L16.191,7.893z M14.483,12.93c0,0.371-0.308,0.679-0.679,0.679H9.732V9.536H7.018
			v4.072H2.945c-0.371,0-0.679-0.308-0.679-0.679V7.84c0-0.021,0.011-0.042,0.011-0.063l6.098-5.027l6.098,5.027
			c0.011,0.021,0.011,0.042,0.011,0.063V12.93z"/>
	</g>
</g>
</svg>
