<?xml version="1.0" encoding="utf-8"?>
<!-- Generator: Adobe Illustrator 19.2.0, SVG Export Plug-In . SVG Version: 6.00 Build 0)  -->
<svg version="1.1" id="Layer_1" xmlns="http://www.w3.org/2000/svg" xmlns:xlink="http://www.w3.org/1999/xlink" x="0px" y="0px"
	 viewBox="0 0 50 150" style="enable-background:new 0 0 50 150;" xml:space="preserve">
<style type="text/css">
	.st0{opacity:0.49;}
	.st1{fill:#1E1E1E;}
	.st2{opacity:0.5;}
	.st3{fill:#EAEAEA;}
	.st4{fill:#FFFFFF;}
</style>
<g class="st0">
	<path class="st1" d="M50,146c0,2.2-1.8,4-4,4H4c-2.2,0-4-1.8-4-4v-42c0-2.2,1.8-4,4-4h42c2.2,0,4,1.8,4,4V146z"/>
</g>
<g class="st2">
	<g>
		<path class="st3" d="M25.1,109.5c-4.2,0-8,1.8-10.8,4.8c0,0-0.5,0.7,0.2,1.2c0.7,0.6,1.4-0.1,1.4-0.1c2.4-2.4,5.7-3.9,9.2-3.9
			c3.6,0,6.9,1.5,9.3,4.1c0,0,0.7,0.8,1.5,0.3c0.7-0.4,0.2-1.2,0.2-1.3C33.3,111.4,29.4,109.5,25.1,109.5z"/>
		<path class="st3" d="M35.4,116.3c-0.2,0-0.4,0-0.5-0.1c-0.2-0.1-0.5-0.3-0.6-0.4l0,0c-2.5-2.6-5.7-4-9.2-4c-3.4,0-6.6,1.4-9.1,3.9
			l0,0c-0.1,0.1-0.3,0.2-0.4,0.3c-0.5,0.2-0.9,0.2-1.3-0.2c-0.6-0.5-0.4-1.1-0.3-1.4c0-0.1,0.1-0.1,0.1-0.2l0,0
			c2.9-3.1,6.8-4.9,10.9-4.9c4.2,0,8.2,1.8,11.2,5.1c0.1,0.1,0.3,0.5,0.2,0.9c0,0.3-0.2,0.6-0.5,0.8
			C35.9,116.2,35.6,116.3,35.4,116.3z M34.7,115.4c0.1,0.1,0.6,0.6,1.1,0.2c0.1-0.1,0.2-0.2,0.2-0.3c0-0.3-0.1-0.5-0.1-0.6
			c-2.9-3.2-6.7-5-10.8-5c-4,0-7.7,1.7-10.6,4.7c-0.1,0.1-0.3,0.5,0.1,0.9c0.5,0.4,1,0,1.1-0.1c2.6-2.6,5.9-4,9.4-4
			C28.7,111.2,32.1,112.7,34.7,115.4L34.7,115.4z M36,114.7C36,114.7,36,114.7,36,114.7L36,114.7z M35.9,114.7
			C35.9,114.7,35.9,114.7,35.9,114.7L35.9,114.7z"/>
	</g>
	<path class="st3" d="M27.3,116l-1.5-0.9c-0.3-0.2-0.7-0.2-1,0l-1.5,0.9c-0.3,0.2-0.5,0.5-0.5,0.9l0,1.8c0,0.4,0.2,0.7,0.5,0.9
		l1.5,0.9c0.2,0.1,0.3,0.1,0.5,0.1c0.2,0,0.4,0,0.5-0.1l1.5-0.9c0.3-0.2,0.5-0.5,0.5-0.9l0-1.8C27.8,116.5,27.6,116.2,27.3,116z"/>
	<path class="st3" d="M31.2,125l-1.2-1.5c-0.2-0.3-0.5-0.4-0.8-0.4l-7.9,0c0,0,0,0,0,0c-0.3,0-0.6,0.1-0.8,0.4l-1.2,1.5
		c-0.3,0.4-0.3,0.9,0,1.3l1.2,1.5c0.2,0.3,0.5,0.4,0.8,0.4l7.9,0c0,0,0,0,0,0c0.3,0,0.6-0.1,0.8-0.4l1.2-1.5
		C31.5,126,31.5,125.4,31.2,125z"/>
</g>
<g class="st2">
	<path class="st3" d="M19.2,135.5v6.4H18v-2.7h-2.9v2.7h-1.2v-6.4h1.2v2.6H18v-2.6H19.2z"/>
	<path class="st3" d="M25.4,141c0.3,0,0.6-0.1,0.8-0.2c0.2-0.1,0.4-0.3,0.5-0.5c0.1-0.2,0.2-0.4,0.3-0.7c0.1-0.3,0.1-0.5,0.1-0.8
		v-3.4h1.3v3.4c0,0.5-0.1,0.9-0.2,1.3c-0.1,0.4-0.3,0.7-0.5,1c-0.2,0.3-0.5,0.5-0.9,0.7c-0.4,0.2-0.8,0.3-1.3,0.3
		c-0.5,0-1-0.1-1.4-0.3c-0.4-0.2-0.7-0.4-0.9-0.7c-0.2-0.3-0.4-0.6-0.5-1c-0.1-0.4-0.2-0.8-0.2-1.2v-3.4h1.3v3.4
		c0,0.3,0,0.5,0.1,0.8c0.1,0.3,0.1,0.5,0.3,0.7c0.1,0.2,0.3,0.4,0.5,0.5S25.1,141,25.4,141z"/>
	<path class="st3" d="M31.7,141.9v-6.4H34c0.5,0,1,0.1,1.4,0.3c0.4,0.2,0.7,0.4,1,0.7c0.3,0.3,0.5,0.6,0.6,1
		c0.1,0.4,0.2,0.8,0.2,1.2c0,0.5-0.1,0.9-0.2,1.3c-0.1,0.4-0.4,0.7-0.6,1c-0.3,0.3-0.6,0.5-1,0.6c-0.4,0.2-0.8,0.2-1.3,0.2H31.7z
		 M35.9,138.7c0-0.3,0-0.6-0.1-0.8c-0.1-0.3-0.2-0.5-0.4-0.7c-0.2-0.2-0.4-0.3-0.6-0.4c-0.2-0.1-0.5-0.2-0.8-0.2h-1.1v4.2H34
		c0.3,0,0.6-0.1,0.8-0.2c0.2-0.1,0.4-0.3,0.6-0.4c0.2-0.2,0.3-0.4,0.4-0.7C35.8,139.3,35.9,139,35.9,138.7z"/>
</g>
<g>
	<path class="st1" d="M50,96c0,2.2-1.8,4-4,4H4c-2.2,0-4-1.8-4-4V54c0-2.2,1.8-4,4-4h42c2.2,0,4,1.8,4,4V96z"/>
</g>
<g>
	<g>
		<path class="st3" d="M25.1,59.5c-4.2,0-8,1.8-10.8,4.8c0,0-0.5,0.7,0.2,1.2c0.7,0.6,1.4-0.1,1.4-0.1c2.4-2.4,5.7-3.9,9.2-3.9
			c3.6,0,6.9,1.5,9.3,4.1c0,0,0.7,0.8,1.5,0.3c0.7-0.4,0.2-1.2,0.2-1.3C33.3,61.5,29.4,59.5,25.1,59.5z"/>
		<path class="st3" d="M35.4,66.3c-0.2,0-0.4,0-0.5-0.1c-0.2-0.1-0.5-0.3-0.6-0.4l0,0c-2.5-2.6-5.7-4-9.2-4c-3.4,0-6.6,1.4-9.1,3.9
			l0,0c-0.1,0.1-0.3,0.2-0.4,0.3c-0.5,0.2-0.9,0.2-1.3-0.2c-0.6-0.5-0.4-1.1-0.3-1.4c0-0.1,0.1-0.1,0.1-0.2l0,0
			c2.9-3.1,6.8-4.9,10.9-4.9c4.2,0,8.2,1.8,11.2,5.1c0.1,0.1,0.3,0.5,0.2,0.9c0,0.3-0.2,0.6-0.5,0.8C35.9,66.2,35.6,66.3,35.4,66.3z
			 M34.7,65.5c0.1,0.1,0.6,0.6,1.1,0.2c0.1-0.1,0.2-0.2,0.2-0.3c0-0.3-0.1-0.5-0.1-0.6c-2.9-3.2-6.7-5-10.8-5c-4,0-7.7,1.7-10.6,4.7
			c-0.1,0.1-0.3,0.5,0.1,0.9c0.5,0.4,1,0,1.1-0.1c2.6-2.6,5.9-4,9.4-4C28.7,61.3,32.1,62.7,34.7,65.5L34.7,65.5z M36,64.7
			C36,64.7,36,64.7,36,64.7L36,64.7z M35.9,64.7C35.9,64.7,35.9,64.7,35.9,64.7L35.9,64.7z"/>
	</g>
	<path class="st3" d="M27.3,66l-1.5-0.9c-0.3-0.2-0.7-0.2-1,0L23.2,66c-0.3,0.2-0.5,0.5-0.5,0.9l0,1.8c0,0.4,0.2,0.7,0.5,0.9
		l1.5,0.9c0.2,0.1,0.3,0.1,0.5,0.1c0.2,0,0.4,0,0.5-0.1l1.5-0.9c0.3-0.2,0.5-0.5,0.5-0.9l0-1.8C27.8,66.5,27.6,66.2,27.3,66z"/>
	<path class="st3" d="M31.2,75.1L30,73.5c-0.2-0.3-0.5-0.4-0.8-0.4l-7.9,0c0,0,0,0,0,0c-0.3,0-0.6,0.1-0.8,0.4l-1.2,1.5
		c-0.3,0.4-0.3,0.9,0,1.3l1.2,1.5c0.2,0.3,0.5,0.4,0.8,0.4l7.9,0c0,0,0,0,0,0c0.3,0,0.6-0.1,0.8-0.4l1.2-1.5
		C31.5,76,31.5,75.5,31.2,75.1z"/>
</g>
<g>
	<path class="st3" d="M19.2,85.5v6.4H18v-2.7h-2.9v2.7h-1.2v-6.4h1.2v2.6H18v-2.6H19.2z"/>
	<path class="st3" d="M25.4,91c0.3,0,0.6-0.1,0.8-0.2s0.4-0.3,0.5-0.5c0.1-0.2,0.2-0.4,0.3-0.7s0.1-0.5,0.1-0.8v-3.4h1.3v3.4
		c0,0.5-0.1,0.9-0.2,1.3c-0.1,0.4-0.3,0.7-0.5,1c-0.2,0.3-0.5,0.5-0.9,0.7c-0.4,0.2-0.8,0.3-1.3,0.3c-0.5,0-1-0.1-1.4-0.3
		c-0.4-0.2-0.7-0.4-0.9-0.7c-0.2-0.3-0.4-0.6-0.5-1c-0.1-0.4-0.2-0.8-0.2-1.2v-3.4h1.3v3.4c0,0.3,0,0.5,0.1,0.8
		c0.1,0.3,0.1,0.5,0.3,0.7c0.1,0.2,0.3,0.4,0.5,0.5S25.1,91,25.4,91z"/>
	<path class="st3" d="M31.7,91.9v-6.4H34c0.5,0,1,0.1,1.4,0.3c0.4,0.2,0.7,0.4,1,0.7c0.3,0.3,0.5,0.6,0.6,1c0.1,0.4,0.2,0.8,0.2,1.2
		c0,0.5-0.1,0.9-0.2,1.3c-0.1,0.4-0.4,0.7-0.6,1c-0.3,0.3-0.6,0.5-1,0.6c-0.4,0.2-0.8,0.2-1.3,0.2H31.7z M35.9,88.7
		c0-0.3,0-0.6-0.1-0.8c-0.1-0.3-0.2-0.5-0.4-0.7c-0.2-0.2-0.4-0.3-0.6-0.4c-0.2-0.1-0.5-0.2-0.8-0.2h-1.1v4.2H34
		c0.3,0,0.6-0.1,0.8-0.2c0.2-0.1,0.4-0.3,0.6-0.4c0.2-0.2,0.3-0.4,0.4-0.7C35.8,89.3,35.9,89,35.9,88.7z"/>
</g>
<g>
	<path class="st4" d="M50,46.1c0,2.2-1.8,4-4,4H4c-2.2,0-4-1.8-4-4v-42c0-2.2,1.8-4,4-4h42c2.2,0,4,1.8,4,4V46.1z"/>
</g>
<g>
	<g>
		<path d="M25.1,9.6c-4.2,0-8,1.8-10.8,4.8c0,0-0.5,0.7,0.2,1.2c0.7,0.6,1.4-0.1,1.4-0.1c2.4-2.4,5.7-3.9,9.2-3.9
			c3.6,0,6.9,1.5,9.3,4.1c0,0,0.7,0.8,1.5,0.3c0.7-0.4,0.2-1.2,0.2-1.3C33.3,11.5,29.4,9.6,25.1,9.6z"/>
		<path d="M35.4,16.3c-0.2,0-0.4,0-0.5-0.1c-0.2-0.1-0.5-0.3-0.6-0.4l0,0c-2.5-2.6-5.7-4-9.2-4c-3.4,0-6.6,1.4-9.1,3.9l0,0
			c-0.1,0.1-0.3,0.2-0.4,0.3c-0.5,0.2-0.9,0.2-1.3-0.2c-0.6-0.5-0.4-1.1-0.3-1.4c0-0.1,0.1-0.1,0.1-0.2l0,0
			c2.9-3.1,6.8-4.9,10.9-4.9c4.2,0,8.2,1.8,11.2,5.1c0.1,0.1,0.3,0.5,0.2,0.9c0,0.3-0.2,0.6-0.5,0.8C35.9,16.3,35.6,16.3,35.4,16.3z
			 M34.7,15.5c0.1,0.1,0.6,0.6,1.1,0.2c0.1-0.1,0.2-0.2,0.2-0.3c0-0.3-0.1-0.5-0.1-0.6c-2.9-3.2-6.7-5-10.8-5c-4,0-7.7,1.7-10.6,4.7
			c-0.1,0.1-0.3,0.5,0.1,0.9c0.5,0.4,1,0,1.1-0.1c2.6-2.6,5.9-4,9.4-4C28.7,11.3,32.1,12.8,34.7,15.5L34.7,15.5z M36,14.8
			C36,14.8,36,14.8,36,14.8L36,14.8z M35.9,14.8C35.9,14.8,35.9,14.8,35.9,14.8L35.9,14.8z"/>
	</g>
	<path d="M27.3,16l-1.5-0.9c-0.3-0.2-0.7-0.2-1,0L23.2,16c-0.3,0.2-0.5,0.5-0.5,0.9l0,1.8c0,0.4,0.2,0.7,0.5,0.9l1.5,0.9
		c0.2,0.1,0.3,0.1,0.5,0.1c0.2,0,0.4,0,0.5-0.1l1.5-0.9c0.3-0.2,0.5-0.5,0.5-0.9l0-1.8C27.8,16.6,27.6,16.2,27.3,16z"/>
	<path d="M31.2,25.1L30,23.6c-0.2-0.3-0.5-0.4-0.8-0.4l-7.9,0c0,0,0,0,0,0c-0.3,0-0.6,0.1-0.8,0.4l-1.2,1.5c-0.3,0.4-0.3,0.9,0,1.3
		l1.2,1.5c0.2,0.3,0.5,0.4,0.8,0.4l7.9,0c0,0,0,0,0,0c0.3,0,0.6-0.1,0.8-0.4l1.2-1.5C31.5,26,31.5,25.5,31.2,25.1z"/>
</g>
<g>
	<path d="M19.2,35.6V42H18v-2.7h-2.9V42h-1.2v-6.4h1.2v2.6H18v-2.6H19.2z"/>
	<path d="M25.4,41c0.3,0,0.6-0.1,0.8-0.2c0.2-0.1,0.4-0.3,0.5-0.5c0.1-0.2,0.2-0.4,0.3-0.7c0.1-0.3,0.1-0.5,0.1-0.8v-3.4h1.3v3.4
		c0,0.5-0.1,0.9-0.2,1.3c-0.1,0.4-0.3,0.7-0.5,1c-0.2,0.3-0.5,0.5-0.9,0.7c-0.4,0.2-0.8,0.3-1.3,0.3c-0.5,0-1-0.1-1.4-0.3
		c-0.4-0.2-0.7-0.4-0.9-0.7c-0.2-0.3-0.4-0.6-0.5-1c-0.1-0.4-0.2-0.8-0.2-1.2v-3.4h1.3v3.4c0,0.3,0,0.5,0.1,0.8
		c0.1,0.3,0.1,0.5,0.3,0.7c0.1,0.2,0.3,0.4,0.5,0.5C24.9,41,25.1,41,25.4,41z"/>
	<path d="M31.7,42v-6.4H34c0.5,0,1,0.1,1.4,0.3c0.4,0.2,0.7,0.4,1,0.7c0.3,0.3,0.5,0.6,0.6,1c0.1,0.4,0.2,0.8,0.2,1.2
		c0,0.5-0.1,0.9-0.2,1.3c-0.1,0.4-0.4,0.7-0.6,1c-0.3,0.3-0.6,0.5-1,0.6C34.9,41.9,34.5,42,34,42H31.7z M35.9,38.8
		c0-0.3,0-0.6-0.1-0.8c-0.1-0.3-0.2-0.5-0.4-0.7c-0.2-0.2-0.4-0.3-0.6-0.4c-0.2-0.1-0.5-0.2-0.8-0.2h-1.1v4.2H34
		c0.3,0,0.6-0.1,0.8-0.2c0.2-0.1,0.4-0.3,0.6-0.4c0.2-0.2,0.3-0.4,0.4-0.7C35.8,39.3,35.9,39.1,35.9,38.8z"/>
</g>
</svg>
