<?xml version="1.0" encoding="utf-8"?>
<!-- Generator: Adobe Illustrator 19.2.0, SVG Export Plug-In . SVG Version: 6.00 Build 0)  -->
<svg version="1.1" xmlns="http://www.w3.org/2000/svg" xmlns:xlink="http://www.w3.org/1999/xlink" x="0px" y="0px"
	 viewBox="0 0 50 200.1" style="enable-background:new 0 0 50 200.1;" xml:space="preserve">
<style type="text/css">
	.st0{fill:#414042;}
	.st1{fill:#FFFFFF;}
	.st2{fill:#1E1E1E;}
	.st3{fill:#333333;}
</style>
<g id="Layer_2">
	<g>
		<g>
			<path class="st0" d="M50.1,146.1c0,2.2-1.8,4-4,4h-42c-2.2,0-4-1.8-4-4v-42c0-2.2,1.8-4,4-4h42c2.2,0,4,1.8,4,4V146.1z"/>
		</g>
	</g>
	<g>
		<g>
			<path class="st0" d="M50,196.1c0,2.2-1.8,4-4,4H4c-2.2,0-4-1.8-4-4v-42c0-2.2,1.8-4,4-4h42c2.2,0,4,1.8,4,4V196.1z"/>
		</g>
	</g>
	<g>
		<g>
			<path class="st1" d="M50,46c0,2.2-1.8,4-4,4H4c-2.2,0-4-1.8-4-4V4c0-2.2,1.8-4,4-4h42c2.2,0,4,1.8,4,4V46z"/>
		</g>
	</g>
	<g>
		<path class="st2" d="M50,96.1c0,2.2-1.8,4-4,4H4c-2.2,0-4-1.8-4-4v-42c0-2.2,1.8-4,4-4h42c2.2,0,4,1.8,4,4V96.1z"/>
	</g>
</g>
<g id="Layer_3">
</g>
<g id="Layer_1">
	<g>
		<g>
			<path class="st3" d="M25.4,10.2c-4.2,0-8,1.8-10.8,4.8c0,0-0.5,0.7,0.2,1.2c0.7,0.6,1.4-0.1,1.4-0.1c2.4-2.4,5.7-3.9,9.2-3.9
				c3.6,0,6.9,1.5,9.3,4.1c0,0,0.7,0.8,1.5,0.3c0.7-0.4,0.2-1.2,0.2-1.3C33.6,12.1,29.7,10.2,25.4,10.2z"/>
			<path class="st3" d="M35.7,17c-0.2,0-0.4,0-0.5-0.1c-0.2-0.1-0.5-0.3-0.6-0.4l0,0c-2.5-2.6-5.7-4-9.2-4c-3.4,0-6.6,1.4-9.1,3.9
				l0,0c-0.1,0.1-0.3,0.2-0.4,0.3c-0.5,0.2-0.9,0.2-1.3-0.2c-0.6-0.5-0.4-1.1-0.3-1.4c0-0.1,0.1-0.1,0.1-0.2l0,0
				c2.9-3.1,6.8-4.9,10.9-4.9c4.2,0,8.2,1.8,11.2,5.1c0.1,0.1,0.3,0.5,0.2,0.9c0,0.3-0.2,0.6-0.5,0.8C36.2,16.9,35.9,17,35.7,17z
				 M35,16.1c0.1,0.1,0.6,0.6,1.1,0.2c0.1-0.1,0.2-0.2,0.2-0.3c0-0.3-0.1-0.5-0.1-0.6c-2.9-3.2-6.7-5-10.8-5c-4,0-7.7,1.7-10.6,4.7
				c-0.1,0.1-0.3,0.5,0.1,0.9c0.5,0.4,1,0,1.1-0.1c2.6-2.6,5.9-4,9.4-4C29,11.9,32.4,13.4,35,16.1L35,16.1z M36.3,15.4
				C36.3,15.4,36.3,15.4,36.3,15.4L36.3,15.4z M36.3,15.4L36.3,15.4L36.3,15.4z"/>
		</g>
		<path class="st3" d="M27.6,16.7l-1.5-0.9c-0.3-0.2-0.7-0.2-1,0l-1.5,0.9c-0.3,0.2-0.5,0.5-0.5,0.9l0,1.8c0,0.4,0.2,0.7,0.5,0.9
			l1.5,0.9c0.2,0.1,0.3,0.1,0.5,0.1c0.2,0,0.4,0,0.5-0.1l1.5-0.9c0.3-0.2,0.5-0.5,0.5-0.9l0-1.8C28.2,17.2,28,16.9,27.6,16.7z"/>
		<path class="st3" d="M31.5,25.7l-1.2-1.5c-0.2-0.3-0.5-0.4-0.8-0.4l-7.9,0h0c-0.3,0-0.6,0.1-0.8,0.4l-1.2,1.5
			c-0.3,0.4-0.3,0.9,0,1.3l1.2,1.5c0.2,0.3,0.5,0.4,0.8,0.4l7.9,0h0c0.3,0,0.6-0.1,0.8-0.4l1.2-1.5C31.8,26.6,31.8,26.1,31.5,25.7z"
			/>
	</g>
	<g>
		<path class="st3" d="M19.5,36.2v6.4h-1.2v-2.7h-2.9v2.7h-1.2v-6.4h1.2v2.6h2.9v-2.6H19.5z"/>
		<path class="st3" d="M25.7,41.7c0.3,0,0.6-0.1,0.8-0.2c0.2-0.1,0.4-0.3,0.5-0.5c0.1-0.2,0.2-0.4,0.3-0.7s0.1-0.5,0.1-0.8v-3.4h1.3
			v3.4c0,0.5-0.1,0.9-0.2,1.3c-0.1,0.4-0.3,0.7-0.5,1c-0.2,0.3-0.5,0.5-0.9,0.7c-0.4,0.2-0.8,0.3-1.3,0.3c-0.5,0-1-0.1-1.4-0.3
			c-0.4-0.2-0.7-0.4-0.9-0.7c-0.2-0.3-0.4-0.6-0.5-1c-0.1-0.4-0.2-0.8-0.2-1.2v-3.4h1.3v3.4c0,0.3,0,0.5,0.1,0.8
			c0.1,0.3,0.1,0.5,0.3,0.7c0.1,0.2,0.3,0.4,0.5,0.5S25.4,41.7,25.7,41.7z"/>
		<path class="st3" d="M32,42.6v-6.4h2.3c0.5,0,1,0.1,1.4,0.3c0.4,0.2,0.7,0.4,1,0.7c0.3,0.3,0.5,0.6,0.6,1c0.1,0.4,0.2,0.8,0.2,1.2
			c0,0.5-0.1,0.9-0.2,1.3c-0.1,0.4-0.4,0.7-0.6,1c-0.3,0.3-0.6,0.5-1,0.6c-0.4,0.2-0.8,0.2-1.3,0.2H32z M36.2,39.4
			c0-0.3,0-0.6-0.1-0.8c-0.1-0.3-0.2-0.5-0.4-0.7c-0.2-0.2-0.4-0.3-0.6-0.4c-0.2-0.1-0.5-0.2-0.8-0.2h-1.1v4.2h1.1
			c0.3,0,0.6-0.1,0.8-0.2c0.2-0.1,0.4-0.3,0.6-0.4c0.2-0.2,0.3-0.4,0.4-0.7C36.1,40,36.2,39.7,36.2,39.4z"/>
	</g>
	<g>
		<g>
			<path class="st1" d="M25.4,60.2c-4.2,0-8,1.8-10.8,4.8c0,0-0.5,0.7,0.2,1.2c0.7,0.6,1.4-0.1,1.4-0.1c2.4-2.4,5.7-3.9,9.2-3.9
				c3.6,0,6.9,1.5,9.3,4.1c0,0,0.7,0.8,1.5,0.3c0.7-0.4,0.2-1.2,0.2-1.3C33.6,62.1,29.7,60.2,25.4,60.2z"/>
			<path class="st1" d="M35.7,67c-0.2,0-0.4,0-0.5-0.1c-0.2-0.1-0.5-0.3-0.6-0.4l0,0c-2.5-2.6-5.7-4-9.2-4c-3.4,0-6.6,1.4-9.1,3.9
				l0,0c-0.1,0.1-0.3,0.2-0.4,0.3c-0.5,0.2-0.9,0.2-1.3-0.2c-0.6-0.5-0.4-1.1-0.3-1.4c0-0.1,0.1-0.1,0.1-0.2l0,0
				c2.9-3.1,6.8-4.9,10.9-4.9c4.2,0,8.2,1.8,11.2,5.1c0.1,0.1,0.3,0.5,0.2,0.9c0,0.3-0.2,0.6-0.5,0.8C36.2,66.9,35.9,67,35.7,67z
				 M35,66.1c0.1,0.1,0.6,0.6,1.1,0.2c0.1-0.1,0.2-0.2,0.2-0.3c0-0.3-0.1-0.5-0.1-0.6c-2.9-3.2-6.7-5-10.8-5c-4,0-7.7,1.7-10.6,4.7
				c-0.1,0.1-0.3,0.5,0.1,0.9c0.5,0.4,1,0,1.1-0.1c2.6-2.6,5.9-4,9.4-4C29,61.9,32.4,63.4,35,66.1L35,66.1z M36.3,65.4
				C36.3,65.4,36.3,65.4,36.3,65.4L36.3,65.4z M36.3,65.4L36.3,65.4L36.3,65.4z"/>
		</g>
		<path class="st1" d="M27.6,66.7l-1.5-0.9c-0.3-0.2-0.7-0.2-1,0l-1.5,0.9c-0.3,0.2-0.5,0.5-0.5,0.9l0,1.8c0,0.4,0.2,0.7,0.5,0.9
			l1.5,0.9c0.2,0.1,0.3,0.1,0.5,0.1c0.2,0,0.4,0,0.5-0.1l1.5-0.9c0.3-0.2,0.5-0.5,0.5-0.9l0-1.8C28.2,67.2,28,66.9,27.6,66.7z"/>
		<path class="st1" d="M31.5,75.7l-1.2-1.5c-0.2-0.3-0.5-0.4-0.8-0.4l-7.9,0h0c-0.3,0-0.6,0.1-0.8,0.4l-1.2,1.5
			c-0.3,0.4-0.3,0.9,0,1.3l1.2,1.5c0.2,0.3,0.5,0.4,0.8,0.4l7.9,0h0c0.3,0,0.6-0.1,0.8-0.4l1.2-1.5C31.8,76.6,31.8,76.1,31.5,75.7z"
			/>
	</g>
	<g>
		<path class="st1" d="M19.5,86.2v6.4h-1.2v-2.7h-2.9v2.7h-1.2v-6.4h1.2v2.6h2.9v-2.6H19.5z"/>
		<path class="st1" d="M25.7,91.7c0.3,0,0.6-0.1,0.8-0.2c0.2-0.1,0.4-0.3,0.5-0.5c0.1-0.2,0.2-0.4,0.3-0.7s0.1-0.5,0.1-0.8v-3.4h1.3
			v3.4c0,0.5-0.1,0.9-0.2,1.3c-0.1,0.4-0.3,0.7-0.5,1c-0.2,0.3-0.5,0.5-0.9,0.7c-0.4,0.2-0.8,0.3-1.3,0.3c-0.5,0-1-0.1-1.4-0.3
			c-0.4-0.2-0.7-0.4-0.9-0.7c-0.2-0.3-0.4-0.6-0.5-1c-0.1-0.4-0.2-0.8-0.2-1.2v-3.4h1.3v3.4c0,0.3,0,0.5,0.1,0.8
			c0.1,0.3,0.1,0.5,0.3,0.7c0.1,0.2,0.3,0.4,0.5,0.5S25.4,91.7,25.7,91.7z"/>
		<path class="st1" d="M32,92.6v-6.4h2.3c0.5,0,1,0.1,1.4,0.3c0.4,0.2,0.7,0.4,1,0.7c0.3,0.3,0.5,0.6,0.6,1c0.1,0.4,0.2,0.8,0.2,1.2
			c0,0.5-0.1,0.9-0.2,1.3c-0.1,0.4-0.4,0.7-0.6,1c-0.3,0.3-0.6,0.5-1,0.6c-0.4,0.2-0.8,0.2-1.3,0.2H32z M36.2,89.4
			c0-0.3,0-0.6-0.1-0.8c-0.1-0.3-0.2-0.5-0.4-0.7c-0.2-0.2-0.4-0.3-0.6-0.4c-0.2-0.1-0.5-0.2-0.8-0.2h-1.1v4.2h1.1
			c0.3,0,0.6-0.1,0.8-0.2c0.2-0.1,0.4-0.3,0.6-0.4c0.2-0.2,0.3-0.4,0.4-0.7C36.1,90,36.2,89.7,36.2,89.4z"/>
	</g>
	<g>
		<path class="st1" d="M25.3,108.3c-4.2,0-8,1.8-10.8,4.8c0,0-0.5,0.7,0.2,1.2c0.7,0.6,1.4-0.1,1.4-0.1c2.4-2.4,5.7-3.9,9.2-3.9
			c3.6,0,6.9,1.5,9.3,4.1c0,0,0.7,0.8,1.5,0.3c0.7-0.4,0.2-1.2,0.2-1.3C33.5,110.2,29.6,108.3,25.3,108.3z"/>
		<path class="st1" d="M35.6,115c-0.2,0-0.4,0-0.5-0.1c-0.2-0.1-0.5-0.3-0.6-0.4l0,0c-2.5-2.6-5.7-4-9.2-4c-3.4,0-6.6,1.4-9.1,3.9
			l0,0c-0.1,0.1-0.3,0.2-0.4,0.3c-0.5,0.2-0.9,0.2-1.3-0.2c-0.6-0.5-0.4-1.1-0.3-1.4c0-0.1,0.1-0.1,0.1-0.2l0,0
			c2.9-3.1,6.8-4.9,10.9-4.9c4.2,0,8.2,1.8,11.2,5.1c0.1,0.1,0.3,0.5,0.2,0.9c0,0.3-0.2,0.6-0.5,0.8C36,115,35.8,115,35.6,115z
			 M34.8,114.2c0.1,0.1,0.6,0.6,1.1,0.2c0.1-0.1,0.2-0.2,0.2-0.3c0-0.3-0.1-0.5-0.1-0.6c-2.9-3.2-6.7-5-10.8-5
			c-4,0-7.7,1.7-10.6,4.7c-0.1,0.1-0.3,0.5,0.1,0.9c0.5,0.4,1,0,1.1-0.1c2.6-2.6,5.9-4,9.4-4C28.8,110,32.2,111.5,34.8,114.2
			L34.8,114.2z M36.1,113.5C36.1,113.5,36.1,113.5,36.1,113.5L36.1,113.5z M36.1,113.5C36.1,113.5,36.1,113.5,36.1,113.5L36.1,113.5
			z"/>
	</g>
	<path class="st1" d="M27.5,116.7l-1.5-0.9c-0.3-0.2-0.7-0.2-1,0l-1.5,0.9c-0.3,0.2-0.5,0.5-0.5,0.9l0,1.8c0,0.4,0.2,0.7,0.5,0.9
		l1.5,0.9c0.2,0.1,0.3,0.1,0.5,0.1c0.2,0,0.4,0,0.5-0.1l1.5-0.9c0.3-0.2,0.5-0.5,0.5-0.9l0-1.8C28,117.3,27.8,116.9,27.5,116.7z"/>
	<path class="st1" d="M31.4,125.8l-1.2-1.5c-0.2-0.3-0.5-0.4-0.8-0.4l-7.9,0h0c-0.3,0-0.6,0.1-0.8,0.4l-1.2,1.5
		c-0.3,0.4-0.3,0.9,0,1.3l1.2,1.5c0.2,0.3,0.5,0.4,0.8,0.4l7.9,0h0c0.3,0,0.6-0.1,0.8-0.4l1.2-1.5C31.7,126.7,31.7,126.2,31.4,125.8
		z"/>
	<g>
		<path class="st1" d="M19.3,136.3v6.4h-1.2v-2.7h-2.9v2.7H14v-6.4h1.2v2.6h2.9v-2.6H19.3z"/>
		<path class="st1" d="M25.6,141.7c0.3,0,0.6-0.1,0.8-0.2c0.2-0.1,0.4-0.3,0.5-0.5c0.1-0.2,0.2-0.4,0.3-0.7c0.1-0.3,0.1-0.5,0.1-0.8
			v-3.4h1.3v3.4c0,0.5-0.1,0.9-0.2,1.3c-0.1,0.4-0.3,0.7-0.5,1c-0.2,0.3-0.5,0.5-0.9,0.7c-0.4,0.2-0.8,0.3-1.3,0.3
			c-0.5,0-1-0.1-1.4-0.3c-0.4-0.2-0.7-0.4-0.9-0.7c-0.2-0.3-0.4-0.6-0.5-1c-0.1-0.4-0.2-0.8-0.2-1.2v-3.4h1.3v3.4
			c0,0.3,0,0.5,0.1,0.8c0.1,0.3,0.1,0.5,0.3,0.7c0.1,0.2,0.3,0.4,0.5,0.5C25,141.7,25.3,141.7,25.6,141.7z"/>
		<path class="st1" d="M31.8,142.7v-6.4h2.3c0.5,0,1,0.1,1.4,0.3c0.4,0.2,0.7,0.4,1,0.7c0.3,0.3,0.5,0.6,0.6,1
			c0.1,0.4,0.2,0.8,0.2,1.2c0,0.5-0.1,0.9-0.2,1.3c-0.1,0.4-0.4,0.7-0.6,1c-0.3,0.3-0.6,0.5-1,0.6c-0.4,0.2-0.8,0.2-1.3,0.2H31.8z
			 M36,139.5c0-0.3,0-0.6-0.1-0.8c-0.1-0.3-0.2-0.5-0.4-0.7c-0.2-0.2-0.4-0.3-0.6-0.4c-0.2-0.1-0.5-0.2-0.8-0.2H33v4.2h1.1
			c0.3,0,0.6-0.1,0.8-0.2c0.2-0.1,0.4-0.3,0.6-0.4c0.2-0.2,0.3-0.4,0.4-0.7C36,140,36,139.8,36,139.5z"/>
	</g>
	<g>
		<path class="st1" d="M25.3,158.3c-4.2,0-8,1.8-10.8,4.8c0,0-0.5,0.7,0.2,1.2c0.7,0.6,1.4-0.1,1.4-0.1c2.4-2.4,5.7-3.9,9.2-3.9
			c3.6,0,6.9,1.5,9.3,4.1c0,0,0.7,0.8,1.5,0.3c0.7-0.4,0.2-1.2,0.2-1.3C33.5,160.3,29.6,158.3,25.3,158.3z"/>
		<path class="st1" d="M35.6,165.1c-0.2,0-0.4,0-0.5-0.1c-0.2-0.1-0.5-0.3-0.6-0.4l0,0c-2.5-2.6-5.7-4-9.2-4c-3.4,0-6.6,1.4-9.1,3.9
			l0,0c-0.1,0.1-0.3,0.2-0.4,0.3c-0.5,0.2-0.9,0.2-1.3-0.2c-0.6-0.5-0.4-1.1-0.3-1.4c0-0.1,0.1-0.1,0.1-0.2l0,0
			c2.9-3.1,6.8-4.9,10.9-4.9c4.2,0,8.2,1.8,11.2,5.1c0.1,0.1,0.3,0.5,0.2,0.9c0,0.3-0.2,0.6-0.5,0.8C36,165,35.8,165.1,35.6,165.1z
			 M34.8,164.2c0.1,0.1,0.6,0.6,1.1,0.2c0.1-0.1,0.2-0.2,0.2-0.3c0-0.3-0.1-0.5-0.1-0.6c-2.9-3.2-6.7-5-10.8-5
			c-4,0-7.7,1.7-10.6,4.7c-0.1,0.1-0.3,0.5,0.1,0.9c0.5,0.4,1,0,1.1-0.1c2.6-2.6,5.9-4,9.4-4C28.8,160,32.2,161.5,34.8,164.2
			L34.8,164.2z M36.1,163.5C36.1,163.5,36.1,163.5,36.1,163.5L36.1,163.5z M36.1,163.5C36.1,163.5,36.1,163.5,36.1,163.5L36.1,163.5
			z"/>
	</g>
	<path class="st1" d="M27.5,166.8l-1.5-0.9c-0.3-0.2-0.7-0.2-1,0l-1.5,0.9c-0.3,0.2-0.5,0.5-0.5,0.9l0,1.8c0,0.4,0.2,0.7,0.5,0.9
		l1.5,0.9c0.2,0.1,0.3,0.1,0.5,0.1c0.2,0,0.4,0,0.5-0.1l1.5-0.9c0.3-0.2,0.5-0.5,0.5-0.9l0-1.8C28,167.3,27.8,167,27.5,166.8z"/>
	<path class="st1" d="M31.4,175.9l-1.2-1.5c-0.2-0.3-0.5-0.4-0.8-0.4l-7.9,0h0c-0.3,0-0.6,0.1-0.8,0.4l-1.2,1.5
		c-0.3,0.4-0.3,0.9,0,1.3l1.2,1.5c0.2,0.3,0.5,0.4,0.8,0.4l7.9,0h0c0.3,0,0.6-0.1,0.8-0.4l1.2-1.5C31.7,176.8,31.7,176.2,31.4,175.9
		z"/>
	<g>
		<path class="st1" d="M19.3,186.3v6.4h-1.2V190h-2.9v2.7H14v-6.4h1.2v2.6h2.9v-2.6H19.3z"/>
		<path class="st1" d="M25.6,191.8c0.3,0,0.6-0.1,0.8-0.2s0.4-0.3,0.5-0.5c0.1-0.2,0.2-0.4,0.3-0.7c0.1-0.3,0.1-0.5,0.1-0.8v-3.4
			h1.3v3.4c0,0.5-0.1,0.9-0.2,1.3c-0.1,0.4-0.3,0.7-0.5,1c-0.2,0.3-0.5,0.5-0.9,0.7c-0.4,0.2-0.8,0.3-1.3,0.3c-0.5,0-1-0.1-1.4-0.3
			c-0.4-0.2-0.7-0.4-0.9-0.7c-0.2-0.3-0.4-0.6-0.5-1c-0.1-0.4-0.2-0.8-0.2-1.2v-3.4h1.3v3.4c0,0.3,0,0.5,0.1,0.8
			c0.1,0.3,0.1,0.5,0.3,0.7c0.1,0.2,0.3,0.4,0.5,0.5C25,191.7,25.3,191.8,25.6,191.8z"/>
		<path class="st1" d="M31.8,192.7v-6.4h2.3c0.5,0,1,0.1,1.4,0.3c0.4,0.2,0.7,0.4,1,0.7c0.3,0.3,0.5,0.6,0.6,1
			c0.1,0.4,0.2,0.8,0.2,1.2c0,0.5-0.1,0.9-0.2,1.3c-0.1,0.4-0.4,0.7-0.6,1c-0.3,0.3-0.6,0.5-1,0.6c-0.4,0.2-0.8,0.2-1.3,0.2H31.8z
			 M36,189.5c0-0.3,0-0.6-0.1-0.8c-0.1-0.3-0.2-0.5-0.4-0.7c-0.2-0.2-0.4-0.3-0.6-0.4c-0.2-0.1-0.5-0.2-0.8-0.2H33v4.2h1.1
			c0.3,0,0.6-0.1,0.8-0.2c0.2-0.1,0.4-0.3,0.6-0.4c0.2-0.2,0.3-0.4,0.4-0.7C36,190.1,36,189.8,36,189.5z"/>
	</g>
</g>
</svg>
