<?xml version="1.0" encoding="UTF-8" standalone="no"?>
<!-- Created with Inkscape (http://www.inkscape.org/) -->

<svg
   xmlns:dc="http://purl.org/dc/elements/1.1/"
   xmlns:cc="http://creativecommons.org/ns#"
   xmlns:rdf="http://www.w3.org/1999/02/22-rdf-syntax-ns#"
   xmlns:svg="http://www.w3.org/2000/svg"
   xmlns="http://www.w3.org/2000/svg"
   xmlns:sodipodi="http://sodipodi.sourceforge.net/DTD/sodipodi-0.dtd"
   xmlns:inkscape="http://www.inkscape.org/namespaces/inkscape"
   width="45"
   height="45"
   id="svg3827"
   version="1.1"
   inkscape:version="0.48.1 r9760"
   sodipodi:docname="load-script.svg">
  <defs
     id="defs3829" />
  <sodipodi:namedview
     id="base"
     pagecolor="#ffffff"
     bordercolor="#666666"
     borderopacity="1.0"
     inkscape:pageopacity="0.0"
     inkscape:pageshadow="2"
     inkscape:zoom="3.959798"
     inkscape:cx="171.17264"
     inkscape:cy="-8.0710166"
     inkscape:document-units="px"
     inkscape:current-layer="layer1"
     showgrid="false"
     inkscape:window-width="1920"
     inkscape:window-height="1028"
     inkscape:window-x="-8"
     inkscape:window-y="-8"
     inkscape:window-maximized="1" />
  <metadata
     id="metadata3832">
    <rdf:RDF>
      <cc:Work
         rdf:about="">
        <dc:format>image/svg+xml</dc:format>
        <dc:type
           rdf:resource="http://purl.org/dc/dcmitype/StillImage" />
        <dc:title></dc:title>
        <dc:creator>
          <cc:Agent>
            <dc:title>T.Hofmeister</dc:title>
          </cc:Agent>
        </dc:creator>
      </cc:Work>
    </rdf:RDF>
  </metadata>
  <g
     inkscape:label="Ebene 1"
     inkscape:groupmode="layer"
     id="layer1"
     transform="translate(0,-1007.3622)">
    <g
       id="layer1-7"
       transform="matrix(-0.25019951,0,0,0.28877175,123.44112,917.40972)"
       style="fill:#696969">
      <g
         id="g3257"
         transform="matrix(1.9175,0,0,1.9175,-607.19,-179.09)"
         style="fill:#696969">
        <path
           id="path3224"
           d="m 563.06,260.72 -1.25,0.16 -40.15,4.87 -1.66,0.22 0.38,1.62 c 3.78,16.93 -0.59,34.07 -2.88,51.57 l -0.22,1.84 1.81,-0.16 42,-3 1.25,-0.06 0.16,-1.25 c 2.13,-17.86 6.92,-36.12 0.94,-54.62 l -0.38,-1.19 z m -2.18,3.28 c 4.96,16.72 -1.56,33.17 -3.72,50.47 l -35.63,2.78 c 2.25,-16.14 7.03,-29.55 3.78,-46.19 L 560.88,264 z"
           style="fill:#696969;fill-rule:evenodd"
           inkscape:connector-curvature="0" />
        <path
           id="path3237"
           d="m 531.39,275.61 23.34,-4.6"
           style="fill:#696969;stroke:#000000;stroke-width:1px"
           inkscape:connector-curvature="0" />
        <path
           id="path3243"
           d="m 532.1,280.91 22.27,-2.83"
           style="fill:#696969;stroke:#000000;stroke-width:1px"
           inkscape:connector-curvature="0" />
        <path
           id="path3247"
           d="m 531.92,285.86 22.89,-1.95"
           style="fill:#696969;stroke:#000000;stroke-width:1px"
           inkscape:connector-curvature="0" />
        <path
           id="path3249"
           d="m 530.15,292.84 24.22,-2.12"
           style="fill:#696969;stroke:#000000;stroke-width:1px"
           inkscape:connector-curvature="0" />
        <path
           id="path3251"
           d="m 529.45,297.53 22.98,-0.8"
           style="fill:#696969;stroke:#000000;stroke-width:1px"
           inkscape:connector-curvature="0" />
        <path
           id="path3253"
           d="m 528.65,304.24 22.45,-2.56"
           style="fill:#696969;stroke:#000000;stroke-width:1px"
           inkscape:connector-curvature="0" />
        <path
           id="path3255"
           d="m 527.5,309.37 22.81,-1.77"
           style="fill:#696969;stroke:#000000;stroke-width:1px"
           inkscape:connector-curvature="0" />
      </g>
    </g>
    <path
       display="block"
       d="m 22.50945,1041.7031 c 10.249979,14.5758 18.326744,5.8628 15.179173,-14.1826 l 3.401516,-0.2354 -8.04206,-17.0393 -2.800459,17.789 3.507825,-0.2428 c 2.535261,14.6877 0.402108,18.0407 -11.324416,13.7916 z"
       style="color:#000000;fill:#a9a9a9;stroke:#000000;stroke-width:0.61923206;display:block"
       id="path1432"
       inkscape:connector-curvature="0"
       sodipodi:nodetypes="cccccccc" />
    <rect
       style="color:#000000;fill:#00ffff;fill-opacity:0;fill-rule:nonzero;stroke:none;stroke-width:0.42527184;marker:none;visibility:visible;display:inline;overflow:visible;enable-background:accumulate"
       id="rect3032"
       width="44.57473"
       height="44.57473"
       x="0.18852967"
       y="1007.5989" />
  </g>
</svg>
