<?xml version="1.0" encoding="utf-8"?>
<!-- Generator: Adobe Illustrator 17.0.2, SVG Export Plug-In . SVG Version: 6.00 Build 0)  -->
<!DOCTYPE svg PUBLIC "-//W3C//DTD SVG 1.1//EN" "http://www.w3.org/Graphics/SVG/1.1/DTD/svg11.dtd">
<svg version="1.1" id="Layer_1" xmlns="http://www.w3.org/2000/svg" xmlns:xlink="http://www.w3.org/1999/xlink" xml:space="preserve">
<g>
	<path fill="#666666" d="M15.049,10.75c0,0.688-0.562,1.25-1.25,1.25h-12.5c-0.688,0-1.25-0.562-1.25-1.25v-9.5
		C0.049,0.562,0.611,0,1.299,0h12.5c0.688,0,1.25,0.562,1.25,1.25V10.75z M1.299,1c-0.133,0-0.25,0.117-0.25,0.25v9.5
		c0,0.133,0.117,0.25,0.25,0.25h12.5c0.133,0,0.25-0.117,0.25-0.25v-9.5c0-0.133-0.117-0.25-0.25-0.25H1.299z M3.549,5
		c-0.828,0-1.5-0.672-1.5-1.5S2.72,2,3.549,2s1.5,0.672,1.5,1.5S4.377,5,3.549,5z M13.049,10h-11V8.5l2.5-2.5l1.25,1.25l4-4
		l3.25,3.25V10z"/>
</g>
</svg>
