<?xml version="1.0" encoding="UTF-8" standalone="no"?>
<!-- Created with Inkscape (http://www.inkscape.org/) -->

<svg
   xmlns:dc="http://purl.org/dc/elements/1.1/"
   xmlns:cc="http://creativecommons.org/ns#"
   xmlns:rdf="http://www.w3.org/1999/02/22-rdf-syntax-ns#"
   xmlns:svg="http://www.w3.org/2000/svg"
   xmlns="http://www.w3.org/2000/svg"
   xmlns:xlink="http://www.w3.org/1999/xlink"
   xmlns:sodipodi="http://sodipodi.sourceforge.net/DTD/sodipodi-0.dtd"
   xmlns:inkscape="http://www.inkscape.org/namespaces/inkscape"
   width="45"
   height="45"
   id="svg3827"
   version="1.1"
   inkscape:version="0.48.1 r9760"
   sodipodi:docname="load-script - Kopie.svg">
  <defs
     id="defs3829">
    <linearGradient
       x1="28.061"
       x2="28.061"
       y1="31.431"
       gradientUnits="userSpaceOnUse"
       y2="36.437"
       id="linearGradient6971">
      <stop
         offset="0"
         stop-color="#ddd"
         id="stop6967" />
      <stop
         offset="1"
         stop-color="#fdfdfd"
         id="stop6969" />
    </linearGradient>
    <linearGradient
       x1="12.25"
       x2="7"
       y1="18.25"
       gradientUnits="userSpaceOnUse"
       y2="21.118"
       id="linearGradient6931">
      <stop
         offset="0"
         stop-color="#204a87"
         id="stop6927" />
      <stop
         offset="1"
         stop-opacity="0"
         stop-color="#204a87"
         id="stop6929" />
    </linearGradient>
    <linearGradient
       x1="14.752"
       x2="8.8953"
       y1="15.868"
       gradientUnits="userSpaceOnUse"
       y2="16.743"
       id="linearGradient6907">
      <stop
         offset="0"
         stop-color="#3465a4"
         id="stop6903" />
      <stop
         offset="1"
         stop-opacity="0"
         stop-color="#3465a4"
         id="stop6905" />
    </linearGradient>
    <linearGradient
       x1="33.431"
       x2="21.748"
       y1="31.965"
       gradientUnits="userSpaceOnUse"
       y2="11.781"
       id="linearGradient2553">
      <stop
         offset="0"
         stop-color="#fff"
         id="stop2557" />
      <stop
         offset=".5"
         stop-color="#e6e6e6"
         id="stop2561" />
      <stop
         offset=".75"
         stop-color="#fff"
         id="stop2563" />
      <stop
         offset=".84167"
         stop-color="#e1e1e1"
         id="stop2565" />
      <stop
         offset="1"
         stop-color="#fff"
         id="stop2559" />
    </linearGradient>
    <linearGradient
       y2="26.357"
       y1="11.319"
       gradientTransform="translate(0,5.125)"
       x2="23.688"
       gradientUnits="userSpaceOnUse"
       x1="23.688"
       id="linearGradient4272">
      <stop
         offset="0"
         stop-opacity=".2549"
         stop-color="#fff"
         id="stop4276" />
      <stop
         offset="1"
         stop-color="#fff"
         id="stop4278" />
    </linearGradient>
    <linearGradient
       y2="47.621"
       y1="4.4331"
       gradientTransform="translate(0,5.125)"
       x2="44.096"
       gradientUnits="userSpaceOnUse"
       x1="12.378"
       id="linearGradient4260">
      <stop
         offset="0"
         stop-color="#fff"
         id="stop4256" />
      <stop
         offset="1"
         stop-opacity="0"
         stop-color="#fff"
         id="stop4258" />
    </linearGradient>
    <radialGradient
       r="20.936"
       gradientTransform="matrix(1.2862,0.7817,-0.71078,1.1696,-2.3543,0.24814)"
       cx="15.571"
       cy="2.9585"
       gradientUnits="userSpaceOnUse"
       id="radialGradient4250">
      <stop
         offset="0"
         stop-color="#e4e4e4"
         id="stop4246" />
      <stop
         offset="1"
         stop-color="#d3d3d3"
         id="stop4248" />
    </radialGradient>
    <linearGradient
       y2="33.759"
       y1="37.206"
       gradientTransform="translate(0,5.125)"
       x2="12.222"
       gradientUnits="userSpaceOnUse"
       x1="12.277"
       id="linearGradient4242">
      <stop
         offset="0"
         stop-color="#eee"
         id="stop4238" />
      <stop
         offset="1"
         stop-opacity="0"
         stop-color="#eee"
         id="stop4240" />
    </linearGradient>
    <linearGradient
       y2="40.944"
       y1="28.481"
       gradientTransform="translate(0,5.125)"
       x2="36.183"
       gradientUnits="userSpaceOnUse"
       x1="7.6046"
       id="linearGradient4234">
      <stop
         offset="0"
         stop-color="#bbb"
         id="stop4230" />
      <stop
         offset="1"
         stop-color="#9f9f9f"
         id="stop4232" />
    </linearGradient>
    <linearGradient
       y2="35.281"
       y1="35.281"
       gradientTransform="translate(0.79549,3.7992)"
       x2="24.688"
       gradientUnits="userSpaceOnUse"
       x1="7.0625"
       id="linearGradient4209">
      <stop
         offset="0"
         stop-color="#838383"
         id="stop4186" />
      <stop
         offset="1"
         stop-opacity="0"
         stop-color="#bbb"
         id="stop4188" />
    </linearGradient>
    <radialGradient
       r="15.645"
       gradientTransform="matrix(1,0,0,0.53672,0,16.873)"
       cx="24.837"
       cy="36.421"
       gradientUnits="userSpaceOnUse"
       id="radialGradient8668">
      <stop
         offset="0"
         id="stop8664" />
      <stop
         offset="1"
         stop-opacity="0"
         id="stop8666" />
    </radialGradient>
    <linearGradient
       y2="12.584"
       x2="12.624"
       gradientTransform="matrix(0.91411,0,0,0.91411,-3.8687,-2.7069)"
       y1="27.394"
       gradientUnits="userSpaceOnUse"
       x1="33.06"
       id="linearGradient1764">
      <stop
         offset="0"
         stop-color="#fff"
         id="stop2189" />
      <stop
         offset="1"
         stop-opacity="0"
         stop-color="#fff"
         id="stop2191" />
    </linearGradient>
    <radialGradient
       r="19.062"
       gradientTransform="matrix(-1.3145,-0.010063,-0.01023,1.3362,46.221,-4.9099)"
       cx="23.447"
       cy="6.4577"
       gradientUnits="userSpaceOnUse"
       id="radialGradient4997">
      <stop
         offset="0"
         stop-color="#fff"
         id="stop4993" />
      <stop
         offset="1"
         stop-opacity="0"
         stop-color="#fff"
         id="stop4995" />
    </radialGradient>
    <linearGradient
       y2="609.51"
       x2="302.86"
       gradientTransform="matrix(2.7744,0,0,1.9697,-1892.2,-872.89)"
       y1="366.65"
       gradientUnits="userSpaceOnUse"
       x1="302.86"
       id="linearGradient5027">
      <stop
         offset="0"
         stop-opacity="0"
         id="stop5050" />
      <stop
         offset=".5"
         id="stop5056" />
      <stop
         offset="1"
         stop-opacity="0"
         id="stop5052" />
    </linearGradient>
    <radialGradient
       r="117.14"
       gradientTransform="matrix(2.7744,0,0,1.9697,-1891.6,-872.89)"
       cx="605.71"
       cy="486.65"
       gradientUnits="userSpaceOnUse"
       xlink:href="#linearGradient5060"
       id="radialGradient5029" />
    <linearGradient
       id="linearGradient5060">
      <stop
         offset="0"
         id="stop5062" />
      <stop
         offset="1"
         stop-opacity="0"
         id="stop5064" />
    </linearGradient>
    <radialGradient
       r="117.14"
       gradientTransform="matrix(-2.7744,0,0,1.9697,112.76,-872.89)"
       cx="605.71"
       cy="486.65"
       gradientUnits="userSpaceOnUse"
       xlink:href="#linearGradient5060"
       id="radialGradient5031" />
    <linearGradient
       inkscape:collect="always"
       xlink:href="#linearGradient6971"
       id="linearGradient3239"
       gradientUnits="userSpaceOnUse"
       x1="28.061"
       y1="31.431"
       x2="28.061"
       y2="36.437"
       gradientTransform="translate(51.972416,1005.3761)" />
    <radialGradient
       inkscape:collect="always"
       xlink:href="#radialGradient8668"
       id="radialGradient3253"
       gradientUnits="userSpaceOnUse"
       gradientTransform="matrix(1.1302,0,0,-0.40769251,48.062716,1046.2254)"
       cx="24.837"
       cy="36.421"
       r="15.645" />
    <linearGradient
       inkscape:collect="always"
       xlink:href="#linearGradient5027"
       id="linearGradient3361"
       gradientUnits="userSpaceOnUse"
       gradientTransform="matrix(2.7744,0,0,1.9697,-1892.2,-872.89)"
       x1="302.86"
       y1="366.65"
       x2="302.86"
       y2="609.51" />
    <radialGradient
       inkscape:collect="always"
       xlink:href="#linearGradient5060"
       id="radialGradient3363"
       gradientUnits="userSpaceOnUse"
       gradientTransform="matrix(2.7744,0,0,1.9697,-1891.6,-872.89)"
       cx="605.71"
       cy="486.65"
       r="117.14" />
    <radialGradient
       inkscape:collect="always"
       xlink:href="#linearGradient5060"
       id="radialGradient3365"
       gradientUnits="userSpaceOnUse"
       gradientTransform="matrix(-2.7744,0,0,1.9697,112.76,-872.89)"
       cx="605.71"
       cy="486.65"
       r="117.14" />
    <linearGradient
       inkscape:collect="always"
       xlink:href="#linearGradient4234"
       id="linearGradient3367"
       gradientUnits="userSpaceOnUse"
       gradientTransform="translate(0,5.125)"
       x1="7.6046"
       y1="28.481"
       x2="36.183"
       y2="40.944" />
    <radialGradient
       inkscape:collect="always"
       xlink:href="#radialGradient4250"
       id="radialGradient3369"
       gradientUnits="userSpaceOnUse"
       gradientTransform="matrix(1.2862,0.7817,-0.71078,1.1696,-2.3543,0.24814)"
       cx="15.571"
       cy="2.9585"
       r="20.936" />
    <linearGradient
       inkscape:collect="always"
       xlink:href="#linearGradient4209"
       id="linearGradient3371"
       gradientUnits="userSpaceOnUse"
       gradientTransform="translate(0.79549,3.7992)"
       x1="7.0625"
       y1="35.281"
       x2="24.688"
       y2="35.281" />
    <linearGradient
       inkscape:collect="always"
       xlink:href="#linearGradient4242"
       id="linearGradient3373"
       gradientUnits="userSpaceOnUse"
       gradientTransform="translate(0,5.125)"
       x1="12.277"
       y1="37.206"
       x2="12.222"
       y2="33.759" />
    <linearGradient
       inkscape:collect="always"
       xlink:href="#linearGradient4272"
       id="linearGradient3375"
       gradientUnits="userSpaceOnUse"
       gradientTransform="translate(0,5.125)"
       x1="23.688"
       y1="11.319"
       x2="23.688"
       y2="26.357" />
    <linearGradient
       inkscape:collect="always"
       xlink:href="#linearGradient4260"
       id="linearGradient3377"
       gradientUnits="userSpaceOnUse"
       gradientTransform="translate(0,5.125)"
       x1="12.378"
       y1="4.4331"
       x2="44.096"
       y2="47.621" />
    <linearGradient
       inkscape:collect="always"
       xlink:href="#linearGradient2553"
       id="linearGradient3379"
       gradientUnits="userSpaceOnUse"
       x1="33.431"
       y1="31.965"
       x2="21.748"
       y2="11.781" />
    <radialGradient
       inkscape:collect="always"
       xlink:href="#radialGradient8668"
       id="radialGradient3381"
       gradientUnits="userSpaceOnUse"
       gradientTransform="matrix(1.1302,0,0,-0.40769251,48.062716,1046.2254)"
       cx="24.837"
       cy="36.421"
       r="15.645" />
    <linearGradient
       inkscape:collect="always"
       xlink:href="#linearGradient6971"
       id="linearGradient3383"
       gradientUnits="userSpaceOnUse"
       gradientTransform="translate(51.972416,1005.3761)"
       x1="28.061"
       y1="31.431"
       x2="28.061"
       y2="36.437" />
  </defs>
  <sodipodi:namedview
     id="base"
     pagecolor="#ffffff"
     bordercolor="#666666"
     borderopacity="1.0"
     inkscape:pageopacity="0.0"
     inkscape:pageshadow="2"
     inkscape:zoom="5.6"
     inkscape:cx="113.76169"
     inkscape:cy="-12.107928"
     inkscape:document-units="px"
     inkscape:current-layer="layer1"
     showgrid="false"
     inkscape:window-width="1920"
     inkscape:window-height="1028"
     inkscape:window-x="-8"
     inkscape:window-y="-8"
     inkscape:window-maximized="1" />
  <metadata
     id="metadata3832">
    <rdf:RDF>
      <cc:Work
         rdf:about="">
        <dc:format>image/svg+xml</dc:format>
        <dc:type
           rdf:resource="http://purl.org/dc/dcmitype/StillImage" />
        <dc:title></dc:title>
        <dc:creator>
          <cc:Agent>
            <dc:title>T.Hofmeister</dc:title>
          </cc:Agent>
        </dc:creator>
      </cc:Work>
    </rdf:RDF>
  </metadata>
  <g
     inkscape:label="Ebene 1"
     inkscape:groupmode="layer"
     id="layer1"
     transform="translate(0,-1007.3622)">
    <g
       id="g3385">
      <g
         transform="matrix(0.87964671,0,0,1,-44.027424,-2)"
         id="g3255">
        <g
           id="layer2"
           transform="translate(51.972416,1005.3761)">
          <g
             id="g5022"
             transform="matrix(0.024114,0,0,0.019292,45.49,41.752)">
            <rect
               id="rect4173"
               style="opacity:0.40206;color:#000000;fill:url(#linearGradient3361)"
               height="478.35999"
               width="1339.6"
               y="-150.7"
               x="-1559.3" />
            <path
               inkscape:connector-curvature="0"
               id="path5058"
               style="opacity:0.40206;color:#000000;fill:url(#radialGradient3363)"
               d="m -219.62,-150.68 v 478.33 c 142.88,0.9 345.4,-107.17 345.4,-239.2 0,-132.02 -159.44,-239.13 -345.4,-239.13 z" />
            <path
               inkscape:connector-curvature="0"
               id="path5018"
               style="opacity:0.40206;color:#000000;fill:url(#radialGradient3365)"
               d="m -1559.3,-150.68 v 478.33 c -142.8,0.9 -345.4,-107.17 -345.4,-239.2 0,-132.02 159.5,-239.13 345.4,-239.13 z" />
          </g>
          <path
             style="fill:none;stroke:#535353;stroke-width:2;stroke-linecap:round;stroke-linejoin:round"
             inkscape:connector-curvature="0"
             id="path4196"
             d="m 11.286,13.088 c -0.625,0 -1.032,0.29 -1.282,0.843 L 3.5357,31.035 c 0,0 -0.25,0.671 -0.25,1.781 v 9.65 c 0,1.083 0.6578,1.625 1.6562,1.625 h 38.562 c 0.985,0 1.594,-0.718 1.594,-1.844 v -9.65 c 0,0 0.106,-0.77 -0.094,-1.312 l -6.718,-17.197 c -0.185,-0.512 -0.637,-0.988 -1.125,-1 h -25.875 z" />
          <path
             style="fill:url(#linearGradient3367);fill-rule:evenodd"
             inkscape:connector-curvature="0"
             id="path4170"
             d="m 3.2736,32.122 0.7646,-0.692 37.61,0.062 3.462,0.317 v 10.439 c 0,1.125 -0.607,1.843 -1.592,1.843 H 4.9352 c -0.998,0 -1.6614,-0.542 -1.6614,-1.624 V 32.122 z" />
          <path
             style="fill:url(#radialGradient3369);fill-rule:evenodd"
             inkscape:connector-curvature="0"
             id="path3093"
             d="m 3.5491,31.039 c -0.7143,1.465 -6e-4,2.393 1.0357,2.393 h 39 c 1.119,-0.024 1.845,-1.012 1.428,-2.143 l -6.714,-17.21 c -0.184,-0.512 -0.655,-0.988 -1.143,-1 h -25.857 c -0.625,0 -1.036,0.303 -1.286,0.857 L 3.5489,31.039 z" />
          <rect
             id="rect4174"
             style="color:#000000;fill:url(#linearGradient3371);fill-rule:evenodd"
             height="5.5625"
             width="17.625"
             y="36.299"
             x="7.8579998" />
          <path
             style="opacity:0.81142997;fill:url(#linearGradient3373);fill-rule:evenodd"
             inkscape:connector-curvature="0"
             id="path4194"
             d="M 7.858,41.862 V 37.85 c 1.8355,3.179 8.296,4.012 12.937,4.012 H 7.858 z" />
          <path
             style="fill:#ffffff;fill-rule:evenodd"
             inkscape:connector-curvature="0"
             id="path4201"
             d="m 44.796,30.754 c 0.064,1.25 -0.414,2.316 -1.322,2.343 H 5.355 c -1.2889,0 -1.8674,-0.325 -2.0837,-0.868 0.0917,0.945 0.8258,1.65 2.084,1.65 h 38.119 c 1.076,-0.033 1.753,-1.424 1.352,-2.995 l -0.03,-0.13 z" />
          <path
             inkscape:connector-curvature="0"
             id="path4211"
             style="opacity:0.69142995;color:#000000;fill:url(#linearGradient3375);fill-rule:evenodd"
             d="m 10.969,15.281 c -0.046,0.201 -0.188,0.387 -0.188,0.594 0,0.949 0.591,1.789 1.344,2.594 0.24,-0.154 0.365,-0.355 0.625,-0.5 -0.94,-0.816 -1.553,-1.717 -1.781,-2.688 z m 26.656,0 c -0.229,0.97 -0.842,1.873 -1.781,2.688 0.274,0.153 0.404,0.368 0.656,0.531 0.757,-0.807 1.312,-1.673 1.312,-2.625 0,-0.207 -0.141,-0.393 -0.187,-0.594 z m 2.187,8.438 c -0.613,4.04 -7.298,7.25 -15.531,7.25 -8.212,0 -14.86,-3.193 -15.5,-7.219 -0.0321,0.197 -0.1248,0.392 -0.1248,0.594 10e-5,4.318 6.9888,7.844 15.625,7.844 8.636,0 15.656,-3.526 15.657,-7.844 0,-0.213 -0.09,-0.418 -0.126,-0.625 z" />
          <path
             inkscape:connector-curvature="0"
             id="path4224"
             style="color:#000000;fill:#ffffff;fill-opacity:0.45762999;fill-rule:evenodd"
             d="m 8.5737,25.594 a 1.37005,1.0165371 0 1 1 -2.7401,0 1.37005,1.0165371 0 1 1 2.7401,0 z"
             transform="translate(0.088388,5.3018)" />
          <path
             inkscape:connector-curvature="0"
             id="path4226"
             style="color:#000000;fill:#ffffff;fill-opacity:0.45762999;fill-rule:evenodd"
             d="m 8.5737,25.594 a 1.37005,1.0165371 0 1 1 -2.7401,0 1.37005,1.0165371 0 1 1 2.7401,0 z"
             transform="translate(33.967,5.2134)" />
          <path
             style="fill:none;stroke:url(#linearGradient3377);stroke-linecap:round;stroke-linejoin:round"
             inkscape:connector-curvature="0"
             id="path4252"
             d="m 11.643,13.541 c -0.602,0 -0.993,0.279 -1.234,0.812 L 3.994,30.944 c 0,0 -0.2406,0.646 -0.2406,1.715 v 9.29 c 0,1.354 0.444,1.627 1.5944,1.627 h 37.687 c 1.323,0 1.534,-0.317 1.534,-1.838 v -9.29 c 0,0 0.102,-0.742 -0.09,-1.264 l -6.593,-16.806 c -0.178,-0.492 -0.551,-0.826 -1.021,-0.837 h -25.222 z" />
          <path
             style="fill:none;stroke:#ffffff;stroke-width:1px;stroke-linecap:square;stroke-opacity:0.42372999"
             inkscape:connector-curvature="0"
             id="path4282"
             d="m 40.5,36.554 v 5.021" />
          <path
             style="fill:none;stroke:#ffffff;stroke-width:1px;stroke-linecap:square;stroke-opacity:0.42372999"
             inkscape:connector-curvature="0"
             id="path4284"
             d="m 38.5,36.614 v 5.021" />
          <path
             style="fill:none;stroke:#ffffff;stroke-width:1px;stroke-linecap:square;stroke-opacity:0.42372999"
             inkscape:connector-curvature="0"
             id="path4286"
             d="m 36.5,36.614 v 5.021" />
          <path
             style="fill:none;stroke:#ffffff;stroke-width:1px;stroke-linecap:square;stroke-opacity:0.42372999"
             inkscape:connector-curvature="0"
             id="path4288"
             d="m 34.5,36.614 v 5.021" />
          <path
             style="fill:none;stroke:#ffffff;stroke-width:1px;stroke-linecap:square;stroke-opacity:0.42372999"
             inkscape:connector-curvature="0"
             id="path4290"
             d="m 32.5,36.614 v 5.021" />
          <path
             style="fill:none;stroke:#ffffff;stroke-width:1px;stroke-linecap:square;stroke-opacity:0.42372999"
             inkscape:connector-curvature="0"
             id="path4292"
             d="m 30.5,36.614 v 5.021" />
          <path
             style="opacity:0.09714302;fill:none;stroke:#000000;stroke-width:1px;stroke-linecap:square"
             inkscape:connector-curvature="0"
             id="path4294"
             d="m 39.5,36.604 v 5.021" />
          <path
             style="opacity:0.09714302;fill:none;stroke:#000000;stroke-width:1px;stroke-linecap:square"
             inkscape:connector-curvature="0"
             id="path4296"
             d="m 37.5,36.664 v 5.021" />
          <path
             style="opacity:0.09714302;fill:none;stroke:#000000;stroke-width:1px;stroke-linecap:square"
             inkscape:connector-curvature="0"
             id="path4298"
             d="m 35.5,36.664 v 5.021" />
          <path
             style="opacity:0.09714302;fill:none;stroke:#000000;stroke-width:1px;stroke-linecap:square"
             inkscape:connector-curvature="0"
             id="path4300"
             d="m 33.5,36.664 v 5.021" />
          <path
             style="opacity:0.09714302;fill:none;stroke:#000000;stroke-width:1px;stroke-linecap:square"
             inkscape:connector-curvature="0"
             id="path4302"
             d="m 31.5,36.664 v 5.021" />
          <path
             style="opacity:0.43999999;fill:#ffffff;fill-rule:evenodd"
             inkscape:connector-curvature="0"
             id="path4572"
             d="m 7.875,36.312 v 5.532 H 20.438 L 8.219,41.5 7.875,36.312 z" />
          <path
             inkscape:connector-curvature="0"
             id="path2545"
             style="opacity:0.20571002;color:#000000;fill:url(#linearGradient3379);fill-rule:evenodd"
             d="m 39.875,19.562 a 14.875,6.6875 0 1 1 -29.75,0 14.875,6.6875 0 1 1 29.75,0 z"
             transform="matrix(1.0378,0,0,1.0607,-1.6329,3.0304)" />
        </g>
        <path
           d="m 93.815472,1031.3767 a 17.681979,6.3782852 0 1 0 -35.363958,0 17.681979,6.3782852 0 1 0 35.363958,0 z"
           style="opacity:0.14118;color:#000000;fill:url(#radialGradient3381);fill-rule:evenodd"
           id="path8660"
           inkscape:connector-curvature="0" />
        <rect
           x="56.535915"
           y="1035.6741"
           width="39.248001"
           height="12.278"
           ry="1.625"
           rx="1.625"
           display="block"
           style="color:#000000;fill:url(#linearGradient3383);stroke:#7d7d7d;stroke-linecap:round;display:block"
           id="rect6951" />
        <rect
           x="58.972416"
           y="1038.3761"
           width="16"
           height="7"
           ry="0"
           display="block"
           style="opacity:0.59658999;color:#000000;fill:#7d7d7d;display:block"
           id="rect6953" />
        <rect
           display="block"
           height="9"
           x="75.97242"
           y="1037.3761"
           width="1"
           style="color:#000000;display:block"
           id="rect6957" />
      </g>
      <path
         sodipodi:nodetypes="cccccccc"
         inkscape:connector-curvature="0"
         id="path1432"
         style="color:#000000;fill:#a9a9a9;stroke:#000000;stroke-width:0.48586071;display:block"
         d="m 6.087091,1019.0168 c -2.4783484,-13.3382 7.140839,-12.9964 16.821938,-0.5354 l 2.083662,-1.7011 5.154697,13.4755 -11.796108,-8.0529 2.148807,-1.7542 c -6.962373,-9.2534 -10.105498,-9.9089 -14.389461,-1.3256 z"
         display="block" />
      <rect
         y="1007.8514"
         x="0.20883489"
         height="44.57473"
         width="44.57473"
         id="rect3032"
         style="color:#000000;fill:#00ffff;fill-opacity:0;fill-rule:nonzero;stroke:none;stroke-width:0.42527184;marker:none;visibility:visible;display:inline;overflow:visible;enable-background:accumulate" />
    </g>
  </g>
</svg>
