<?xml version="1.0" encoding="utf-8"?>
<!-- Generator: Adobe Illustrator 19.1.0, SVG Export Plug-In . SVG Version: 6.00 Build 0)  -->
<svg version="1.1" baseProfile="tiny" id="Layer_1" xmlns="http://www.w3.org/2000/svg" xmlns:xlink="http://www.w3.org/1999/xlink"
	 x="0px" y="0px" width="1600px" height="100px" viewBox="0 0 1600 100" xml:space="preserve">
<path fill="#FFFFFF" d="M92.8,69.3c-0.8-1.5-1.9-2.7-3.1-3.8c4.4-11.4,3.7-24.6-2.6-35.8c-9.2-16.3-28.3-24.4-46.3-20l-3.1,0.7
	l4.9,8.7l1.7-0.3c13.7-2.7,27.6,3.6,34.5,15.7c4.9,8.7,5.5,18.9,1.9,27.9c-2.1,0.1-4.3,0.6-6.2,1.8c-6.5,3.7-8.8,12-5.1,18.5
	c3.7,6.5,12,8.8,18.5,5.1C94.2,84.1,96.5,75.8,92.8,69.3z"/>
<path fill="#FFFFFF" d="M54.2,82.6l-1.5,0.1c-12.3,0.8-24.2-5.6-30.2-16.3c-3.8-6.6-4.9-14.2-3.7-21.3c2.8,0.4,5.9-0.1,8.6-1.6
	c6.5-3.7,8.8-12,5.1-18.5s-12-8.8-18.5-5.1C7.7,23.7,5.4,32,9,38.5c0.3,0.6,0.7,1.2,1.2,1.7c-2.6,10.3-1.4,21.5,4.1,31.1
	c7.5,13.2,21.5,21.2,36.5,21.2c1.8,0,3.5-0.1,5.2-0.3l3.6-0.4L54.2,82.6z"/>
<path fill="#FFFFFF" d="M67.2,63.4H33.8c-1,0-2.1-0.5-2.6-1.5c-0.5-0.9-0.5-2.1,0-3L47.8,30c0.5-0.9,1.6-1.5,2.6-1.5
	s2.1,0.5,2.6,1.5l16.7,28.9c0.5,0.9,0.5,2.1,0,3C69.3,62.9,68.3,63.4,67.2,63.4z M39,57.4h23L50.4,37.5L39,57.4z"/>
<polygon fill="#FFFFFF" points="175.4,30.6 149.9,8 123.9,30.7 139,30.7 139.2,59.6 161,59.3 160.8,30.7 "/>
<polygon fill="#FFFFFF" points="225.6,39.8 251.1,62.5 277.1,39.8 261.9,39.8 261.7,8.9 240,9.2 240.2,39.8 "/>
<path fill="#FFFFFF" d="M174.3,42.8c1.8,3.7,2.8,7.8,2.8,12.1c0,15.2-12.3,27.5-27.5,27.5c-15.2,0-27.5-12.3-27.5-27.5
	c0-4.4,1-8.5,2.9-12.1h-7.9c-1.4,3.8-2.2,7.8-2.2,12.1c0,19.2,15.6,34.7,34.7,34.7c19.2,0,34.7-15.6,34.7-34.7
	c0-4.3-0.8-8.3-2.2-12.1H174.3z"/>
<path fill="#FFFFFF" d="M278.8,53c0.1,0.7,0.1,1.5,0.1,2.2c0,15.2-12.4,27.6-27.6,27.6c-15.2,0-27.6-12.4-27.6-27.6
	c0-1.1,0.1-2.1,0.2-3.1c-2.1-2.1-4.1-4.1-6.2-6.2c-0.8,3-1.3,6.1-1.3,9.3c0,19.2,15.6,34.9,34.9,34.9s34.9-15.6,34.9-34.9
	c0-2.9-0.4-5.8-1.1-8.5L278.8,53z"/>
<circle fill="none" stroke="#000000" stroke-width="7" stroke-miterlimit="10" stroke-dasharray="7.7202,7.7202" cx="-174" cy="-5.8" r="14.7"/>
<path d="M-174-10.6c2.6,0,4.7,2.1,4.7,4.7s-2.1,4.7-4.7,4.7s-4.7-2.1-4.7-4.7S-176.6-10.6-174-10.6 M-174-17.6
	c-6.5,0-11.7,5.3-11.7,11.7s5.3,11.7,11.7,11.7s11.7-5.3,11.7-11.7S-167.5-17.6-174-17.6L-174-17.6z"/>
<path fill="#FFFFFF" d="M353.3,91.2c-0.3,0-0.7,0-1,0c-1.8-0.2-3.5-0.4-5.3-0.7c-21.3-3.6-35.2-22.8-32-44.2
	c2.7-18.2,17.7-31.4,36.8-32.5c17.2-0.9,33.8,11.4,38.2,28.5c0.8,3.1,1.1,6.3,1.6,9.5c0,0.3,0,0.7,0,1c-0.2,0.9-0.4,1.8-0.5,2.7
	c-1.3,16.3-12.9,30.1-28.8,34C359.3,90.4,356.3,90.7,353.3,91.2z M353.7,83.9c8.3,0,16.1-3.4,22.6-9.9c2.2-2.2,2-3.1-0.7-4.5
	c-3.9-1.9-7.8-3.7-11.7-5.6c-4-2-4.6-8.1-1.1-10.8c2-1.5,2.4-3.7,2.1-5.9c-0.2-1.8-1-3.5-1.2-5.3c-0.6-6-5.2-10.2-11.1-10.1
	c-5.9,0.1-10.4,4.8-10.6,10.9c-0.1,1.4-0.4,2.8-0.9,4.1c-0.6,1.9,0.1,4.9,1.7,6.3c3.8,3.1,3.1,9-1.4,11.2c-3.6,1.7-7.2,3.4-10.8,5.2
	c-3.4,1.6-3.6,2.5-0.8,5.1C336.2,80.6,343.8,83.9,353.7,83.9z"/>
<polygon fill="#FFFFFF" points="445.3,14.1 484.6,14.1 461.5,38.2 485.6,41.4 422.2,86.9 441.2,53.4 425.6,49.3 "/>
</svg>
