<svg width="21" height="21" viewBox="0 0 21 21" fill="none" xmlns="http://www.w3.org/2000/svg">
<path d="M10.4866 0C4.92045 0 0.367395 4.32104 0 9.78734L5.45262 11.9841C5.93184 11.651 6.51333 11.4545 7.14145 11.4545C7.27641 11.4545 7.4083 11.4666 7.53829 11.4841L10.1047 7.72495C10.1083 5.56672 11.861 3.81818 14.0229 3.81818C16.1872 3.81818 17.9416 5.57035 17.9416 7.73182C17.9416 9.89329 16.1872 11.6455 14.0229 11.6455C14.021 11.6455 14.0189 11.6453 14.017 11.6453L10.0936 14.2008C10.0986 14.2712 10.1043 14.3419 10.1043 14.4136C10.1043 16.048 8.77791 17.3727 7.14145 17.3727C5.69539 17.3727 4.49304 16.3376 4.2325 14.969L0.378099 13.3841C1.6334 17.7801 5.6822 21 10.4866 21C16.2931 21 21 16.2991 21 10.5C21 4.70114 16.2931 0 10.4866 0ZM7.14145 16.0364C6.96655 16.0364 6.79833 16.0081 6.64044 15.9569L6.63968 15.9589L6.59151 15.939C6.54506 15.9224 6.49975 15.9037 6.45541 15.8831L5.15462 15.3483C5.50614 16.0927 6.26253 16.6091 7.14145 16.6091C8.35546 16.6091 9.33971 15.6263 9.33971 14.4136C9.33971 13.201 8.35546 12.2182 7.14145 12.2182C6.87269 12.2182 6.61636 12.2688 6.37818 12.357L7.75448 12.9114C7.76404 12.9154 7.77359 12.9188 7.78296 12.923L7.89001 12.9662L7.88714 12.9732C8.40898 13.243 8.76625 13.7861 8.76625 14.4136C8.76625 15.3098 8.03872 16.0364 7.14145 16.0364ZM16.7946 7.73182C16.7946 6.20302 15.5537 4.96364 14.0229 4.96364C12.4922 4.96364 11.2512 6.20302 11.2512 7.73182C11.2512 9.26062 12.4922 10.5 14.0229 10.5C15.5537 10.5 16.7946 9.26062 16.7946 7.73182ZM12.0158 7.73182C12.0158 6.62474 12.9144 5.72727 14.0229 5.72727C15.1314 5.72727 16.03 6.62474 16.03 7.73182C16.03 8.8389 15.1314 9.73636 14.0229 9.73636C12.9144 9.73636 12.0158 8.8389 12.0158 7.73182Z" fill="white"/>
</svg>

