<?xml version="1.0" encoding="UTF-8" standalone="no"?>
<!-- Created with Inkscape (http://www.inkscape.org/) -->

<svg
   xmlns:dc="http://purl.org/dc/elements/1.1/"
   xmlns:cc="http://creativecommons.org/ns#"
   xmlns:rdf="http://www.w3.org/1999/02/22-rdf-syntax-ns#"
   xmlns:svg="http://www.w3.org/2000/svg"
   xmlns="http://www.w3.org/2000/svg"
   xmlns:sodipodi="http://sodipodi.sourceforge.net/DTD/sodipodi-0.dtd"
   xmlns:inkscape="http://www.inkscape.org/namespaces/inkscape"
   width="45"
   height="45"
   id="svg3827"
   version="1.1"
   inkscape:version="0.48.1 r9760"
   sodipodi:docname="stop-script.svg">
  <defs
     id="defs3829" />
  <sodipodi:namedview
     id="base"
     pagecolor="#ffffff"
     bordercolor="#666666"
     borderopacity="1.0"
     inkscape:pageopacity="0.0"
     inkscape:pageshadow="2"
     inkscape:zoom="5.6"
     inkscape:cx="15.598703"
     inkscape:cy="22.861751"
     inkscape:document-units="px"
     inkscape:current-layer="layer1"
     showgrid="false"
     inkscape:window-width="1920"
     inkscape:window-height="1028"
     inkscape:window-x="-8"
     inkscape:window-y="-8"
     inkscape:window-maximized="1" />
  <metadata
     id="metadata3832">
    <rdf:RDF>
      <cc:Work
         rdf:about="">
        <dc:format>image/svg+xml</dc:format>
        <dc:type
           rdf:resource="http://purl.org/dc/dcmitype/StillImage" />
        <dc:title />
        <dc:creator>
          <cc:Agent>
            <dc:title>Maximillian Merlin</dc:title>
          </cc:Agent>
        </dc:creator>
      </cc:Work>
    </rdf:RDF>
  </metadata>
  <g
     inkscape:label="Ebene 1"
     inkscape:groupmode="layer"
     id="layer1"
     transform="translate(0,-1007.3622)">
    <g
       id="layer1-7"
       transform="matrix(-0.25019951,0,0,0.28877175,123.44112,917.40972)"
       style="fill:#696969">
      <g
         id="g3257"
         transform="matrix(1.9175,0,0,1.9175,-607.19,-179.09)"
         style="fill:#696969">
        <path
           id="path3224"
           d="m 563.06,260.72 -1.25,0.16 -40.15,4.87 -1.66,0.22 0.38,1.62 c 3.78,16.93 -0.59,34.07 -2.88,51.57 l -0.22,1.84 1.81,-0.16 42,-3 1.25,-0.06 0.16,-1.25 c 2.13,-17.86 6.92,-36.12 0.94,-54.62 l -0.38,-1.19 z m -2.18,3.28 c 4.96,16.72 -1.56,33.17 -3.72,50.47 l -35.63,2.78 c 2.25,-16.14 7.03,-29.55 3.78,-46.19 L 560.88,264 z"
           style="fill:#696969;fill-rule:evenodd"
           inkscape:connector-curvature="0" />
        <path
           id="path3237"
           d="m 531.39,275.61 23.34,-4.6"
           style="fill:#696969;stroke:#000000;stroke-width:1px"
           inkscape:connector-curvature="0" />
        <path
           id="path3243"
           d="m 532.1,280.91 22.27,-2.83"
           style="fill:#696969;stroke:#000000;stroke-width:1px"
           inkscape:connector-curvature="0" />
        <path
           id="path3247"
           d="m 531.92,285.86 22.89,-1.95"
           style="fill:#696969;stroke:#000000;stroke-width:1px"
           inkscape:connector-curvature="0" />
        <path
           id="path3249"
           d="m 530.15,292.84 24.22,-2.12"
           style="fill:#696969;stroke:#000000;stroke-width:1px"
           inkscape:connector-curvature="0" />
        <path
           id="path3251"
           d="m 529.45,297.53 22.98,-0.8"
           style="fill:#696969;stroke:#000000;stroke-width:1px"
           inkscape:connector-curvature="0" />
        <path
           id="path3253"
           d="m 528.65,304.24 22.45,-2.56"
           style="fill:#696969;stroke:#000000;stroke-width:1px"
           inkscape:connector-curvature="0" />
        <path
           id="path3255"
           d="m 527.5,309.37 22.81,-1.77"
           style="fill:#696969;stroke:#000000;stroke-width:1px"
           inkscape:connector-curvature="0" />
      </g>
    </g>
    <rect
       style="color:#000000;fill:#00ffff;fill-opacity:0;fill-rule:nonzero;stroke:none;stroke-width:0.42527184;marker:none;visibility:visible;display:inline;overflow:visible;enable-background:accumulate"
       id="rect3032"
       width="44.57473"
       height="44.57473"
       x="0.18852967"
       y="1007.5989" />
    <g
       id="stop"
       transform="matrix(0.08804464,0,0,0.0856179,29.060719,1033.5397)">
      <g
         id="g3004">
        <path
           d="M 0,-150 H 62.132 L 150,-62.132 V 62.128 L 62.132,150 H -62.128 L -149,62.132 V -62.128 L -61.132,-150 H 1 0 z"
           id="stop_octagon"
           inkscape:connector-curvature="0"
           style="fill:#e81108" />
      </g>
      <g
         id="g3007"
         transform="scale(0.95,0.95)">
        <path
           d="M 0,-142.5 H 59.025 L 142.5,-59.025 V 59.025 L 59.025,142.5 H -59.025 L -141.549,59.025 V -59.025 L -58.074,-142.5 H 0.951 0.001 z"
           id="stop_octagon_1_"
           inkscape:connector-curvature="0"
           style="fill:none;stroke:#ffffff;stroke-width:5" />
      </g>
      <g
         id="g3010"
         transform="scale(1,1.45)">
        <g
           id="g3012"
           style="fill:#ffffff;enable-background:new">
          <path
             id="path3014"
             d="m -124.2,12.152 8.489,-0.742 c 0.401,3.402 1.337,6.192 2.806,8.373 1.469,2.18 3.75,3.943 6.842,5.288 3.092,1.345 6.571,2.018 10.437,2.018 3.433,0 6.463,-0.51 9.092,-1.53 2.628,-1.021 4.584,-2.42 5.868,-4.198 1.283,-1.778 1.925,-3.718 1.925,-5.821 0,-2.134 -0.619,-3.997 -1.855,-5.59 -1.237,-1.592 -3.278,-2.93 -6.123,-4.013 -1.825,-0.711 -5.861,-1.816 -12.107,-3.317 -6.247,-1.5 -10.623,-2.914 -13.127,-4.244 -3.247,-1.7 -5.667,-3.811 -7.26,-6.332 -1.593,-2.52 -2.389,-5.342 -2.389,-8.465 0,-3.433 0.974,-6.641 2.922,-9.625 1.948,-2.984 4.793,-5.249 8.535,-6.796 3.741,-1.546 7.901,-2.319 12.478,-2.319 5.04,0 9.486,0.812 13.336,2.435 3.85,1.623 6.811,4.012 8.883,7.167 2.071,3.154 3.185,6.726 3.34,10.715 l -8.628,0.65 c -0.464,-4.298 -2.034,-7.545 -4.708,-9.741 -2.675,-2.195 -6.626,-3.293 -11.852,-3.293 -5.443,0 -9.409,0.997 -11.898,2.992 -2.489,1.995 -3.734,4.4 -3.734,7.213 0,2.443 0.881,4.453 2.644,6.03 1.731,1.577 6.254,3.194 13.568,4.847 7.313,1.655 12.331,3.101 15.053,4.337 3.958,1.825 6.88,4.136 8.767,6.935 1.886,2.799 2.83,6.023 2.83,9.672 0,3.618 -1.037,7.028 -3.108,10.228 -2.072,3.201 -5.049,5.69 -8.93,7.468 -3.881,1.778 -8.25,2.667 -13.104,2.667 -6.154,0 -11.311,-0.897 -15.47,-2.691 -4.159,-1.793 -7.422,-4.492 -9.788,-8.094 -2.37,-3.604 -3.62,-7.678 -3.74,-12.224 z"
             inkscape:connector-curvature="0" />
          <path
             id="path3016"
             d="m -40.473,34 v -59.978 h -22.405 v -8.025 h 53.901 v 8.025 H -31.475 V 34 h -8.998 z"
             inkscape:connector-curvature="0" />
          <path
             id="path3018"
             d="m -4.198,0.88 c 0,-11.287 3.03,-20.124 9.092,-26.51 6.061,-6.385 13.885,-9.579 23.472,-9.579 6.277,0 11.937,1.5 16.978,4.5 5.04,3 8.883,7.182 11.527,12.547 2.644,5.366 3.966,11.45 3.966,18.253 0,6.896 -1.392,13.066 -4.175,18.508 -2.783,5.443 -6.726,9.564 -11.829,12.362 -5.103,2.799 -10.607,4.198 -16.514,4.198 -6.401,0 -12.123,-1.546 -17.163,-4.639 C 6.115,27.428 2.296,23.207 -0.302,17.856 -2.899,12.508 -4.198,6.848 -4.198,0.88 z m 9.277,0.139 c 0,8.195 2.203,14.651 6.61,19.366 4.407,4.716 9.934,7.074 16.583,7.074 6.772,0 12.346,-2.381 16.722,-7.143 4.376,-4.762 6.564,-11.519 6.564,-20.271 0,-5.535 -0.936,-10.367 -2.807,-14.496 -1.871,-4.129 -4.608,-7.329 -8.21,-9.602 -3.603,-2.273 -7.646,-3.41 -12.13,-3.41 -6.371,0 -11.852,2.188 -16.444,6.564 -4.592,4.377 -6.888,11.682 -6.888,21.918 z"
             inkscape:connector-curvature="0" />
          <path
             id="path3020"
             d="m 72.433,34 v -68.003 h 25.652 c 4.515,0 7.962,0.217 10.344,0.65 3.34,0.557 6.138,1.616 8.396,3.178 2.257,1.562 4.074,3.75 5.45,6.564 1.376,2.815 2.064,5.907 2.064,9.277 0,5.783 -1.84,10.677 -5.52,14.681 -3.681,4.005 -10.329,6.007 -19.946,6.007 H 81.431 V 34 h -8.999 z m 8.999,-35.672 h 17.581 c 5.813,0 9.942,-1.082 12.385,-3.247 2.442,-2.164 3.665,-5.21 3.665,-9.138 0,-2.845 -0.719,-5.28 -2.157,-7.306 -1.438,-2.025 -3.333,-3.363 -5.682,-4.012 -1.516,-0.401 -4.314,-0.603 -8.396,-0.603 H 81.436 v 24.306 z"
             inkscape:connector-curvature="0" />
        </g>
      </g>
    </g>
  </g>
</svg>
