<?xml version="1.0" encoding="utf-8"?>
<!-- Generator: Adobe Illustrator 19.2.0, SVG Export Plug-In . SVG Version: 6.00 Build 0)  -->
<svg version="1.1" id="Layer_1" xmlns="http://www.w3.org/2000/svg" xmlns:xlink="http://www.w3.org/1999/xlink" x="0px" y="0px"
	 viewBox="0 0 40 40" style="enable-background:new 0 0 40 40;" xml:space="preserve">
<style type="text/css">
	.st0{fill:#FFFFFF;}
</style>
<path class="st0" d="M17.3,18.4v6c0,1.5,1.2,2.6,2.7,2.6h0c1.5,0,2.6-1.2,2.6-2.6v-6H17.3z"/>
<path class="st0" d="M27.9,24.9c0,0,0-3.6,0-3.8c0-0.7-0.6-1.2-1.3-1.2c-0.7,0-1.2,0.6-1.2,1.3c0,0.2,0,3.4,0,3.7
	c0,2.6-2.4,4.8-5.3,4.8c-2.9,0-5.3-2.1-5.3-4.8c0-0.3,0-3.5,0-3.8c0-0.7-0.5-1.3-1.2-1.3c-0.7,0-1.3,0.5-1.3,1.2c0,0.2,0,3.9,0,3.9
	c0,3.6,2.9,6.6,6.6,7.2l0,2.4h-3.1c-0.7,0-1.3,0.6-1.3,1.3c0,0.7,0.6,1.3,1.3,1.3h8.8c0.7,0,1.3-0.6,1.3-1.3c0-0.7-0.6-1.3-1.3-1.3
	h-3.2l0-2.4C25,31.6,27.9,28.6,27.9,24.9z"/>
<g>
	<polygon class="st0" points="23.4,15.8 23.4,15.8 23.4,15.8 	"/>
	<path class="st0" d="M21.9,10.5l3.4-3.4c0.5-0.5,0.5-1.4,0-1.9c-0.5-0.5-1.4-0.5-1.9,0L20,8.6l-3.4-3.4c-0.5-0.5-1.4-0.5-1.9,0
		s-0.5,1.4,0,1.9l3.4,3.4l-3.4,3.4c-0.5,0.5-0.5,1.4,0,1.9c0.5,0.5,1.4,0.5,1.9,0l3.4-3.4l3.4,3.4c0.5,0.5,1.4,0.5,1.9,0
		c0.5-0.5,0.5-1.4,0-1.9L21.9,10.5z"/>
</g>
</svg>
