<?xml version="1.0" encoding="utf-8"?>
<!-- Generator: Adobe Illustrator 19.2.0, SVG Export Plug-In . SVG Version: 6.00 Build 0)  -->
<svg version="1.1" id="Layer_1" xmlns="http://www.w3.org/2000/svg" xmlns:xlink="http://www.w3.org/1999/xlink" x="0px" y="0px"
	 viewBox="0 0 40 40" style="enable-background:new 0 0 40 40;" xml:space="preserve">
<style type="text/css">
	.st0{fill:#FFFFFF;}
</style>
<path class="st0" d="M24.6,12.5l1.6-1.6C24.7,9.2,22.4,8,19.9,8c-2.4,0-4.6,1-6.1,2.7c0.5,0.5,1,1,1.6,1.6c1.1-1.2,2.7-2,4.5-2
	C21.8,10.2,23.5,11.1,24.6,12.5z"/>
<path class="st0" d="M28.3,8.9l1.6-1.6c-2.4-2.7-6-4.4-9.9-4.4c-3.8,0-7.3,1.6-9.7,4.2c0.5,0.5,1,1,1.6,1.6c2-2.2,4.9-3.5,8.1-3.5
	C23.2,5.1,26.2,6.6,28.3,8.9z"/>
<path class="st0" d="M22.5,18.7v-3.1c0-1.5-1.2-2.6-2.6-2.6h0c-1.5,0-2.6,1.1-2.6,2.6v3.1H22.5z"/>
<path class="st0" d="M17.3,21.4v3c0,1.5,1.2,2.6,2.7,2.6h0c1.5,0,2.6-1.2,2.6-2.6v-3H17.3z"/>
<path class="st0" d="M27.9,24.9c0,0,0-3.6,0-3.8c0-0.7-0.6-1.2-1.3-1.2c-0.7,0-1.2,0.6-1.2,1.3c0,0.2,0,3.4,0,3.7
	c0,2.6-2.4,4.8-5.3,4.8c-2.9,0-5.3-2.1-5.3-4.8c0-0.3,0-3.5,0-3.8c0-0.7-0.5-1.3-1.2-1.3c-0.7,0-1.3,0.5-1.3,1.2c0,0.2,0,3.9,0,3.9
	c0,3.6,2.9,6.6,6.6,7.2l0,2.4h-3.1c-0.7,0-1.3,0.6-1.3,1.3c0,0.7,0.6,1.3,1.3,1.3h8.8c0.7,0,1.3-0.6,1.3-1.3c0-0.7-0.6-1.3-1.3-1.3
	h-3.2l0-2.4C25,31.6,27.9,28.6,27.9,24.9z"/>
</svg>
