<?xml version="1.0" encoding="utf-8"?>
<!-- Generator: Adobe Illustrator 17.1.0, SVG Export Plug-In . SVG Version: 6.00 Build 0)  -->
<!DOCTYPE svg PUBLIC "-//W3C//DTD SVG 1.1//EN" "http://www.w3.org/Graphics/SVG/1.1/DTD/svg11.dtd">
<svg version="1.1" id="Layer_1" xmlns="http://www.w3.org/2000/svg" xmlns:xlink="http://www.w3.org/1999/xlink" x="0px" y="0px"
	 viewBox="0 0 42.5 33.5" enable-background="new 0 0 42.5 33.5" xml:space="preserve">
<g>
	<g>
		<path fill="#CCCCCC" d="M36.5,32h-32C2,32,0,30,0,27.5v-23C0,2,2,0,4.5,0h32C39,0,41,2,41,4.5v23C41,30,39,32,36.5,32z M4.5,1
			C2.6,1,1,2.6,1,4.5v23C1,29.4,2.6,31,4.5,31h32c1.9,0,3.5-1.6,3.5-3.5v-23C40,2.6,38.4,1,36.5,1H4.5z"/>
	</g>
</g>
<path fill="#8C8C8C" d="M29.8,19.6c-0.3-0.6-0.9-0.6-1.5-0.6H27v-1.9c0-1.1-1.3-2.1-2.4-2.1H23v1h1.6c0.5,0,0.4,0.7,0.4,1.1V19h-7.7
	c-0.8,0-1.6,0.2-2.1,0.9L13,22.5v-7.6c0-0.5,0.1-0.9,0.6-0.9h2.9c0.5,0,0.6,0.4,0.6,0.9v0.6c0,0.4,0.6,0.8,1,0.8V14h0.2
	c-0.3-0.7-1-1-1.8-1h-2.9c-1.1,0-1.6,0.8-1.6,1.9v8.6c0,1.1,0.5,1.6,1.6,1.6h11c0.8,0,1.8-0.3,2.3-0.9l2.6-3.1
	c0.2-0.3,0.4-0.5,0.4-0.9C29.9,19.9,29.9,19.8,29.8,19.6z M28.6,20.4L26,23.5C25.7,23.8,25,24,24.6,24h-11c-0.2,0-0.5,0.1-0.5-0.2
	c0-0.1,0.1-0.2,0.2-0.3l2.6-3.1c0.3-0.4,0.9-0.5,1.4-0.5h11c0.2,0,0.5-0.1,0.5,0.2C28.8,20.3,28.7,20.3,28.6,20.4z"/>
<path fill="#666666" d="M22.6,11.1h3l-4.5-4.5l-4.5,4.5h3v7.5h3V11.1z"/>
</svg>
