<?xml version="1.0" encoding="utf-8"?>
<!-- Generator: Adobe Illustrator 17.0.2, SVG Export Plug-In . SVG Version: 6.00 Build 0)  -->
<!DOCTYPE svg PUBLIC "-//W3C//DTD SVG 1.1//EN" "http://www.w3.org/Graphics/SVG/1.1/DTD/svg11.dtd">
<svg version="1.1" id="Layer_1" xmlns="http://www.w3.org/2000/svg" xmlns:xlink="http://www.w3.org/1999/xlink" xml:space="preserve">
<g>
	<g>
		<path fill="#666666" d="M13.402,4.612c0-0.098-0.052-0.188-0.137-0.237c-0.085-0.049-0.189-0.049-0.274,0L7.704,7.428
			C7.423,7.59,7.25,7.89,7.25,8.215v6.105c0,0.098,0.052,0.188,0.137,0.237c0.085,0.049,0.189,0.049,0.274,0l5.085-2.936
			c0.407-0.235,0.657-0.668,0.657-1.138V4.612z"/>
		<path fill="#666666" d="M0.41,4.375c-0.085-0.049-0.189-0.049-0.274,0C0.052,4.424,0,4.514,0,4.612c0,0,0,0,0,0v5.872
			c0,0.469,0.25,0.903,0.657,1.138l5.085,2.936c0,0,0,0,0,0c0.085,0.049,0.189,0.049,0.274,0c0.085-0.049,0.136-0.139,0.136-0.237
			V8.215c0-0.325-0.173-0.625-0.455-0.787L0.41,4.375z"/>
	</g>
	<path fill="#666666" d="M12.443,3.586c0.085-0.049,0.137-0.139,0.137-0.237c0-0.098-0.052-0.188-0.137-0.237c0,0,0,0,0,0
		L7.358,0.176c-0.407-0.235-0.907-0.235-1.313,0L0.959,3.112c0,0,0,0,0,0C0.874,3.161,0.822,3.251,0.822,3.349
		c0,0.098,0.052,0.188,0.137,0.237l5.287,3.053c0.281,0.162,0.628,0.162,0.909,0L12.443,3.586z"/>
</g>
</svg>
