<?xml version="1.0" encoding="utf-8"?>
<!-- Generator: Adobe Illustrator 18.1.0, SVG Export Plug-In . SVG Version: 6.00 Build 0)  -->
<!DOCTYPE svg PUBLIC "-//W3C//DTD SVG 1.1//EN" "http://www.w3.org/Graphics/SVG/1.1/DTD/svg11.dtd">
<svg version="1.1" id="Layer_1" xmlns="http://www.w3.org/2000/svg" xmlns:xlink="http://www.w3.org/1999/xlink" x="0px" y="0px"
	 viewBox="0 0 59 32" enable-background="new 0 0 59 32" xml:space="preserve">
<g>
	<path fill="#BB3850" d="M54,32H5c-2.8,0-5-2.2-5-5V5c0-2.8,2.2-5,5-5h49c2.8,0,5,2.2,5,5v22C59,29.8,56.8,32,54,32z"/>
	<g>
		<path fill="#EDEDED" d="M13.8,18.2c0.1,0.6,0.2,1,0.5,1.3c0.4,0.5,1.1,0.8,2.2,0.8c0.6,0,1.1-0.1,1.5-0.2c0.7-0.3,1.1-0.7,1.1-1.4
			c0-0.4-0.2-0.7-0.5-0.9c-0.4-0.2-0.9-0.4-1.7-0.6l-1.3-0.3c-1.3-0.3-2.2-0.6-2.7-0.9c-0.8-0.6-1.2-1.4-1.2-2.6
			c0-1.1,0.4-2,1.2-2.7s2-1.1,3.6-1.1c1.3,0,2.4,0.3,3.3,1c0.9,0.7,1.4,1.7,1.4,3h-2.5c0-0.7-0.4-1.3-1-1.6
			c-0.4-0.2-0.9-0.3-1.5-0.3c-0.7,0-1.2,0.1-1.6,0.4s-0.6,0.6-0.6,1.1c0,0.4,0.2,0.8,0.6,1c0.3,0.1,0.8,0.3,1.6,0.5l2.1,0.5
			c0.9,0.2,1.6,0.5,2.1,0.9c0.7,0.6,1.1,1.4,1.1,2.5c0,1.1-0.4,2-1.3,2.8c-0.9,0.7-2.1,1.1-3.7,1.1c-1.6,0-2.9-0.4-3.8-1.1
			s-1.4-1.7-1.4-3H13.8z"/>
		<path fill="#EDEDED" d="M22.1,14.7V13h1.3v-2.5h2.3V13h1.5v1.7h-1.5v4.8c0,0.4,0,0.6,0.1,0.7c0.1,0.1,0.4,0.1,0.9,0.1
			c0.1,0,0.1,0,0.2,0c0.1,0,0.2,0,0.2,0v1.8l-1.1,0c-1.1,0-1.9-0.2-2.3-0.6c-0.3-0.3-0.4-0.7-0.4-1.3v-5.6H22.1z"/>
		<path fill="#EDEDED" d="M36.3,20.9c-0.8,0.9-1.9,1.4-3.5,1.4s-2.7-0.5-3.5-1.4c-0.8-0.9-1.1-2.1-1.1-3.4c0-1.3,0.4-2.4,1.1-3.4
			c0.8-1,1.9-1.4,3.5-1.4s2.7,0.5,3.5,1.4c0.8,1,1.1,2.1,1.1,3.4C37.4,18.8,37,19.9,36.3,20.9z M34.4,19.6c0.4-0.5,0.6-1.2,0.6-2.1
			s-0.2-1.6-0.6-2.1s-0.9-0.7-1.6-0.7s-1.2,0.2-1.6,0.7c-0.4,0.5-0.6,1.2-0.6,2.1s0.2,1.6,0.6,2.1c0.4,0.5,0.9,0.7,1.6,0.7
			S34,20.1,34.4,19.6z"/>
		<path fill="#EDEDED" d="M46.7,13.9c0.7,0.8,1.1,1.9,1.1,3.4c0,1.6-0.4,2.8-1.1,3.6s-1.6,1.3-2.8,1.3c-0.7,0-1.3-0.2-1.8-0.5
			c-0.3-0.2-0.5-0.5-0.8-0.9v4.7H39V13h2.3v1.3c0.3-0.4,0.5-0.7,0.8-0.9c0.5-0.4,1.2-0.6,1.9-0.6C45.1,12.8,46,13.1,46.7,13.9z
			 M44.9,15.6c-0.3-0.5-0.8-0.8-1.6-0.8c-0.9,0-1.5,0.4-1.8,1.2c-0.2,0.4-0.3,1-0.3,1.6c0,1.1,0.3,1.8,0.8,2.2
			c0.3,0.2,0.7,0.4,1.2,0.4c0.7,0,1.2-0.3,1.5-0.8s0.5-1.2,0.5-2C45.4,16.8,45.2,16.2,44.9,15.6z"/>
	</g>
</g>
</svg>
