<?xml version="1.0" encoding="utf-8"?>
<!-- Generator: Adobe Illustrator 18.1.0, SVG Export Plug-In . SVG Version: 6.00 Build 0)  -->
<!DOCTYPE svg PUBLIC "-//W3C//DTD SVG 1.1//EN" "http://www.w3.org/Graphics/SVG/1.1/DTD/svg11.dtd">
<svg version="1.1" id="Layer_1" xmlns="http://www.w3.org/2000/svg" xmlns:xlink="http://www.w3.org/1999/xlink" x="0px" y="0px"
	 viewBox="0 0 59 32" enable-background="new 0 0 59 32" xml:space="preserve">
<g>
	<path fill="#29957E" d="M54,32H5c-2.8,0-5-2.2-5-5V5c0-2.8,2.2-5,5-5h49c2.8,0,5,2.2,5,5v22C59,29.8,56.8,32,54,32z"/>
	<g>
		<path fill="#EDEDED" d="M22.1,10.1c0.5,0.2,0.8,0.5,1.1,0.9c0.3,0.3,0.5,0.7,0.6,1c0.2,0.4,0.2,0.8,0.2,1.3c0,0.6-0.1,1.2-0.4,1.7
			c-0.3,0.6-0.8,1-1.5,1.2c0.6,0.2,1,0.5,1.2,1s0.4,1.1,0.4,1.9v0.8c0,0.6,0,0.9,0.1,1.1c0.1,0.3,0.2,0.5,0.5,0.7V22h-2.8
			c-0.1-0.3-0.1-0.5-0.2-0.7c-0.1-0.3-0.1-0.7-0.1-1.1l0-1.1c0-0.8-0.1-1.3-0.4-1.6c-0.3-0.3-0.7-0.4-1.5-0.4h-2.5V22h-2.5V9.8h5.9
			C21,9.8,21.7,9.9,22.1,10.1z M16.8,11.9v3.3h2.8c0.5,0,1-0.1,1.2-0.2c0.5-0.2,0.7-0.7,0.7-1.4c0-0.7-0.2-1.2-0.7-1.5
			c-0.3-0.1-0.7-0.2-1.2-0.2H16.8z"/>
		<path fill="#EDEDED" d="M28.7,13v5.5c0,0.5,0.1,0.9,0.2,1.2c0.2,0.5,0.6,0.7,1.3,0.7c0.8,0,1.4-0.3,1.7-1c0.2-0.4,0.2-0.8,0.2-1.4
			V13h2.4v9h-2.3v-1.3c0,0-0.1,0.1-0.2,0.2c-0.1,0.1-0.2,0.3-0.3,0.4c-0.4,0.3-0.7,0.6-1.1,0.7s-0.7,0.2-1.2,0.2
			c-1.3,0-2.2-0.5-2.7-1.4c-0.3-0.5-0.4-1.3-0.4-2.3V13H28.7z"/>
		<path fill="#EDEDED" d="M44,13.5c0.6,0.5,0.9,1.3,0.9,2.4V22h-2.4v-5.5c0-0.5-0.1-0.8-0.2-1.1c-0.2-0.5-0.7-0.7-1.3-0.7
			c-0.8,0-1.3,0.3-1.6,1c-0.2,0.4-0.2,0.8-0.2,1.4V22h-2.4v-9H39v1.3c0.3-0.5,0.6-0.8,0.9-1c0.5-0.4,1.1-0.5,1.8-0.5
			C42.7,12.7,43.4,13,44,13.5z"/>
	</g>
</g>
</svg>
