<?xml version="1.0" encoding="utf-8"?>
<!-- Generator: Adobe Illustrator 18.1.0, SVG Export Plug-In . SVG Version: 6.00 Build 0)  -->
<!DOCTYPE svg PUBLIC "-//W3C//DTD SVG 1.1//EN" "http://www.w3.org/Graphics/SVG/1.1/DTD/svg11.dtd">
<svg version="1.1" id="Layer_1" xmlns="http://www.w3.org/2000/svg" xmlns:xlink="http://www.w3.org/1999/xlink" x="0px" y="0px"
	 viewBox="0 0 189 46" enable-background="new 0 0 189 46" xml:space="preserve">
<g>
	<path fill="#29957E" d="M184,46H5c-2.8,0-5-2.2-5-5V5c0-2.8,2.2-5,5-5h179c2.8,0,5,2.2,5,5v36C189,43.8,186.8,46,184,46z"/>
	<g>
		<path fill="#EDEDED" d="M25.3,33.7c-5.7,0-10.3-4.6-10.3-10.3c0-3.3,1.5-6.3,4.1-8.2c0.8-0.6,1.8-0.4,2.4,0.3
			c0.6,0.8,0.4,1.8-0.3,2.4c-1.7,1.3-2.7,3.3-2.7,5.5c0,3.8,3.1,6.9,6.9,6.9s6.9-3.1,6.9-6.9c0-2.2-1-4.2-2.7-5.5
			c-0.8-0.6-0.9-1.6-0.3-2.4c0.6-0.8,1.6-0.9,2.4-0.3c2.6,2,4.1,5,4.1,8.2C35.6,29.1,31,33.7,25.3,33.7z M27,21.7
			c0,0.9-0.8,1.7-1.7,1.7s-1.7-0.8-1.7-1.7v-8.6c0-0.9,0.8-1.7,1.7-1.7s1.7,0.8,1.7,1.7V21.7z"/>
	</g>
	<g>
		<path fill="#EDEDED" d="M46.4,26.7c0.1,0.8,0.3,1.4,0.7,1.8c0.6,0.7,1.6,1.1,3.1,1.1c0.9,0,1.6-0.1,2.1-0.3c1-0.4,1.5-1,1.5-2
			c0-0.6-0.3-1-0.8-1.3c-0.5-0.3-1.3-0.6-2.4-0.8l-1.9-0.4c-1.8-0.4-3.1-0.8-3.8-1.3c-1.2-0.8-1.7-2-1.7-3.7c0-1.5,0.6-2.8,1.7-3.9
			c1.1-1,2.8-1.5,5-1.5c1.8,0,3.4,0.5,4.7,1.4c1.3,1,2,2.4,2,4.2h-3.5c-0.1-1-0.5-1.8-1.4-2.2c-0.6-0.3-1.3-0.4-2.2-0.4
			c-1,0-1.7,0.2-2.3,0.6s-0.9,0.9-0.9,1.6c0,0.6,0.3,1.1,0.8,1.4c0.4,0.2,1.1,0.4,2.3,0.7l3,0.7c1.3,0.3,2.3,0.7,3,1.3
			c1,0.8,1.5,2,1.5,3.5c0,1.6-0.6,2.9-1.8,3.9c-1.2,1-2.9,1.6-5.2,1.6c-2.3,0-4.1-0.5-5.4-1.5c-1.3-1-2-2.4-2-4.2H46.4z"/>
		<path fill="#EDEDED" d="M58.3,21.7v-2.4H60v-3.6h3.3v3.6h2.1v2.4h-2.1v6.8c0,0.5,0.1,0.8,0.2,1s0.5,0.2,1.2,0.2c0.1,0,0.2,0,0.3,0
			s0.2,0,0.3,0v2.5l-1.6,0.1c-1.6,0.1-2.7-0.2-3.2-0.8c-0.4-0.4-0.6-1-0.6-1.8v-7.9H58.3z"/>
		<path fill="#EDEDED" d="M72.6,24.2c0.6-0.1,1.1-0.2,1.3-0.3c0.5-0.2,0.7-0.5,0.7-0.9c0-0.5-0.2-0.9-0.6-1.1
			c-0.4-0.2-0.9-0.3-1.6-0.3c-0.8,0-1.4,0.2-1.7,0.6c-0.2,0.3-0.4,0.7-0.5,1.2h-3.2c0.1-1.1,0.4-2,0.9-2.8c0.9-1.1,2.4-1.7,4.6-1.7
			c1.4,0,2.7,0.3,3.7,0.8c1.1,0.6,1.6,1.6,1.6,3.1v5.9c0,0.4,0,0.9,0,1.5c0,0.4,0.1,0.7,0.2,0.9s0.3,0.3,0.5,0.4V32h-3.6
			c-0.1-0.3-0.2-0.5-0.2-0.7s-0.1-0.5-0.1-0.8c-0.5,0.5-1,0.9-1.6,1.3c-0.7,0.4-1.5,0.6-2.5,0.6c-1.2,0-2.1-0.3-2.9-1
			c-0.8-0.7-1.1-1.6-1.1-2.8c0-1.6,0.6-2.7,1.8-3.4c0.7-0.4,1.7-0.7,3-0.8L72.6,24.2z M74.7,25.8c-0.2,0.1-0.4,0.2-0.6,0.3
			c-0.2,0.1-0.5,0.2-0.9,0.2l-0.8,0.1c-0.7,0.1-1.2,0.3-1.5,0.5c-0.5,0.3-0.8,0.8-0.8,1.4c0,0.6,0.2,1,0.5,1.2s0.7,0.4,1.2,0.4
			c0.7,0,1.4-0.2,2-0.6s0.9-1.2,1-2.3V25.8z"/>
		<path fill="#EDEDED" d="M88,18.9c0,0,0.1,0,0.3,0v3.4c-0.2,0-0.4,0-0.6,0s-0.3,0-0.4,0c-1.3,0-2.2,0.4-2.7,1.3
			c-0.3,0.5-0.4,1.2-0.4,2.3V32h-3.4V19.2h3.2v2.2c0.5-0.9,1-1.4,1.3-1.7c0.6-0.5,1.4-0.8,2.4-0.8C87.9,18.9,88,18.9,88,18.9z"/>
		<path fill="#EDEDED" d="M88.9,21.7v-2.4h1.8v-3.6H94v3.6h2.1v2.4H94v6.8c0,0.5,0.1,0.8,0.2,1s0.5,0.2,1.2,0.2c0.1,0,0.2,0,0.3,0
			s0.2,0,0.3,0v2.5l-1.6,0.1c-1.6,0.1-2.7-0.2-3.2-0.8c-0.4-0.4-0.6-1-0.6-1.8v-7.9H88.9z"/>
		<path fill="#EDEDED" d="M107.5,27.9c0.1,0.6,0.2,1,0.5,1.3c0.4,0.4,1.2,0.7,2.3,0.7c0.7,0,1.2-0.1,1.6-0.3
			c0.4-0.2,0.6-0.5,0.6-0.9c0-0.4-0.2-0.7-0.5-0.9s-1.5-0.5-3.5-1c-1.5-0.4-2.5-0.8-3.1-1.3c-0.6-0.5-0.9-1.3-0.9-2.3
			c0-1.2,0.5-2.2,1.4-3s2.2-1.3,3.9-1.3c1.6,0,2.9,0.3,3.9,1s1.6,1.7,1.7,3.3h-3.3c0-0.4-0.2-0.8-0.4-1c-0.4-0.5-1-0.7-1.9-0.7
			c-0.7,0-1.2,0.1-1.6,0.3c-0.3,0.2-0.5,0.5-0.5,0.8c0,0.4,0.2,0.7,0.5,0.8c0.3,0.2,1.5,0.5,3.5,0.9c1.3,0.3,2.3,0.8,3,1.4
			c0.7,0.6,1,1.4,1,2.4c0,1.3-0.5,2.3-1.4,3.1s-2.4,1.2-4.4,1.2c-2,0-3.5-0.4-4.5-1.3s-1.4-1.9-1.4-3.2H107.5z"/>
		<path fill="#EDEDED" d="M126.6,19.5c0.9,0.4,1.6,1,2.2,1.9c0.5,0.8,0.9,1.6,1,2.6c0.1,0.6,0.1,1.4,0.1,2.5h-9.3
			c0.1,1.3,0.5,2.2,1.3,2.7c0.5,0.3,1.1,0.5,1.8,0.5c0.8,0,1.4-0.2,1.9-0.6c0.3-0.2,0.5-0.5,0.7-0.9h3.4c-0.1,0.8-0.5,1.5-1.2,2.3
			c-1.1,1.2-2.7,1.9-4.8,1.9c-1.7,0-3.2-0.5-4.5-1.6c-1.3-1-1.9-2.8-1.9-5.1c0-2.2,0.6-3.9,1.8-5.1c1.2-1.2,2.7-1.8,4.6-1.8
			C124.7,18.9,125.7,19.1,126.6,19.5z M121.6,22.4c-0.5,0.5-0.8,1.1-0.9,2h5.8c-0.1-0.9-0.4-1.6-0.9-2c-0.5-0.5-1.2-0.7-2-0.7
			C122.7,21.6,122.1,21.9,121.6,22.4z"/>
		<path fill="#EDEDED" d="M138.7,18.9c0,0,0.1,0,0.3,0v3.4c-0.2,0-0.4,0-0.6,0s-0.3,0-0.4,0c-1.3,0-2.2,0.4-2.7,1.3
			c-0.3,0.5-0.4,1.2-0.4,2.3V32h-3.4V19.2h3.2v2.2c0.5-0.9,1-1.4,1.3-1.7c0.6-0.5,1.4-0.8,2.4-0.8C138.6,18.9,138.7,18.9,138.7,18.9
			z"/>
		<path fill="#EDEDED" d="M148.8,19.2h3.6L147.8,32h-3.5l-4.6-12.8h3.8l2.7,9.4L148.8,19.2z"/>
		<path fill="#EDEDED" d="M162.6,19.5c0.9,0.4,1.6,1,2.2,1.9c0.5,0.8,0.9,1.6,1,2.6c0.1,0.6,0.1,1.4,0.1,2.5h-9.3
			c0.1,1.3,0.5,2.2,1.3,2.7c0.5,0.3,1.1,0.5,1.8,0.5c0.8,0,1.4-0.2,1.9-0.6c0.3-0.2,0.5-0.5,0.7-0.9h3.4c-0.1,0.8-0.5,1.5-1.2,2.3
			c-1.1,1.2-2.7,1.9-4.8,1.9c-1.7,0-3.2-0.5-4.5-1.6c-1.3-1-1.9-2.8-1.9-5.1c0-2.2,0.6-3.9,1.8-5.1c1.2-1.2,2.7-1.8,4.6-1.8
			C160.7,18.9,161.7,19.1,162.6,19.5z M157.6,22.4c-0.5,0.5-0.8,1.1-0.9,2h5.8c-0.1-0.9-0.4-1.6-0.9-2c-0.5-0.5-1.2-0.7-2-0.7
			C158.8,21.6,158.1,21.9,157.6,22.4z"/>
		<path fill="#EDEDED" d="M174.7,18.9c0,0,0.1,0,0.3,0v3.4c-0.2,0-0.4,0-0.6,0s-0.3,0-0.4,0c-1.3,0-2.2,0.4-2.7,1.3
			c-0.3,0.5-0.4,1.2-0.4,2.3V32h-3.4V19.2h3.2v2.2c0.5-0.9,1-1.4,1.3-1.7c0.6-0.5,1.4-0.8,2.4-0.8C174.6,18.9,174.7,18.9,174.7,18.9
			z"/>
	</g>
</g>
</svg>
