<?xml version="1.0" encoding="UTF-8" standalone="no"?>
<svg width="338px" height="48px" viewBox="0 0 338 48" version="1.1" xmlns="http://www.w3.org/2000/svg" xmlns:xlink="http://www.w3.org/1999/xlink">
    <!-- Generator: Sketch 45.2 (43514) - http://www.bohemiancoding.com/sketch -->
    <title>COLLISIONS</title>
    <desc>Created with Sketch.</desc>
    <defs></defs>
    <g id="Physics-Tool" stroke="none" stroke-width="1" fill="none" fill-rule="evenodd">
        <g id="Physics---Default" transform="translate(-283.000000, -1323.000000)" fill="#FFFFFF">
            <path d="M303.232,1323.688 C292.16,1323.688 283.648,1331.88 283.648,1346.792 C283.648,1361.896 291.712,1370.024 303.488,1370.024 C309.632,1370.024 314.304,1367.336 317.12,1364.456 L312.768,1358.888 C310.208,1360.872 307.648,1362.6 303.936,1362.6 C297.856,1362.6 293.568,1357.928 293.568,1346.792 C293.568,1335.272 297.92,1330.792 303.808,1330.792 C306.88,1330.792 309.44,1331.88 311.872,1333.992 L316.608,1328.488 C312.96,1325.416 309.12,1323.688 303.232,1323.688 Z M338.624,1323.688 C350.784,1323.688 358.272,1332.008 358.272,1346.856 C358.272,1361.384 350.784,1370.024 338.624,1370.024 C326.464,1370.024 318.912,1361.64 318.912,1346.856 C318.912,1332.392 326.464,1323.688 338.624,1323.688 Z M338.624,1330.728 C332.352,1330.728 328.832,1335.272 328.832,1346.856 C328.832,1358.44 332.48,1362.984 338.624,1362.984 C344.96,1362.984 348.352,1358.44 348.352,1346.856 C348.352,1335.272 344.96,1330.728 338.624,1330.728 Z M374.784,1361.448 L374.784,1324.712 L365.376,1324.712 L365.376,1369 L391.296,1369 L392.32,1361.448 L374.784,1361.448 Z M407.36,1361.448 L407.36,1324.712 L397.952,1324.712 L397.952,1369 L423.872,1369 L424.896,1361.448 L407.36,1361.448 Z M440,1369 L440,1324.712 L430.528,1324.712 L430.528,1369 L440,1369 Z M462.848,1323.688 C453.888,1323.688 447.36,1328.616 447.36,1336.168 C447.36,1342.888 451.2,1346.728 460.8,1349.736 C467.52,1351.784 469.248,1353.32 469.248,1356.84 C469.248,1360.744 466.176,1362.92 461.632,1362.92 C457.088,1362.92 453.504,1361.256 450.432,1358.44 L445.504,1363.816 C449.152,1367.4 454.528,1370.024 461.888,1370.024 C472.64,1370.024 479.04,1364.328 479.04,1356.2 C479.04,1348.008 473.92,1344.68 465.92,1342.12 C458.688,1339.88 457.024,1338.6 457.024,1335.528 C457.024,1332.392 459.648,1330.728 463.488,1330.728 C467.072,1330.728 470.144,1331.88 473.216,1334.504 L477.76,1329.256 C473.92,1325.672 469.44,1323.688 462.848,1323.688 Z M494.976,1369 L494.976,1324.712 L485.504,1324.712 L485.504,1369 L494.976,1369 Z M521.792,1323.688 C533.952,1323.688 541.44,1332.008 541.44,1346.856 C541.44,1361.384 533.952,1370.024 521.792,1370.024 C509.632,1370.024 502.08,1361.64 502.08,1346.856 C502.08,1332.392 509.632,1323.688 521.792,1323.688 Z M521.792,1330.728 C515.52,1330.728 512,1335.272 512,1346.856 C512,1358.44 515.648,1362.984 521.792,1362.984 C528.128,1362.984 531.52,1358.44 531.52,1346.856 C531.52,1335.272 528.128,1330.728 521.792,1330.728 Z M581.952,1369 L581.952,1324.712 L573.44,1324.712 L573.44,1344.168 C573.44,1350.76 574.272,1356.904 574.72,1359.912 L560.384,1324.712 L548.544,1324.712 L548.544,1369 L557.056,1369 L557.056,1351.784 C557.056,1343.592 556.288,1337.832 555.776,1333.864 L569.856,1369 L581.952,1369 Z M604.8,1323.688 C595.84,1323.688 589.312,1328.616 589.312,1336.168 C589.312,1342.888 593.152,1346.728 602.752,1349.736 C609.472,1351.784 611.2,1353.32 611.2,1356.84 C611.2,1360.744 608.128,1362.92 603.584,1362.92 C599.04,1362.92 595.456,1361.256 592.384,1358.44 L587.456,1363.816 C591.104,1367.4 596.48,1370.024 603.84,1370.024 C614.592,1370.024 620.992,1364.328 620.992,1356.2 C620.992,1348.008 615.872,1344.68 607.872,1342.12 C600.64,1339.88 598.976,1338.6 598.976,1335.528 C598.976,1332.392 601.6,1330.728 605.44,1330.728 C609.024,1330.728 612.096,1331.88 615.168,1334.504 L619.712,1329.256 C615.872,1325.672 611.392,1323.688 604.8,1323.688 Z" id="COLLISIONS"></path>
        </g>
    </g>
</svg>