<?xml version="1.0" encoding="UTF-8" standalone="no"?>
<svg width="334px" height="48px" viewBox="0 0 334 48" version="1.1" xmlns="http://www.w3.org/2000/svg" xmlns:xlink="http://www.w3.org/1999/xlink">
    <!-- Generator: Sketch 45.2 (43514) - http://www.bohemiancoding.com/sketch -->
    <title>GRABBABLE</title>
    <desc>Created with Sketch.</desc>
    <defs></defs>
    <g id="Physics-Tool" stroke="none" stroke-width="1" fill="none" fill-rule="evenodd">
        <g id="Physics---Default" transform="translate(-285.000000, -1683.000000)" fill="#FFFFFF">
            <path d="M305.856,1683.688 C294.528,1683.688 285.184,1691.816 285.184,1706.792 C285.184,1722.024 292.032,1730.024 304.832,1730.024 C310.784,1730.024 316.224,1728.296 320.64,1725.544 L320.64,1703.72 L304.32,1703.72 L305.28,1710.568 L311.488,1710.568 L311.488,1721.384 C309.504,1722.472 307.264,1722.984 304.896,1722.984 C298.368,1722.984 295.04,1718.696 295.04,1706.856 C295.04,1695.336 300.032,1690.664 306.304,1690.664 C309.952,1690.664 312.448,1691.816 315.328,1694.184 L320.384,1689 C316.672,1685.8 312.192,1683.688 305.856,1683.688 Z M342.656,1711.656 L337.856,1711.656 L337.856,1729 L328.448,1729 L328.448,1684.712 L342.272,1684.712 C354.112,1684.712 360.128,1689 360.128,1697.96 C360.128,1703.848 357.248,1707.368 351.36,1709.928 L362.816,1729 L352.128,1729 L342.656,1711.656 Z M337.856,1705 L342.784,1705 C347.712,1705 350.4,1702.952 350.4,1697.96 C350.4,1693.416 347.776,1691.432 342.08,1691.432 L337.856,1691.432 L337.856,1705 Z M388.672,1719.08 L374.784,1719.08 L372.288,1729 L362.496,1729 L376.128,1684.712 L387.584,1684.712 L401.152,1729 L391.168,1729 L388.672,1719.08 Z M386.88,1712.104 L381.696,1691.688 L376.576,1712.104 L386.88,1712.104 Z M427.904,1705.576 C432.896,1706.536 437.952,1708.904 437.952,1716.136 C437.952,1726.056 429.952,1729 419.072,1729 L405.248,1729 L405.248,1684.712 L417.344,1684.712 C428.928,1684.712 436.032,1687.848 436.032,1696.04 C436.032,1701.608 432,1704.616 427.904,1705.576 Z M414.656,1691.496 L414.656,1702.696 L419.264,1702.696 C423.744,1702.696 426.432,1700.84 426.432,1696.872 C426.432,1692.776 423.68,1691.496 418.24,1691.496 L414.656,1691.496 Z M419.136,1722.024 C424.384,1722.024 428.16,1721 428.16,1715.752 C428.16,1710.824 424.704,1709.096 419.968,1709.096 L414.656,1709.096 L414.656,1722.024 L419.136,1722.024 Z M467.264,1705.576 C472.256,1706.536 477.312,1708.904 477.312,1716.136 C477.312,1726.056 469.312,1729 458.432,1729 L444.608,1729 L444.608,1684.712 L456.704,1684.712 C468.288,1684.712 475.392,1687.848 475.392,1696.04 C475.392,1701.608 471.36,1704.616 467.264,1705.576 Z M454.016,1691.496 L454.016,1702.696 L458.624,1702.696 C463.104,1702.696 465.792,1700.84 465.792,1696.872 C465.792,1692.776 463.04,1691.496 457.6,1691.496 L454.016,1691.496 Z M458.496,1722.024 C463.744,1722.024 467.52,1721 467.52,1715.752 C467.52,1710.824 464.064,1709.096 459.328,1709.096 L454.016,1709.096 L454.016,1722.024 L458.496,1722.024 Z M503.616,1719.08 L489.728,1719.08 L487.232,1729 L477.44,1729 L491.072,1684.712 L502.528,1684.712 L516.096,1729 L506.112,1729 L503.616,1719.08 Z M501.824,1712.104 L496.64,1691.688 L491.52,1712.104 L501.824,1712.104 Z M542.848,1705.576 C547.84,1706.536 552.896,1708.904 552.896,1716.136 C552.896,1726.056 544.896,1729 534.016,1729 L520.192,1729 L520.192,1684.712 L532.288,1684.712 C543.872,1684.712 550.976,1687.848 550.976,1696.04 C550.976,1701.608 546.944,1704.616 542.848,1705.576 Z M529.6,1691.496 L529.6,1702.696 L534.208,1702.696 C538.688,1702.696 541.376,1700.84 541.376,1696.872 C541.376,1692.776 538.624,1691.496 533.184,1691.496 L529.6,1691.496 Z M534.08,1722.024 C539.328,1722.024 543.104,1721 543.104,1715.752 C543.104,1710.824 539.648,1709.096 534.912,1709.096 L529.6,1709.096 L529.6,1722.024 L534.08,1722.024 Z M568.96,1721.448 L568.96,1684.712 L559.552,1684.712 L559.552,1729 L585.472,1729 L586.496,1721.448 L568.96,1721.448 Z M617.536,1691.56 L618.56,1684.712 L592.128,1684.712 L592.128,1729 L618.688,1729 L618.688,1722.088 L601.536,1722.088 L601.536,1709.864 L615.488,1709.864 L615.488,1703.08 L601.536,1703.08 L601.536,1691.56 L617.536,1691.56 Z" id="GRABBABLE"></path>
        </g>
    </g>
</svg>