<?xml version="1.0" encoding="UTF-8" standalone="no"?>
<svg width="240px" height="48px" viewBox="0 0 240 48" version="1.1" xmlns="http://www.w3.org/2000/svg" xmlns:xlink="http://www.w3.org/1999/xlink">
    <!-- Generator: Sketch 45.2 (43514) - http://www.bohemiancoding.com/sketch -->
    <title>GRAVITY Copy</title>
    <desc>Created with Sketch.</desc>
    <defs></defs>
    <g id="Physics-Tool" stroke="none" stroke-width="1" fill="none" fill-rule="evenodd">
        <g id="Physics---Default" transform="translate(-333.000000, -963.000000)" fill="#FFFFFF">
            <path d="M354.336,963.688 C343.008,963.688 333.664,971.816 333.664,986.792 C333.664,1002.024 340.512,1010.024 353.312,1010.024 C359.264,1010.024 364.704,1008.296 369.12,1005.544 L369.12,983.72 L352.8,983.72 L353.76,990.568 L359.968,990.568 L359.968,1001.384 C357.984,1002.472 355.744,1002.984 353.376,1002.984 C346.848,1002.984 343.52,998.696 343.52,986.856 C343.52,975.336 348.512,970.664 354.784,970.664 C358.432,970.664 360.928,971.816 363.808,974.184 L368.864,969 C365.152,965.8 360.672,963.688 354.336,963.688 Z M391.136,991.656 L386.336,991.656 L386.336,1009 L376.928,1009 L376.928,964.712 L390.752,964.712 C402.592,964.712 408.608,969 408.608,977.96 C408.608,983.848 405.728,987.368 399.84,989.928 L411.296,1009 L400.608,1009 L391.136,991.656 Z M386.336,985 L391.264,985 C396.192,985 398.88,982.952 398.88,977.96 C398.88,973.416 396.256,971.432 390.56,971.432 L386.336,971.432 L386.336,985 Z M437.152,999.08 L423.264,999.08 L420.768,1009 L410.976,1009 L424.608,964.712 L436.064,964.712 L449.632,1009 L439.648,1009 L437.152,999.08 Z M435.36,992.104 L430.176,971.688 L425.056,992.104 L435.36,992.104 Z M470.24,1009 L458.784,1009 L445.6,964.712 L455.648,964.712 L464.672,1001.192 L473.376,964.712 L482.976,964.712 L470.24,1009 Z M496.608,1009 L496.608,964.712 L487.136,964.712 L487.136,1009 L496.608,1009 Z M534.304,972.072 L523.104,972.072 L523.104,1009 L513.696,1009 L513.696,972.072 L501.92,972.072 L501.92,964.712 L535.328,964.712 L534.304,972.072 Z M558.816,992.296 L558.816,1009 L549.408,1009 L549.408,992.36 L535.2,964.712 L545.504,964.712 L554.336,984.808 L563.104,964.712 L573.024,964.712 L558.816,992.296 Z" id="GRAVITY-Copy"></path>
        </g>
    </g>
</svg>