<?xml version="1.0" encoding="UTF-8" standalone="no"?>
<svg width="240px" height="48px" viewBox="0 0 240 48" version="1.1" xmlns="http://www.w3.org/2000/svg" xmlns:xlink="http://www.w3.org/1999/xlink">
    <!-- Generator: Sketch 45.2 (43514) - http://www.bohemiancoding.com/sketch -->
    <title>GRAVITY</title>
    <desc>Created with Sketch.</desc>
    <defs></defs>
    <g id="Physics-Tool" stroke="none" stroke-width="1" fill="none" fill-rule="evenodd">
        <g id="Physics---Default" transform="translate(-894.000000, -2154.000000)" fill="#FFFFFF">
            <path d="M915.336,2154.688 C904.008,2154.688 894.664,2162.816 894.664,2177.792 C894.664,2193.024 901.512,2201.024 914.312,2201.024 C920.264,2201.024 925.704,2199.296 930.12,2196.544 L930.12,2174.72 L913.8,2174.72 L914.76,2181.568 L920.968,2181.568 L920.968,2192.384 C918.984,2193.472 916.744,2193.984 914.376,2193.984 C907.848,2193.984 904.52,2189.696 904.52,2177.856 C904.52,2166.336 909.512,2161.664 915.784,2161.664 C919.432,2161.664 921.928,2162.816 924.808,2165.184 L929.864,2160 C926.152,2156.8 921.672,2154.688 915.336,2154.688 Z M952.136,2182.656 L947.336,2182.656 L947.336,2200 L937.928,2200 L937.928,2155.712 L951.752,2155.712 C963.592,2155.712 969.608,2160 969.608,2168.96 C969.608,2174.848 966.728,2178.368 960.84,2180.928 L972.296,2200 L961.608,2200 L952.136,2182.656 Z M947.336,2176 L952.264,2176 C957.192,2176 959.88,2173.952 959.88,2168.96 C959.88,2164.416 957.256,2162.432 951.56,2162.432 L947.336,2162.432 L947.336,2176 Z M998.152,2190.08 L984.264,2190.08 L981.768,2200 L971.976,2200 L985.608,2155.712 L997.064,2155.712 L1010.632,2200 L1000.648,2200 L998.152,2190.08 Z M996.36,2183.104 L991.176,2162.688 L986.056,2183.104 L996.36,2183.104 Z M1031.24,2200 L1019.784,2200 L1006.6,2155.712 L1016.648,2155.712 L1025.672,2192.192 L1034.376,2155.712 L1043.976,2155.712 L1031.24,2200 Z M1057.608,2200 L1057.608,2155.712 L1048.136,2155.712 L1048.136,2200 L1057.608,2200 Z M1095.304,2163.072 L1084.104,2163.072 L1084.104,2200 L1074.696,2200 L1074.696,2163.072 L1062.92,2163.072 L1062.92,2155.712 L1096.328,2155.712 L1095.304,2163.072 Z M1119.816,2183.296 L1119.816,2200 L1110.408,2200 L1110.408,2183.36 L1096.2,2155.712 L1106.504,2155.712 L1115.336,2175.808 L1124.104,2155.712 L1134.024,2155.712 L1119.816,2183.296 Z" id="GRAVITY"></path>
        </g>
    </g>
</svg>