<?xml version="1.0" encoding="UTF-8" standalone="no"?>
<svg width="270px" height="47px" viewBox="0 0 270 47" version="1.1" xmlns="http://www.w3.org/2000/svg" xmlns:xlink="http://www.w3.org/1999/xlink">
    <!-- Generator: Sketch 45.2 (43514) - http://www.bohemiancoding.com/sketch -->
    <title>PRESETS</title>
    <desc>Created with Sketch.</desc>
    <defs></defs>
    <g id="Physics-Tool" stroke="none" stroke-width="1" fill="none" fill-rule="evenodd">
        <g id="Physics---Default" transform="translate(-871.000000, -714.000000)" fill="#FFFFFF">
            <path d="M871.76,760 L871.76,714.56 L890.576,714.56 C892.538676,714.56 894.341325,714.975996 895.984,715.808 C897.626675,716.640004 899.045327,717.727993 900.24,719.072 C901.434673,720.416007 902.362663,721.941325 903.024,723.648 C903.685337,725.354675 904.016,727.082658 904.016,728.832 C904.016,730.709343 903.70667,732.511991 903.088,734.24 C902.46933,735.968009 901.584006,737.493327 900.432,738.816 C899.279994,740.138673 897.904008,741.205329 896.304,742.016 C894.703992,742.826671 892.922676,743.232 890.96,743.232 L876.176,743.232 L876.176,760 L871.76,760 Z M876.176,739.264 L890.704,739.264 C892.026673,739.264 893.231995,738.976003 894.32,738.4 C895.408005,737.823997 896.335996,737.056005 897.104,736.096 C897.872004,735.135995 898.469331,734.026673 898.896,732.768 C899.322669,731.509327 899.536,730.19734 899.536,728.832 C899.536,727.423993 899.290669,726.090673 898.8,724.832 C898.309331,723.573327 897.648004,722.474671 896.816,721.536 C895.983996,720.597329 895.002672,719.861336 893.872,719.328 C892.741328,718.794664 891.55734,718.528 890.32,718.528 L876.176,718.528 L876.176,739.264 Z M911.504,760 L911.504,714.56 L930.64,714.56 C932.602676,714.56 934.415992,714.975996 936.08,715.808 C937.744008,716.640004 939.173327,717.727993 940.368,719.072 C941.562673,720.416007 942.490663,721.941325 943.152,723.648 C943.813337,725.354675 944.144,727.082658 944.144,728.832 C944.144,730.496008 943.898669,732.085326 943.408,733.6 C942.917331,735.114674 942.224004,736.479994 941.328,737.696 C940.431996,738.912006 939.36534,739.935996 938.128,740.768 C936.89066,741.600004 935.504008,742.165332 933.968,742.464 L945.168,760 L940.112,760 L929.36,743.232 L915.92,743.232 L915.92,760 L911.504,760 Z M915.92,739.264 L930.832,739.264 C932.154673,739.264 933.359995,738.976003 934.448,738.4 C935.536005,737.823997 936.463996,737.045338 937.232,736.064 C938.000004,735.082662 938.597331,733.97334 939.024,732.736 C939.450669,731.49866 939.664,730.19734 939.664,728.832 C939.664,727.46666 939.418669,726.154673 938.928,724.896 C938.437331,723.637327 937.776004,722.538671 936.944,721.6 C936.111996,720.661329 935.130672,719.914669 934,719.36 C932.869328,718.805331 931.68534,718.528 930.448,718.528 L915.92,718.528 L915.92,739.264 Z M984.272,756.032 L984.272,760 L953.744,760 L953.744,714.56 L983.696,714.56 L983.696,718.528 L958.16,718.528 L958.16,734.912 L980.432,734.912 L980.432,738.688 L958.16,738.688 L958.16,756.032 L984.272,756.032 Z M1018.896,723.072 C1017.61599,721.621326 1015.89868,720.448004 1013.744,719.552 C1011.58932,718.655996 1009.16801,718.208 1006.48,718.208 C1002.42665,718.208 999.482676,718.965326 997.648,720.48 C995.813324,721.994674 994.896,724.05332 994.896,726.656 C994.896,728.02134 995.141331,729.141329 995.632,730.016 C996.122669,730.890671 996.890661,731.647997 997.936,732.288 C998.981339,732.928003 1000.30399,733.482664 1001.904,733.952 C1003.50401,734.421336 1005.39199,734.890664 1007.568,735.36 C1010.00001,735.872003 1012.17599,736.43733 1014.096,737.056 C1016.01601,737.67467 1017.65866,738.463995 1019.024,739.424 C1020.38934,740.384005 1021.43466,741.557326 1022.16,742.944 C1022.88534,744.330674 1023.248,746.04799 1023.248,748.096 C1023.248,750.186677 1022.84267,751.999992 1022.032,753.536 C1021.22133,755.072008 1020.09067,756.351995 1018.64,757.376 C1017.18933,758.400005 1015.46134,759.157331 1013.456,759.648 C1011.45066,760.138669 1009.27468,760.384 1006.928,760.384 C999.802631,760.384 993.722692,758.186689 988.688,753.792 L990.864,750.144 C992.528008,751.893342 994.767986,753.375994 997.584,754.592 C1000.40001,755.808006 1003.53598,756.416 1006.992,756.416 C1010.61868,756.416 1013.45599,755.76534 1015.504,754.464 C1017.55201,753.16266 1018.576,751.189347 1018.576,748.544 C1018.576,747.135993 1018.288,745.952005 1017.712,744.992 C1017.136,744.031995 1016.27201,743.200004 1015.12,742.496 C1013.96799,741.791996 1012.52801,741.184003 1010.8,740.672 C1009.07199,740.159997 1007.07734,739.648003 1004.816,739.136 C1002.42665,738.581331 1000.33601,738.005336 998.544,737.408 C996.751991,736.810664 995.248006,736.064004 994.032,735.168 C992.815994,734.271996 991.89867,733.194673 991.28,731.936 C990.66133,730.677327 990.352,729.130676 990.352,727.296 C990.352,725.205323 990.746663,723.338675 991.536,721.696 C992.325337,720.053325 993.43466,718.688005 994.864,717.6 C996.29334,716.511995 997.99999,715.680003 999.984,715.104 C1001.96801,714.527997 1004.15465,714.24 1006.544,714.24 C1009.53068,714.24 1012.20799,714.698662 1014.576,715.616 C1016.94401,716.533338 1019.08799,717.823992 1021.008,719.488 L1018.896,723.072 Z M1061.904,756.032 L1061.904,760 L1031.376,760 L1031.376,714.56 L1061.328,714.56 L1061.328,718.528 L1035.792,718.528 L1035.792,734.912 L1058.064,734.912 L1058.064,738.688 L1035.792,738.688 L1035.792,756.032 L1061.904,756.032 Z M1102.928,718.528 L1086.736,718.528 L1086.736,760 L1082.256,760 L1082.256,718.528 L1066.064,718.528 L1066.064,714.56 L1102.928,714.56 L1102.928,718.528 Z M1136.016,723.072 C1134.73599,721.621326 1133.01868,720.448004 1130.864,719.552 C1128.70932,718.655996 1126.28801,718.208 1123.6,718.208 C1119.54665,718.208 1116.60268,718.965326 1114.768,720.48 C1112.93332,721.994674 1112.016,724.05332 1112.016,726.656 C1112.016,728.02134 1112.26133,729.141329 1112.752,730.016 C1113.24267,730.890671 1114.01066,731.647997 1115.056,732.288 C1116.10134,732.928003 1117.42399,733.482664 1119.024,733.952 C1120.62401,734.421336 1122.51199,734.890664 1124.688,735.36 C1127.12001,735.872003 1129.29599,736.43733 1131.216,737.056 C1133.13601,737.67467 1134.77866,738.463995 1136.144,739.424 C1137.50934,740.384005 1138.55466,741.557326 1139.28,742.944 C1140.00534,744.330674 1140.368,746.04799 1140.368,748.096 C1140.368,750.186677 1139.96267,751.999992 1139.152,753.536 C1138.34133,755.072008 1137.21067,756.351995 1135.76,757.376 C1134.30933,758.400005 1132.58134,759.157331 1130.576,759.648 C1128.57066,760.138669 1126.39468,760.384 1124.048,760.384 C1116.92263,760.384 1110.84269,758.186689 1105.808,753.792 L1107.984,750.144 C1109.64801,751.893342 1111.88799,753.375994 1114.704,754.592 C1117.52001,755.808006 1120.65598,756.416 1124.112,756.416 C1127.73868,756.416 1130.57599,755.76534 1132.624,754.464 C1134.67201,753.16266 1135.696,751.189347 1135.696,748.544 C1135.696,747.135993 1135.408,745.952005 1134.832,744.992 C1134.256,744.031995 1133.39201,743.200004 1132.24,742.496 C1131.08799,741.791996 1129.64801,741.184003 1127.92,740.672 C1126.19199,740.159997 1124.19734,739.648003 1121.936,739.136 C1119.54665,738.581331 1117.45601,738.005336 1115.664,737.408 C1113.87199,736.810664 1112.36801,736.064004 1111.152,735.168 C1109.93599,734.271996 1109.01867,733.194673 1108.4,731.936 C1107.78133,730.677327 1107.472,729.130676 1107.472,727.296 C1107.472,725.205323 1107.86666,723.338675 1108.656,721.696 C1109.44534,720.053325 1110.55466,718.688005 1111.984,717.6 C1113.41334,716.511995 1115.11999,715.680003 1117.104,715.104 C1119.08801,714.527997 1121.27465,714.24 1123.664,714.24 C1126.65068,714.24 1129.32799,714.698662 1131.696,715.616 C1134.06401,716.533338 1136.20799,717.823992 1138.128,719.488 L1136.016,723.072 Z" id="PRESETS"></path>
        </g>
    </g>
</svg>