<?xml version="1.0" encoding="utf-8"?>
<!-- Generator: Adobe Illustrator 19.2.0, SVG Export Plug-In . SVG Version: 6.00 Build 0)  -->
<svg version="1.1" id="Layer_1" xmlns="http://www.w3.org/2000/svg" xmlns:xlink="http://www.w3.org/1999/xlink" x="0px" y="0px"
	 viewBox="0 0 512 512" style="enable-background:new 0 0 512 512;" xml:space="preserve">
<style type="text/css">
	.st0{fill:none;stroke:#000000;stroke-width:18;stroke-miterlimit:10;}
	.st1{fill:none;stroke:#000000;stroke-width:18;stroke-linecap:round;stroke-miterlimit:10;}
	.st2{fill:none;stroke:#000000;stroke-width:19;stroke-linecap:round;stroke-miterlimit:10;}
</style>
<g>
	<path d="M417.6,96.6c-90.2-90.2-236.9-90.2-327.1,0c-43.7,43.7-67.8,101.8-67.8,163.6c0,61.8,24.1,119.9,67.8,163.6
		c45.1,45.1,104.3,67.6,163.6,67.6c59.2,0,118.5-22.5,163.6-67.6c43.7-43.7,67.8-101.8,67.8-163.6
		C485.4,198.4,461.3,140.3,417.6,96.6z M112.7,118.8c30-30,67.2-48.4,106.1-55.3c-7.4,11.3-14,26-19.8,44
		c-13.2,41.4-20.5,96.3-20.5,154.5c0,2.8,0,7,0.1,9.8c6.4,1.6,12.8,1.7,19.3,2.8c1.9,0.3,3.9,0.6,5.9,0.8c-0.1-4.4-0.1-8.8-0.1-13.3
		c0-116.9,30-193.4,52.3-200c0.5-0.5,1-1,1.4-1.6c50.1,0.8,99.9,20.3,138,58.4c36.6,36.6,57.3,85,58.5,136.6
		c-4.8,22.4-81.7,53.2-200.2,53.2c-115.3,0-191.3-29.1-199.6-51.4C54.9,204.9,75.6,155.9,112.7,118.8z M395.5,401.6
		C356,441.1,304,460.5,252.1,460c-14.1-8.9-30.3-43.3-39.9-96.6l-25.6-1.4c3.2,19.2,7.4,38.5,12.5,54.3c5.1,16,10.9,29.4,17.3,40.1
		c-38-7.2-74.3-25.5-103.7-54.9C83.2,372.1,64,334.9,57.1,294.6c11,6.9,25.2,13.2,42.3,18.7c41.4,13.2,96.3,20.5,154.5,20.5
		c58.2,0,113-7.3,154.5-20.5c17.4-5.6,31.7-11.9,42.9-19C444.2,334.7,425.1,372,395.5,401.6z"/>
</g>
</svg>
