<?xml version="1.0" encoding="utf-8"?>
<!-- Generator: Adobe Illustrator 19.2.0, SVG Export Plug-In . SVG Version: 6.00 Build 0)  -->
<svg version="1.1" id="Layer_1" xmlns="http://www.w3.org/2000/svg" xmlns:xlink="http://www.w3.org/1999/xlink" x="0px" y="0px"
	 viewBox="0 0 512 512" style="enable-background:new 0 0 512 512;" xml:space="preserve">
<style type="text/css">
	.st0{fill:none;stroke:#000000;stroke-width:18;stroke-miterlimit:10;}
	.st1{fill:none;stroke:#000000;stroke-width:18;stroke-linecap:round;stroke-miterlimit:10;}
	.st2{fill:none;stroke:#000000;stroke-width:19;stroke-linecap:round;stroke-miterlimit:10;}
</style>
<g>
	<circle cx="259.2" cy="252.5" r="38.3"/>
	<path d="M259.2,361.8c-60.3,0-109.3-49-109.3-109.3s49-109.3,109.3-109.3s109.3,49,109.3,109.3S319.4,361.8,259.2,361.8z
		 M259.2,171.8c-44.5,0-80.7,36.2-80.7,80.7s36.2,80.7,80.7,80.7s80.7-36.2,80.7-80.7S303.7,171.8,259.2,171.8z"/>
	<path d="M414.1,268.5c-7.9,0-14.2-6.4-14.3-14.2c0-7.9,6.3-14.3,14.2-14.3c17.1-0.1,34.5-0.2,51.6-0.3c0,0,0.1,0,0.1,0
		c7.8,0,14.2,6.3,14.3,14.2c0.1,7.9-6.3,14.3-14.2,14.4C448.8,268.3,431.4,268.4,414.1,268.5C414.2,268.5,414.1,268.5,414.1,268.5z"
		/>
	<path d="M105.8,268.5C105.8,268.5,105.8,268.5,105.8,268.5c-17.3-0.1-34.6-0.2-51.7-0.4c-7.9-0.1-14.2-6.5-14.1-14.4
		c0.1-7.8,6.5-14.1,14.3-14.1c0.1,0,0.1,0,0.2,0c17,0.2,34.3,0.3,51.5,0.4c7.9,0,14.3,6.5,14.2,14.3
		C120.1,262.2,113.7,268.5,105.8,268.5z"/>
	<path d="M369.1,159.5c-3.6,0-7.3-1.4-10-4.1c-5.6-5.6-5.6-14.6-0.1-20.2c12-12.1,24.2-24.5,36.3-36.7c5.5-5.6,14.6-5.7,20.2-0.2
		c5.6,5.5,5.7,14.6,0.2,20.2c-12.1,12.3-24.3,24.7-36.4,36.8C376.4,158.1,372.8,159.5,369.1,159.5z"/>
	<path d="M114.4,413.7c-3.7,0-7.4-1.4-10.2-4.3c-5.5-5.6-5.4-14.7,0.2-20.2c12.2-11.9,24.5-24.1,36.7-36.1
		c5.6-5.6,14.6-5.5,20.2,0.1c5.6,5.6,5.5,14.6-0.1,20.2c-12.2,12.1-24.6,24.3-36.8,36.2C121.6,412.3,118,413.7,114.4,413.7z"/>
	<path d="M260.2,114.2c-7.9,0-14.2-6.4-14.3-14.2c-0.1-17-0.2-34.4-0.3-51.6c-0.1-7.9,6.3-14.3,14.2-14.4c0,0,0.1,0,0.1,0
		c7.8,0,14.2,6.3,14.3,14.2c0.1,17.3,0.3,34.7,0.3,51.7C274.5,107.8,268.1,114.2,260.2,114.2C260.2,114.2,260.2,114.2,260.2,114.2z"
		/>
	<path d="M259.9,474.1c-0.1,0-0.1,0-0.2,0c-7.9-0.1-14.2-6.5-14.1-14.4c0.2-16.9,0.3-34.3,0.4-51.5c0-7.9,6.4-14.2,14.3-14.2
		c0,0,0,0,0.1,0c7.9,0,14.3,6.5,14.2,14.3c-0.1,17.3-0.2,34.6-0.4,51.7C274,467.8,267.7,474.1,259.9,474.1z"/>
	<path d="M151.2,159.3c-3.6,0-7.3-1.4-10-4.1c-12.2-12.1-24.6-24.3-36.7-36.3c-5.6-5.5-5.7-14.6-0.2-20.2c5.5-5.6,14.6-5.7,20.2-0.2
		c12.2,12,24.6,24.2,36.8,36.4c5.6,5.6,5.6,14.6,0.1,20.2C158.5,157.9,154.9,159.3,151.2,159.3z"/>
	<path d="M405.4,414c-3.7,0-7.4-1.4-10.2-4.3c-11.9-12.2-24-24.5-36.1-36.7c-5.6-5.6-5.5-14.6,0.1-20.2c5.6-5.6,14.6-5.5,20.2,0.1
		c12.1,12.2,24.3,24.6,36.2,36.8c5.5,5.6,5.4,14.7-0.2,20.2C412.6,412.6,409,414,405.4,414z"/>
</g>
</svg>
