<?xml version="1.0" encoding="utf-8"?>
<!-- Generator: Adobe Illustrator 19.2.0, SVG Export Plug-In . SVG Version: 6.00 Build 0)  -->
<svg version="1.1" id="Layer_1" xmlns="http://www.w3.org/2000/svg" xmlns:xlink="http://www.w3.org/1999/xlink" x="0px" y="0px"
	 viewBox="0 0 512 512" style="enable-background:new 0 0 512 512;" xml:space="preserve">
<path d="M494.2,117.2c-2.2-5.3-7.8-8.4-13.5-7.3l-89.9,16.4l44.9-72.6c2.8-4.6,2.3-10.5-1.2-14.5s-9.3-5.3-14.2-3l-213.1,98
	c-15.3-4.9-72.2-27.3-111.4-43.2c-0.3-0.1-0.6-0.2-0.8-0.3c0,0-0.1,0-0.1,0c-0.4-0.1-0.9-0.2-1.3-0.3c-0.1,0-0.2-0.1-0.3-0.1
	c-0.5-0.1-0.9-0.2-1.4-0.2c0,0,0,0-0.1,0c-0.5,0-0.9,0.1-1.4,0.1c-0.1,0-0.1,0-0.2,0c0,0-0.1,0-0.1,0c-0.5,0-0.9,0.1-1.3,0.2
	c-0.1,0-0.2,0-0.3,0.1c-0.4,0.1-0.8,0.2-1.2,0.3c-0.1,0-0.1,0-0.2,0.1c-0.4,0.1-0.8,0.3-1.2,0.5c-0.1,0-0.2,0.1-0.3,0.1
	c-0.8,0.4-1.6,0.9-2.3,1.5c-0.1,0.1-0.2,0.1-0.2,0.2c-0.3,0.3-0.7,0.6-1,0.9c0,0-0.1,0.1-0.1,0.1c-0.2,0.2-0.4,0.4-0.5,0.6
	c-0.1,0.1-0.2,0.2-0.3,0.4c-0.1,0.1-0.1,0.2-0.2,0.3c-0.3,0.4-0.5,0.8-0.7,1.2c0,0,0,0,0,0l-27.3,52.1l-32.7,40.1
	c-3.4,4.2-3.7,10.2-0.6,14.7c2.3,3.3,6.1,5.2,10,5.2c1.3,0,2.6-0.2,3.9-0.7l50.1-17l40.6-1.9l-26.7,50.3c-2.4,4.5-1.7,9.9,1.6,13.7
	c0.3,0.3,25.6,29.3,51.7,57.7c15.4,16.8,28,30.1,37.6,39.6c6.6,6.5,11.6,11.2,15.6,14.4l-16,61l-45.7,18.2
	c-6.3,2.5-9.3,9.6-6.8,15.8c1.9,4.8,6.5,7.7,11.3,7.7c1.5,0,3-0.3,4.5-0.9l44.5-17.7l17.2,15.4c2.3,2.1,5.2,3.1,8.1,3.1
	c3.4,0,6.7-1.4,9.1-4.1c4.5-5,4-12.7-1-17.2L212.1,431l16-60.7l75.7,89.3c2.4,2.8,5.8,4.3,9.3,4.3c1.1,0,2.1-0.1,3.2-0.4l84.6-22.8
	c4.8-1.3,8.4-5.4,8.9-10.4c0.6-5-2-9.8-6.4-12.1l-136.2-71.8l44.4-91.2L489.9,132C494.6,128.7,496.4,122.6,494.2,117.2z
	 M294.4,234.2l-122.6-55.4l41.5-20.6c0,0,0,0,0,0l180.4-82.9L294.4,234.2z M146.4,160.8l-24.8-33.2c16.7,6.6,39.3,15.5,54,21
	L146.4,160.8z M87.3,166.6l-9.6-12.3l15.1-28.9l27.4,37.3l1.7,2.3L87.3,166.6z M123.2,243.6l22.8-43.3c18.3,44.8,35.2,91,47,121
	C173.7,301.1,147.7,271.5,123.2,243.6z M317.4,438l-57.5-67.8l104.6,55.1L317.4,438z M223.3,336.7c-5.5-14.1-42.6-104.1-30.8-76.4
	c0.6,1.4-20.5-49.2-27.9-66.3l120.9,58.9l-47.1,95L223.3,336.7z M330.5,216.7l43-62.3l70.9-16.2L330.5,216.7z"/>
</svg>
