<?xml version="1.0" encoding="utf-8"?>
<!-- Generator: Adobe Illustrator 22.0.1, SVG Export Plug-In . SVG Version: 6.00 Build 0)  -->
<svg version="1.1" id="Layer_1" xmlns="http://www.w3.org/2000/svg" xmlns:xlink="http://www.w3.org/1999/xlink" x="0px" y="0px"
	 viewBox="0 0 512 512" style="enable-background:new 0 0 512 512;" xml:space="preserve">
<style type="text/css">
	.st0{fill:#FFFFFF;}
</style>
<g>
	<path class="st0" d="M256.5,83.7c52.1,0,104.2-0.1,156.3,0.1c23.7,0.1,37.6,13.5,37.6,37.2c0.2,89.6,0.3,179.2,0,268.7
		c-0.1,25.5-13.6,38.2-39,38.3c-103.8,0.1-207.5,0.1-311.3,0c-25.8,0-38.8-13.5-38.8-39.7c0-87.9,0-175.9,0-263.8
		c0-27.7,12.8-40.7,40.2-40.8C153.2,83.6,204.8,83.7,256.5,83.7z M423.7,347c0.4-6.9,0.7-10.5,0.7-14.1c0-68.8,0-137.5,0-206.3
		c0-16.2-0.6-16.7-17-16.7c-101.3,0-202.5,0-303.8,0c-15.9,0-16.9,1-16.9,17.2c0,57.5,0,115,0,172.5c0,3.5,0.3,7.1,0.6,12.4
		c7.3-3.5,13.2-6.3,19.1-9.2c16.7-8.1,29.8-6.4,43.6,6c5.2,4.7,10.3,9.8,14.7,15.3c5.6,6.9,10.8,7.8,19.1,3.5
		c40.3-20.8,81-40.9,121.6-61.1c18.3-9.1,30.6-7.1,45.3,7c9.3,9,18.3,18.2,27.4,27.4C392.7,315.5,407.2,330.2,423.7,347z
		 M95.6,400.9c7.3,0.4,11.2,0.8,15.1,0.8c98.7,0,197.5,0.1,296.2-0.2c5.6,0,14-1.4,16.2-5.1c4.5-7.4-0.3-14.4-6.5-20.5
		c-26.8-26.2-53.5-52.6-79.5-79.6c-8.5-8.9-15.4-9.4-26.1-4c-67.5,34.3-135.3,67.9-203,101.8C104.9,395.7,101.8,397.5,95.6,400.9z
		 M88.2,375.1c20.6-10.3,40.2-20.1,62.4-31.3c-7.6-6.7-13.2-12.2-19.5-16.9c-2.6-1.9-7-3.3-9.9-2.5c-30,8.1-36,16.8-34,47.6
		C87.1,372.4,87.4,372.8,88.2,375.1z"/>
	<path class="st0" d="M222.2,205.5c0.3,25.1-20.8,46.5-46,46.8c-25.1,0.3-46.5-20.8-46.8-46.1c-0.3-25.1,20.8-46.5,46.1-46.8
		C200.5,159.2,221.9,180.2,222.2,205.5z M176,184.1c-12.3-0.1-21.7,9-21.9,21.3c-0.2,12.3,8.8,21.8,21,22.2
		c12.8,0.4,22.5-9.1,22.5-21.9C197.5,193.4,188.3,184.2,176,184.1z"/>
</g>
</svg>
