<?xml version="1.0" encoding="utf-8"?>
<!-- Generator: Adobe Illustrator 19.1.0, SVG Export Plug-In . SVG Version: 6.00 Build 0)  -->
<svg version="1.1" id="Layer_1" xmlns="http://www.w3.org/2000/svg" xmlns:xlink="http://www.w3.org/1999/xlink" x="0px" y="0px"
	 width="32px" height="32px" viewBox="0 0 32 32" enable-background="new 0 0 32 32" xml:space="preserve">
<g>
	<g>
		<path fill="#FFFFFF" d="M6.5,22.1c-0.4,0-0.7-0.1-1-0.4l-4.9-4.9c-0.6-0.6-0.6-1.5,0-2.1c0.6-0.6,1.5-0.6,2.1,0l4.9,4.9
			c0.6,0.6,0.6,1.5,0,2.1C7.3,22,6.9,22.1,6.5,22.1z"/>
		<path fill="#FFFFFF" d="M6.6,22.1c-0.4,0-0.8-0.1-1-0.4c-0.6-0.6-0.6-1.5,0-2.1l4.9-4.8c0.6-0.6,1.5-0.5,2.1,0
			c0.6,0.6,0.6,1.5,0,2.1l-4.9,4.8C7.4,21.9,7,22.1,6.6,22.1z"/>
	</g>
	<path fill="#FFFFFF" d="M6.3,29c-0.8,0-1.4-0.6-1.5-1.4c0-0.8,0.6-1.5,1.4-1.5c0.1,0,0.1,0,5.8,0c3.3,0,7.4,0,7.7,0
		c5.2-0.5,9.3-5,9.3-10.3c0-5.7-4.7-10.4-10.4-10.4c-2.1,0-5.2,0.5-7.5,2.9c-2.2,2.3-3.2,5.9-2.9,10.4c0,0.8-0.6,1.5-1.4,1.5
		c-0.8,0-1.5-0.6-1.5-1.4c-0.3-5.3,1-9.7,3.7-12.5c2.3-2.5,5.7-3.8,9.6-3.8c7.3,0,13.3,6,13.3,13.3c0,6.9-5.1,12.6-12,13.2
		c-0.1,0-0.1,0-7.9,0C9.1,29,6.5,29,6.3,29C6.3,29,6.3,29,6.3,29z"/>
</g>
</svg>
