<?xml version="1.0" encoding="utf-8"?>
<!-- Generator: Adobe Illustrator 19.1.0, SVG Export Plug-In . SVG Version: 6.00 Build 0)  -->
<svg version="1.1" id="Layer_1" xmlns="http://www.w3.org/2000/svg" xmlns:xlink="http://www.w3.org/1999/xlink" x="0px" y="0px"
	 width="32px" height="32px" viewBox="0 0 32 32" enable-background="new 0 0 32 32" xml:space="preserve">
<path fill="#18A6DF" d="M25.4,10.3H12c-0.8,0-1.4-0.6-1.4-1.4s0.6-1.4,1.4-1.4h13.4c0.8,0,1.4,0.6,1.4,1.4S26.2,10.3,25.4,10.3z"/>
<path fill="#18A6DF" d="M25.4,21.2H12c-0.8,0-1.4-0.6-1.4-1.4s0.6-1.4,1.4-1.4h13.4c0.8,0,1.4,0.6,1.4,1.4S26.2,21.2,25.4,21.2z"/>
<path fill="#18A6DF" d="M25.4,15.7H12c-0.8,0-1.4-0.6-1.4-1.4S11.3,13,12,13h13.4c0.8,0,1.4,0.6,1.4,1.4S26.2,15.7,25.4,15.7z"/>
<path fill="#18A6DF" d="M27,27.7H6.5C5.7,27.7,5,27,5,26.2V6.3c0-0.8,0.6-1.4,1.4-1.4s1.4,0.6,1.4,1.4v18.5H27
	c0.8,0,1.4,0.6,1.4,1.4S27.8,27.7,27,27.7z"/>
</svg>
