<?xml version="1.0" encoding="utf-8"?>
<!-- Generator: Adobe Illustrator 19.1.0, SVG Export Plug-In . SVG Version: 6.00 Build 0)  -->
<svg version="1.1" id="Layer_1" xmlns="http://www.w3.org/2000/svg" xmlns:xlink="http://www.w3.org/1999/xlink" x="0px" y="0px"
	 width="32px" height="32px" viewBox="0 0 32 32" enable-background="new 0 0 32 32" xml:space="preserve">
<g>
	<g>
		<path fill="#18A6DF" d="M10.9,29.1H4.1c-0.8,0-1.4-0.6-1.4-1.4s0.6-1.4,1.4-1.4h6.8c0.8,0,1.4,0.6,1.4,1.4S11.7,29.1,10.9,29.1z"
			/>
		<path fill="#18A6DF" d="M11,28.9C11,28.9,11,28.9,11,28.9c-0.8,0-1.5-0.7-1.4-1.5l0.1-6.8c0-0.8,0.7-1.4,1.4-1.4c0,0,0,0,0,0
			c0.8,0,1.4,0.7,1.4,1.5l-0.1,6.8C12.4,28.3,11.8,28.9,11,28.9z"/>
	</g>
	<path fill="#18A6DF" d="M9.6,27.7c-0.3,0-0.7-0.1-1-0.4c-3.8-3.4-7.2-9.1-5.6-15.2c1.5-5.6,7.1-9.5,13.3-9.3c0.8,0,1.4,0.7,1.4,1.5
		c0,0.8-0.7,1.4-1.5,1.4c-4.8-0.2-9.3,2.9-10.4,7.2c-1.3,4.8,1.7,9.6,4.7,12.3c0.6,0.5,0.6,1.4,0.1,2C10.4,27.5,10,27.7,9.6,27.7z"
		/>
</g>
<g>
	<g>
		<path fill="#18A6DF" d="M28.2,6h-6.8C20.6,6,20,5.3,20,4.5s0.6-1.4,1.4-1.4h6.8c0.8,0,1.4,0.6,1.4,1.4S29,6,28.2,6z"/>
		<path fill="#18A6DF" d="M21.2,12.9C21.2,12.9,21.2,12.9,21.2,12.9c-0.8,0-1.5-0.7-1.4-1.5l0.1-6.8c0-0.8,0.7-1.5,1.5-1.4
			c0.8,0,1.4,0.7,1.4,1.5l-0.1,6.8C22.7,12.2,22,12.9,21.2,12.9z"/>
	</g>
	<path fill="#18A6DF" d="M16.4,29.4c-0.2,0-0.3,0-0.5,0c-0.8,0-1.4-0.7-1.4-1.5c0-0.8,0.7-1.4,1.5-1.4c4.8,0.2,9.3-2.9,10.4-7.2
		c1.3-4.8-1.7-9.6-4.7-12.3c-0.6-0.5-0.6-1.4-0.1-2c0.5-0.6,1.4-0.6,2-0.1c3.8,3.4,7.2,9.1,5.6,15.2C27.7,25.5,22.4,29.4,16.4,29.4z
		"/>
</g>
</svg>
