<?xml version="1.0" encoding="utf-8"?>
<!-- Generator: Adobe Illustrator 19.1.0, SVG Export Plug-In . SVG Version: 6.00 Build 0)  -->
<svg version="1.1" id="Layer_1" xmlns="http://www.w3.org/2000/svg" xmlns:xlink="http://www.w3.org/1999/xlink" x="0px" y="0px"
	 width="32px" height="32px" viewBox="0 0 32 32" enable-background="new 0 0 32 32" xml:space="preserve">
<path fill="#58595B" d="M22.5,14.6h-9.5c-0.7,0-1.2-0.6-1.2-1.2s0.6-1.2,1.2-1.2h9.5c0.7,0,1.2,0.6,1.2,1.2S23.2,14.6,22.5,14.6z"/>
<path fill="#58595B" d="M17.7,19.4c-0.7,0-1.2-0.6-1.2-1.2V8.6c0-0.7,0.6-1.2,1.2-1.2S19,7.9,19,8.6v9.5
	C19,18.8,18.4,19.4,17.7,19.4z"/>
<g>
	<path fill="#58595B" d="M3.9,30.2c-0.4,0-0.7-0.1-1-0.4c-0.6-0.6-0.6-1.5,0-2.1l6.1-6.1c0.6-0.6,1.5-0.6,2.1,0
		c0.6,0.6,0.6,1.5,0,2.1L5,29.8C4.7,30.1,4.3,30.2,3.9,30.2z"/>
	<path fill="#58595B" d="M17.7,4.5c4.9,0,8.9,4,8.9,8.9c0,4.9-4,8.9-8.9,8.9s-8.9-4-8.9-8.9C8.8,8.5,12.8,4.5,17.7,4.5 M17.7,1.6
		c-6.5,0-11.8,5.3-11.8,11.8c0,6.5,5.3,11.8,11.8,11.8c6.5,0,11.8-5.3,11.8-11.8C29.5,6.9,24.2,1.6,17.7,1.6L17.7,1.6z"/>
</g>
</svg>
