<?xml version="1.0" encoding="utf-8"?>
<!-- Generator: Adobe Illustrator 19.1.0, SVG Export Plug-In . SVG Version: 6.00 Build 0)  -->
<svg version="1.1" id="Layer_1" xmlns="http://www.w3.org/2000/svg" xmlns:xlink="http://www.w3.org/1999/xlink" x="0px" y="0px"
	 width="32px" height="32px" viewBox="0 0 32 32" enable-background="new 0 0 32 32" xml:space="preserve">
<path fill="#18A6DF" d="M16,26.9c-0.4,0-0.8,0-1.2,0c-0.2,0-0.3-0.1-0.3-0.2c-0.4-1-0.8-1.9-1.2-2.9c-0.1-0.3-0.8-0.6-1.2-0.5
	c-0.9,0.4-1.9,0.8-2.8,1.2c-0.2,0.1-0.3,0.1-0.5-0.1c-0.5-0.5-1.1-1.1-1.6-1.6c-0.2-0.2-0.2-0.3-0.1-0.5c0.4-0.9,0.8-1.9,1.1-2.8
	c0.1-0.3-0.2-1-0.5-1.2C6.9,18,5.9,17.6,5,17.2c-0.2-0.1-0.3-0.2-0.3-0.4c0-0.7,0-1.5,0-2.2c0-0.2,0.1-0.3,0.3-0.4
	c0.9-0.4,1.9-0.8,2.8-1.2c0.4-0.2,0.6-0.8,0.5-1.2C7.9,10.9,7.5,9.9,7.1,9C7,8.8,7,8.7,7.2,8.6C7.8,8,8.3,7.5,8.8,6.9
	C9,6.8,9,6.8,9.2,6.9c1,0.4,1.9,0.8,2.9,1.2c0.4,0.1,1-0.1,1.2-0.5c0.4-0.9,0.8-1.9,1.2-2.8c0.1-0.2,0.2-0.3,0.4-0.3
	c0.8,0,1.5,0,2.3,0c0.2,0,0.3,0.1,0.4,0.3c0.4,0.9,0.8,1.9,1.2,2.8c0.2,0.4,0.8,0.7,1.2,0.5c0.9-0.4,1.9-0.8,2.8-1.2
	c0.2-0.1,0.3-0.1,0.5,0.1c0.5,0.5,1.1,1.1,1.6,1.6c0.1,0.1,0.2,0.2,0.1,0.4c-0.4,1-0.8,1.9-1.2,2.9c-0.1,0.3,0.1,1,0.5,1.1
	c1,0.4,1.9,0.8,2.9,1.2c0.2,0.1,0.2,0.2,0.2,0.4c0,0.8,0,1.5,0,2.3c0,0.2-0.1,0.3-0.3,0.4c-1,0.4-1.9,0.8-2.9,1.2
	c-0.3,0.1-0.6,0.8-0.4,1.1c0.4,0.9,0.8,1.9,1.2,2.8c0.1,0.2,0.1,0.3-0.1,0.5c-0.5,0.5-1.1,1.1-1.6,1.6c-0.1,0.1-0.2,0.2-0.4,0.1
	c-1-0.4-1.9-0.8-2.9-1.2c-0.3-0.1-1,0.1-1.1,0.5c-0.4,1-0.8,1.9-1.2,2.9c-0.1,0.2-0.2,0.3-0.4,0.2C16.7,26.9,16.4,26.9,16,26.9z
	 M15.9,19.9c2.5,0,4.3-2.3,4.2-4.3c-0.1-1.8-1.6-4.1-4.2-4.1c-2.6,0-4.3,2.4-4.2,4.3C11.8,17.6,13.3,19.9,15.9,19.9z"/>
</svg>
