<?xml version="1.0" encoding="utf-8"?>
<!-- Generator: Adobe Illustrator 19.1.0, SVG Export Plug-In . SVG Version: 6.00 Build 0)  -->
<svg version="1.1" id="Layer_1" xmlns="http://www.w3.org/2000/svg" xmlns:xlink="http://www.w3.org/1999/xlink" x="0px" y="0px"
	 width="32px" height="32px" viewBox="0 0 32 32" enable-background="new 0 0 32 32" xml:space="preserve">
<path fill="#18A6DF" d="M24.9,25.5H7.5c-0.7,0-1.2-0.5-1.2-1.2V7.5c0-0.7,0.5-1.2,1.2-1.2s1.2,0.5,1.2,1.2v15.6h16.2
	c0.7,0,1.2,0.5,1.2,1.2C26.1,25,25.6,25.5,24.9,25.5z"/>
<path fill="#18A6DF" d="M24.9,25.5c-0.7,0-1.2-0.5-1.2-1.2V8.7H7.5c-0.7,0-1.2-0.5-1.2-1.2s0.5-1.2,1.2-1.2h17.4
	c0.7,0,1.2,0.5,1.2,1.2v16.8C26.1,25,25.6,25.5,24.9,25.5z"/>
</svg>
