<?xml version="1.0" encoding="UTF-8" standalone="no"?>
<svg
   xmlns:dc="http://purl.org/dc/elements/1.1/"
   xmlns:cc="http://creativecommons.org/ns#"
   xmlns:rdf="http://www.w3.org/1999/02/22-rdf-syntax-ns#"
   xmlns:svg="http://www.w3.org/2000/svg"
   xmlns="http://www.w3.org/2000/svg"
   xmlns:sodipodi="http://sodipodi.sourceforge.net/DTD/sodipodi-0.dtd"
   xmlns:inkscape="http://www.inkscape.org/namespaces/inkscape"
   viewBox="0 0 91.046409 92.5831"
   x="0px"
   y="0px"
   version="1.1"
   id="svg16"
   sodipodi:docname="appreciate-i.svg"
   width="91.04641"
   height="92.583099"
   inkscape:version="0.92.3 (2405546, 2018-03-11)">
  <metadata
     id="metadata22">
    <rdf:RDF>
      <cc:Work
         rdf:about="">
        <dc:format>image/svg+xml</dc:format>
        <dc:type
           rdf:resource="http://purl.org/dc/dcmitype/StillImage" />
        <dc:title>SCHOOL_ICONS_100</dc:title>
      </cc:Work>
    </rdf:RDF>
  </metadata>
  <defs
     id="defs20" />
  <sodipodi:namedview
     pagecolor="#ffffff"
     bordercolor="#666666"
     borderopacity="1"
     objecttolerance="10"
     gridtolerance="10"
     guidetolerance="10"
     inkscape:pageopacity="0"
     inkscape:pageshadow="2"
     inkscape:window-width="1920"
     inkscape:window-height="1017"
     id="namedview18"
     showgrid="false"
     inkscape:zoom="1.888"
     inkscape:cx="46.168739"
     inkscape:cy="33.542603"
     inkscape:window-x="-8"
     inkscape:window-y="-8"
     inkscape:window-maximized="1"
     inkscape:current-layer="svg16" />
  <title
     id="title2">SCHOOL_ICONS_100</title>
  <path
     d="m 90.06874,62.450495 v -0.14 a 16.31,16.31 0 0 0 -1.58,-5.39 l -9.97,-27.22 a 5.72,5.72 0 0 0 -4.2,-4.08 7.27,7.27 0 0 0 -6.78,2 5.71,5.71 0 0 0 -1.37,5.67 v 0.17 l -13.51,-13.59 c -3.17,-3.17 -7.08,-2.58 -9.31,-0.36 a 6.31,6.31 0 0 0 -1.69,3 l -3.26,-3.26 a 6.42,6.42 0 0 0 -9.05,-0.33 6.83,6.83 0 0 0 -2.37,5.81 6.28,6.28 0 0 0 -6.32,5.71 l -3.68,-2.79 a 6.38,6.38 0 0 0 -6.460001,-1 7.12,7.12 0 0 0 -4.2399997,5.58 6.37,6.37 0 0 0 2.52,5.87 6.07,6.07 0 0 0 -2.87,2.07 c -1.92,2.53 -1.84,6.61 2,9.54 l 2.8099997,2.13 a 6.15,6.15 0 0 0 -3.1799997,2.3 c -1.76,2.49 -1.78,6.59 2.31,9.7 l 32.2300007,24.51 a 16.43,16.43 0 0 0 21.19,-1.08 16.49,16.49 0 0 0 15.06,-4.47 l 7,-7 a 16.49,16.49 0 0 0 4.79,-12.69 1.51,1.51 0 0 0 -0.07,-0.66 z m -65.9,-33.21 a 3.21,3.21 0 0 1 2.67,-1.48 3.72,3.72 0 0 1 1.65,0.41 v 0 l 0.33,0.37 a 6.15,6.15 0 0 0 -4.65,4.28 3.19,3.19 0 0 1 0,-3.58 z m -14.9100007,3.46 a 4.13,4.13 0 0 1 2.4300007,-3.16 3.36,3.36 0 0 1 3.49,0.58 l 7.79,5.9 1.56,1.18 c 0.05,0.13 0.1,0.26 0.16,0.39 a 9.06,9.06 0 0 0 1.75,2.4 l 2.47,2.48 a 6.24,6.24 0 0 0 -1.73,0.58 6.1,6.1 0 0 0 -2.9,3.17 l -8.47,-6.42 -0.15,-0.14 -4.910001,-3.72 a 3.36,3.36 0 0 1 -1.4899997,-3.24 z m 34.6600007,53.26 -32.21,-24.42 c -2.5200007,-1.91 -2.6600007,-4.18 -1.670001,-5.58 a 3.21,3.21 0 0 1 2.670001,-1.35 5.18,5.18 0 0 1 2.8,0.94 l 14.35,10.89 a 1.5,1.5 0 1 0 1.81,-2.39 l -13.72,-10.41 -0.11,-0.1 -0.22,-0.16 -7.8500007,-6 c -2.41,-1.82 -2.46,-4 -1.44,-5.33 1.02,-1.33 3.0900007,-1.86 5.4700007,-0.09 l 0.11,0.11 10,7.59 a 8.58,8.58 0 0 0 2.52,4.55 l 15,15 9.88,9.88 a 50.23,50.23 0 0 0 5.7,5.45 16.7,16.7 0 0 0 2.73,1.6 l 0.19,0.09 a 13.48,13.48 0 0 1 -16.01,-0.27 z m 39.25,-12.24 -7,7 a 13.51,13.51 0 0 1 -19.09,0 l -28.52,-28.62 a 5.35,5.35 0 0 1 -1.73,-3.34 3.14,3.14 0 0 1 1.71,-3.07 4.19,4.19 0 0 1 4.51,0.91 v 0 l 12.82,12.82 a 1.5,1.5 0 0 0 2.12,-2.12 l -19.43,-19.46 a 5.52,5.52 0 0 1 -1.39,-2.12 3.16,3.16 0 0 1 1.24,-3.8 c 1.13,-0.71 3,-0.78 4.94,1.14 0,0 0,0 0,0.07 l 19.43,19.41 a 1.5,1.5 0 0 0 2.12,-2.12 l -19.39,-19.42 a 0.76,0.76 0 0 0 -0.06,-0.08 l -4.35,-4.38 a 3.23,3.23 0 0 1 -0.41,-0.48 3.46,3.46 0 0 1 0.64,-4.88 3.44,3.44 0 0 1 5,0.19 l 23.81,23.8 a 1.5,1.5 0 0 0 2.03,-2.09 l -16.34,-16.38 c -1.87,-1.87 -1.53,-3.89 -0.36,-5.07 1.17,-1.18 3.19,-1.52 5.07,0.36 l 17.72,17.72 a 1.5,1.5 0 0 0 2.5,-1.48 l -1.68,-5.78 a 2.68,2.68 0 0 1 0.63,-2.77 4.3,4.3 0 0 1 3.9,-1.14 2.75,2.75 0 0 1 2.06,2.1 l 10,27.39 0.07,0.15 a 13.32,13.32 0 0 1 1.33,4.58 1.4,1.4 0 0 0 0,0.14 c 0,0 0,0.07 0,0.11 a 13.5,13.5 0 0 1 -3.9,10.71 z"
     id="path4"
     inkscape:connector-curvature="0"
     style="fill:#ffffff;fill-opacity:1;stroke:#ffffff;stroke-width:1.75;stroke-miterlimit:4;stroke-dasharray:none;stroke-opacity:1" />
  <path
     d="m 7.2587393,5.1404947 a 1.5,1.5 0 1 0 -2.09,2.14 L 15.44874,17.440495 a 1.5,1.5 0 0 0 2.11,-2.13 z"
     id="path6"
     inkscape:connector-curvature="0"
     style="fill:#ffffff;fill-opacity:1;stroke:#ffffff;stroke-width:1.75;stroke-miterlimit:4;stroke-dasharray:none;stroke-opacity:1" />
  <path
     d="m 11.83874,22.870495 a 1.5,1.5 0 0 0 0.4,-2.95 l -9.5000007,-2.63 a 1.5,1.5 0 0 0 -0.8,2.89 l 9.5000007,2.63 a 1.5,1.5 0 0 0 0.4,0.06 z"
     id="path8"
     inkscape:connector-curvature="0"
     style="fill:#ffffff;fill-opacity:1;stroke:#ffffff;stroke-width:1.75;stroke-miterlimit:4;stroke-dasharray:none;stroke-opacity:1" />
  <path
     d="m 21.37874,0.88049471 a 1.5,1.5 0 0 0 -1.37,1.65999999 l 0.74,9.3300003 a 1.5,1.5 0 0 0 1.49,1.38 h 0.12 a 1.5,1.5 0 0 0 1.38,-1.71 l -0.74,-9.3300003 a 1.5,1.5 0 0 0 -1.62,-1.32999999 z"
     id="path10"
     inkscape:connector-curvature="0"
     style="fill:#ffffff;fill-opacity:1;stroke:#ffffff;stroke-width:1.75;stroke-miterlimit:4;stroke-dasharray:none;stroke-opacity:1" />
  <text
     x="-3.8312604"
     y="111.54049"
     font-size="5px"
     font-weight="bold"
     id="text12"
     style="font-weight:bold;font-size:5px;font-family:'Helvetica Neue', Helvetica, Arial-Unicode, Arial, Sans-serif;fill:#000000">Created by Rena</text>
  <text
     x="-3.8312604"
     y="116.54049"
     font-size="5px"
     font-weight="bold"
     id="text14"
     style="font-weight:bold;font-size:5px;font-family:'Helvetica Neue', Helvetica, Arial-Unicode, Arial, Sans-serif;fill:#000000">from the Noun Project</text>
</svg>
