<?xml version="1.0" encoding="utf-8"?>
<!-- Generator: Adobe Illustrator 23.0.3, SVG Export Plug-In . SVG Version: 6.00 Build 0)  -->
<svg version="1.1"
	 id="Layer_1" xmlns:cc="http://creativecommons.org/ns#" xmlns:dc="http://purl.org/dc/elements/1.1/" xmlns:inkscape="http://www.inkscape.org/namespaces/inkscape" xmlns:rdf="http://www.w3.org/1999/02/22-rdf-syntax-ns#" xmlns:sodipodi="http://sodipodi.sourceforge.net/DTD/sodipodi-0.dtd" xmlns:svg="http://www.w3.org/2000/svg"
	 xmlns="http://www.w3.org/2000/svg" xmlns:xlink="http://www.w3.org/1999/xlink" x="0px" y="0px" viewBox="0 0 63 78.8"
	 style="enable-background:new 0 0 63 78.8;" xml:space="preserve">
<style type="text/css">
	.st0{fill-rule:evenodd;clip-rule:evenodd;fill:#FFFFFF;}
	.st1{fill:#FFFFFF;}
	.st2{font-family:'Arial-BoldMT';}
	.st3{font-size:5px;}
</style>
<path class="st0" d="M31.2,0C14,0,0,14,0,31.2c0,17.2,14,31.2,31.1,31.2c17.2,0,31.1-14,31.1-31.2C62.3,14,48.3,0,31.2,0z M31.2,3
	c15.5,0,28.1,12.6,28.1,28.2S46.7,59.3,31.2,59.3C15.6,59.3,3,46.7,3,31.2S15.6,3,31.2,3z M21.7,18.3c-1.7,0-3.4,0.6-4.7,1.9
	c-0.6,0.6-0.6,1.5,0,2.1s1.5,0.6,2.1,0c1.4-1.4,3.7-1.3,5.1,0.1c0.3,0.3,0.7,0.4,1.1,0.4c0.4,0,0.8-0.1,1.1-0.4
	c0.6-0.6,0.6-1.5,0-2.1C25.1,19,23.4,18.3,21.7,18.3z M42.1,18.3c-1.7,0-3.4,0.6-4.7,1.9c-0.6,0.6-0.6,1.5,0,2.1
	c0.6,0.6,1.5,0.6,2.1,0c1.4-1.4,3.7-1.3,5.1,0.1c0.3,0.3,0.7,0.4,1.1,0.4s0.8-0.1,1.1-0.4c0.6-0.6,0.6-1.5,0-2.1
	C45.5,19,43.8,18.3,42.1,18.3z M18.9,34.2c-0.8,0-1.5,0.7-1.5,1.5c0,6.8,5.4,12.1,12.3,12.1h5.4c6.9,0,12.3-5.2,12.3-11.9
	c0-0.8-0.7-1.5-1.5-1.5c-0.8,0-1.5,0.7-1.5,1.5c0,5-4.1,8.9-9.3,8.9h-5.4c-5.2,0-9.3-4-9.3-9.1C20.4,34.9,19.7,34.2,18.9,34.2z"/>
<text transform="matrix(1 0 0 1 0 78)" class="st1 st2 st3">Created by Shital Patel</text>
<text transform="matrix(1 0 0 1 0 83)" class="st1 st2 st3">from the Noun Project</text>
</svg>
