<?xml version="1.0" encoding="UTF-8"?>
<svg width="353" height="95" fill="none" version="1.1" viewBox="0 0 353 95" xmlns="http://www.w3.org/2000/svg" xmlns:cc="http://creativecommons.org/ns#" xmlns:dc="http://purl.org/dc/elements/1.1/" xmlns:rdf="http://www.w3.org/1999/02/22-rdf-syntax-ns#">
 <metadata>
  <rdf:RDF>
   <cc:Work rdf:about="">
    <dc:format>image/svg+xml</dc:format>
    <dc:type rdf:resource="http://purl.org/dc/dcmitype/StillImage"/>
    <dc:title/>
   </cc:Work>
  </rdf:RDF>
 </metadata>
 <rect width="353" height="95" rx="10" fill="#fff"/>
 <g transform="translate(-64)" clip-path="url(#clip0)">
  <path d="m115.08 28.505-2.544 2.5441c-3.354-3.7005-8.095-6.129-13.53-6.129-5.2039 0-9.8295 2.3128-13.183 5.7821l-2.5441-2.5441c3.9318-4.1631 9.5982-6.8229 15.727-6.8229 6.36 0 12.142 2.7754 16.074 7.1698zm-8.442 8.4432 2.545-2.5441c-2.429-2.891-6.129-4.7412-10.177-4.7412-3.9318 0-7.401 1.7346-9.8295 4.3943l2.5441 2.5441c1.8503-1.9659 4.3944-3.3536 7.2854-3.3536 3.1218 0 5.8978 1.3877 7.6318 3.7005zm-3.291 5.3342v-0.5659c0-2.2639-1.915-4.075-4.1677-4.075-2.253 0-4.168 1.8111-4.168 4.075v7.8103zm-7.5234 16.37-3.3507 2.9444c1.5344 1.8207 3.9944 2.985 6.7063 2.985 4.6188 0 8.4488-3.3958 8.4488-7.584v-5.886c0-1.132 0.788-2.0375 1.915-2.0375 1.014 0 2.027 0.7923 2.027 1.9243v5.9992c0 5.7729-4.505 10.527-10.363 11.432v3.8486h4.956c1.127 0 2.028 0.9055 2.028 2.0375 0 1.1319-0.901 2.0374-2.028 2.0374h-13.855c-1.1265 0-2.0276-0.9055-2.0276-2.0374 0-1.132 0.9011-2.0375 2.0276-2.0375h4.8439v-3.8486c-3.0801-0.4072-5.8103-1.9866-7.687-4.1899l-3.3526 2.9461c-0.7885 0.6792-2.0277 0.566-2.7036-0.2264l-0.2253-0.2264c-0.6759-0.7923-0.5632-2.0374 0.2253-2.7166l28.613-25.355c0.789-0.6791 2.028-0.5659 2.704 0.2264l0.225 0.2264c0.676 0.9055 0.563 2.0375-0.113 2.8298l-11.49 10.097v4.1636c0 2.2638-1.915 4.0749-4.1677 4.0749-1.4027 0-2.6074-0.6368-3.3557-1.6271zm-6.8954-9.577c1.0138 0 1.8023 0.9056 1.8023 2.0375v2.2639l-3.9427 3.509v-5.9993c0.1127-1.0187 1.0139-1.9243 2.1404-1.8111z" clip-rule="evenodd" fill="#b20012" fill-rule="evenodd"/>
 </g>
 <path d="m68.308 77h9.6v-43.2l17.36 43.2h3.44l17.04-43.2v43.2h10.64v-57.2h-14.08l-14.72 39.04-15.04-39.04h-14.24zm93.172 0.8c15.12 0 23.2-8.24 23.2-23.2v-34.8h-10.72v33.92c0 11.84-4.16 15.52-12.4 15.52-8.48 0-11.84-4.32-11.84-14.8v-34.64h-10.72v35.44c0 14.72 8.16 22.56 22.48 22.56zm47.253-0.8h10.72v-48.8h15.92v-8.4h-42.56v8.4h15.92zm35.2 0h37.12v-8.4h-26.48v-16.72h20.16v-8h-20.16v-15.68h25.12v-8.4h-35.76zm57.359-8.4v-40.4h6.16c13.44 0 19.04 7.44 19.04 19.76v0.64c0 12.64-6.16 20-18.96 20zm-10.64 8.4h17.2c20.08 0 29.76-11.84 29.76-28.48v-0.72c0-16.64-9.68-28-29.6-28h-17.36z" fill="#b20012"/>
 <defs>
  <clipPath id="clip0">
   <rect transform="translate(70.598 21.335)" width="55.508" height="55.508" fill="#fff"/>
  </clipPath>
 </defs>
</svg>
