<?xml version="1.0" encoding="utf-8"?>
<!-- Generator: Adobe Illustrator 19.2.0, SVG Export Plug-In . SVG Version: 6.00 Build 0)  -->
<svg version="1.1"
	 id="svg4136" inkscape:version="0.91 r13725" sodipodi:docname="address-bar.svg" xmlns:cc="http://creativecommons.org/ns#" xmlns:dc="http://purl.org/dc/elements/1.1/" xmlns:inkscape="http://www.inkscape.org/namespaces/inkscape" xmlns:rdf="http://www.w3.org/1999/02/22-rdf-syntax-ns#" xmlns:sodipodi="http://sodipodi.sourceforge.net/DTD/sodipodi-0.dtd" xmlns:svg="http://www.w3.org/2000/svg"
	 xmlns="http://www.w3.org/2000/svg" xmlns:xlink="http://www.w3.org/1999/xlink" x="0px" y="0px" viewBox="0 0 1440 200"
	 style="enable-background:new 0 0 1440 200;" xml:space="preserve">
<style type="text/css">
	.st0{fill:#1E1E1E;}
	.st1{fill:#E6E7E8;}
	.st2{fill:#FFFFFF;}
</style>
<path class="st0" d="M1428.6,172H11.5c-6.3,0-11.4-5.1-11.4-11.4v-111c0-6.3,5.1-11.4,11.4-11.4h1417.2c6.3,0,11.4,5.1,11.4,11.4
	v111C1440,166.9,1434.9,172,1428.6,172z"/>
<path class="st1" d="M1428.6,165.8H11.5c-6.3,0-11.4-5.1-11.4-11.4v-111C0.1,37.1,5.2,32,11.5,32h1417.2c6.3,0,11.4,5.1,11.4,11.4
	v111C1440,160.7,1434.9,165.8,1428.6,165.8z"/>
<path class="st2" d="M1429.9,165.8H421.3c-6.3,0-11.5-3.6-11.5-8.1V40.1c0-4.5,5.1-8.1,11.5-8.1h1008.6c6.3,0,11.5,3.7,11.5,8.1
	v117.6C1441.4,162.1,1436.2,165.8,1429.9,165.8z"/>
</svg>
