<?xml version="1.0" encoding="utf-8"?>
<!-- Generator: Adobe Illustrator 19.2.0, SVG Export Plug-In . SVG Version: 6.00 Build 0)  -->
<svg version="1.1"
	 id="svg4136" inkscape:version="0.91 r13725" sodipodi:docname="address-bar.svg" xmlns:cc="http://creativecommons.org/ns#" xmlns:dc="http://purl.org/dc/elements/1.1/" xmlns:inkscape="http://www.inkscape.org/namespaces/inkscape" xmlns:rdf="http://www.w3.org/1999/02/22-rdf-syntax-ns#" xmlns:sodipodi="http://sodipodi.sourceforge.net/DTD/sodipodi-0.dtd" xmlns:svg="http://www.w3.org/2000/svg"
	 xmlns="http://www.w3.org/2000/svg" xmlns:xlink="http://www.w3.org/1999/xlink" x="0px" y="0px" viewBox="0 0 856 100"
	 style="enable-background:new 0 0 856 100;" xml:space="preserve">
<style type="text/css">
	.st0{fill:#1E1E1E;}
	.st1{fill:#E6E7E8;}
	.st2{fill:#FFFFFF;}
</style>
<path class="st0" d="M849.6,87.1H6.3c-3.2,0-5.7-2.6-5.7-5.7V25.8c0-3.2,2.6-5.7,5.7-5.7h843.3c3.2,0,5.7,2.6,5.7,5.7v55.6
	C855.3,84.5,852.7,87.1,849.6,87.1z"/>
<path class="st1" d="M849.6,84H6.3c-3.2,0-5.7-2.6-5.7-5.7V22.7c0-3.2,2.6-5.7,5.7-5.7h843.3c3.2,0,5.7,2.6,5.7,5.7v55.6
	C855.3,81.4,852.7,84,849.6,84z"/>
<path class="st2" d="M850.2,84H211.6c-3.2,0-5.8-1.8-5.8-4.1V21c0-2.3,2.6-4.1,5.8-4.1h638.7c3.2,0,5.8,1.9,5.8,4.1v58.9
	C856,82.1,853.4,84,850.2,84z"/>
</svg>
