<?xml version="1.0" encoding="utf-8"?>
<!-- Generator: Adobe Illustrator 19.2.0, SVG Export Plug-In . SVG Version: 6.00 Build 0)  -->
<svg version="1.1"
	 id="svg4136" inkscape:version="0.91 r13725" sodipodi:docname="address-bar.svg" xmlns:cc="http://creativecommons.org/ns#" xmlns:dc="http://purl.org/dc/elements/1.1/" xmlns:inkscape="http://www.inkscape.org/namespaces/inkscape" xmlns:rdf="http://www.w3.org/1999/02/22-rdf-syntax-ns#" xmlns:sodipodi="http://sodipodi.sourceforge.net/DTD/sodipodi-0.dtd" xmlns:svg="http://www.w3.org/2000/svg"
	 xmlns="http://www.w3.org/2000/svg" xmlns:xlink="http://www.w3.org/1999/xlink" x="0px" y="0px" viewBox="0 0 1440 200"
	 style="enable-background:new 0 0 1440 200;" xml:space="preserve">
<style type="text/css">
	.st0{fill:#1E1E1E;}
	.st1{fill:#E6E7E8;}
	.st2{fill:#FFFFFF;}
</style>
<path class="st0" d="M1428.61,172H11.46c-6.27,0-11.39-5.13-11.39-11.39V49.58c0-6.27,5.13-11.39,11.39-11.39h1417.15
	c6.27,0,11.39,5.13,11.39,11.39v111.03C1440,166.87,1434.87,172,1428.61,172z"/>
<path class="st1" d="M1428.61,165.81H11.46c-6.27,0-11.39-5.13-11.39-11.39V43.39c0-6.27,5.13-11.39,11.39-11.39h1417.15
	c6.27,0,11.39,5.13,11.39,11.39v111.03C1440,160.68,1434.87,165.81,1428.61,165.81z"/>
<path class="st2" d="M1133.24,165.81H417.95c-4.47,0-8.12-3.65-8.12-8.12V40.11c0-4.47,3.65-8.12,8.12-8.12h715.28
	c4.47,0,8.12,3.65,8.12,8.12v117.57C1141.36,162.15,1137.7,165.81,1133.24,165.81z"/>
</svg>
