<?xml version="1.0" encoding="utf-8"?>
<!-- Generator: Adobe Illustrator 19.2.0, SVG Export Plug-In . SVG Version: 6.00 Build 0)  -->
<svg version="1.1"
	 id="svg4136" inkscape:version="0.91 r13725" sodipodi:docname="address-bar.svg" xmlns:cc="http://creativecommons.org/ns#" xmlns:dc="http://purl.org/dc/elements/1.1/" xmlns:inkscape="http://www.inkscape.org/namespaces/inkscape" xmlns:rdf="http://www.w3.org/1999/02/22-rdf-syntax-ns#" xmlns:sodipodi="http://sodipodi.sourceforge.net/DTD/sodipodi-0.dtd" xmlns:svg="http://www.w3.org/2000/svg"
	 xmlns="http://www.w3.org/2000/svg" xmlns:xlink="http://www.w3.org/1999/xlink" x="0px" y="0px" viewBox="0 0 1440 200"
	 style="enable-background:new 0 0 1440 200;" xml:space="preserve">
<style type="text/css">
	.st0{fill:#1E1E1E;}
	.st1{fill:#E6E7E8;}
	.st2{fill:#FFFFFF;}
</style>
<path class="st0" d="M1429.02,164.97H11.08c-6.04,0-10.98-4.94-10.98-10.98V51.71c0-6.04,4.94-10.98,10.98-10.98h1417.94
	c6.04,0,10.98,4.94,10.98,10.98v102.29C1440,160.03,1435.06,164.97,1429.02,164.97z"/>
<path class="st1" d="M1429.02,159.22H11.08c-6.04,0-10.98-4.94-10.98-10.98V45.96c0-6.04,4.94-10.98,10.98-10.98h1417.94
	c6.04,0,10.98,4.94,10.98,10.98v102.29C1440,154.28,1435.06,159.22,1429.02,159.22z"/>
<path class="st2" d="M1052.22,159.22H388.1c-4.15,0-7.54-3.39-7.54-7.54V42.52c0-4.15,3.39-7.54,7.54-7.54h664.12
	c4.15,0,7.54,3.39,7.54,7.54v109.16C1059.75,155.83,1056.36,159.22,1052.22,159.22z"/>
</svg>
