<?xml version="1.0" encoding="UTF-8" standalone="no"?>
<svg
   xmlns:dc="http://purl.org/dc/elements/1.1/"
   xmlns:cc="http://creativecommons.org/ns#"
   xmlns:rdf="http://www.w3.org/1999/02/22-rdf-syntax-ns#"
   xmlns:svg="http://www.w3.org/2000/svg"
   xmlns="http://www.w3.org/2000/svg"
   xmlns:sodipodi="http://sodipodi.sourceforge.net/DTD/sodipodi-0.dtd"
   xmlns:inkscape="http://www.inkscape.org/namespaces/inkscape"
   version="1.1"
   id="pomodoro"
   x="0px"
   y="0px"
   width="100"
   height="100"
   viewBox="-7.125 -7.328 100 100"
   enable-background="new -7.125 -7.328 100 91.57"
   xml:space="preserve"
   inkscape:version="0.91 r13725"
   sodipodi:docname="address-bar-error-close.svg"><metadata
     id="metadata4143"><rdf:RDF><cc:Work
         rdf:about=""><dc:format>image/svg+xml</dc:format><dc:type
           rdf:resource="http://purl.org/dc/dcmitype/StillImage" /><dc:title></dc:title></cc:Work></rdf:RDF></metadata><defs
     id="defs4141" /><sodipodi:namedview
     pagecolor="#ffffff"
     bordercolor="#666666"
     borderopacity="1"
     objecttolerance="10"
     gridtolerance="10"
     guidetolerance="10"
     inkscape:pageopacity="0"
     inkscape:pageshadow="2"
     inkscape:window-width="1840"
     inkscape:window-height="1057"
     id="namedview4139"
     showgrid="false"
     inkscape:zoom="4.8487496"
     inkscape:cx="50"
     inkscape:cy="37.53545"
     inkscape:window-x="72"
     inkscape:window-y="-8"
     inkscape:window-maximized="1"
     inkscape:current-layer="pomodoro" /><path
     d="m 42.8705,-2.3280001 c -24.8688,0 -44.9955,20.1618001 -44.9955,45.0045001 0,24.8733 20.1267,44.9955 44.9955,44.9955 24.8427,0 45.0045,-20.1222 45.0045,-44.9955 0,-24.8427 -20.1618,-45.0045001 -45.0045,-45.0045001 z M 67.1066,57.126 57.329,66.9036 42.6293,52.221 27.9422,66.9036 18.1511,57.126 32.8247,42.4443 18.1511,27.7482 27.9422,17.9796 42.6284,32.6487 57.3281,17.9796 67.1057,27.7482 52.424,42.4434 67.1066,57.126 Z"
     id="path4137"
     inkscape:connector-curvature="0" /><path
     style="fill:#787878;fill-opacity:1;stroke:none;stroke-opacity:1"
     d="M 38.400102,87.62655 C 28.705316,86.39839 21.084707,83.18102 13.982682,77.31765 5.5185024,70.329714 -0.09877759,60.244376 -1.7904936,48.998291 -2.1921426,46.328239 -2.2434696,39.677941 -1.8825126,37.07572 0.23131941,21.836625 9.4778634,8.9272213 23.005945,2.3281243 c 9.805646,-4.783264 20.444414,-5.902737 30.964952,-3.25830896 7.357662,1.849413 14.403738,5.75570696 19.976698,11.07495366 7.36697,7.031569 12.03213,16.084669 13.58981,26.37208 0.45133,2.980701 0.44981,9.518147 -0.003,12.481442 -0.72914,4.772737 -2.08456,9.199896 -4.04575,13.214497 -2.40852,4.930297 -4.94684,8.502038 -8.75077,12.313422 -6.78153,6.79482 -14.822805,10.95587 -24.504932,12.68035 -1.787127,0.3183 -3.134188,0.40875 -6.708441,0.45045 -2.459762,0.0287 -4.765789,0.0149 -5.124505,-0.0304 z m -3.02899,-27.869116 7.314939,-7.311007 7.360877,7.35692 7.360872,7.356917 4.983865,-4.982378 4.98386,-4.982378 -7.359111,-7.358686 -7.359105,-7.358687 7.359105,-7.358687 7.359111,-7.358686 -4.98387,-4.982383 -4.983864,-4.982384 -7.407456,7.393329 -7.407456,7.393328 -7.360652,-7.342464 -7.36065,-7.342467 -4.922357,4.916384 -4.922356,4.916381 7.300528,7.417269 7.300528,7.417267 -7.362706,7.362244 -7.362709,7.362244 4.890918,4.889465 c 2.690008,2.689205 4.974582,4.889463 5.076835,4.889463 0.102254,0 3.477639,-3.289951 7.500854,-7.311004 z"
     id="path4145"
     inkscape:connector-curvature="0" /></svg>