<svg xmlns="http://www.w3.org/2000/svg" xmlns:xlink="http://www.w3.org/1999/xlink" version="1.1" id="Layer_1" x="0px" y="0px" width="100px" height="100px" viewBox="0 0 100 100" enable-background="new 0 0 100 100" xml:space="preserve">
<path fill="#000000" d="M50.291,0.07c-18.706,0-33.871,15.165-33.871,33.87c0,0.401,0.013,0.81,0.03,1.221  c0.127,3.558,0.798,6.976,1.939,10.173c7.226,23.752,31.901,54.736,31.901,54.736s24.674-30.982,31.901-54.734  c1.143-3.197,1.812-6.617,1.939-10.175c0.02-0.411,0.031-0.819,0.031-1.221C84.162,15.235,68.998,0.07,50.291,0.07z M51.013,58.386  c-2.479,0-4.664-2.126-4.664-4.664c0-2.479,2.184-4.723,4.664-4.723s4.724,2.243,4.724,4.723  C55.736,56.26,53.551,58.386,51.013,58.386z M50.481,45.811c-1.062-6.376-2.479-12.634-3.601-19.01  c-0.236-1.357-0.295-2.302-0.295-3.66c0-2.716,1.299-5.667,4.428-5.667c3.483,0,4.428,3.011,4.428,6.021  c0,1.181-0.059,2.538-0.295,3.66c-1.181,6.199-2.302,12.457-3.483,18.655H50.481z"/>
</svg>