<?xml version="1.0" encoding="utf-8"?>
<!-- Generator: Adobe Illustrator 19.2.0, SVG Export Plug-In . SVG Version: 6.00 Build 0)  -->
<svg version="1.1" id="Layer_1" xmlns="http://www.w3.org/2000/svg" xmlns:xlink="http://www.w3.org/1999/xlink" x="0px" y="0px"
	 viewBox="0 0 576 576" style="enable-background:new 0 0 576 576;" xml:space="preserve">
<style type="text/css">
	.st0{fill:#FFFFFF;}
</style>
<path class="st0" d="M359.2,249.6c16.7,43.9,33.3,87.9,50,131.8c1.3,3.4,2.5,6.7-0.2,9.9c-2.8,3.3-6.3,3-10.1,2.2
	c-42.4-8.8-84.8-17.5-127.2-26.4c-5.6-1.2-10.7-1-16,1.4c-5,2.2-10.3,3.9-15.4,5.9c-8.2,3.2-9.5,7.6-4.1,14.4
	c22.2,28.7,44.4,57.3,66.6,86c1.2,1.6,2.5,3.1,3.5,4.8c2.3,4.1,1.3,7.8-2.8,10.2c-1.6,0.9-3.3,1.6-5,2.2
	c-15.6,5.9-31.2,11.8-46.7,17.7c-8.7,3.3-10.2,2.9-15.7-4.2c-24-31-48-62.1-72-93.2c-4.8-6.3-6.5-6.7-14-3.9c-3,1.1-5.9,2.3-8.9,3.3
	c-10.9,3.5-20.5-1.1-24.6-11.7c-13-34.1-25.9-68.2-38.8-102.4c-4.5-11.7-0.2-21.5,11.6-26.2c9.8-3.9,19.6-7.5,29.4-11.2
	c28-10.6,56-21.4,84.2-31.8c5.4-2,9.4-5.1,12.8-9.7c25.7-34.6,51.6-69.1,77.3-103.7c2.3-3.1,4.7-5.8,8.9-5.3c4.4,0.5,5.7,4,7,7.5
	C325.7,161.4,342.4,205.5,359.2,249.6z"/>
<path class="st0" d="M348.2,141.2c-2.2,0-4.5-0.6-6.5-1.8c-5.9-3.6-7.8-11.3-4.2-17.2l39.3-64.3c3.6-5.9,11.3-7.8,17.2-4.2
	c5.9,3.6,7.8,11.3,4.2,17.2l-39.3,64.3C356.5,139.1,352.4,141.2,348.2,141.2z"/>
<path class="st0" d="M504.6,363c-0.9,0-1.8-0.1-2.7-0.3L424,345.6c-6.7-1.5-11-8.1-9.5-14.9c1.5-6.7,8.1-11,14.9-9.5l77.8,17.1
	c6.7,1.5,11,8.1,9.5,14.9C515.5,359,510.3,363,504.6,363z"/>
<path class="st0" d="M393.2,237.7c-4.7,0-9.2-2.7-11.3-7.2c-2.9-6.3-0.2-13.7,6.1-16.6l78.4-36.4c6.3-2.9,13.7-0.2,16.6,6.1
	c2.9,6.3,0.2,13.7-6.1,16.6l-78.4,36.4C396.7,237.3,394.9,237.7,393.2,237.7z"/>
</svg>
