<?xml version="1.0" encoding="utf-8"?>
<!-- Generator: Adobe Illustrator 19.2.0, SVG Export Plug-In . SVG Version: 6.00 Build 0)  -->
<svg version="1.1" id="Layer_1" xmlns="http://www.w3.org/2000/svg" xmlns:xlink="http://www.w3.org/1999/xlink" x="0px" y="0px"
	 viewBox="0 0 50 150" style="enable-background:new 0 0 50 150;" xml:space="preserve">
<style type="text/css">
	.st0{fill:#414042;}
	.st1{fill:#CCCCCC;}
	.st2{fill:#1398BB;}
	.st3{fill:#31D8FF;}
</style>
<path class="st0" d="M33.4,87.4L22.1,76.1l-0.9-0.9l0.9-0.9l11.5-11.5c0.7-0.7,0.7-1.9,0-2.7c-0.3-0.3-0.8-0.5-1.3-0.5
	s-1,0.2-1.3,0.5L15.9,75.2l14.9,14.9c0.4,0.4,0.8,0.6,1.3,0.6c0.5,0,1-0.2,1.3-0.6C34.2,89.3,34.2,88.2,33.4,87.4z"/>
<path class="st1" d="M33.4,37.1L22.1,25.8l-0.9-0.9l0.9-0.9l11.5-11.5c0.7-0.7,0.7-1.9,0-2.7c-0.3-0.4-0.8-0.6-1.3-0.6
	s-1,0.2-1.3,0.6L15.9,24.9l14.9,14.9c0.4,0.4,0.8,0.5,1.3,0.5c0.5,0,1-0.2,1.3-0.5C34.2,39,34.2,37.8,33.4,37.1z"/>
<path class="st2" d="M14.1,124.8l15.8,15.8c1.2,1.2,3.2,1.2,4.5,0c1.2-1.2,1.2-3.2,0-4.5L23,124.8l11.5-11.5c1.2-1.2,1.2-3.2,0-4.5
	c-1.2-1.2-3.2-1.2-4.5,0L14.1,124.8z"/>
<path class="st3" d="M32.4,109.2c0.5,0,1,0.2,1.3,0.6c0.7,0.7,0.7,1.9,0,2.7l-11.5,11.5l-0.9,0.9l0.9,0.9l11.3,11.3
	c0.7,0.7,0.7,1.9,0,2.7c-0.4,0.4-0.8,0.6-1.3,0.6s-1-0.2-1.3-0.6l-14.9-14.9L31,109.7C31.4,109.4,31.9,109.2,32.4,109.2 M32.4,107.9
	c-0.8,0-1.6,0.3-2.2,0.9l-16,16l15.8,15.8c0.6,0.6,1.4,0.9,2.2,0.9s1.6-0.3,2.2-0.9c1.2-1.2,1.2-3.2,0-4.5l-11.3-11.3l11.5-11.6
	c1.2-1.2,1.2-3.2,0-4.5C34,108.2,33.2,107.9,32.4,107.9L32.4,107.9z"/>
<g id="Layer_2">
</g>
</svg>
