<?xml version="1.0" encoding="utf-8"?>
<!-- Generator: Adobe Illustrator 19.2.0, SVG Export Plug-In . SVG Version: 6.00 Build 0)  -->
<svg version="1.1" xmlns="http://www.w3.org/2000/svg" xmlns:xlink="http://www.w3.org/1999/xlink" x="0px" y="0px"
	 viewBox="0 0 50 150" style="enable-background:new 0 0 50 150;" xml:space="preserve">
<style type="text/css">
	.st0{fill:#414042;}
	.st1{fill:#CCCCCC;}
	.st2{fill:#1398BB;}
	.st3{fill:#31D8FF;}
</style>
<g id="Layer_1">
	<path class="st0" d="M33.72,85.08l-9.15-9.15l-0.74-0.74l0.74-0.74l9.35-9.35c0.59-0.59,0.59-1.56,0-2.15
		c-0.29-0.29-0.67-0.45-1.08-0.45c-0.41,0-0.79,0.16-1.08,0.45L19.52,75.19l12.04,12.04c0.29,0.29,0.67,0.45,1.08,0.45
		c0.41,0,0.79-0.16,1.08-0.45C34.31,86.64,34.31,85.67,33.72,85.08z"/>
	<path class="st1" d="M33.72,33.45l-9.15-9.15l-0.74-0.74l0.74-0.74l9.35-9.35c0.59-0.59,0.59-1.56,0-2.15
		c-0.29-0.29-0.67-0.45-1.08-0.45c-0.41,0-0.79,0.16-1.08,0.45L19.52,23.56L31.56,35.6c0.29,0.29,0.67,0.45,1.08,0.45
		c0.41,0,0.79-0.16,1.08-0.45C34.31,35.01,34.31,34.04,33.72,33.45z"/>
	<path class="st2" d="M17.99,124.82l12.78,12.78c1,1,2.63,1,3.63,0c1-1,1-2.63,0-3.63l-9.15-9.15l9.35-9.35c1-1,1-2.63,0-3.63
		c-1-1-2.63-1-3.63,0L17.99,124.82z"/>
	<path class="st3" d="M32.79,112.13c0.41,0,0.79,0.16,1.08,0.45c0.59,0.59,0.59,1.56,0,2.15l-9.35,9.35l-0.74,0.74l0.74,0.74
		l9.15,9.15c0.59,0.59,0.59,1.56,0,2.15c-0.29,0.29-0.67,0.45-1.08,0.45c-0.41,0-0.79-0.16-1.08-0.45l-12.04-12.04l12.24-12.24
		C32,112.29,32.38,112.13,32.79,112.13 M32.79,111.08c-0.66,0-1.31,0.25-1.82,0.75l-12.98,12.98l12.78,12.78
		c0.5,0.5,1.16,0.75,1.82,0.75c0.66,0,1.31-0.25,1.82-0.75c1-1,1-2.63,0-3.63l-9.15-9.15l9.35-9.35c1-1,1-2.63,0-3.63
		C34.1,111.34,33.44,111.08,32.79,111.08L32.79,111.08z"/>
</g>
<g id="Layer_2">
</g>
</svg>
