<?xml version="1.0" encoding="utf-8"?>
<!-- Generator: Adobe Illustrator 19.2.0, SVG Export Plug-In . SVG Version: 6.00 Build 0)  -->
<svg version="1.1" xmlns="http://www.w3.org/2000/svg" xmlns:xlink="http://www.w3.org/1999/xlink" x="0px" y="0px"
	 viewBox="0 0 50 150" style="enable-background:new 0 0 50 150;" xml:space="preserve">
<style type="text/css">
	.st0{fill:#414042;}
	.st1{fill:#CCCCCC;}
	.st2{fill:#1398BB;}
	.st3{fill:#31D8FF;}
</style>
<g id="Layer_1">
	<path class="st0" d="M33.44,87.42l-11.3-11.3l-0.91-0.91l0.91-0.91l11.54-11.54c0.73-0.73,0.73-1.93,0-2.66
		c-0.35-0.35-0.83-0.55-1.33-0.55c-0.5,0-0.97,0.2-1.33,0.55L15.92,75.21l14.87,14.87c0.36,0.36,0.83,0.55,1.33,0.55
		c0.5,0,0.97-0.2,1.33-0.55C34.18,89.35,34.18,88.15,33.44,87.42z"/>
	<path class="st1" d="M33.44,35.79l-11.3-11.3l-0.91-0.91l0.91-0.91l11.54-11.54c0.73-0.73,0.73-1.93,0-2.66
		c-0.35-0.35-0.83-0.55-1.33-0.55c-0.5,0-0.97,0.2-1.33,0.55L15.92,23.58l14.87,14.87c0.36,0.36,0.83,0.55,1.33,0.55
		c0.5,0,0.97-0.2,1.33-0.55C34.18,37.72,34.18,36.53,33.44,35.79z"/>
	<path class="st2" d="M14.09,124.84l15.78,15.78c1.24,1.24,3.25,1.24,4.48,0c1.24-1.24,1.24-3.25,0-4.48l-11.3-11.3L34.6,113.3
		c1.24-1.24,1.24-3.25,0-4.48c-1.24-1.24-3.25-1.24-4.48,0L14.09,124.84z"/>
	<path class="st3" d="M32.36,109.18c0.5,0,0.97,0.2,1.33,0.55c0.73,0.73,0.73,1.93,0,2.66l-11.54,11.54l-0.91,0.91l0.91,0.91
		l11.3,11.3c0.73,0.73,0.73,1.93,0,2.66c-0.36,0.36-0.83,0.55-1.33,0.55c-0.5,0-0.97-0.2-1.33-0.55l-14.87-14.87l15.11-15.11
		C31.38,109.37,31.86,109.18,32.36,109.18 M32.36,107.89c-0.81,0-1.62,0.31-2.24,0.93l-16.02,16.03l15.78,15.78
		c0.62,0.62,1.43,0.93,2.24,0.93c0.81,0,1.62-0.31,2.24-0.93c1.24-1.24,1.24-3.25,0-4.48l-11.3-11.3L34.6,113.3
		c1.24-1.24,1.24-3.25,0-4.48C33.98,108.2,33.17,107.89,32.36,107.89L32.36,107.89z"/>
</g>
<g id="Layer_2">
</g>
</svg>
