<?xml version="1.0" encoding="UTF-8" standalone="no"?>
<!-- Created with Inkscape (http://www.inkscape.org/) -->

<svg
   width="497.41666mm"
   height="130.60057mm"
   viewBox="0 0 497.41665 130.60057"
   version="1.1"
   id="svg5"
   inkscape:version="1.1.1 (3bf5ae0d25, 2021-09-20)"
   sodipodi:docname="BRAND_Overte_color-white.svg"
   xmlns:inkscape="http://www.inkscape.org/namespaces/inkscape"
   xmlns:sodipodi="http://sodipodi.sourceforge.net/DTD/sodipodi-0.dtd"
   xmlns="http://www.w3.org/2000/svg"
   xmlns:svg="http://www.w3.org/2000/svg"
   xmlns:rdf="http://www.w3.org/1999/02/22-rdf-syntax-ns#"
   xmlns:cc="http://creativecommons.org/ns#"
   xmlns:dc="http://purl.org/dc/elements/1.1/">
  <title
     id="title715">BRAND_Overte_color-white</title>
  <sodipodi:namedview
     id="namedview7"
     pagecolor="#d1d1d1"
     bordercolor="#666666"
     borderopacity="1.0"
     inkscape:pageshadow="2"
     inkscape:pageopacity="0"
     inkscape:pagecheckerboard="true"
     inkscape:document-units="px"
     showgrid="false"
     inkscape:zoom="0.30143108"
     inkscape:cx="743.12178"
     inkscape:cy="688.3829"
     inkscape:window-width="1627"
     inkscape:window-height="1011"
     inkscape:window-x="1705"
     inkscape:window-y="0"
     inkscape:window-maximized="1"
     inkscape:current-layer="layer1" />
  <defs
     id="defs2" />
  <g
     inkscape:label="Letters"
     inkscape:groupmode="layer"
     id="layer1"
     style="display:inline"
     transform="translate(-14.404381,-53.065788)">
    <path
       style="fill:#ffffff;stroke-width:0.278116"
       d="M 73.081685,183.50811 C 57.169081,181.82057 43.335913,175.04014 32.291669,163.51456 22.75521,153.56248 16.788722,141.19135 14.76984,127.18408 c -0.548186,-3.80334 -0.463774,-14.26632 0.146669,-18.17771 2.545786,-16.312289 10.479876,-30.335248 23.131483,-40.883353 4.701127,-3.919498 11.537379,-7.952155 17.48785,-10.315937 2.359078,-0.937117 8.307363,-2.794478 8.949451,-2.794478 0.344955,0 0.401018,2.40337 0.401018,17.19175 v 17.19178 l -1.042919,0.495792 c -3.018754,1.435061 -8.014008,5.8529 -10.710792,9.472694 -8.380515,11.248802 -8.308457,27.342122 0.172716,38.541092 7.809793,10.31263 19.975337,15.02912 32.603354,12.64005 12.829256,-2.4271 23.42546,-13.25343 25.72326,-26.28189 0.47197,-2.67591 0.47311,-8.71701 0.002,-11.40282 -0.91004,-5.19026 -3.22816,-10.41856 -6.35045,-14.323072 -2.76212,-3.454077 -7.915891,-7.712474 -11.131634,-9.197726 l -1.161421,-0.536388 -0.0082,-17.0347 c -0.0055,-12.049562 0.08104,-17.034696 0.294129,-17.034696 0.651068,0 4.775287,1.155735 7.464546,2.091815 24.00882,8.35692 40.94107,29.566556 43.67072,54.702727 0.3765,3.46703 0.3765,10.59984 0,14.06686 -1.34041,12.34324 -6.86415,25.36517 -14.71258,34.68417 -10.48473,12.44927 -24.43229,20.30908 -40.490203,22.81728 -3.242633,0.50651 -12.905085,0.75257 -16.128266,0.41079 z M 185.97103,147.90975 c -3.95587,-1.03715 -7.37446,-3.42486 -9.65921,-6.74641 -0.91345,-1.32801 -23.34149,-50.116054 -23.71998,-51.59844 l -0.16073,-0.629544 9.23997,0.07331 9.23993,0.07331 0.61987,1.66869 c 0.34096,0.917775 4.462,10.554564 9.15793,21.415044 5.85352,13.53781 8.75808,19.94312 9.23781,20.37214 0.86701,0.77525 2.03871,0.80176 2.97253,0.0673 0.5308,-0.41753 2.93809,-5.77058 9.53659,-21.20648 4.85459,-11.35635 8.95331,-21.054669 9.10823,-21.551817 l 0.2817,-0.903877 h 9.14996 9.14994 l -0.1836,0.625771 c -0.57971,1.974988 -22.43922,49.869303 -23.51516,51.521823 -2.34179,3.59662 -5.94793,6.11971 -9.96328,6.97084 -2.67554,0.56716 -8.0469,0.48957 -10.4924,-0.15152 z m 51.4588,-0.82522 c -2.70662,-0.64656 -4.58408,-2.70427 -5.12142,-5.61307 -0.18921,-1.02467 -0.26253,-9.4364 -0.21177,-24.3552 l 0.0772,-22.789918 0.83863,-1.639515 c 0.98887,-1.933272 2.50978,-3.022846 4.83121,-3.461087 0.95069,-0.179608 11.3924,-0.282814 28.57658,-0.282814 h 27.07846 v 7.78729 7.787294 H 270.9777 248.45662 l -0.4327,0.66039 c -0.34309,0.52364 -0.41646,1.34449 -0.35409,3.96318 l 0.0786,3.30275 22.73609,0.0712 22.73612,0.0712 v 5.5591 5.55909 l -22.73612,0.0712 -22.73609,0.0712 -0.0781,3.58171 c -0.0624,2.8676 0.008,3.71325 0.35408,4.24132 l 0.43213,0.65956 h 22.52111 22.52111 v 7.50917 7.50918 l -27.60318,-0.0271 c -15.18173,-0.0149 -27.99134,-0.12129 -28.46583,-0.23471 z M 301.008,119.18056 c 0,-25.590573 0.0414,-28.226272 0.45354,-28.814551 1.01159,-1.444257 0.651,-1.423081 24.22775,-1.423081 22.46805,0 24.95943,0.09832 28.2285,1.113515 8.18934,2.543234 13.19071,11.047007 11.5057,19.562917 -0.59684,3.01636 -1.54094,4.91725 -3.42125,6.88857 -1.46071,1.5314 -1.55832,1.70882 -1.08579,1.97326 2.20981,1.23667 4.10715,4.30774 4.60363,7.45137 0.157,0.99425 0.31761,6.21947 0.35691,11.61157 l 0.0713,9.8038 -7.81719,-1.4e-4 -7.8172,-1.9e-4 -0.17889,-1.70951 c -0.0982,-0.94023 -0.1789,-4.78043 -0.1789,-8.53381 0,-6.30514 -0.0432,-6.91372 -0.5685,-7.99877 -1.09257,-2.25686 -0.56484,-2.18909 -17.71773,-2.27601 l -15.08785,-0.0766 v 10.2973 10.29729 h -7.7873 -7.78729 z m 45.78673,-6.37909 c 2.06544,-1.13079 3.22376,-3.54967 2.63722,-5.50741 -0.46059,-1.53723 -1.80237,-2.98587 -3.08583,-3.33146 -0.67297,-0.1812 -6.24367,-0.25825 -15.34061,-0.21258 l -14.28385,0.072 -0.0762,4.80909 -0.0763,4.80909 14.67726,-0.081 c 13.2418,-0.0729 14.76254,-0.12787 15.54815,-0.55779 z m 49.60755,13.13109 V 104.51751 H 383.6089 370.81551 v -7.787293 -7.787289 h 33.51314 33.51317 v 7.787289 7.787293 h -12.79344 -12.79342 v 21.41505 21.41504 h -7.92631 -7.92637 z m 52.67493,21.15197 c -2.70663,-0.64656 -4.58409,-2.70427 -5.12145,-5.61307 -0.18917,-1.02467 -0.2624,-9.4364 -0.2116,-24.3552 l 0.0776,-22.789918 0.83862,-1.639515 c 0.9889,-1.933272 2.50982,-3.022846 4.83123,-3.461087 0.95071,-0.179608 11.3924,-0.282814 28.57658,-0.282814 h 27.0785 v 7.78729 7.787294 h -22.52112 -22.52108 l -0.43274,0.66039 c -0.34308,0.52364 -0.41646,1.34449 -0.35406,3.96318 l 0.0786,3.30275 22.73611,0.0712 22.73609,0.0712 v 5.5591 5.55909 l -22.73609,0.0712 -22.73611,0.0712 -0.0781,3.58171 c -0.0624,2.8676 0.009,3.71325 0.35403,4.24132 l 0.43215,0.65956 h 22.5211 22.52109 v 7.50917 7.50918 l -27.60317,-0.0271 c -15.18174,-0.0149 -27.99136,-0.12129 -28.46585,-0.23471 z"
       id="path339"
       sodipodi:nodetypes="cssssssscsscsscssccscssssccssscccssssssccccssssccccscscccccssccccccccsccccccccccsssssscccccssscccccccssccccccccccccccccccccccccccscscscccccssccccccccscccccccc" />
  </g>
  <g
     inkscape:groupmode="layer"
     id="layer2"
     inkscape:label="barres"
     style="display:inline"
     transform="translate(-14.404381,-53.065788)">
    <path
       style="fill:#6667ab;fill-opacity:1;stroke-width:0.278116"
       d="m 123.56909,182.67565 c 0,-0.14918 0.36863,-0.46158 0.81918,-0.69459 3.01493,-1.55906 11.36565,-9.36506 15.41093,-14.40564 2.7642,-3.44428 6.42644,-8.93239 7.688,-11.5209 l 0.97341,-1.99727 181.68019,-0.0182 181.68025,-0.0181 v 14.4621 14.46211 H 317.69507 c -125.82085,0 -194.12598,-0.0954 -194.12598,-0.27106 z M 148.21936,81.34256 c -0.27245,-1.085485 -4.01802,-7.096024 -6.45325,-10.355584 -4.49104,-6.011229 -9.54533,-11.153151 -15.05003,-15.3109 -1.4957,-1.129749 -2.81567,-2.054058 -2.93323,-2.054058 -0.11743,0 -0.2139,-0.125121 -0.2139,-0.278129 0,-0.185202 64.89406,-0.278101 194.12599,-0.278101 H 511.8209 V 67.52789 81.989991 H 330.10131 148.38173 Z"
       id="path619"
       sodipodi:nodetypes="ccsscccccscccssssscccccc" />
  </g>
  <metadata
     id="metadata713">
    <rdf:RDF>
      <cc:Work
         rdf:about="">
        <dc:title>BRAND_Overte_color-white</dc:title>
      </cc:Work>
    </rdf:RDF>
  </metadata>
</svg>
