<?xml version="1.0" encoding="UTF-8" standalone="no"?>
<svg width="44px" height="44px" viewBox="0 0 44 44" version="1.1" xmlns="http://www.w3.org/2000/svg" xmlns:xlink="http://www.w3.org/1999/xlink" xmlns:sketch="http://www.bohemiancoding.com/sketch/ns">
    <title>Slice 1</title>
    <description>Created with Sketch (http://www.bohemiancoding.com/sketch)</description>
    <defs></defs>
    <g id="Page-1" stroke="none" stroke-width="1" fill="none" fill-rule="evenodd" sketch:type="MSPage">
        <g id="close" sketch:type="MSLayerGroup" fill="#CCCCCC">
            <path d="M0.286382588,32.6200761 L32.6200759,0.286382745 C33.0019275,-0.0954590326 33.6210173,-0.0954590326 34.0028688,0.286382745 L43.380667,9.66418097 C43.7625088,10.0460227 43.7625088,10.6651125 43.380667,11.0469543 L43.380667,11.0469543 L11.0469639,43.3806574 C10.6651221,43.7624992 10.0460226,43.7624992 9.66418081,43.3806574 L0.286382588,34.0028592 C-0.0954591894,33.6210076 -0.0954591894,33.0019179 0.286382588,32.6200761 L0.286382588,32.6200761 L0.286382588,32.6200761 Z" id="path16" sketch:type="MSShapeGroup"></path>
            <path d="M32.6200759,43.3806574 L0.286382588,11.0469543 C-0.0954591894,10.6651125 -0.0954591894,10.0460227 0.286382588,9.66418097 L9.66418081,0.286382745 C10.0460226,-0.0954590326 10.6651221,-0.0954590326 11.0469639,0.286382745 L43.380667,32.6200761 C43.7625088,33.0019179 43.7625088,33.6210076 43.380667,34.0028592 L34.0028688,43.3806574 C33.6210173,43.7624992 33.0019275,43.7624992 32.6200759,43.3806574 L32.6200759,43.3806574 Z" id="path18" sketch:type="MSShapeGroup"></path>
        </g>
    </g>
</svg>