<?xml version="1.0" encoding="UTF-8" standalone="no"?>
<svg width="36px" height="36px" viewBox="0 0 36 36" version="1.1" xmlns="http://www.w3.org/2000/svg" xmlns:xlink="http://www.w3.org/1999/xlink" xmlns:sketch="http://www.bohemiancoding.com/sketch/ns">
    <title>close</title>
    <description>Created with Sketch (http://www.bohemiancoding.com/sketch)</description>
    <defs></defs>
    <g id="Page-1" stroke="none" stroke-width="1" fill="none" fill-rule="evenodd" sketch:type="MSPage">
        <g id="close" sketch:type="MSLayerGroup" transform="translate(2.000000, 2.000000)">
            <g id="close-button">
                <circle d="M14.8148148,29.6296296 C22.9968115,29.6296296 29.6296296,22.9968115 29.6296296,14.8148148 C29.6296296,6.63281812 22.9968115,0 14.8148148,0 C6.63281812,0 0,6.63281812 0,14.8148148 C0,22.9968115 6.63281812,29.6296296 14.8148148,29.6296296 Z M14.8148148,29.6296296" id="background" fill="#FFFFFF" cx="14.8148148" cy="14.8148148" r="14.8148148"></circle>
                <circle d="M15.7036966,30.8654803 C24.0773189,30.8654803 30.8654803,24.0773189 30.8654803,15.7036966 C30.8654803,7.33007426 24.0773189,0.541912889 15.7036966,0.541912889 C7.33007426,0.541912889 0.541912889,7.33007426 0.541912889,15.7036966 C0.541912889,24.0773189 7.33007426,30.8654803 15.7036966,30.8654803 Z M15.7036966,30.8654803" id="circle" stroke="#000000" stroke-width="4" cx="15.7036966" cy="15.7036966" r="15.1617837"></circle>
                <path d="M7.5368995,7.83319579 L23.5562405,23.8525368" id="topdown" stroke="#000000" stroke-width="4px" stroke-dasharray="0"></path>
                <path d="M8.14743772,23.5562661 L23.592926,8.11077784" id="botup" stroke="#000000" stroke-width="4px" stroke-dasharray="0"></path>
            </g>
        </g>
    </g>
</svg>