<?xml version="1.0" encoding="utf-8"?>
<!-- Generator: Adobe Illustrator 17.1.0, SVG Export Plug-In . SVG Version: 6.00 Build 0)  -->
<!DOCTYPE svg PUBLIC "-//W3C//DTD SVG 1.1//EN" "http://www.w3.org/Graphics/SVG/1.1/DTD/svg11.dtd">
<svg version="1.1" id="Layer_1" xmlns="http://www.w3.org/2000/svg" xmlns:xlink="http://www.w3.org/1999/xlink" x="0px" y="0px"
	 viewBox="0 0 15.9 15.9" enable-background="new 0 0 15.9 15.9" xml:space="preserve">
<g>
	<g>
		<path fill="#666666" d="M15.5,13.7l-1.8,1.8c-0.2,0.2-0.6,0.4-0.9,0.4s-0.7-0.1-0.9-0.4L8,11.6L4,15.5c-0.2,0.2-0.6,0.4-0.9,0.4
			s-0.7-0.1-0.9-0.4l-1.8-1.8C0.1,13.5,0,13.1,0,12.8s0.1-0.7,0.4-0.9L4.3,8L0.4,4C0.1,3.8,0,3.4,0,3.1s0.1-0.7,0.4-0.9l1.8-1.8
			C2.4,0.1,2.8,0,3.1,0S3.8,0.1,4,0.4L8,4.3l3.9-3.9C12.1,0.1,12.5,0,12.8,0s0.7,0.1,0.9,0.4l1.8,1.8c0.2,0.2,0.4,0.6,0.4,0.9
			S15.8,3.8,15.5,4L11.6,8l3.9,3.9c0.2,0.2,0.4,0.6,0.4,0.9S15.8,13.5,15.5,13.7z"/>
	</g>
</g>
</svg>
