<?xml version="1.0" encoding="utf-8"?>
<!-- Generator: Adobe Illustrator 19.2.0, SVG Export Plug-In . SVG Version: 6.00 Build 0)  -->
<svg version="1.1" id="Layer_1" xmlns="http://www.w3.org/2000/svg" xmlns:xlink="http://www.w3.org/1999/xlink" x="0px" y="0px"
	 viewBox="0 0 32 64" style="enable-background:new 0 0 32 64;" xml:space="preserve">
<style type="text/css">
	.st0{fill:#168DB7;}
	.st1{fill:#FFFFFF;}
	.st2{opacity:0.63;fill:#58595B;enable-background:new    ;}
</style>
<circle cx="15.8" cy="48.2" r="14.7"/>
<circle class="st0" cx="15.8" cy="47.6" r="14.7"/>
<circle cx="16.1" cy="44.9" r="3"/>
<path d="M18.2,50.2H14c-1.7,0-3.1,1.5-3.1,3.2V55c1.4,1.1,3.1,1.7,4.9,1.7c2.1,0,4-0.8,5.4-2.1v-1.2C21.3,51.7,19.9,50.2,18.2,50.2z
	"/>
<circle cx="22.9" cy="44.9" r="1.6"/>
<path d="M24,47.9h-1.8c-0.4,0-0.8,0.2-1,0.4c0.5,0.3,1,0.7,1.4,1.1c0.5,0.5,0.7,1.2,0.7,1.9c0.1,0.4,0.1,0.8,0.1,1.2v0.3
	c0.8-1,1.5-2.7,1.8-3.6v-0.1C25.2,48.8,24.6,47.9,24,47.9z"/>
<circle cx="9.1" cy="45.2" r="1.6"/>
<path d="M8.7,53.2c0-0.3,0-0.6,0-0.9v-0.1c0-0.1,0-0.2,0-0.3s0-0.1,0-0.2c0-0.1,0-0.1,0-0.2c0.1-0.9,0.7-2,1.4-2.5
	c0.2-0.2,0.4-0.3,0.6-0.4c-0.2-0.2-0.6-0.3-0.9-0.3H8c-0.6,0-1.2,0.8-1.1,1.2v0.1C7.2,50.6,7.9,52.3,8.7,53.2z"/>
<circle class="st1" cx="16.1" cy="44.3" r="3"/>
<path class="st1" d="M18.2,49.6H14c-1.7,0-3.1,1.5-3.1,3.2v1.6c1.4,1.1,3.1,1.7,4.9,1.7c2.1,0,4-0.8,5.4-2.1v-1.2
	C21.3,51.1,19.9,49.6,18.2,49.6z"/>
<circle class="st1" cx="22.9" cy="44.4" r="1.6"/>
<path class="st1" d="M24,47.4h-1.8c-0.4,0-0.8,0.2-1,0.4c0.5,0.3,1,0.7,1.4,1.1c0.5,0.5,0.7,1.2,0.7,1.9c0.1,0.4,0.1,0.8,0.1,1.2
	v0.3c0.8-1,1.5-2.7,1.8-3.6v-0.1C25.2,48.2,24.6,47.4,24,47.4z"/>
<circle class="st1" cx="9.1" cy="44.6" r="1.6"/>
<path class="st1" d="M8.7,52.7c0-0.3,0-0.6,0-0.9v-0.1c0-0.1,0-0.2,0-0.3s0-0.1,0-0.2c0-0.1,0-0.1,0-0.2c0.1-0.9,0.7-2,1.4-2.5
	c0.2-0.2,0.4-0.3,0.6-0.4c-0.2-0.2-0.6-0.3-0.9-0.3H8c-0.6,0-1.2,0.8-1.1,1.2v0.1C7.2,50,7.9,51.7,8.7,52.7z"/>
<path d="M15.9,3.4c-7,0-12.7,5.7-12.7,12.7s5.7,12.7,12.7,12.7s12.7-5.7,12.7-12.7S22.9,3.4,15.9,3.4z M15.9,27.2
	c-6.1,0-11.1-5-11.1-11.1S9.8,5,15.9,5C22,4.9,27,9.9,27,16.1C27,22.2,22,27.2,15.9,27.2z"/>
<circle class="st2" cx="15.9" cy="15.5" r="12.4"/>
<path class="st1" d="M15.9,2.8c-7,0-12.7,5.7-12.7,12.7s5.7,12.7,12.7,12.7s12.7-5.7,12.7-12.7S22.9,2.8,15.9,2.8z M15.9,26.6
	c-6.1,0-11.1-5-11.1-11.1s5-11.1,11.1-11.1C22,4.4,27,9.4,27,15.5S22,26.6,15.9,26.6z"/>
<circle cx="16.1" cy="12.9" r="3"/>
<path d="M18.2,18.2H14c-1.7,0-3.1,1.5-3.1,3.2V23c1.4,1.1,3.1,1.7,4.9,1.7c2.1,0,4-0.8,5.4-2.1v-1.2C21.3,19.7,19.9,18.2,18.2,18.2z
	"/>
<circle cx="22.9" cy="12.9" r="1.6"/>
<path d="M24,15.9h-1.8c-0.4,0-0.8,0.2-1,0.4c0.5,0.3,1,0.7,1.4,1.1c0.5,0.5,0.7,1.2,0.7,1.9c0.1,0.4,0.1,0.8,0.1,1.2v0.3
	c0.8-1,1.5-2.7,1.8-3.6v-0.1C25.2,16.8,24.6,15.9,24,15.9z"/>
<circle cx="9.1" cy="13.2" r="1.6"/>
<path d="M8.7,21.2c0-0.3,0-0.6,0-0.9v-0.1c0-0.1,0-0.2,0-0.3c0-0.1,0-0.1,0-0.2s0-0.1,0-0.2c0.1-0.9,0.7-2,1.4-2.5
	c0.2-0.2,0.4-0.3,0.6-0.4c-0.2-0.2-0.6-0.3-0.9-0.3H8c-0.6,0-1.2,0.8-1.1,1.2v0.1C7.2,18.6,7.9,20.2,8.7,21.2z"/>
<circle class="st1" cx="16.1" cy="12.3" r="3"/>
<path class="st1" d="M18.2,17.6H14c-1.7,0-3.1,1.5-3.1,3.2v1.6c1.4,1.1,3.1,1.7,4.9,1.7c2.1,0,4-0.8,5.4-2.1v-1.2
	C21.3,19.1,19.9,17.6,18.2,17.6z"/>
<circle class="st1" cx="22.9" cy="12.4" r="1.6"/>
<path class="st1" d="M24,15.4h-1.8c-0.4,0-0.8,0.2-1,0.4c0.5,0.3,1,0.7,1.4,1.1c0.5,0.5,0.7,1.2,0.7,1.9c0.1,0.4,0.1,0.8,0.1,1.2
	v0.3c0.8-1,1.5-2.7,1.8-3.6v-0.1C25.2,16.2,24.6,15.4,24,15.4z"/>
<circle class="st1" cx="9.1" cy="12.6" r="1.6"/>
<path class="st1" d="M8.7,20.7c0-0.3,0-0.6,0-0.9v-0.1c0-0.1,0-0.2,0-0.3c0-0.1,0-0.1,0-0.2s0-0.1,0-0.2c0.1-0.9,0.7-2,1.4-2.5
	c0.2-0.2,0.4-0.3,0.6-0.4c-0.2-0.2-0.6-0.3-0.9-0.3H8c-0.6,0-1.2,0.8-1.1,1.2v0.1C7.2,18,7.9,19.7,8.7,20.7z"/>
</svg>
