<svg width="31" height="23" viewBox="0 0 31 23" fill="none" xmlns="http://www.w3.org/2000/svg">
<path fill-rule="evenodd" clip-rule="evenodd" d="M3.59534 11.0156C6.16042 13.4128 9.65987 15.5898 13.6042 16.1774C17.686 16.7856 22.4164 15.7196 27.3057 11.0659C22.0721 6.07309 17.0642 5.14115 12.9153 5.90073C8.99427 6.61859 5.69298 8.87688 3.59534 11.0156ZM12.455 3.27591C17.7727 2.30235 23.9836 3.74895 30.1053 10.1333L31 11.0664L30.1053 11.9994C24.3636 17.9875 18.4774 19.5983 13.2276 18.8161C8.06048 18.0463 3.70384 14.9892 0.837069 11.9994L0 11.1265L0.778477 10.1986C3.05338 7.48717 7.2318 4.23217 12.455 3.27591Z" fill="#3D3D3D"/>
<ellipse cx="15.6539" cy="10.9218" rx="3.65386" ry="3.81061" fill="#3D3D3D"/>
<line x1="25" y1="2.12132" x2="7.12132" y2="20" stroke="#3D3D3D" stroke-width="3" stroke-linecap="round"/>
</svg>
