<svg width="31" height="16" viewBox="0 0 31 16" fill="none" xmlns="http://www.w3.org/2000/svg">
<path fill-rule="evenodd" clip-rule="evenodd" d="M3.59534 8.01564C6.16042 10.4128 9.65987 12.5898 13.6042 13.1774C17.686 13.7856 22.4164 12.7196 27.3057 8.06585C22.0721 3.07309 17.0642 2.14115 12.9153 2.90073C8.99427 3.61859 5.69298 5.87688 3.59534 8.01564ZM12.455 0.275915C17.7727 -0.697651 23.9836 0.748949 30.1053 7.13329L31 8.06636L30.1053 8.99944C24.3636 14.9875 18.4774 16.5983 13.2276 15.8161C8.06048 15.0463 3.70384 11.9892 0.837069 8.99944L0 8.12646L0.778477 7.1986C3.05338 4.48717 7.2318 1.23217 12.455 0.275915Z" fill="#3D3D3D"/>
<ellipse cx="15.644" cy="7.92179" rx="3.65386" ry="3.81061" fill="#3D3D3D"/>
</svg>
