<?xml version="1.0" encoding="UTF-8" standalone="no"?>
<svg width="45px" height="45px" viewBox="0 0 45 45" version="1.1" xmlns="http://www.w3.org/2000/svg" xmlns:xlink="http://www.w3.org/1999/xlink" xmlns:sketch="http://www.bohemiancoding.com/sketch/ns">
    <!-- Generator: Sketch 3.3.1 (12005) - http://www.bohemiancoding.com/sketch -->
    <title>Slice 1</title>
    <desc>Created with Sketch.</desc>
    <defs></defs>
    <g id="Page-1" stroke="none" stroke-width="1" fill="none" fill-rule="evenodd" sketch:type="MSPage">
        <g id="mic-mute" sketch:type="MSLayerGroup" transform="translate(-3.000000, 0.000000)">
            <g id="Layer_3" transform="translate(2.420508, 0.842347)" stroke="#000000" stroke-width="2.10526286" fill="#FFFFFF" sketch:type="MSShapeGroup">
                <g id="Layer_2" transform="translate(1.000000, 0.000000)">
                    <path d="M43.5266358,21.6577606 C43.5266358,33.3277189 33.9360211,43.0001168 22.0267963,43.1052516 C10.2229629,43.1052516 0.63234822,33.5379884 0.63234822,21.6577606 C0.63234822,9.77753268 10.2229629,0.21026952 22.0267963,0.21026952 C33.8306298,0.21026952 43.5266358,9.88266744 43.5266358,21.6577606 L43.5266358,21.6577606 Z" id="path6"></path>
                </g>
            </g>
            <g id="Layer_1" transform="translate(0.752809, 0.984270)" fill="#000000" sketch:type="MSShapeGroup">
                <g id="Page-1_2_" transform="translate(1.000000, 0.000000)">
                    <g id="mic-tool_1_" transform="translate(1.000000, 0.000000)">
                        <g id="Page-1_3_" transform="translate(1.000000, 0.000000)">
                            <g id="Group_1_" transform="translate(1.000000, 1.000000)">
                                <g id="mic_1_" transform="translate(1.000000, 0.000000)">
                                    <path d="M16.6868483,13.1449797 C16.6868483,16.2551904 14.4163295,17.579132 11.6131391,17.579132 C8.81632746,17.579132 6.5454869,16.2555462 6.5454869,13.1449797 C6.5454869,10.031224 8.81600655,5.5 11.6131391,5.5 C14.4163295,5.5 16.6868483,10.0312249 16.6868483,13.1449797 L16.6868483,13.1449797 Z" id="Shape"></path>
                                    <path d="M32.9863177,13.1449797 C32.9863177,16.2551904 30.7158014,17.579132 27.9158039,17.579132 C25.1189922,17.579132 22.8484683,16.2555462 22.8484683,13.1449797 C22.8484683,10.031224 25.1189922,5.5 27.9158039,5.5 C30.7158023,5.5 32.9863177,10.0312249 32.9863177,13.1449797 L32.9863177,13.1449797 Z" id="Shape"></path>
                                    <path d="M19.4246955,22.8995505 C8.59074225,22.8995505 3.97133194,18.0445183 3.97133194,24.0594622 C3.97133194,30.0829058 10.8899328,37.3346368 19.4246955,37.3346368 C27.9594572,37.3346368 34.8809223,30.3131889 34.8809223,24.2961184 C34.8809223,18.2776321 30.5208332,22.8995513 19.4246955,22.8995513 L19.4246955,22.8995505 Z M19.4246955,35.5515526 C17.3227023,35.5515526 15.3309396,35.0148194 13.5175822,34.1790777 C13.7995276,32.7577127 15.4529546,31.6435062 17.5390188,31.6435062 C18.2312941,31.6435062 18.8515667,31.7972603 19.4246955,32.0055779 C19.9978148,31.7969079 20.617776,31.6435062 21.3100529,31.6435062 C23.40822,31.6435062 25.0715291,32.76515 25.3378606,34.2003348 C23.5238656,35.0215518 21.5292319,35.5515534 19.4246955,35.5515534 L19.4246955,35.5515526 Z" id="Shape"></path>
                                </g>
                            </g>
                        </g>
                    </g>
                </g>
            </g>
        </g>
    </g>
</svg>