<svg width="24" height="22" viewBox="0 0 24 22" version="1.1" xmlns="http://www.w3.org/2000/svg" xmlns:xlink="http://www.w3.org/1999/xlink">
<g id="Canvas" fill="none">
<g id="Vector">
<path d="M 4.29197 19.3019C 4.20267 19.3019 4.11337 19.2697 4.02407 19.2052C 3.96826 19.1622 3.81199 19.0548 3.90129 18.6894L 4.21383 17.4427C 4.55987 16.0778 4.89474 14.7236 5.24078 13.3588C 5.43054 12.6064 5.20729 11.9509 4.60452 11.4672C 3.80082 10.8117 2.9748 10.1453 2.18227 9.51126C 1.54601 8.99539 0.898591 8.46878 0.262332 7.95292C -0.0278912 7.72723 -0.0167287 7.57677 0.0167586 7.41556C 0.0390835 7.32958 0.0948956 7.07165 0.53023 7.05015C 2.65109 6.91044 4.51522 6.78147 6.23423 6.66326C 7.02677 6.60952 7.6407 6.19038 7.93092 5.48106C 8.34393 4.51382 8.75694 3.54657 9.15879 2.56858C 9.47134 1.83777 9.78389 1.09621 10.0964 0.365404C 10.2192 0.0752303 10.3643 0.0107472 10.5987 1.02493e-08L 10.6099 1.02493e-08C 10.8108 1.02493e-08 10.9671 0.193449 11.0452 0.365404L 11.8266 2.20317C 12.2954 3.29939 12.7643 4.3956 13.2219 5.50256C 13.5121 6.17963 14.1038 6.59877 14.8628 6.65251C 15.7558 6.71699 16.6488 6.78147 17.5195 6.83521C 18.0664 6.86745 18.6245 6.91044 19.1715 6.94268C 19.2943 6.95343 19.4171 6.96418 19.5399 6.96418C 19.9752 6.99642 20.377 7.01791 20.79 7.07165C 21.1249 7.11464 21.1584 7.46929 21.1584 7.57677L 21.1584 7.60901C 21.1584 7.71648 20.9686 7.87769 20.8905 7.94217C 20.4217 8.31832 19.9417 8.68373 19.4729 9.05988C 18.5129 9.81218 17.5306 10.586 16.5595 11.3383C 15.8563 11.8864 15.5995 12.6064 15.8116 13.4447C 16.1242 14.6377 16.4255 15.8521 16.7269 17.0343C 16.8609 17.5716 16.9948 18.109 17.1288 18.6464C 17.1734 18.8398 17.1511 19.0225 17.0506 19.1515C 16.9725 19.2375 16.872 19.2912 16.7381 19.2912C 16.7158 19.2912 16.6934 19.2912 16.6711 19.2912C 16.6488 19.2912 16.5818 19.2697 16.4702 19.2052C 14.7958 18.2272 13.1438 17.2492 11.5587 16.3035C 11.2238 16.0993 10.8666 16.0026 10.5094 16.0026C 10.1522 16.0026 9.79505 16.11 9.44901 16.3142C 8.24347 17.0343 7.02677 17.7651 5.84355 18.4744L 4.61568 19.2052C 4.49289 19.2697 4.38127 19.3019 4.29197 19.3019Z" transform="translate(1.5 1)" fill="#FFB017"/>
<path d="M 4.29197 19.3019C 4.20267 19.3019 4.11337 19.2697 4.02407 19.2052C 3.96826 19.1622 3.81199 19.0548 3.90129 18.6894L 4.21383 17.4427C 4.55987 16.0778 4.89474 14.7236 5.24078 13.3588C 5.43054 12.6064 5.20729 11.9509 4.60452 11.4672C 3.80082 10.8117 2.9748 10.1453 2.18227 9.51126C 1.54601 8.99539 0.898591 8.46878 0.262332 7.95292C -0.0278912 7.72723 -0.0167287 7.57677 0.0167586 7.41556C 0.0390835 7.32958 0.0948956 7.07165 0.53023 7.05015C 2.65109 6.91044 4.51522 6.78147 6.23423 6.66326C 7.02677 6.60952 7.6407 6.19038 7.93092 5.48106C 8.34393 4.51382 8.75694 3.54657 9.15879 2.56858C 9.47134 1.83777 9.78389 1.09621 10.0964 0.365404C 10.2192 0.0752303 10.3643 0.0107472 10.5987 1.02493e-08L 10.6099 1.02493e-08C 10.8108 1.02493e-08 10.9671 0.193449 11.0452 0.365404L 11.8266 2.20317C 12.2954 3.29939 12.7643 4.3956 13.2219 5.50256C 13.5121 6.17963 14.1038 6.59877 14.8628 6.65251C 15.7558 6.71699 16.6488 6.78147 17.5195 6.83521C 18.0664 6.86745 18.6245 6.91044 19.1715 6.94268C 19.2943 6.95343 19.4171 6.96418 19.5399 6.96418C 19.9752 6.99642 20.377 7.01791 20.79 7.07165C 21.1249 7.11464 21.1584 7.46929 21.1584 7.57677L 21.1584 7.60901C 21.1584 7.71648 20.9686 7.87769 20.8905 7.94217C 20.4217 8.31832 19.9417 8.68373 19.4729 9.05988C 18.5129 9.81218 17.5306 10.586 16.5595 11.3383C 15.8563 11.8864 15.5995 12.6064 15.8116 13.4447C 16.1242 14.6377 16.4255 15.8521 16.7269 17.0343C 16.8609 17.5716 16.9948 18.109 17.1288 18.6464C 17.1734 18.8398 17.1511 19.0225 17.0506 19.1515C 16.9725 19.2375 16.872 19.2912 16.7381 19.2912C 16.7158 19.2912 16.6934 19.2912 16.6711 19.2912C 16.6488 19.2912 16.5818 19.2697 16.4702 19.2052C 14.7958 18.2272 13.1438 17.2492 11.5587 16.3035C 11.2238 16.0993 10.8666 16.0026 10.5094 16.0026C 10.1522 16.0026 9.79505 16.11 9.44901 16.3142C 8.24347 17.0343 7.02677 17.7651 5.84355 18.4744L 4.61568 19.2052C 4.49289 19.2697 4.38127 19.3019 4.29197 19.3019Z" stroke-width="1.75" transform="translate(1.5 1)" stroke="#121212"/>
</g>
</g>
</svg>

