<?xml version="1.0" encoding="utf-8"?>
<!-- Generator: Adobe Illustrator 19.2.0, SVG Export Plug-In . SVG Version: 6.00 Build 0)  -->
<svg version="1.1" xmlns="http://www.w3.org/2000/svg" xmlns:xlink="http://www.w3.org/1999/xlink" x="0px" y="0px"
	 viewBox="0 0 50 150" style="enable-background:new 0 0 50 150;" xml:space="preserve">
<style type="text/css">
	.st0{fill:#414042;}
	.st1{fill:#CCCCCC;}
	.st2{fill:#1398BB;}
	.st3{fill:#31D8FF;}
</style>
<g id="Layer_1">
	<path class="st0" d="M21.12,62.95c-0.29-0.29-0.67-0.45-1.08-0.45c-0.41,0-0.79,0.16-1.08,0.45c-0.59,0.59-0.59,1.56,0,2.15
		l9.35,9.35l0.74,0.74l-0.74,0.74l-9.15,9.15c-0.59,0.59-0.59,1.56,0,2.15c0.29,0.29,0.67,0.45,1.08,0.45
		c0.41,0,0.79-0.16,1.08-0.45l12.04-12.04L21.12,62.95z"/>
	<path class="st1" d="M21.12,11.32c-0.29-0.29-0.67-0.45-1.08-0.45c-0.41,0-0.79,0.16-1.08,0.45c-0.59,0.59-0.59,1.56,0,2.15
		l9.35,9.35l0.74,0.74l-0.74,0.74l-9.15,9.15c-0.59,0.59-0.59,1.56,0,2.15c0.29,0.29,0.67,0.45,1.08,0.45
		c0.41,0,0.79-0.16,1.08-0.45l12.04-12.04L21.12,11.32z"/>
	<path class="st2" d="M34.9,124.82L22.11,137.6c-1,1-2.63,1-3.63,0c-1-1-1-2.63,0-3.63l9.15-9.15l-9.35-9.35c-1-1-1-2.63,0-3.63
		c1-1,2.63-1,3.63,0L34.9,124.82z"/>
	<path class="st3" d="M20.1,112.13c0.41,0,0.79,0.16,1.08,0.45l12.24,12.24l-12.04,12.04c-0.29,0.29-0.67,0.45-1.08,0.45
		c-0.41,0-0.79-0.16-1.08-0.45c-0.59-0.59-0.59-1.56,0-2.15l9.15-9.15l0.74-0.74l-0.74-0.74l-9.35-9.35c-0.59-0.59-0.59-1.56,0-2.15
		C19.31,112.29,19.69,112.13,20.1,112.13 M20.1,111.08c-0.66,0-1.31,0.25-1.82,0.75c-1,1-1,2.63,0,3.63l9.35,9.35l-9.15,9.15
		c-1,1-1,2.63,0,3.63c0.5,0.5,1.16,0.75,1.82,0.75s1.31-0.25,1.82-0.75l12.78-12.78l-12.98-12.98
		C21.41,111.34,20.76,111.08,20.1,111.08L20.1,111.08z"/>
</g>
<g id="Layer_2">
</g>
</svg>
