<?xml version="1.0" encoding="utf-8"?>
<!-- Generator: Adobe Illustrator 19.2.0, SVG Export Plug-In . SVG Version: 6.00 Build 0)  -->
<svg version="1.1" id="Layer_1" xmlns="http://www.w3.org/2000/svg" xmlns:xlink="http://www.w3.org/1999/xlink" x="0px" y="0px"
	 viewBox="0 0 50 150" style="enable-background:new 0 0 50 150;" xml:space="preserve">
<style type="text/css">
	.st0{fill:#414042;}
	.st1{fill:#CCCCCC;}
	.st2{fill:#1398BB;}
	.st3{fill:#31D8FF;}
</style>
<path class="st0" d="M21.1,60.1c-0.4-0.4-0.8-0.5-1.3-0.5s-1,0.2-1.3,0.5c-0.7,0.7-0.7,1.9,0,2.7l11.5,11.5l0.9,0.9l-0.9,0.9
	L18.6,87.4c-0.7,0.7-0.7,1.9,0,2.7c0.4,0.3,0.8,0.6,1.3,0.6s1-0.2,1.3-0.6l14.9-14.9L21.1,60.1z"/>
<path class="st1" d="M21.1,9.8c-0.4-0.4-0.8-0.6-1.3-0.6s-1,0.2-1.3,0.6c-0.7,0.7-0.7,1.9,0,2.7L29.9,24l0.9,0.9l-0.9,0.9L18.6,37.1
	c-0.7,0.7-0.7,1.9,0,2.7c0.4,0.4,0.8,0.5,1.3,0.5s1-0.2,1.3-0.5l14.9-14.9L21.1,9.8z"/>
<path class="st2" d="M38,124.8l-15.8,15.8c-1.2,1.2-3.2,1.2-4.5,0c-1.2-1.2-1.2-3.2,0-4.5L29,124.8l-11.5-11.5
	c-1.2-1.2-1.2-3.2,0-4.5c1.2-1.2,3.2-1.2,4.5,0L38,124.8z"/>
<path class="st3" d="M19.7,109.2c0.5,0,1,0.2,1.3,0.6l15.1,15.1l-14.9,14.9c-0.4,0.4-0.8,0.6-1.3,0.6s-1-0.2-1.3-0.6
	c-0.7-0.7-0.7-1.9,0-2.7l11.3-11.3l0.9-0.9l-0.9-0.9l-11.5-11.5c-0.7-0.7-0.7-1.9,0-2.7C18.8,109.4,19.2,109.2,19.7,109.2
	 M19.7,107.9c-0.8,0-1.6,0.3-2.2,0.9c-1.2,1.2-1.2,3.2,0,4.5L29,124.8l-11.3,11.3c-1.2,1.2-1.2,3.2,0,4.5c0.6,0.6,1.4,0.9,2.2,0.9
	s1.6-0.3,2.2-0.9L38,124.8l-16-16C21.4,108.2,20.5,107.9,19.7,107.9L19.7,107.9z"/>
<g id="Layer_2">
</g>
</svg>
