<?xml version="1.0" encoding="utf-8"?>
<!-- Generator: Adobe Illustrator 19.2.0, SVG Export Plug-In . SVG Version: 6.00 Build 0)  -->
<svg version="1.1" xmlns="http://www.w3.org/2000/svg" xmlns:xlink="http://www.w3.org/1999/xlink" x="0px" y="0px"
	 viewBox="0 0 50 150" style="enable-background:new 0 0 50 150;" xml:space="preserve">
<style type="text/css">
	.st0{fill:#414042;}
	.st1{fill:#CCCCCC;}
	.st2{fill:#1398BB;}
	.st3{fill:#31D8FF;}
</style>
<g id="Layer_1">
	<path class="st0" d="M21.06,60.1c-0.36-0.36-0.83-0.55-1.33-0.55c-0.5,0-0.97,0.2-1.33,0.55c-0.73,0.73-0.73,1.93,0,2.66
		L29.94,74.3l0.91,0.91l-0.91,0.91l-11.3,11.3c-0.73,0.73-0.73,1.93,0,2.66c0.35,0.35,0.83,0.55,1.33,0.55c0.5,0,0.97-0.2,1.33-0.55
		l14.87-14.87L21.06,60.1z"/>
	<path class="st1" d="M21.06,8.47c-0.36-0.36-0.83-0.55-1.33-0.55c-0.5,0-0.97,0.2-1.33,0.55c-0.73,0.73-0.73,1.93,0,2.66
		l11.54,11.54l0.91,0.91l-0.91,0.91l-11.3,11.3c-0.73,0.73-0.73,1.93,0,2.66C19,38.81,19.47,39,19.97,39c0.5,0,0.97-0.2,1.33-0.55
		l14.87-14.87L21.06,8.47z"/>
	<path class="st2" d="M37.99,124.84l-15.78,15.78c-1.24,1.24-3.25,1.24-4.48,0c-1.24-1.24-1.24-3.25,0-4.48l11.3-11.3L17.49,113.3
		c-1.24-1.24-1.24-3.25,0-4.48c1.24-1.24,3.25-1.24,4.48,0L37.99,124.84z"/>
	<path class="st3" d="M19.73,109.18c0.5,0,0.97,0.2,1.33,0.55l15.11,15.11L21.3,139.71c-0.36,0.36-0.83,0.55-1.33,0.55
		c-0.5,0-0.97-0.2-1.33-0.55c-0.73-0.73-0.73-1.93,0-2.66l11.3-11.3l0.91-0.91l-0.91-0.91L18.4,112.39c-0.73-0.73-0.73-1.93,0-2.66
		C18.75,109.37,19.22,109.18,19.73,109.18 M19.73,107.89c-0.81,0-1.62,0.31-2.24,0.93c-1.24,1.24-1.24,3.25,0,4.48l11.54,11.54
		l-11.3,11.3c-1.24,1.24-1.24,3.25,0,4.48c0.62,0.62,1.43,0.93,2.24,0.93c0.81,0,1.62-0.31,2.24-0.93l15.78-15.78l-16.02-16.03
		C21.35,108.2,20.54,107.89,19.73,107.89L19.73,107.89z"/>
</g>
<g id="Layer_2">
</g>
</svg>
