<?xml version="1.0" encoding="utf-8"?>
<!-- Generator: Adobe Illustrator 17.1.0, SVG Export Plug-In . SVG Version: 6.00 Build 0)  -->
<!DOCTYPE svg PUBLIC "-//W3C//DTD SVG 1.1//EN" "http://www.w3.org/Graphics/SVG/1.1/DTD/svg11.dtd">
<svg version="1.1" id="Layer_1" xmlns="http://www.w3.org/2000/svg" xmlns:xlink="http://www.w3.org/1999/xlink" x="0px" y="0px"
	 viewBox="0 0 55.5 55.5" enable-background="new 0 0 55.5 55.5" xml:space="preserve">
<g>
	<g>
		<path fill="#0E7077" d="M47.4,8.1C42.1,2.9,35.2,0,27.8,0C20.3,0,13.4,2.9,8.1,8.1C2.9,13.4,0,20.3,0,27.8
			c0,7.4,2.9,14.4,8.1,19.6c5.2,5.2,12.2,8.1,19.6,8.1c7.4,0,14.4-2.9,19.6-8.1c5.2-5.2,8.1-12.2,8.1-19.6
			C55.5,20.3,52.6,13.4,47.4,8.1z M45.4,45.4c-4.7,4.7-11,7.3-17.7,7.3c-6.7,0-12.9-2.6-17.7-7.3c-4.7-4.7-7.3-11-7.3-17.7
			c0-6.7,2.6-12.9,7.3-17.7c4.7-4.7,11-7.3,17.7-7.3c6.7,0,12.9,2.6,17.7,7.3c4.7,4.7,7.3,11,7.3,17.7
			C52.7,34.4,50.1,40.7,45.4,45.4z"/>
		<g>
			<path fill="#0E7077" d="M20.3,37.6c-0.6,0-1.2-0.5-1.2-1.2V15c0-0.6,0.5-1.2,1.2-1.2c0.6,0,1.2,0.5,1.2,1.2v21.5
				C21.5,37.1,21,37.6,20.3,37.6z"/>
			<path fill="#0E7077" d="M21.7,14.4c-0.8,0.8-2,0.8-2.7,0c-0.8-0.8-0.8-2,0-2.7c0.8-0.8,2-0.8,2.7,0
				C22.5,12.5,22.5,13.7,21.7,14.4"/>
			<g>
				<path fill="#0E7077" d="M20.3,16.2c-0.8,0-1.6-0.3-2.2-0.9c-1.2-1.2-1.2-3.2,0-4.4c0.6-0.6,1.4-0.9,2.2-0.9
					c0.8,0,1.6,0.3,2.2,0.9c0.6,0.6,0.9,1.4,0.9,2.2c0,0.8-0.3,1.6-0.9,2.2C21.9,15.8,21.2,16.2,20.3,16.2z M20.3,12.3
					c-0.2,0-0.4,0.1-0.6,0.2c-0.3,0.3-0.3,0.8,0,1.1c0.3,0.3,0.8,0.3,1.1,0c0.1-0.1,0.2-0.3,0.2-0.6c0-0.2-0.1-0.4-0.2-0.6
					C20.7,12.4,20.5,12.3,20.3,12.3z"/>
			</g>
			<path fill="#0E7077" d="M19,37c0.8-0.8,2-0.8,2.7,0c0.8,0.8,0.8,2,0,2.7c-0.8,0.8-2,0.8-2.7,0C18.2,39,18.2,37.8,19,37"/>
			<g>
				<path fill="#0E7077" d="M20.3,41.5c-0.8,0-1.6-0.3-2.2-0.9c-0.6-0.6-0.9-1.4-0.9-2.2c0-0.8,0.3-1.6,0.9-2.2
					c0.6-0.6,1.4-0.9,2.2-0.9c0.8,0,1.6,0.3,2.2,0.9c0.6,0.6,0.9,1.4,0.9,2.2c0,0.8-0.3,1.6-0.9,2.2C21.9,41.2,21.2,41.5,20.3,41.5z
					 M20.3,37.6c-0.2,0-0.4,0.1-0.6,0.2c-0.1,0.1-0.2,0.3-0.2,0.6c0,0.2,0.1,0.4,0.2,0.6c0.3,0.3,0.8,0.3,1.1,0
					c0.1-0.1,0.2-0.3,0.2-0.6c0-0.2-0.1-0.4-0.2-0.6C20.7,37.7,20.5,37.6,20.3,37.6z"/>
			</g>
			<g>
				<path fill="#0E7077" d="M35.2,41.7c-0.6,0-1.2-0.5-1.2-1.2V19c0-0.6,0.5-1.2,1.2-1.2c0.6,0,1.2,0.5,1.2,1.2v21.5
					C36.4,41.2,35.8,41.7,35.2,41.7z"/>
			</g>
			<path fill="#0E7077" d="M36.6,18.5c-0.8,0.8-2,0.8-2.7,0c-0.8-0.8-0.8-2,0-2.7c0.8-0.8,2-0.8,2.7,0
				C37.3,16.5,37.3,17.7,36.6,18.5"/>
			<g>
				<path fill="#0E7077" d="M35.2,20.2c-0.8,0-1.6-0.3-2.2-0.9c-1.2-1.2-1.2-3.2,0-4.4c0.6-0.6,1.4-0.9,2.2-0.9
					c0.8,0,1.6,0.3,2.2,0.9c0.6,0.6,0.9,1.4,0.9,2.2c0,0.8-0.3,1.6-0.9,2.2C36.8,19.9,36,20.2,35.2,20.2z M35.2,16.3
					c-0.2,0-0.4,0.1-0.6,0.2c-0.3,0.3-0.3,0.8,0,1.1c0.3,0.3,0.8,0.3,1.1,0c0.1-0.1,0.2-0.3,0.2-0.6c0-0.2-0.1-0.4-0.2-0.6
					C35.6,16.4,35.4,16.3,35.2,16.3z"/>
			</g>
			<g>
				<path fill="#0E7077" d="M35.2,45.6c-0.8,0-1.6-0.3-2.2-0.9c-1.2-1.2-1.2-3.2,0-4.4c0.6-0.6,1.4-0.9,2.2-0.9
					c0.8,0,1.6,0.3,2.2,0.9c0.6,0.6,0.9,1.4,0.9,2.2c0,0.8-0.3,1.6-0.9,2.2C36.8,45.2,36,45.6,35.2,45.6z M35.2,41.7
					c-0.2,0-0.4,0.1-0.6,0.2c-0.3,0.3-0.3,0.8,0,1.1c0.3,0.3,0.8,0.3,1.1,0c0.1-0.1,0.2-0.3,0.2-0.6s-0.1-0.4-0.2-0.6
					C35.6,41.8,35.4,41.7,35.2,41.7z"/>
			</g>
			<path fill="#0E7077" d="M33.8,41.1c0.8-0.8,2-0.8,2.7,0c0.8,0.8,0.8,2,0,2.7c-0.8,0.8-2,0.8-2.7,0C33.1,43.1,33.1,41.8,33.8,41.1
				"/>
			<g>
				
					<rect x="19.6" y="26.2" transform="matrix(0.9064 0.4224 -0.4224 0.9064 14.1626 -9.1647)" fill="#0E7077" width="16.4" height="2.3"/>
			</g>
		</g>
	</g>
</g>
</svg>
