<?xml version="1.0" encoding="UTF-8" standalone="no"?>
<!-- Generator: Adobe Illustrator 18.1.1, SVG Export Plug-In . SVG Version: 6.00 Build 0)  -->

<svg
   xmlns:dc="http://purl.org/dc/elements/1.1/"
   xmlns:cc="http://creativecommons.org/ns#"
   xmlns:rdf="http://www.w3.org/1999/02/22-rdf-syntax-ns#"
   xmlns:svg="http://www.w3.org/2000/svg"
   xmlns="http://www.w3.org/2000/svg"
   xmlns:sodipodi="http://sodipodi.sourceforge.net/DTD/sodipodi-0.dtd"
   xmlns:inkscape="http://www.inkscape.org/namespaces/inkscape"
   version="1.1"
   x="0px"
   y="0px"
   viewBox="0 0 150 150"
   enable-background="new 0 0 512 512"
   xml:space="preserve"
   id="svg2"
   inkscape:version="0.91 r13725"
   sodipodi:docname="hifi-logo-blackish.svg"
   width="150"
   height="150"><metadata
     id="metadata57"><rdf:RDF><cc:Work
         rdf:about=""><dc:format>image/svg+xml</dc:format><dc:type
           rdf:resource="http://purl.org/dc/dcmitype/StillImage" /><dc:title></dc:title></cc:Work></rdf:RDF></metadata><defs
     id="defs55" /><sodipodi:namedview
     pagecolor="#ffffff"
     bordercolor="#666666"
     borderopacity="1"
     objecttolerance="10"
     gridtolerance="10"
     guidetolerance="10"
     inkscape:pageopacity="0"
     inkscape:pageshadow="2"
     inkscape:window-width="1835"
     inkscape:window-height="1057"
     id="namedview53"
     showgrid="false"
     inkscape:zoom="2.6074563"
     inkscape:cx="256"
     inkscape:cy="67.100056"
     inkscape:window-x="77"
     inkscape:window-y="-8"
     inkscape:window-maximized="1"
     inkscape:current-layer="svg2" /><g
     id="Layer_1"
     transform="translate(-30.500027,-42.2)"><g
       id="g5"><g
         id="g7"><path
           d="M 155.3,67.4 C 141.9,54.3 124.5,47 105.8,47 86.8,47 69.4,54.3 56,67.4 42.9,80.8 35.5,98.2 35.5,117.2 c 0,18.7 7.3,36.4 20.5,49.5 13.2,13.1 30.8,20.5 49.5,20.5 18.7,0 36.4,-7.3 49.5,-20.5 13.1,-13.1 20.5,-30.8 20.5,-49.5 0.3,-18.9 -7,-36.4 -20.2,-49.8 z m -5,94.3 c -11.9,11.9 -27.8,18.4 -44.7,18.4 C 88.7,180.1 73,173.5 60.9,161.7 49,149.8 42.5,133.9 42.5,117 c 0,-16.9 6.6,-32.6 18.4,-44.7 11.9,-11.9 27.8,-18.4 44.7,-18.4 16.9,0 32.6,6.6 44.7,18.4 11.9,11.9 18.4,27.8 18.4,44.7 0,16.9 -6.6,32.8 -18.4,44.7 z"
           id="path9"
           inkscape:connector-curvature="0"
           style="fill:#333333" /><g
           id="g11"><path
             d="m 86.8,142 c -1.5,0 -3,-1.3 -3,-3 l 0,-54.1 c 0,-1.5 1.3,-3 3,-3 1.5,0 3,1.3 3,3 l 0,54.3 c 0.1,1.5 -1.2,2.8 -3,2.8 z"
             id="path13"
             inkscape:connector-curvature="0"
             style="fill:#333333" /><path
             d="m 90.4,83.4 c -2,2 -5.1,2 -6.8,0 -2,-2 -2,-5.1 0,-6.8 2,-2 5.1,-2 6.8,0 2,2 2,5 0,6.8"
             id="path15"
             inkscape:connector-curvature="0"
             style="fill:#333333" /><g
             id="g17"><path
               d="m 86.8,87.9 c -2,0 -4,-0.8 -5.6,-2.3 -3,-3 -3,-8.1 0,-11.1 1.5,-1.5 3.5,-2.3 5.6,-2.3 2.1,0 4,0.8 5.6,2.3 1.5,1.5 2.3,3.5 2.3,5.6 0,2.1 -0.8,4 -2.3,5.6 -1.5,1.2 -3.3,2.2 -5.6,2.2 z m 0,-9.8 c -0.5,0 -1,0.3 -1.5,0.5 -0.8,0.8 -0.8,2 0,2.8 0.8,0.8 2,0.8 2.8,0 0.3,-0.3 0.5,-0.8 0.5,-1.5 0,-0.5 -0.3,-1 -0.5,-1.5 -0.2,-0.1 -0.7,-0.3 -1.3,-0.3 z"
               id="path19"
               inkscape:connector-curvature="0"
               style="fill:#333333" /></g><path
             d="m 83.6,140.5 c 2,-2 5.1,-2 6.8,0 2,2 2,5.1 0,6.8 -2,2 -5.1,2 -6.8,0 -2.1,-1.8 -2.1,-4.8 0,-6.8"
             id="path21"
             inkscape:connector-curvature="0"
             style="fill:#333333" /><g
             id="g23"><path
               d="m 86.8,151.8 c -2,0 -4,-0.8 -5.6,-2.3 C 79.6,148 79,146 79,144 c 0,-2 0.8,-4 2.3,-5.6 1.5,-1.6 3.5,-2.3 5.6,-2.3 2.1,0 4,0.8 5.6,2.3 1.6,1.5 2.3,3.5 2.3,5.6 0,2.1 -0.8,4 -2.3,5.6 -1.6,1.5 -3.4,2.2 -5.7,2.2 z m 0,-9.8 c -0.5,0 -1,0.3 -1.5,0.5 -0.3,0.3 -0.5,0.8 -0.5,1.5 0,0.5 0.3,1 0.5,1.5 0.8,0.8 2,0.8 2.8,0 0.3,-0.3 0.5,-0.8 0.5,-1.5 0,-0.5 -0.3,-1 -0.5,-1.5 -0.2,-0.3 -0.7,-0.5 -1.3,-0.5 z"
               id="path25"
               inkscape:connector-curvature="0"
               style="fill:#333333" /></g><g
             id="g27"><path
               d="m 124.5,152.3 c -1.5,0 -3,-1.3 -3,-3 l 0,-54.3 c 0,-1.5 1.3,-3 3,-3 1.5,0 3,1.3 3,3 l 0,54.3 c 0,1.8 -1.5,3 -3,3 z"
               id="path29"
               inkscape:connector-curvature="0"
               style="fill:#333333" /></g><path
             d="m 128,93.7 c -2,2 -5.1,2 -6.8,0 -2,-2 -2,-5.1 0,-6.8 2,-2 5.1,-2 6.8,0 1.8,1.8 1.8,4.8 0,6.8"
             id="path31"
             inkscape:connector-curvature="0"
             style="fill:#333333" /><g
             id="g33"><path
               d="m 124.5,98 c -2,0 -4,-0.8 -5.6,-2.3 -3,-3 -3,-8.1 0,-11.1 1.5,-1.5 3.5,-2.3 5.6,-2.3 2,0 4,0.8 5.6,2.3 1.5,1.5 2.3,3.5 2.3,5.6 0,2 -0.8,4 -2.3,5.6 -1.6,1.5 -3.6,2.2 -5.6,2.2 z m 0,-9.8 c -0.5,0 -1,0.3 -1.5,0.5 -0.8,0.8 -0.8,2 0,2.8 0.8,0.8 2,0.8 2.8,0 0.3,-0.3 0.5,-0.8 0.5,-1.5 0,-0.5 -0.3,-1 -0.5,-1.5 -0.3,-0.1 -0.8,-0.3 -1.3,-0.3 z"
               id="path35"
               inkscape:connector-curvature="0"
               style="fill:#333333" /></g><g
             id="g37"><path
               d="m 124.5,162.2 c -2,0 -4,-0.8 -5.6,-2.3 -3,-3 -3,-8.1 0,-11.1 1.5,-1.5 3.5,-2.3 5.6,-2.3 2,0 4,0.8 5.6,2.3 1.5,1.5 2.3,3.5 2.3,5.6 0,2.1 -0.8,4 -2.3,5.6 -1.6,1.2 -3.6,2.2 -5.6,2.2 z m 0,-9.9 c -0.5,0 -1,0.3 -1.5,0.5 -0.8,0.8 -0.8,2 0,2.8 0.8,0.8 2,0.8 2.8,0 0.3,-0.3 0.5,-0.8 0.5,-1.5 0,-0.7 -0.3,-1 -0.5,-1.5 -0.3,0 -0.8,-0.3 -1.3,-0.3 z"
               id="path39"
               inkscape:connector-curvature="0"
               style="fill:#333333" /></g><path
             d="m 121,150.8 c 2,-2 5.1,-2 6.8,0 2,2 2,5.1 0,6.8 -2,2 -5.1,2 -6.8,0 -1.8,-1.7 -1.8,-5 0,-6.8"
             id="path41"
             inkscape:connector-curvature="0"
             style="fill:#333333" /><g
             id="g43"><rect
               x="85.099998"
               y="113.2"
               transform="matrix(-0.9064,-0.4224,0.4224,-0.9064,152.6722,266.0858)"
               width="41.400002"
               height="5.8000002"
               id="rect45"
               style="fill:#333333" /></g></g></g></g></g><g
     id="Layer_2_copy"
     display="none"
     style="display:none"
     transform="translate(0,-362)"><path
       display="inline"
       d="m 500,511.5 -488,0 c -6.6,0 -12,-5.4 -12,-12 l 0,-168 c 0,-6.6 5.4,-12 12,-12 l 488,0 c 6.6,0 12,5.4 12,12 l 0,168 c 0,6.6 -5.4,12 -12,12 z"
       id="path48"
       inkscape:connector-curvature="0"
       style="display:inline;fill:#ffffff" /><g
       id="Layer_2"
       display="inline"
       style="display:inline"><path
         d="M 500,384 12,384 C 5.4,384 0,378.6 0,372 L 0,12 C 0,5.4 5.4,0 12,0 l 488,0 c 6.6,0 12,5.4 12,12 l 0,360 c 0,6.6 -5.4,12 -12,12 z"
         id="path51"
         inkscape:connector-curvature="0"
         style="fill:#368db0" /></g></g></svg>