<?xml version="1.0" encoding="utf-8"?>
<!-- Generator: Adobe Illustrator 17.0.0, SVG Export Plug-In . SVG Version: 6.00 Build 0)  -->
<!DOCTYPE svg PUBLIC "-//W3C//DTD SVG 1.1//EN" "http://www.w3.org/Graphics/SVG/1.1/DTD/svg11.dtd">
<svg version="1.1" id="Layer_1" xmlns="http://www.w3.org/2000/svg" xmlns:xlink="http://www.w3.org/1999/xlink" x="0px" y="0px"
	 width="152px" height="152px" viewBox="0 0 152 152" enable-background="new 0 0 152 152" xml:space="preserve">
<path fill="#333333" d="M76,13.441C41.45,13.441,13.442,41.45,13.442,76S41.45,138.558,76,138.558S138.558,110.55,138.558,76
	S110.55,13.441,76,13.441z M76,107.279c-17.275,0-31.279-14.004-31.279-31.279S58.725,44.721,76,44.721S107.279,58.725,107.279,76
	S93.275,107.279,76,107.279z"/>
<g id="XMLID_46_">
	<g>
		<path fill="#EAEAEA" d="M41.465,38.653c0.483-0.558-1.506-5.81-0.071-6.338c1.041-0.38,0.971,1.524,1.041,2.08
			c0.102,1.143,0.346,2.528,0.727,3.567c0.346-1.663,0.312-3.36,0.381-5.056c0.034-0.521,0.173-1.697,0.865-1.629
			c1.628,0.105-0.242,5.576,0.832,6.269c0.727-0.832,0.935-2.979,1.212-4.052c0.104-0.45,0.245-1.873,1.246-1.281
			c0.763,0.451,0.138,3.291-0.103,4.19c-0.244,0.935-0.244,1.592-0.521,2.667c-0.067,0.728-0.206,1.524,0.277,2.078
			c0.867,0,2.859-2.46,3.829-1.699c0.658,0.485,0.331,1.109-0.12,1.403c-3.326,2.149-2.808,4.815-4.402,5.126
			c0,2.73-0.165,2.833,0.11,5.551c-1.731,0.287-3.542,0.216-5.199,0.106c0-0.001,0-0.001,0-0.001
			c0.113-1.432,0.067-0.342,0.173-1.931c0.079-1.235,0.103-2.339,0.139-3.551l-0.036-0.138c-1.038-0.278-1.349-2.095-1.696-3.307
			c-0.38-1.318,0.069-2.495-0.416-3.775c-0.308-0.97-1.62-3.381-0.795-4.086c0.487-0.417,0.761-0.07,1.142,0.83
			C40.392,36.408,40.549,38.549,41.465,38.653z"/>
	</g>
</g>
</svg>
