<?xml version="1.0" encoding="utf-8"?>
<!-- Generator: Adobe Illustrator 16.2.1, SVG Export Plug-In . SVG Version: 6.00 Build 0)  -->
<!DOCTYPE svg PUBLIC "-//W3C//DTD SVG 1.1//EN" "http://www.w3.org/Graphics/SVG/1.1/DTD/svg11.dtd">
<svg version="1.1" id="Layer_1" xmlns="http://www.w3.org/2000/svg" xmlns:xlink="http://www.w3.org/1999/xlink" x="0px" y="0px"
	 width="152px" height="506px" viewBox="0 0 152 506" enable-background="new 0 0 152 506" xml:space="preserve">
<g>
	<rect y="161" width="61" height="39"/>
</g>
<g>
	<rect y="80" width="61" height="39"/>
</g>
<g>
	<rect y="121" width="61" height="38"/>
</g>
<g>
	<g>
		<polyline fill="none" stroke="#CCCCCC" stroke-miterlimit="10" points="19.944,187.889 19.944,188.889 19.031,188.481 		"/>
		
			<line fill="none" stroke="#CCCCCC" stroke-miterlimit="10" stroke-dasharray="1.9973,1.9973" x1="17.208" y1="187.666" x2="10.825" y2="184.815"/>
		<polyline fill="none" stroke="#CCCCCC" stroke-miterlimit="10" points="9.913,184.408 9,184 9,183 		"/>
		<line fill="none" stroke="#CCCCCC" stroke-miterlimit="10" stroke-dasharray="2,2" x1="8.5" y1="181" x2="8.5" y2="174"/>
		<polyline fill="none" stroke="#CCCCCC" stroke-miterlimit="10" points="9,173 9,172 9.927,172.376 		"/>
		
			<line fill="none" stroke="#CCCCCC" stroke-miterlimit="10" stroke-dasharray="1.9625,1.9625" x1="11.745" y1="173.115" x2="18.109" y2="175.699"/>
		<polyline fill="none" stroke="#CCCCCC" stroke-miterlimit="10" points="19.018,176.068 19.944,176.444 19.944,177.444 		"/>
		<line fill="none" stroke="#CCCCCC" stroke-miterlimit="10" stroke-dasharray="2,2" x1="19.5" y1="180" x2="19.5" y2="187"/>
	</g>
</g>
<g>
	<rect y="40" width="61" height="38"/>
</g>
<g>
	<g>
		<g>
			<polygon fill="#A5A5A5" points="26,57.13 39,52.393 39,65.713 26,70.894 			"/>
		</g>
		<g>
			<g>
				<path fill="#333333" d="M38,53v12.59l-12,5.032V57.257l12.204-4.468 M39,52.13l-13,4.873v14.162l13-5.33V52.13L39,52.13z"/>
			</g>
		</g>
	</g>
	<g>
		<g>
			<polygon fill="#BFBFBF" points="13,65.713 13,52.393 25,57.13 25,70.894 			"/>
		</g>
		<g>
			<path fill="#BFBFBF" d="M12.887,52.789L25,57.257v13.365L13,65.59V53 M13,52.13v13.705l13,5.33V57.003L13,52.13L13,52.13z"/>
		</g>
	</g>
	<g>
		<g>
			<polygon fill="#FFFFFF" points="13.173,52.13 25.746,47.452 38.318,52.13 25.746,56.809 			"/>
		</g>
		<g>
			<path fill="#333333" d="M25.746,47.646l12.049,4.483l-12.049,4.483L13.697,52.13L25.746,47.646 M25.746,47.258L12.65,52.13
				l13.096,4.873l13.096-4.873L25.746,47.258L25.746,47.258z"/>
		</g>
	</g>
</g>
<g>
	<g>
		<path fill="#999999" d="M13.77,148.933c0.296,0.296,0.665,0.102,0.665,0.102s0.527-0.615,1.101-0.328
			c0.811,0.405,1.315-0.113,1.315-0.113l10.611-10.611l-1.419-1.419l-1.161-1.161l-10.61,10.61c0,0-0.575,0.449-0.169,1.261
			c0.287,0.573-0.384,1.045-0.384,1.045S13.474,148.638,13.77,148.933"/>
	</g>
	<g>
		<path fill="#CCCCCC" d="M25.913,134.111l2.173-2.173c0,0,1.898-1.905,3.256-0.547c0.68,0.68,1.083,1.627-0.546,3.257
			c-1.549,1.548-2.173,2.172-2.173,2.172L25.913,134.111z"/>
	</g>
	<g>
		
			<rect x="22.989" y="134.726" transform="matrix(0.7071 0.7071 -0.7071 0.7071 104.1434 21.2946)" fill="#CCCCCC" width="6.751" height="3.285"/>
	</g>
</g>
<g>
	<path fill="#FFFFFF" d="M46.119,60.883V64h-2.314v-8.566h2.807c2.328,0,3.492,0.844,3.492,2.531c0,0.992-0.484,1.76-1.453,2.303
		L51.146,64h-2.625l-1.816-3.117H46.119z M46.119,59.143h0.434c0.809,0,1.213-0.357,1.213-1.072c0-0.59-0.396-0.885-1.189-0.885
		h-0.457V59.143z"/>
</g>
<g>
	<path fill="#FFFFFF" d="M43.84,95.434h2.988c1.164,0,2.028,0.173,2.593,0.519s0.847,0.884,0.847,1.614
		c0,0.48-0.123,0.891-0.369,1.23s-0.57,0.559-0.973,0.656v0.059c0.531,0.141,0.916,0.375,1.154,0.703s0.357,0.754,0.357,1.277
		c0,0.777-0.292,1.39-0.876,1.837S48.182,104,47.174,104H43.84V95.434z M46.154,98.721h0.697c0.332,0,0.589-0.068,0.771-0.205
		s0.272-0.34,0.272-0.609c0-0.48-0.363-0.721-1.09-0.721h-0.65V98.721z M46.154,100.414v1.799h0.814
		c0.723,0,1.084-0.305,1.084-0.914c0-0.285-0.097-0.504-0.29-0.656s-0.474-0.229-0.841-0.229H46.154z"/>
</g>
<g>
	<path fill="#FFFFFF" d="M46.482,137.984h3.697v4.617c-1.004,0.344-2.107,0.516-3.311,0.516c-1.32,0-2.341-0.383-3.062-1.148
		s-1.081-1.857-1.081-3.275c0-1.383,0.395-2.459,1.184-3.229s1.895-1.154,3.316-1.154c0.539,0,1.048,0.051,1.526,0.152
		s0.896,0.23,1.251,0.387l-0.732,1.816c-0.617-0.305-1.295-0.457-2.033-0.457c-0.676,0-1.198,0.22-1.567,0.659
		s-0.554,1.067-0.554,1.884c0,0.801,0.167,1.411,0.501,1.831s0.815,0.63,1.444,0.63c0.344,0,0.66-0.033,0.949-0.1v-1.342h-1.529
		V137.984z"/>
</g>
<g>
	<path fill="#FFFFFF" d="M50.379,179.705c0,1.441-0.354,2.537-1.061,3.287s-1.742,1.125-3.105,1.125
		c-1.344,0-2.374-0.377-3.091-1.131s-1.075-1.852-1.075-3.293c0-1.426,0.356-2.515,1.069-3.267s1.749-1.128,3.108-1.128
		c1.363,0,2.396,0.373,3.1,1.119S50.379,178.26,50.379,179.705z M44.484,179.705c0,1.656,0.576,2.484,1.729,2.484
		c0.586,0,1.021-0.201,1.304-0.604s0.425-1.029,0.425-1.881c0-0.855-0.144-1.487-0.431-1.896s-0.716-0.612-1.286-0.612
		C45.064,177.197,44.484,178.033,44.484,179.705z"/>
</g>
<g>
	<path fill="#FFFFFF" d="M18,105.06c-3,1-3,3-7,3c2,1,8,4,9,0C20.47,106.181,18,105.06,18,105.06z"/>
	<path fill="#CCCCCC" d="M19,104.06l2,2c0,0,3.952-4.712,7-9c3.048-4.287,7.32-10.785,3-7C28.399,92.338,22.048,99.772,19,104.06z"
		/>
</g>
<g>
	<polygon fill="#333333" points="7,58 9,58 10,58 15,58 16,58 18,58 18,63 16,63 15,63 10,63 9,63 7,63 	"/>
	<g>
		<g>
			<rect x="8" y="59" fill="#FFFFFF" width="9" height="3"/>
		</g>
	</g>
</g>
<g>
	<rect width="61" height="38"/>
</g>
<g>
	<g>
		<g>
			<polygon fill="#A5A5A5" points="26,17.13 39,12.393 39,25.713 26,30.894 			"/>
		</g>
		<g>
			<g>
				<path fill="#333333" d="M38,13v12.59l-12,5.032V17.257l12.204-4.468 M39,12.13l-13,4.873v14.162l13-5.33V12.13L39,12.13z"/>
			</g>
		</g>
	</g>
	<g>
		<g>
			<polygon fill="#BFBFBF" points="13,25.713 13,12.393 25,17.13 25,30.894 			"/>
		</g>
		<g>
			<path fill="#BFBFBF" d="M12.887,12.789L25,17.257v13.365L13,25.59V13 M13,12.13v13.705l13,5.33V17.003L13,12.13L13,12.13z"/>
		</g>
	</g>
	<g>
		<g>
			<polygon fill="#FFFFFF" points="13.173,12.13 25.746,7.452 38.318,12.13 25.746,16.809 			"/>
		</g>
		<g>
			<path fill="#333333" d="M25.746,7.646l12.049,4.483l-12.049,4.483L13.697,12.13L25.746,7.646 M25.746,7.258L12.65,12.13
				l13.096,4.873l13.096-4.873L25.746,7.258L25.746,7.258z"/>
		</g>
	</g>
</g>
<g>
	<path fill="#FFFFFF" d="M48.41,15.434H51L48.193,24h-2.725l-2.795-8.566h2.602l1.166,4.342c0.242,0.965,0.375,1.637,0.398,2.016
		c0.027-0.273,0.082-0.615,0.164-1.025s0.154-0.732,0.217-0.967L48.41,15.434z"/>
</g>
<g>
	<polygon fill="#333333" points="7,18 10,18 10,15 15,15 15,18 18,18 18,23 15,23 15,26 10,26 10,23 7,23 	"/>
	<g>
		<g>
			<rect x="11" y="16" fill="#FFFFFF" width="3" height="9"/>
		</g>
		<g>
			<rect x="8" y="19" fill="#FFFFFF" width="9" height="3"/>
		</g>
	</g>
</g>
<polyline fill="none" stroke="#CCCCCC" stroke-miterlimit="10" stroke-dasharray="2,2" points="19.944,176.444 30,172 20,169 9,172 
	"/>
<polyline fill="none" stroke="#CCCCCC" stroke-miterlimit="10" stroke-dasharray="2,2" points="20.333,189.111 29.5,184 29.5,172 
	"/>
</svg>
