<svg width="360" height="85" viewBox="0 0 360 85" fill="none" xmlns="http://www.w3.org/2000/svg">
<path d="M124 30V59H117.974V46.3455H108.026V59H102V30H108.026V41.1899H117.974V30H124Z" fill="#00B4F0"/>
<path d="M135 59H129V30H135V59Z" fill="#00B4F0"/>
<path d="M151.829 34.9471C150.406 34.9471 149.211 35.0608 148.187 35.3451C147.22 35.6294 146.423 36.0843 145.797 36.7098C145.171 37.3353 144.772 38.2451 144.488 39.3255C144.203 40.4059 144.089 41.7706 144.089 43.3627V45.9216C144.089 47.6275 144.203 48.9922 144.431 50.0726C144.659 51.1529 145.057 52.0059 145.626 52.5745C146.138 53.2 146.878 53.598 147.732 53.8255C148.585 54.0529 149.667 54.1667 150.919 54.1667C151.26 54.1667 151.659 54.1667 152.057 54.1098C152.455 54.1098 152.854 54.0529 153.309 53.9961V46.3765H149.78L150.35 41.7137H159V57.749C157.919 58.1471 156.553 58.4314 154.902 58.6588C153.309 58.8863 151.602 59 149.894 59C147.732 59 145.911 58.7157 144.431 58.2039C142.894 57.6922 141.699 56.8961 140.732 55.8157C139.764 54.7353 139.081 53.4275 138.626 51.7784C138.171 50.1863 138 48.2529 138 46.0922V43.1922C138 41.202 138.228 39.4392 138.626 37.7902C139.081 36.1412 139.821 34.7765 140.846 33.6392C141.87 32.502 143.236 31.5922 144.886 30.9667C146.537 30.3412 148.642 30 151.146 30C152.512 30 153.878 30.1137 155.187 30.3412C156.496 30.5686 157.577 30.8529 158.431 31.1373L157.463 35.6863C156.724 35.4588 155.87 35.2882 154.959 35.1176C154.049 35.0039 153.024 34.9471 151.829 34.9471Z" fill="#00B4F0"/>
<path d="M187 30V59H180.959V46.3455H171.041V59H165V30H171.041V41.1899H181.016V30H187Z" fill="#00B4F0"/>
<path d="M218 30L217.366 35.0384H207.597V41.0727H216.627L215.993 46.1111H207.597V59H202V30H218Z" fill="#00B4F0"/>
<path d="M229 59H223V30H229V59Z" fill="#00B4F0"/>
<path d="M233 30H242.404C244.842 30 246.873 30.3508 248.499 30.994C250.124 31.6371 251.401 32.5726 252.388 33.6835C253.375 34.8528 254.013 36.1976 254.42 37.8347C254.826 39.4718 255 41.2258 255 43.0968V45.8448C255 47.7742 254.826 49.5282 254.42 51.1653C254.013 52.8024 253.317 54.1472 252.388 55.3165C251.401 56.4859 250.124 57.3629 248.499 58.006C246.873 58.6492 244.842 59 242.404 59H233.058V30H233ZM239.095 53.9133H241.765C242.926 53.9133 243.913 53.7964 244.842 53.504C245.712 53.2117 246.467 52.744 247.047 52.1008C247.628 51.4577 248.034 50.5806 248.325 49.5282C248.615 48.4758 248.731 47.1311 248.731 45.494V43.3306C248.731 41.6935 248.615 40.3488 248.325 39.2964C248.034 38.2439 247.628 37.3669 247.047 36.7238C246.467 36.0806 245.77 35.6129 244.842 35.379C243.971 35.1452 242.926 34.9698 241.765 34.9698H239.095V53.9133Z" fill="#00B4F0"/>
<path d="M275.945 30L275.34 34.8528H264.832V41.1673H274.735L274.184 46.0202H264.887V54.1472H276L275.395 59H259V30H275.945Z" fill="#00B4F0"/>
<path d="M286.215 30V53.9616H298L297.296 59H280V30H286.215Z" fill="#00B4F0"/>
<path d="M307 59H302V30H307V59Z" fill="#00B4F0"/>
<path d="M334 30L333.307 35.0384H325.563V59H319.437V35.0384H311L311.693 30H334Z" fill="#00B4F0"/>
<path d="M347.617 41.3071L353.633 30H360L350.537 46.3455V59H344.346V46.3455L335 30H341.776L347.617 41.3071Z" fill="#00B4F0"/>
<path d="M42.1132 85C36.4528 85 30.9057 83.856 25.7547 81.6824C20.717 79.5659 16.2453 76.4771 12.3962 72.5875C8.54717 68.6978 5.49057 64.1218 3.39623 59.0882C1.13208 53.7685 -1.07963e-07 48.22 -1.07963e-07 42.4428C-1.07963e-07 36.7227 1.13208 31.1171 3.28302 25.9118C5.37736 20.821 8.43396 16.3022 12.283 12.4125C16.1321 8.52288 20.6604 5.43405 25.6415 3.31763C30.8491 1.08681 36.3396 1.09101e-07 42 1.09101e-07C47.6604 1.09101e-07 53.2076 1.14401 58.3585 3.31763C63.3962 5.43405 67.8679 8.52288 71.717 12.4125C75.566 16.3022 78.6227 20.8782 80.717 25.9118C82.9245 31.1743 84 36.7227 84 42.4428C84 48.1628 82.8679 53.7685 80.717 58.9737C78.6227 64.0646 75.566 68.5834 71.717 72.4731C67.8679 76.3627 63.3396 79.4515 58.3585 81.568C53.3208 83.856 47.7736 85 42.1132 85ZM42.1132 4.34724C21.3396 4.34724 4.41509 21.4502 4.41509 42.4428C4.41509 63.4354 21.3396 80.5384 42.1132 80.5384C62.8868 80.5384 79.8113 63.4354 79.8113 42.4428C79.8113 21.4502 62.8868 4.34724 42.1132 4.34724Z" fill="#00B4F0"/>
<path d="M54.8 60.7368V30.5158C56.6857 29.8789 58 28.0842 58 26C58 23.3947 55.8857 21.2526 53.3143 21.2526C50.7429 21.2526 48.6286 23.3947 48.6286 26C48.6286 28.0263 49.8286 29.7053 51.6 30.4579V44.5263L32.1714 35.379V24.2632C34.0571 23.6263 35.3714 21.8316 35.3714 19.7474C35.3714 17.1421 33.2571 15 30.6857 15C28.1143 15 26 17.1421 26 19.7474C26 21.7737 27.2 23.4526 28.9714 24.2053V54.6C27.2571 55.2947 26 57.0316 26 59.0579C26 61.6632 28.1143 63.8053 30.6857 63.8053C33.2571 63.8053 35.3714 61.6632 35.3714 59.0579C35.3714 56.9737 34.0571 55.1789 32.1714 54.5421V39.2L51.6 48.3474V60.7947C49.8857 61.4895 48.6286 63.2263 48.6286 65.2526C48.6286 67.8579 50.7429 70 53.3143 70C55.8857 70 58 67.8579 58 65.2526C58 63.1105 56.6857 61.3737 54.8 60.7368Z" fill="#00B4F0"/>
</svg>

