<svg id="Layer_1" data-name="Layer 1" xmlns="http://www.w3.org/2000/svg" viewBox="0 0 360 120.9"><defs><style>.cls-1{fill:#fff;}</style></defs><title>Artboard 1</title><polygon class="cls-1" points="28.69 60.97 28.69 81.59 10.31 81.59 10.31 60.97 0 60.97 0 108.64 10.31 108.64 10.31 89.81 28.69 89.81 28.69 108.64 39 108.64 39 60.97 28.69 60.97"/><path class="cls-1" d="M45,75.17h9.27v33.47H45Zm-.6-9.57a5.31,5.31,0,1,1,5.53,5.08h-.3a5,5,0,0,1-5.23-4.93V65.6"/><path class="cls-1" d="M96.84,61h9.26V80.55c1.65-3.29,5.38-6.13,10.91-6.13,6.58,0,11.21,4,11.21,12.85v21.22H119V88.62c0-4.49-1.79-6.73-5.82-6.73s-7,2.54-7,7.47v19.28H96.84Z"/><polygon class="cls-1" points="145.41 60.97 174.69 60.97 174.69 69.04 155.72 69.04 155.72 83.09 173.05 83.09 173.05 90.86 155.72 90.86 155.72 108.64 145.41 108.64 145.41 60.97"/><path class="cls-1" d="M178.88,75.17h9.26v33.47h-9.26Zm-.75-9.57a5.32,5.32,0,0,1,5.08-5.53,5.25,5.25,0,0,1,5.53,5.09,5.31,5.31,0,0,1-5.08,5.52h-.3a5,5,0,0,1-5.23-4.93V65.6"/><path class="cls-1" d="M216.84,92.05v-.44c0-6.73-3-10-8.07-10S200.7,85,200.7,91.76v.44c0,6.73,3.14,9.87,7.77,9.87,4.93,0,8.37-3.14,8.37-10m-25.56.3v-.44c0-11.06,6.28-17.49,14.65-17.49,5.38,0,8.67,2.39,10.61,5.68V61h9.26v47.67h-9.26v-5.53a12.19,12.19,0,0,1-10.76,6.28c-8.07,0-14.5-5.83-14.5-17"/><path class="cls-1" d="M82.94,91v-.45c0-5.68-3-9.12-8.07-9.12s-8.07,3.74-8.07,9.27v.45c0,5.53,3.29,9,7.92,9,4.78,0,8.22-3.43,8.22-9.11M57.53,109.39H66.8c.6,3,2.69,4.78,7.47,4.78,5.68,0,8.52-3,8.52-8.22v-5.08A12.69,12.69,0,0,1,72,107.15c-8.07,0-14.65-6.13-14.65-16v-.45c0-9.56,6.43-16.29,14.65-16.29,5.38,0,8.67,2.39,10.61,5.68V75.17h9.27V106c0,9.87-6.58,15-17.64,15s-15.69-4.64-16.74-11.51"/><path class="cls-1" d="M253.45,88.32c-.3-5.08-2.84-7.47-7.32-7.47-4.19,0-7,2.69-7.62,7.47Zm-24.51,4v-.44c0-10.61,7.47-17.34,17.19-17.34,8.66,0,16.29,5.08,16.29,17v2.54H238.36c.3,5.53,3.28,8.81,8.36,8.81,4.34,0,6.43-1.79,7-4.63h8.82c-1.05,7.17-6.88,11.21-16,11.21-10.32-.15-17.64-6.58-17.64-17.19"/><rect class="cls-1" x="265.85" y="60.97" width="9.27" height="47.67"/><path class="cls-1" d="M280.2,75.17h9.26v33.47H280.2Zm-.75-9.57A5.31,5.31,0,1,1,285,70.68h-.3a5,5,0,0,1-5.23-4.93V65.6"/><path class="cls-1" d="M294.25,98.63V67.85h9.26V75h7v6.57h-7V97.73c0,2.69,1.35,4,3.74,4a10,10,0,0,0,3.58-.6v7.17a18,18,0,0,1-5.67.9c-7.18-.15-10.91-3.74-10.91-10.61"/><polygon class="cls-1" points="338.03 75.02 330.56 95.19 322.49 75.02 312.48 75.02 325.78 105.06 319.95 119.85 328.92 119.85 347 75.02 338.03 75.02"/><path class="cls-1" d="M336.54,31.68,323.09,25.4V18.08a3.52,3.52,0,0,0,2.39-4.18,3.41,3.41,0,0,0-6.58,1.79,3.5,3.5,0,0,0,2.4,2.39V38.41A3.4,3.4,0,1,0,323.09,45a3.4,3.4,0,0,0,0-6.57V27.65l13.45,6.27v8.67a3.41,3.41,0,0,0,1.79,6.58A3.46,3.46,0,0,0,340.72,45a3.5,3.5,0,0,0-2.39-2.39V22.27a3.53,3.53,0,0,0,2.39-4.19,3.41,3.41,0,1,0-6.57,1.8,3.5,3.5,0,0,0,2.39,2.39Z"/><path class="cls-1" d="M329.81,1.94a28.25,28.25,0,1,0,28.25,28.25h0A28.33,28.33,0,0,0,329.81,1.94m0,58.58A30.26,30.26,0,1,1,360,30.19h0a30.33,30.33,0,0,1-30.19,30.33"/></svg>