<?xml version="1.0" encoding="utf-8"?>
<!-- Generator: Adobe Illustrator 19.2.0, SVG Export Plug-In . SVG Version: 6.00 Build 0)  -->
<svg version="1.1" xmlns="http://www.w3.org/2000/svg" xmlns:xlink="http://www.w3.org/1999/xlink" x="0px" y="0px"
	 viewBox="0 0 50 150" style="enable-background:new 0 0 50 150;" xml:space="preserve">
<style type="text/css">
	.st0{fill:#414042;}
	.st1{fill:#CCCCCC;}
	.st2{fill:#1398BB;}
	.st3{fill:#31D8FF;}
</style>
<g id="Layer_1">
	<path class="st0" d="M40.57,70.27c-0.07-0.41-0.29-0.77-0.62-1.01l-14.3-10.31l-10.95,7.62l-0.01,0l-0.01,0l-3.98,2.65
		c-0.34,0.23-0.58,0.58-0.66,0.98c-0.08,0.41,0,0.82,0.23,1.16c0.29,0.43,0.77,0.69,1.29,0.69c0.3,0,0.6-0.09,0.86-0.26l3.99-2.66
		l8.83-6.14l0.38-0.26l0.37,0.27l12.15,8.76c0.27,0.19,0.58,0.29,0.9,0.29c0.5,0,0.97-0.24,1.26-0.64
		C40.54,71.09,40.64,70.68,40.57,70.27z"/>
	<path class="st0" d="M23.02,81.42c0-1.5,1.29-2.71,2.8-2.71c1.5,0,2.8,1.24,2.8,2.74v8.07h10.11V77.57l-4.38-3.22l-8.61-6.24
		l-9.17,6.19l-4.3,2.8v12.42h10.76V81.42z"/>
	<path class="st1" d="M40.57,18.64c-0.07-0.41-0.29-0.77-0.62-1.01L25.65,7.33l-10.95,7.62l-0.01,0l-0.01,0l-3.98,2.65
		c-0.34,0.23-0.58,0.58-0.66,0.98c-0.08,0.41,0,0.82,0.23,1.16c0.29,0.43,0.77,0.69,1.29,0.69c0.3,0,0.6-0.09,0.86-0.26l3.99-2.66
		l8.83-6.14l0.38-0.26l0.37,0.27l12.15,8.76c0.27,0.19,0.58,0.29,0.9,0.29c0.5,0,0.97-0.24,1.26-0.64
		C40.54,19.46,40.64,19.05,40.57,18.64z"/>
	<path class="st1" d="M23.02,29.79c0-1.5,1.29-2.71,2.8-2.71c1.5,0,2.8,1.24,2.8,2.74v8.07h10.11V25.94l-4.38-3.22l-8.61-6.24
		l-9.17,6.19l-4.3,2.8V37.9h10.76V29.79z"/>
	<g>
		<path class="st2" d="M11.56,122.34c-0.71,0-1.41-0.34-1.83-0.98c-0.67-1.01-0.4-2.37,0.61-3.04l3.98-2.65l11.33-7.88l14.67,10.57
			c0.98,0.71,1.21,2.08,0.5,3.06c-0.71,0.98-2.08,1.21-3.06,0.5l-12.15-8.76l-8.83,6.14l-4,2.66
			C12.4,122.22,11.98,122.34,11.56,122.34z"/>
		<path class="st2" d="M39.04,122.45c-0.48,0-0.94-0.15-1.34-0.43l-12.09-8.71l-8.77,6.1l-4,2.66c-0.38,0.25-0.82,0.39-1.27,0.39
			c-0.77,0-1.49-0.38-1.92-1.03c-0.7-1.06-0.42-2.49,0.64-3.19l3.98-2.65l11.39-7.92l14.73,10.62c0.5,0.36,0.83,0.89,0.93,1.5
			c0.1,0.61-0.05,1.22-0.4,1.71c-0.36,0.5-0.89,0.83-1.5,0.93C39.29,122.44,39.16,122.45,39.04,122.45z M25.61,113.04l12.21,8.8
			c0.45,0.33,1,0.46,1.55,0.37c0.55-0.09,1.03-0.39,1.36-0.84c0.33-0.45,0.46-1,0.37-1.55c-0.09-0.55-0.39-1.03-0.84-1.36
			l-14.61-10.53l-11.27,7.84l-3.98,2.65c-0.96,0.64-1.22,1.93-0.58,2.89c0.39,0.58,1.04,0.93,1.74,0.93c0.41,0,0.81-0.12,1.15-0.35
			l4-2.66L25.61,113.04z"/>
	</g>
	<path class="st3" d="M40.39,118.28l-14.73-10.62l-11.39,7.92l-3.98,2.65c-1.06,0.7-1.34,2.13-0.64,3.19
		c0.43,0.64,1.14,1.03,1.92,1.03c0.45,0,0.89-0.13,1.27-0.39l4-2.66l8.77-6.1l12.09,8.71c0.39,0.28,0.86,0.43,1.34,0.43
		c0.74,0,1.44-0.36,1.87-0.96C41.65,120.47,41.42,119.02,40.39,118.28z M14.76,116.29l10.89-7.58l14.24,10.26
		c0.31,0.23,0.52,0.56,0.58,0.94c0.06,0.38-0.03,0.76-0.25,1.07c-0.27,0.37-0.71,0.6-1.17,0.6c-0.3,0-0.59-0.09-0.84-0.27
		l-12.58-9.07l-9.26,6.44l-3.99,2.66c-0.24,0.16-0.51,0.24-0.8,0.24c-0.48,0-0.93-0.24-1.2-0.64c-0.21-0.32-0.29-0.7-0.21-1.08
		c0.08-0.38,0.29-0.7,0.61-0.92L14.76,116.29z"/>
	<path class="st2" d="M23.02,131.04c0-1.5,1.29-2.71,2.8-2.71c1.5,0,2.8,1.24,2.8,2.74v8.07h10.11v-11.96l-4.38-3.22l-8.61-6.24
		l-9.17,6.19l-4.3,2.8v12.42h10.76V131.04z"/>
</g>
<g id="Layer_2">
</g>
</svg>
