<?xml version="1.0" encoding="utf-8"?>
<!-- Generator: Adobe Illustrator 19.2.0, SVG Export Plug-In . SVG Version: 6.00 Build 0)  -->
<svg version="1.1" xmlns="http://www.w3.org/2000/svg" xmlns:xlink="http://www.w3.org/1999/xlink" x="0px" y="0px"
	 viewBox="0 0 50 150" style="enable-background:new 0 0 50 150;" xml:space="preserve">
<style type="text/css">
	.st0{fill:#414042;}
	.st1{fill:#CCCCCC;}
	.st2{fill:#1398BB;}
	.st3{fill:#31D8FF;}
</style>
<g id="Layer_1">
	<g>
		<path class="st0" d="M36.75,71.26c-0.05-0.31-0.22-0.57-0.47-0.76l-10.72-7.73l-8.21,5.71l0,0l0,0l-2.98,1.99
			c-0.26,0.17-0.43,0.43-0.5,0.74c-0.06,0.3,0,0.61,0.17,0.87c0.22,0.32,0.58,0.52,0.97,0.52c0.23,0,0.45-0.07,0.64-0.19l2.99-1.99
			l6.62-4.61l0.28-0.2l0.28,0.2l9.11,6.57c0.2,0.14,0.43,0.22,0.68,0.22c0.37,0,0.73-0.18,0.94-0.48
			C36.73,71.88,36.8,71.57,36.75,71.26z"/>
		<path class="st0" d="M23.59,79.62c0-1.13,0.97-2.03,2.1-2.03c1.13,0,2.1,0.93,2.1,2.06v6.06h7.58v-8.97l-3.28-2.41l-6.46-4.68
			l-6.88,4.64l-3.23,2.1v9.32h8.07V79.62z"/>
	</g>
	<g>
		<path class="st1" d="M36.75,19.64c-0.05-0.31-0.22-0.57-0.47-0.76l-10.72-7.73l-8.21,5.71l0,0l0,0l-2.98,1.99
			c-0.26,0.17-0.43,0.43-0.5,0.74c-0.06,0.3,0,0.61,0.17,0.87c0.22,0.32,0.58,0.52,0.97,0.52c0.23,0,0.45-0.07,0.64-0.19l2.99-1.99
			l6.62-4.61l0.28-0.2l0.28,0.2l9.11,6.57c0.2,0.14,0.43,0.22,0.68,0.22c0.37,0,0.73-0.18,0.94-0.48
			C36.73,20.25,36.8,19.94,36.75,19.64z"/>
		<path class="st1" d="M23.59,27.99c0-1.13,0.97-2.03,2.1-2.03c1.13,0,2.1,0.93,2.1,2.06v6.06h7.58v-8.97l-3.28-2.41l-6.46-4.68
			l-6.88,4.64l-3.23,2.1v9.32h8.07V27.99z"/>
	</g>
	<g>
		<path class="st2" d="M15,122.61c-0.53,0-1.05-0.26-1.37-0.73c-0.5-0.76-0.3-1.78,0.46-2.28l2.98-1.99l8.5-5.91l11,7.93
			c0.74,0.53,0.9,1.56,0.37,2.3c-0.53,0.74-1.56,0.9-2.3,0.37l-9.11-6.57l-6.63,4.61l-3,1.99C15.63,122.52,15.31,122.61,15,122.61z"
			/>
		<path class="st2" d="M35.6,122.69c-0.36,0-0.71-0.11-1.01-0.33l-9.07-6.53l-6.58,4.58l-3,2c-0.28,0.19-0.61,0.29-0.95,0.29
			c-0.58,0-1.12-0.29-1.44-0.77c-0.53-0.79-0.31-1.87,0.48-2.39l2.98-1.99l8.54-5.94l11.05,7.96c0.37,0.27,0.62,0.67,0.69,1.12
			c0.07,0.46-0.03,0.91-0.3,1.29c-0.27,0.37-0.67,0.62-1.12,0.69C35.79,122.68,35.7,122.69,35.6,122.69z M25.53,115.63l9.16,6.6
			c0.34,0.24,0.75,0.34,1.17,0.28s0.77-0.29,1.02-0.63c0.24-0.34,0.34-0.75,0.28-1.17c-0.07-0.41-0.29-0.77-0.63-1.02l-10.96-7.9
			l-8.45,5.88l-2.98,1.99c-0.72,0.48-0.91,1.45-0.44,2.17c0.29,0.44,0.78,0.7,1.3,0.7c0.31,0,0.61-0.09,0.87-0.26l3-1.99
			L25.53,115.63z"/>
	</g>
	<path class="st3" d="M36.62,119.56l-11.05-7.96l-8.54,5.94l-2.98,1.99c-0.79,0.53-1.01,1.6-0.48,2.39
		c0.32,0.48,0.86,0.77,1.44,0.77c0.34,0,0.67-0.1,0.95-0.29l3-2l6.58-4.58l9.07,6.53c0.3,0.21,0.64,0.33,1.01,0.33
		c0.55,0,1.08-0.27,1.4-0.72C37.56,121.2,37.39,120.12,36.62,119.56z M17.39,118.07l8.17-5.68l10.68,7.7
		c0.23,0.17,0.39,0.42,0.43,0.7c0.05,0.28-0.02,0.57-0.19,0.8c-0.2,0.28-0.53,0.45-0.88,0.45c-0.23,0-0.45-0.07-0.63-0.2l-9.44-6.8
		l-6.95,4.83l-2.99,1.99c-0.18,0.12-0.38,0.18-0.6,0.18c-0.36,0-0.7-0.18-0.9-0.48c-0.16-0.24-0.22-0.53-0.16-0.81
		c0.06-0.28,0.22-0.53,0.46-0.69L17.39,118.07z"/>
	<path class="st2" d="M23.59,129.14c0-1.13,0.97-2.03,2.1-2.03c1.13,0,2.1,0.93,2.1,2.06v6.06h7.58v-8.97l-3.28-2.41l-6.46-4.68
		l-6.88,4.64l-3.23,2.1v9.32h8.07V129.14z"/>
</g>
<g id="Layer_2">
</g>
</svg>
