<?xml version="1.0" encoding="utf-8"?>
<!-- Generator: Adobe Illustrator 19.2.0, SVG Export Plug-In . SVG Version: 6.00 Build 0)  -->
<svg version="1.1" id="Layer_1" xmlns="http://www.w3.org/2000/svg" xmlns:xlink="http://www.w3.org/1999/xlink" x="0px" y="0px"
	 viewBox="0 0 32 64" style="enable-background:new 0 0 32 64;" xml:space="preserve">
<style type="text/css">
	.st0{fill:#168DB7;}
	.st1{fill:#FFFFFF;}
</style>
<path class="st0" d="M15.8,3.4C9.1,3.4,3.7,8.8,3.7,15.5s5.4,12.1,12.1,12.1s12.1-5.4,12.1-12.1S22.5,3.4,15.8,3.4z M15.8,26.6
	c-6.1,0-11.1-4.9-11.1-11.1S9.7,4.4,15.8,4.4c6.1,0.1,11.1,5,11.1,11.2C26.9,21.6,21.9,26.6,15.8,26.6z"/>
<g>
	<path class="st0" d="M16.3,19c-0.1,0.6,0.1,0.9,0.8,0.9h0.7L17.6,21c-0.6,0.3-1.1,0.3-1.5,0.3c-1,0-1.9-0.5-1.6-2l0.8-5.6
		c-0.4,0-0.7-0.1-1.1-0.1l0.1-1.3h2.9L16.3,19z M17.7,10c-0.1,0.5-0.5,0.8-1.1,0.8c-0.6,0-1-0.4-1-1c0.1-0.5,0.6-0.9,1.1-0.9
		C17.4,8.9,17.8,9.4,17.7,10z"/>
</g>
<path class="st0" d="M15.8,35.4c-6.7,0-12.1,5.4-12.1,12.1s5.4,12.1,12.1,12.1s12.1-5.4,12.1-12.1S22.5,35.4,15.8,35.4z"/>
<path class="st0" d="M15.8,58.2c-5.9,0-10.7-4.8-10.7-10.7s4.8-10.7,10.7-10.7c5.9,0.1,10.7,4.9,10.7,10.8
	C26.5,53.4,21.7,58.2,15.8,58.2z"/>
<g>
	<path class="st1" d="M16.3,51c-0.1,0.6,0.1,0.9,0.8,0.9h0.7L17.6,53c-0.6,0.3-1.1,0.3-1.5,0.3c-1,0-1.9-0.5-1.6-2l0.8-5.6
		c-0.4,0-0.7-0.1-1.1-0.1l0.1-1.3h2.9L16.3,51z M17.7,42c-0.1,0.5-0.5,0.8-1.1,0.8c-0.6,0-1-0.4-1-1c0.1-0.5,0.6-0.9,1.1-0.9
		C17.4,40.9,17.8,41.4,17.7,42z"/>
</g>
</svg>
