<?xml version="1.0" encoding="utf-8"?>
<!-- Generator: Adobe Illustrator 18.1.1, SVG Export Plug-In . SVG Version: 6.00 Build 0)  -->
<svg version="1.1" id="Layer_1" xmlns="http://www.w3.org/2000/svg" xmlns:xlink="http://www.w3.org/1999/xlink" x="0px" y="0px"
	 viewBox="0 0 261 261" enable-background="new 0 0 261 261" xml:space="preserve">
<g>
	<g>
		<circle fill="#149ABB" cx="130.5" cy="130.5" r="130.5"/>
	</g>
	<g>
		<path fill="#0C9AB2" d="M251,80.6c27.5,66.6-4.3,142.9-70.9,170.4S37.1,246.7,9.6,180"/>
	</g>
	<g opacity="0.21">
		<g>
			<path fill="#FFFFFF" d="M130.5,1.8c17.4,0,34.2,3.4,50.1,10.1c15.3,6.5,29.1,15.8,40.9,27.6s21.1,25.6,27.6,40.9
				c6.7,15.9,10.1,32.7,10.1,50.1s-3.4,34.2-10.1,50.1c-6.5,15.3-15.8,29.1-27.6,40.9c-11.8,11.8-25.6,21.1-40.9,27.6
				c-15.9,6.7-32.7,10.1-50.1,10.1s-34.2-3.4-50.1-10.1c-15.3-6.5-29.1-15.8-40.9-27.6c-11.8-11.8-21.1-25.6-27.6-40.9
				c-6.7-15.9-10.1-32.7-10.1-50.1s3.4-34.2,10.1-50.1c6.5-15.3,15.8-29.1,27.6-40.9s25.6-21.1,40.9-27.6
				C96.3,5.2,113.1,1.8,130.5,1.8 M130.5,0C58.4,0,0,58.4,0,130.5S58.4,261,130.5,261S261,202.6,261,130.5S202.6,0,130.5,0L130.5,0z
				"/>
		</g>
	</g>
	<rect x="100.8" y="65.2" fill="#FFFFFF" width="59.4" height="98"/>
	<rect x="3.4" y="169.4" fill="#FFFFFF" width="254.2" height="1.9"/>
	<rect x="3.4" y="176" fill="#FFFFFF" width="254.2" height="1.9"/>
	<rect x="3.4" y="184.7" fill="#FFFFFF" width="254.2" height="1.9"/>
	<rect x="3.4" y="197.9" fill="#FFFFFF" width="254.2" height="1.9"/>
	<path fill="#FFFFFF" d="M93.7,169.5l-14.7,75.8c0,0,47.4,23.4,101.2,0.5c33.3-14.2,51.5-41.5,51.5-41.5L154,170.2L93.7,169.5z"/>
	<path fill="#FFFFFF" d="M166,169.5l14.7,75.8c0,0-47.4,23.4-101.2,0.5c-33.3-14.2-51.5-41.5-51.5-41.5l77.5-34.1L166,169.5z"/>
	<rect x="85.8" y="184.7" fill="#149ABB" width="89.4" height="1.9"/>
	<rect x="98" y="176" fill="#149ABB" width="65.1" height="1.9"/>
	<rect x="56.4" y="197.9" fill="#149ABB" width="148.2" height="1.9"/>
	<rect x="51.4" y="219.4" fill="#149ABB" width="158.3" height="1.9"/>
</g>
</svg>
