<?xml version="1.0" encoding="UTF-8" standalone="no"?>
<svg
   version="1.1"
   id="Layer_1"
   x="0px"
   y="0px"
   width="100px"
   height="100px"
   viewBox="0 0 100 100"
   enable-background="new 0 0 100 100"
   xml:space="preserve"
   inkscape:version="1.1.1 (3bf5ae0d25, 2021-09-20, custom)"
   sodipodi:docname="lock.svg"
   xmlns:inkscape="http://www.inkscape.org/namespaces/inkscape"
   xmlns:sodipodi="http://sodipodi.sourceforge.net/DTD/sodipodi-0.dtd"
   xmlns="http://www.w3.org/2000/svg"
   xmlns:svg="http://www.w3.org/2000/svg"
   xmlns:rdf="http://www.w3.org/1999/02/22-rdf-syntax-ns#"
   xmlns:cc="http://creativecommons.org/ns#"
   xmlns:dc="http://purl.org/dc/elements/1.1/"><metadata
     id="metadata13"><rdf:RDF><cc:Work
         rdf:about=""><dc:format>image/svg+xml</dc:format><dc:type
           rdf:resource="http://purl.org/dc/dcmitype/StillImage" /></cc:Work></rdf:RDF></metadata><defs
     id="defs11" /><sodipodi:namedview
     pagecolor="#ffffff"
     bordercolor="#666666"
     borderopacity="1"
     objecttolerance="10"
     gridtolerance="10"
     guidetolerance="10"
     inkscape:pageopacity="0"
     inkscape:pageshadow="2"
     inkscape:window-width="1280"
     inkscape:window-height="969"
     id="namedview9"
     showgrid="false"
     inkscape:zoom="3.337544"
     inkscape:cx="19.325588"
     inkscape:cy="48.688497"
     inkscape:window-x="0"
     inkscape:window-y="24"
     inkscape:window-maximized="1"
     inkscape:current-layer="Layer_1"
     inkscape:pagecheckerboard="0" /><path
     stroke-miterlimit="10"
     d="m 70.932259,91.378387 h -42.84472 c -3.950284,0 -7.163638,-3.213354 -7.163638,-7.162414 V 58.223201 c 0,-3.949059 3.213354,-7.162413 7.163638,-7.162413 h 42.84472 c 3.950285,0 7.163639,3.213354 7.163639,7.162413 v 25.993997 c -0.0012,3.947835 -3.214579,7.161189 -7.163639,7.161189 z m 5.077712,-7.162414 c -50.673314,-56.143982 -25.336657,-28.071991 0,0 z"
     id="path3"
     inkscape:connector-curvature="0"
     style="fill:#808080;fill-opacity:1;fill-rule:nonzero;stroke:#808080;stroke-width:3;stroke-miterlimit:10;stroke-dasharray:none;stroke-opacity:1"
     sodipodi:nodetypes="ssssssscscc" /><path
     stroke-miterlimit="10"
     d="m 67.973525,52.236137 c -0.575343,0 -1.041738,-0.466395 -1.041738,-1.041738 l 0,-23.687698 c 0,-8.992495 -7.316654,-16.309149 -16.306701,-16.309149 h -2.230374 c -8.992495,0 -16.306701,7.316654 -16.306701,16.309149 l 0,23.687698 c 0,0.575343 -0.466395,1.041738 -1.041738,1.041738 -0.575343,0 -1.04174,-0.466395 -1.04174,-1.041738 l 0,-23.687698 c 0,-10.140733 8.248221,-18.391402 18.387731,-18.391402 h 2.230374 c 10.139509,0 18.38773,8.250669 18.38773,18.391402 l 0,23.687698 c 0.0037,0.575343 -0.462723,1.041738 -1.036843,1.041738 z"
     id="path7"
     inkscape:connector-curvature="0"
     style="fill:#808080;fill-opacity:1;stroke:#808080;stroke-width:8;stroke-miterlimit:10;stroke-dasharray:none;stroke-opacity:1;fill-rule:nonzero"
     sodipodi:nodetypes="ssssssssssssscs" /></svg>
