<?xml version="1.0" encoding="utf-8"?>
<!-- Generator: Adobe Illustrator 17.1.0, SVG Export Plug-In . SVG Version: 6.00 Build 0)  -->
<!DOCTYPE svg PUBLIC "-//W3C//DTD SVG 1.1//EN" "http://www.w3.org/Graphics/SVG/1.1/DTD/svg11.dtd">
<svg version="1.1" id="Layer_1" xmlns="http://www.w3.org/2000/svg" xmlns:xlink="http://www.w3.org/1999/xlink" x="0px" y="0px"
	 viewBox="0 0 23.6 22.3" enable-background="new 0 0 23.6 22.3" xml:space="preserve">
<g>
	<g id="Your_Icon_8_">
		<g>
			<polygon fill="#E7EEEE" points="6.8,7.8 0,7.8 0,14.1 6.8,14.1 6.8,19 14.4,11 6.8,3.1 			"/>
			<polygon fill="#E7EEEE" points="12.9,3.1 14.3,3.1 14.3,1.4 12.9,1.4 12.9,1.4 11.2,1.4 11.2,6.5 12.9,8.2 			"/>
			<polygon fill="#E7EEEE" points="12.9,13.7 11.2,15.5 11.2,20.7 14.3,20.7 14.3,19.1 12.9,19.1 			"/>
			<path fill="#E7EEEE" d="M15,0v22.3l8.5-2.4V2.4L15,0z M17.8,12.2h-0.3c-0.4,0-0.7-0.4-0.8-0.9h-0.3v-0.7h0.3
				c0.1-0.5,0.4-0.9,0.8-0.9h0.3c0.5,0,0.8,0.5,0.8,1.2C18.7,11.6,18.3,12.2,17.8,12.2z"/>
		</g>
	</g>
</g>
</svg>
