<?xml version="1.0" encoding="UTF-8" standalone="no"?>
<svg
   xmlns:dc="http://purl.org/dc/elements/1.1/"
   xmlns:cc="http://creativecommons.org/ns#"
   xmlns:rdf="http://www.w3.org/1999/02/22-rdf-syntax-ns#"
   xmlns:svg="http://www.w3.org/2000/svg"
   xmlns="http://www.w3.org/2000/svg"
   xmlns:sodipodi="http://sodipodi.sourceforge.net/DTD/sodipodi-0.dtd"
   xmlns:inkscape="http://www.inkscape.org/namespaces/inkscape"
   version="1.1"
   id="Layer_1"
   x="0px"
   y="0px"
   width="100px"
   height="100px"
   viewBox="0 0 100 100"
   enable-background="new 0 0 100 100"
   xml:space="preserve"
   inkscape:version="0.91 r13725"
   sodipodi:docname="login-password.svg"><metadata
     id="metadata13"><rdf:RDF><cc:Work
         rdf:about=""><dc:format>image/svg+xml</dc:format><dc:type
           rdf:resource="http://purl.org/dc/dcmitype/StillImage" /><dc:title /></cc:Work></rdf:RDF></metadata><defs
     id="defs11" /><sodipodi:namedview
     pagecolor="#ffffff"
     bordercolor="#666666"
     borderopacity="1"
     objecttolerance="10"
     gridtolerance="10"
     guidetolerance="10"
     inkscape:pageopacity="0"
     inkscape:pageshadow="2"
     inkscape:window-width="1017"
     inkscape:window-height="605"
     id="namedview9"
     showgrid="false"
     inkscape:zoom="2.36"
     inkscape:cx="-22.245763"
     inkscape:cy="50"
     inkscape:window-x="138"
     inkscape:window-y="109"
     inkscape:window-maximized="0"
     inkscape:current-layer="Layer_1" /><path
     stroke-miterlimit="10"
     d="m 70.932259,91.378387 -42.84472,0 c -3.950284,0 -7.163638,-3.213354 -7.163638,-7.162414 l 0,-37.131683 c 0,-3.949059 3.213354,-7.162413 7.163638,-7.162413 l 42.84472,0 c 3.950285,0 7.163639,3.213354 7.163639,7.162413 l 0,37.132908 c -0.0012,3.947835 -3.214579,7.161189 -7.163639,7.161189 z M 28.087539,42.00413 c -2.800821,0 -5.077712,2.278115 -5.077712,5.078936 l 0,37.132907 c 0,2.800821 2.276891,5.078936 5.077712,5.078936 l 42.84472,0 c 2.800822,0 5.077712,-2.278115 5.077712,-5.078936 l 0,-37.131683 c 0,-2.800821 -2.27689,-5.078936 -5.077712,-5.078936 l -42.84472,0 z"
     id="path3"
     inkscape:connector-curvature="0"
     style="stroke:#808080;stroke-width:1.5;stroke-miterlimit:10;stroke-dasharray:none;stroke-opacity:1;fill:#808080;fill-opacity:1" /><path
     stroke-miterlimit="10"
     d="m 53.812733,79.237417 -8.601995,0 c -1.695428,0 -3.075027,-1.377152 -3.075027,-3.073802 0,-0.09181 0.01224,-0.182397 0.0355,-0.271759 l 2.407874,-8.927616 c -2.105512,-1.555875 -3.340664,-3.983335 -3.340664,-6.632363 0,-4.559902 3.710353,-8.270254 8.271478,-8.270254 4.561127,0 8.269033,3.710352 8.269033,8.270254 0,2.649028 -1.235154,5.075264 -3.340665,6.631139 l 2.410321,8.92884 c 0.02448,0.08813 0.03551,0.178724 0.03551,0.271759 0.0012,1.69665 -1.378375,3.073802 -3.071353,3.073802 z m -9.587424,-2.959958 c 0.05753,0.493326 0.476188,0.877704 0.985429,0.877704 l 8.601995,0 c 0.506792,0 0.927895,-0.38193 0.985429,-0.877704 l -2.563339,-9.489494 c -0.121188,-0.449258 0.071,-0.924222 0.468844,-1.161704 1.87415,-1.133549 2.993011,-3.112975 2.993011,-5.291934 0,-3.411665 -2.775115,-6.189227 -6.186779,-6.189227 -3.412887,0 -6.189226,2.777562 -6.189226,6.189227 0,2.178959 1.11886,4.158385 2.99301,5.291934 0.397844,0.239931 0.587585,0.714895 0.468843,1.161704 l -2.557217,9.489494 z"
     id="path5"
     inkscape:connector-curvature="0"
     style="stroke:#808080;stroke-width:1.5;stroke-miterlimit:10;stroke-dasharray:none;stroke-opacity:1;fill:#808080;fill-opacity:1" /><path
     stroke-miterlimit="10"
     d="m 67.973525,36.897039 c -0.575343,0 -1.041738,-0.466395 -1.041738,-1.041738 l 0,-8.3486 c 0,-8.992495 -7.316654,-16.309149 -16.306701,-16.309149 l -2.230374,0 c -8.992495,0 -16.306701,7.316654 -16.306701,16.309149 l 0,8.3486 c 0,0.575343 -0.466395,1.041738 -1.041738,1.041738 -0.575343,0 -1.04174,-0.466395 -1.04174,-1.041738 l 0,-8.3486 c 0,-10.140733 8.248221,-18.391402 18.387731,-18.391402 l 2.230374,0 c 10.139509,0 18.38773,8.250669 18.38773,18.391402 l 0,8.3486 c 0.0037,0.575343 -0.462723,1.041738 -1.036843,1.041738 z"
     id="path7"
     inkscape:connector-curvature="0"
     style="stroke:#808080;stroke-width:1.5;stroke-miterlimit:10;stroke-dasharray:none;stroke-opacity:1;fill:#808080;fill-opacity:1" /></svg>