<?xml version="1.0" encoding="UTF-8" standalone="no"?>
<svg
   xmlns:dc="http://purl.org/dc/elements/1.1/"
   xmlns:cc="http://creativecommons.org/ns#"
   xmlns:rdf="http://www.w3.org/1999/02/22-rdf-syntax-ns#"
   xmlns:svg="http://www.w3.org/2000/svg"
   xmlns="http://www.w3.org/2000/svg"
   xmlns:sodipodi="http://sodipodi.sourceforge.net/DTD/sodipodi-0.dtd"
   xmlns:inkscape="http://www.inkscape.org/namespaces/inkscape"
   version="1.1"
   id="Your_Icon"
   x="0px"
   y="0px"
   width="100px"
   height="100px"
   viewBox="0 0 100 100"
   enable-background="new 0 0 100 100"
   xml:space="preserve"
   inkscape:version="0.91 r13725"
   sodipodi:docname="login-username.svg"><metadata
     id="metadata11"><rdf:RDF><cc:Work
         rdf:about=""><dc:format>image/svg+xml</dc:format><dc:type
           rdf:resource="http://purl.org/dc/dcmitype/StillImage" /></cc:Work></rdf:RDF></metadata><defs
     id="defs9" /><sodipodi:namedview
     pagecolor="#ffffff"
     bordercolor="#666666"
     borderopacity="1"
     objecttolerance="10"
     gridtolerance="10"
     guidetolerance="10"
     inkscape:pageopacity="0"
     inkscape:pageshadow="2"
     inkscape:window-width="1105"
     inkscape:window-height="796"
     id="namedview7"
     showgrid="false"
     inkscape:zoom="2.36"
     inkscape:cx="-40.889831"
     inkscape:cy="50"
     inkscape:window-x="685"
     inkscape:window-y="76"
     inkscape:window-maximized="0"
     inkscape:current-layer="Your_Icon" /><path
     d="m 49.245763,52.491929 c 19.609799,0 35.508071,15.898272 35.508071,35.508071 l 3.737691,0 c 0,-21.674874 -17.570888,-39.245763 -39.245762,-39.245763 C 27.570889,48.754237 10,66.325126 10,88 l 3.737692,0 c 0,-19.609799 15.897337,-35.508071 35.508071,-35.508071 z"
     id="path3"
     inkscape:connector-curvature="0"
     style="fill:#808080;fill-opacity:1" /><path
     d="m 49.245763,9.508475 c -11.869975,0 -21.491727,9.621752 -21.491727,21.491727 0,11.869974 9.621752,21.491727 21.491727,21.491727 11.869974,0 21.491727,-9.621753 21.491727,-21.491727 0,-11.869975 -9.621753,-21.491727 -21.491727,-21.491727 z m 0,39.245762 c -9.805834,0 -17.754036,-7.948201 -17.754036,-17.754035 0,-9.805834 7.948202,-17.754036 17.754036,-17.754036 9.805834,0 17.754035,7.948202 17.754035,17.754036 0,9.805834 -7.948201,17.754035 -17.754035,17.754035 z"
     id="path5"
     inkscape:connector-curvature="0"
     style="fill:#808080;fill-opacity:1" /></svg>