<?xml version="1.0" encoding="UTF-8" standalone="no"?>
<svg width="45px" height="45px" viewBox="0 0 45 45" version="1.1" xmlns="http://www.w3.org/2000/svg" xmlns:xlink="http://www.w3.org/1999/xlink" xmlns:sketch="http://www.bohemiancoding.com/sketch/ns">
    <title>Mic</title>
    <description>Created with Sketch (http://www.bohemiancoding.com/sketch)</description>
    <defs></defs>
    <g id="Page-1" stroke="none" stroke-width="1" fill="none" fill-rule="evenodd" sketch:type="MSPage">
        <g id="mic-tool" sketch:type="MSLayerGroup">
            <g id="Page-1" sketch:type="MSShapeGroup">
                <g id="Group">
                    <rect d="M0,0 L0,45 L45,45 L45,0 L0,0 Z M0,0" id="Rectangle-1" fill="#000000" x="0" y="0" width="45" height="45"></rect>
                    <g id="mic" transform="translate(3.000000, 2.000000)" fill="#CACACA">
                        <path d="M23.1863426,39.2982456 L27.9259259,39.2982456" id="Shape"></path>
                        <path d="M11.0740741,39.2982456 C12.6269271,36.6118421 15.3070486,34.8441118 18.2962963,34.4674781 L18.2962963,30.5769518 C12.8949016,29.9582346 8.66666667,25.3241886 8.66666667,19.6491228 L8.66666667,17.1929824 C8.66666667,16.5141667 9.20502316,15.9649123 9.87037034,15.9649123 C10.5357176,15.9649123 11.0740741,16.5141667 11.0740741,17.1929824 L11.0740741,19.6491228 C11.0740741,24.3887061 14.854456,28.2456141 19.5,28.2456141 C24.145544,28.2456141 27.9259259,24.3887061 27.9259259,19.6491228 L27.9259259,17.1929824 C27.9259259,16.5141667 28.4642824,15.9649123 29.1296297,15.9649123 C29.7949768,15.9649123 30.3333333,16.5141667 30.3333333,17.1929824 L30.3333333,19.6491228 C30.3333333,25.3241886 26.1062268,29.9582346 20.7037037,30.5770285 L20.7037037,34.4675548 C23.6941551,34.8441118 26.3742766,36.6118421 27.9259259,39.2982456 L23.1863426,39.2982456 C22.5586111,37.8207237 21.1386169,36.8589145 19.561088,36.8421053 C17.9858912,36.8252961 16.5447569,37.8351535 15.8888136,39.2982456 L11.0740741,39.2982456 L11.0740741,39.2982456 L11.0740741,39.2982456 L11.0740741,39.2982456 Z M11.0740741,39.2982456" id="Shape"></path>
                        <path d="M19.5,0 C16.1756713,0 13.4814815,2.74880483 13.4814815,6.14035088 L13.4814815,12.2807018 L13.4814815,19.6491228 C13.4814815,23.0407456 16.1757465,25.7894737 19.5,25.7894737 C22.8242535,25.7894737 25.5185185,23.0406689 25.5185185,19.6491228 L25.5185185,12.2807018 L25.5185185,6.14035088 C25.5185185,2.74880483 22.8243287,0 19.5,0 L19.5,0 L19.5,0 L19.5,0 L19.5,0 Z M15.8888889,12.4342105 L15.8888889,6.29385962 C15.8888889,4.26224781 17.5086979,2.60964912 19.5,2.60964912 C21.4913021,2.60964912 23.1111111,4.26224781 23.1111111,6.29385962 L23.1111111,12.4342105 L15.8888889,12.4342105 L15.8888889,12.4342105 L15.8888889,12.4342105 L15.8888889,12.4342105 Z M15.8888889,12.4342105" id="Shape"></path>
                    </g>
                </g>
            </g>
        </g>
    </g>
</svg>