<?xml version="1.0" encoding="UTF-8" standalone="no"?>
<!-- Generator: Adobe Illustrator 17.1.0, SVG Export Plug-In . SVG Version: 6.00 Build 0)  -->

<svg
   xmlns:sketch="http://www.bohemiancoding.com/sketch/ns"
   xmlns:dc="http://purl.org/dc/elements/1.1/"
   xmlns:cc="http://creativecommons.org/ns#"
   xmlns:rdf="http://www.w3.org/1999/02/22-rdf-syntax-ns#"
   xmlns:svg="http://www.w3.org/2000/svg"
   xmlns="http://www.w3.org/2000/svg"
   xmlns:sodipodi="http://sodipodi.sourceforge.net/DTD/sodipodi-0.dtd"
   xmlns:inkscape="http://www.inkscape.org/namespaces/inkscape"
   version="1.1"
   x="0px"
   y="0px"
   viewBox="0 0 45 45"
   enable-background="new 0 0 45 45"
   xml:space="preserve"
   id="svg2"
   inkscape:version="0.48.2 r9819"
   width="100%"
   height="100%"
   sodipodi:docname="mic-mute.svg"><metadata
   id="metadata27"><rdf:RDF><cc:Work
       rdf:about=""><dc:format>image/svg+xml</dc:format><dc:type
         rdf:resource="http://purl.org/dc/dcmitype/StillImage" /><dc:title></dc:title></cc:Work></rdf:RDF></metadata><defs
   id="defs25">
	

		
		
	</defs><sodipodi:namedview
   pagecolor="#ffffff"
   bordercolor="#666666"
   borderopacity="1"
   objecttolerance="10"
   gridtolerance="10"
   guidetolerance="10"
   inkscape:pageopacity="0"
   inkscape:pageshadow="2"
   inkscape:window-width="1280"
   inkscape:window-height="752"
   id="namedview23"
   showgrid="false"
   inkscape:zoom="11.866667"
   inkscape:cx="7.5842701"
   inkscape:cy="22.5"
   inkscape:window-x="0"
   inkscape:window-y="0"
   inkscape:window-maximized="1"
   inkscape:current-layer="svg2"
   showguides="true"
   inkscape:guide-bbox="true"><sodipodi:guide
     orientation="1,0"
     position="22.58427,21.994382"
     id="guide3004" /><sodipodi:guide
     orientation="0,1"
     position="1.9382022,22.41573"
     id="guide2997" /></sodipodi:namedview>
<path
   stroke-miterlimit="10"
   d="m 43.947144,22.500108 c 0,11.669958 -9.590615,21.342356 -21.499839,21.447491 -11.803834,0 -21.3944484,-9.567263 -21.3944484,-21.447491 0,-11.880228 9.5906144,-21.4474914 21.3944484,-21.4474914 11.803833,0 21.499839,9.6723984 21.499839,21.4474914 z"
   id="path6"
   inkscape:connector-curvature="0"
   style="fill:#ffffff;stroke:#000000;stroke-width:2.10525966000000020;stroke-miterlimit:10;fill-opacity:1" />
<g
   id="Layer_1"
   transform="translate(0.75280932,-0.01573)">
	<title
   id="title11">Mic</title>
	<description
   id="description13">Created with Sketch (http://www.bohemiancoding.com/sketch)</description>
	<g
   id="Page-1_2_"
   sketch:type="MSPage">
		<g
   id="mic-tool_1_"
   sketch:type="MSLayerGroup">
			<g
   id="Page-1_3_"
   sketch:type="MSShapeGroup">
				<g
   id="Group_1_">
					<g
   id="mic_1_"
   transform="translate(3,2)">
						<path
   id="Shape_1_"
   d="M 25.4,36.7"
   inkscape:connector-curvature="0" />
						<path
   id="Shape_4_"
   d="m 12,36.7 c 1.3,-2.2 3.5,-3.7 5.9,-4 V 29.5 C 13.5,29 10,25.2 10,20.5 v -2 c 0,-0.6 0.4,-1 1,-1 0.5,0 1,0.5 1,1 v 2 c 0,3.9 3.1,7.1 6.9,7.1 3.8,0 6.9,-3.2 6.9,-7.1 v -2 c 0,-0.6 0.4,-1 1,-1 0.5,0 1,0.5 1,1 v 2 c 0,4.7 -3.5,8.5 -7.9,9 v 3.2 c 2.5,0.3 4.7,1.8 5.9,4 H 22 c -0.5,-1.2 -1.7,-2 -3,-2 -1.3,0 -2.5,0.8 -3,2 h -4 l 0,0 0,0 0,0 z"
   inkscape:connector-curvature="0" />
						<path
   id="Shape_3_"
   d="m 18.9,4.5 c -2.7,0 -4.9,2.3 -4.9,5 v 5 6.1 c 0,2.8 2.2,5 4.9,5 2.7,0 4.9,-2.3 4.9,-5 v -6.1 -5 c 0.1,-2.8 -2.1,-5 -4.9,-5 l 0,0 0,0 0,0 0,0 z M 16,14.7 v -5 c 0,-1.7 1.3,-3 3,-3 1.6,0 3,1.4 3,3 v 5 h -6 l 0,0 0,0 0,0 z"
   inkscape:connector-curvature="0" />
					</g>
				</g>
			</g>
		</g>
	</g>
</g>
</svg>