<?xml version="1.0" encoding="utf-8"?>
<!-- Generator: Adobe Illustrator 19.2.0, SVG Export Plug-In . SVG Version: 6.00 Build 0)  -->
<svg version="1.1"
	 id="svg4136" inkscape:version="0.91 r13725" sodipodi:docname="address-bar.svg" xmlns:cc="http://creativecommons.org/ns#" xmlns:dc="http://purl.org/dc/elements/1.1/" xmlns:inkscape="http://www.inkscape.org/namespaces/inkscape" xmlns:rdf="http://www.w3.org/1999/02/22-rdf-syntax-ns#" xmlns:sodipodi="http://sodipodi.sourceforge.net/DTD/sodipodi-0.dtd" xmlns:svg="http://www.w3.org/2000/svg"
	 xmlns="http://www.w3.org/2000/svg" xmlns:xlink="http://www.w3.org/1999/xlink" x="0px" y="0px" viewBox="0 0 173.3 49"
	 style="enable-background:new 0 0 173.3 49;" xml:space="preserve">
<style type="text/css">
	.st0{fill:#1398BB;}
	.st1{fill:#FFFFFF;}
</style>
<path d="M151.7,46.2H22.7C12,46.2,3.3,37.5,3.3,26.8v-3C3.3,13.2,12,4.5,22.7,4.5h129.1c10.6,0,19.4,8.7,19.4,19.4v3
	C171.1,37.5,162.3,46.2,151.7,46.2z"/>
<path class="st0" d="M151.7,44.2H22.7C12,44.2,3.3,35.5,3.3,24.8v-3C3.3,11.2,12,2.5,22.7,2.5h129.1c10.6,0,19.4,8.7,19.4,19.4v3
	C171.1,35.5,162.3,44.2,151.7,44.2z"/>
<g>
	<path d="M20.4,23.9c0-1.3,0-2.5-0.1-3.5h2.5l0.1,1.7h0.1c0.6-0.9,1.6-2,3.6-2c1.5,0,2.7,0.9,3.2,2.2h0c0.4-0.6,0.9-1.1,1.4-1.5
		c0.6-0.5,1.4-0.7,2.4-0.7c1.9,0,3.9,1.3,3.9,5.1v6.9h-2.9v-6.5c0-1.9-0.7-3.1-2.1-3.1c-1,0-1.8,0.7-2.1,1.6c-0.1,0.3-0.1,0.6-0.1,1
		v7h-2.9v-6.8c0-1.6-0.6-2.8-2-2.8c-1.1,0-1.9,0.9-2.1,1.7c-0.1,0.3-0.2,0.6-0.2,1v6.9h-2.9V23.9z"/>
	<path d="M52,26.2c0,4.3-3,6.2-6,6.2c-3.3,0-5.9-2.3-5.9-6c0-3.8,2.5-6.2,6.1-6.2C49.6,20.2,52,22.6,52,26.2z M43.1,26.3
		c0,2.3,1.1,4,2.9,4c1.7,0,2.9-1.7,2.9-4c0-1.8-0.8-3.9-2.8-3.9C44,22.4,43.1,24.4,43.1,26.3z"/>
	<path d="M54.4,24.2c0-1.6,0-2.7-0.1-3.8h2.6l0.1,2.2h0.1c0.6-1.7,1.9-2.5,3.2-2.5c0.3,0,0.5,0,0.7,0.1v2.8c-0.2,0-0.5-0.1-0.9-0.1
		c-1.4,0-2.4,0.9-2.6,2.2c0,0.3-0.1,0.6-0.1,0.9v6.1h-3V24.2z"/>
	<path d="M64.8,27.1c0.1,2.1,1.7,3,3.6,3c1.4,0,2.4-0.2,3.2-0.5l0.4,2c-1,0.4-2.4,0.7-4.1,0.7c-3.8,0-6-2.3-6-5.9
		c0-3.2,2-6.3,5.7-6.3c3.8,0,5,3.1,5,5.7c0,0.6,0,1-0.1,1.2H64.8z M70,25.1c0-1.1-0.5-2.9-2.4-2.9c-1.8,0-2.6,1.7-2.7,2.9H70z"/>
	<path d="M83.3,17.2c0,0.9-0.6,1.6-1.7,1.6c-1,0-1.6-0.7-1.6-1.6c0-0.9,0.7-1.6,1.7-1.6C82.6,15.6,83.2,16.3,83.3,17.2z M80.1,32.2
		V20.5h3v11.7H80.1z"/>
	<path d="M86.3,23.9c0-1.3,0-2.5-0.1-3.5h2.6l0.1,1.8H89c0.5-0.9,1.8-2,3.7-2c2,0,4.2,1.3,4.2,5v6.9h-3v-6.6c0-1.7-0.6-3-2.2-3
		c-1.2,0-2,0.8-2.3,1.7c-0.1,0.3-0.1,0.6-0.1,1v6.9h-3V23.9z"/>
	<path d="M100.3,32.2v-9.5h-1.6v-2.2h1.6V20c0-1.5,0.4-3,1.4-4c0.9-0.8,2-1.1,3.1-1.1c0.8,0,1.4,0.1,1.9,0.3l-0.2,2.3
		c-0.3-0.1-0.7-0.2-1.2-0.2c-1.5,0-2,1.2-2,2.7v0.6h2.6v2.2h-2.5v9.5H100.3z"/>
	<path d="M118.5,26.2c0,4.3-3,6.2-6,6.2c-3.3,0-5.9-2.3-5.9-6c0-3.8,2.5-6.2,6.1-6.2C116.2,20.2,118.5,22.6,118.5,26.2z M109.7,26.3
		c0,2.3,1.1,4,2.9,4c1.7,0,2.9-1.7,2.9-4c0-1.8-0.8-3.9-2.8-3.9C110.6,22.4,109.7,24.4,109.7,26.3z"/>
</g>
<g>
	<path class="st1" d="M20.4,22.1c0-1.3,0-2.5-0.1-3.5h2.5l0.1,1.7h0.1c0.6-0.9,1.6-2,3.6-2c1.5,0,2.7,0.9,3.2,2.2h0
		c0.4-0.6,0.9-1.1,1.4-1.5c0.6-0.5,1.4-0.7,2.4-0.7c1.9,0,3.9,1.3,3.9,5.1v6.9h-2.9v-6.5c0-1.9-0.7-3.1-2.1-3.1
		c-1,0-1.8,0.7-2.1,1.6c-0.1,0.3-0.1,0.6-0.1,1v7h-2.9v-6.8c0-1.6-0.6-2.8-2-2.8c-1.1,0-1.9,0.9-2.1,1.7c-0.1,0.3-0.2,0.6-0.2,1v6.9
		h-2.9V22.1z"/>
	<path class="st1" d="M52,24.4c0,4.3-3,6.2-6,6.2c-3.3,0-5.9-2.3-5.9-6c0-3.8,2.5-6.2,6.1-6.2C49.6,18.3,52,20.8,52,24.4z
		 M43.1,24.5c0,2.3,1.1,4,2.9,4c1.7,0,2.9-1.7,2.9-4c0-1.8-0.8-3.9-2.8-3.9C44,20.5,43.1,22.5,43.1,24.5z"/>
	<path class="st1" d="M54.4,22.4c0-1.6,0-2.7-0.1-3.8h2.6l0.1,2.2h0.1c0.6-1.7,1.9-2.5,3.2-2.5c0.3,0,0.5,0,0.7,0.1v2.8
		c-0.2,0-0.5-0.1-0.9-0.1c-1.4,0-2.4,0.9-2.6,2.2c0,0.3-0.1,0.6-0.1,0.9v6.1h-3V22.4z"/>
	<path class="st1" d="M64.8,25.3c0.1,2.1,1.7,3,3.6,3c1.4,0,2.4-0.2,3.2-0.5l0.4,2c-1,0.4-2.4,0.7-4.1,0.7c-3.8,0-6-2.3-6-5.9
		c0-3.2,2-6.3,5.7-6.3c3.8,0,5,3.1,5,5.7c0,0.6,0,1-0.1,1.2H64.8z M70,23.2c0-1.1-0.5-2.9-2.4-2.9c-1.8,0-2.6,1.7-2.7,2.9H70z"/>
	<path class="st1" d="M83.3,15.3c0,0.9-0.6,1.6-1.7,1.6c-1,0-1.6-0.7-1.6-1.6c0-0.9,0.7-1.6,1.7-1.6C82.6,13.7,83.2,14.4,83.3,15.3z
		 M80.1,30.3V18.6h3v11.7H80.1z"/>
	<path class="st1" d="M86.3,22.1c0-1.3,0-2.5-0.1-3.5h2.6l0.1,1.8H89c0.5-0.9,1.8-2,3.7-2c2,0,4.2,1.3,4.2,5v6.9h-3v-6.6
		c0-1.7-0.6-3-2.2-3c-1.2,0-2,0.8-2.3,1.7c-0.1,0.3-0.1,0.6-0.1,1v6.9h-3V22.1z"/>
	<path class="st1" d="M100.3,30.3v-9.5h-1.6v-2.2h1.6v-0.5c0-1.5,0.4-3,1.4-4c0.9-0.8,2-1.1,3.1-1.1c0.8,0,1.4,0.1,1.9,0.3l-0.2,2.3
		c-0.3-0.1-0.7-0.2-1.2-0.2c-1.5,0-2,1.2-2,2.7v0.6h2.6v2.2h-2.5v9.5H100.3z"/>
	<path class="st1" d="M118.5,24.4c0,4.3-3,6.2-6,6.2c-3.3,0-5.9-2.3-5.9-6c0-3.8,2.5-6.2,6.1-6.2C116.2,18.3,118.5,20.8,118.5,24.4z
		 M109.7,24.5c0,2.3,1.1,4,2.9,4c1.7,0,2.9-1.7,2.9-4c0-1.8-0.8-3.9-2.8-3.9C110.6,20.5,109.7,22.5,109.7,24.5z"/>
</g>
<g>
	<g>
		<path d="M148.8,29.2c-0.1,0.9,0.1,1.3,1.1,1.3h1l-0.3,2c-1.1,0.5-1.8,0.5-2.5,0.5c-1.4,0-3-0.7-2.6-3.2l1.2-7.7
			c-0.5,0-1-0.2-1.5-0.2l0.3-2.3h4.9L148.8,29.2z M150.9,16.3c-0.2,1-1,1.6-2,1.6c-1.1,0-1.9-0.8-1.8-1.9c0.2-1,1-1.6,2-1.6
			C150.3,14.3,151.1,15.1,150.9,16.3z"/>
	</g>
	<g>
		<path d="M158.2,13.9L158.2,13.9c-2.7-2.7-6.2-4.2-10-4.2c-3.9,0-7.4,1.4-10.1,4.2c-2.7,2.7-4.2,6.2-4.2,10c0,3.9,1.5,7.4,4.2,10
			c2.7,2.7,6.2,4.2,10,4.2c3.9,0,7.4-1.5,10-4.2c2.7-2.7,4.2-6.2,4.2-10C162.3,20.3,160.9,16.7,158.2,13.9z M160.3,24
			c0,3.3-1.3,6.4-3.6,8.6l0,0c-2.3,2.3-5.4,3.6-8.6,3.6c-3.2,0-6.3-1.3-8.6-3.6c-2.3-2.3-3.6-5.4-3.6-8.6s1.3-6.3,3.6-8.6
			c2.3-2.3,5.4-3.6,8.6-3.6c3.2,0,6.3,1.3,8.6,3.6C159,17.7,160.3,20.7,160.3,24z"/>
		<path d="M148.1,38.4c-3.8,0-7.5-1.5-10.2-4.2c-2.7-2.6-4.2-6.3-4.2-10.2c0-3.8,1.5-7.5,4.2-10.2c2.8-2.8,6.3-4.2,10.3-4.2
			c3.9,0,7.5,1.5,10.2,4.2l0,0c2.8,2.8,4.2,6.5,4.1,10.2c0,3.8-1.5,7.5-4.2,10.2C155.6,36.9,152,38.4,148.1,38.4z M148.2,10
			c-3.8,0-7.3,1.4-9.9,4.1c-2.6,2.6-4.1,6.1-4.1,9.8c0,3.8,1.4,7.3,4.1,9.8c2.6,2.6,6.1,4.1,9.8,4.1c3.8,0,7.3-1.4,9.8-4.1
			c2.6-2.6,4.1-6.1,4.1-9.8c0.1-3.6-1.3-7.1-4-9.8C155.4,11.5,151.9,10,148.2,10z M148.1,36.4c-3.3,0-6.4-1.3-8.8-3.7
			c-2.4-2.4-3.7-5.5-3.7-8.8c0-3.3,1.3-6.4,3.7-8.8c2.4-2.4,5.5-3.7,8.8-3.7c3.3,0,6.4,1.3,8.8,3.7c2.4,2.4,3.7,5.5,3.7,8.8
			c0,3.4-1.3,6.5-3.7,8.8C154.5,35.1,151.4,36.4,148.1,36.4z M148.1,12c-3.2,0-6.2,1.3-8.4,3.5c-2.3,2.3-3.5,5.3-3.5,8.4
			s1.2,6.2,3.5,8.4c2.3,2.3,5.3,3.5,8.4,3.5c3.2,0,6.2-1.3,8.4-3.5c2.3-2.2,3.5-5.2,3.5-8.4c0-3.2-1.2-6.2-3.5-8.4
			S151.3,12,148.1,12z"/>
	</g>
</g>
<g>
	<g>
		<path class="st1" d="M148.8,27.7c-0.1,0.9,0.1,1.3,1.1,1.3h1l-0.3,2c-1.1,0.5-1.8,0.5-2.5,0.5c-1.4,0-3-0.7-2.6-3.2l1.2-7.7
			c-0.5,0-1-0.2-1.5-0.2l0.3-2.3h4.9L148.8,27.7z M150.9,14.8c-0.2,1-1,1.6-2,1.6c-1.1,0-1.9-0.8-1.8-1.9c0.2-1,1-1.6,2-1.6
			C150.3,12.9,151.1,13.6,150.9,14.8z"/>
	</g>
	<g>
		<path class="st1" d="M158.2,12.5L158.2,12.5c-2.7-2.7-6.2-4.2-10-4.2c-3.9,0-7.4,1.4-10.1,4.2c-2.7,2.7-4.2,6.2-4.2,10
			c0,3.9,1.5,7.4,4.2,10c2.7,2.7,6.2,4.2,10,4.2c3.9,0,7.4-1.5,10-4.2c2.7-2.7,4.2-6.2,4.2-10C162.3,18.8,160.9,15.3,158.2,12.5z
			 M160.3,22.5c0,3.3-1.3,6.4-3.6,8.6l0,0c-2.3,2.3-5.4,3.6-8.6,3.6c-3.2,0-6.3-1.3-8.6-3.6c-2.3-2.3-3.6-5.4-3.6-8.6
			s1.3-6.3,3.6-8.6c2.3-2.3,5.4-3.6,8.6-3.6c3.2,0,6.3,1.3,8.6,3.6C159,16.2,160.3,19.2,160.3,22.5z"/>
		<path class="st1" d="M148.1,36.9c-3.8,0-7.5-1.5-10.2-4.2c-2.7-2.6-4.2-6.3-4.2-10.2c0-3.9,1.5-7.5,4.2-10.2
			c2.8-2.8,6.3-4.2,10.3-4.2c3.9,0,7.5,1.5,10.2,4.2l0,0c2.8,2.8,4.2,6.5,4.1,10.2c0,3.8-1.5,7.5-4.2,10.2
			C155.6,35.4,152,36.9,148.1,36.9z M148.2,8.6c-3.8,0-7.3,1.4-9.9,4.1c-2.6,2.6-4.1,6.1-4.1,9.8c0,3.8,1.4,7.3,4.1,9.8
			c2.6,2.6,6.1,4.1,9.8,4.1c3.8,0,7.3-1.4,9.8-4.1c2.6-2.6,4.1-6.1,4.1-9.8c0.1-3.6-1.3-7.1-4-9.8C155.4,10,151.9,8.6,148.2,8.6z
			 M148.1,35c-3.3,0-6.4-1.3-8.8-3.7c-2.4-2.4-3.7-5.5-3.7-8.8s1.3-6.4,3.7-8.8c2.4-2.4,5.5-3.7,8.8-3.7c3.3,0,6.4,1.3,8.8,3.7
			c2.4,2.4,3.7,5.5,3.7,8.8c0,3.4-1.3,6.5-3.7,8.8C154.5,33.7,151.4,35,148.1,35z M148.1,10.5c-3.2,0-6.2,1.3-8.4,3.5
			c-2.3,2.3-3.5,5.3-3.5,8.4c0,3.2,1.2,6.2,3.5,8.4c2.3,2.3,5.3,3.5,8.4,3.5c3.2,0,6.2-1.3,8.4-3.5c2.3-2.2,3.5-5.2,3.5-8.4
			c0-3.2-1.2-6.2-3.5-8.4S151.3,10.5,148.1,10.5z"/>
	</g>
</g>
</svg>
