<?xml version="1.0" encoding="utf-8"?>
<!-- Generator: Adobe Illustrator 19.2.0, SVG Export Plug-In . SVG Version: 6.00 Build 0)  -->
<svg version="1.1" xmlns="http://www.w3.org/2000/svg" xmlns:xlink="http://www.w3.org/1999/xlink" x="0px" y="0px"
	 viewBox="0 0 50 150" style="enable-background:new 0 0 50 150;" xml:space="preserve">
<style type="text/css">
	.st0{fill:#414042;}
	.st1{fill:#CCCCCC;}
	.st2{fill:#1398BB;}
	.st3{fill:#31D8FF;}
</style>
<g id="Layer_1">
	<path class="st0" d="M25.87,55.25c-6.44,0-11.67,5.22-11.67,11.67c0,6.44,11.67,22,11.67,22s11.67-15.55,11.67-22
		C37.54,60.47,32.32,55.25,25.87,55.25z M25.87,72.08c-3.31,0-6-2.68-6-6c0-3.31,2.68-6,6-6s6,2.68,6,6
		C31.87,69.4,29.18,72.08,25.87,72.08z"/>
	<path class="st0" d="M40.17,90.17H10.64c-0.66,0-1.19,0.52-1.19,1.18s0.54,1.18,1.19,1.18h29.53c0.66,0,1.19-0.52,1.19-1.18
		S40.83,90.17,40.17,90.17z"/>
	<path class="st1" d="M25.87,3.62c-6.44,0-11.67,5.22-11.67,11.67c0,6.44,11.67,22,11.67,22s11.67-15.55,11.67-22
		C37.54,8.84,32.32,3.62,25.87,3.62z M25.87,20.45c-3.31,0-6-2.68-6-6c0-3.31,2.68-6,6-6s6,2.68,6,6
		C31.87,17.77,29.18,20.45,25.87,20.45z"/>
	<path class="st1" d="M40.17,38.54H10.64c-0.66,0-1.19,0.52-1.19,1.18s0.54,1.18,1.19,1.18h29.53c0.66,0,1.19-0.52,1.19-1.18
		S40.83,38.54,40.17,38.54z"/>
	<path class="st2" d="M25.87,104.88c-6.44,0-11.67,5.22-11.67,11.67c0,6.44,11.67,22,11.67,22s11.67-15.55,11.67-22
		C37.54,110.1,32.32,104.88,25.87,104.88z M25.87,121.71c-3.31,0-6-2.68-6-6c0-3.31,2.68-6,6-6s6,2.68,6,6
		C31.87,119.03,29.18,121.71,25.87,121.71z"/>
	<path class="st2" d="M40.17,143.11H10.64c-1.13,0-2.05-0.92-2.05-2.05S9.5,139,10.64,139h29.53c1.13,0,2.05,0.92,2.05,2.05
		S41.3,143.11,40.17,143.11z"/>
	<path class="st3" d="M40.17,139.86c0.66,0,1.19,0.54,1.19,1.19c0,0.66-0.54,1.19-1.19,1.19H10.64c-0.66,0-1.19-0.54-1.19-1.19
		c0-0.66,0.54-1.19,1.19-1.19H40.17 M40.17,139H10.64c-1.13,0-2.05,0.92-2.05,2.05s0.92,2.05,2.05,2.05h29.53
		c1.13,0,2.05-0.92,2.05-2.05S41.3,139,40.17,139L40.17,139z"/>
</g>
<g id="Layer_2">
</g>
</svg>
