<?xml version="1.0" encoding="utf-8"?>
<!-- Generator: Adobe Illustrator 19.2.0, SVG Export Plug-In . SVG Version: 6.00 Build 0)  -->
<svg version="1.1" xmlns="http://www.w3.org/2000/svg" xmlns:xlink="http://www.w3.org/1999/xlink" x="0px" y="0px"
	 viewBox="0 0 50 150" style="enable-background:new 0 0 50 150;" xml:space="preserve">
<style type="text/css">
	.st0{fill:#414042;}
	.st1{fill:#CCCCCC;}
	.st2{fill:#1398BB;}
	.st3{fill:#31D8FF;}
</style>
<g id="Layer_1">
	<path class="st0" d="M25.71,59.91c-4.83,0-8.75,3.92-8.75,8.75c0,4.83,8.75,16.5,8.75,16.5s8.75-11.67,8.75-16.5
		C34.46,63.83,30.54,59.91,25.71,59.91z M25.71,72.53c-2.48,0-4.5-2.01-4.5-4.5c0-2.48,2.01-4.5,4.5-4.5s4.5,2.01,4.5,4.5
		C30.2,70.52,28.19,72.53,25.71,72.53z"/>
	<path class="st0" d="M36.43,86.1H14.28c-0.49,0-0.9,0.39-0.9,0.89c0,0.49,0.4,0.89,0.9,0.89h22.15c0.49,0,0.9-0.39,0.9-0.89
		C37.32,86.49,36.92,86.1,36.43,86.1z"/>
	<path class="st1" d="M25.71,8.28c-4.83,0-8.75,3.92-8.75,8.75c0,4.83,8.75,16.5,8.75,16.5s8.75-11.67,8.75-16.5
		C34.46,12.2,30.54,8.28,25.71,8.28z M25.71,20.91c-2.48,0-4.5-2.01-4.5-4.5c0-2.48,2.01-4.5,4.5-4.5s4.5,2.01,4.5,4.5
		C30.2,18.89,28.19,20.91,25.71,20.91z"/>
	<path class="st1" d="M36.43,34.47H14.28c-0.49,0-0.9,0.39-0.9,0.89s0.4,0.89,0.9,0.89h22.15c0.49,0,0.9-0.39,0.9-0.89
		S36.92,34.47,36.43,34.47z"/>
	<path class="st2" d="M25.71,109.66c-4.83,0-8.75,3.92-8.75,8.75c0,4.83,8.75,16.5,8.75,16.5s8.75-11.67,8.75-16.5
		C34.46,113.57,30.54,109.66,25.71,109.66z M25.71,122.28c-2.48,0-4.5-2.01-4.5-4.5c0-2.48,2.01-4.5,4.5-4.5s4.5,2.01,4.5,4.5
		C30.2,120.27,28.19,122.28,25.71,122.28z"/>
	<path class="st2" d="M36.43,138.33H14.28c-0.85,0-1.54-0.69-1.54-1.54s0.69-1.54,1.54-1.54h22.15c0.85,0,1.54,0.69,1.54,1.54
		S37.28,138.33,36.43,138.33z"/>
	<path class="st3" d="M36.43,135.89c0.49,0,0.9,0.4,0.9,0.9c0,0.49-0.4,0.9-0.9,0.9H14.28c-0.49,0-0.9-0.4-0.9-0.9
		c0-0.49,0.4-0.9,0.9-0.9H36.43 M36.43,135.25H14.28c-0.85,0-1.54,0.69-1.54,1.54c0,0.85,0.69,1.54,1.54,1.54h22.15
		c0.85,0,1.54-0.69,1.54-1.54C37.97,135.94,37.28,135.25,36.43,135.25L36.43,135.25z"/>
</g>
<g id="Layer_2">
</g>
</svg>
