<?xml version="1.0" encoding="UTF-8" standalone="no"?>
<svg
   xmlns:dc="http://purl.org/dc/elements/1.1/"
   xmlns:cc="http://creativecommons.org/ns#"
   xmlns:rdf="http://www.w3.org/1999/02/22-rdf-syntax-ns#"
   xmlns:svg="http://www.w3.org/2000/svg"
   xmlns="http://www.w3.org/2000/svg"
   xmlns:xlink="http://www.w3.org/1999/xlink"
   version="1.1"
   viewBox="0 0 360 120.9"
   data-name="Layer 1"
   id="Layer_1">
  <metadata
     id="metadata5178">
    <rdf:RDF>
      <cc:Work
         rdf:about="">
        <dc:format>image/svg+xml</dc:format>
        <dc:type
           rdf:resource="http://purl.org/dc/dcmitype/StillImage" />
        <dc:title>Artboard 1</dc:title>
      </cc:Work>
    </rdf:RDF>
  </metadata>
  <defs
     id="defs5143">
    <style
       id="style5141">.cls-1{fill:#fff;}</style>
    <linearGradient
       gradientUnits="userSpaceOnUse"
       y2="201.98439"
       x2="188.125"
       y1="74.484383"
       x1="52.476562"
       id="linearGradient7736"
       xlink:href="#linearGradient7734"
       gradientTransform="matrix(0.36497785,0,0,0.36497785,267.61793,-6.286912)" />
    <linearGradient
       id="linearGradient7734">
      <stop
         id="stop7730"
         offset="0"
         style="stop-color:#ff0000;stop-opacity:1" />
      <stop
         style="stop-color:#ffff00;stop-opacity:1"
         offset="0.39864159"
         id="stop7738" />
      <stop
         id="stop7740"
         offset="0.54261029"
         style="stop-color:#ccff00;stop-opacity:1" />
      <stop
         style="stop-color:#00ffff;stop-opacity:1"
         offset="0.71236038"
         id="stop7742" />
      <stop
         id="stop7744"
         offset="0.99037486"
         style="stop-color:#ff00ff;stop-opacity:1" />
      <stop
         id="stop7732"
         offset="1"
         style="stop-color:#0000ff;stop-opacity:1" />
    </linearGradient>
    <filter
       height="1.2171938"
       y="-0.10859691"
       width="1.1880955"
       x="-0.09404768"
       id="filter7597"
       style="color-interpolation-filters:sRGB">
      <feGaussianBlur
         id="feGaussianBlur7599"
         stdDeviation="4.2634807" />
    </filter>
  </defs>
  <title
     id="title5145">Artboard 1</title>
  <g
     id="text4562"
     style="font-style:normal;font-weight:normal;font-size:40px;line-height:1.25;font-family:sans-serif;letter-spacing:0px;word-spacing:0px;display:inline;fill:#ffffff;fill-opacity:1;stroke:none;stroke-opacity:1"
     aria-label="Project Athena">
    <path
       id="path5741"
       style="font-style:normal;font-variant:normal;font-weight:normal;font-stretch:normal;font-size:48px;font-family:OpineHeavy;-inkscape-font-specification:OpineHeavy;fill:#ffffff;fill-opacity:1;stroke:none;stroke-opacity:1"
       d="M 0.3661321,106.82553 V 72.265531 H 17.406132 q 4.944,0 8.208,2.592 3.264,2.592 4.224,7.296 0.336,1.632 0.336,3.312 0,5.136 -3.12,8.304 -3.072,3.12 -7.92,3.12 h -6 v 9.935999 z M 15.198132,88.057531 q 2.592,0 3.024,-2.112 0.144,-0.72 0.144,-1.296 0,-1.872 -1.488,-2.496 -0.24,-0.096 -0.624,-0.144 -0.384,-0.048 -1.296,-0.048 h -1.824 v 6.096 z" />
    <path
       id="path5743"
       style="font-style:normal;font-variant:normal;font-weight:normal;font-stretch:normal;font-size:48px;font-family:OpineHeavy;-inkscape-font-specification:OpineHeavy;fill:#ffffff;fill-opacity:1;stroke:none;stroke-opacity:1"
       d="M 32.428632,106.82553 V 88.009531 l 11.04,-6.624 v 3.792 l 0.576,-0.528 q 2.832,-2.592 6.768,-2.592 0.528,0 0.912,0 0.384,0 1.008,0.144 0.624,0.144 1.056,0.24 0.48,0.096 1.296,0.432 l -3.696,11.136 q -0.288,-0.288 -0.816,-0.624 -0.528,-0.336 -1.104,-0.528 -0.528,-0.24 -1.344,-0.24 -1.488,0 -2.544,0.912 -1.008,0.864 -1.2,2.064 -0.192,1.152 -0.192,2.496 v 8.735999 z" />
    <path
       id="path5745"
       style="font-style:normal;font-variant:normal;font-weight:normal;font-stretch:normal;font-size:48px;font-family:OpineHeavy;-inkscape-font-specification:OpineHeavy;fill:#ffffff;fill-opacity:1;stroke:none;stroke-opacity:1"
       d="m 54.405132,94.825531 q 0,-5.424 3.888,-9.264 3.936,-3.888 9.504,-3.888 2.736,0 5.184,1.056 3.84,1.584 6,4.944 2.16,3.36 2.16,7.248 0,2.496 -0.96,4.848 -0.912,2.351999 -2.832,4.271999 -3.936,3.936 -9.552,3.936 -5.616,0 -9.504,-3.84 -3.888,-3.84 -3.888,-9.311999 z m 11.712,2.544 q 0.672,0.72 1.68,0.72 1.008,0 1.728,-0.816 0.768,-0.864 0.768,-2.448 0,-1.536 -0.768,-2.4 -0.72,-0.864 -1.728,-0.864 -1.008,0 -1.68,0.768 -0.864,0.96 -0.864,2.496 0,1.584 0.864,2.544 z" />
    <path
       id="path5747"
       style="font-style:normal;font-variant:normal;font-weight:normal;font-stretch:normal;font-size:48px;font-family:OpineHeavy;-inkscape-font-specification:OpineHeavy;fill:#ffffff;fill-opacity:1;stroke:none;stroke-opacity:1"
       d="M 84.272382,115.46553 V 87.913531 l 11.76,-6.48 v 34.031999 z m 0.096,-39.167999 q 0,-2.592 1.68,-4.512 1.68,-1.92 4.224,-1.92 1.392,0 2.544,0.432 1.152,0.384 2.064,1.296 1.824,1.776 1.824,4.368 0,2.544 -1.776,4.368 -1.728,1.776 -4.176,1.776 -2.592,0 -4.512,-1.632 -1.872,-1.68 -1.872,-4.176 z" />
    <path
       id="path5749"
       style="font-style:normal;font-variant:normal;font-weight:normal;font-stretch:normal;font-size:48px;font-family:OpineHeavy;-inkscape-font-specification:OpineHeavy;fill:#ffffff;fill-opacity:1;stroke:none;stroke-opacity:1"
       d="m 124.75588,91.465531 -13.44,6.816 0.24,0.336 q 0.768,0.768 1.584,0.768 0.336,0 0.816,-0.192 0.48,-0.192 0.912,-0.672 l 0.096,-0.192 0.144,-0.192 7.488,4.511999 q -1.44,1.92 -3.552,3.216 -2.112,1.248 -4.656,1.728 -1.344,0.24 -2.496,0.24 -3.504,0 -6.48,-1.776 -6.335998,-3.6 -6.335998,-10.799999 0,-1.104 0.24,-2.544 0.624,-4.08 3.455998,-6.96 2.832,-2.88 6.912,-3.648 1.248,-0.192 1.728,-0.192 0.528,-0.048 0.816,-0.048 1.296,0 2.544,0.288 6.864,1.488 9.552,7.968 z m -11.52,-1.728 q -0.96,0 -1.392,0.144 -1.44,0.432 -2.112,1.488 -0.672,1.056 -0.672,2.112 0,0.384 0.192,1.056 l 6.624,-3.36 q -0.48,-0.624 -1.152,-1.008 -0.672,-0.432 -1.488,-0.432 z" />
    <path
       id="path5751"
       style="font-style:normal;font-variant:normal;font-weight:normal;font-stretch:normal;font-size:48px;font-family:OpineHeavy;-inkscape-font-specification:OpineHeavy;fill:#ffffff;fill-opacity:1;stroke:none;stroke-opacity:1"
       d="m 148.01638,83.785531 -2.592,8.64 -0.432,-0.288 q -1.344,-0.816 -2.208,-0.96 -0.864,-0.192 -1.536,-0.192 -1.68,0 -2.688,1.488 -0.576,1.008 -0.576,2.064 0,0.288 0.096,0.768 0.624,2.736 3.456,2.736 1.392,0 3.024,-0.672 l 0.576,-0.192 0.288,-0.144 2.4,7.919999 q -0.912,0.672 -2.16,1.2 -3.6,1.632 -7.008,1.632 -6.72,0 -10.56,-5.856 -2.16,-3.215999 -2.16,-7.199999 0,-1.248 0.288,-2.64 0.96,-4.704 4.56,-7.536 3.648,-2.88 8.688,-2.88 3.264,0 6.528,1.248 0.576,0.192 0.96,0.384 0.432,0.192 1.056,0.48 z" />
    <path
       id="path5753"
       style="font-style:normal;font-variant:normal;font-weight:normal;font-stretch:normal;font-size:48px;font-family:OpineHeavy;-inkscape-font-specification:OpineHeavy;fill:#ffffff;fill-opacity:1;stroke:none;stroke-opacity:1"
       d="m 147.34438,91.609531 16.128,-20.208 v 11.232 h 5.616 l -3.12,8.976 h -2.496 v 15.215999 h -11.76 V 91.609531 Z" />
    <path
       id="path5755"
       style="font-style:normal;font-variant:normal;font-weight:normal;font-stretch:normal;font-size:48px;font-family:OpineHeavy;-inkscape-font-specification:OpineHeavy;fill:#ffffff;fill-opacity:1;stroke:none;stroke-opacity:1"
       d="m 179.49613,106.82553 12.288,-34.559999 h 13.296 l 12.288,34.559999 h -13.824 l -0.96,-4.416 h -8.304 l -1.008,4.416 z m 21.6,-13.151999 -1.872,-8.256 -0.432,-1.968 -0.288,-2.304 q 0,0.912 -0.144,1.392 -0.096,0.48 -0.192,0.96 l -0.48,1.92 -1.872,8.256 z" />
    <path
       id="path5757"
       style="font-style:normal;font-variant:normal;font-weight:normal;font-stretch:normal;font-size:48px;font-family:OpineHeavy;-inkscape-font-specification:OpineHeavy;fill:#ffffff;fill-opacity:1;stroke:none;stroke-opacity:1"
       d="m 214.75063,91.609531 16.128,-20.208 v 11.232 h 5.616 l -3.12,8.976 h -2.496 v 15.215999 h -11.76 V 91.609531 Z" />
    <path
       id="path5759"
       style="font-style:normal;font-variant:normal;font-weight:normal;font-stretch:normal;font-size:48px;font-family:OpineHeavy;-inkscape-font-specification:OpineHeavy;fill:#ffffff;fill-opacity:1;stroke:none;stroke-opacity:1"
       d="M 236.14738,106.82553 V 77.689531 l 11.76,-6.528 v 13.488 l 0.288,-0.336 0.384,-0.336 q 1.152,-1.008 2.592,-1.536 2.016,-0.72 3.888,-0.72 3.6,0 5.904,2.4 2.304,2.4 2.304,6.144 v 16.559999 h -11.76 V 94.393531 q 0,-2.688 -2.112,-2.4 -1.488,0.288 -1.488,2.448 v 12.383999 z" />
    <path
       id="path5761"
       style="font-style:normal;font-variant:normal;font-weight:normal;font-stretch:normal;font-size:48px;font-family:OpineHeavy;-inkscape-font-specification:OpineHeavy;fill:#ffffff;fill-opacity:1;stroke:none;stroke-opacity:1"
       d="m 292.00588,91.465531 -13.44,6.816 0.24,0.336 q 0.768,0.768 1.584,0.768 0.336,0 0.816,-0.192 0.48,-0.192 0.912,-0.672 l 0.096,-0.192 0.144,-0.192 7.488,4.511999 q -1.44,1.92 -3.552,3.216 -2.112,1.248 -4.656,1.728 -1.344,0.24 -2.496,0.24 -3.504,0 -6.48,-1.776 -6.336,-3.6 -6.336,-10.799999 0,-1.104 0.24,-2.544 0.624,-4.08 3.456,-6.96 2.832,-2.88 6.912,-3.648 1.248,-0.192 1.728,-0.192 0.528,-0.048 0.816,-0.048 1.296,0 2.544,0.288 6.864,1.488 9.552,7.968 z m -11.52,-1.728 q -0.96,0 -1.392,0.144 -1.44,0.432 -2.112,1.488 -0.672,1.056 -0.672,2.112 0,0.384 0.192,1.056 l 6.624,-3.36 q -0.48,-0.624 -1.152,-1.008 -0.672,-0.432 -1.488,-0.432 z" />
    <path
       id="path5763"
       style="font-style:normal;font-variant:normal;font-weight:normal;font-stretch:normal;font-size:48px;font-family:OpineHeavy;-inkscape-font-specification:OpineHeavy;fill:#ffffff;fill-opacity:1;stroke:none;stroke-opacity:1"
       d="m 293.52238,87.913531 11.04,-6.576 v 3.552 q 1.152,-1.44 3.024,-2.208 1.872,-0.816 4.464,-0.816 4.128,0 6.336,2.352 2.256,2.304 2.256,6.528 v 16.079999 h -11.76 V 94.153531 q 0,-2.304 -1.776,-2.304 -1.776,0 -1.776,2.88 l 0.048,12.095999 h -11.76 z" />
    <path
       id="path5765"
       style="font-style:normal;font-variant:normal;font-weight:normal;font-stretch:normal;font-size:48px;font-family:OpineHeavy;-inkscape-font-specification:OpineHeavy;fill:#ffffff;fill-opacity:1;stroke:none;stroke-opacity:1"
       d="m 341.70088,84.889531 v -2.256 h 11.088 v 24.191999 h -11.088 v -2.496 q -1.2,1.488 -3.072,2.304 -1.872,0.816 -4.32,0.816 -4.56,0 -7.44,-3.12 -3.12,-3.36 -3.12,-9.215999 0,-5.856 3.072,-9.504 3.072,-3.648 7.584,-3.648 1.008,0 2.256,0.24 1.248,0.24 2.64,0.96 1.392,0.72 2.4,1.728 z m -3.84,12.864 q 0.192,0.048 0.336,0.048 0.144,0 0.192,0 1.104,0 1.824,-0.912 0.768,-0.96 0.768,-2.64 0,-1.344 -0.576,-2.112 -0.528,-0.816 -1.536,-1.056 -0.192,-0.048 -0.528,-0.048 -2.256,0 -2.64,2.88 v 0.624 q 0,1.392 0.528,2.256 0.576,0.816 1.632,0.96 z" />
  </g>
  <path
     transform="matrix(0.69899025,0,0,0.69899025,269.31594,32.684837)"
     id="path3799-2"
     d="m 91.832079,57.500977 -54.399819,-3e-6 -27.199907,-47.111626 27.199912,-47.111623 54.399818,3e-6 27.199907,47.111626 z"
     style="display:inline;opacity:0.93500001;fill:#3a3937;fill-opacity:1;stroke:#0092d4;stroke-width:9.56400013;stroke-miterlimit:4;stroke-dasharray:none;stroke-opacity:1;filter:url(#filter7597)" />
  <path
     id="path4704"
     d="m 333.58541,10.641061 c -1.33042,-0.003 -2.6614,0.02719 -3.99105,0.08885 -10.63729,0.492794 -21.18542,3.054485 -30.61336,7.960541 -12.58659,6.549722 -22.9644,17.350793 -27.86872,30.474604 -0.74714,1.999314 -1.43163,4.195201 -1.50307,6.589093 -0.0565,1.888571 0.29775,3.884417 1.27773,5.657351 l 3.81151,-1.936715 c -0.56198,-1.016544 -0.833,-2.297505 -0.79411,-3.599793 0.0501,-1.679736 0.56345,-3.455978 1.24801,-5.287791 4.49756,-12.035358 14.14243,-22.123913 25.85832,-28.220559 8.79888,-4.578713 18.73478,-7.001788 28.79335,-7.470115 3.35287,-0.156099 6.7192,-0.09515 10.06201,0.175426 2.93218,0.237351 5.73367,0.646171 8.1239,1.68684 1.19179,0.518899 2.27932,1.195515 3.16519,2.017423 0.42257,0.392059 0.80015,0.822607 1.12389,1.278292 l 3.82437,-1.942984 c -0.5612,-0.867683 -1.23086,-1.656127 -1.97867,-2.349944 -1.30077,-1.206889 -2.80875,-2.124025 -4.37706,-2.806858 -3.12999,-1.362756 -6.42744,-1.788546 -9.52453,-2.039252 -2.20449,-0.178433 -4.42036,-0.270573 -6.63771,-0.274441 z"
     style="color:#000000;font-style:normal;font-variant:normal;font-weight:normal;font-stretch:normal;font-size:medium;line-height:normal;font-family:sans-serif;font-variant-ligatures:normal;font-variant-position:normal;font-variant-caps:normal;font-variant-numeric:normal;font-variant-alternates:normal;font-feature-settings:normal;text-indent:0;text-align:start;text-decoration:none;text-decoration-line:none;text-decoration-style:solid;text-decoration-color:#000000;letter-spacing:normal;word-spacing:normal;text-transform:none;writing-mode:lr-tb;direction:ltr;text-orientation:mixed;dominant-baseline:auto;baseline-shift:baseline;text-anchor:start;white-space:normal;shape-padding:0;clip-rule:nonzero;display:inline;overflow:visible;visibility:visible;opacity:1;isolation:auto;mix-blend-mode:normal;color-interpolation:sRGB;color-interpolation-filters:linearRGB;solid-color:#000000;solid-opacity:1;vector-effect:none;fill:#ffffff;fill-opacity:1;fill-rule:evenodd;stroke:none;stroke-width:4.23338938;stroke-linecap:butt;stroke-linejoin:miter;stroke-miterlimit:4;stroke-dasharray:none;stroke-dashoffset:0;stroke-opacity:1;color-rendering:auto;image-rendering:auto;shape-rendering:auto;text-rendering:auto;enable-background:accumulate" />
  <path
     id="rect4616"
     d="M 332.27108,6.4873186 302.92243,35.836669 V 7.463203 h -8.85213 v 64.708723 h 8.85213 v -23.81623 l 5.76336,-5.764087 25.34887,25.348857 6.25951,-6.259517 -25.34886,-25.348857 23.58527,-23.585265 z"
     style="display:inline;opacity:1;fill:url(#linearGradient7736);fill-opacity:1;stroke:none;stroke-width:7.73268747;stroke-miterlimit:4;stroke-dasharray:none;stroke-opacity:1" />
  <path
     style="display:inline;fill:none;fill-opacity:1;stroke:#0092d4;stroke-width:6.68530035;stroke-miterlimit:4;stroke-dasharray:none;stroke-opacity:1"
     d="m 333.50566,72.877373 -38.02494,-2e-6 -19.01247,-32.930565 19.01248,-32.9305635 38.02494,1.8e-6 19.01247,32.9305657 z"
     id="path3799" />
  <path
     id="path4704-6"
     d="m 356.08812,18.088179 -3.82438,1.945692 c 0.35892,0.501671 0.65258,1.033693 0.86041,1.582768 0.50474,1.333501 0.56989,2.917749 0.29001,4.495637 -0.28192,1.589386 -0.90095,3.203676 -1.66094,4.844551 -5.48664,11.845931 -16.20091,21.205609 -28.57285,26.516947 -12.39358,5.320605 -26.41056,6.815809 -40.05475,5.569639 -1.68347,-0.153759 -3.24995,-0.35005 -4.62129,-0.787094 -1.35534,-0.431958 -2.54518,-1.130952 -3.29455,-2.02716 -0.18643,-0.22298 -0.36768,-0.495132 -0.51492,-0.758591 l -3.81239,1.922314 c 0.2748,0.493806 0.61298,1.012955 0.9906,1.464582 1.42784,1.70764 3.3631,2.74692 5.29048,3.361179 1.9114,0.609193 3.80307,0.816132 5.5596,0.976564 14.23496,1.300129 28.98,-0.233493 42.19527,-5.906858 13.23694,-5.68266 24.75883,-15.678884 30.75317,-28.620923 0.8299,-1.791855 1.60226,-3.728332 1.97824,-5.847981 0.37802,-2.131162 0.34038,-4.441307 -0.49205,-6.640562 -0.28066,-0.741451 -0.64526,-1.437996 -1.06966,-2.090704 z"
     style="color:#000000;font-style:normal;font-variant:normal;font-weight:normal;font-stretch:normal;font-size:medium;line-height:normal;font-family:sans-serif;font-variant-ligatures:normal;font-variant-position:normal;font-variant-caps:normal;font-variant-numeric:normal;font-variant-alternates:normal;font-feature-settings:normal;text-indent:0;text-align:start;text-decoration:none;text-decoration-line:none;text-decoration-style:solid;text-decoration-color:#000000;letter-spacing:normal;word-spacing:normal;text-transform:none;writing-mode:lr-tb;direction:ltr;text-orientation:mixed;dominant-baseline:auto;baseline-shift:baseline;text-anchor:start;white-space:normal;shape-padding:0;clip-rule:nonzero;display:inline;overflow:visible;visibility:visible;opacity:1;isolation:auto;mix-blend-mode:normal;color-interpolation:sRGB;color-interpolation-filters:linearRGB;solid-color:#000000;solid-opacity:1;vector-effect:none;fill:#ffffff;fill-opacity:1;fill-rule:evenodd;stroke:none;stroke-width:4.23338938;stroke-linecap:butt;stroke-linejoin:miter;stroke-miterlimit:4;stroke-dasharray:none;stroke-dashoffset:0;stroke-opacity:1;color-rendering:auto;image-rendering:auto;shape-rendering:auto;text-rendering:auto;enable-background:accumulate" />
</svg>
