<?xml version="1.0" encoding="utf-8"?>
<!-- Generator: Adobe Illustrator 17.1.0, SVG Export Plug-In . SVG Version: 6.00 Build 0)  -->
<!DOCTYPE svg PUBLIC "-//W3C//DTD SVG 1.1//EN" "http://www.w3.org/Graphics/SVG/1.1/DTD/svg11.dtd">
<svg version="1.1" id="Layer_1" xmlns="http://www.w3.org/2000/svg" xmlns:xlink="http://www.w3.org/1999/xlink" x="0px" y="0px"
	 viewBox="0 0 19.2 16" enable-background="new 0 0 19.2 16" xml:space="preserve">
<g>
	<g>
		<path fill="#F9F9F9" d="M13.1,13c-1.1,0.7-2.3,1.1-3.6,1.1c-0.2,0-0.3,0-0.5,0c-0.1,0-0.1,0-0.2,0c-0.1,0-0.3,0-0.4-0.1
			c-0.1,0-0.2,0-0.2-0.1c-0.1,0-0.2-0.1-0.4-0.1c-0.1,0-0.1,0-0.2-0.1c-0.1,0-0.3-0.1-0.4-0.2c0,0-0.1,0-0.1,0
			c-0.2-0.1-0.3-0.1-0.5-0.2c0,0,0,0,0,0c-0.5-0.3-1-0.6-1.4-1c0,0,0,0,0,0c-0.1-0.1-0.2-0.3-0.4-0.4c0,0,0-0.1-0.1-0.1
			C4,10.8,3.5,9.5,3.5,8h1.6L2.6,4.2L0,8h1.6c0,1.7,0.5,3.3,1.4,4.5c0,0,0,0,0,0.1c0.1,0.1,0.2,0.3,0.3,0.4c0,0,0.1,0.1,0.1,0.1
			c0.1,0.2,0.3,0.3,0.5,0.5c0,0,0,0,0,0c0.5,0.5,1.1,1,1.8,1.4c0,0,0,0,0.1,0c0.2,0.1,0.4,0.2,0.6,0.3c0,0,0.1,0,0.1,0.1
			c0.2,0.1,0.3,0.1,0.5,0.2c0.1,0,0.2,0.1,0.2,0.1c0.2,0,0.3,0.1,0.5,0.1c0.1,0,0.2,0.1,0.3,0.1c0,0,0.1,0,0.1,0
			c0.1,0,0.3,0,0.4,0.1c0.1,0,0.1,0,0.2,0c0.3,0,0.5,0,0.8,0c1.6,0,3.2-0.5,4.6-1.5c0.4-0.3,0.5-0.9,0.2-1.3
			C14.2,12.8,13.6,12.7,13.1,13z"/>
		<path fill="#F9F9F9" d="M17.6,8c0-1.7-0.5-3.2-1.4-4.5c0,0,0,0,0-0.1C16.1,3.3,16,3.1,15.8,3c0,0,0,0,0-0.1c-0.8-1-1.8-1.8-3-2.2
			c0,0-0.1,0-0.1,0c-0.2-0.1-0.4-0.1-0.6-0.2c-0.1,0-0.1,0-0.2-0.1c-0.2-0.1-0.3-0.1-0.5-0.1c-0.1,0-0.2,0-0.3-0.1c0,0-0.1,0-0.1,0
			c-0.1,0-0.3,0-0.4,0c-0.1,0-0.2,0-0.3,0c-0.2,0-0.4,0-0.6,0c0,0-0.1,0-0.1,0c0,0,0,0,0,0C8,0,6.4,0.5,5,1.4
			C4.6,1.8,4.5,2.4,4.8,2.8C5.1,3.2,5.7,3.3,6.1,3c1.1-0.7,2.3-1.1,3.5-1.1c0.2,0,0.4,0,0.5,0c0.1,0,0.1,0,0.2,0
			c0.1,0,0.3,0,0.4,0.1c0.1,0,0.1,0,0.2,0c0.1,0,0.3,0.1,0.4,0.1c0,0,0.1,0,0.1,0c0.2,0.1,0.3,0.1,0.5,0.2c0,0,0,0,0,0
			c0.9,0.4,1.7,1,2.3,1.7c0,0,0,0,0,0c0.9,1.1,1.4,2.4,1.4,3.9h-1.6l2.6,3.8L19.2,8H17.6z"/>
	</g>
</g>
</svg>
