<?xml version="1.0" encoding="utf-8"?>
<!-- Generator: Adobe Illustrator 19.2.0, SVG Export Plug-In . SVG Version: 6.00 Build 0)  -->
<svg version="1.1" id="Layer_1" xmlns="http://www.w3.org/2000/svg" xmlns:xlink="http://www.w3.org/1999/xlink" x="0px" y="0px"
	 viewBox="0 0 32 31.7" style="enable-background:new 0 0 32 31.7;" xml:space="preserve">
<style type="text/css">
	.st0{fill:#168DB7;}
</style>
<g>
	<path class="st0" d="M24.4,9.8h-2.1V8.9c0-1.4-0.8-1.7-2.2-1.7h-7c-1.4,0-2.1,0.3-2.1,1.7v0.8H8.8c-1.4,0-2.7,0.6-2.7,2V21
		c0,1.4,1.1,2.7,2.7,2.7h15.4c1.4,0,2.4-1.5,2.4-2.9v-9C26.9,10.3,25.8,9.8,24.4,9.8z M16.8,21.5c-3.2,0-5.6-2.5-5.6-5.6
		c0-3.2,2.5-5.6,5.6-5.6c3.2,0,5.6,2.5,5.6,5.6S20.1,21.5,16.8,21.5z"/>
	<circle class="st0" cx="16.8" cy="15.9" r="3.4"/>
</g>
</svg>
