<?xml version="1.0" encoding="utf-8"?>
<!-- Generator: Adobe Illustrator 19.2.0, SVG Export Plug-In . SVG Version: 6.00 Build 0)  -->
<svg version="1.1" id="Layer_1" xmlns="http://www.w3.org/2000/svg" xmlns:xlink="http://www.w3.org/1999/xlink" x="0px" y="0px"
	 viewBox="0 0 32 64" style="enable-background:new 0 0 32 64;" xml:space="preserve">
<style type="text/css">
	.st0{opacity:0.64;fill:#58595B;}
	.st1{fill:#FFFFFF;}
	.st2{fill:#168DB7;}
</style>
<circle class="st0" cx="15.8" cy="15.5" r="12.5"/>
<path d="M15.8,3.4c-7,0-12.7,5.7-12.7,12.7s5.7,12.7,12.7,12.7c7,0,12.7-5.7,12.7-12.7S22.8,3.4,15.8,3.4z M15.8,27.3
	c-6.2,0-11.2-5-11.2-11.2C4.6,10,9.7,5,15.8,5C22,5,27,10,27,16.1C27,22.3,22,27.3,15.8,27.3z"/>
<path class="st1" d="M15.8,2.8c-7,0-12.7,5.7-12.7,12.7s5.7,12.7,12.7,12.7c7,0,12.7-5.7,12.7-12.7S22.8,2.8,15.8,2.8z M15.8,26.7
	c-6.2,0-11.2-5-11.2-11.2c0-6.2,5-11.2,11.2-11.2C22,4.4,27,9.4,27,15.6C27,21.7,22,26.7,15.8,26.7z"/>
<path d="M21.5,11.6H20V11c0-1-0.6-1.2-1.6-1.2h-5c-1,0-1.5,0.2-1.5,1.2v0.6h-1.5c-1,0-1.9,0.4-1.9,1.4v6.6c0,1,0.8,1.9,1.9,1.9h11
	c1,0,1.7-1.1,1.7-2.1V13C23.3,12,22.5,11.6,21.5,11.6z M16.1,20.1c-2.3,0-4-1.8-4-4c0-2.3,1.8-4,4-4c2.3,0,4,1.8,4,4
	S18.4,20.1,16.1,20.1z"/>
<circle cx="16.1" cy="16" r="2.4"/>
<path class="st1" d="M21.5,11H20v-0.6c0-1-0.6-1.2-1.6-1.2h-5c-1,0-1.5,0.2-1.5,1.2V11h-1.5c-1,0-1.9,0.4-1.9,1.4v6.6
	c0,1,0.8,1.9,1.9,1.9h11c1,0,1.7-1.1,1.7-2.1v-6.4C23.3,11.5,22.5,11,21.5,11z M16.1,19.5c-2.3,0-4-1.8-4-4c0-2.3,1.8-4,4-4
	c2.3,0,4,1.8,4,4S18.4,19.5,16.1,19.5z"/>
<circle class="st1" cx="16.1" cy="15.5" r="2.4"/>
<circle cx="15.8" cy="48.2" r="14.8"/>
<circle class="st2" cx="15.8" cy="47.6" r="14.8"/>
<path d="M21.5,43.6H20V43c0-1-0.6-1.2-1.6-1.2h-5c-1,0-1.5,0.2-1.5,1.2v0.6h-1.5c-1,0-1.9,0.4-1.9,1.4v6.6c0,1,0.8,1.9,1.9,1.9h11
	c1,0,1.7-1.1,1.7-2.1V45C23.3,44.1,22.5,43.6,21.5,43.6z M16.1,52.1c-2.3,0-4-1.8-4-4c0-2.3,1.8-4,4-4c2.3,0,4,1.8,4,4
	C20.1,50.2,18.4,52.1,16.1,52.1z"/>
<circle cx="16.1" cy="48" r="2.4"/>
<path class="st1" d="M21.5,43.1H20v-0.6c0-1-0.6-1.2-1.6-1.2h-5c-1,0-1.5,0.2-1.5,1.2v0.6h-1.5c-1,0-1.9,0.4-1.9,1.4v6.6
	c0,1,0.8,1.9,1.9,1.9h11c1,0,1.7-1.1,1.7-2.1v-6.4C23.3,43.5,22.5,43.1,21.5,43.1z M16.1,51.5c-2.3,0-4-1.8-4-4c0-2.3,1.8-4,4-4
	c2.3,0,4,1.8,4,4C20.1,49.7,18.4,51.5,16.1,51.5z"/>
<circle class="st1" cx="16.1" cy="47.5" r="2.4"/>
</svg>
