<?xml version="1.0" encoding="utf-8"?>
<!-- Generator: Adobe Illustrator 19.2.0, SVG Export Plug-In . SVG Version: 6.00 Build 0)  -->
<svg version="1.1" xmlns="http://www.w3.org/2000/svg" xmlns:xlink="http://www.w3.org/1999/xlink" x="0px" y="0px"
	 viewBox="0 0 50 150" style="enable-background:new 0 0 50 150;" xml:space="preserve">
<style type="text/css">
	.st0{fill:#414042;}
	.st1{fill:#CCCCCC;}
	.st2{fill:#1398BB;}
	.st3{fill:#31D8FF;}
</style>
<g id="Layer_1">
	<circle class="st0" cx="26.54" cy="69.8" r="4.44"/>
	<path class="st0" d="M34.87,82.89c0.01-0.01,0.02-0.02,0.03-0.03v-1.86c0-2.68-2.33-4.77-5-4.77h-6.42c-2.68,0-4.85,2.09-4.85,4.77
		v1.88H34.87z"/>
	<path class="st0" d="M44.17,67.05c0-3.97-3.22-7.19-7.19-7.19H16.67c-3.97,0-7.19,3.22-7.19,7.19v14.18c0,3.97,3.22,7.19,7.19,7.19
		h20.31c3.97,0,7.19-3.22,7.19-7.19V67.05z M42.39,81.32c0,3.03-2.46,5.49-5.49,5.49H16.58c-3.03,0-5.49-2.46-5.49-5.49v-14.2
		c0-3.03,2.46-5.49,5.49-5.49h20.33c3.03,0,5.49,2.46,5.49,5.49V81.32z"/>
	<circle class="st1" cx="26.54" cy="18.17" r="4.44"/>
	<path class="st1" d="M34.87,31.26c0.01-0.01,0.02-0.02,0.03-0.03v-1.86c0-2.68-2.33-4.77-5-4.77h-6.42c-2.68,0-4.85,2.09-4.85,4.77
		v1.88H34.87z"/>
	<path class="st1" d="M44.17,15.42c0-3.97-3.22-7.19-7.19-7.19H16.67c-3.97,0-7.19,3.22-7.19,7.19V29.6c0,3.97,3.22,7.19,7.19,7.19
		h20.31c3.97,0,7.19-3.22,7.19-7.19V15.42z M42.39,29.69c0,3.03-2.46,5.49-5.49,5.49H16.58c-3.03,0-5.49-2.46-5.49-5.49V15.5
		c0-3.03,2.46-5.49,5.49-5.49h20.33c3.03,0,5.49,2.46,5.49,5.49V29.69z"/>
	<circle class="st2" cx="26.52" cy="119.45" r="4.44"/>
	<path class="st2" d="M34.85,132.54c0.01-0.01,0.02-0.02,0.03-0.03v-1.86c0-2.68-2.33-4.77-5-4.77h-6.42
		c-2.68,0-4.85,2.09-4.85,4.77v1.88H34.85z"/>
	<g>
		<path class="st2" d="M36.9,138.76H16.6c-4.32,0-7.83-3.51-7.83-7.83v-14.16c0-4.32,3.51-7.83,7.83-7.83h20.3
			c4.32,0,7.83,3.51,7.83,7.83v14.16C44.73,135.25,41.22,138.76,36.9,138.76z M16.6,111.93c-2.67,0-4.84,2.17-4.84,4.84v14.16
			c0,2.67,2.17,4.84,4.84,4.84h20.3c2.67,0,4.84-2.17,4.84-4.84v-14.16c0-2.67-2.17-4.84-4.84-4.84H16.6z"/>
		<path class="st3" d="M36.9,109.58c3.96,0,7.19,3.22,7.19,7.19v14.16c0,3.96-3.22,7.19-7.19,7.19H16.6c-3.96,0-7.19-3.22-7.19-7.19
			v-14.16c0-3.96,3.22-7.19,7.19-7.19H36.9 M16.6,136.42h20.3c3.02,0,5.49-2.46,5.49-5.49v-14.16c0-3.02-2.46-5.49-5.49-5.49H16.6
			c-3.02,0-5.49,2.46-5.49,5.49v14.16C11.11,133.95,13.57,136.42,16.6,136.42 M36.9,108.93H16.6c-4.32,0-7.83,3.51-7.83,7.83v14.16
			c0,4.32,3.51,7.83,7.83,7.83h20.3c4.32,0,7.83-3.51,7.83-7.83v-14.16C44.73,112.45,41.22,108.93,36.9,108.93L36.9,108.93z
			 M16.6,135.77c-2.67,0-4.84-2.17-4.84-4.84v-14.16c0-2.67,2.17-4.84,4.84-4.84h20.3c2.67,0,4.84,2.17,4.84,4.84v14.16
			c0,2.67-2.17,4.84-4.84,4.84H16.6L16.6,135.77z"/>
	</g>
</g>
<g id="Layer_2">
</g>
</svg>
