<?xml version="1.0" encoding="utf-8"?>
<!-- Generator: Adobe Illustrator 19.2.0, SVG Export Plug-In . SVG Version: 6.00 Build 0)  -->
<svg version="1.1"
	 id="svg4136" inkscape:version="0.91 r13725" sodipodi:docname="address-bar.svg" xmlns:cc="http://creativecommons.org/ns#" xmlns:dc="http://purl.org/dc/elements/1.1/" xmlns:inkscape="http://www.inkscape.org/namespaces/inkscape" xmlns:rdf="http://www.w3.org/1999/02/22-rdf-syntax-ns#" xmlns:sodipodi="http://sodipodi.sourceforge.net/DTD/sodipodi-0.dtd" xmlns:svg="http://www.w3.org/2000/svg"
	 xmlns="http://www.w3.org/2000/svg" xmlns:xlink="http://www.w3.org/1999/xlink" x="0px" y="0px" viewBox="0 0 173.3 49"
	 style="enable-background:new 0 0 173.3 49;" xml:space="preserve">
<style type="text/css">
	.st0{fill:#58595B;}
	.st1{fill:#FFFFFF;}
</style>
<g>
	<path d="M164.2,13.1h-4.5v-1.8c0-3-1.8-3.7-4.8-3.7h-14.8c-3,0-4.4,0.7-4.4,3.7v1.8h-5.5c-3,0-5.5,1.3-5.5,4.3v19.8
		c0,3,2.4,5.5,5.5,5.5h34.1c3,0,5.2-3.3,5.2-6.3v-19C169.4,14.4,167.2,13.1,164.2,13.1z M148.1,38.3c-6.7,0-12-5.5-12-12
		c0-6.7,5.5-12,12-12c6.7,0,12,5.5,12,12S154.8,38.3,148.1,38.3z"/>
	<path class="st0" d="M154.9,7.6c3,0,4.8,0.7,4.8,3.7v1.8h4.5c3,0,5.2,1.3,5.2,4.3v19c0,3-2.2,6.3-5.2,6.3h-34.1
		c-3.1,0-5.5-2.6-5.5-5.5V17.4c0-3,2.6-4.3,5.5-4.3h5.5v-1.8c0-3,1.5-3.7,4.4-3.7H154.9 M148.1,38.3c6.7,0,12-5.5,12-12
		c0-6.5-5.3-12-12-12c-6.5,0-12,5.3-12,12C136.1,32.8,141.4,38.3,148.1,38.3 M154.9,7.3h-14.8c-2.9,0-4.7,0.7-4.7,3.9v1.6h-5.3
		c-2.8,0-5.8,1.2-5.8,4.5v19.8c0,3.2,2.6,5.8,5.8,5.8h34.1c3.1,0,5.4-3.5,5.4-6.5v-19c0-2.9-2-4.5-5.4-4.5H160v-1.6
		C160,7.8,157.4,7.3,154.9,7.3L154.9,7.3z M148.1,38c-6.5,0-11.8-5.3-11.8-11.8c0-6.5,5.3-11.8,11.8-11.8s11.8,5.3,11.8,11.8
		C159.9,32.8,154.6,38,148.1,38L148.1,38z"/>
</g>
<g>
	<circle cx="148.1" cy="26.3" r="7.3"/>
	<path class="st0" d="M148.1,19.1c3.9,0,7.1,3.2,7.1,7.1c0,3.9-3.2,7.1-7.1,7.1s-7.1-3.2-7.1-7.1C140.9,22.3,144.1,19.1,148.1,19.1
		 M148.1,18.9c-4.1,0-7.4,3.3-7.4,7.4c0,4.1,3.3,7.4,7.4,7.4s7.4-3.3,7.4-7.4C155.5,22.2,152.2,18.9,148.1,18.9L148.1,18.9z"/>
</g>
<path class="st1" d="M164.2,11.3h-4.5V9.4c0-3-1.8-3.7-4.8-3.7h-14.8c-3,0-4.4,0.7-4.4,3.7v1.8h-5.5c-3,0-5.5,1.3-5.5,4.3v19.8
	c0,3,2.4,5.5,5.5,5.5h34.1c3,0,5.2-3.3,5.2-6.3v-19C169.4,12.6,167.2,11.3,164.2,11.3z M148.1,36.4c-6.7,0-12-5.5-12-12
	c0-6.7,5.5-12,12-12c6.7,0,12,5.5,12,12S154.8,36.4,148.1,36.4z"/>
<circle class="st1" cx="148.1" cy="24.4" r="7.1"/>
<g>
	<path d="M16.9,31.6c0.7,0.4,1.9,0.8,3,0.8c1.3,0,1.9-0.5,1.9-1.3c0-0.8-0.5-1.2-1.9-1.7c-2.3-0.8-3.2-2-3.2-3.4
		c0-2.1,1.7-3.7,4.4-3.7c1.3,0,2.4,0.3,3.1,0.7l-0.6,2.1c-0.5-0.3-1.4-0.7-2.5-0.7c-1.1,0-1.6,0.5-1.6,1.2c0,0.7,0.6,1.1,2,1.6
		c2.1,0.8,3.1,1.9,3.1,3.6c0,2.1-1.7,3.7-4.8,3.7c-1.4,0-2.7-0.3-3.6-0.8L16.9,31.6z"/>
	<path d="M27.1,26.1c0-1.3,0-2.5-0.1-3.5h2.6l0.1,1.8h0.1c0.5-0.9,1.8-2,3.7-2c2,0,4.2,1.3,4.2,5v6.9h-3v-6.6c0-1.7-0.6-3-2.2-3
		c-1.2,0-2,0.8-2.3,1.7c-0.1,0.3-0.1,0.6-0.1,1v6.9h-3V26.1z"/>
	<path d="M47.4,34.3L47.2,33h-0.1c-0.7,0.9-1.9,1.6-3.5,1.6c-2.4,0-3.7-1.7-3.7-3.5c0-3,2.6-4.4,6.9-4.4v-0.2c0-0.8-0.3-2-2.4-2
		c-1.2,0-2.4,0.4-3.1,0.9l-0.6-1.9c0.9-0.5,2.4-1,4.2-1c3.7,0,4.8,2.4,4.8,4.9v4.2c0,1.1,0,2.1,0.2,2.8H47.4z M47,28.6
		c-2.1,0-4.1,0.4-4.1,2.2c0,1.2,0.7,1.7,1.7,1.7c1.2,0,2-0.8,2.3-1.6c0.1-0.2,0.1-0.5,0.1-0.6V28.6z"/>
	<path d="M53,26.5c0-1.5,0-2.8-0.1-3.9h2.6l0.1,1.8h0c0.9-1.3,2.2-2.1,4-2.1c2.7,0,4.9,2.3,4.9,6c0,4.2-2.7,6.3-5.3,6.3
		c-1.5,0-2.7-0.6-3.3-1.6h0v6.1h-3V26.5z M56,29.4c0,0.3,0,0.6,0.1,0.8c0.3,1.2,1.3,2.1,2.6,2.1c1.9,0,3-1.6,3-3.9
		c0-2.1-1-3.7-2.9-3.7c-1.2,0-2.4,0.9-2.6,2.2C56,27.1,56,27.4,56,27.6V29.4z"/>
	<path d="M66.9,31.6c0.7,0.4,1.9,0.8,3,0.8c1.3,0,1.9-0.5,1.9-1.3c0-0.8-0.5-1.2-1.9-1.7c-2.3-0.8-3.2-2-3.2-3.4
		c0-2.1,1.7-3.7,4.4-3.7c1.3,0,2.4,0.3,3.1,0.7l-0.6,2.1c-0.5-0.3-1.4-0.7-2.5-0.7c-1.1,0-1.6,0.5-1.6,1.2c0,0.7,0.6,1.1,2,1.6
		c2.1,0.8,3.1,1.9,3.1,3.6c0,2.1-1.7,3.7-4.8,3.7c-1.4,0-2.7-0.3-3.6-0.8L66.9,31.6z"/>
	<path d="M77.1,17.3h3v7h0c0.4-0.6,0.8-1,1.5-1.3c0.6-0.3,1.3-0.5,2-0.5c2,0,4.1,1.3,4.1,5.1v6.9h-3v-6.6c0-1.7-0.6-3-2.3-3
		c-1.2,0-2,0.8-2.3,1.7c-0.1,0.2-0.1,0.6-0.1,0.9v7h-3V17.3z"/>
	<path d="M102,28.4c0,4.3-3,6.2-6,6.2c-3.3,0-5.9-2.3-5.9-6c0-3.8,2.5-6.2,6.1-6.2C99.7,22.4,102,24.8,102,28.4z M93.2,28.5
		c0,2.3,1.1,4,2.9,4c1.7,0,2.9-1.7,2.9-4c0-1.8-0.8-3.9-2.8-3.9C94,24.5,93.2,26.5,93.2,28.5z"/>
	<path d="M107.8,19.3v3.3h2.8v2.2h-2.8V30c0,1.4,0.4,2.2,1.5,2.2c0.5,0,0.9-0.1,1.2-0.1l0,2.3c-0.4,0.2-1.2,0.3-2.1,0.3
		c-1.1,0-2-0.4-2.5-1c-0.6-0.7-0.9-1.7-0.9-3.3v-5.5h-1.7v-2.2h1.7V20L107.8,19.3z"/>
</g>
<g>
	<path class="st1" d="M17.3,29.9c0.7,0.4,1.9,0.8,3,0.8c1.3,0,1.9-0.5,1.9-1.3c0-0.8-0.5-1.2-1.9-1.7C18,27,17,25.7,17,24.3
		c0-2.1,1.7-3.7,4.4-3.7c1.3,0,2.4,0.3,3.1,0.7L24,23.4c-0.5-0.3-1.4-0.7-2.5-0.7c-1.1,0-1.6,0.5-1.6,1.2c0,0.7,0.6,1.1,2,1.6
		c2.1,0.8,3.1,1.9,3.1,3.6c0,2.1-1.7,3.7-4.8,3.7c-1.4,0-2.7-0.3-3.6-0.8L17.3,29.9z"/>
	<path class="st1" d="M27.4,24.4c0-1.3,0-2.5-0.1-3.5h2.6l0.1,1.8h0.1c0.5-0.9,1.8-2,3.7-2c2,0,4.2,1.3,4.2,5v6.9h-3V26
		c0-1.7-0.6-3-2.2-3c-1.2,0-2,0.8-2.3,1.7c-0.1,0.3-0.1,0.6-0.1,1v6.9h-3V24.4z"/>
	<path class="st1" d="M47.8,32.6l-0.2-1.3h-0.1c-0.7,0.9-1.9,1.6-3.5,1.6c-2.4,0-3.7-1.7-3.7-3.5c0-3,2.6-4.4,6.9-4.4v-0.2
		c0-0.8-0.3-2-2.4-2c-1.2,0-2.4,0.4-3.1,0.9l-0.6-1.9c0.9-0.5,2.4-1,4.2-1c3.7,0,4.8,2.4,4.8,4.9v4.2c0,1.1,0,2.1,0.2,2.8H47.8z
		 M47.4,26.9c-2.1,0-4.1,0.4-4.1,2.2c0,1.2,0.7,1.7,1.7,1.7c1.2,0,2-0.8,2.3-1.6c0.1-0.2,0.1-0.5,0.1-0.6V26.9z"/>
	<path class="st1" d="M53.4,24.8c0-1.5,0-2.8-0.1-3.9h2.6l0.1,1.8h0c0.9-1.3,2.2-2.1,4-2.1c2.7,0,4.9,2.3,4.9,6
		c0,4.2-2.7,6.3-5.3,6.3c-1.5,0-2.7-0.6-3.3-1.6h0v6.1h-3V24.8z M56.4,27.7c0,0.3,0,0.6,0.1,0.8c0.3,1.2,1.3,2.1,2.6,2.1
		c1.9,0,3-1.6,3-3.9c0-2.1-1-3.7-2.9-3.7c-1.2,0-2.4,0.9-2.6,2.2c-0.1,0.2-0.1,0.5-0.1,0.7V27.7z"/>
	<path class="st1" d="M67.3,29.9c0.7,0.4,1.9,0.8,3,0.8c1.3,0,1.9-0.5,1.9-1.3c0-0.8-0.5-1.2-1.9-1.7c-2.3-0.8-3.2-2-3.2-3.4
		c0-2.1,1.7-3.7,4.4-3.7c1.3,0,2.4,0.3,3.1,0.7L74,23.4c-0.5-0.3-1.4-0.7-2.5-0.7c-1.1,0-1.6,0.5-1.6,1.2c0,0.7,0.6,1.1,2,1.6
		c2.1,0.8,3.1,1.9,3.1,3.6c0,2.1-1.7,3.7-4.8,3.7c-1.4,0-2.7-0.3-3.6-0.8L67.3,29.9z"/>
	<path class="st1" d="M77.5,15.6h3v7h0c0.4-0.6,0.8-1,1.5-1.3c0.6-0.3,1.3-0.5,2-0.5c2,0,4.1,1.3,4.1,5.1v6.9h-3v-6.6
		c0-1.7-0.6-3-2.3-3c-1.2,0-2,0.8-2.3,1.7c-0.1,0.2-0.1,0.6-0.1,0.9v7h-3V15.6z"/>
	<path class="st1" d="M102.4,26.7c0,4.3-3,6.2-6,6.2c-3.3,0-5.9-2.3-5.9-6c0-3.8,2.5-6.2,6.1-6.2C100,20.7,102.4,23.1,102.4,26.7z
		 M93.5,26.8c0,2.3,1.1,4,2.9,4c1.7,0,2.9-1.7,2.9-4c0-1.8-0.8-3.9-2.8-3.9C94.4,22.8,93.5,24.8,93.5,26.8z"/>
	<path class="st1" d="M108.2,17.6v3.3h2.8v2.2h-2.8v5.2c0,1.4,0.4,2.2,1.5,2.2c0.5,0,0.9-0.1,1.2-0.1l0,2.3
		c-0.4,0.2-1.2,0.3-2.1,0.3c-1.1,0-2-0.4-2.5-1c-0.6-0.7-0.9-1.7-0.9-3.3v-5.5h-1.7v-2.2h1.7v-2.6L108.2,17.6z"/>
</g>
</svg>
