<?xml version="1.0" encoding="utf-8"?>
<!-- Generator: Adobe Illustrator 19.2.0, SVG Export Plug-In . SVG Version: 6.00 Build 0)  -->
<svg version="1.1" xmlns="http://www.w3.org/2000/svg" xmlns:xlink="http://www.w3.org/1999/xlink" x="0px" y="0px"
	 viewBox="0 0 50 150" style="enable-background:new 0 0 50 150;" xml:space="preserve">
<style type="text/css">
	.st0{fill:#414042;}
	.st1{fill:#CCCCCC;}
	.st2{fill:#1398BB;}
	.st3{fill:#31D8FF;}
</style>
<g id="Layer_1">
	<circle class="st0" cx="25.17" cy="68.35" r="5.92"/>
	<path class="st0" d="M36.27,85.81c0.02-0.01,0.03-0.03,0.05-0.04v-2.47c0-3.57-3.1-6.36-6.67-6.36h-8.56
		c-3.57,0-6.46,2.79-6.46,6.36v2.51H36.27z"/>
	<path class="st0" d="M48.67,64.69c0-5.29-4.29-9.58-9.58-9.58H12.01c-5.29,0-9.58,4.29-9.58,9.58V83.6c0,5.29,4.29,9.58,9.58,9.58
		h27.08c5.29,0,9.58-4.29,9.58-9.58V64.69z M46.31,83.72c0,4.04-3.27,7.31-7.31,7.31H11.89c-4.04,0-7.31-3.27-7.31-7.31V64.78
		c0-4.04,3.27-7.31,7.31-7.31h27.11c4.04,0,7.31,3.27,7.31,7.31V83.72z"/>
	<circle class="st1" cx="25.17" cy="16.72" r="5.92"/>
	<path class="st1" d="M36.27,34.18c0.02-0.01,0.03-0.03,0.05-0.04v-2.47c0-3.57-3.1-6.36-6.67-6.36h-8.56
		c-3.57,0-6.46,2.79-6.46,6.36v2.51H36.27z"/>
	<path class="st1" d="M48.67,13.06c0-5.29-4.29-9.58-9.58-9.58H12.01c-5.29,0-9.58,4.29-9.58,9.58v18.91c0,5.29,4.29,9.58,9.58,9.58
		h27.08c5.29,0,9.58-4.29,9.58-9.58V13.06z M46.31,32.09c0,4.04-3.27,7.31-7.31,7.31H11.89c-4.04,0-7.31-3.27-7.31-7.31V13.16
		c0-4.04,3.27-7.31,7.31-7.31h27.11c4.04,0,7.31,3.27,7.31,7.31V32.09z"/>
	<circle class="st2" cx="25.17" cy="117.98" r="5.92"/>
	<path class="st2" d="M36.27,135.44c0.02-0.01,0.03-0.03,0.05-0.04v-2.47c0-3.57-3.1-6.36-6.67-6.36h-8.56
		c-3.57,0-6.46,2.79-6.46,6.36v2.51H36.27z"/>
	<g>
		<path class="st2" d="M39.01,143.74H11.94c-5.76,0-10.45-4.69-10.45-10.45v-18.88c0-5.76,4.69-10.45,10.45-10.45h27.07
			c5.76,0,10.45,4.69,10.45,10.45v18.88C49.45,139.05,44.77,143.74,39.01,143.74z M11.94,107.95c-3.56,0-6.45,2.89-6.45,6.45v18.88
			c0,3.56,2.89,6.45,6.45,6.45h27.07c3.56,0,6.45-2.89,6.45-6.45v-18.88c0-3.56-2.89-6.45-6.45-6.45H11.94z"/>
		<path class="st3" d="M39.01,104.82c5.29,0,9.58,4.3,9.58,9.58v18.88c0,5.29-4.3,9.58-9.58,9.58H11.94c-5.29,0-9.58-4.3-9.58-9.58
			v-18.88c0-5.29,4.3-9.58,9.58-9.58H39.01 M11.94,140.6h27.07c4.03,0,7.31-3.28,7.31-7.31v-18.88c0-4.03-3.28-7.31-7.31-7.31H11.94
			c-4.03,0-7.31,3.28-7.31,7.31v18.88C4.62,137.32,7.9,140.6,11.94,140.6 M39.01,103.96H11.94c-5.76,0-10.45,4.69-10.45,10.45v18.88
			c0,5.76,4.69,10.45,10.45,10.45h27.07c5.76,0,10.45-4.69,10.45-10.45v-18.88C49.45,108.65,44.77,103.96,39.01,103.96L39.01,103.96
			z M11.94,139.74c-3.56,0-6.45-2.89-6.45-6.45v-18.88c0-3.56,2.89-6.45,6.45-6.45h27.07c3.56,0,6.45,2.89,6.45,6.45v18.88
			c0,3.56-2.89,6.45-6.45,6.45H11.94L11.94,139.74z"/>
	</g>
</g>
<g id="Layer_2">
</g>
</svg>
