<?xml version="1.0" encoding="utf-8"?>
<!-- Generator: Adobe Illustrator 19.2.0, SVG Export Plug-In . SVG Version: 6.00 Build 0)  -->
<svg version="1.1" id="Layer_1" xmlns="http://www.w3.org/2000/svg" xmlns:xlink="http://www.w3.org/1999/xlink" x="0px" y="0px"
	 viewBox="0 0 72 152" style="enable-background:new 0 0 72 152;" xml:space="preserve">
<style type="text/css">
	.st0{fill:#1794C3;}
	.st1{fill:#FFFFFF;}
</style>
<polygon class="st0" points="39.8,152 2.1,152 2.1,0 39.8,0 71.2,76 "/>
<rect x="0.8" class="st1" width="2.3" height="152"/>
<g>
	<path d="M29.9,69.7c0.4,0.2,0.7,0.6,0.7,1.1c0,1,0.1,4.3,0.1,5.3c1.5,0.4,5.3,1.8,6.7,2.1c0.2,0,0.4,0,0.6,0.1
		c0.3,0.1,0.5,0.4,0.5,0.9c0,0.2,0,0.3,0,0.5c0,2.2,0,1.6-0.1,3.8c-0.1,2.3-1.1,4-3.3,4.9c-1.6,0.7-3,0.8-4.3,0.1
		c-0.4-0.2-0.7-0.4-1.1-0.8c-2.1-1.8-4.3-3.5-6.5-5.3c-0.5-0.4-0.7-1.1-0.4-1.7c0.3-0.6,0.9-0.9,1.5-0.7c0.1,0,0.2,0.1,0.3,0.1
		c0.1,0.1,0.3,0.2,0.4,0.3c0.9,0.8,1.5,1.5,2.4,2.3c0,0,0,0,0,0c0,0,0.1,0,0.1,0.1c0-0.2,0-0.3,0-0.5c0.1-3.7,0.2-7.4,0.3-11.2
		c0-0.5,0.1-1,0.5-1.4c0.4-0.3,0.9-0.4,1.3-0.2C29.9,69.7,29.9,69.7,29.9,69.7 M31,67.6c-0.1,0-0.2-0.1-0.3-0.1
		c-1.2-0.5-2.6-0.4-3.7,0.4c-1.5,1.1-1.5,2.7-1.5,3.2c-0.1,2.3-0.1,4.6-0.2,6.8c-0.1,0-0.2-0.1-0.3-0.1c-1.7-0.5-3.5,0.3-4.4,2
		c-0.4,0.8-0.5,1.7-0.3,2.5c0.2,0.8,0.7,1.5,1.3,2.1c0.7,0.6,1.4,1.2,2.1,1.7c1.4,1.1,2.9,2.3,4.3,3.5c0.5,0.4,1,0.8,1.5,1
		c2.5,1.3,4.8,0.6,6.3-0.1c2.9-1.3,4.5-3.8,4.7-7c0-1.3,0.1-1.7,0.1-2.2c0-0.3,0-0.8,0-1.7c0-0.3,0-0.5,0-0.8
		c-0.1-1.2-0.8-2.2-1.8-2.7c-0.4-0.2-0.8-0.3-1.2-0.4c-0.8-0.2-2.3-0.7-3.7-1.2c-0.4-0.1-0.8-0.3-1.1-0.4c0-0.5,0-1,0-1.6
		c0-0.8,0-1.6,0-2C33,69.4,32.3,68.3,31,67.6L31,67.6z"/>
</g>
<path d="M41,65.6l-4.2-3.9l-0.2,2.4c-2.1-0.9-4.6-1.4-7.3-1.4c-2.8,0-5.4,0.5-7.4,1.5l-0.3-2.6l-4,4.1l4.9,2.9l-0.3-2.4
	c1.9-1,4.4-1.6,7.2-1.6c2.6,0,5.2,0.5,7.1,1.5l-0.2,2.6L41,65.6z"/>
<g>
	<path class="st1" d="M29.6,68.6c0.4,0.2,0.7,0.6,0.7,1.1c0,1,0.1,4.3,0.1,5.3c1.5,0.4,5.3,1.8,6.7,2.1c0.2,0.1,0.4,0.1,0.6,0.2
		c0.3,0.1,0.5,0.4,0.5,0.8c0,0.2,0,0.3,0,0.5c0,2.2,0,1.6-0.1,3.8c-0.1,2.3-1.1,4-3.3,4.9c-1.6,0.7-3,0.8-4.3,0.1
		c-0.4-0.2-0.7-0.4-1.1-0.8c-2.1-1.8-4.3-3.5-6.5-5.3c-0.5-0.4-0.7-1.1-0.4-1.7c0.3-0.6,0.9-0.9,1.5-0.7c0.1,0,0.2,0.1,0.3,0.1
		c0.1,0.1,0.3,0.2,0.4,0.3c0.9,0.8,1.5,1.5,2.4,2.3c0,0,0,0,0,0c0,0,0.1,0,0.1,0.1c0-0.2,0-0.3,0-0.5c0.1-3.7,0.2-7.4,0.3-11.2
		c0-0.5,0.1-1,0.5-1.4c0.4-0.3,0.9-0.4,1.3-0.2C29.5,68.6,29.5,68.6,29.6,68.6 M30.7,66.5c-0.1,0-0.2-0.1-0.3-0.1
		c-1.2-0.5-2.6-0.4-3.7,0.4c-1.5,1.1-1.5,2.7-1.5,3.2c-0.1,2.3-0.1,4.6-0.2,6.8c-0.1,0-0.2-0.1-0.3-0.1c-1.7-0.5-3.5,0.3-4.4,2
		c-0.4,0.8-0.5,1.7-0.3,2.5c0.2,0.8,0.7,1.5,1.3,2.1c0.7,0.6,1.4,1.2,2.1,1.7c1.4,1.1,2.9,2.3,4.3,3.5c0.5,0.4,1,0.8,1.5,1
		c2.5,1.3,4.8,0.6,6.3-0.1c2.9-1.3,4.5-3.8,4.7-7c0-1.3,0.1-1.7,0.1-2.2c0-0.3,0-0.8,0-1.7c0-0.3,0-0.5,0-0.8
		c-0.1-1.2-0.7-2.1-1.7-2.6c-0.4-0.2-0.9-0.4-1.3-0.5c-0.8-0.2-2.3-0.7-3.7-1.2c-0.4-0.1-0.8-0.3-1.1-0.4c0-0.5,0-1,0-1.6
		c0-0.8,0-1.6-0.1-2C32.6,68.3,31.9,67.2,30.7,66.5L30.7,66.5z"/>
</g>
<path class="st1" d="M40.6,64.5l-4.2-3.9L36.2,63c-2.1-0.9-4.6-1.4-7.3-1.4c-2.8,0-5.4,0.5-7.4,1.5l-0.3-2.6l-4,4.1l4.9,2.9
	l-0.3-2.4c1.9-1,4.4-1.6,7.2-1.6c2.6,0,5.2,0.5,7.1,1.5l-0.2,2.6L40.6,64.5z"/>
</svg>
