<?xml version="1.0" encoding="utf-8"?>
<!-- Generator: Adobe Illustrator 19.2.0, SVG Export Plug-In . SVG Version: 6.00 Build 0)  -->
<svg version="1.1" id="Layer_1" xmlns="http://www.w3.org/2000/svg" xmlns:xlink="http://www.w3.org/1999/xlink" x="0px" y="0px"
	 viewBox="0 0 50 50" style="enable-background:new 0 0 50 50;" xml:space="preserve">
<style type="text/css">
	.st0{fill:#FFFFFF;}
</style>
<g>
	<path d="M25.9,20.6c0.29,0.15,0.47,0.38,0.48,0.72c0,0.7,0.1,2.92,0.08,3.62c1,0.3,3.61,1.19,4.56,1.45
		c0.15,0.01,0.27,0.03,0.38,0.09c0.2,0.1,0.33,0.3,0.36,0.58c0.01,0.11,0.02,0.22,0.02,0.33c-0.03,1.5,0.01,1.08-0.05,2.58
		c-0.06,1.55-0.78,2.72-2.21,3.34c-1.12,0.49-2.01,0.57-2.92,0.1c-0.25-0.13-0.5-0.3-0.76-0.51c-1.46-1.21-2.95-2.39-4.42-3.59
		c-0.37-0.3-0.48-0.75-0.29-1.15c0.19-0.39,0.63-0.61,1.05-0.49c0.06,0.02,0.12,0.04,0.18,0.07c0.1,0.05,0.19,0.11,0.27,0.18
		c0.64,0.51,1,1.02,1.63,1.53c0,0,0.01,0,0.01,0.01c0.01,0.01,0.04,0.01,0.09,0.04c0-0.12,0.01-0.23,0.01-0.33
		c0.06-2.53,0.12-5.06,0.18-7.59c0.01-0.36,0.06-0.69,0.37-0.92c0.28-0.2,0.58-0.25,0.89-0.12C25.85,20.57,25.88,20.58,25.9,20.6
		 M26.64,19.16c-0.06-0.03-0.12-0.06-0.18-0.09c-0.83-0.36-1.74-0.25-2.48,0.3c-1,0.73-1.03,1.83-1.04,2.19
		c-0.04,1.54-0.07,3.11-0.11,4.64c-0.07-0.02-0.13-0.05-0.2-0.07c-1.17-0.34-2.41,0.22-2.96,1.33c-0.26,0.53-0.32,1.14-0.18,1.71
		c0.14,0.55,0.45,1.03,0.91,1.4c0.49,0.4,0.98,0.8,1.46,1.18c0.97,0.78,1.97,1.59,2.94,2.4c0.35,0.29,0.7,0.52,1.05,0.71
		c1.72,0.88,3.28,0.39,4.3-0.06c1.96-0.86,3.09-2.55,3.18-4.76c0.03-0.89,0.04-1.13,0.04-1.47c0-0.23,0-0.51,0.01-1.13
		c0-0.18,0-0.37-0.03-0.56c-0.1-0.82-0.54-1.49-1.23-1.84c-0.25-0.13-0.53-0.21-0.82-0.25c-0.56-0.16-1.57-0.49-2.48-0.79
		c-0.27-0.09-0.53-0.17-0.78-0.25c-0.01-0.34-0.02-0.7-0.03-1.06C28.02,22.12,28,21.58,28,21.31
		C27.99,20.39,27.49,19.59,26.64,19.16L26.64,19.16z"/>
</g>
<path d="M33.4,17.76l-2.87-2.64l-0.13,1.65c-1.42-0.61-3.13-0.95-4.95-0.95c-1.91,0-3.66,0.37-5.06,1.04l-0.23-1.76l-2.73,2.79
	l3.35,2l-0.22-1.66c1.27-0.71,3.01-1.11,4.89-1.11c1.8,0,3.52,0.37,4.84,1.03l-0.14,1.79L33.4,17.76z"/>
<g>
	<path class="st0" d="M25.64,19.86c0.29,0.15,0.47,0.38,0.48,0.72c0,0.7,0.1,2.92,0.08,3.62c1,0.3,3.61,1.19,4.56,1.45
		c0.16,0.04,0.28,0.08,0.39,0.13c0.2,0.1,0.31,0.26,0.35,0.54c0.01,0.11,0.02,0.22,0.02,0.33c-0.03,1.5,0.01,1.08-0.05,2.58
		c-0.06,1.55-0.78,2.72-2.21,3.34c-1.12,0.49-2.01,0.57-2.92,0.1c-0.25-0.13-0.5-0.3-0.76-0.51c-1.46-1.21-2.95-2.39-4.42-3.59
		c-0.37-0.3-0.48-0.75-0.29-1.15c0.19-0.39,0.63-0.61,1.05-0.49c0.06,0.02,0.12,0.04,0.18,0.07c0.1,0.05,0.19,0.11,0.27,0.18
		c0.64,0.51,1,1.02,1.63,1.53c0,0,0.01,0,0.01,0.01c0.01,0.01,0.04,0.01,0.09,0.04c0-0.12,0.01-0.23,0.01-0.33
		c0.06-2.53,0.12-5.06,0.18-7.59c0.01-0.36,0.06-0.69,0.37-0.92c0.28-0.2,0.58-0.25,0.89-0.12C25.59,19.83,25.62,19.84,25.64,19.86
		 M26.38,18.42c-0.06-0.03-0.12-0.06-0.18-0.09c-0.83-0.36-1.74-0.25-2.48,0.3c-1,0.73-1.03,1.83-1.04,2.19
		c-0.04,1.54-0.07,3.11-0.11,4.64c-0.07-0.02-0.13-0.05-0.2-0.07c-1.17-0.34-2.41,0.22-2.96,1.33c-0.26,0.53-0.32,1.14-0.18,1.71
		c0.14,0.55,0.45,1.03,0.91,1.4c0.49,0.4,0.98,0.8,1.46,1.18c0.97,0.78,1.97,1.59,2.94,2.4c0.35,0.29,0.7,0.52,1.05,0.71
		c1.72,0.88,3.28,0.39,4.3-0.06c1.96-0.86,3.09-2.55,3.18-4.76c0.03-0.89,0.04-1.13,0.04-1.47c0-0.23,0-0.51,0.01-1.13
		c0-0.18,0-0.37-0.03-0.56c-0.1-0.82-0.45-1.41-1.13-1.76c-0.25-0.13-0.61-0.24-0.91-0.32c-0.56-0.16-1.57-0.49-2.48-0.79
		c-0.27-0.09-0.53-0.17-0.78-0.25c-0.01-0.34-0.02-0.7-0.03-1.06c-0.02-0.57-0.03-1.11-0.04-1.38
		C27.73,19.65,27.23,18.85,26.38,18.42L26.38,18.42z"/>
</g>
<path class="st0" d="M33.14,17.02l-2.87-2.64l-0.13,1.65c-1.42-0.61-3.13-0.95-4.95-0.95c-1.91,0-3.66,0.37-5.06,1.04l-0.23-1.76
	l-2.73,2.79l3.35,2l-0.22-1.66c1.27-0.71,3.01-1.11,4.89-1.11c1.8,0,3.52,0.37,4.84,1.03l-0.14,1.79L33.14,17.02z"/>
</svg>
