<?xml version="1.0" encoding="utf-8"?>
<!DOCTYPE svg PUBLIC "-//W3C//DTD SVG 1.1//EN" "http://www.w3.org/Graphics/SVG/1.1/DTD/svg11.dtd">
<svg xmlns="http://www.w3.org/2000/svg" xmlns:xlink="http://www.w3.org/1999/xlink" version="1.1" baseProfile="full" width="1880" height="320" viewBox="0 0 1880.00 320.00" enable-background="new 0 0 1880.00 320.00" xml:space="preserve">
	<radialGradient id="SVGID_Fill1_" cx="-571.529" cy="-604.157" r="3176.39" gradientUnits="userSpaceOnUse">
		<stop offset="0.451163" stop-color="#01BDFF" stop-opacity="1"/>
		<stop offset="0.827907" stop-color="#8C1AFF" stop-opacity="1"/>
	</radialGradient>
	<path fill="url(#SVGID_Fill1_)" stroke-width="0.2" stroke-linejoin="round" d="M 28.723,5.00146L 1706.72,5.00146C 1726.61,5.00146 1750.24,21.1192 1759.51,41.0015L 1870.49,278.999C 1879.76,298.881 1871.16,314.999 1851.28,314.999L 173.277,314.999C 153.395,314.999 129.761,298.881 120.49,278.999L 9.51012,41.0015C 0.238872,21.1192 8.84079,5.00146 28.723,5.00146 Z "/>
	<path fill="#36393F" fill-opacity="1" stroke-width="0.2" stroke-linejoin="round" d="M 678.939,23.013L 1697.3,23.0124C 1723.4,22.9324 1739.32,35.2514 1749.85,58.4911L 1844.51,261.508C 1860.58,289.515 1859.52,298.385 1825.06,296.987L 677.061,296.987"/>
	<g>
		<path fill="#FAFAFA" fill-opacity="1" stroke-width="0.2" stroke-linejoin="round" d="M 699.7,159.966C 699.7,145.281 702.032,131.093 706.698,117.404C 711.363,103.714 718.063,91.58 726.796,81.0016C 735.529,70.4231 745.996,61.9604 758.199,55.6133C 770.401,49.2663 784.039,46.0927 799.112,46.0927L 906.779,46.0927L 906.779,93.8823L 800.189,93.8823C 794.686,93.8823 789.003,95.7491 783.142,99.4827C 777.28,103.216 771.896,108.132 766.992,114.23C 762.087,120.328 758.019,127.36 754.789,135.325C 751.559,143.29 749.944,151.379 749.944,159.593C 749.944,167.807 751.499,175.896 754.61,183.861C 757.72,191.826 761.788,198.92 766.812,205.142C 771.837,211.365 777.459,216.343 783.68,220.077C 789.901,223.81 796.122,225.677 802.342,225.677L 906.779,225.677L 906.779,273.467L 798.036,273.467C 782.244,273.467 768.248,270.044 756.045,263.199C 743.843,256.354 733.555,247.456 725.181,236.504C 716.807,225.553 710.466,213.356 706.16,199.915C 701.853,186.475 699.7,173.158 699.7,159.966 Z "/>
		<rect x="1464.81" y="46.0927" fill="#FAFAFA" fill-opacity="1" stroke-width="0.2" stroke-linejoin="round" width="55.9871" height="227.374"/>
	</g>
	<path fill="#FFFFFF" fill-opacity="1" stroke-width="0.2" stroke-linejoin="round" d="M 493.02,97.6159L 493.02,139.602L 493,139.602L 493,199.602L 493.02,199.602L 493.02,273.467L 439.123,273.467L 439.123,46.0928L 566.737,46.0928C 578.327,46.0928 588.237,48.2707 596.467,52.6265C 604.696,56.9823 611.419,62.7071 616.635,69.8009C 621.851,76.8946 625.618,84.9218 627.936,93.8824C 630.254,102.843 631.413,111.928 631.413,121.137C 631.413,128.604 630.428,136.009 628.457,143.352C 626.487,150.695 623.763,157.54 620.286,163.887C 616.809,170.234 612.578,175.896 607.594,180.874C 602.61,185.852 597.104,189.71 591.077,192.448L 654.363,273.467L 588.295,273.467L 521,188.288L 521,149.512L 566.737,149.512C 568.359,149.512 569.982,148.517 571.605,146.526C 573.227,144.534 574.618,142.17 575.777,139.432C 576.937,136.694 577.922,133.894 578.733,131.031C 579.544,128.169 579.95,125.991 579.95,124.498C 579.95,122.257 579.718,119.644 579.255,116.657C 578.791,113.67 578.038,110.746 576.995,107.883C 575.951,105.021 574.56,102.594 572.822,100.603C 571.083,98.6115 569.055,97.6159 566.737,97.6159L 493.02,97.6159 Z "/>
	<g>
		<rect x="340.465" y="46.0927" fill="#FFFFFF" fill-opacity="1" stroke-width="0.2" stroke-linejoin="round" width="54.9846" height="227.374"/>
	</g>
	<path fill="#FFFFFF" fill-opacity="1" stroke-width="0.2" stroke-linejoin="round" d="M 55.5166,46.093L 161.961,273.467L 214.479,273.467L 216.626,269.689L 115.436,46.093L 55.5166,46.093 Z "/>
	<path fill="#FFFFFF" fill-opacity="1" stroke-width="0.2" stroke-linejoin="round" d="M 231.92,235.709L 319.513,46.0926L 259.594,46.0926L 202.957,171.669L 231.92,235.709 Z "/>
	<path fill="#FAFAFA" fill-opacity="1" stroke-width="0.2" stroke-linejoin="round" d="M 987.874,273.467L 926.863,273.467L 1034.17,46.0927L 1088,46.0927L 1195.67,273.467L 1134.66,273.467L 1106.67,212.983L 1047.45,212.983L 1044.83,212.918L 1065.94,164.447L 1087.65,164.447L 1060.73,106.576"/>
	<path fill="#FAFAFA" fill-opacity="1" stroke-width="0.2" stroke-linejoin="round" d="M 1605.13,273.467L 1544.12,273.467L 1651.43,46.0927L 1705.26,46.0927L 1812.93,273.467L 1751.91,273.467L 1723.92,212.983L 1664.7,212.983L 1662,212.918L 1683.24,164.447L 1704.9,164.447L 1677.98,106.576"/>
	<path fill="#FAFAFA" fill-opacity="1" stroke-width="0.2" stroke-linejoin="round" d="M 1438.98,159.966C 1438.98,173.158 1436.83,186.475 1432.52,199.915C 1428.22,213.356 1421.88,225.553 1413.5,236.504C 1405.13,247.456 1394.84,256.354 1382.64,263.199C 1370.43,270.044 1356.44,273.467 1340.65,273.467L 1217.91,273.467L 1217.91,121.9L 1272.1,121.9L 1272.1,225.677L 1335.98,225.677C 1342.2,225.677 1348.42,223.81 1354.64,220.077C 1360.86,216.343 1366.49,211.365 1371.51,205.142C 1376.54,198.92 1380.6,191.826 1383.71,183.861C 1386.82,175.896 1388.38,167.807 1388.38,159.593C 1388.38,150.632 1386.58,142.17 1383,134.205C 1379.41,126.24 1375.04,119.271 1369.9,113.297C 1364.75,107.323 1359.31,102.594 1353.57,99.1094C 1347.82,95.6247 1342.8,93.8824 1338.49,93.8824L 1272.1,93.8824L 1272.1,93.9001L 1217.91,93.9001L 1217.91,46.0927L 1332.03,46.0927C 1350.46,46.0927 1366.43,49.0796 1379.95,55.0533C 1393.46,61.0269 1404.59,69.1163 1413.32,79.3215C 1422.06,89.5265 1428.52,101.536 1432.7,115.35C 1436.89,129.165 1438.98,144.037 1438.98,159.966 Z "/>
</svg>
