<?xml version="1.0" encoding="UTF-8" standalone="no"?>
<svg
   xmlns:dc="http://purl.org/dc/elements/1.1/"
   xmlns:cc="http://creativecommons.org/ns#"
   xmlns:rdf="http://www.w3.org/1999/02/22-rdf-syntax-ns#"
   xmlns:svg="http://www.w3.org/2000/svg"
   xmlns="http://www.w3.org/2000/svg"
   id="svg33"
   xml:space="preserve"
   enable-background="new 0 0 1880.00 320.00"
   viewBox="0 0 1908 641.3"
   height="121"
   width="360"
   version="1.1"><metadata
   id="metadata39"><rdf:RDF><cc:Work
       rdf:about=""><dc:format>image/svg+xml</dc:format><dc:type
         rdf:resource="http://purl.org/dc/dcmitype/StillImage" /><dc:title></dc:title></cc:Work></rdf:RDF></metadata><defs
   id="defs37" />
	<radialGradient
   gradientTransform="translate(19.976565,140.82379)"
   gradientUnits="userSpaceOnUse"
   r="3176.3899"
   cy="-604.15698"
   cx="-571.52899"
   id="SVGID_Fill1_">
		<stop
   id="stop2"
   stop-opacity="1"
   stop-color="#01BDFF"
   offset="0.451163" />
		<stop
   id="stop4"
   stop-opacity="1"
   stop-color="#8C1AFF"
   offset="0.827907" />
	</radialGradient>
	<path
   style="fill:url(#SVGID_Fill1_);stroke-width:0.2;stroke-linejoin:round"
   id="path7"
   d="M 48.699565,145.82525 H 1726.6966 c 19.89,0 43.52,16.11774 52.79,36.00004 l 110.98,237.9975 c 9.27,19.882 0.67,36 -19.21,36 H 193.25357 c -19.882,0 -43.516,-16.118 -52.787,-36 L 29.486685,181.82529 c -9.271248,-19.8823 -0.66933,-36.00004 19.21288,-36.00004 z" />
	<path
   style="fill:#36393f;fill-opacity:1;stroke-width:0.2;stroke-linejoin:round"
   id="path9"
   d="m 698.91557,163.83679 1018.36103,-6e-4 c 26.1,-0.08 42.02,12.239 52.55,35.4787 l 94.66,203.0169 c 16.07,28.007 15.01,36.877 -19.45,35.479 H 697.03757" />
	<g
   transform="translate(19.976565,140.82379)"
   id="g15">
		<path
   style="fill:#fafafa;fill-opacity:1;stroke-width:0.2;stroke-linejoin:round"
   id="path11"
   d="m 699.7,159.966 c 0,-14.685 2.332,-28.873 6.998,-42.562 4.665,-13.69 11.365,-25.824 20.098,-36.4024 8.733,-10.5785 19.2,-19.0412 31.403,-25.3883 12.202,-6.347 25.84,-9.5206 40.913,-9.5206 h 107.667 v 47.7896 h -106.59 c -5.503,0 -11.186,1.8668 -17.047,5.6004 -5.862,3.7333 -11.246,8.6493 -16.15,14.7473 -4.905,6.098 -8.973,13.13 -12.203,21.095 -3.23,7.965 -4.845,16.054 -4.845,24.268 0,8.214 1.555,16.303 4.666,24.268 3.11,7.965 7.178,15.059 12.202,21.281 5.025,6.223 10.647,11.201 16.868,14.935 6.221,3.733 12.442,5.6 18.662,5.6 h 104.437 v 47.79 H 798.036 c -15.792,0 -29.788,-3.423 -41.991,-10.268 -12.202,-6.845 -22.49,-15.743 -30.864,-26.695 -8.374,-10.951 -14.715,-23.148 -19.021,-36.589 -4.307,-13.44 -6.46,-26.757 -6.46,-39.949 z" />
		<rect
   style="fill:#fafafa;fill-opacity:1;stroke-width:0.2;stroke-linejoin:round"
   id="rect13"
   height="227.37399"
   width="55.987099"
   y="46.092701"
   x="1464.8101" />
	</g>
	<path
   style="fill:#ffffff;fill-opacity:1;stroke-width:0.2;stroke-linejoin:round"
   id="path17"
   d="m 512.99657,238.43969 v 41.9861 h -0.02 v 60 h 0.02 v 73.865 h -53.897 v -227.3742 h 127.614 c 11.59,0 21.5,2.1779 29.73,6.5337 8.229,4.3558 14.952,10.0806 20.168,17.1744 5.216,7.0937 8.983,15.1209 11.301,24.0815 2.318,8.9606 3.477,18.0456 3.477,27.2546 0,7.467 -0.985,14.872 -2.956,22.215 -1.97,7.343 -4.694,14.188 -8.171,20.535 -3.477,6.347 -7.708,12.009 -12.692,16.987 -4.984,4.978 -10.49,8.836 -16.517,11.574 l 63.286,81.019 h -66.068 l -67.295,-85.179 v -38.776 h 45.737 c 1.622,0 3.245,-0.995 4.868,-2.986 1.622,-1.992 3.013,-4.356 4.172,-7.094 1.16,-2.738 2.145,-5.538 2.956,-8.401 0.811,-2.862 1.217,-5.04 1.217,-6.533 0,-2.241 -0.232,-4.854 -0.695,-7.841 -0.464,-2.987 -1.217,-5.911 -2.26,-8.774 -1.044,-2.862 -2.435,-5.289 -4.173,-7.28 -1.739,-1.9915 -3.767,-2.9871 -6.085,-2.9871 z" />
	<g
   transform="translate(19.976565,140.82379)"
   id="g21">
		<rect
   style="fill:#ffffff;fill-opacity:1;stroke-width:0.2;stroke-linejoin:round"
   id="rect19"
   height="227.37399"
   width="54.9846"
   y="46.092701"
   x="340.465" />
	</g>
	<path
   style="fill:#ffffff;fill-opacity:1;stroke-width:0.2;stroke-linejoin:round"
   id="path23"
   d="m 75.493165,186.91679 106.444405,227.374 h 52.518 l 2.147,-3.778 -101.19,-223.596 z" />
	<path
   style="fill:#ffffff;fill-opacity:1;stroke-width:0.2;stroke-linejoin:round"
   id="path25"
   d="m 251.89657,376.53279 87.593,-189.6164 h -59.919 l -56.637,125.5764 z" />
	<path
   style="fill:#fafafa;fill-opacity:1;stroke-width:0.2;stroke-linejoin:round"
   id="path27"
   d="m 1007.8506,414.29079 h -61.01103 l 107.30703,-227.3743 h 53.83 l 107.67,227.3743 h -61.01 l -27.99,-60.484 h -59.22 l -2.62,-0.065 21.11,-48.471 h 21.71 l -26.92,-57.871" />
	<path
   style="fill:#fafafa;fill-opacity:1;stroke-width:0.2;stroke-linejoin:round"
   id="path29"
   d="m 1625.1066,414.29079 h -61.01 l 107.31,-227.3743 h 53.83 l 107.67,227.3743 h -61.02 l -27.99,-60.484 h -59.22 l -2.7,-0.065 21.24,-48.471 h 21.66 l -26.92,-57.871" />
	<path
   style="fill:#fafafa;fill-opacity:1;stroke-width:0.2;stroke-linejoin:round"
   id="path31"
   d="m 1458.9566,300.78979 c 0,13.192 -2.15,26.509 -6.46,39.949 -4.3,13.441 -10.64,25.638 -19.02,36.589 -8.37,10.952 -18.66,19.85 -30.86,26.695 -12.21,6.845 -26.2,10.268 -41.99,10.268 h -122.74 v -151.567 h 54.19 v 103.777 h 63.88 c 6.22,0 12.44,-1.867 18.66,-5.6 6.22,-3.734 11.85,-8.712 16.87,-14.935 5.03,-6.222 9.09,-13.316 12.2,-21.281 3.11,-7.965 4.67,-16.054 4.67,-24.268 0,-8.961 -1.8,-17.423 -5.38,-25.388 -3.59,-7.965 -7.96,-14.934 -13.1,-20.908 -5.15,-5.974 -10.59,-10.703 -16.33,-14.1876 -5.75,-3.4847 -10.77,-5.227 -15.08,-5.227 h -66.39 v 0.0177 h -54.19 v -47.8074 h 114.12 c 18.43,0 34.4,2.9869 47.92,8.9606 13.51,5.9736 24.64,14.063 33.37,24.2682 8.74,10.205 15.2,22.2145 19.38,36.0285 4.19,13.815 6.28,28.687 6.28,44.616 z" />
</svg>