<svg xmlns="http://www.w3.org/2000/svg" xmlns:xlink="http://www.w3.org/1999/xlink" version="1.1" x="0px" y="0px" viewBox="0 0 44 55" enable-background="new 0 0 44 44" xml:space="preserve"><path d="M30.201,10.811h-1.599v-0.076c0-0.754-0.612-1.367-1.366-1.367h-2.063c0.005-0.074,0.023-0.146,0.023-0.225  c0-1.766-1.432-3.197-3.197-3.197s-3.197,1.432-3.197,3.197c0,0.078,0.018,0.15,0.023,0.225h-2.063  c-0.754,0-1.366,0.613-1.366,1.367v0.076h-1.599c-1.38,0-2.502,1.123-2.502,2.502v22.24c0,1.379,1.122,2.502,2.502,2.502h16.402  c1.38,0,2.502-1.123,2.502-2.502v-22.24C32.703,11.934,31.581,10.811,30.201,10.811z M22,7.893c0.691,0,1.251,0.559,1.251,1.25  s-0.56,1.252-1.251,1.252s-1.251-0.561-1.251-1.252S21.309,7.893,22,7.893z M31.035,35.553c0,0.459-0.374,0.834-0.834,0.834H13.799  c-0.46,0-0.834-0.375-0.834-0.834v-22.24c0-0.459,0.374-0.834,0.834-0.834h1.599v1.443h13.205v-1.443h1.599  c0.46,0,0.834,0.375,0.834,0.834V35.553z"/><rect x="15.397" y="16.648" width="13.205" height="0.975"/><rect x="15.397" y="20.402" width="13.205" height="0.973"/><rect x="15.397" y="24.154" width="13.205" height="0.975"/><rect x="15.397" y="27.908" width="13.205" height="0.973"/><rect x="15.397" y="31.66" width="13.205" height="0.975"/><text x="0" y="59" fill="#000000" font-size="5px" font-weight="bold" font-family="'Helvetica Neue', Helvetica, Arial-Unicode, Arial, Sans-serif">Created by Bieutuong Bon</text><text x="0" y="64" fill="#000000" font-size="5px" font-weight="bold" font-family="'Helvetica Neue', Helvetica, Arial-Unicode, Arial, Sans-serif">from the Noun Project</text></svg>