<svg width="55" height="67" viewBox="0 0 55 67" fill="none" xmlns="http://www.w3.org/2000/svg">
<circle cx="39" cy="21" r="2" fill="#1398BB"/>
<circle cx="45" cy="21" r="2" fill="#1398BB"/>
<path d="M45 32H10V65L14.5 60.5L18.5 65L23 60.5L27.5 65L32 60.5L36 65L40.5 60.5L45 65V32Z" stroke="#1398BB" stroke-width="3" stroke-linecap="round" stroke-linejoin="round"/>
<path d="M45 2V16H10V2H45Z" stroke="#1398BB" stroke-width="3" stroke-linecap="round" stroke-linejoin="round"/>
<path d="M45 42H49C51.2091 42 53 40.2091 53 38V20C53 17.7909 51.2091 16 49 16H6C3.79086 16 2 17.7909 2 20V38C2 40.2091 3.79086 42 6 42H10" stroke="#1398BB" stroke-width="3"/>
<path d="M21 47L35 33" stroke="#1398BB" stroke-width="3" stroke-linecap="round" stroke-linejoin="round"/>
<circle cx="34" cy="46" r="3.5" stroke="#1398BB" stroke-width="3"/>
<path d="M18.1273 32C17.7319 32.5669 17.5 33.2564 17.5 34C17.5 35.933 19.067 37.5 21 37.5C22.933 37.5 24.5 35.933 24.5 34C24.5 33.2564 24.2681 32.5669 23.8727 32" stroke="#1398BB" stroke-width="3"/>
</svg>
