<?xml version="1.0" encoding="UTF-8" standalone="no"?>
<svg width="233px" height="48px" viewBox="0 0 233 48" version="1.1" xmlns="http://www.w3.org/2000/svg" xmlns:xlink="http://www.w3.org/1999/xlink">
    <!-- Generator: Sketch 45.2 (43514) - http://www.bohemiancoding.com/sketch -->
    <title>BOUNCE</title>
    <desc>Created with Sketch.</desc>
    <defs></defs>
    <g id="Physics-Tool" stroke="none" stroke-width="1" fill="none" fill-rule="evenodd">
        <g id="Physics---Default" transform="translate(-1272.000000, -2154.000000)" fill="#FFFFFF">
            <path d="M1295.564,2176.576 C1300.556,2177.536 1305.612,2179.904 1305.612,2187.136 C1305.612,2197.056 1297.612,2200 1286.732,2200 L1272.908,2200 L1272.908,2155.712 L1285.004,2155.712 C1296.588,2155.712 1303.692,2158.848 1303.692,2167.04 C1303.692,2172.608 1299.66,2175.616 1295.564,2176.576 Z M1282.316,2162.496 L1282.316,2173.696 L1286.924,2173.696 C1291.404,2173.696 1294.092,2171.84 1294.092,2167.872 C1294.092,2163.776 1291.34,2162.496 1285.9,2162.496 L1282.316,2162.496 Z M1286.796,2193.024 C1292.044,2193.024 1295.82,2192 1295.82,2186.752 C1295.82,2181.824 1292.364,2180.096 1287.628,2180.096 L1282.316,2180.096 L1282.316,2193.024 L1286.796,2193.024 Z M1329.74,2154.688 C1341.9,2154.688 1349.388,2163.008 1349.388,2177.856 C1349.388,2192.384 1341.9,2201.024 1329.74,2201.024 C1317.58,2201.024 1310.028,2192.64 1310.028,2177.856 C1310.028,2163.392 1317.58,2154.688 1329.74,2154.688 Z M1329.74,2161.728 C1323.468,2161.728 1319.948,2166.272 1319.948,2177.856 C1319.948,2189.44 1323.596,2193.984 1329.74,2193.984 C1336.076,2193.984 1339.468,2189.44 1339.468,2177.856 C1339.468,2166.272 1336.076,2161.728 1329.74,2161.728 Z M1389.58,2185.408 L1389.58,2155.712 L1380.172,2155.712 L1380.172,2184.96 C1380.172,2190.912 1377.868,2193.856 1372.684,2193.856 C1367.564,2193.856 1365.26,2190.912 1365.26,2184.96 L1365.26,2155.712 L1355.852,2155.712 L1355.852,2185.408 C1355.852,2194.624 1361.484,2201.024 1372.684,2201.024 C1383.884,2201.024 1389.58,2194.304 1389.58,2185.408 Z M1431.756,2200 L1431.756,2155.712 L1423.244,2155.712 L1423.244,2175.168 C1423.244,2181.76 1424.076,2187.904 1424.524,2190.912 L1410.188,2155.712 L1398.348,2155.712 L1398.348,2200 L1406.86,2200 L1406.86,2182.784 C1406.86,2174.592 1406.092,2168.832 1405.58,2164.864 L1419.66,2200 L1431.756,2200 Z M1458.444,2154.688 C1447.372,2154.688 1438.86,2162.88 1438.86,2177.792 C1438.86,2192.896 1446.924,2201.024 1458.7,2201.024 C1464.844,2201.024 1469.516,2198.336 1472.332,2195.456 L1467.98,2189.888 C1465.42,2191.872 1462.86,2193.6 1459.148,2193.6 C1453.068,2193.6 1448.78,2188.928 1448.78,2177.792 C1448.78,2166.272 1453.132,2161.792 1459.02,2161.792 C1462.092,2161.792 1464.652,2162.88 1467.084,2164.992 L1471.82,2159.488 C1468.172,2156.416 1464.332,2154.688 1458.444,2154.688 Z M1503.052,2162.56 L1504.076,2155.712 L1477.644,2155.712 L1477.644,2200 L1504.204,2200 L1504.204,2193.088 L1487.052,2193.088 L1487.052,2180.864 L1501.004,2180.864 L1501.004,2174.08 L1487.052,2174.08 L1487.052,2162.56 L1503.052,2162.56 Z" id="BOUNCE"></path>
        </g>
    </g>
</svg>