<?xml version="1.0" encoding="UTF-8" standalone="no"?>
<!-- Generator: Adobe Illustrator 19.2.0, SVG Export Plug-In . SVG Version: 6.00 Build 0)  -->

<svg
   xmlns:dc="http://purl.org/dc/elements/1.1/"
   xmlns:cc="http://creativecommons.org/ns#"
   xmlns:rdf="http://www.w3.org/1999/02/22-rdf-syntax-ns#"
   xmlns:svg="http://www.w3.org/2000/svg"
   xmlns="http://www.w3.org/2000/svg"
   xmlns:sodipodi="http://sodipodi.sourceforge.net/DTD/sodipodi-0.dtd"
   xmlns:inkscape="http://www.inkscape.org/namespaces/inkscape"
   version="1.1"
   x="0px"
   y="0px"
   viewBox="0 0 150 450"
   xml:space="preserve"
   id="svg2"
   inkscape:version="0.91 r13725"
   sodipodi:docname="forward.svg"
   width="150"
   height="450"><metadata
     id="metadata20"><rdf:RDF><cc:Work
         rdf:about=""><dc:format>image/svg+xml</dc:format><dc:type
           rdf:resource="http://purl.org/dc/dcmitype/StillImage" /><dc:title></dc:title></cc:Work></rdf:RDF></metadata><defs
     id="defs18" /><sodipodi:namedview
     pagecolor="#ffffff"
     bordercolor="#666666"
     borderopacity="1"
     objecttolerance="10"
     gridtolerance="10"
     guidetolerance="10"
     inkscape:pageopacity="0"
     inkscape:pageshadow="2"
     inkscape:window-width="1403"
     inkscape:window-height="1036"
     id="namedview16"
     showgrid="false"
     inkscape:zoom="1.5"
     inkscape:cx="4.5171167"
     inkscape:cy="231.30915"
     inkscape:window-x="22"
     inkscape:window-y="0"
     inkscape:window-maximized="0"
     inkscape:current-layer="Layer_1" /><style
     type="text/css"
     id="style4">
	.st0{fill:#414042;}
	.st1{fill:#CCCCCC;}
	.st2{fill:#1398BB;}
	.st3{fill:#31D8FF;}
</style><g
     id="Layer_1"
     style="fill:#00ffff"
     transform="translate(0,300)"><path
       style="fill:#54c9ef;fill-opacity:1"
       id="path4722"
       d="m 53.367796,30.608642 c -1.310707,-1.310723 -3.028178,-2.03384 -4.881237,-2.03384 -1.853062,0 -3.570534,0.723117 -4.881241,2.03384 -2.666601,2.666595 -2.666601,7.050699 0,9.717262 l 42.258854,42.258889 3.344556,3.344531 -3.344556,3.344562 -41.354918,41.354924 c -2.666601,2.66659 -2.666601,7.0507 0,9.71729 1.3107,1.31066 3.028172,2.03381 4.881234,2.03381 1.853062,0 3.570534,-0.72315 4.881238,-2.03381 L 108.68847,85.929324 53.367796,30.608642 Z"
       class="st0"
       inkscape:connector-curvature="0" /><path
       inkscape:connector-curvature="0"
       class="st0"
       d="m 53.367796,-124.59504 c -1.310707,-1.31072 -3.028178,-2.03384 -4.881237,-2.03384 -1.853062,0 -3.570534,0.72312 -4.881241,2.03384 -2.666601,2.6666 -2.666601,7.0507 0,9.71727 l 42.258854,42.258885 3.344556,3.344531 -3.344556,3.344563 -41.354918,41.354921 c -2.666601,2.666595 -2.666601,7.050699 0,9.717294 1.3107,1.31066 3.028172,2.033808 4.881234,2.033808 1.853062,0 3.570534,-0.723148 4.881238,-2.033808 L 108.68847,-69.274354 53.367796,-124.59504 Z"
       id="path4741"
       style="fill:#54c9ef;fill-opacity:1" /><path
       style="fill:#ffffff;fill-opacity:1"
       id="path4743"
       d="m 53.367796,-288.78836 c -1.310707,-1.31073 -3.028178,-2.03384 -4.881237,-2.03384 -1.853062,0 -3.570534,0.72311 -4.881241,2.03384 -2.666601,2.66659 -2.666601,7.0507 0,9.71726 l 42.258854,42.25889 3.344556,3.34453 -3.344556,3.34456 -41.354918,41.35492 c -2.666601,2.6666 -2.666601,7.0507 0,9.7173 1.3107,1.31066 3.028172,2.0338 4.881234,2.0338 1.853062,0 3.570534,-0.72314 4.881238,-2.0338 l 54.416754,-54.41678 -55.320684,-55.32068 z"
       class="st0"
       inkscape:connector-curvature="0" /></g><g
     id="Layer_2"
     transform="translate(0,300)" /></svg>