<svg width="100" height="18" viewBox="0 0 100 18" fill="none" xmlns="http://www.w3.org/2000/svg">
<path d="M8.27077 0.0930176V6.06095H2.98187V0.0930176H0V13.8509H2.98187V8.41861H8.27077V13.8509H11.2526V0.0930176H8.27077Z" fill="white"/>
<path d="M12.982 4.21763H15.6348V13.8507H12.982V4.21763ZM12.7753 1.45509C12.7753 0.628432 13.4374 0 14.2852 0C15.1498 0 15.8162 0.628432 15.8162 1.45509C15.8162 2.28174 15.154 2.91018 14.2852 2.91018C13.4417 2.91018 12.7753 2.28596 12.7753 1.45509Z" fill="white"/>
<path d="M23.8844 8.78563V8.65488C23.8844 7.01422 23.0198 6.01886 21.5647 6.01886C20.0716 6.01886 19.2408 7.08591 19.2408 8.67174V8.81937C19.2408 10.4221 20.1813 11.4174 21.5056 11.4174C22.9059 11.4216 23.8844 10.4263 23.8844 8.78563ZM16.5879 14.0534H19.2408C19.4052 14.9012 20.0168 15.4537 21.3791 15.4537C22.9987 15.4537 23.8085 14.6059 23.8085 13.096V11.641C23.2728 12.5815 22.134 13.4292 20.7127 13.4292C18.3719 13.4292 16.512 11.6789 16.512 8.82357V8.69705C16.512 5.9345 18.3551 3.99863 20.7507 3.99863C22.3154 3.99863 23.2559 4.67766 23.8085 5.65615V4.21793H26.4613V13.096C26.4445 15.9514 24.5465 17.4065 21.3791 17.4065C18.2665 17.4065 16.8494 16.0442 16.5879 14.0534Z" fill="white"/>
<path d="M27.8997 0.092804H30.5694V5.74441C31.046 4.78701 32.1004 3.99411 33.7031 3.99411C35.601 3.99411 36.9423 5.13709 36.9423 7.71406V13.8465H34.2725V8.09786C34.2725 6.79039 33.7579 6.16618 32.577 6.16618C31.434 6.16618 30.5694 6.86631 30.5694 8.28343V13.8465H27.8997V0.092804V0.092804Z" fill="white"/>
<path d="M41.8979 0.0930176H50.3501V2.4338H44.8798V6.50379H49.8693V8.74758H44.8798V13.8509H41.8979V0.0930176Z" fill="white"/>
<path d="M51.5437 4.21763H54.1965V13.8507H51.5437V4.21763ZM51.3412 1.45509C51.3412 0.628432 52.0034 0 52.8511 0C53.7157 0 54.3821 0.628432 54.3821 1.45509C54.3821 2.28174 53.7199 2.91018 52.8511 2.91018C52.0034 2.91018 51.3412 2.28596 51.3412 1.45509Z" fill="white"/>
<path d="M62.4757 9.08057V8.93294C62.4757 7.01814 61.628 6.03965 60.1729 6.03965C58.6798 6.03965 57.8532 7.05188 57.8532 8.96669V9.11429C57.8532 11.0291 58.7726 11.9696 60.1012 11.9696C61.4972 11.9739 62.4757 11.0333 62.4757 9.08057ZM55.1244 9.17335V9.02574C55.1244 5.8583 56.9464 3.99833 59.3589 3.99833C60.9068 3.99833 61.8642 4.67737 62.3998 5.65586V0.092804H65.0527V13.8507H62.3998V12.248C61.9021 13.2223 60.7254 14.0531 59.304 14.0531C56.9675 14.0531 55.1244 12.3787 55.1244 9.17335Z" fill="white"/>
<path d="M73.0239 7.99693C72.9311 6.54185 72.1972 5.84173 70.9235 5.84173C69.7257 5.84173 68.9159 6.63464 68.7135 7.99693H73.0239ZM65.9678 9.15678V9.00915C65.9678 5.96824 68.123 3.99863 70.9235 3.99863C73.4077 3.99863 75.6219 5.4537 75.6219 8.89529V9.63337H68.6797C68.7556 11.2361 69.6203 12.1555 71.0753 12.1555C72.3111 12.1555 72.9185 11.6199 73.0829 10.8101H75.6051C75.293 12.8936 73.6354 14.0534 70.9994 14.0534C68.085 14.0534 65.9678 12.2314 65.9678 9.15678Z" fill="white"/>
<path d="M79.2661 0.0930176H76.6133V13.8509H79.2661V0.0930176Z" fill="white"/>
<path d="M80.7464 4.21763H83.3993V13.8507H80.7464V4.21763ZM80.5439 1.45509C80.5439 0.628432 81.2061 0 82.0539 0C82.9185 0 83.5849 0.628432 83.5849 1.45509C83.5849 2.28174 82.9227 2.91018 82.0539 2.91018C81.2104 2.91018 80.5439 2.28596 80.5439 1.45509Z" fill="white"/>
<path d="M84.8165 10.9618V2.10059H87.4694V4.17987H89.4939V6.07781H87.4694V10.7172C87.4694 11.4932 87.8575 11.8602 88.5365 11.8602C88.9414 11.8602 89.2366 11.8053 89.5487 11.6746V13.737C89.1818 13.8678 88.6461 13.9943 87.9291 13.9943C85.9047 13.9985 84.8165 12.9652 84.8165 10.9618Z" fill="white"/>
<path d="M97.4398 4.17957L95.2846 9.96614L92.9481 4.17957H90.0717L93.9055 12.8383L92.21 17.0939H94.7869L99.9999 4.17957H97.4398Z" fill="white"/>
</svg>
