<?xml version="1.0" encoding="UTF-8" standalone="no"?>
<svg width="363px" height="82px" viewBox="0 0 363 82" version="1.1" xmlns="http://www.w3.org/2000/svg" xmlns:xlink="http://www.w3.org/1999/xlink">
    <!-- Generator: Sketch 45.2 (43514) - http://www.bohemiancoding.com/sketch -->
    <title>CREATE</title>
    <desc>Created with Sketch.</desc>
    <defs></defs>
    <g id="Create-Palette" stroke="none" stroke-width="1" fill="none" fill-rule="evenodd">
        <g id="Empty-Palette" transform="translate(-1019.000000, -200.000000)" fill="#FFFFFF">
            <path d="M1053.612,200.704 C1034.236,200.704 1019.34,215.04 1019.34,241.136 C1019.34,267.568 1033.452,281.792 1054.06,281.792 C1064.812,281.792 1072.988,277.088 1077.916,272.048 L1070.3,262.304 C1065.82,265.776 1061.34,268.8 1054.844,268.8 C1044.204,268.8 1036.7,260.624 1036.7,241.136 C1036.7,220.976 1044.316,213.136 1054.62,213.136 C1059.996,213.136 1064.476,215.04 1068.732,218.736 L1077.02,209.104 C1070.636,203.728 1063.916,200.704 1053.612,200.704 Z M1112.076,249.648 L1103.676,249.648 L1103.676,280 L1087.212,280 L1087.212,202.496 L1111.404,202.496 C1132.124,202.496 1142.652,210 1142.652,225.68 C1142.652,235.984 1137.612,242.144 1127.308,246.624 L1147.356,280 L1128.652,280 L1112.076,249.648 Z M1103.676,238 L1112.3,238 C1120.924,238 1125.628,234.416 1125.628,225.68 C1125.628,217.728 1121.036,214.256 1111.068,214.256 L1103.676,214.256 L1103.676,238 Z M1200.444,214.48 L1202.236,202.496 L1155.98,202.496 L1155.98,280 L1202.46,280 L1202.46,267.904 L1172.444,267.904 L1172.444,246.512 L1196.86,246.512 L1196.86,234.64 L1172.444,234.64 L1172.444,214.48 L1200.444,214.48 Z M1251.74,262.64 L1227.436,262.64 L1223.068,280 L1205.932,280 L1229.788,202.496 L1249.836,202.496 L1273.58,280 L1256.108,280 L1251.74,262.64 Z M1248.604,250.432 L1239.532,214.704 L1230.572,250.432 L1248.604,250.432 Z M1324.764,215.376 L1305.164,215.376 L1305.164,280 L1288.7,280 L1288.7,215.376 L1268.092,215.376 L1268.092,202.496 L1326.556,202.496 L1324.764,215.376 Z M1379.42,214.48 L1381.212,202.496 L1334.956,202.496 L1334.956,280 L1381.436,280 L1381.436,267.904 L1351.42,267.904 L1351.42,246.512 L1375.836,246.512 L1375.836,234.64 L1351.42,234.64 L1351.42,214.48 L1379.42,214.48 Z" id="CREATE"></path>
        </g>
    </g>
</svg>