<?xml version="1.0" encoding="UTF-8" standalone="no"?>
<!-- Generator: Adobe Illustrator 19.2.0, SVG Export Plug-In . SVG Version: 6.00 Build 0)  -->

<svg
   xmlns:dc="http://purl.org/dc/elements/1.1/"
   xmlns:cc="http://creativecommons.org/ns#"
   xmlns:rdf="http://www.w3.org/1999/02/22-rdf-syntax-ns#"
   xmlns:svg="http://www.w3.org/2000/svg"
   xmlns="http://www.w3.org/2000/svg"
   xmlns:sodipodi="http://sodipodi.sourceforge.net/DTD/sodipodi-0.dtd"
   xmlns:inkscape="http://www.inkscape.org/namespaces/inkscape"
   version="1.1"
   x="0px"
   y="0px"
   viewBox="0 0 50 200.1"
   style="enable-background:new 0 0 50 200.1;"
   xml:space="preserve"
   id="svg125"
   sodipodi:docname="Explore.svg"
   inkscape:version="0.92.4 (5da689c313, 2019-01-14)"><metadata
   id="metadata131"><rdf:RDF><cc:Work
       rdf:about=""><dc:format>image/svg+xml</dc:format><dc:type
         rdf:resource="http://purl.org/dc/dcmitype/StillImage" /><dc:title /></cc:Work></rdf:RDF></metadata><defs
   id="defs129" /><sodipodi:namedview
   pagecolor="#ffffff"
   bordercolor="#666666"
   borderopacity="1"
   objecttolerance="10"
   gridtolerance="10"
   guidetolerance="10"
   inkscape:pageopacity="0"
   inkscape:pageshadow="2"
   inkscape:window-width="1920"
   inkscape:window-height="1017"
   id="namedview127"
   showgrid="false"
   showguides="true"
   inkscape:guide-bbox="true"
   inkscape:zoom="5.6568542"
   inkscape:cx="18.340874"
   inkscape:cy="67.670896"
   inkscape:window-x="-8"
   inkscape:window-y="-8"
   inkscape:window-maximized="1"
   inkscape:current-layer="layer6"><sodipodi:guide
     position="14.125,99.999998"
     orientation="0,1"
     id="guide204"
     inkscape:locked="false"
     inkscape:label=""
     inkscape:color="rgb(0,0,255)" /><sodipodi:guide
     position="-85.689885,150"
     orientation="0,1"
     id="guide206"
     inkscape:locked="false"
     inkscape:label=""
     inkscape:color="rgb(0,0,255)" /><sodipodi:guide
     position="-93.693885,49.999999"
     orientation="0,1"
     id="guide208"
     inkscape:locked="false"
     inkscape:label=""
     inkscape:color="rgb(0,0,255)" /><sodipodi:guide
     position="-93.458473,0"
     orientation="0,1"
     id="guide210"
     inkscape:locked="false"
     inkscape:label=""
     inkscape:color="rgb(0,0,255)" /><sodipodi:guide
     position="-62.619531,200"
     orientation="0,1"
     id="guide212"
     inkscape:locked="false"
     inkscape:label=""
     inkscape:color="rgb(0,0,255)" /><sodipodi:guide
     position="20.995787,157.79945"
     orientation="0,1"
     id="guide214"
     inkscape:locked="false" /><sodipodi:guide
     position="22.746663,107.80388"
     orientation="0,1"
     id="guide216"
     inkscape:locked="false" /><sodipodi:guide
     position="22.776089,57.704999"
     orientation="0,1"
     id="guide218"
     inkscape:locked="false"
     inkscape:label=""
     inkscape:color="rgb(0,0,255)" /><sodipodi:guide
     position="20.716236,7.5989999"
     orientation="0,1"
     id="guide220"
     inkscape:locked="false"
     inkscape:label=""
     inkscape:color="rgb(0,0,255)" /><sodipodi:guide
     position="13.21875,164.20312"
     orientation="0,1"
     id="guide230"
     inkscape:locked="false" /><sodipodi:guide
     position="18.292969,164.20703"
     orientation="0,1"
     id="guide5167"
     inkscape:locked="false" /><sodipodi:guide
     position="19.776893,114.21984"
     orientation="0,1"
     id="guide5169"
     inkscape:locked="false" /><sodipodi:guide
     position="18.473165,64.114696"
     orientation="0,1"
     id="guide5171"
     inkscape:locked="false" /><sodipodi:guide
     position="18.649941,14.009553"
     orientation="0,1"
     id="guide5173"
     inkscape:locked="false" /></sodipodi:namedview>
<style
   type="text/css"
   id="style10">
	.st0{fill:#414042;}
	.st1{fill:#FFFFFF;}
	.st2{fill:#1E1E1E;}
	.st3{fill:#333333;}
</style>

<g
   id="Layer_3">
</g>

<g
   inkscape:groupmode="layer"
   id="layer1"
   inkscape:label="Base"
   style="display:inline"><g
     id="Layer_2">
	<g
   id="g16">
		<g
   id="g14">
			<path
   class="st0"
   d="m 50.1,146.1 c 0,2.2 -1.8,4 -4,4 h -42 c -2.2,0 -4,-1.8 -4,-4 v -42 c 0,-2.2 1.8,-4 4,-4 h 42 c 2.2,0 4,1.8 4,4 z"
   id="path12"
   inkscape:connector-curvature="0"
   style="fill:#414042" />
		</g>
	</g>
	<g
   id="g22">
		<g
   id="g20">
			<path
   class="st0"
   d="m 50,196.1 c 0,2.2 -1.8,4 -4,4 H 4 c -2.2,0 -4,-1.8 -4,-4 v -42 c 0,-2.2 1.8,-4 4,-4 h 42 c 2.2,0 4,1.8 4,4 z"
   id="path18"
   inkscape:connector-curvature="0"
   style="fill:#414042" />
		</g>
	</g>
	<g
   id="g28">
		<g
   id="g26">
			<path
   class="st1"
   d="m 50,46 c 0,2.2 -1.8,4 -4,4 H 4 C 1.8,50 0,48.2 0,46 V 4 C 0,1.8 1.8,0 4,0 h 42 c 2.2,0 4,1.8 4,4 z"
   id="path24"
   inkscape:connector-curvature="0"
   style="fill:#ffffff" />
		</g>
	</g>
	<g
   id="g32">
		<path
   class="st2"
   d="m 50,96.1 c 0,2.2 -1.8,4 -4,4 H 4 c -2.2,0 -4,-1.8 -4,-4 v -42 c 0,-2.2 1.8,-4 4,-4 h 42 c 2.2,0 4,1.8 4,4 z"
   id="path30"
   inkscape:connector-curvature="0"
   style="fill:#1e1e1e" />
	</g>
</g></g><g
   inkscape:groupmode="layer"
   id="layer4"
   inkscape:label="Text"
   style="display:none"
   sodipodi:insensitive="true" /><g
   inkscape:groupmode="layer"
   id="layer6"
   inkscape:label="World"
   style="display:inline"><g
     style="fill:#aaccff;stroke:#000000"
     id="g5138"
     transform="matrix(0.06304349,0,0,0.06304349,11.1413,6.36036)"><path
       id="path5124"
       d="m 209,15 a 195,195 0 1 0 2,0 z"
       inkscape:connector-curvature="0"
       style="stroke-width:26;fill:#aaccff" /><path
       id="path5126"
       d="M 210,15 V 405 M 405,210 H 15 M 59,90 a 260,260 0 0 0 302,0 m 0,240 A 260,260 0 0 0 59,330 M 195,20 a 250,250 0 0 0 0,382 m 30,0 a 250,250 0 0 0 0,-382"
       inkscape:connector-curvature="0"
       style="stroke-width:18;fill:#aaccff" /></g><g
     transform="matrix(0.06304349,0,0,0.06304349,11.1413,56.347551)"
     id="g5155"
     style="fill:#aaccff;stroke:#000000"><path
       style="fill:#aaccff;stroke-width:26"
       inkscape:connector-curvature="0"
       d="m 209,15 a 195,195 0 1 0 2,0 z"
       id="path5151" /><path
       style="fill:#aaccff;stroke-width:18"
       inkscape:connector-curvature="0"
       d="M 210,15 V 405 M 405,210 H 15 M 59,90 a 260,260 0 0 0 302,0 m 0,240 A 260,260 0 0 0 59,330 M 195,20 a 250,250 0 0 0 0,382 m 30,0 a 250,250 0 0 0 0,-382"
       id="path5153" /></g><g
     style="fill:#aaccff;stroke:#000000"
     id="g5161"
     transform="matrix(0.06304349,0,0,0.06304349,12.025183,106.4527)"><path
       id="path5157"
       d="m 209,15 a 195,195 0 1 0 2,0 z"
       inkscape:connector-curvature="0"
       style="fill:#aaccff;stroke-width:26" /><path
       id="path5159"
       d="M 210,15 V 405 M 405,210 H 15 M 59,90 a 260,260 0 0 0 302,0 m 0,240 A 260,260 0 0 0 59,330 M 195,20 a 250,250 0 0 0 0,382 m 30,0 a 250,250 0 0 0 0,-382"
       inkscape:connector-curvature="0"
       style="fill:#aaccff;stroke-width:18" /></g><g
     transform="matrix(0.06304349,0,0,0.06304349,12.025183,156.55784)"
     id="g5190"
     style="fill:#aaccff;stroke:#000000"><path
       style="fill:#aaccff;stroke-width:26"
       inkscape:connector-curvature="0"
       d="m 209,15 a 195,195 0 1 0 2,0 z"
       id="path5186" /><path
       style="fill:#aaccff;stroke-width:18"
       inkscape:connector-curvature="0"
       d="M 210,15 V 405 M 405,210 H 15 M 59,90 a 260,260 0 0 0 302,0 m 0,240 A 260,260 0 0 0 59,330 M 195,20 a 250,250 0 0 0 0,382 m 30,0 a 250,250 0 0 0 0,-382"
       id="path5188" /></g></g><text
   xml:space="preserve"
   style="font-style:normal;font-variant:normal;font-weight:normal;font-stretch:normal;font-size:53.33333206px;line-height:1.5;font-family:Verdana;-inkscape-font-specification:Verdana;letter-spacing:0px;word-spacing:0px;fill:#000000;fill-opacity:1;stroke:none"
   x="3.625"
   y="42.300552"
   id="text236"><tspan
     sodipodi:role="line"
     id="tspan234"
     x="3.625"
     y="97.624832" /></text>

<path
   style="font-style:normal;font-variant:normal;font-weight:normal;font-stretch:normal;font-size:8.22626972px;line-height:1.5;font-family:Verdana;-inkscape-font-specification:Verdana;letter-spacing:0px;word-spacing:0px;fill:#000000;fill-opacity:1;stroke:none;stroke-width:0.31582576"
   d="m 30.032087,35.765146 c -0.941155,0 -1.679424,0.297877 -2.214236,0.897073 -0.534805,0.59633 -0.803088,1.408963 -0.803088,2.438204 0,1.020642 0.268283,1.831959 0.803088,2.434022 0.534812,0.599197 1.273081,0.899166 2.214236,0.899166 0.943776,0 1.683255,-0.299969 2.218061,-0.899166 0.534805,-0.602063 0.801179,-1.41338 0.801179,-2.434022 0,-1.029241 -0.267577,-1.841874 -0.805004,-2.438204 -0.537428,-0.599196 -1.275703,-0.897073 -2.214236,-0.897073 z M 4.6754597,35.896884 v 6.404989 H 8.9108061 V 41.06186 H 6.1783862 v -1.582951 h 2.535472 v -1.237921 h -2.535472 v -1.104092 h 2.7324199 v -1.240012 z m 4.8950284,0 2.0344959,3.178447 -2.0765627,3.226542 h 1.6673697 l 1.284944,-2.107813 1.261999,2.107813 h 1.747679 l -2.076563,-3.291366 2.044056,-3.113623 h -1.671192 l -1.254351,1.996984 -1.218021,-1.996984 z m 6.7612579,0 v 6.404989 h 1.508663 v -2.086901 h 0.940763 c 0.427322,0 0.78312,-0.06337 1.068875,-0.19238 0.288377,-0.129014 0.550647,-0.320664 0.783969,-0.572957 0.170406,-0.186354 0.300229,-0.415605 0.391986,-0.687967 0.09175,-0.275228 0.137672,-0.55601 0.137672,-0.842708 0,-0.369839 -0.06155,-0.687681 -0.187386,-0.951442 C 20.853071,36.703757 20.673012,36.488432 20.437067,36.319282 20.240449,36.178801 20.01327,36.074426 19.756353,36.00562 19.502058,35.93395 19.187858,35.896884 18.81559,35.896884 Z m 5.898892,0 v 6.404989 H 26.4526 V 41.06186 h -2.7133 v -5.164976 z m 11.96987,0 v 6.404989 h 1.501016 v -2.348287 h 0.696013 l 1.59662,2.348287 h 1.845202 l -1.954193,-2.745594 c 0.372269,-0.197819 0.657391,-0.44417 0.856629,-0.742334 0.201861,-0.298166 0.302115,-0.685411 0.302115,-1.15846 0,-0.344036 -0.06395,-0.628763 -0.195036,-0.855253 -0.128457,-0.229358 -0.303703,-0.414972 -0.523913,-0.558321 -0.217597,-0.143348 -0.450791,-0.237199 -0.699839,-0.280205 -0.249056,-0.04301 -0.546916,-0.06483 -0.892962,-0.06483 z m 6.306174,0 v 6.404989 h 4.235349 V 41.06186 h -2.732419 v -1.582951 h 2.537381 v -1.237921 h -2.537381 v -1.104092 h 2.732419 v -1.240012 z m -10.47077,1.074817 c 0.18876,0 0.370017,0.03969 0.543047,0.1171 0.175645,0.07741 0.329031,0.202285 0.462731,0.374303 0.131078,0.166285 0.238053,0.385016 0.31932,0.65451 0.08127,0.269496 0.12238,0.594454 0.12238,0.978628 0,0.358371 -0.03627,0.672267 -0.107079,0.938896 -0.07075,0.263762 -0.180163,0.493012 -0.326977,0.687967 -0.131079,0.172017 -0.283263,0.299526 -0.458907,0.382668 -0.175644,0.08027 -0.360513,0.119192 -0.554515,0.119192 -0.193995,0 -0.378864,-0.03892 -0.554516,-0.119192 -0.175644,-0.08027 -0.32974,-0.205152 -0.460818,-0.374304 -0.131078,-0.169152 -0.23614,-0.387881 -0.317415,-0.654509 -0.07864,-0.269495 -0.118547,-0.59523 -0.118547,-0.976537 0,-0.372706 0.04113,-0.697664 0.122372,-0.978627 0.0839,-0.28383 0.190155,-0.506505 0.32124,-0.667055 0.141565,-0.172019 0.296865,-0.29558 0.464644,-0.370124 0.170402,-0.07454 0.351665,-0.112916 0.54304,-0.112916 z m 5.665612,0.104557 h 0.546865 c 0.180896,0 0.339799,0.0052 0.476121,0.01673 0.136327,0.0086 0.255325,0.03568 0.357565,0.08155 0.146807,0.06594 0.251382,0.157162 0.311677,0.27184 0.06026,0.114679 0.08987,0.251394 0.08987,0.411944 0,0.18062 -0.02473,0.326001 -0.07457,0.434946 -0.04719,0.106078 -0.122675,0.203875 -0.227537,0.292751 -0.110113,0.09175 -0.246664,0.149848 -0.4092,0.175651 -0.162536,0.0258 -0.36495,0.03974 -0.606141,0.03974 H 35.70153 Z m -17.861115,0.01673 h 0.260049 c 0.249052,0 0.449062,0.0039 0.598493,0.01255 0.149431,0.0058 0.301612,0.04411 0.458909,0.112918 0.117972,0.05161 0.222541,0.142051 0.311676,0.273932 0.08914,0.129013 0.133847,0.283602 0.133847,0.464221 0,0.183485 -0.02236,0.34148 -0.06693,0.470494 -0.04193,0.126146 -0.111421,0.234466 -0.208421,0.326208 -0.112729,0.103209 -0.252883,0.172614 -0.420667,0.207018 -0.165161,0.0344 -0.375994,0.05019 -0.632911,0.05019 h -0.434052 z"
   id="text240"
   inkscape:connector-curvature="0" /><path
   style="font-style:normal;font-variant:normal;font-weight:normal;font-stretch:normal;font-size:8.22626972px;line-height:1.5;font-family:Verdana;-inkscape-font-specification:Verdana;letter-spacing:0px;word-spacing:0px;fill:#ffffff;fill-opacity:1;stroke:none;stroke-width:0.31582576"
   d="m 30.03125,85.759766 c -0.941155,0 -1.678079,0.297288 -2.212891,0.896484 -0.534805,0.59633 -0.802734,1.408259 -0.802734,2.4375 0,1.020642 0.267929,1.833484 0.802734,2.435547 0.534812,0.599197 1.271736,0.898437 2.212891,0.898437 0.943776,0 1.683944,-0.29924 2.21875,-0.898437 0.534805,-0.602063 0.800781,-1.414905 0.800781,-2.435547 0,-1.029241 -0.26726,-1.84117 -0.804687,-2.4375 -0.537428,-0.599196 -1.276311,-0.896484 -2.214844,-0.896484 z M 4.6757812,85.890625 v 6.40625 h 4.234375 V 91.056641 H 6.1777344 V 89.472656 H 8.7128906 V 88.234375 H 6.1777344 v -1.103516 h 2.7324218 v -1.240234 z m 4.8945313,0 2.0351565,3.179687 -2.0761721,3.226563 h 1.6660151 l 1.285157,-2.109375 1.261719,2.109375 h 1.748046 l -2.076172,-3.292969 2.042969,-3.113281 h -1.669922 l -1.253906,1.998047 -1.21875,-1.998047 z m 6.7617185,0 v 6.40625 h 1.507813 v -2.087891 h 0.941406 c 0.427322,0 0.782604,-0.0624 1.068359,-0.191406 0.288377,-0.129014 0.551835,-0.321926 0.785157,-0.574219 0.170406,-0.186354 0.298868,-0.415138 0.390625,-0.6875 0.09175,-0.275228 0.138672,-0.555099 0.138671,-0.841797 0,-0.369838 -0.06166,-0.689363 -0.1875,-0.953124 C 20.853345,86.697176 20.673445,86.483603 20.4375,86.314453 20.240882,86.173972 20.012776,86.068806 19.755859,86 19.501564,85.92833 19.188674,85.890625 18.816406,85.890625 Z m 5.898438,0 v 6.40625 h 4.222656 v -1.240234 h -2.712891 v -5.166016 z m 11.970703,0 v 6.40625 h 1.5 v -2.349609 h 0.697266 l 1.595703,2.349609 h 1.845703 l -1.955078,-2.746094 c 0.372269,-0.197819 0.658183,-0.444023 0.857422,-0.742187 0.201861,-0.298166 0.300781,-0.685154 0.300781,-1.158203 0,-0.344036 -0.06227,-0.628979 -0.19336,-0.855469 -0.128457,-0.229358 -0.30518,-0.415245 -0.52539,-0.558594 -0.217597,-0.143348 -0.450171,-0.238244 -0.699219,-0.28125 -0.249056,-0.04301 -0.546532,-0.06445 -0.892578,-0.06445 z m 6.304687,0 v 6.40625 h 4.236329 v -1.240234 h -2.732422 v -1.583985 h 2.537109 v -1.238281 h -2.537109 v -1.103516 h 2.732422 v -1.240234 z m -10.470703,1.076172 c 0.18876,0 0.369939,0.03978 0.542969,0.117187 0.175645,0.07741 0.329191,0.201029 0.462891,0.373047 0.131078,0.166285 0.239045,0.384803 0.320312,0.654297 0.08127,0.269496 0.121094,0.594342 0.121094,0.978516 0,0.358371 -0.03466,0.672824 -0.105469,0.939453 -0.07075,0.263762 -0.181311,0.492545 -0.328125,0.6875 -0.131079,0.172017 -0.28334,0.29967 -0.458984,0.382812 -0.175644,0.08027 -0.360686,0.119141 -0.554688,0.119141 -0.193995,0 -0.379035,-0.03887 -0.554687,-0.119141 -0.175644,-0.08027 -0.327907,-0.203894 -0.458985,-0.373047 -0.131078,-0.169151 -0.237084,-0.389621 -0.318359,-0.65625 -0.07864,-0.269495 -0.119141,-0.595255 -0.119141,-0.976562 0,-0.372706 0.04181,-0.697553 0.123047,-0.978516 0.0839,-0.28383 0.189228,-0.505465 0.320313,-0.666015 0.141565,-0.172019 0.297065,-0.29655 0.464844,-0.371094 0.170401,-0.07454 0.351593,-0.111328 0.542968,-0.111328 z m 5.666016,0.103515 h 0.546875 c 0.180896,0 0.34024,0.006 0.476562,0.01758 0.136327,0.0086 0.255182,0.03421 0.357422,0.08008 0.146807,0.06594 0.252205,0.158759 0.3125,0.273437 0.06026,0.114679 0.08984,0.25156 0.08984,0.41211 0,0.18062 -0.02633,0.324648 -0.07617,0.433593 -0.04719,0.106078 -0.1217,0.204093 -0.226562,0.292969 -0.110113,0.09175 -0.247621,0.149978 -0.410157,0.175781 -0.162536,0.0258 -0.364277,0.03906 -0.605468,0.03906 H 35.70117 Z m -17.861328,0.01758 h 0.259765 c 0.249052,0 0.450179,0.0031 0.59961,0.01172 0.149431,0.0058 0.301687,0.04447 0.458984,0.113282 0.117972,0.05161 0.221412,0.141556 0.310547,0.273437 0.08914,0.129013 0.134766,0.284225 0.134766,0.464844 0,0.183485 -0.02184,0.341689 -0.06641,0.470703 -0.04193,0.126146 -0.111984,0.23443 -0.208984,0.326172 -0.112729,0.103209 -0.252138,0.172627 -0.419922,0.207031 -0.165161,0.0344 -0.375895,0.04883 -0.632812,0.04883 h -0.435547 z"
   id="path4755"
   inkscape:connector-curvature="0" /><path
   inkscape:connector-curvature="0"
   id="path4758"
   d="m 30.03125,135.8579 c -0.941155,0 -1.678079,0.29729 -2.212891,0.89648 -0.534805,0.59633 -0.802734,1.40826 -0.802734,2.4375 0,1.02064 0.267929,1.83349 0.802734,2.43555 0.534812,0.5992 1.271736,0.89844 2.212891,0.89844 0.943776,0 1.683944,-0.29924 2.21875,-0.89844 0.534805,-0.60206 0.800781,-1.41491 0.800781,-2.43555 0,-1.02924 -0.26726,-1.84117 -0.804687,-2.4375 -0.537428,-0.59919 -1.276311,-0.89648 -2.214844,-0.89648 z m -25.3554688,0.13086 v 6.40625 h 4.234375 v -1.24024 H 6.1777344 v -1.58398 h 2.5351562 v -1.23828 H 6.1777344 v -1.10352 h 2.7324218 v -1.24023 z m 4.8945313,0 2.0351565,3.17968 -2.0761721,3.22657 h 1.6660151 l 1.285157,-2.10938 1.261719,2.10938 h 1.748046 l -2.076172,-3.29297 2.042969,-3.11328 h -1.669922 l -1.253906,1.99804 -1.21875,-1.99804 z m 6.7617185,0 v 6.40625 h 1.507813 v -2.08789 h 0.941406 c 0.427322,0 0.782604,-0.0624 1.068359,-0.19141 0.288377,-0.12901 0.551835,-0.32193 0.785157,-0.57422 0.170406,-0.18635 0.298868,-0.41514 0.390625,-0.6875 0.09175,-0.27523 0.138672,-0.5551 0.138671,-0.8418 0,-0.36983 -0.06166,-0.68936 -0.1875,-0.95312 -0.123217,-0.26376 -0.303117,-0.47734 -0.539062,-0.64649 -0.196618,-0.14048 -0.424724,-0.24564 -0.681641,-0.31445 -0.254295,-0.0717 -0.567185,-0.10937 -0.939453,-0.10937 z m 5.898438,0 v 6.40625 h 4.222656 v -1.24024 h -2.712891 v -5.16601 z m 11.970703,0 v 6.40625 h 1.5 v -2.34961 h 0.697266 l 1.595703,2.34961 h 1.845703 l -1.955078,-2.7461 c 0.372269,-0.19782 0.658183,-0.44402 0.857422,-0.74218 0.201861,-0.29817 0.300781,-0.68516 0.300781,-1.15821 0,-0.34403 -0.06227,-0.62898 -0.19336,-0.85547 -0.128457,-0.22935 -0.30518,-0.41524 -0.52539,-0.55859 -0.217597,-0.14335 -0.450171,-0.23824 -0.699219,-0.28125 -0.249056,-0.043 -0.546532,-0.0644 -0.892578,-0.0644 z m 6.304687,0 v 6.40625 h 4.236329 v -1.24024 h -2.732422 v -1.58398 h 2.537109 v -1.23828 h -2.537109 v -1.10352 h 2.732422 v -1.24023 z m -10.470703,1.07617 c 0.18876,0 0.369939,0.0398 0.542969,0.11719 0.175645,0.0774 0.329191,0.20102 0.462891,0.37304 0.131078,0.16629 0.239045,0.38481 0.320312,0.6543 0.08127,0.2695 0.121094,0.59434 0.121094,0.97852 0,0.35837 -0.03466,0.67282 -0.105469,0.93945 -0.07075,0.26376 -0.181311,0.49254 -0.328125,0.6875 -0.131079,0.17202 -0.28334,0.29967 -0.458984,0.38281 -0.175644,0.0803 -0.360686,0.11914 -0.554688,0.11914 -0.193995,0 -0.379035,-0.0389 -0.554687,-0.11914 -0.175644,-0.0803 -0.327907,-0.20389 -0.458985,-0.37305 -0.131078,-0.16915 -0.237084,-0.38962 -0.318359,-0.65625 -0.07864,-0.26949 -0.119141,-0.59525 -0.119141,-0.97656 0,-0.3727 0.04181,-0.69755 0.123047,-0.97851 0.0839,-0.28383 0.189228,-0.50547 0.320313,-0.66602 0.141565,-0.17202 0.297065,-0.29655 0.464844,-0.37109 0.170401,-0.0745 0.351593,-0.11133 0.542968,-0.11133 z m 5.666016,0.10351 h 0.546875 c 0.180896,0 0.34024,0.006 0.476562,0.0176 0.136327,0.009 0.255182,0.0342 0.357422,0.0801 0.146807,0.0659 0.252205,0.15876 0.3125,0.27344 0.06026,0.11468 0.08984,0.25156 0.08984,0.41211 0,0.18062 -0.02633,0.32465 -0.07617,0.43359 -0.04719,0.10608 -0.1217,0.2041 -0.226562,0.29297 -0.110113,0.0917 -0.247621,0.14998 -0.410157,0.17578 -0.162536,0.0258 -0.364277,0.0391 -0.605468,0.0391 H 35.70117 Z m -17.861328,0.0176 h 0.259765 c 0.249052,0 0.450179,0.003 0.59961,0.0117 0.149431,0.006 0.301687,0.0445 0.458984,0.11329 0.117972,0.0516 0.221412,0.14155 0.310547,0.27343 0.08914,0.12902 0.134766,0.28423 0.134766,0.46485 0,0.18348 -0.02184,0.34169 -0.06641,0.4707 -0.04193,0.12615 -0.111984,0.23443 -0.208984,0.32617 -0.112729,0.10321 -0.252138,0.17263 -0.419922,0.20703 -0.165161,0.0344 -0.375895,0.0488 -0.632812,0.0488 h -0.435547 z"
   style="font-style:normal;font-variant:normal;font-weight:normal;font-stretch:normal;font-size:8.22626972px;line-height:1.5;font-family:Verdana;-inkscape-font-specification:Verdana;letter-spacing:0px;word-spacing:0px;fill:#ffffff;fill-opacity:1;stroke:none;stroke-width:0.31582576" /><path
   style="font-style:normal;font-variant:normal;font-weight:normal;font-stretch:normal;font-size:8.22626972px;line-height:1.5;font-family:Verdana;-inkscape-font-specification:Verdana;letter-spacing:0px;word-spacing:0px;fill:#ffffff;fill-opacity:1;stroke:none;stroke-width:0.31582576"
   d="m 30.03125,185.9639 c -0.941155,0 -1.678079,0.29729 -2.212891,0.89648 -0.534805,0.59633 -0.802734,1.40826 -0.802734,2.4375 0,1.02064 0.267929,1.83349 0.802734,2.43555 0.534812,0.5992 1.271736,0.89844 2.212891,0.89844 0.943776,0 1.683944,-0.29924 2.21875,-0.89844 0.534805,-0.60206 0.800781,-1.41491 0.800781,-2.43555 0,-1.02924 -0.26726,-1.84117 -0.804687,-2.4375 -0.537428,-0.59919 -1.276311,-0.89648 -2.214844,-0.89648 z m -25.3554688,0.13086 v 6.40625 h 4.234375 v -1.24024 H 6.1777344 v -1.58398 h 2.5351562 v -1.23828 H 6.1777344 v -1.10352 h 2.7324218 v -1.24023 z m 4.8945313,0 2.0351565,3.17968 -2.0761721,3.22657 h 1.6660151 l 1.285157,-2.10938 1.261719,2.10938 h 1.748046 l -2.076172,-3.29297 2.042969,-3.11328 h -1.669922 l -1.253906,1.99804 -1.21875,-1.99804 z m 6.7617185,0 v 6.40625 h 1.507813 v -2.08789 h 0.941406 c 0.427322,0 0.782604,-0.0624 1.068359,-0.19141 0.288377,-0.12901 0.551835,-0.32193 0.785157,-0.57422 0.170406,-0.18635 0.298868,-0.41514 0.390625,-0.6875 0.09175,-0.27523 0.138672,-0.5551 0.138671,-0.8418 0,-0.36983 -0.06166,-0.68936 -0.1875,-0.95312 -0.123217,-0.26376 -0.303117,-0.47734 -0.539062,-0.64649 -0.196618,-0.14048 -0.424724,-0.24564 -0.681641,-0.31445 -0.254295,-0.0717 -0.567185,-0.10937 -0.939453,-0.10937 z m 5.898438,0 v 6.40625 h 4.222656 v -1.24024 h -2.712891 v -5.16601 z m 11.970703,0 v 6.40625 h 1.5 v -2.34961 h 0.697266 l 1.595703,2.34961 h 1.845703 l -1.955078,-2.7461 c 0.372269,-0.19782 0.658183,-0.44402 0.857422,-0.74218 0.201861,-0.29817 0.300781,-0.68516 0.300781,-1.15821 0,-0.34403 -0.06227,-0.62898 -0.19336,-0.85547 -0.128457,-0.22935 -0.30518,-0.41524 -0.52539,-0.55859 -0.217597,-0.14335 -0.450171,-0.23824 -0.699219,-0.28125 -0.249056,-0.043 -0.546532,-0.0644 -0.892578,-0.0644 z m 6.304687,0 v 6.40625 h 4.236329 v -1.24024 h -2.732422 v -1.58398 h 2.537109 v -1.23828 h -2.537109 v -1.10352 h 2.732422 v -1.24023 z m -10.470703,1.07617 c 0.18876,0 0.369939,0.0398 0.542969,0.11719 0.175645,0.0774 0.329191,0.20102 0.462891,0.37304 0.131078,0.16629 0.239045,0.38481 0.320312,0.6543 0.08127,0.2695 0.121094,0.59434 0.121094,0.97852 0,0.35837 -0.03466,0.67282 -0.105469,0.93945 -0.07075,0.26376 -0.181311,0.49254 -0.328125,0.6875 -0.131079,0.17202 -0.28334,0.29967 -0.458984,0.38281 -0.175644,0.0803 -0.360686,0.11914 -0.554688,0.11914 -0.193995,0 -0.379035,-0.0389 -0.554687,-0.11914 -0.175644,-0.0803 -0.327907,-0.20389 -0.458985,-0.37305 -0.131078,-0.16915 -0.237084,-0.38962 -0.318359,-0.65625 -0.07864,-0.26949 -0.119141,-0.59525 -0.119141,-0.97656 0,-0.3727 0.04181,-0.69755 0.123047,-0.97851 0.0839,-0.28383 0.189228,-0.50547 0.320313,-0.66602 0.141565,-0.17202 0.297065,-0.29655 0.464844,-0.37109 0.170401,-0.0745 0.351593,-0.11133 0.542968,-0.11133 z m 5.666016,0.10351 h 0.546875 c 0.180896,0 0.34024,0.006 0.476562,0.0176 0.136327,0.009 0.255182,0.0342 0.357422,0.0801 0.146807,0.0659 0.252205,0.15876 0.3125,0.27344 0.06026,0.11468 0.08984,0.25156 0.08984,0.41211 0,0.18062 -0.02633,0.32465 -0.07617,0.43359 -0.04719,0.10608 -0.1217,0.2041 -0.226562,0.29297 -0.110113,0.0917 -0.247621,0.14998 -0.410157,0.17578 -0.162536,0.0258 -0.364277,0.0391 -0.605468,0.0391 H 35.70117 Z m -17.861328,0.0176 h 0.259765 c 0.249052,0 0.450179,0.003 0.59961,0.0117 0.149431,0.006 0.301687,0.0445 0.458984,0.11329 0.117972,0.0516 0.221412,0.14155 0.310547,0.27343 0.08914,0.12902 0.134766,0.28423 0.134766,0.46485 0,0.18348 -0.02184,0.34169 -0.06641,0.4707 -0.04193,0.12615 -0.111984,0.23443 -0.208984,0.32617 -0.112729,0.10321 -0.252138,0.17263 -0.419922,0.20703 -0.165161,0.0344 -0.375895,0.0488 -0.632812,0.0488 h -0.435547 z"
   id="path4760"
   inkscape:connector-curvature="0" /></svg>