<?xml version="1.0" encoding="utf-8"?>
<!-- Generator: Adobe Illustrator 23.0.4, SVG Export Plug-In . SVG Version: 6.00 Build 0)  -->
<svg version="1.1" id="Layer_1" xmlns="http://www.w3.org/2000/svg" xmlns:xlink="http://www.w3.org/1999/xlink" x="0px" y="0px"
	 viewBox="0 0 128 128" style="enable-background:new 0 0 128 128;" xml:space="preserve">
<path d="M46.9,62.5L64,40c-0.2-0.4-0.4-0.7-0.7-1c-0.6-0.6-1.5-0.9-2.3-0.8c-0.9,0.1-1.6,0.5-2.2,1.2L46,56.2c0,0.1,0,0.2,0.1,0.3
	L46.9,62.5z M78,34c0.1,0,0.2,0,0.3,0c1.2,0,2.3-0.9,2.4-2.2l0.8-7.5c0.1-1.3-0.8-2.5-2.2-2.7c-1.3-0.1-2.5,0.8-2.7,2.2l-0.8,7.5
	C75.7,32.7,76.6,33.9,78,34z M86.6,38.4c0.4,0.3,0.9,0.5,1.4,0.5c0.7,0,1.5-0.3,2-1l5-6.8c0.8-1.1,0.6-2.6-0.5-3.4
	c-1.1-0.8-2.6-0.6-3.4,0.5L86,35C85.2,36.1,85.5,37.6,86.6,38.4z M64,0v3.9V0L64,0l-0.1,0C46.8,0,30.7,6.7,18.6,18.8S0,47,0,64.1
	C0.1,99.4,28.8,128,64,128l0.1,0c35.3-0.1,63.9-28.8,63.9-64.1C127.9,28.6,99.2,0,64,0z M64.1,124.1c0,0-0.1,0-0.1,0
	c-33.1,0-60-26.8-60.1-60C3.8,30.9,30.7,4,63.9,3.9c0,0,0.1,0,0.1,0c33.1,0,60,26.8,60.1,60C124.2,97.1,97.3,124,64.1,124.1z
	 M101.5,39l-6.9,3c-1.2,0.5-1.8,2-1.2,3.2c0.4,0.9,1.3,1.5,2.2,1.5c0.3,0,0.7-0.1,1-0.2l6.9-3c1.2-0.5,1.8-2,1.2-3.2
	C104.2,39,102.7,38.5,101.5,39z M32.2,78.3l0.1-20.4c-0.1-0.6,0-1.2,0.1-1.8c-0.3-1.6-1.6-2.8-3.1-2.7c-0.9,0-1.7,0.4-2.2,1.1
	c-0.6,0.7-0.8,1.5-0.7,2.4l-0.1,20.6c0,8.9,2.7,14.9,8.6,20.3c2,1.8,4.4,2.9,7,3.6C35.2,95.2,32.2,88.1,32.2,78.3z M93.7,63.4
	L93.7,63.4c-1.3-0.8-3.1-0.4-4.1,0.9L79,78.2c-0.7,0.9-2.1,1.1-3,0.4c0,0-0.1-0.1-0.1-0.1v0c-0.4-0.4-0.7-0.9-0.7-1.4c0,0,0,0,0-0.1
	c0-0.1,0-0.2,0-0.3c0,0,0-0.1,0-0.1c0-0.1,0-0.2,0-0.3c0-0.1,0.1-0.1,0.1-0.2c0-0.1,0-0.1,0.1-0.2c0.1-0.1,0.1-0.2,0.2-0.4
	l14.4-18.9c1-1.3,0.9-3.1-0.3-4.2c-0.6-0.6-1.5-0.9-2.3-0.8c-0.9,0.1-1.6,0.5-2.2,1.2l-14.5,19c-0.7,0.9-2.1,1.1-3,0.4
	c0,0-0.1-0.1-0.1-0.1c-0.4-0.4-0.7-0.9-0.7-1.4c0,0,0,0,0-0.1c0-0.1,0-0.2,0-0.3c0,0,0-0.1,0-0.1c0-0.1,0-0.2,0-0.3
	c0-0.1,0.1-0.1,0.1-0.2c0-0.1,0-0.1,0.1-0.2c0.1-0.1,0.1-0.2,0.2-0.4l17.1-22.4c1-1.3,0.9-3.1-0.3-4.2c-0.6-0.6-1.5-0.9-2.3-0.8
	c-0.9,0.1-1.6,0.5-2.2,1.2L62.4,65.6c-0.7,0.9-2.1,1.1-3,0.4c0,0-0.1-0.1-0.1-0.1c-0.4-0.4-0.7-0.9-0.7-1.4c0,0,0,0,0-0.1
	c0-0.1,0-0.2,0-0.3c0,0,0-0.1,0-0.1c0-0.1,0-0.2,0-0.3c0-0.1,0-0.1,0.1-0.2c0-0.1,0-0.1,0.1-0.2c0.1-0.1,0.1-0.2,0.2-0.4l14.4-18.9
	c0.1-0.2,0.2-0.4,0.3-0.6c0,0,0-0.1,0-0.1c0.1-0.2,0.1-0.3,0.2-0.5c0,0,0-0.1,0-0.1c0-0.2,0.1-0.4,0.1-0.6c0,0,0,0,0,0
	c0-0.2,0-0.4,0-0.6v0c-0.1-0.6-0.4-1.3-0.9-1.7c-0.6-0.6-1.5-0.9-2.3-0.8c-0.9,0.1-1.6,0.5-2.2,1.2L47.6,67.9
	c-0.1,0.2-0.3,0.3-0.4,0.4c0,0-0.1,0.1-0.2,0.1c-0.1,0.1-0.2,0.1-0.4,0.2c-0.1,0-0.1,0-0.2,0.1c-0.1,0-0.3,0.1-0.4,0.1
	c0,0-0.1,0-0.1,0c-0.2,0-0.4,0-0.6-0.1c-0.7-0.2-1.2-0.6-1.5-1.2c-0.1-0.2-0.2-0.4-0.2-0.6l-0.8-6.3l-0.5-3.5
	c-0.2-1.6-1.6-2.8-3.1-2.8c-0.9,0-1.7,0.4-2.2,1.1c-0.6,0.7-0.8,1.5-0.7,2.4l-0.1,20.6c0,2.7,0.3,5.1,0.8,7.3
	c0.1,0.5,0.3,1.1,0.4,1.6c0.2,0.7,0.5,1.4,0.7,2.1c0.3,0.8,0.7,1.6,1.1,2.3c0.2,0.3,0.4,0.6,0.6,1c1.3,2.1,3,4.1,5.1,6c0,0,0,0,0,0
	c0.4,0.4,0.9,0.7,1.3,1c0.1,0.1,0.2,0.1,0.3,0.2c0.4,0.3,0.8,0.5,1.2,0.7c0.1,0,0.1,0.1,0.2,0.1c0.5,0.2,0.9,0.5,1.4,0.7
	c0,0,0.1,0,0.1,0c2.3,0.9,4.7,1.4,7.2,1.5c6.6,0.7,13.1-2.2,17.1-7.5l21-27.5c0.5-0.7,0.7-1.6,0.6-2.4
	C94.9,64.5,94.4,63.8,93.7,63.4z"/>
</svg>
