<?xml version="1.0" encoding="utf-8"?>
<!-- Generator: Adobe Illustrator 23.0.6, SVG Export Plug-In . SVG Version: 6.00 Build 0)  -->
<svg version="1.1" id="Layer_1" xmlns="http://www.w3.org/2000/svg" xmlns:xlink="http://www.w3.org/1999/xlink" x="0px" y="0px"
	 viewBox="0 0 128 128" style="enable-background:new 0 0 128 128;" xml:space="preserve">
<path d="M64,0C28.7,0,0,28.7,0,64s28.7,64,64,64s64-28.7,64-64S99.3,0,64,0z M64,124.1C30.8,124.1,3.9,97.2,3.9,64S30.8,3.9,64,3.9
	s60.1,26.9,60.1,60.1S97.2,124.1,64,124.1z M88.8,63.5c-3.8,0-7,3.2-7,7c0,9.5-7.6,5.7-17.8,5.7c-10.2,0-17.8,3.8-17.8-5.7
	c0-3.8-3.2-7-7-7s-7,3.2-7,7c0,17.8,14,32.4,31.7,32.4s31.7-14.6,31.7-32.4C95.7,66.7,92.6,63.5,88.8,63.5z M40.5,41.9
	c5.1,0,9.5-1.9,9.5,3.2c0,1.9,1.9,3.8,3.8,3.8c2.5,0,4.4-1.9,4.4-3.8c0-9.5-7.6-17.1-17.1-17.1S24,35.6,24,45.1
	c0,1.9,1.3,3.8,3.8,3.8c1.9,0,3.8-1.9,3.8-3.8C31.6,40,35.4,41.9,40.5,41.9z M86.9,28c-9.5,0-17.1,7.6-17.1,17.1
	c0,1.9,1.9,3.8,3.8,3.8s3.8-1.9,3.8-3.8c0-5.1,4.4-3.2,9.5-3.2c5.1,0,9.5-1.9,9.5,3.2c0,1.9,1.9,3.8,3.8,3.8c2.5,0,3.8-1.9,3.8-3.8
	C104,35.6,96.4,28,86.9,28z"/>
</svg>
