<?xml version="1.0" encoding="utf-8"?>
<!-- Generator: Adobe Illustrator 23.1.0, SVG Export Plug-In . SVG Version: 6.00 Build 0)  -->
<!DOCTYPE svg PUBLIC "-//W3C//DTD SVG 1.1//EN" "http://www.w3.org/Graphics/SVG/1.1/DTD/svg11.dtd" [
	<!ENTITY ns_extend "http://ns.adobe.com/Extensibility/1.0/">
	<!ENTITY ns_ai "http://ns.adobe.com/AdobeIllustrator/10.0/">
	<!ENTITY ns_graphs "http://ns.adobe.com/Graphs/1.0/">
	<!ENTITY ns_vars "http://ns.adobe.com/Variables/1.0/">
	<!ENTITY ns_imrep "http://ns.adobe.com/ImageReplacement/1.0/">
	<!ENTITY ns_sfw "http://ns.adobe.com/SaveForWeb/1.0/">
	<!ENTITY ns_custom "http://ns.adobe.com/GenericCustomNamespace/1.0/">
	<!ENTITY ns_adobe_xpath "http://ns.adobe.com/XPath/1.0/">
]>
<svg version="1.1" id="Layer_1" xmlns:x="&ns_extend;" xmlns:i="&ns_ai;" xmlns:graph="&ns_graphs;"
	 xmlns="http://www.w3.org/2000/svg" xmlns:xlink="http://www.w3.org/1999/xlink" x="0px" y="0px" viewBox="0 0 52.8 49"
	 style="enable-background:new 0 0 52.8 49;" xml:space="preserve">
<style type="text/css">
	.st0{opacity:0.7;}
	.st1{fill:#FFFFFF;}
</style>
<metadata>
	<sfw  xmlns="&ns_sfw;">
		<slices></slices>
		<sliceSourceBounds  bottomLeftOrigin="true" height="49" width="52.8" x="8.3" y="11.1"></sliceSourceBounds>
	</sfw>
</metadata>
<g class="st0">
	<path class="st1" d="M10.3,47.8c5.1,0.8,10.3,1.2,15.3,1.2c0.3,0,0.6,0,0.8,0c5.4-0.1,10.8-0.6,16.2-1.5c4-0.8,7.8-4.5,8.7-8.5
		c1-4.8,1.5-9.8,1.5-14.6s-0.5-9.8-1.5-14.6c-0.8-3.9-4.7-7.6-8.7-8.4C37.3,0.6,31.8,0,26.4,0c-5.3-0.1-10.8,0.3-16.2,1.2
		c-4,0.7-7.9,4.5-8.7,8.5c-1,5-1.5,9.9-1.5,14.9s0.5,9.9,1.5,14.9C2.4,43.3,6.2,47.1,10.3,47.8z M6.2,10.6C6.7,8.6,9,6.3,11,5.9
		c4.9-0.8,9.7-1.2,14.6-1.2c0.3,0,0.6,0,0.8,0c5.1,0.1,10.3,0.6,15.3,1.4c2,0.4,4.4,2.7,4.8,4.6c0.9,4.5,1.3,9.1,1.3,13.7
		s-0.4,9.1-1.3,13.6c-0.4,1.9-2.8,4.3-4.8,4.7c-5.1,0.9-10.3,1.4-15.3,1.4c-5.1,0.1-10.3-0.3-15.3-1.2c-2-0.3-4.4-2.7-4.8-4.6
		c-0.9-4.6-1.4-9.3-1.4-14C4.9,19.9,5.3,15.1,6.2,10.6z"/>
	<path class="st1" d="M14.1,32.3c-0.3,0.9-0.1,1.9,0.6,2.6c0.2,0.2,5,4.5,11,4.5c0.6,0,1.2-0.1,1.8-0.1c6.8-1,10.7-7.6,11-7.9
		c0.5-0.8,0.4-1.9-0.1-2.7c-0.6-0.8-1.6-1.1-2.6-0.9c-6.4,1.7-12.9,2.7-19.5,2.9C15.3,30.8,14.5,31.4,14.1,32.3z"/>
	<path class="st1" d="M17.1,25.7c3.4,0,6.2-2.8,6.2-6.2c0-3.4-2.8-6.2-6.2-6.2c-3.4,0-6.2,2.8-6.2,6.2C10.8,23,13.6,25.7,17.1,25.7z
		"/>
	<path class="st1" d="M34.3,20.4h4.2c1.3,0,2.3-1,2.3-2.3c0-1.3-1-2.3-2.3-2.3h-4.2c-1.3,0-2.3,1-2.3,2.3
		C32,19.5,33.1,20.4,34.3,20.4z"/>
</g>
</svg>
