<?xml version="1.0" encoding="utf-8"?>
<!-- Generator: Adobe Illustrator 23.0.6, SVG Export Plug-In . SVG Version: 6.00 Build 0)  -->
<svg version="1.1" id="Layer_1" xmlns="http://www.w3.org/2000/svg" xmlns:xlink="http://www.w3.org/1999/xlink" x="0px" y="0px"
	 viewBox="0 0 93.7 127.8" style="enable-background:new 0 0 93.7 127.8;" xml:space="preserve">
<path d="M91.9,97c-7.6,9.6-17.8,16.7-29.3,20.3h-0.1c-0.4,0.1-0.8,0.3-1.3,0.4c-4.6,1.3-9.5,2-14.4,2c-4.9,0-9.8-0.7-14.4-2
	c-0.4-0.1-0.8-0.3-1.3-0.4h-0.1C19.6,113.8,9.4,106.6,1.8,97c0,0-0.5-0.5-0.9,0.1C0.6,97.6,1,98.5,1,98.5
	C9.9,116,27,127.8,46.8,127.8l0,0c0,0,0.1,0,0.1,0c0,0,0.1,0,0.1,0l0,0c19.7-0.1,36.8-11.8,45.8-29.3c0,0,0.4-0.9,0.1-1.4
	C92.4,96.6,91.9,97,91.9,97z M91.9,78.8C84.3,88.4,74.1,95.5,62.6,99h-0.1c-0.4,0.1-0.8,0.3-1.3,0.4c-4.6,1.3-9.5,2-14.4,2
	c-4.9,0-9.8-0.7-14.4-2c-0.4-0.1-0.8-0.3-1.3-0.4h-0.1C19.6,95.5,9.4,88.4,1.8,78.8c0,0-0.5-0.5-0.9,0.1C0.6,79.3,1,80.2,1,80.2
	c8.9,17.5,26.1,29.2,45.8,29.3l0,0c0,0,0.1,0,0.1,0c0,0,0.1,0,0.1,0l0,0c19.7-0.1,36.8-11.8,45.8-29.3c0,0,0.4-0.9,0.1-1.4
	C92.4,78.3,91.9,78.8,91.9,78.8z M46.9,92.7c25.8,0,46.9-20.7,46.9-46.4S72.7,0,46.9,0S0,20.7,0,46.4S20.9,92.7,46.9,92.7z
	 M65.5,30.8c2.8,0,5,2.2,5,5s-2.2,5-5,5c-2.8,0-5-2.2-5-5S62.8,30.8,65.5,30.8z M36,54.3c2.7,3.2,6.6,5,10.8,5s8.2-1.9,10.8-5
	c0.9-1.1,2.7-1.2,3.8-0.4c1.1,0.9,1.3,2.6,0.3,3.7c-3.7,4.4-9.1,6.9-14.9,6.9c-5.8,0-11.2-2.5-14.9-6.9c-0.9-1.1-0.8-2.7,0.3-3.7
	C33.4,53.1,35,53.2,36,54.3z M28.1,30.8c2.8,0,5,2.2,5,5s-2.2,5-5,5c-2.8,0-5-2.2-5-5S25.3,30.8,28.1,30.8z"/>
</svg>
