<?xml version="1.0" encoding="utf-8"?>
<!-- Generator: Adobe Illustrator 23.0.4, SVG Export Plug-In . SVG Version: 6.00 Build 0)  -->
<svg version="1.1" id="Layer_1" xmlns="http://www.w3.org/2000/svg" xmlns:xlink="http://www.w3.org/1999/xlink" x="0px" y="0px"
	 viewBox="0 0 128 128" style="enable-background:new 0 0 128 128;" xml:space="preserve">
<g>
	<path d="M64,3.9c33.2,0,60.1,26.9,60.1,60.1c0,33.2-26.9,60.1-60.1,60.1S3.9,97.2,3.9,64C3.9,30.8,30.8,3.9,64,3.9 M64,0
		C28.7,0,0,28.7,0,64s28.7,64,64,64s64-28.7,64-64S99.3,0,64,0L64,0z"/>
	<g>
		<circle cx="88" cy="71.6" r="6.4"/>
		<circle cx="40" cy="71.6" r="6.4"/>
		<path d="M64,88.5c-7.5,0-14.5,3.3-19.3,9c-1.2,1.4-1,3.6,0.4,4.8s3.6,1,4.8-0.4c3.5-4.2,8.6-6.6,14.1-6.6c5.4,0,10.6,2.4,14.1,6.6
			c0.7,0.8,1.6,1.2,2.6,1.2c0.8,0,1.5-0.3,2.2-0.8c1.4-1.2,1.6-3.3,0.4-4.8C78.5,91.8,71.5,88.5,64,88.5z"/>
	</g>
</g>
</svg>
