<?xml version="1.0" encoding="utf-8"?>
<!-- Generator: Adobe Illustrator 23.0.4, SVG Export Plug-In . SVG Version: 6.00 Build 0)  -->
<svg version="1.1" id="Layer_1" xmlns="http://www.w3.org/2000/svg" xmlns:xlink="http://www.w3.org/1999/xlink" x="0px" y="0px"
	 viewBox="0 0 128 128" style="enable-background:new 0 0 128 128;" xml:space="preserve">
<path d="M99,51.1H58.8c-1.1,0-2-0.6-2.4-1.6c-0.4-1-0.2-2.1,0.6-2.8l8.1-8.1c1.3-1.3,1.5-3.5,0.4-4.8c-0.6-0.8-1.5-1.2-2.5-1.3
	c-1,0-2,0.3-2.7,1l-19,14.4c-2.5,1.5-8.8,8.9-9.7,10.6c-1.9,3.5-2.9,7.5-2.9,11.5c0,4.9,1.5,9.7,4.3,13.7c4,6.5,11.2,10.5,18.9,10.5
	h14.9c2.1,0,3.9-1.7,3.9-3.9c0-1.5-0.8-2.8-2.1-3.4l0,0c-0.8-0.4-1.3-1.2-1.3-2.2c0-1.4,1.1-2.5,2.5-2.5l0,0c2-0.1,3.6-1.8,3.6-3.8
	c0-1.5-0.9-2.8-2.1-3.4l0,0c-0.8-0.4-1.3-1.2-1.3-2.2c0-1.4,1.1-2.5,2.5-2.5l0,0c2-0.1,3.6-1.8,3.6-3.9c0-1.5-0.9-2.8-2.1-3.4l0,0
	c-0.8-0.4-1.4-1.2-1.4-2.2c0-1.4,1.1-2.5,2.5-2.5h23.8c1.9,0,3.5-1.4,3.7-3.2c0.1-1-0.2-2-0.9-2.7C100.9,51.5,100,51.1,99,51.1z
	 M64,0C28.7,0,0,28.7,0,64s28.7,64,64,64s64-28.7,64-64S99.3,0,64,0z M64,124.1C30.8,124.1,3.9,97.2,3.9,64S30.8,3.9,64,3.9
	c33.2,0,60.1,26.9,60.1,60.1S97.2,124.1,64,124.1z"/>
</svg>
