<?xml version="1.0" encoding="utf-8"?>
<!-- Generator: Adobe Illustrator 23.0.4, SVG Export Plug-In . SVG Version: 6.00 Build 0)  -->
<svg version="1.1" id="Layer_1" xmlns="http://www.w3.org/2000/svg" xmlns:xlink="http://www.w3.org/1999/xlink" x="0px" y="0px"
	 viewBox="0 0 128 128" style="enable-background:new 0 0 128 128;" xml:space="preserve">
<g>
	<path d="M64,3.9c33.2,0,60.1,26.9,60.1,60.1c0,33.2-26.9,60.1-60.1,60.1C30.8,124.1,3.9,97.2,3.9,64C3.9,30.8,30.8,3.9,64,3.9
		 M64,0C28.7,0,0,28.7,0,64s28.7,64,64,64s64-28.7,64-64S99.3,0,64,0L64,0z"/>
	<g>
		<circle cx="88.1" cy="50.3" r="6.4"/>
		<circle cx="40" cy="50.3" r="6.4"/>
		<path d="M77.9,74.2c-3.5,4.1-8.5,6.5-13.9,6.5c-5.4,0-10.5-2.4-13.9-6.5c-1.2-1.4-3.3-1.6-4.8-0.4c-1.4,1.2-1.6,3.3-0.4,4.8
			c4.7,5.7,11.7,9,19.1,9c7.4,0,14.4-3.3,19.1-9c1.2-1.4,1-3.6-0.4-4.8C81.3,72.6,79.1,72.8,77.9,74.2z"/>
	</g>
</g>
</svg>
