<?xml version="1.0" encoding="utf-8"?>
<!-- Generator: Adobe Illustrator 23.0.4, SVG Export Plug-In . SVG Version: 6.00 Build 0)  -->
<svg version="1.1" id="Layer_1" xmlns="http://www.w3.org/2000/svg" xmlns:xlink="http://www.w3.org/1999/xlink" x="0px" y="0px"
	 viewBox="0 0 128 128" style="enable-background:new 0 0 128 128;" xml:space="preserve">
<path d="M80.6,90.1c-4.7,3.2-10.2,4.9-16,4.9c-4.7,0-9.3-1.2-13.4-3.4c-2.7-1.4-9.9-7.6-12-10.9L29,67.3c-0.3,0.5-0.5,1.1-0.6,1.7
	c0,1,0.3,1.9,1,2.6l13.9,18.3c1.4,2.4,8.6,8.5,10.3,9.3c3.4,1.8,7.2,2.8,11.1,2.8c4.8,0,9.3-1.4,13.2-4.1c5.1-3.2,8.7-8.4,9.8-14.3
	C85.8,86.2,83.4,88.4,80.6,90.1z M80.6,102.1c-4.7,3.2-10.2,4.9-16,4.9c-4.7,0-9.3-1.2-13.4-3.4c-2.7-1.4-9.9-7.6-12-10.9L29,79.3
	c-0.3,0.5-0.5,1.1-0.6,1.7c0,1,0.3,1.9,1,2.6l13.9,18.3c1.4,2.4,8.6,8.5,10.3,9.3c3.4,1.8,7.2,2.8,11.1,2.8c4.8,0,9.3-1.4,13.2-4.1
	c5.1-3.2,8.7-8.4,9.8-14.3C85.8,98.2,83.4,100.4,80.6,102.1z M84.3,25.6L84.3,25.6c-1.7,0.2-3.1,1.7-3.1,3.5v19.5
	c0,1.3-1.1,2.4-2.4,2.4c-1.3,0-2.4-1.1-2.4-2.4V22.2c0-1.8-1.3-3.4-3.1-3.5c-1-0.1-1.9,0.2-2.6,0.9c-0.7,0.6-1.1,1.6-1.1,2.5v26.7
	c0,1.3-1.1,2.4-2.4,2.4c-1.3,0-2.4-1.1-2.4-2.4V17.3c0-1.8-1.3-3.4-3.1-3.5c-1-0.1-1.9,0.2-2.6,0.9c-0.7,0.6-1.1,1.6-1.1,2.5v31.6
	c0,1.3-1.1,2.4-2.4,2.4c-1.3,0-2.4-1.1-2.4-2.4V22.2c0-1.8-1.3-3.4-3.1-3.5c-1-0.1-1.9,0.2-2.6,0.9c-0.7,0.6-1.1,1.6-1.1,2.5v38.8
	c0,1-0.6,1.9-1.6,2.3c-1,0.4-2,0.2-2.7-0.5l-7.8-7.8c-1.3-1.3-3.3-1.4-4.7-0.3c-0.8,0.6-1.2,1.5-1.2,2.5c0,1,0.3,1.9,1,2.6
	l13.9,18.3c1.4,2.4,8.6,8.5,10.3,9.3C57,89.1,60.8,90,64.7,90c4.8,0,9.3-1.4,13.2-4.1C84.2,82,88,75.1,88,67.7V29
	c0-1-0.4-1.9-1.1-2.5C86.2,25.8,85.3,25.5,84.3,25.6z M64,0C28.7,0,0,28.7,0,64c0,35.3,28.7,64,64,64s64-28.7,64-64
	C128,28.7,99.3,0,64,0z M64,124.1C30.8,124.1,3.9,97.2,3.9,64C3.9,30.8,30.8,3.9,64,3.9c33.2,0,60.1,26.9,60.1,60.1
	C124.1,97.2,97.2,124.1,64,124.1z"/>
</svg>
