<?xml version="1.0" encoding="utf-8"?>
<!-- Generator: Adobe Illustrator 19.2.0, SVG Export Plug-In . SVG Version: 6.00 Build 0)  -->
<svg version="1.1" id="Layer_1" xmlns="http://www.w3.org/2000/svg" xmlns:xlink="http://www.w3.org/1999/xlink" x="0px" y="0px"
	 viewBox="0 0 64 64" style="enable-background:new 0 0 64 64;" xml:space="preserve">
<style type="text/css">
	.st0{fill:#FFFFFF;}
</style>
<path class="st0" d="M22.3,32c1.9,0,3.8,0,5.8,0c0.4,0,0.4,0,0.4,0.4c0,6,0,12.1,0,18.1h7.8c0-6,0-12.1,0-18.1c0-0.4,0-0.4,0.4-0.4
	c1.9,0,3.8,0,5.8,0c0.3,0,0.3,0,0.4-0.3c0.2-1.2,0.3-2.5,0.5-3.7c0.1-1.2,0.3-2.3,0.4-3.5h-7.4c0-0.1,0-0.2,0-0.3c0-1.6,0-3.3,0-4.9
	c0-0.4,0.1-0.8,0.2-1.2c0.3-1.1,1-1.7,2.1-1.9c0.5-0.1,1.1-0.1,1.6-0.1c1.1,0,2.3,0,3.4,0c0.3,0,0.3-0.1,0.3-0.3c0-2,0-4.1,0-6.1
	c0-0.2-0.1-0.3-0.3-0.4c-2-0.2-4-0.3-6-0.2c-2.2,0.1-4.2,0.7-6,2.1c-1.5,1.3-2.4,2.9-2.8,4.8c-0.3,1-0.3,2.1-0.3,3.2
	c0,1.7,0,3.4,0,5v0.4h-0.3c-2,0-3.9,0-5.9,0c-0.3,0-0.3,0.1-0.3,0.3c0,2.3,0,4.6,0,6.9C22,32,22,32,22.3,32z"/>
</svg>
