<?xml version="1.0" encoding="utf-8"?>
<!-- Generator: Adobe Illustrator 22.0.1, SVG Export Plug-In . SVG Version: 6.00 Build 0)  -->
<svg version="1.1" id="Layer_1" xmlns="http://www.w3.org/2000/svg" xmlns:xlink="http://www.w3.org/1999/xlink" x="0px" y="0px"
	 viewBox="0 0 134 134" style="enable-background:new 0 0 134 134;" xml:space="preserve">
<style type="text/css">
	.st0{fill:#1FC6A6;}
</style>
<path class="st0" d="M5,0h124c2.8,0,5,2.2,5,5v124c0,2.8-2.2,5-5,5H5c-2.8,0-5-2.2-5-5V5C0,2.2,2.2,0,5,0z"/>
<path d="M100.5,99c-9.2,9.2-20.3,13.8-33.5,13.8S42.6,108.2,33.3,99c-9.2-9.2-13.8-20.3-13.8-33.5s4.6-24.3,13.8-33.5
	C42.6,22.7,53.9,18,67,18s24.3,4.7,33.5,14.1c9.4,9.2,14.1,20.3,14.1,33.5S109.8,89.9,100.5,99z M96.3,36.3
	C88.2,28.1,78.4,23.9,67,23.9s-21.3,4.1-29.5,12.4c-8.1,8.1-12.1,17.8-12.1,29.3s4,21.2,12.1,29.3c8.3,8.1,18.1,12.1,29.5,12.1
	s21.2-4,29.3-12.1c8.3-8.1,12.4-17.8,12.4-29.3S104.5,44.4,96.3,36.3z M94.3,49.3L94,49c-0.8-0.8-1.7-1.1-2.8-1.1l-1.7,0.3
	c-1.3,0.2-3,0.5-5.1,0.8c-1.9,0.2-3.8,0.4-5.9,0.6c-2.1,0.2-4.2,0.4-6.5,0.6c-2.1,0.2-3.8,0.3-5.1,0.3h-0.6L42,47.6
	c-1.7,0-2.9,0.6-3.7,1.7L38,49.8c-0.6,0.8-0.7,1.7-0.3,2.8c0.2,0.9,0.8,1.7,1.7,2.3c8.8,3.8,14.4,5.8,16.9,6.2c0.9,0,1.5,0.7,1.7,2
	c0.4,3.8-0.3,9.8-2,18.3c-0.4,1.3-0.9,3-1.7,5.1c-0.6,1.9-1,3.4-1.4,4.5l-0.6,2c-0.8,2.1-0.1,3.5,2,4.2l2.3,0.8
	c0.9,0.4,1.8,0.3,2.5-0.3c0.8-0.2,1.3-0.8,1.7-2l5.9-18.3l5.6,18.8c0.4,1.1,0.9,1.8,1.7,2c0.4,0.2,0.8,0.3,1.4,0.3h1.4l2-0.8
	c1.7-0.8,2.3-2.1,2-3.9l-3.1-12.4c-0.6-2.1-1-6.3-1.4-12.7c0-1.9-0.2-3.9-0.6-6.2c0-0.8,0.5-1.2,1.4-1.4h0.6l15.5-6.2
	c0.9-0.6,1.6-1.4,2-2.5S95.2,50.2,94.3,49.3z M72.6,33.2c1.7,1.5,2.5,3.4,2.5,5.6s-0.8,4.2-2.5,5.9C71.1,46.3,69.3,47,67,47
	s-4.2-0.8-5.9-2.3c-1.5-1.7-2.3-3.7-2.3-5.9s0.8-4.1,2.3-5.6c1.7-1.7,3.7-2.5,5.9-2.5S71.1,31.5,72.6,33.2z"/>
</svg>
