<svg fill="#fff" id="Brush-icon-High-Fidelity" xmlns="http://www.w3.org/2000/svg" viewBox="0 0 512 512"><title>Artboard 1</title><path d="M186.14,357.79c7.59,9.58,8.08,17.35,8.5,23,1.45,19.27-6.3,35.94-22.69,47-16.48,11.34-42.76,18.39-66.78,20.23a155,155,0,0,1-59.6-7.11,8.54,8.54,0,0,1-5.89-8.38c.09-3.79,2.75-6.72,6.34-8,13.84-5.08,22.76-14.57,34.07-29.61s22.25-32.28,34.73-45C123.09,341.41,129,339,140.91,338c14.3-1,34.25,5.49,45.23,19.78"/><path d="M457.94,72.56A13,13,0,0,0,449.48,69c-2.41,0-4.82,1.24-7.22,2.46C367.84,122.63,226.49,258.69,163,320.63a53.88,53.88,0,0,1,35.08,15.43C211.45,349.24,214,370.93,214,370.93c61.05-64.34,196.33-207.59,246.45-282.71C462.84,83.38,462.79,76.14,457.94,72.56Z"/></svg>