<svg id="Layer_1" data-name="Layer 1" xmlns="http://www.w3.org/2000/svg" viewBox="0 0 512 512"><defs><style>.cls-1{fill:#fff;}</style></defs><title>hand</title><path class="cls-1" d="M197.33,26.23q13.93-19.8,40.33-19.8t40.7,20.17q14.3,20.17,14.3,51v38.87l124.3,48a52.83,52.83,0,0,1,15,7.15q7.33,5,7.33,10.45v125.4q0,2.57-29.7,33T375.17,370.9H182.67q-6.24,0-13-5.13A48.79,48.79,0,0,1,159.2,355.5l-3.3-5.13L71.57,217.27q-5.87-11.36,2.2-19.43l41.07-40.33a16.62,16.62,0,0,1,11.73-5A18.61,18.61,0,0,1,139,156.77l44.37,30.8V76.83Q183.4,46,197.33,26.23ZM256,124.5V50.07q0-7.7-9.17-11.18a25.63,25.63,0,0,0-18.33-.18q-9.17,3.3-9.17,11.37V224a8.5,8.5,0,0,1-.18,2.2c-.13.37-.31,1-.55,1.83a7.1,7.1,0,0,1-.73,1.83c-.25.37-.55.86-.92,1.47a4.23,4.23,0,0,1-1.47,1.47c-.61.37-1.16.68-1.65.92q-9.17,4.4-17.23-1.83L129.5,178.4,99.07,209.93l86.53,124.3H370l32.63-36.67V190.13l-124.3-48a52.74,52.74,0,0,1-15-7.15Q256,130,256,124.5ZM201,407.57H384.33a18.15,18.15,0,0,1,18.33,18.33v36.67a18.15,18.15,0,0,1-18.33,18.33H201a18.15,18.15,0,0,1-18.33-18.33V425.9A18.15,18.15,0,0,1,201,407.57Z"/></svg>