<svg fill="#fff" id="Palette-icon-High-Fidelity" xmlns="http://www.w3.org/2000/svg" viewBox="0 0 512 512"><title>palette-icon</title><path d="M186.73,239.68a31.17,31.17,0,0,0,10.36-7.46,20.84,20.84,0,0,0,4.27-18.36c-3.11-12.11-15.54-17.4-26.67-19.67-10.51-2.14-21.55-2.44-31.34-6.82-14.91-6.66-24.85-23.11-23.8-39.41,1.28-20,17-36,33.5-47.35,60.53-41.4,146.23-41.86,207.34-1.31s94,119.52,79.92,191.5S366.23,423.51,294.48,438.65c-51.48,10.86-106-.5-152.82-24.6C120.85,403.33,101,389.8,86.82,371.13S64.92,328,70.05,305.2s23.86-41.3,46-48c13.5-4.08,27.93-3.92,41.68-7a142.49,142.49,0,0,0,24.14-8.3C183.52,241.16,185.14,240.45,186.73,239.68ZM373,148.22a29.25,29.25,0,1,0-3.88,41.32h0a29.26,29.26,0,0,0,4-41.17l-.14-.17Zm27.95,141.42.15-.12a29.45,29.45,0,1,0-41.45-4l.11.14a29.26,29.26,0,0,0,41.17,4l.15-.12Zm-40.52,89.43a29.25,29.25,0,1,0-41.17-4,29.26,29.26,0,0,0,41.17,4l.06,0ZM263.61,407.5a33.22,33.22,0,1,0-.15.1l.29-.24Zm-83.69-82.23A29.25,29.25,0,1,0,176,366.59h0a29.26,29.26,0,0,0,4-41.17l-.14-.17Z"/></svg>