<?xml version="1.0" encoding="UTF-8" standalone="no"?>
<svg width="380px" height="82px" viewBox="0 0 380 82" version="1.1" xmlns="http://www.w3.org/2000/svg" xmlns:xlink="http://www.w3.org/1999/xlink">
    <!-- Generator: Sketch 45.2 (43514) - http://www.bohemiancoding.com/sketch -->
    <title>CANCEL</title>
    <desc>Created with Sketch.</desc>
    <defs></defs>
    <g id="Group-Tool" stroke="none" stroke-width="1" fill="none" fill-rule="evenodd">
        <g id="Group---Default---Locked-Buttons" transform="translate(-1573.000000, -2040.000000)" fill="#FFFFFF">
            <path d="M1607.78,2040.704 C1588.404,2040.704 1573.508,2055.04 1573.508,2081.136 C1573.508,2107.568 1587.62,2121.792 1608.228,2121.792 C1618.98,2121.792 1627.156,2117.088 1632.084,2112.048 L1624.468,2102.304 C1619.988,2105.776 1615.508,2108.8 1609.012,2108.8 C1598.372,2108.8 1590.868,2100.624 1590.868,2081.136 C1590.868,2060.976 1598.484,2053.136 1608.788,2053.136 C1614.164,2053.136 1618.644,2055.04 1622.9,2058.736 L1631.188,2049.104 C1624.804,2043.728 1618.084,2040.704 1607.78,2040.704 Z M1678.004,2102.64 L1653.7,2102.64 L1649.332,2120 L1632.196,2120 L1656.052,2042.496 L1676.1,2042.496 L1699.844,2120 L1682.372,2120 L1678.004,2102.64 Z M1674.868,2090.432 L1665.796,2054.704 L1656.836,2090.432 L1674.868,2090.432 Z M1765.476,2120 L1765.476,2042.496 L1750.58,2042.496 L1750.58,2076.544 C1750.58,2088.08 1752.036,2098.832 1752.82,2104.096 L1727.732,2042.496 L1707.012,2042.496 L1707.012,2120 L1721.908,2120 L1721.908,2089.872 C1721.908,2075.536 1720.564,2065.456 1719.668,2058.512 L1744.308,2120 L1765.476,2120 Z M1812.18,2040.704 C1792.804,2040.704 1777.908,2055.04 1777.908,2081.136 C1777.908,2107.568 1792.02,2121.792 1812.628,2121.792 C1823.38,2121.792 1831.556,2117.088 1836.484,2112.048 L1828.868,2102.304 C1824.388,2105.776 1819.908,2108.8 1813.412,2108.8 C1802.772,2108.8 1795.268,2100.624 1795.268,2081.136 C1795.268,2060.976 1802.884,2053.136 1813.188,2053.136 C1818.564,2053.136 1823.044,2055.04 1827.3,2058.736 L1835.588,2049.104 C1829.204,2043.728 1822.484,2040.704 1812.18,2040.704 Z M1890.244,2054.48 L1892.036,2042.496 L1845.78,2042.496 L1845.78,2120 L1892.26,2120 L1892.26,2107.904 L1862.244,2107.904 L1862.244,2086.512 L1886.66,2086.512 L1886.66,2074.64 L1862.244,2074.64 L1862.244,2054.48 L1890.244,2054.48 Z M1921.38,2106.784 L1921.38,2042.496 L1904.916,2042.496 L1904.916,2120 L1950.276,2120 L1952.068,2106.784 L1921.38,2106.784 Z" id="CANCEL"></path>
        </g>
    </g>
</svg>