<?xml version="1.0" encoding="UTF-8" standalone="no"?>
<svg width="496px" height="82px" viewBox="0 0 496 82" version="1.1" xmlns="http://www.w3.org/2000/svg" xmlns:xlink="http://www.w3.org/1999/xlink">
    <!-- Generator: Sketch 45.2 (43514) - http://www.bohemiancoding.com/sketch -->
    <title>UNGROUP</title>
    <desc>Created with Sketch.</desc>
    <defs></defs>
    <g id="Group-Tool" stroke="none" stroke-width="1" fill="none" fill-rule="evenodd">
        <g id="Group---Default---Locked-Buttons" transform="translate(-955.000000, -1480.000000)" fill="#ffffff">
            <path d="M1014.188,1534.464 L1014.188,1482.496 L997.724,1482.496 L997.724,1533.68 C997.724,1544.096 993.692,1549.248 984.62,1549.248 C975.66,1549.248 971.628,1544.096 971.628,1533.68 L971.628,1482.496 L955.164,1482.496 L955.164,1534.464 C955.164,1550.592 965.02,1561.792 984.62,1561.792 C1004.22,1561.792 1014.188,1550.032 1014.188,1534.464 Z M1087.996,1560 L1087.996,1482.496 L1073.1,1482.496 L1073.1,1516.544 C1073.1,1528.08 1074.556,1538.832 1075.34,1544.096 L1050.252,1482.496 L1029.532,1482.496 L1029.532,1560 L1044.428,1560 L1044.428,1529.872 C1044.428,1515.536 1043.084,1505.456 1042.188,1498.512 L1066.828,1560 L1087.996,1560 Z M1136.604,1480.704 C1116.78,1480.704 1100.428,1494.928 1100.428,1521.136 C1100.428,1547.792 1112.412,1561.792 1134.812,1561.792 C1145.228,1561.792 1154.748,1558.768 1162.476,1553.952 L1162.476,1515.76 L1133.916,1515.76 L1135.596,1527.744 L1146.46,1527.744 L1146.46,1546.672 C1142.988,1548.576 1139.068,1549.472 1134.924,1549.472 C1123.5,1549.472 1117.676,1541.968 1117.676,1521.248 C1117.676,1501.088 1126.412,1492.912 1137.388,1492.912 C1143.772,1492.912 1148.14,1494.928 1153.18,1499.072 L1162.028,1490 C1155.532,1484.4 1147.692,1480.704 1136.604,1480.704 Z M1201.004,1529.648 L1192.604,1529.648 L1192.604,1560 L1176.14,1560 L1176.14,1482.496 L1200.332,1482.496 C1221.052,1482.496 1231.58,1490 1231.58,1505.68 C1231.58,1515.984 1226.54,1522.144 1216.236,1526.624 L1236.284,1560 L1217.58,1560 L1201.004,1529.648 Z M1192.604,1518 L1201.228,1518 C1209.852,1518 1214.556,1514.416 1214.556,1505.68 C1214.556,1497.728 1209.964,1494.256 1199.996,1494.256 L1192.604,1494.256 L1192.604,1518 Z M1274.364,1480.704 C1295.644,1480.704 1308.748,1495.264 1308.748,1521.248 C1308.748,1546.672 1295.644,1561.792 1274.364,1561.792 C1253.084,1561.792 1239.868,1547.12 1239.868,1521.248 C1239.868,1495.936 1253.084,1480.704 1274.364,1480.704 Z M1274.364,1493.024 C1263.388,1493.024 1257.228,1500.976 1257.228,1521.248 C1257.228,1541.52 1263.612,1549.472 1274.364,1549.472 C1285.452,1549.472 1291.388,1541.52 1291.388,1521.248 C1291.388,1500.976 1285.452,1493.024 1274.364,1493.024 Z M1379.084,1534.464 L1379.084,1482.496 L1362.62,1482.496 L1362.62,1533.68 C1362.62,1544.096 1358.588,1549.248 1349.516,1549.248 C1340.556,1549.248 1336.524,1544.096 1336.524,1533.68 L1336.524,1482.496 L1320.06,1482.496 L1320.06,1534.464 C1320.06,1550.592 1329.916,1561.792 1349.516,1561.792 C1369.116,1561.792 1379.084,1550.032 1379.084,1534.464 Z M1418.396,1482.496 C1438.108,1482.496 1450.204,1490.56 1450.204,1507.472 C1450.204,1525.392 1437.436,1533.568 1419.74,1533.568 L1410.892,1533.568 L1410.892,1560 L1394.428,1560 L1394.428,1482.496 L1418.396,1482.496 Z M1418.396,1521.472 C1427.468,1521.472 1433.18,1518 1433.18,1507.472 C1433.18,1498.4 1427.804,1494.368 1418.172,1494.368 L1410.892,1494.368 L1410.892,1521.472 L1418.396,1521.472 Z" id="UNGROUP"></path>
        </g>
    </g>
</svg>